<svg xmlns="http://www.w3.org/2000/svg" viewBox="0 294.3 612 235.9"><path d="M543.2 301.3c-1.6 7.3-4.2 12.7-7.7 16.3L533 316c2.7-6.9 4-10.9 3.9-11.9l-.7-1.1c-.9.1-2.1 2.5-3.6 7.3l-1.3.1c-.1-.9-.3-1.6-.7-2.3l-.6.1c-11.8 32.9-17.1 48.2-28 73.5-2 6.5-3.7 10.1-5.2 10.8.1.7.5 1.1 1.3 1 .3 3.2-.5 6.3-2.2 9.4-5.1 14.5-8.4 22.5-10.1 23.9l1.1 6.9c.1.7-.3 1.2-1.1 1.2l-1.2.1c-.2-1.9-.9-2.8-2.1-2.7l-.6.1c-1.5 2.4-2.7 5.2-3.5 8.4l1.2-.1c1.6-1 2.3-2.2 2.2-3.7l2.4-.2 1.3.5c-1.1 1.7-1.6 3.1-1.5 4.1l.6 1.1-1.5 3.6.1.6c1.4-.1 2.9.3 4.5 1.3 1.1-.1 2.3-.6 3.6-1.4 1.4-.1 6.4-.2 15.2-.2l4.4-1.5c5.4-.1 6.2.1 10.9-.3l1.9-.2 1-.7.1.6c4.8-.4 5.2-.1 9 .4l.1.6-2.7.2.1 1.1c.8-.1 1.5-.3 2.1-.8.7-.1 1.1.3 1.2 1.1-1.1.1-2.3.4-3.7.8l-1.2-.4c-1.9.5-1.5.6-2.7.7l-1.9-.4c0 .3-.1.5-.4.6.1.7.4 1.1 1.1 1l2.3-.2-1-.4c0 .3.2.5.6.5l9.9-.9 3.8-.8c0 .3.2.5.5.5l1.8-.7 3.4-.3c2.7-.2 2.6-.4 8.3-1.3 0-.3.1-.5.4-.5v.5c10.9-1.8 9.9-1.7 12.2-2.5l-.5-1.2c-3.1.7-3 .3-4.6.5l-8.3.4-.1-.6 4.6-.6 1.7-.1.9-.7.1.6c6.5-.6 8.8 1.1 39.1-5.3 1.6-.1 1.5-1.5 2.5-4.3-.6 0-1.1-.1-1.6-.4-2.5 1-3.8.5-8.6 1.3-.4 0-.7-.3-.9-1.1v-.5l4.6.2c.8-.1 2.6-.2 5-1.6.5.3-.4.6.1.5l.8-.1c.5 0 .7-.4.7-1.2l-.5-1.1c-3.1.3-4.6.4-7.1 1.8l-.1-.6-3.8.4c-.1-1.2-.4-1.7-.9-1.7l-2 .2c-2.3.2-3.4.1-4.5 1 0-.4-.2-.6-.4-.6l-2.2.2-1.3.7c0-.4-.2-.6-.4-.6l-.8.7-.1-.6-3-.2-.7.1.1 1.1 1.6.4 1.4-.1c.5.3 1.1.4 1.7.4l1.3-.6v.5c-7.1 1.8-7.1 1.4-12 2.3-.6-.4-1-.5-1.2-.5-.5.5.6.1.3.1-.8.1-1.2-.3-1.3-1l2.5-.3c.2 0 .3.2 1.7.5 2-1 2.1-1.4 3.2-1.5l-.1-1.1c-7 1.4-4.2.5-13 1.2h-.4l-.1-1.1c11.3-1.4 7.5-.6 11.3-1.7 0 .4.2.6.4.6.4-.4 1-.7 1.6-.7l.8-.1c3.9-.3 5.3.5 13.1-1.7v.5l1.3-.6 1.2-.1c-.1-1.2 1.7-1.3 2.2-1.4l-.1-1.2c-13.7 2.8-17.3 2-21.1 3.1v-.5c-3.6.7-3.7.3-4.6.4-.3 0-.7.3-1.1.7 0-.4-.2-.6-.5-.6-.6 0-.3.2-.8.7l.8-.7-11.9 1.9c0-.3-.2-.5-.5-.5-6 1.3-4.4 1.5-12.5 2.2-.4 0-.9.2-1.5.6 0-.3-.2-.5-.6-.5l-5 .4-3.3.8c0-.3-.2-.5-.6-.5-1.9.5-3.5.8-4.8.9h-.1c-.8.1.4-.2-.2-.5l-1 .6c-1.5.1-.7-.1-5.7 0-8.8 1.1-7.8 1.2-8.8 1.3l-3.3-.2c0 .3-.1.5-.5.6-3.7-.5-5.6-1.1-5.7-1.8.5-3.5 1.3-5.3 2.6-5.5l.6-.1-.6 1.2.6-.1c1.2-.6 1.7-1.2 1.7-1.8l-.1-1.2-1.2.1-.1-1.1c-.1-.9 0-1.6.3-2.3l2.7-4.3.1 1.1 1.3-.1-.1-1.1-.7-1.1c.9-.8 1.7-1.3 2.3-1.3l-.1-.6-1.7.1-.1-1.7c3.4-7.2 5.1-11.4 5-12.5l1.2.5c.8-.1 1.2-.5 1.1-1.3l-1.2.1v-.5c-.1-.9.1-1.7.4-2.4 1.9-1.9 2.7-3.9 2.5-6 .4 0 .6.2.6.6 1.6-.9 2.8-3.3 3.7-7.3 2.8-5.1 6.8-15.3 12-30.5 10-26.9 9.6-29.8 11-36.1l-1.2.1c.1.8-.1 1.6-.5 2.3-.8-.3-1.5-.5-1.9-.5v-.5c-.2-2.3.8-5.1 3-8.4h.5l1 3.9 1.2-.1c0-.3.3-1.8.9-4.7-.1-.6-.5-.9-1.4-1l-1.1.7c-.1-.8 0-2.9.1-6.4l-1.1.2zm-14.4 17.3l.6-.1c-.9 1.6-1.6 2.5-2.3 2.6l-.1-1.7c.5-.1 1.1-.3 1.8-.8zm-5 12c1.2-4.9 2.4-7.7 3.5-8.4l.1.6c-.6 4.6-1.6 6.9-3 7.1l.2 2.9c-1.1 1.5-1.6 2.7-1.5 3.6l-.6.1-.3-4c.6-.1 1.2-.7 1.6-1.9zm-1.9 6.5c.1.7-.4 2.3-1.3 4.7l-.6.1-.1-1.7c.7-2 1.4-3 2-3.1zM489 409.8l.6 1.1c.9-.1 1.3-.5 1.2-1.2l-.1-.6-.6.1-1.1.6zm15.8 13.1v.5c.9-.1 1.8-1.7 2.6-4.8l-1.2-.4c-1 2.7-1.4 4.2-1.4 4.7zm101.2 3.5v.5l-1 1.2 1.9-.7h.2l-.1-1.1h-.4l-.7.6c0-.3 2.1-.9.5-1.2-.3.5.5.6-.4.7zm3.9 3.6l2.7-.2c-.1-.7-1.8-.9-2.4-.9h-.4l.1 1.1zm-47.8 1l.8 1c0-.3.1-.5.4-.5l.6 1.1-2.5-.3c-.2-.8.1-1.2.7-1.3zm-8.2.9c.9-.1 1.5.5 1.5 1.3h-2.8v-.5c.3-.1.8-.3 1.3-.8zm6.4-.3l.1.6-2.3.2-.1-.6 2.3-.2zm-23.2 2.4c0 .3.2.5.6.5 3.7-.7 3.3-.8 5.1-1 .6-.1.9.3 1 1l-10.3.9 1 .5-.1-.6-3.9.3-.1-.6 3.5-.3 3.2-.7zm10.6-.9v.5c-.3 0 1 .1.4.6-2.2-.2-2.3-.4-3.9-.3v-.5l3.5-.3zm2.6-.3v.5l-1.9.2v-.5l1.9-.2zm-64 10.2l.1 1.7c-.6.1-1.1-.3-1.3-1.1v-.5l1.2-.1zm85.6-1.5l.1 1.1 2-.2-.8-.5.1.6 2-.8c13.7-1.5 15.3-.9 15.1-2.5v-.5c-13.8 3.1-15.6 2.5-18.5 2.8zm21.4-1.9l2 .4-.1-1.1-2-.4.1 1.1zm-59.2 3.9c.6.3-.7.6.1.5l7-.6.1.6c-2 .2-3.3.5-3.7.9 0-.4-.2-.6-.6-.6l-3 .3-.1-.6c.8-.1-.4-.1.2-.5zm32.4-.8l.6 1.1c2.3-.5 1-.4 1.6-.9 0 .4.2.6.4.6l1.6-.1-.1-1.2-4.2-.1.1.6zm-39.6 4.3h-.4l-.1-1.1h.4l.1 1.1zm-31.3 3.8l.1.6 18.4-1.5-.1-1.1-14.7 1.2-3.1-.4-.6 1.2zm20.5-1.1h.2l-.1-1.1h-.2l.1 1.1zm-280-96.6c-13 15.5-19.7 24-20.2 25.7-5.3 5.5-7.9 8.8-7.6 9.9-1.4.9-2 1.8-1.8 2.8-.4.1-.7-.1-.8-.5-2.3 3.7-5.6 6-10.1 7.1l-4.7 1.1c-.6.1-.9.6-.9 1.4l.1.6 1.8-.4.1.5-4 1.5-7.1 1.6-3.7.2c-.5.5 2.9-.1 1.6.3l-4.6 1.1c-2.8.7-4.4.4-4.6-.7l-.5.1c.3 1.1 0 1.8-.8 2l.9-.2-.4-1.7-8.4 2 .9.4c-.1-.4-.5-.5-1.3-.3l-1.1.9-1.3-.3c-1.2.7-2 1.1-2.2 1.1l-1.3-.3c-3.5 2-.9 2-1.1 2l.3 1.1 2-.5 3.1-.2-.3 1.3c-11.4 3-3.1 1.3-6.2 2l-.6.1.3 1.1 1.8-.4.1.6c-2.3.5-3.6 1-4 1.5l-.1-.6c-3 .7-6 3-9 6.8.5 2.2-6 4.9 24.6-2.2 2.1-.1 3.3-.1 3.6-.2-.1-.4.1-.6.5-.7 3.4-.4 1.8.2 3.9-.3l6.6-1.5-1.4.8c-.1-.3.1-.5.4-.6.8.2 1.6.1 2.5-.1l.4 1.7-26.1 41.4-5.8 7.2-2.8 9.5.5-.1 2.8-1.2-.9 3.7.3 1.1.8 1c-.4.1-.5.3-.4.7l.1.6 1.2-.3c1.7-1.5 2.4-2.9 2.2-4.1 1.9.3 3.1.4 3.7.3l.1.6c-1.1.3-1.7 1.2-1.8 2.7l.1.6.6-.1c9.5-10.3 32.6-45.6 51.2-69.6-.6-2.6 9.1-6.2 29.1-10.8l.6-.1c.7 3.1-.8 10.7-4.6 22.8-2.5 7.3-3.6 11.3-3.5 11.9-3.2 9.7-4.7 14.9-4.5 15.7l-7.1 23.2c-4.6 11.9-8.1 24.4-10.5 37.6.4-.1 1.1 0 1.9.2l1-.9c.1.4.3.5.8.5l-.4-1.7 3.1-.1c.9-.2 1.7-1.4 2.3-3.5-.1-3.1.5-4.8 1.9-5.2 1.9-7.4 3.1-11.2 3.5-11.3 1.8-7.4 3.1-11.6 4-12.7 2.7-9.6 4.6-14.6 5.9-14.9l.3 1.2-1.9 5.1c-3.4 15.1-6.9 27.1-10.4 35.9l1 4.4.6-.1c8.5-18.2 20.6-54.2 36.5-108 .5-4.7 2.7-8.4 6.8-11l-.9-.9-.1-.5c1.8-.4 3.1-1.1 3.8-2.1-.1-.4-1.7-1-4.8-1.8l9.4-40.2c2.8-12 4.7-22.5 5.7-31.7l-.1-.6c-1.9-1.2-3.8-2.9-5.5-5.1v-2.4l-.1-.5-.5.1c-5.8 8.8-17.4 24.1-34.5 45.9zm13.3 9.1c.5 2.1-.3 6-2.3 11.7-.6 7.2-3.2 11.3-7.7 12.4l-.1-.6-4 1.5-1.8.4c-.9.2-1.7.2-2.5-.1l-.4-1.6c-.1-.6 5.6-8.6 17.4-23.9l1.4.2zm-9.2 25l1.3-.3.3 1.1c-6.3 1.9-9.8 2.9-10.5 3.1-.4.1-1 .4-1.7 1-.1-.4-.9-.4-2.5-.1-.3-1.1 4.1-2.7 13.1-4.8zM178.1 404l1.4-.3-.3-1.2-1.4.3.3 1.2zm18.3-4.8l.3 1.1-3 .2-.1-.6 2.8-.7zm-35 11.5l.1.6-1.9.4-.1-.6 1.9-.4zm-3.5 7.3l.1.5-2.3.5-.3-1.1 2.5.1zm5.5-1.2l.1.5-4.2 1-.1-.5 4.2-1zm7.3-1.2l.1.6-11 2.5-.3-1.1c6.4-1.1 5.7-.7 11.2-2zm55.1-12.8l.9 1c-1.3.3-2.3.7-2.8 1.2l-1.3-.2c-2 .8-3.8 1.4-5.2 1.7l-1.2.3c-.7.2-1.2-.1-1.5-.8l8.3-1.9 2.8-1.3zm5.9-1.3l5.9-1.4.1.6c-3.2.7-5.7 1.5-7.5 2.4l-.1-.6c.5-.1 1-.5 1.6-1zm-62 16.8l2.8-.6.3 1.1c-1.2.3-.3.3-1.8 1-2.9.3-2.3-.1-6.9 1l-.1-.6 5.7-1.9zm7.6-1.3c.8-.2 1.3.1 1.4.9l-1.7.4c-.7.2-1.2-.1-1.5-.9l1.8-.4zM146 480.2l.1.6c.8-.2 1.1-.6.9-1.4l-.1-.6c-.7.2-1 .6-.9 1.4zm2.4 10c.2.7.6 1 1.4.8.8-.2 1.1-.6.9-1.4l-.1-.6-1.2.3-1 .9zm63.8 17.2c.8-.2 1.2.1 1.4.8l.1.6-2.3.5c.2-.8.2-1.4.1-1.8l.7-.1z"/><path d="M304.8 322.4c-5.2 3.7-11.1 7.5-17.7 11.2l.1 1.1c.4 0 1-.3 1.8-.8.8-.1 1.2.3 1.3 1l1.1-.6h.5v.5c.1.6-4.1 3.8-12.3 9.6l.6 1.2h-.5l-1.3-.5c0 .4-.5.7-1.7.8v.5l1.3 1.6c-.4 0-1.1-.1-1.9-.5-2.7.2-5.3 2.2-7.9 5.8l.6 1.1c2.3-2.1 3.6-3.2 4-3.2l.1 1.7c-.4 0-1 .3-1.8.8l1.5 2.1c2.7-3 5.7-5.5 8.9-7.6 1.6.5 2.5 1 2.5 1.5l1.2-.1c9-6.6 17.8-11.3 26.5-14.2l.1 1.1c-1.6 2.4-2.7 3.6-3.3 3.7.1.8.3 1.5.7 2.2.1 1.5-3.8 11.5-11.8 30-18.3 42.9-33.6 74.7-46 95.3 0 .4.3 1 .8 1.7 3.1-.7 5-1.5 5.8-2.2h.5l.1 1.1 1.3-.1 1.1-.6c0 .3.4.5 1.2.4l.1 1.2c.1 1.1-.6 2.8-1.9 5.2-1.3 1.4-2.7 4.4-4.1 8.9l.1.6 1.2-.1c5-5.6 8.7-11 11.3-16.4 14.5-4.3 25.5-8.4 33.2-12.5 7.8-.7 13.6-2.7 17.6-6l-.1-.6-3 .9-.6.1-.1-.6c5.7-.8 9.6-2.1 11.7-3.8 11-8.5 19.3-14.5 25-18 17.4-12.8 25.6-25 24.6-36.8-.1-1.2-3.9-6-11.5-14.4-.1-1.6 2.5-3.9 7.8-6.9l15.2-13.2c3.4-4.3 5.4-11.3 6-21l-.2-2.2c-.6-6.7-5.5-12.1-14.7-16.3-5.5-3.7-15.3-5.7-29.4-6.1-11.4.8-26.7 5-45.6 12.4zm81.4.8l-.6 1.2-16.8-7.1c11.3.5 17.1 2.4 17.4 5.9zM318 370c1.2-6.3 2.5-9.8 3.9-10.6l12.7-28.4c-.1-1.7 2.5-3.1 8-4.1l1.8-.2.1 1.7c5.4-.9 8.7-1.4 10.1-1.5 10-.9 15.2 1.2 15.6 6l1.2-.1-.2-2.7 1.2-.1c2.9 1.6 4.4 3.5 4.6 5.8.1 1.6-.7 3.6-2.4 6-.8.1-1.2-.5-1.3-1.6l-1.2.1-.4 3.4c-5.1 7.7-8.7 11.6-11 11.8-2 2.8-3.3 4.2-3.9 4.2-1.6 1.9-5.9 5.2-13 9.7-2.4.2-11.1 3.6-26.2 10.2-.7-.3-1.6-.4-2.4-.3l-.1-1.1c-.2-2.1.8-4.8 2.9-8.2zm69.8-35l.1 1.2c-.6 0-1.7-1.8-3.5-5.4l-.1-1.1c1.1-.1 2.3 1.7 3.5 5.3zM277 348.6l.1.6c-.4 0-1 .3-1.8.7h-.5l-.1-1.1 2.3-.2zm36.7-.9l.1 1.7c-.6 0-1.3.9-2.2 2.4l-.1-1.1c1-1.3 1.5-2.3 1.5-3h.7zm-5.7 11.8l.2 2.2-.6.1-.2-2.2.6-.1zm-1.4 4.1c-.1 1.9-.6 2.9-1.5 3l-.6.1c.7-1.3 1-2.3.9-3l1.2-.1zm-2.6 5.9l.1.6-1 1.8-1.2.1-.1-.6c1.2-.1 1.8-.7 1.7-1.9h.5zm-2.5 5.3l-.4 2.9h-.5l-.2-2.9h1.1zm61.6 2.1l2.5 1.5c.1.7-.3 1.2-1.1 1.2-1.1-.7-1.9-1-2.5-.9V377l1.1-.1zm-48.2 6.4l.1 1.1-2.4.2-.1-1.1 2.4-.2zm38.9 4.1c1.7.8 2.5 1.5 2.6 2.1v.5c-1.6.1-3.1-.7-4.5-2.5l1.9-.1zm-50.1 12.3c6.8-.6 17.5-3.8 32.2-9.6l3.7-.3c7.4-.6 12.9.8 16.6 4.3l.2 2.2c-2.7 7.8-5.7 12.4-9 13.8l-15.1 12.2c-11.3 7.4-17.4 11.1-18.4 11.2-18 9.9-29.2 15-33.6 15.4l-.6.1c.4-2.1 8.4-18.5 24-49.3zm16.3-6.5l.1.6-2.4.2-.1-.6 2.4-.2zm54.5-2.5l.4 4.6c-.6 1.1-1.1 1.7-1.7 1.8l-.7-7.8c1.3.4 2 .9 2 1.4zm-92.3 39.2c-.8 3.8-1.6 5.8-2.4 5.8v-.5c-.3-1.8.5-3.6 2.4-5.3zm15.1 21.4c4.4-.8 16.5-7.1 36.3-19l.1 1.1c0 .5-1.6 2-5.1 4.4-10 5-16 8.3-17.8 10-10.9 3.8-16.3 6.2-16.2 7.1-9.7 3.8-16 6.6-19.1 8.4-.7.1-1.8-.2-3.1-.9-.2-2 .7-3.5 2.6-4.7 1.7-.1 3.3.1 4.8.7 1.8-.9 4.9-1.9 9.4-3.1l-.1-1.1-3.7.3c.4-.7 3.9-2.3 10.4-4.9l1.8-.2v.5c-3.1.3-4.8 1.2-5.2 2.8.1.7.5 1.1 1.3 1 2.5-1.2 3.6-2.1 3.6-2.4zm-18.7-13.7v.5c.1.8-.3 1.3-1.1 1.3l-.1-.6c0-.5.4-1 1.2-1.2zm28.4 7.8c-1.4.1-4.1 1.3-8.1 3.5l-.6.1-.1-1.1c2.9-.3 5.5-1.4 7.5-3.4.8-.1 1.2.2 1.3.9zm-29.4 8.2l1.8-.2.1.6c-.4 0-1 .3-1.8.7l-1.2.1c-.1-.6.3-1 1.1-1.2zm-12.1 6.7l1.2.5c-.4 3.5-1.5 5.3-3.1 5.4-1.4-.6-2.6-.9-3.7-.8l-.1-1.7c-.1-.6.3-1 1.1-1.2.8-.1 1.2.5 1.3 1.6 2-2.5 3.1-3.8 3.3-3.8zM69.4 317.4c-6.8 5-14.6 9.9-23.3 14.7l.1 1.5c.6 0 1.3-.4 2.3-.9 1-.1 1.6.3 1.6 1.3l1.6-.9.8-.1.1.7c.1.7-5.4 5-16.3 12.7l.9 1.4-.8.1-1.7-.6c0 .5-.7.8-2.3.9l.1.8 1.8 2c-.6 0-1.4-.1-2.4-.5-3.5.3-7 2.9-10.4 7.7l.9 1.4c3-2.7 4.7-4.1 5.2-4.1l.2 2.2c-.5 0-1.3.4-2.3.9l1.9 2.8c3.6-3.9 7.5-7.2 11.9-9.9 2.2.6 3.3 1.2 3.3 2l1.6-.1c11.7-8.7 23.3-14.9 34.8-18.8l.1 1.5c-2.1 3.2-3.6 4.8-4.4 4.9.1 1.1.5 2 1.1 2.9.2 2-5 15.1-15.6 39.5C36 440 15.8 481.8-.5 509c0 .5.4 1.3.9 2.2 4-1 6.6-1.9 7.7-2.9l.9-.1.1 1.5 1.5-.1 1.6-.9c0 .5.6.7 1.6.6l.1 1.5c.1 1.5-.7 3.8-2.6 6.9-1.7 1.9-3.4 5.8-5.3 11.7l.1.7 1.5-.1c6.5-7.3 11.5-14.5 14.9-21.5 19.1-5.6 33.6-11.1 43.7-16.5 10.1-.9 17.9-3.5 23.1-7.9l-.1-.8-3.8 1.1-.9.1-.1-.8c7.4-1.1 12.6-2.8 15.4-5 14.5-11.2 25.4-19.1 32.8-23.8 22.9-16.8 33.7-33 32.4-48.4-.1-1.6-5.2-7.9-15.1-18.9-.2-2.1 3.3-5.1 10.3-9.1l19.9-17.5c4.4-5.7 7.1-14.9 8-27.6l-.3-3c-.8-8.9-7.2-16.1-19.4-21.6-7.2-4.9-20.1-7.5-38.7-7.8-15.3 1.4-35.5 6.8-60.3 16.4zm107.2 1.3l-.6 1.5-22.2-9.3c14.8.6 22.4 3.2 22.8 7.8zm-89.8 61.6c1.5-8.2 3.2-12.9 5.1-14l16.6-37.3c-.2-2.3 3.3-4.1 10.6-5.3l2.4-.2.2 2.1c7.2-1.1 11.6-1.7 13.3-1.9 13.2-1.1 20 1.5 20.6 8l1.5-.1-.3-3.8 1.6-.1c3.9 2.1 6 4.7 6.2 7.8.2 2.1-.9 4.7-3.4 7.8-1 .1-1.6-.6-1.7-2.1l-1.6.1-.4 4.5c-6.7 10-11.5 15.1-14.5 15.4-2.7 3.7-4.4 5.6-5.1 5.7-2.1 2.5-7.8 6.8-17.2 12.8-3.1.3-14.6 4.7-34.5 13.4-1-.5-2-.6-3.2-.5l-.1-1.4c-.2-2.9 1-6.5 3.9-10.9zm91.9-46l.1 1.4c-.8.1-2.3-2.3-4.5-7.1l-.1-1.4c1.4-.2 2.9 2.2 4.5 7.1zm-146 17.8l.1.7c-.5 0-1.3.4-2.3.9l-.8.1-.1-1.4 3.1-.3zm48.3-1.2l.2 2.2c-.7.1-1.7 1.1-2.9 3.2l-.1-1.5c1.4-1.7 2.1-3 2.1-3.9h.7zm-7.4 15.6l.3 3-.8.1-.3-3 .8-.1zm-1.9 5.4c-.2 2.5-.8 3.8-2.1 3.9l-.8.1c.9-1.7 1.4-2.9 1.3-3.8l1.6-.2zm-3.3 7.8l.1.7-1.4 2.4-1.5.1-.1-.7c1.5-.1 2.2-.9 2.1-2.4l.8-.1zm-3.4 7l-.4 3.7-.8.1-.3-3.7 1.5-.1zm81.1 2.7l3.3 2c.1 1-.4 1.6-1.4 1.7-1.4-.9-2.5-1.3-3.3-1.3l-.2-2.2 1.6-.2zm-63.5 8.5l.1 1.4-3.1.3-.1-1.4 3.1-.3zm51.2 5.2c2.2 1 3.3 2 3.4 2.8l.1.7c-2.1.2-4-.9-5.8-3.3l2.3-.2zm-66 16.2c9-.8 23.2-5 42.5-12.6l4.7-.4c9.8-.8 17.1 1 21.9 5.6l.3 3c-3.6 10.4-7.6 16.4-11.9 18.3l-20 15.9c-14.9 9.8-22.9 14.7-24.1 14.8C57.5 477 42.7 483.7 37 484.2l-.9.1c.8-2.8 11.3-24.4 31.7-65zm21.6-8.5l.1.7-3.2.3-.1-.7 3.2-.3zm71.8-3.2l.5 5.9c-.7 1.6-1.4 2.4-2.2 2.4l-.9-10.4c1.7.7 2.5 1.4 2.6 2.1zM39.5 459.2c-1 5.1-2.1 7.7-3.2 7.8l-.1-.7c-.2-2.6.9-4.9 3.3-7.1zm20 28.2c5.8-1.1 21.7-9.5 47.8-25l.1 1.4c.1.6-2.2 2.5-6.7 5.8-13.3 6.5-21.1 11-23.4 13.3-14.4 5-21.5 8.1-21.4 9.3-12.8 5.1-21.2 8.8-25.2 11.1-.9.1-2.3-.3-4.1-1.1-.2-2.6.9-4.7 3.5-6.4 2.2-.2 4.4.1 6.4 1 2.4-1.2 6.5-2.6 12.4-4l-.1-1.5-4.7.4c.6-.8 5.1-2.9 13.7-6.4l2.4-.2.1.7c-4 .3-6.3 1.6-6.8 3.7.1.9.6 1.4 1.6 1.3 2.9-2 4.4-3.1 4.4-3.4zm-24.6-18.1l.1.7c.1 1-.4 1.6-1.4 1.7l-.1-.7c-.1-.9.4-1.5 1.4-1.7zm37.4 10.2c-1.9.2-5.4 1.7-10.7 4.7l-.8.1-.1-1.5c3.8-.3 7.1-1.8 9.8-4.5 1.1-.2 1.7.3 1.8 1.2zm-38.8 10.8l2.4-.2.1.8c-.6 0-1.3.4-2.3.9l-1.5.1c-.1-.7.3-1.3 1.3-1.6zm-15.9 8.9l1.7.7c-.6 4.5-1.9 6.8-4.2 7-1.8-.8-3.4-1.1-4.9-1l-.2-2.2c-.1-.9.4-1.4 1.5-1.7 1-.1 1.6.6 1.7 2.1 2.7-3.3 4.2-4.9 4.4-4.9zm443.6-196.5l-1.3-.5-21.3 3.3c-.8-.4-1.8-.6-2.9-.5-1.2.1-3 .5-5.7 1.2l-10.3 4.3.8 1.3c.5 0 1.2-.3 2.1-.8l3.6.3-.5 3.4c-3.3 1.5-5.3 3.7-5.8 6.6-5 2.2-7.5 3.8-7.5 4.8l.1.6.8-.1 1.4-.7 1.6 1.9.2 2.6c.1.8-8.4 18.7-25.4 53.6-14.7 33.6-22.4 52-23.2 55.3-5 1.4-8 3.5-8.8 6.2.1.9 1.6 1.4 4.5 1.7l.1 1.3-1.3 2.2.2 2.6c.1 1.4 3.8 2.4 11 3.2 0-.5.2-.7.7-.8.1 1.6-.3 4.8-1.4 9.6l.8-.1c3-4.1 4.4-6.9 4.3-8.5l.6-.1c.7-.1 1.5.8 2.4 2.6-.9.4-4.1 7.6-9.5 21.7l.8 1.3.8-.1c6.7-16.9 10.9-26.3 12.6-28.1 8.8-.8 23.9-2.3 45.5-4.6l1.3-.8c0 .5.3.7.8.6l1.4-.1 1.3-.8c0 .5.3.7.8.6l16.3-1.4c4.3-.4 6.4-1.7 6.2-3.9-.1-.6 2.5-1.3 7.7-2 .5 0 1.2.1 2.2.4 0-.4 2.5-.8 7.7-1.3.1-2.7 1-4.2 2.6-4.3l-.1-1.3c-1.4.1-3.1.5-5 1.1-3.4-.2-5.6-.4-6.5-.8-.9.5-1.6.8-2.1.8l-11.4.4-1.4.7c0-.4-.3-.6-.8-.5l-.6.1-1.5.7c0-.4-1.2-.7-3.6-1l-1.4.8-2.8.2-.1-.7c14.6-1.6 21.9-3.6 21.7-6 .9-.1 1.4.4 1.5 1.3l4.3-1.1-.1-1.3-35 1c0 .5-.2.7-.7.8l-4.3-.4c-1.1.1-2 .4-2.7 1l-1.6-.6c-4.4.4-7.7.9-9.9 1.6-3-.2-6.3-.2-10 .1l-7.9.7-3.6-.4c-.2-2.3 4.3-13.7 13.6-34.2 2.7-6.9 5.2-11.2 7.5-12.8.5 0 1.2.1 2.2.5l5.6-1.9 2.9.5c4.8-.4 10.4-1.8 16.8-4.1 1.6-.1 2.8 0 3.6.3l4.3-1 12.7-1.1c5.4-.5 11.3-1.7 17.6-3.6l-.1-1.3c-2.4.2-3.6-.2-3.7-1.1-.2-1.8-1.9-2.5-5.2-2.2l-.1-1.3 3.5-1 9.2-.8-.1-1.3c-.4 0-2.2 0-5.7-.1l-.1-1.4 3.6-.3c.9-.1 1.4-.6 1.3-1.4-4.8.1-7.2-.1-7.2-.7-33.3 1.6-49.9 1.9-50 .9-.5 0-1.2.3-2.1.9l-.9-1.4c8.8-18.7 14-28.2 15.5-28.3.1.7-.3 1.9-1.1 3.5l.1.6 1.4-.1c3.5-8.4 6.4-12.7 8.9-12.9 10.4-.9-1.5-1.6 20.9-5.1.9.4 1.6.6 2 .5 8.8-1.8 21-3.6 36.7-5.5l-.1-1.3-8.4.8-.1-1.3c1-.1 1.8-.4 2.5-1l.1.7c.5 0 1.1-.3 1.9-.9 1.4-.1 2.5 0 3.3.4 2.9-.8 5.2-1.2 7-1.4l5.2-.5c1.3-.8 1.9-1.5 1.8-2.2v-.6c-1.3.1-2.8 0-4.6-.3-.1-.7.3-1.2 1.2-1.4l9.7-.9 4.5-1.1c0 .5.3.7.6.7.5 0 1.1-.3 1.9-.9 2.3.3 3.7.4 4 .3 1.8-1.7 3.9-3.1 6.2-4-1-1-1.5-1.8-1.6-2.5l-6.5.6c0-.5-.3-1.1-.7-2 0-.6 1.4-1.2 4.4-1.8l1.3.5 1.2-.7c0 .4.3.6.7.5l1.2-.7c0 .4.3.6.7.5l.6-.1-.1-1.3c-.9.1-3.3.1-7.1 0l-1.2.8-.1-.7c-30.5 2.5-47.8 3.9-51.9 4.3-.5 0-2.7 0-6.4-.1 0 .5-.4.8-1.3.8l-1.3-.6-4.5 1.1c-1 .1-2.8 0-5.3-.2-.7.5-1.5.9-2.5 1-1 .1 24.2-1.4 23.4-1.8l-3.9 1.1-.6.1c-1.6.1-3.6.1-6-.2-.7.5-1.7.9-3.2 1-1 .1-1.9-.1-2.6-.5-1.1.3-4.3 1.1-9.7 2.1zm1.6 4c0 .5.5.7 1.3.6l.1 1.3-1.3.1c-1 .1-1.9-.1-2.6-.5-.7.6-1.6.9-2.5 1h.4l-3.6-.4-.1-.6c4.4-.3 5.8-.8 8.3-1.5zm3.3-.3l.7-.1.1 1.3-2 .2c0-.7.3-1.2 1.2-1.4zm7.7-.8l.1.7c-1.5.1-3.4.5-5.7 1.2l-.7.1.6-1.4 5.7-.6zm-56.8 6.5l2.2-.2-.1-1.3-2.2.2.1 1.3zm15.7-1.4l.8-.1 1.5.6c.1.9-.4 1.4-1.3 1.4l-2.2.2-.1-.7c-.1-.7.4-1.1 1.3-1.4zm50.3 2.9v.6l-4.5.4v-.6l4.5-.4zm-12.9 1.9l.1.7-2.6.2-.1-.7 2.6-.2zm12.4 1l9-1.5 4.6.2.1.7c-2.2.2-4.1.6-5.7 1.2 0-.5-.9-.9-2.7-1.1l-7.1 2c-1.4-.8-2.1-1.4-2.1-1.8l3.9.3zm-8.9 2c.9-.1 1.3.3 1.4 1.2l-3.8.4-.1-1.3 2.5-.3zm-7.9-.4l.1.7 23.4-1.1-.1-.7-23.4 1.1zm1.4 1.8v.6l-5.1.5v-.6l5.1-.5zm-33.5 26.5l.1.7 1.5-.1c0-.5.1-1.2.5-2.1l-.1-1.3c-.8.1-1.5 1-2 2.8zm-51.5 74.8l.1.6c.1.9-.4 1.4-1.4 1.5l-.1-.6c-.1-.8.4-1.2 1.4-1.5zm-1.3 2.8c.1 1.3-.8 4.5-2.6 9.7l-2.2.2c-.1-.9 1.1-4.1 3.4-9.7l1.4-.2zm24.1 20.9c.1.7-1.1 1.5-3.4 2.3l-4.4-.3-1.4.1-.1-1.3 9.3-.8zm4.3.4l.1.6-3.6.3-.1-.6 3.6-.3z"/></svg>