<svg xmlns="http://www.w3.org/2000/svg" viewBox="0 0 512 512"><rect x="219.27" y="221.3" width="72.04" height="69.58" transform="translate(-67.42 94.64) rotate(-18.52)"/><path d="M489.84,185.3C437,9.29,360.9-31.64,184.9,21.16S-32,150.1,20.76,326.1,149.7,543,325.7,490.24,542.64,361.3,489.84,185.3ZM401,299.5l-33.15,11.05,11.46,34.38c4.5,13.92-2.87,29.06-16.78,33.56-2.87.82-6.14,1.64-9,1.23a27.32,27.32,0,0,1-24.56-18l-11.46-34.38-68.36,22.92,11.46,34.38c4.5,13.92-2.87,29.06-16.78,33.56-2.87.82-6.14,1.64-9,1.23a27.32,27.32,0,0,1-24.56-18L198.81,367l-33.15,11.05c-2.87.82-6.14,1.64-9,1.23a27.32,27.32,0,0,1-24.56-18c-4.5-13.92,2.87-29.06,16.78-33.56L182,316.69l-22.1-65.9-33.15,11.05c-2.87.82-6.14,1.64-9,1.23a27.32,27.32,0,0,1-24.56-18C88.71,231.14,96.08,216,110,211.49l33.15-11.05-11.46-34.38c-4.5-13.92,2.87-29.06,16.78-33.56s29.06,2.87,33.56,16.78l11.46,34.38,68.36-22.92-11.46-34.38c-4.5-13.92,2.87-29.06,16.78-33.56s29.06,2.87,33.56,16.78L312.2,144l33.15-11.05c13.92-4.5,29.06,2.87,33.56,16.78s-2.87,29.06-16.78,33.56L329,194.3l22.1,65.9,33.15-11.05c13.92-4.5,29.06,2.87,33.56,16.78S414.93,295,401,299.5Z" transform="translate(0.7 0.3)"/></svg>
