<svg width="500" height="200" xmlns="http://www.w3.org/2000/svg"><path fill="none" d="M-1-1h502v202H-1z"/><g fill-rule="evenodd" fill="none"><path stroke="#8E897B" fill="#FFF9E8" d="M1 28.857h498v142.286H1z"/><path fill="#001EB2" opacity=".897" d="M40.478 82.068c-.09.27-.09.452-.09.542 0 .723.542 1.266 1.266 1.266.542 0 .994-.27 1.175-.724 1.988-5.695 6.057-10.126 15.37-10.126 10.487 0 15.73 6.33 15.73 14.828 0 21.156-35.802 22.693-35.802 43.487 0 .725.542 1.267 1.265 1.267h37.16c.723 0 1.265-.542 1.265-1.266 0-.722-.542-1.264-1.266-1.264h-35.53c0-16.455 35.8-20.524 35.8-42.222 0-10.397-6.6-17.36-18.623-17.36-9.404 0-15.37 4.43-17.722 11.574zm67.718-11.573c-15.28 0-21.88 9.312-21.88 31.644 0 22.33 6.6 31.733 21.88 31.733s21.88-9.403 21.88-31.734c0-22.333-6.6-31.645-21.88-31.645zm0 60.937c-13.47 0-19.077-8.86-19.077-29.293 0-20.434 5.605-29.294 19.076-29.294 13.47 0 19.077 8.86 19.077 29.293 0 20.432-5.606 29.292-19.077 29.292zM155.3 74.835v57.14c0 .723.542 1.355 1.356 1.355.814 0 1.447-.632 1.447-1.356v-59.58c0-.814-.543-1.357-1.356-1.357-.362 0-.633.09-.995.362l-15.46 10.758c-.362.27-.543.633-.543 1.085 0 .723.632 1.266 1.265 1.266.27 0 .543-.092.814-.273l13.47-9.402zm65.82 59.038c8.407 0 16.273-3.526 20.16-9.403.18-.27.272-.633.272-.814 0-.723-.543-1.265-1.266-1.265-.362 0-.723.09-1.085.543-4.248 5.696-11.21 8.408-18.08 8.408-15.913 0-24.954-7.864-24.954-29.11 0-20.072 9.04-29.204 24.953-29.204 7.865 0 14.465 3.707 18.08 8.59.363.452.724.542 1.086.542.723 0 1.266-.543 1.266-1.266 0-.36-.18-.723-.362-.994-4.068-5.696-11.482-9.403-20.07-9.403-17.45 0-27.848 10.307-27.848 31.734 0 22.33 10.398 31.643 27.847 31.643zm32.095-43.036c-.724 0-1.356.633-1.356 1.357v39.78c0 .724.63 1.356 1.355 1.356.723 0 1.356-.632 1.356-1.356v-21.337c0-9.854 5.064-17.9 15.46-17.9.634 0 1.177-.543 1.177-1.176 0-.632-.543-1.175-1.176-1.175-8.497 0-13.56 4.61-15.46 10.67v-8.86c0-.725-.632-1.358-1.355-1.358zm21.698 21.156c0 15.28 7.414 21.79 19.44 21.79 8.316 0 12.656-3.617 14.103-4.973.27-.27.542-.543.542-.995 0-.633-.542-1.175-1.175-1.175-.27 0-.452.09-.723.27-2.622 2.17-5.968 4.522-12.748 4.522-10.578 0-16.636-6.058-16.636-19.077h30.47c1.174 0 1.807-.452 1.988-1.446.18-1.086.18-2.352.18-3.347 0-6.057-1.99-17.268-16.997-17.268-11.572 0-18.444 7.685-18.444 21.698zm32.82-4.43c0 .724-.09 2.532-.09 2.532h-29.927c.362-10.76 5.425-17.45 15.64-17.45 11.574 0 14.376 7.686 14.376 14.918zm26.31-14.917c8.317 0 13.29 4.16 13.29 11.843v4.158h-13.924c-10.308 0-16.727 4.61-16.727 12.567s5.606 12.477 15.732 12.477c6.057 0 11.934-2.26 14.917-7.052v5.334c0 .724.543 1.266 1.266 1.266s1.266-.542 1.266-1.266v-26.76c0-8.952-4.702-14.92-15.822-14.92-7.595 0-12.115 3.708-14.466 7.505-.18.27-.27.54-.27.813 0 .723.54 1.265 1.265 1.265.362 0 .814-.18 1.086-.632 2.17-3.346 5.063-6.6 12.386-6.6zm-1.628 38.695c-8.77 0-12.93-3.886-12.93-10.125 0-6.96 5.787-10.306 13.924-10.306h13.922v7.683c0 8.5-7.052 12.748-14.917 12.748zm31.462-39.78h-5.605c-.633 0-1.175.543-1.175 1.176 0 .633.542 1.175 1.175 1.175h5.605v28.752c0 6.148 3.617 10.668 10.217 10.668.633 0 1.175-.542 1.175-1.175s-.543-1.175-1.176-1.175c-4.43 0-7.504-2.893-7.504-8.318v-28.75h8.137c.633 0 1.175-.543 1.175-1.176 0-.633-.542-1.175-1.175-1.175h-8.137V80.53c0-.723-.633-1.356-1.356-1.356-.724 0-1.357.633-1.357 1.357v11.03zm18.987 20.433c0 15.28 7.413 21.79 19.438 21.79 8.318 0 12.658-3.617 14.104-4.973.27-.27.543-.543.543-.995 0-.633-.544-1.175-1.177-1.175-.27 0-.452.09-.723.27-2.622 2.17-5.967 4.522-12.748 4.522-10.578 0-16.636-6.058-16.636-19.077h30.47c1.174 0 1.807-.452 1.988-1.446.18-1.086.18-2.352.18-3.347 0-6.057-1.988-17.268-16.997-17.268-11.572 0-18.443 7.685-18.443 21.698zm32.82-4.43c0 .724-.092 2.532-.092 2.532h-29.926c.362-10.76 5.425-17.45 15.64-17.45 11.574 0 14.377 7.686 14.377 14.918zm42.492-4.34v13.02c0 10.578-6.24 15.19-14.737 15.19-10.218 0-15.642-5.878-15.642-19.44 0-13.38 5.424-19.347 15.64-19.347 11.212 0 14.738 10.578 14.738 10.578zM443.44 90.296c-11.574 0-18.535 6.87-18.535 21.7 0 14.826 6.96 21.787 18.534 21.787 10.125 0 17.448-5.786 17.448-17.54v-46.65c0-.724-.633-1.357-1.356-1.357-.723 0-1.356.633-1.356 1.356v29.294s-3.617-8.59-14.737-8.59z"/></g></svg>