<svg id="Layer_1" xmlns="http://www.w3.org/2000/svg" viewBox="0 0 500 300"><style>.st0{fill:#4C92CF;}</style><path class="st0" d="M37 154.7c-5.3-.1-9.3 4.1-9.4 9.1-.1 5.4 4.2 9.2 8.9 9.4 5.3.2 9.6-4.1 9.6-9.3 0-5-3.9-9.1-9.1-9.2zM36.7 148.4c5.3.1 9.4-4.2 9.4-9.3 0-5.2-4.3-9.4-9.3-9.3-4.8-.1-9.3 3.8-9.3 9.2.1 5.2 4.2 9.3 9.2 9.4zM10.4 154.7c-5.3-.1-9.4 4.2-9.4 9.2 0 5.2 4.1 9.3 9.1 9.4 5.3.1 9.6-4.3 9.5-9.3 0-4.9-3.9-9.2-9.2-9.3zM36.8 123.5c5.2 0 9.3-4.1 9.3-9.3 0-5-3.9-9.3-9.2-9.3-5.2 0-9.2 4.1-9.3 9.1-.1 5.3 4.2 9.5 9.2 9.5zM10.4 148.4c5.3-.1 9.2-4.4 9.1-9.3.1-5.1-4.2-9.2-9.1-9.3-5-.1-9.4 3.9-9.4 9.1-.1 5.2 4.1 9.5 9.4 9.5zM10.3 104.9c-5.3 0-9.4 4.3-9.3 9.4.1 5.1 4.2 9.1 9.3 9.1 5.2 0 9.1-4.2 9.3-9 .1-5-3.9-9.5-9.3-9.5zM63.5 129.8c-5-.1-9.3 4-9.3 9.3 0 5.1 4.1 9.3 9.3 9.3 5.1 0 9.3-4 9.3-9.3-.1-5.4-4.5-9.4-9.3-9.3zM63.5 123.5c4.9 0 9.3-3.9 9.3-9.3 0-5.2-4.1-9.3-9.3-9.3-5.3 0-9.3 4.3-9.3 9.3 0 5.2 4.2 9.3 9.3 9.3zM63.6 154.7c-5.3-.1-9.4 4.2-9.4 9.3 0 5.1 4.1 9.1 8.9 9.3 5.2.2 9.6-3.9 9.6-9.3 0-5.2-4.1-9.2-9.1-9.3zM231.4 120.7c-6 0-10.5 2.4-13.4 7.4v-23.2h-13.4v32.9c-4.2-11.5-12.5-17.7-23.7-17.7-6.8 0-12.7 2.7-17.5 8.1-3.4 3.7-5.6 8.1-6.6 12.9-3-13.2-12.1-21-24.4-21-6.5 0-12.8 2.9-17.5 8.1-3.8 4.1-6.2 9.2-7 14.7v-22.1h12v-15.9H80.8v15.9h11.7v52.5h15.4v-21.8c.8 5.6 3 10.6 6.7 14.8 4.9 5.6 10.7 8.3 18 8.3 10.6 0 18.5-5.5 23.1-16.2h-15.4c-2.1 2-4.4 2.9-7.3 2.9-6.1 0-9.7-2.9-11-8.4h34.7c.9 5 3.1 9.7 6.5 13.6 4.9 5.6 10.7 8.3 18 8.3 10.8 0 19.5-6.4 23.5-17.3v16h13.7v-28c0-6.9 2.9-10.5 8.4-10.5 5.4 0 6.8 3.3 6.8 10.5v28h14v-34c.1-12.1-6.3-18.8-16.2-18.8zM122.1 142c1-4.9 5.1-8.2 11-8.2 5.6 0 9.6 2.9 11.2 8.2h-22.2zm68.5 12.8c-2.3 3.4-5.4 5.1-9.2 5.1-6.7 0-11.3-4.9-11.3-12.8 0-7.1 4.6-12.3 10.9-12.3 4.6 0 7.9 1.9 9.8 5.5h14v14.5h-14.2zM483.9 121.6l-10.1 30.1-8.9-30.1h-25.4v5.8c-3.1-4.3-7.4-6.5-12.8-6.5-5.8 0-10.9 2.4-15.2 7.1-3.4 3.7-5.6 8.1-6.6 13-1.1-4.9-3.5-9.5-7.1-13.2-4.8-4.9-10.7-7.5-17.6-7.5-6.5 0-12.8 2.9-17.5 8.1-3 3.2-5.1 7-6.2 11.2v-34.7h-13.9v34.7c-1.2-4.4-3.5-8.5-6.7-11.8-4.8-4.9-10.7-7.5-17.6-7.5-6.5 0-12.8 2.9-17.5 8.1-3.3 3.5-5.5 7.8-6.6 12.5v-1.7c0-11.8-6.4-18.6-16.2-18.6-6.3 0-10.7 2.7-13.6 7.9l.2-6.9H251v51.6h13.7v-28c0-6.9 2.9-10.5 8.4-10.5 5.4 0 6.8 3.3 6.8 10.5v28h14v-19.3c1 4.6 3.1 8.9 6.3 12.4 4.9 5.6 10.7 8.3 18 8.3 7.2 0 13.2-2.8 18.1-8.1 3-3.2 5-6.9 6.1-11.1v17.8h13.9v-18c1.1 4.1 3.1 7.9 6 11.1 4.9 5.6 10.7 8.3 18 8.3 7.2 0 13.2-2.8 18.1-8.1 3.3-3.6 5.5-7.8 6.5-12.7 2.4 11.6 11 19.7 21.7 19.7 5 0 8.9-1.8 12.8-5.7.1.9.1 1.7.1 2.6 0 7.9-3.7 12.2-9.9 12.2-4.2 0-7-2-7.9-5.3h-15.6c1.8 10.8 10.5 17.7 23 17.7 8.9 0 15.6-3.2 20.1-9.5 3.7-5.3 3.7-10.8 3.7-17.6v-36.5l13.9 38.6-7.2 19.9h14.1l25.2-68.3h-15zm-165.6 38.6c-6.1 0-11.2-5.7-11.2-12.7 0-7.1 5-12.8 11.2-12.8 6.2 0 11.2 5.7 11.2 12.8 0 7-5 12.7-11.2 12.7zm62 0c-6.1 0-11.2-5.7-11.2-12.7 0-7.1 5-12.8 11.2-12.8 6.2 0 11.2 5.7 11.2 12.8.1 7-5 12.7-11.2 12.7zm48.6-.2c-6.4 0-11.4-5.7-11.4-12.9 0-7 4.9-12.7 11.8-12.7 5.7 0 10.7 5.4 10.7 12.9 0 7.2-4.9 12.7-11.1 12.7z"/></svg>