<svg width="500" height="200" xmlns="http://www.w3.org/2000/svg"><path fill="none" d="M-1-1h502v202H-1z"/><path d="M83.948 133.362a8.343 8.343 0 0 1-8.342 8.341H8.886c-4.608-.039-8.345-3.651-8.345-8.341V66.638c0-4.604 3.737-8.341 8.345-8.341h66.72c4.605 0 8.21 3.612 8.21 8.341v66.724h.132z" fill="#FF5C3E"/><path fill="#FFF" d="M65.895 94.373H48.161V76.638H36.338v17.735H18.604v11.822h17.734v17.735h11.823v-17.735h17.734z"/><path d="M482.75 105.204c-2.694-.614-5.4-1.11-7.814-1.692-5.116-1.221-8.988-2.814-8.988-6.614 0-4.5 6.098-5.3 9.396-5.3 4.998 0 9.524 1.642 10.509 6.9h11.898c-1.405-11.498-11.008-15.902-21.61-15.902-9.395 0-21.602 3.5-21.602 14.805 0 3.284.985 5.911 2.299 8.108 3.034 4.27 8.538 5.912 14.121 7.225 8.306 1.97 16.75 2.627 16.75 8.605.298 5.898-7.206 6.794-11.505 6.794-6.099 0-11.107-2.397-11.701-8.998h-11.406c.2 12.151 9.852 18.063 22.989 18.004 10.703 0 23.107-4.5 23.107-16.805.266-10.198-8.003-13.153-16.542-15.124M147.65 64.29h-13.304L123.482 92.6l-16.545 43.11h12.903l6.706-18.903h28.507l6.703 18.903h13.402l-14.05-36.477L147.65 64.29zm-17.708 43.016l4.434-12.602 6.368-18.108h.302l7.166 20.562 3.54 10.144h-21.81v.004zm86.728-16.608h-.198c-3.504-5.702-10.703-8.106-17.208-8.106-9.557 0-18.947 5.895-21.623 19.048a39.18 39.18 0 0 0-.782 7.892c0 15.436 7.882 27.587 24.303 27.607 6.506 0 13.005-2.503 16.007-8.408h.203v7.005h10.802V64.29h-11.505v26.408zm.4 19.103c0 9.006-4.302 18.303-14.506 18.303-9.902 0-14.299-8.798-14.299-17.705 0-2.486.28-4.979.883-7.307 1.652-6.384 5.777-11.498 13.62-11.498 7.813 0 13.136 5.255 14.121 14.45.102 1.137.076 2.45.076 3.764m60.822-19.11h-.2c-3.501-5.702-10.703-8.102-17.203-8.102-10.985 0-21.744 7.77-22.351 25.288-.017.512-.056 1.008-.056 1.54 0 15.435 7.882 27.586 24.302 27.606 6.5 0 12.999-2.502 16.004-8.407h.2v7.005h10.805V64.29h-11.501v26.408zm.384 19.695c-.184 8.814-4.502 17.714-14.483 17.714-9.908 0-14.305-8.798-14.305-17.705 0-.535.013-1.073.039-1.605.424-8.763 4.378-17.196 14.47-17.196 8.801 0 14.45 6.897 14.45 18.063-.151.472-.292.472-.292.8m29.228-35.468h22.661v60.757h12.48V74.996h22.66V64.16h-57.801zm94.104 7.6c-6.798 0-12.7 3.5-15.504 8.2h-.2V64.29h-11.403v71.42h11.405v-30.506c0-7.603 4.9-13.606 12.506-13.606 6.703 0 9.853 3.612 10.181 11.602v32.51h11.406v-35.508c-.085-11.74-7.074-17.652-18.24-17.652m30.871-18.391h11.494v10.838h-11.494zm0 43.679v27.915h11.494v-51.89h-11.494z" fill="#323232"/></svg>