<svg id="Layer_1" data-name="Layer 1" xmlns="http://www.w3.org/2000/svg" viewBox="0 0 446.87 167.58"><defs><style>.cls-1{fill:#0073cf;}</style></defs><title>aha_logo_500x200</title><path class="cls-1" d="M50 128.51l-8.11 35.28a2.26 2.26 0 0 1-2.19 1.74l-37.46-.19a2.3 2.3 0 0 1-1.82-.93 2.25 2.25 0 0 1-.31-2l49.4-150.9a5.39 5.39 0 0 1 4.34-3.49c10.94-2 28.24-4.74 40.43-6.89a3.76 3.76 0 0 1 3.88 2.05l49 160.28a1.73 1.73 0 0 1-1.66 2.23l-21.86-.19c-5.79 0-17.09.36-21.53.51a2.23 2.23 0 0 1-2.26-1.75l-8-35.68zM84.57 97.6c-3.05-12.7-8-35.1-12.45-54.54C69.03 56.53 61.5 84.4 57.96 97.59zM196.37 60.45c26.84-18.51 49.15-14.39 60.12-3.44 13.29 13.68 5.52 31.49 10.07 106.11a2.25 2.25 0 0 1-2.3 2.38c-4-.1-11.81-.29-15.72-.29-6.53 0-19.23.54-24.47.77a2.26 2.26 0 0 1-2.35-2.25c.54-73.27 1.06-83.1-12.25-83.1-4.51 0-8.59 1.92-12.45 3.87.21 37.89.76 48.63 2 79.18a1.81 1.81 0 0 1-.49 1.31 1.88 1.88 0 0 1-1.29.57l-42.16.54a1.69 1.69 0 0 1-1.29-.52 1.75 1.75 0 0 1-.53-1.28c1-109.38.19-132-3.14-154.87a2 2 0 0 1 1.78-2.29c18.69-2.79 20.47-3.06 42.15-7.14a2.27 2.27 0 0 1 2.32 2.44zM339.78 153.79c-7.7 5.78-23.25 13.74-35.48 13.74-19.23 0-31.51-13.88-31.51-35.14 0-32.57 38-41.93 65.48-45.58.43-5.37.65-11.16-13.31-11.16-13.76 0-25.28 4.21-37 8.88a2.25 2.25 0 0 1-2.14-.25 2.28 2.28 0 0 1-.94-1.94l1.25-25a2.27 2.27 0 0 1 1.59-2c24.52-7.42 66.27-13.24 84 3 10.79 9.83 10.26 22.33 9.88 43.37-.55 30.38-.11 38.79 1.67 61.43a2.22 2.22 0 0 1-.58 1.68 2.25 2.25 0 0 1-1.63.74l-39 .58a2.23 2.23 0 0 1-2.27-2.23zm-.64-43.59c-10.09.87-25.33 1.94-25.33 15 0 11.31 12.48 15.11 25.33 7.08zM409.04 111.15a2.25 2.25 0 0 1-2.29-2.15c-2.44-57.21-3.08-63.43-6.32-99.12a2.25 2.25 0 0 1 1.86-2.41L444.23.4a2.22 2.22 0 0 1 1.9.57 2.19 2.19 0 0 1 .7 1.85c-2.45 25.68-5.19 74.13-5.7 105.45a2.25 2.25 0 0 1-2.19 2.21zM443.81 163.29a2.21 2.21 0 0 1-.65 1.67 2.29 2.29 0 0 1-1.68.66 310 310 0 0 0-37.51.34 2.27 2.27 0 0 1-1.7-.6 2.24 2.24 0 0 1-.69-1.68c.22-12.09.28-25 .16-32.52a2.24 2.24 0 0 1 2.42-2.27 270.72 270.72 0 0 0 37.6-.35 2.22 2.22 0 0 1 2.48 2.32c-.56 12.55-.81 23.39-.43 32.43z"/></svg>