<svg width="500" height="200" xmlns="http://www.w3.org/2000/svg"><path fill="none" d="M-1-1h502v202H-1z"/><path stroke="null" d="M263.55 61.222c0 5.565-4.505 10.07-10.07 10.07s-10.07-4.505-10.07-10.07 4.417-10.07 10.07-10.07c5.565 0 10.07 4.505 10.07 10.07zm-41.87 20.405v2.56s-4.858-6.27-15.193-6.27c-17.048 0-30.21 12.985-30.21 30.916 0 17.755 13.162 30.917 30.21 30.917 10.423 0 15.193-6.36 15.193-6.36v2.65c0 1.236.972 2.208 2.21 2.208h12.72v-58.83h-12.72c-1.326 0-2.21 1.06-2.21 2.21zm0 37.54c-2.385 3.358-7.066 6.36-12.72 6.36-9.98 0-17.666-6.27-17.666-16.87 0-10.6 7.685-16.872 17.667-16.872 5.478 0 10.425 3.18 12.72 6.36v21.023zm24.204-39.748h14.928v58.74h-14.928V79.42zm223.746-1.504c-10.335 0-15.193 6.27-15.193 6.27V51.153H439.51v87.008h12.72c1.324 0 2.207-1.06 2.207-2.21v-2.65s4.77 6.36 15.193 6.36c17.048 0 30.21-13.07 30.21-30.914-.09-17.755-13.25-30.828-30.21-30.828zm-2.473 47.61c-5.742 0-10.335-2.914-12.72-6.36v-21.02c2.297-3.18 7.33-6.36 12.72-6.36 9.98 0 17.666 6.272 17.666 16.872s-7.685 16.87-17.666 16.87zm-35.422-22.26v34.893h-14.928v-33.126c0-9.717-3.092-13.515-11.57-13.515-4.506 0-9.276 2.384-12.103 5.83v40.897h-15.017v-58.83h11.837c1.325 0 2.208 1.06 2.208 2.21v2.56c4.417-4.504 10.16-6.27 15.9-6.27 6.537 0 12.013 1.942 16.342 5.564 5.3 4.417 7.33 9.98 7.33 19.787zm-90.01-25.35c-10.335 0-15.194 6.27-15.194 6.27V51.153h-14.926v87.008h12.72c1.325 0 2.208-1.06 2.208-2.21v-2.65s4.77 6.36 15.194 6.36c17.05 0 30.21-13.07 30.21-30.914 0-17.755-13.25-30.828-30.21-30.828zm-2.474 47.61c-5.74 0-10.333-2.914-12.72-6.36v-21.02c2.3-3.18 7.334-6.36 12.72-6.36 9.984 0 17.67 6.272 17.67 16.872s-7.686 16.87-17.668 16.87zm-40.72-47.61c4.594 0 6.8.707 6.8.707V92.49s-12.452-4.15-20.314 4.68v40.99H270V79.42h12.72c1.324 0 2.21 1.058 2.21 2.207v2.56c2.824-3.355 8.92-6.27 13.6-6.27zM142.977 132.77a84.173 84.173 0 0 0-2.297-5.652c-1.238-2.738-2.475-5.388-3.623-8.038l-.09-.177a1725.507 1725.507 0 0 0-34.448-70.578l-.53-.97c-1.238-2.386-2.475-4.86-3.8-7.333-1.5-2.826-3.18-5.83-5.565-8.656-5.123-6.007-12.278-9.364-19.963-9.364-7.773 0-14.84 3.357-19.963 9.364-2.386 2.826-4.064 5.83-5.566 8.656-1.325 2.473-2.56 4.947-3.798 7.332l-.442.883C30.88 71.645 19.22 95.407 8.444 118.815l-.176.353c-1.15 2.562-2.386 5.212-3.623 7.95-.795 1.767-1.59 3.622-2.296 5.653C.32 138.515-.3 143.99.496 149.557a33.169 33.169 0 0 0 20.316 25.97c4.063 1.678 8.303 2.473 12.72 2.473a31.5 31.5 0 0 0 4.063-.266c5.212-.62 10.512-2.385 15.635-5.3 6.36-3.534 12.544-8.745 19.346-16.253 6.802 7.42 13.073 12.63 19.345 16.254 5.21 2.915 10.424 4.68 15.636 5.3 1.325.176 2.738.265 4.063.265 4.416 0 8.744-.796 12.72-2.475 10.864-4.416 18.637-14.398 20.315-25.97.972-5.476.354-10.953-1.678-16.783zm-70.4 8.128c-8.48-10.688-13.87-20.67-15.724-29.06-.795-3.535-.972-6.715-.53-9.54a15.752 15.752 0 0 1 2.473-6.538c2.915-4.24 8.038-6.802 13.78-6.802 5.742 0 10.865 2.562 13.78 6.802 1.325 1.855 2.12 4.063 2.473 6.537.442 2.826.265 6.095-.53 9.54-1.855 8.39-7.33 18.373-15.723 29.06zm62.362 7.332c-1.15 8.126-6.625 15.104-14.222 18.196-3.71 1.502-7.773 2.032-11.925 1.59-3.973-.442-7.86-1.767-11.923-4.063-5.653-3.18-11.306-8.038-17.754-15.193 10.246-12.632 16.606-24.204 18.903-34.538 1.06-4.77 1.325-9.187.706-13.34a26.26 26.26 0 0 0-4.15-10.687c-4.77-6.978-12.985-11.13-21.995-11.13-9.01 0-17.225 4.152-21.995 11.13-2.12 3.092-3.533 6.713-4.15 10.688-.62 4.064-.443 8.57.705 13.34 2.385 10.333 8.745 21.993 18.903 34.625-6.448 7.155-12.1 12.013-17.755 15.193-4.063 2.3-7.95 3.624-11.924 4.065-4.152.442-8.215-.088-11.925-1.59-7.597-3.09-13.074-10.07-14.222-18.196-.53-3.976-.088-7.774 1.413-12.103.53-1.59 1.237-3.09 2.032-4.946 1.148-2.56 2.385-5.21 3.533-7.773l.178-.353c10.777-23.32 22.26-46.904 34.273-70.136l.443-.883c1.236-2.385 2.473-4.86 3.798-7.155 1.326-2.475 2.65-4.86 4.418-6.89 3.268-3.8 7.596-5.83 12.455-5.83 4.858 0 9.186 2.03 12.455 5.83 1.766 2.03 3.09 4.415 4.416 6.89l3.71 7.154.53.97c12.007 23.232 23.49 46.905 34.267 70.135l.09.18c1.235 2.56 2.383 5.3 3.62 7.86.795 1.856 1.502 3.357 2.032 4.947 1.147 4.152 1.59 8.04 1.06 12.014z" fill="#FF5A5F"/></svg>