<svg width="500" height="200" xmlns="http://www.w3.org/2000/svg"><path fill="none" d="M-1-1h502v202H-1z"/><g fill-rule="evenodd" fill="none"><path fill="#205081" d="M145.745 75.466a1.976 1.976 0 0 0-1.885-1.38h-18.445c-.863 0-1.625.558-1.885 1.38l-23.272 73.806a1.978 1.978 0 0 0 1.885 2.572h12.7c.875 0 1.647-.578 1.894-1.418l16.027-54.28s.42-1.356 1.87-1.356c1.476 0 1.835 1.41 1.835 1.412l7.435 25.737h-9.988c-.886 0-1.664.588-1.903 1.44l-2.867 10.19a1.977 1.977 0 0 0 1.901 2.512h17.012l4.48 14.373a1.974 1.974 0 0 0 1.886 1.387h12.704a1.976 1.976 0 0 0 1.886-2.571l-23.27-73.804m55.327 65.003a1.989 1.989 0 0 0-.858-1.35 1.97 1.97 0 0 0-1.576-.274c-2.062.51-4.037.794-5.56.794-2.89 0-4.178-1.253-4.178-4.063v-28.275h11.34c1.09 0 1.977-.886 1.977-1.977v-8.82a1.977 1.977 0 0 0-1.978-1.977h-11.34V80.91a1.975 1.975 0 0 0-2.25-1.957l-11.676 1.626a1.975 1.975 0 0 0-1.705 1.957v11.99h-6.36c-1.09 0-1.975.885-1.975 1.975v8.82c0 1.092.884 1.978 1.976 1.978h6.362v30.105c0 10.34 5.434 15.58 16.152 15.58 3.05 0 8.23-.704 11.616-1.882a1.973 1.973 0 0 0 1.306-2.158l-1.274-8.477m21.615-67.824h-11.675a1.977 1.977 0 0 0-1.977 1.978v75.245c0 1.092.885 1.977 1.977 1.977h11.675a1.977 1.977 0 0 0 1.977-1.977V74.62a1.976 1.976 0 0 0-1.977-1.976m37.855 58.185v6.874c-1.935 1.03-5.442 2.508-9.66 2.508-3.64 0-4.75-1.11-4.75-4.75 0-3.535.688-4.634 4.98-4.634h9.43zm-7.833-37.445c-5.912 0-13.105.932-18.326 2.376a1.975 1.975 0 0 0-1.425 2.22l1.366 8.475c.085.53.38 1 .82 1.305a1.97 1.97 0 0 0 1.51.32c4.854-.945 9.866-1.465 14.11-1.465 8.43 0 9.776 1.78 9.776 7.49v4.978h-12.515c-11.962 0-17.066 4.934-17.066 16.496 0 11.06 5.597 17.405 15.353 17.405 5.644 0 11.296-1.567 16.046-4.43l.498 1.832a1.976 1.976 0 0 0 1.907 1.457h9.43c1.09 0 1.976-.885 1.976-1.977v-35.533c0-15.27-6.358-20.95-23.462-20.95zm52.718 22.984c-7.245-1.868-7.245-1.944-7.245-5.918 0-2.67.265-3.952 6.234-3.952 4.088 0 10.122.716 13.995 1.378a1.977 1.977 0 0 0 2.296-1.706l1.1-8.9a1.975 1.975 0 0 0-1.512-2.168c-4.48-1.045-10.714-1.72-15.88-1.72-17.955 0-21.634 6.777-21.634 16.95 0 11.187 2.08 14.947 15.84 18.3 9.06 2.18 9.06 3.8 9.06 6.486 0 3.528-.302 4.748-6.234 4.748-4.776 0-10.302-.743-15.164-2.04a1.98 1.98 0 0 0-2.454 1.555l-1.543 8.443a1.976 1.976 0 0 0 1.334 2.236c5.304 1.72 12.916 2.92 18.513 2.92 17.385 0 20.948-7.28 20.948-18.207 0-12.067-2.143-14.303-17.653-18.408m45.113 0c-7.244-1.868-7.244-1.943-7.244-5.918 0-2.67.265-3.952 6.234-3.952 4.088 0 10.12.715 13.996 1.378a1.978 1.978 0 0 0 2.295-1.707l1.102-8.9a1.98 1.98 0 0 0-1.513-2.17c-4.482-1.043-10.715-1.718-15.88-1.718-17.955 0-21.635 6.777-21.635 16.95 0 11.187 2.078 14.946 15.84 18.298 9.06 2.18 9.06 3.8 9.06 6.487 0 3.528-.302 4.75-6.235 4.75-4.775 0-10.302-.745-15.163-2.04a1.97 1.97 0 0 0-1.567.24c-.467.293-.79.772-.888 1.314l-1.544 8.444a1.977 1.977 0 0 0 1.335 2.236c5.303 1.72 12.914 2.92 18.512 2.92 17.385 0 20.948-7.28 20.948-18.207 0-12.067-2.144-14.304-17.654-18.41m38.412-21.84h-11.674a1.976 1.976 0 0 0-1.977 1.975v53.364c0 1.092.886 1.977 1.978 1.977h11.676c1.09 0 1.976-.886 1.976-1.978v-53.36a1.975 1.975 0 0 0-1.976-1.975m38.148 36.3v6.877c-1.935 1.03-5.44 2.508-9.66 2.508-3.64 0-4.748-1.11-4.748-4.75 0-3.535.686-4.634 4.976-4.634h9.432zm-7.833-37.442c-5.912 0-13.105.932-18.326 2.376a1.973 1.973 0 0 0-1.424 2.22l1.366 8.475c.086.53.382 1 .822 1.305.437.307.98.423 1.508.32 4.855-.945 9.867-1.465 14.113-1.465 8.426 0 9.774 1.78 9.774 7.49v4.978H414.59c-11.962 0-17.067 4.934-17.067 16.496 0 11.06 5.597 17.405 15.353 17.405 5.643 0 11.295-1.567 16.044-4.43l.5 1.832a1.98 1.98 0 0 0 1.908 1.457h9.43a1.976 1.976 0 0 0 1.976-1.977V114.33c0-15.27-6.36-20.95-23.462-20.95h-.003zm66.645 0c-6.19 0-14.618 2.133-21.74 5.476l-.85-2.913a1.977 1.977 0 0 0-1.897-1.42h-8.647c-1.09 0-1.976.885-1.976 1.975v53.364c0 1.092.885 1.976 1.977 1.976h11.676a1.976 1.976 0 0 0 1.977-1.976V112.91c4.206-2.14 10.12-4.353 13.658-4.353 2.63 0 3.61.977 3.61 3.606v37.703c0 1.094.884 1.98 1.975 1.98h11.675a1.978 1.978 0 0 0 1.977-1.978V110.68c0-11.476-4.512-17.294-13.41-17.294m-97.59-20.744H376.65c-1.09 0-1.976.885-1.976 1.977V84.94c0 1.09.885 1.976 1.977 1.976h11.676a1.977 1.977 0 0 0 1.977-1.976V74.62a1.977 1.977 0 0 0-1.977-1.978"/><path fill="#59AFE1" d="M96.285 72.978a2.14 2.14 0 0 0-2.063-.297c-4.623 1.768-9.317 3.11-13.602 4.11a2.673 2.673 0 0 0-1.873 1.63c-3.122 8.552-11.093 16.694-19.456 25.223-.335.32-.805.74-1.57.74-.764 0-1.23-.408-1.572-.74-8.362-8.53-16.334-16.64-19.456-25.194-.293-.78-1-1.43-1.872-1.633-4.287-1-8.993-2.382-13.61-4.15a2.158 2.158 0 0 0-.766-.14c-.462 0-.91.146-1.29.435a2.139 2.139 0 0 0-.83 1.89c.71 7.11 3.52 14.06 8.59 21.347 4.766 6.847 10.984 13.185 16.994 19.316 11.076 11.297 21.54 21.966 22.457 34.34a2.139 2.139 0 0 0 2.134 1.98h13.01c.587 0 1.147-.24 1.55-.665.405-.424.618-.994.59-1.58-.41-8.272-3.524-16.556-9.518-25.322a85.414 85.414 0 0 0-4.01-5.377c-.57-.713-.33-1.6.107-2.044.43-.443.865-.885 1.3-1.33 6.012-6.132 12.23-12.47 16.996-19.32 5.07-7.286 7.88-14.197 8.588-21.306a2.197 2.197 0 0 0-.83-1.914m18.957-24.87a2.722 2.722 0 0 0-2.173-1.09c-.44 0-.873.11-1.254.318-15.95 8.73-34.437 13.35-53.467 13.354-19.03-.006-37.52-4.623-53.467-13.353a2.623 2.623 0 0 0-1.255-.318c-.853 0-1.665.408-2.174 1.09-.754 1.003-.777 2.687.507 3.69C9.947 57.752 18.75 62.402 28.13 65.58a93.897 93.897 0 0 0 30.212 4.978h.007a93.987 93.987 0 0 0 30.212-4.977c9.38-3.18 18.184-7.828 26.182-13.79 1.276-.997 1.252-2.68.498-3.682m-71.486 77.03c-.307-.32-.76-.65-1.52-.65-.97 0-1.547.67-1.764 1.004-5.474 8.327-8.3 16.19-8.69 24.088-.03.583.185 1.16.588 1.588.405.422.972.665 1.557.665h12.99c1.117 0 2.06-.874 2.14-1.99.284-3.806 1.47-7.622 3.627-11.633.748-1.387.167-2.69-.263-3.248-2.14-2.784-4.762-5.754-8.663-9.825m13.975-45.785c4.078 0 6.443-.244 7.275-.244 1.006 0 1.968.824 1.968 1.98 0 .336-.08.576-.16.79-.54 1.445-3.005 6.647-7.593 11.11-.515.5-1.1.594-1.5.594h-.006c-.4 0-.984-.094-1.498-.594-4.59-4.463-7.055-9.665-7.595-11.11a2.11 2.11 0 0 1-.16-.79c0-1.156.963-1.98 1.97-1.98.83 0 3.196.244 7.273.244h.026"/></g></svg>