<svg width="500" height="200" xmlns="http://www.w3.org/2000/svg"><path fill="none" d="M-1-1h502v202H-1z"/><path d="M116.035 143.418V92.53c0-15.163-5.397-26.92-15.645-35.24-10.28-8.065-23.966-12.24-40.607-12.24-10.023 0-19.565 1.477-27.885 4.657A97.523 97.523 0 0 0 9.153 60.95l-.482.258-.252 30.84H37.04l2.44-14.68c1.96-1.22 4.145-2.217 7.1-2.924 3.18-.964 6.618-1.478 10.76-1.478 6.845 0 12.24 1.703 15.648 5.14 3.437 3.438 5.14 8.064 5.14 14.2v12.24h-17.38c-19.34 0-34.503 3.437-44.527 10.28C5.94 121.67.8 131.724.8 144.446c0 12.465 3.92 22.263 11.758 29.62 7.84 7.1 18.344 10.762 31.548 10.762 8.063 0 15.163-1.478 21.3-4.658 5.62-2.7 10.504-6.36 14.68-10.762.482 1.702.74 3.662 1.478 5.397.74 2.442 1.703 4.658 2.7 6.843l.256.482h42.824v-30.84l-11.02-1.48c-.032-1.734-.29-4.657-.29-6.392zm-71.93-12.722c3.663-3.437 9.285-5.14 16.642-5.14h17.38v19.083c-2.442 3.18-5.622 6.1-9.8 8.32s-9.058 3.433-14.423 3.433c-4.883 0-8.802-1.22-11.5-3.662-2.7-2.44-4.145-5.62-4.145-9.8.22-4.88 2.18-8.8 5.842-12.24zm233.17 24.48c-1.703.257-3.92.257-6.36.257-2.7 0-5.398-1.22-8.065-3.92-1.96-1.96-2.923-5.62-2.923-10.504V74.44h23.26V47.52h-23.26V14.98h-37.46v32.54h-44.043V14.98h-37.427v32.54h-25.7l10.28 26.922h15.42v67.046c0 14.94 3.438 25.926 10.28 33.026 6.843 6.843 16.642 10.505 29.106 10.505 4.66 0 9.06-.26 12.98-.967 3.92-.74 8.063-1.478 11.982-2.698l.74-.258.256-28.88-4.4 1.475c-2.213.482-4.4.74-6.1.964-1.703.256-3.92.256-6.36.256-3.44 0-5.88-.965-8.065-2.924-1.958-1.96-2.922-5.623-2.922-10.507V74.44h44.045v67.048c0 14.94 3.438 25.926 10.28 33.026 6.843 6.843 16.642 10.505 29.107 10.505 4.658 0 9.06-.254 12.98-.96 2.44-.483 3.92-.965 5.396-1.48.964-.48 1.96-.74 3.438-1.22l.74-.257v-27.147l-.965.257c-2.313.482-4.273.707-6.232.964zm147.072-57.023c0-18.12-3.92-31.805-11.5-40.382-7.583-8.573-18.602-12.974-32.063-12.974-8.063 0-15.645 1.96-22.263 5.88-5.874 3.436-11.014 8.062-15.16 13.94l-1.48-17.38h-46.964V74.38l11.983 3.662v71.448l-10.024 3.662v28.946h58.693v-28.882l-11.02-3.662V85.206c2.442-3.18 5.397-5.88 9.06-7.582 3.662-1.96 7.84-2.698 12.465-2.698 7.1 0 12.24 1.702 15.646 5.397 3.437 3.437 5.14 9.798 5.14 18.344v51.37l-11.76 3.66v28.882h59.21V153.21l-10.023-3.662v-51.4h.064zm50.373 11.5c13.46 0 24.48-11.02 24.48-24.48s-11.02-24.48-24.48-24.48-24.48 11.02-24.48 24.48 10.795 24.48 24.48 24.48zm0 25.957c-13.46 0-24.48 11.02-24.48 24.48s11.02 24.48 24.48 24.48 24.48-11.018 24.48-24.48-11.02-24.48-24.48-24.48z" fill="#000222"/></svg>