<svg xmlns="http://www.w3.org/2000/svg" xmlns:xlink="http://www.w3.org/1999/xlink" width="500" height="200" viewBox="0 0 500 200"><defs><path id="a" d="M1.23 17.03h497.54v165.94H1.23z"/></defs><clipPath id="b"><use xlink:href="#a" overflow="visible"/></clipPath><path clip-path="url(#b)" fill="#576770" d="M219.44 126.872h42.617c.407 0 .784-.22.987-.57l4.57-7.917a.183.183 0 0 1 .317 0l4.572 7.917c.203.352.58.57.987.57h7.123c.73 0 1.184-.79.82-1.42l-12.842-22.24a.947.947 0 0 0-1.64 0l-8.83 15.295a.407.407 0 0 1-.354.205h-25.518a.182.182 0 0 1-.158-.273l17.77-30.78c.07-.12.246-.12.316 0l3.873 6.71a.407.407 0 0 1 0 .407l-8.89 15.396a.947.947 0 0 0 .82 1.42h7.124c.408 0 .783-.217.988-.57l4.786-8.29 4.39-7.57c.205-.355.205-.79.002-1.144l-12.433-21.534a.946.946 0 0 0-1.64 0l-30.58 52.967a.95.95 0 0 0 .824 1.42m-51.365.679a.96.96 0 0 0 1.66 0l30.567-52.944a.96.96 0 0 0-.83-1.438h-7.56c-.465 0-.894.25-1.125.652l-21.726 37.863a.18.18 0 0 1-.312 0L147.024 73.82a1.298 1.298 0 0 0-1.125-.652h-7.56c-.74 0-1.2.8-.83 1.438l30.566 52.943zm146.636-.686h6.794a1 1 0 0 0 1-1V90.56a.14.14 0 0 1 .235-.104l41.728 37.407c.623.558 1.612.115 1.612-.72V74.176a1 1 0 0 0-1-1h-6.79a1 1 0 0 0-1 1v35.25a.14.14 0 0 1-.235.104l-41.73-37.394a.967.967 0 0 0-1.613.72v53.007a1 1 0 0 0 1 1m-257.665.009h7.56a1.3 1.3 0 0 0 1.124-.652l6.364-11.092a.405.405 0 0 1 .35-.202h30.335c.147 0 .28.077.352.202l6.364 11.092a1.3 1.3 0 0 0 1.125.652h7.56c.74 0 1.2-.8.83-1.44L88.446 72.49a.958.958 0 0 0-1.66 0l-30.567 52.942a.96.96 0 0 0 .83 1.44m19.922-20.236l10.49-18.28a.18.18 0 0 1 .31 0l10.49 18.28a.18.18 0 0 1-.155.27h-20.98a.18.18 0 0 1-.155-.27M399.03 81.198h17.473c.1 0 .18.08.18.18v44.535c0 .53.43.96.958.96h6.702a.96.96 0 0 0 .957-.96V81.377c0-.1.08-.18.18-.18h17.475a.96.96 0 0 0 .958-.96v-6.103a.96.96 0 0 0-.958-.958h-43.923a.96.96 0 0 0-.96.958v6.104c0 .53.43.96.96.96"/></svg>