<svg width="500" height="200" viewBox="10 10 250 100" xmlns="http://www.w3.org/2000/svg"><path fill="#0057FF" d="M44.7 38.3c8.3 0 12.9 4.6 12.9 11.2 0 4.4-2.6 7.9-6.2 9.1 4.1 1 7.5 4.8 7.5 10.1 0 6.9-5.2 11.7-13.1 11.7h-19V38.3h17.9zm-1.2 17.3c3.8 0 6.1-2.1 6.1-5.3 0-3.2-2.1-5-6.1-5H35v10.4h8.5zm.8 17.9c4 0 6.4-1.9 6.4-5.3s-2.2-5.7-6.3-5.7H35v11h9.3zm58.3 6.9h-8v-42h8v15c1.9-2.3 5.2-3.2 8-3.2 7.5 0 11 5.2 11 11.7v18.6h-8V63.2c0-3.3-1.6-5.9-5.5-5.9-3.4 0-5.3 2.5-5.5 5.8v17.3zm62 0h-8V50.9h7.7v3.7c1.8-3.1 5.3-4.4 8.5-4.4 7.3 0 10.7 5.2 10.7 11.7v18.6h-8V63.2c0-3.3-1.6-5.9-5.5-5.9-3.5 0-5.5 2.7-5.5 6.1v17zm75.1-9.1c-1.1 1.9-2.9 3.2-5.9 3.2-4 0-6.8-2.9-7-6.8h21.3v-1.9c0-9.2-5.4-15.8-14.9-15.8-7.6 0-14.5 6.1-14.5 15.5 0 9.9 7 15.8 15.1 15.8 7.1 0 12.2-4 13.9-9 .1-.3.2-.7.3-1h-8.3zm-6.4-14.8c4.6 0 6.2 2.9 6.3 5.8h-12.8c.2-2.7 2.3-5.8 6.5-5.8zM209.1 69c-.7 2.3-2.5 5.4-6.6 5.4s-7.6-3.4-7.6-8.8c0-5.3 3.4-8.8 7.5-8.8 3.5 0 5.5 2.1 6.2 4.5h7.6s0-.9-.2-1.5c-1.4-5.4-5.8-9.9-13.8-9.9-8.6 0-15.3 6.5-15.3 15.6 0 9 6.8 15.6 15.5 15.6 7.9 0 12.5-5 13.8-9.9.2-.7.4-1.6.5-2.3h-7.6zM134 63.4l8.2-1.1c1.7-.2 2.2-1.3 2.2-2.4 0-2.1-1.9-4-5.2-4-3.3 0-5.6 1.9-5.6 4.2h-7.8v-.5c.5-4.6 4.4-9.7 13.3-9.7 9.3 0 13.1 5 13.1 11v14.8c0 1.6.1 3.1 1 4.7h-7.6c-.4-1.1-.6-2.4-.6-3.5-1.5 2.3-5.2 4.4-9.6 4.4-6.3 0-10.1-4.3-10.1-8.9-.1-5.7 3.8-8.2 8.7-9zm10.4 5.1v-1.7s-.4.5-2.6.8c-.7.1-5 .6-5 .6-2 .3-3.7 1.4-3.7 3.7 0 1.7 1.3 3.4 3.8 3.4 3.4 0 7.5-1.6 7.5-6.8zM66.1 40.8h20.5v5H66.1zm16.6 30.5c-1.1 1.9-2.9 3.2-5.9 3.2-4 0-6.8-2.9-7-6.8h21.3v-1.9c0-9.2-5.4-15.8-14.9-15.8-7.6 0-14.5 6.1-14.5 15.5 0 9.9 7 15.8 15.1 15.8 7.1 0 12.2-4 13.9-9 .1-.3.2-.7.3-1h-8.3zm-6.4-14.8c4.6 0 6.2 2.9 6.3 5.8H69.9c.2-2.7 2.3-5.8 6.4-5.8z"/></svg>