<svg width="500" height="200" xmlns="http://www.w3.org/2000/svg"><path fill="none" d="M-1-1h502v202H-1z"/><path fill="#323232" d="M458.02 123.818c-22.568 0-40.935-18.363-40.935-40.93V41.95h81.866v40.93c0 22.573-18.36 40.936-40.93 40.936zm-33.49-74.425v33.49c0 18.462 15.016 33.49 33.49 33.49 18.462 0 33.49-15.024 33.49-33.49v-33.49h-66.98z"/><path fill="#323232" d="M476.618 66.76H439.41v7.44h5.086l-2.574 20.626h7.5L452 74.2h12.036l2.578 20.627h7.5l-2.58-20.625h5.083M45.7 52.367c22.324 0 34.234 10.42 34.234 25.302 0 11.91-8.93 20.84-20.84 24.11v.29c18.608 4.61 25.304 15.48 25.304 26.93 0 16.38-11.906 27.54-34.23 27.54H1.048v-2.98c8.93 0 8.93 0 8.93-9.69V65.02c0-9.68 0-9.68-8.93-9.68v-2.976H45.7zm-8.93 49.118c13.397 0 18.607-8.93 18.607-23.07 0-12.652-5.21-23.075-14.142-23.075h-7.442v46.145h2.978zm-2.977 2.977v49.122h10.42c11.905 0 15.628-11.914 15.628-25.306 0-13.397-6.7-23.816-20.09-23.816H33.8zm57.453 15.628c0-25.302 20.84-39.435 39.445-39.435 17.12 0 32.6 7.44 28.13 32.74h-44.05c0 20.092 11.46 27.534 22.62 27.534 13.4 0 19.36-7.45 22.33-12.65h1.49c-2.97 14.88-13.39 29.76-32 29.76-24.55-.01-37.95-17.87-37.95-37.96zm23.52-9.677h21.876c2.532-10.114 4.616-26.79-6.697-26.79-8.483 0-14.586 7.89-15.18 26.79zm107.46-8.928c0-6.697-4.463-8.93-8.93-8.93-4.614 0-9.675 2.233-14.88 6.702v44.645c0 9.682 0 9.682 8.927 9.682v2.974h-41.676v-2.974c8.928 0 8.928 0 8.928-9.682V97.02c0-7.44 0-7.44-7.44-7.44v-2.237l30.515-6.692h1.19l-.445 15.63h.3c5.655-9.68 16.37-15.62 27.24-15.62 9.97 0 20.092 5.95 20.092 22.32v40.93c0 9.69 0 9.69 8.928 9.69v2.98H216.28v-2.98c5.95 0 5.95 0 5.95-9.68V101.5h-.003zm79.334 39.44c13.397 0 19.352-7.442 22.33-12.647h1.486c-2.978 14.883-13.397 29.766-32.003 29.766-24.557 0-37.953-17.86-37.953-37.953 0-25.3 20.838-39.43 39.444-39.43 18.602 0 28.424 9.08 28.424 18.61 0 5.21-2.38 10.42-11.313 10.42-7.44 0-9.08-4.61-8.928-7.74.74-10.86 0-18.3-8.933-18.3-10.42 0-15.18 13.84-15.18 31.11.005 19.49 11.47 26.19 22.626 26.19zm81.57-39.44c0-6.697-4.464-8.93-8.928-8.93-4.617 0-9.678 2.233-14.888 6.702v44.645c0 9.682 0 9.682 8.93 9.682v2.974h-41.678v-2.974c8.928 0 8.928 0 8.928-9.682V58.326c0-7.442 0-7.442-7.44-7.442v-2.236l30.066-6.696h1.19v54.323h.297c5.654-9.678 16.374-15.624 27.238-15.624 9.974 0 20.092 5.95 20.092 22.32v40.93c0 9.69 0 9.69 8.93 9.69v2.98h-38.7v-2.97c5.955 0 5.955 0 5.955-9.68V101.5h.008z"/></svg>