<svg xmlns="http://www.w3.org/2000/svg" viewBox="0 0 1898 527" width="500" height="200"><path fill="#ed6e6e" d="M224.53 0h233.06c-.18 3.1-1.18 6.04-3.05 8.52-7.95 13.52-14.99 27.52-22.76 41.13-10.95 19.44-21.22 39.22-32.35 58.56-7.07 13.94-15.03 27.42-22.57 41.12-45.28-.02-90.57.02-135.85-.02-2.37.01-4.73.1-7.09.24-1.99 5.21-5.25 9.77-7.89 14.66-3.45 5.6-6.25 11.57-9.66 17.18-3.62 7.53-8.61 14.28-12.24 21.79-7.48 12.72-14.5 25.69-21.82 38.5-7.67 13.23-15.18 26.55-22.46 40-2.95 4.88-6.07 9.66-8.53 14.81-15.32 26.67-30.17 53.58-45.51 80.23-1.41 2.78-2.91 5.56-5.09 7.83-26.23-.18-52.46.01-78.69-.1-3.25-.08-6.42.64-9.57 1.34.06-7.26 4.85-13.07 8.13-19.17 4.02-8.19 9.21-15.75 13.18-23.98 31.44-56.25 62.54-112.7 93.88-169 7.01-12.06 13.19-24.54 20.34-36.52 8.9-15.81 17.21-31.92 26.5-47.52 2.96-6.53 6.95-12.5 10.19-18.88 11.57-20.57 22.91-41.26 34.43-61.84 1.53-3.12 3.04-6.3 5.42-8.88z"/><path fill="#cbc7cd" d="M541.82 0h88.25c-.5.58-.97 1.18-1.42 1.78-1.19-.28-2.41-.54-3.62-.56-28.06.09-56.12-.01-84.18.05l.97-1.27z"/><path fill="#6370b9" d="M494.58 82.82c15.53-27.12 30.53-54.55 46.27-81.55 28.06-.06 56.12.04 84.18-.05 1.21.02 2.43.28 3.62.56-2.8 4.24-5.14 8.75-7.62 13.17-20.29 36.43-40.46 72.92-60.73 109.36-8.47 14.86-16.37 30.04-24.97 44.82l-.83.29c-.05.46-.13 1.39-.17 1.86-39.58 70.98-78.9 142.11-118.35 213.16-77.29.09-154.57.11-231.86-.01 4.4-9.19 9.6-17.97 14.49-26.91 22.03-40.38 44.56-80.5 66.39-120.99 47.48-.06 94.96-.06 142.45 0 29.32-51.08 58.03-102.51 87.13-153.71z"/><path fill="#353535" d="M898.76 110.59c11.31-.12 22.62-.03 33.93-.05.1 10.92.02 21.85.05 32.77-11.33 0-22.66.03-33.99-.02 0-10.9-.01-21.8.01-32.7zm-253.13 5.79c30.45-.08 60.9-.01 91.36-.03 19.01.13 38.4-1.06 56.91 4.16 16.87 4.47 33.27 13.55 43.21 28.27 10.46 15.12 12.34 34.8 8.23 52.38-3.52 15.42-13.59 28.92-26.8 37.47-4.01 2.91-8.67 4.71-12.77 7.45 16.15 5.06 32.24 12.71 43.3 25.93 11.37 13.39 14.99 31.98 12.57 49.07-1.9 16.46-10.49 32.01-23.51 42.28-15.02 12.14-34.13 17.91-53.05 20.23-11.3 1.43-22.71 1-34.06 1.06-35.13-.02-70.26.05-105.39-.03-.01-89.41-.01-178.83 0-268.24zm471.07-.02c16.8-.01 33.6-.04 50.4.02 26.7 41.53 53.4 83.06 80.1 124.61.4 1.59 2.2 1.08 2.7-.13 26.7-41.5 53.4-82.96 80.1-124.47 16.8-.09 33.6-.05 50.5-.02v268.26c-15.8.05-31.6.02-47.3.01-.1-63.89 0-127.79-.1-191.68-28.2 41.53-55.9 83.42-83.9 125.06-.7 1.06-2.6 1.23-3-.15-27.6-41.45-55.4-82.74-82.8-124.32-.3 63.68 0 127.37-.1 191.05-15.5.11-31.1.03-46.6.04V116.36zm313.3 0c66.3-.02 132.5-.02 198.8 0v42.33c-50.5.01-100.9.01-151.4 0-.1 23.21 0 46.41 0 69.61h134.3v42.25c-44.8.03-89.5 0-134.3.01v71.87h153.3v42.21c-67-.05-133.9.17-200.9-.11.7-12.82-.2-25.64.2-38.46-.5-25.36.4-50.71-.1-76.06 0-42.68.1-85.38 0-128.06.4-8.52-.4-17.06.1-25.59zm220.8.07c18.6-.16 37.2-.08 55.9-.04 22.1 31.99 44.3 63.92 66.4 95.9 22.4-31.89 44.6-63.94 66.9-95.9 18.2-.07 36.3-.06 54.4-.01-31.1 43.71-62.3 87.34-93.4 131.03 32.2 45.74 64.7 91.25 97 136.91v.33c-18.6-.01-37.1.03-55.7-.02-23.4-33.72-46.8-67.49-70.3-101.2-23.6 33.7-47.1 67.47-70.6 101.21-18.2-.01-36.3.09-54.4-.05 32.5-45.5 65.2-90.9 97.6-136.42-31.4-43.85-62.5-87.84-93.8-131.74zm-660.96 10.38c9.93-.02 19.86 0 29.76-.01.1 19.87 0 39.75 0 59.62 21 .02 41.9 0 62.9.01v26.31c-20.9.03-41.9 0-62.8.01-.1 35.76 0 71.52-.1 107.28 0 9.42-.4 19.52 4.6 27.93 4.1 7.47 12.4 11.57 20.7 12.56 12.5 1.93 25.5-.77 36.8-6.37 0 8.53.3 17.08-.1 25.6-14.1 7.63-30.7 9.75-46.5 7.75-12.3-1.4-24.6-6.39-32.7-15.9-9.16-10.21-12.16-24.28-12.56-37.6-.07-40.42.08-80.84-.07-121.26-9.15.02-18.3.02-27.45 0-.03-8.77-.01-17.54-.01-26.31 9.17-.01 18.35 0 27.52-.01 0-19.87-.01-39.74.01-59.61z"/><path fill="#fefefe" d="M675.61 144.22c4.09-.72 8.26-.34 12.39-.41 20-.01 39.99 0 59.99 0 16.23-.34 33.38.36 47.87 8.52 9.84 5.26 17.34 14.79 19.58 25.78 2.53 12.59.35 26.51-7.45 36.93-6.56 8.81-16.58 14.41-26.99 17.41-9.05 2.7-18.55 3.45-27.95 3.4-25.79-.06-51.58.05-77.37-.06-.03-30.52.11-61.05-.07-91.57z"/><path fill="#989899" d="M534.5 169.42l.83-.29c-.25.54-.75 1.61-1 2.15.04-.47.12-1.4.17-1.86z"/><path fill="#353535" d="M900.66 186.47c9.93-.08 19.86-.03 29.8-.04 0 66.07 0 132.14-.01 198.21-9.93-.01-19.86.07-29.79-.05 0-66.04.01-132.08 0-198.12z"/><path fill="#fefefe" d="M675.62 263.32c11.06-1.06 22.25-.21 33.36-.46 8.01-.03 16.01-.02 24.02-.01 2.67.01 5.34 0 8.02.01 19.88.03 40.4-.88 59.44 5.91 11.29 3.88 22 11.31 27.16 22.38 6 13.42 4.89 29.95-3.2 42.28-5.64 8.56-14.49 14.54-23.97 18.13-10.95 4.23-22.76 5.57-34.42 5.78-30.11-.02-60.21.03-90.32-.03-.09-31.33.09-62.66-.09-93.99z"/><path fill="#989899" d="M372.47 463.43c3.96-4.41 10.58-3.52 15.83-2.71 1.8 2.14.59 5.33.93 7.9-2.8-.19-5.81-1.12-8.52.02-2.33 1.53-2.03 4.61-2.25 7.03 3.43.05 6.85.03 10.28-.08.5 2.55.57 5.17.5 7.78-3.52.01-7.03.05-10.53.12.01 10.54.02 21.09-.01 31.65-3.04.09-6.07.12-9.11.1-.1-10.6-.01-21.2-.05-31.79-1.68-.03-3.36-.05-5.03-.06-.01-2.56 0-5.12.02-7.68 1.65-.02 3.31-.03 4.97-.04.04-4.2-.15-8.99 2.97-12.24zm287.22-2.96c3.07-.07 6.15-.09 9.23-.09.56 14.55-.25 29.12.16 43.68.16 3.73.03 7.47-.26 11.19-3.04.01-6.08-.03-9.11-.12-.04-18.22 0-36.44-.02-54.66zm507.21-.09c3.2-.02 6.3.03 9.4.14-.1 18.22.1 36.45-.1 54.67-2.9.01-5.9.06-8.8.18-.5-2.04-.7-4.12-.6-6.18-2.9 3.6-7 6.71-11.8 6.66-6.2.65-12.7-2.37-16.2-7.66-3.8-5.55-4.3-12.81-2.9-19.25 1.7-7.1 7.7-13.08 15-14.09 5.9-1.3 11.4 1.93 15.9 5.47.1-6.64-.1-13.29.1-19.94zm82.3.01c3 0 6.1.01 9.2.04 0 7.02-.1 14.04 0 21.07 2.3-2.39 4.6-5 7.9-5.97 7.5-2.71 16.4.9 20.5 7.61 3.4 5.12 3.5 11.59 2.7 17.49-1.4 8.65-9.5 16.01-18.5 15.25-5 .33-9.3-2.69-12.6-6.16 0 1.83-.1 3.66-.1 5.5-3 .01-6 .02-9 .02-.2-18.28-.1-36.57-.1-54.85zm295.9-.02c3.1-.01 6.1.04 9.2.13-.1 18.24.1 36.48-.1 54.73-3 0-6 .01-9 0 0-1.93-.1-3.86-.1-5.77-2.4 2.18-4.8 4.64-7.9 5.69-6.4 2.13-14 .14-18.5-4.88-5.9-6.41-6.6-16.33-3.6-24.24 3.1-8.11 12.6-13.22 21-10.81 3.4.76 6 3.14 8.8 5.13.2-6.66.1-13.32.2-19.98zm221.2.39c3.2.02 6.3 0 9.5-.08.5 2.94.5 5.95.3 8.93-3.3.02-6.6.02-9.9.01 0-2.96 0-5.91.1-8.86zm-1700.77-.33c3.06-.02 6.11-.05 9.17-.09.18 6.94.06 13.88.08 20.82 2.08-2.13 4.12-4.53 7.03-5.51 6.01-2.44 14.05-.55 17.34 5.32 2.11 3.63 2.29 7.95 2.27 12.05-.07 7.4.03 14.8-.07 22.2-3.04.01-6.09.02-9.13.01-.18-7.09.03-14.18-.09-21.26-.21-2.74-.25-5.79-2.09-8-2.95-3.81-9.23-3.64-12.54-.41-2.38 2.51-2.7 6.16-2.73 9.45-.01 6.74.07 13.48-.03 20.22-3.06.01-6.11 0-9.17-.01-.1-18.26-.02-36.53-.04-54.79zm441.01 9.19c-.03-2.97 0-5.93.11-8.88 3.23.01 6.46.02 9.7.04.02 2.93.04 5.87.04 8.82-3.29.03-6.57.04-9.85.02zm192.91.01c-.01-2.97.01-5.93.1-8.88 3.27 0 6.55.01 9.83.04.03 2.92.04 5.85.05 8.78-3.33.06-6.66.07-9.98.06zm597.85-.01c0-2.96 0-5.91.1-8.86 3.4-.09 6.7-.03 10.1.28-.1 2.85-.1 5.69-.1 8.54-3.4.05-6.7.06-10.1.04zm134-8.84c3-.02 6-.18 9 .07 2.1 2.16.5 5.93.9 8.72-3.3.06-6.6.07-9.9.06v-8.85zm204.5 8.78c-.1-2.99-.2-6 .6-8.92 3 .12 6.2.14 9.3.13v8.86c-3.3.01-6.6 0-9.9-.07zm-754.28-4.89c3.08-.03 6.17-.03 9.26-.03-.03 3.67.03 7.35.13 11.02 3.54-.01 7.07-.01 10.61 0 0 2.58 0 5.16-.01 7.74-3.54.01-7.06.01-10.58.01-.21 5.88-.12 11.77-.14 17.65.07 2.11.13 4.88 2.3 6 2.7 1.07 5.59-.07 8.28-.64-.04 2.54-.05 5.08-.05 7.64-4.16 1.86-9 2.27-13.39 1.05-3.8-1.36-6.12-5.21-6.26-9.15-.41-7.49-.04-15.01-.17-22.52-1.65-.03-3.3-.06-4.92-.07-.01-2.57-.01-5.13 0-7.69 1.62-.02 3.28-.03 4.92-.05 0-3.65.01-7.31.02-10.96zm159.78 10.96c0-3.68 0-7.35.1-11.03 3.1.01 6.2.05 9.3.15v10.89c3.4.02 6.8.02 10.3-.02.2 2.57.2 5.16.2 7.75-3.5.01-7 .06-10.5.1.2 7.15-.4 14.35.3 21.46 1.5 4 6.7 2.34 9.8 1.53v7.67c-4.1 1.78-8.7 2.16-13 1.04-4.4-1.24-6.5-5.93-6.4-10.16-.1-7.17 0-14.34 0-21.51-1.8-.08-3.5-.15-5.2-.22.1-2.54.1-5.08.1-7.61 1.7-.02 3.3-.03 5-.04zm277.1-.01c0-3.66 0-7.32.1-10.97 3.1-.03 6.2-.01 9.3.09 0 3.62-.1 7.25 0 10.88 3.5.03 7.1.05 10.7.05v7.72c-3.6.02-7.1.03-10.7.02-.1 6.19 0 12.38 0 18.58-.2 1.96.4 4.19 2.3 5.19 2.7.79 5.5-.15 8.2-.76-.4 2.84 1.5 7.68-2.4 8.54-3.4 1.07-7 .99-10.5.38-4.5-1.09-6.9-5.83-6.9-10.21-.2-7.23 0-14.46-.1-21.68-1.6-.04-3.2-.06-4.9-.08v-7.68c1.6-.04 3.3-.05 4.9-.07zm420.9-.01c0-3.66 0-7.32.1-10.97 3 0 6 0 9.1.01v10.98c3.5.02 7.1.03 10.7.04v7.72c-3.6.01-7.2.03-10.7.05 0 6.19-.1 12.39 0 18.59-.1 1.99.4 4.35 2.5 5.21 2.7.66 5.5-.22 8.2-.86-.2 2.42.5 5.16-.6 7.37-2.9 2.4-7.1 2.05-10.7 1.88-4.5-.21-8.2-4.11-8.5-8.56-.3-7.86 0-15.74-.1-23.6-1.7-.04-3.4-.06-5-.08v-7.72c1.7-.03 3.3-.05 5-.06zm-1713.47-.09c2.67-.01 5.35-.01 8.03-.02 2.97 8.78 5.48 17.72 8.79 26.39 2.55-8.77 5.13-17.54 7.82-26.26 3.1.01 6.2.03 9.3.06-4.41 13.25-8.63 26.57-13 39.85-2.73-.01-5.47-.01-8.2 0-2.97-8.81-5.77-17.68-8.69-26.51-3.12 8.75-5.91 17.62-8.8 26.46-2.75.02-5.5.03-8.26.05C8.48 502.37 4.4 489.13 0 475.98v-.25c3.15-.05 6.29-.09 9.44-.11 2.68 8.8 5.29 17.62 7.74 26.49 3.1-8.79 5.78-17.72 8.65-26.59zm87.65 5.01c6.91-7.6 20.37-8.02 27.31-.26 4.6 4.82 5.67 11.81 5.6 18.23-9.79.23-19.58-.03-29.37.14 1.02 3.87 3.22 7.83 7.28 9.1 5.26 2.19 10.84-.46 14.85-3.9 1.74 1.45 3.46 2.92 5.2 4.38-7.07 10.86-25.23 10.3-32.55-.06-5.9-8.12-5.12-20.28 1.68-27.63zm49.04 2.9c2.66-5.26 7.85-8.97 13.88-8.9.05 3.25.06 6.5.06 9.75-4.85.28-9.99 2.29-12.12 6.98-3.34 7.54-1.22 16.02-1.96 23.98-2.96-.01-5.92 0-8.88.05-.35-13.22-.19-26.46-.08-39.69 3.01.04 6.02.06 9.03.07.03 2.58.06 5.17.07 7.76zm20.98-1.98c6.23-7.87 18.99-9.14 26.63-2.64 5.6 4.8 7.47 12.68 6.82 19.79-9.66 0-19.32-.05-28.98.03.71 5.47 5.45 9.93 11.04 9.88 4.2.21 7.82-2.2 10.97-4.68 1.77 1.49 3.52 2.99 5.29 4.5-6.95 9.95-23.18 10.31-31.24 1.54-7.05-7.64-7.11-20.48-.53-28.42zm61.1-5.78c3.05-.01 6.09-.02 9.14-.02 0 1.89 0 3.77-.01 5.68 2.39-2.18 4.76-4.58 7.86-5.69 6.49-2.52 14.22-.14 18.82 4.91 8.02 9.29 6.91 26.17-3.97 32.84-3.9 2.57-8.81 2.92-13.31 2.17-3.73-.68-6.57-3.41-9.41-5.7.06 5.71.03 11.42.04 17.14h-8.94c-.52-17.1-.09-34.22-.22-51.33zm48.12.02c3.03-.02 6.05-.05 9.08-.09.32 2.55.43 5.11.43 7.68 2.29-5.38 7.64-8.52 13.36-8.88.26 3.29.33 6.59.24 9.89-4.41.42-9.29 1.84-11.52 6.05-4.51 7.64-.82 16.78-2.69 24.98-2.87-.45-6.39.85-8.84-.93-.17-12.89-.01-25.8-.06-38.7zm40.65-.21c7.25-2.16 15.61-.12 21.04 5.15 5.28 5.16 7.22 13.21 5.3 20.29-2.06 7.6-8.85 13.67-16.64 14.84-9.47 1.92-20.13-3.38-23.48-12.62-4.67-10.94 2.08-24.95 13.78-27.66zm66.47 2.14c7.07-4.57 17.38-3.95 23.37 2.17 4.84 4.86 6.37 12.14 5.89 18.8-9.73.03-19.45-.06-29.17.05.92 4.98 4.79 9.39 10.04 9.79 4.58.8 8.38-2.07 12.03-4.32 2.03 1.01 3.56 2.76 5.28 4.2-7.54 11.07-26.59 10.15-33.38-1.29-5.91-9.35-3.52-23.31 5.94-29.4zm40.9-.8c7.35-3.83 16.38-1.71 23 2.66-1.27 2.13-2.51 4.27-3.73 6.43-4.29-2.17-9.07-4.47-14-3.23-2.47.62-3.86 4.21-1.43 5.76 5.42 3.63 12.93 3.43 17.53 8.45 4.83 5.36 2.11 14.95-4.51 17.52-8.01 3.2-17.4.96-24.22-3.97-.08-2.62 2.38-4.54 3.56-6.73 4.69 2.89 10.29 6.01 15.96 4.4 2.94-.48 4.16-4.83 1.56-6.47-5.27-3.18-12.17-3.02-16.8-7.37-5.01-4.97-3.09-14.34 3.08-17.45zm34.92-.12c7.23-3.76 15.81-1.33 22.55 2.38-.99 2.37-2.16 4.66-3.51 6.85-4.87-2.65-10.87-5.15-16.23-2.28.02 1.65-.89 3.94.97 4.94 5.33 3.33 12.4 3.34 17.04 7.92 5.15 5.21 2.69 15.25-4.09 17.85-8.2 3.37-17.86.94-24.72-4.31 1.36-1.98 2.13-4.75 4.32-5.94 4.87 2.44 10.34 5.87 15.97 3.87 2.68-.66 3.78-4.71 1.29-6.22-5.34-3.42-12.61-3.08-17.22-7.8-4.7-5.18-2.55-14.27 3.63-17.26zm63.57-1.35c7.94-2.18 17.15.63 22.25 7.17 5.71 7.08 5.79 17.98.31 25.21-5.32 7.25-15.54 10.21-23.99 7.32-8.5-2.53-14.65-11.13-14.22-20-.07-9.13 6.76-17.68 15.65-19.7zm49.56.37c5.59-2.32 12.82-1.01 16.68 3.84 2.72 3.52 3.18 8.16 3.1 12.46-.12 7.74.14 15.49-.17 23.23-2.99-.02-5.98-.01-8.97.03-.38-7.77.03-15.54-.19-23.3 0-3.44-1.74-7.05-5.08-8.34-3.22-1.01-7.12-.53-9.5 2.04-2.19 2.17-2.51 5.42-2.49 8.34 0 7.06.05 14.12 0 21.18-2.98-.44-6.96 1.21-9.29-.96-.24-12.84-.03-25.7-.09-38.56 3.13-.03 6.27-.03 9.4-.01l-.06 5.31c1.97-2.03 3.94-4.24 6.66-5.26zm29.26 2.43c6.48-3.08 13.86-3.68 20.89-2.63 4.23.82 8.26 3.49 9.98 7.56 1.98 4.01 1.73 8.57 1.73 12.92-.09 6.42.14 12.85-.16 19.27-2.97-.03-5.94-.04-8.9-.01-.1-1.43-.18-2.86-.25-4.29-5.61 5.55-15.11 6.7-21.75 2.44-6.76-4.28-6.74-15.45-.03-19.77 6.52-4.25 14.8-2.94 22.03-1.62-.23-2.91-1.02-6.26-3.95-7.57-5.46-2.57-11.74-.79-17.08 1.22-.93-2.47-1.77-4.98-2.51-7.52zm110.15 2.78c4.18-6.18 12.91-8.12 19.39-4.51 4.88 2.55 6.7 8.4 6.83 13.57.06 8.4.03 16.82-.02 25.23-3.06.01-6.11.02-9.15.01-.12-6.74-.03-13.49-.04-20.23-.1-2.88-.15-5.98-1.72-8.5-3.15-4.89-11.57-4.34-14.21.78-1.54 2.98-1.47 6.46-1.37 9.72.31 6.08-.15 12.16-.09 18.24-3.05 0-6.09-.01-9.12-.04-.07-13.17-.03-26.35-.03-39.52 3.05-.03 6.1-.03 9.16-.04.12 1.76.24 3.52.37 5.29zm82.27-4.25c6.94-3.5 16.22-2.56 21.72 3.14 4.85 4.85 6.35 12.13 5.86 18.77-9.72.03-19.43-.07-29.14.06.89 4.27 3.71 8.38 8.17 9.41 5.08 1.61 10.1-1.05 13.93-4.21 1.75 1.47 3.5 2.95 5.26 4.42-7.53 11.14-26.59 10.17-33.41-1.26-6.24-9.87-3.12-24.95 7.61-30.33zm39.3.09c7.37-3.79 16.25-1.56 22.94 2.62-1.26 2.17-2.49 4.34-3.7 6.53-4.33-2.19-9.14-4.49-14.1-3.23-2.41.71-3.81 4.21-1.37 5.75 5.06 3.42 11.85 3.35 16.55 7.47 5.82 4.77 3.78 15.25-2.93 18.22-8.27 3.81-17.92 1.05-25.18-3.73.99-2.41 2.39-4.62 3.94-6.7 4.87 3 11.02 6.48 16.8 4.01 2.46-.81 2.99-4.74.71-6.05-5.4-3.32-12.67-3.03-17.21-7.85-4.54-5.12-2.43-14.01 3.55-17.04zm70.58-1.26c7.47-2.28 16.15-.05 21.58 5.57 7.43 7.62 7.43 21.15-.24 28.61-6.68 7.17-18.42 8.44-26.69 3.34-6.61-3.76-10.39-11.61-9.66-19.12.31-8.56 6.76-16.29 15.01-18.4zm43.47 7.7c2.78-4.83 7.55-8.84 13.43-8.58 1.03 3.03.3 6.47.48 9.67-4.96.29-10.32 2.38-12.27 7.32-3.01 7.48-1.19 15.76-1.75 23.59-3.05.02-6.09.03-9.13.06-.31-13.2-.07-26.41-.13-39.61 3.09-.01 6.18-.01 9.27 0 .02 2.51.06 5.03.1 7.55zm24.59-6.54c7.27-3.7 15.89-1.31 22.59 2.47-1.1 2.28-2.3 4.54-3.5 6.77-4.2-2-8.71-4.34-13.51-3.35-1.96.15-2.74 2.15-3.81 3.46 3.58 5.94 11.72 4.98 16.92 8.82 7.3 4.07 5.7 16.3-1.7 19.39-8.37 3.61-18.15 1.03-25.23-4.14 1.32-2.09 2.64-4.16 3.97-6.24 4.58 2.41 9.46 5.34 14.86 4.6 2.1-.33 4.8-1.98 4.3-4.49.1-1.49-1.5-2.2-2.5-2.9-5.15-2.62-11.64-2.67-15.87-6.98-5.01-5.01-2.81-14.49 3.48-17.41zm88.99 6.91c2.6-5.36 7.8-9.11 13.9-9.04 0 3.24.1 6.49.1 9.75-4.8.28-9.9 2.25-12 6.84-3.6 7.54-1.4 16.11-2 24.11-3.1.02-6.1-.01-9.1-.1-.1-13.14 0-26.29-.1-39.43 3.1-.06 6.1-.07 9.2-.05v7.92zm18.7-5.49c7.3-3.14 15.9-4.39 23.6-1.74 5.6 1.99 8.7 7.91 8.8 13.63.1 8.41.1 16.83 0 25.24-3-.07-6.1.36-9-.28-.1-.97-.2-2.91-.3-3.87-5.6 5.47-15 6.57-21.6 2.34-7-4.39-6.7-16.32.6-20.23 6.5-3.64 14.3-2.47 21.3-1.16-.1-2.97-1-6.24-3.9-7.58-5.5-2.57-11.7-.77-17 1.24-1-2.49-1.8-5.02-2.5-7.59zm92.6 2.53c6.7-7.45 19.5-8.05 26.7-1.11 5 4.91 6.4 12.23 6.1 18.98-9.7.25-19.5-.02-29.2.15 1 3.31 2.5 6.89 5.8 8.44 4.5 2.59 10.3 1.42 14.3-1.74 2.9-2.98 5.3 1.78 7.5 3.44-5 5.5-12.6 8.51-20 7.04-7.3-1.02-13.8-6.6-15.8-13.75-2.1-7.31-.7-15.77 4.6-21.45zm153.5 15.37c-.7-9.24 5.9-18.33 14.9-20.58 7.6-2.2 16.3.15 21.6 6.13-2 2.04-3.9 4.1-5.7 6.19-3.4-3.21-8.1-6.03-13-4.56-7.5 1.81-10.8 11.4-7.4 17.97 1.8 4.44 6.6 7.33 11.4 6.72 3.7-.03 6.6-2.44 9.2-4.78 2 1.81 3.8 3.64 5.7 5.51-4.9 5.97-13.2 8.9-20.8 7.05-9-1.75-16.2-10.39-15.9-19.65zm54.2-20.37c9.8-3.3 21.6 1.57 25.8 11.16 2.6 6.09 2.3 13.55-1.2 19.25-4.6 8.08-15.2 11.9-24 9.3-8.6-2.07-15.4-10.38-15.3-19.29-.5-9.1 5.9-17.96 14.7-20.42zm70.3 0c6-2.42 14-.46 17.3 5.4 2.7 4.85 2.2 10.59 2.3 15.94-.2 5.78.1 11.57-.1 17.35-2.4 1.96-6 .51-8.9 1.02-1.3-8.78.5-17.76-1-26.51-1.3-6.06-9.8-7.47-13.8-3.34-2.4 2.18-2.8 5.53-2.8 8.57v21.1c-3.1.07-6.2.11-9.2.12-.3-13.2-.1-26.42-.1-39.63 3.1.01 6.2.01 9.3.02v5.42c2.1-2.11 4.1-4.48 7-5.46zm101.6 3.67c7.2-6.58 19.7-6.2 26.3 1.22 4.4 4.87 5.4 11.73 5.1 18.07-9.8.06-19.5-.07-29.3.07 1.2 4.31 4 8.61 8.7 9.5 5.1 1.46 9.9-1.39 13.8-4.29 1.8 1.62 3.5 3.32 5.1 5.13-7.8 8.8-22.9 9.75-31.1 1.08-8-8.33-7.3-23.2 1.4-30.78zm38.4-3.61c3-.02 6.1-.04 9.1-.05v7.76c1.8-2.4 3.4-5.06 6-6.64 2.3-1.5 5.1-1.79 7.8-2.34.2 3.29.3 6.59.2 9.89-4.7.35-9.9 2.19-11.9 6.84-3.4 7.45-1.4 15.91-2.2 23.79-2.9.67-6 .21-9 .27-.1-13.17 0-26.35 0-39.52zm89.9 2.35c6.7-2.84 14.1-3.68 21.3-2.43 3.9.88 7.6 3.4 9.4 7.07 1.9 3.79 2 8.16 2 12.32-.1 6.74 0 13.48-.1 20.23l-9.1.03c-.1-1.39-.3-2.78-.4-4.16-5.5 5.41-14.7 6.47-21.3 2.54-5.2-3.04-6.5-10.16-4.2-15.43 1.6-3.52 5.1-5.87 8.8-6.74 5.6-1.43 11.5-.43 17.1.52-.3-2.78-.9-5.96-3.6-7.33-5.5-2.91-12-.96-17.5 1.01-.8-2.53-1.7-5.08-2.4-7.63zm132.8 2.4c7.1-7.72 21-7.84 27.7.42 4.2 4.85 5.1 11.53 4.8 17.73-9.7.04-19.3-.05-28.9.05.7 5.04 4.8 9.43 10 9.81 4.5.64 8.6-1.9 12-4.58 1.7 1.47 3.5 2.94 5.2 4.41-7.2 10.7-25.1 10.28-32.5-.05-5.9-8.14-5.3-20.49 1.7-27.79zm44.9-3.95c7.3-3.42 15.6-1.01 22.3 2.66-1.2 2.28-2.4 4.54-3.6 6.78-4-1.99-8.4-4.18-13-3.44-2.9-.07-5.2 4.07-2.5 5.95 5.4 3.65 13 3.43 17.6 8.5 2.5 2.29 1.8 6 1.8 9.03 0 4.5-4 7.8-8 9.08-7.9 2.3-16.2-.24-22.9-4.59.8-2.46 2.3-4.61 3.9-6.66 4.9 2.88 11 6.4 16.8 3.93 2.5-.74 2.9-4.82.7-6.08-5.4-3.29-12.7-3.02-17.2-7.83-4.8-5.27-2.3-14.58 4.1-17.33zm-1367.56-.81c3.14-.02 6.29-.02 9.44 0-.12 13.19.28 26.4-.21 39.58-3.07-.01-6.14-.02-9.21-.04-.06-13.18-.02-26.36-.02-39.54zm192.92.01c3.06-.03 6.14-.03 9.22-.04-.03 13.2.04 26.4-.08 39.59-3.04.01-6.08 0-9.12-.02-.07-13.18-.03-26.36-.02-39.53zm58.24 0c3.34-.04 6.69-.04 10.05.02 3.24 9.54 7 18.89 10.22 28.43 3.78-9.4 7.05-18.99 10.64-28.46 3.25-.03 6.5-.02 9.76.02-5.39 13.28-10.75 26.59-16.2 39.85-2.74 0-5.47-.01-8.2-.01-5.54-13.23-10.9-26.54-16.27-39.85zm539.7 0c3.1-.03 6.2-.03 9.3-.02-.1 13.19.1 26.38-.1 39.58-3 0-6.1-.01-9.1-.03-.1-13.18 0-26.35-.1-39.53zm134 39.59c-.3-13.2 0-26.41-.1-39.62 3.1-.01 6.2 0 9.3.03-.1 13.16 0 26.31-.1 39.47-3 .07-6 .11-9.1.12zm204.6-39.6c3.1-.02 6.2-.02 9.3-.02 0 13.2.2 26.41-.1 39.62-3-.01-6.1-.05-9.1-.12-.1-13.16 0-26.32-.1-39.48zm15.2 0c3.3-.02 6.6-.02 9.9-.03 3.7 9.45 6.9 19.04 10.6 28.49 3.5-9.51 6.9-19.1 10.6-28.52 3.2.03 6.4.05 9.6.1-5.2 13.29-10.8 26.42-16 39.72-2.8.1-5.6.13-8.4.12-5.5-13.28-10.9-26.6-16.3-39.88zm115.4 0c3-.02 6.1-.02 9.2-.02 0 8.76.2 17.53.1 26.3 0 4.46.4 8.96-.5 13.37-3-.08-5.9-.1-8.8-.11-.1-13.18-.1-26.36 0-39.54zm15.1.02c3.3-.05 6.7-.05 10 0 3.3 9.27 6.7 18.53 10.1 27.73 4.5-8.87 7.1-18.55 10.8-27.75 3.2-.02 6.5-.02 9.8 0-5.5 13.27-10.8 26.6-16.3 39.86-2.7 0-5.4.01-8.1.02-5.6-13.24-11-26.53-16.3-39.86z"/><path fill="#fefefe" d="M120.34 485.31c3.53-4.01 10.76-3.94 14.07.3 1.61 1.9 2.05 4.42 2.71 6.75-6.73.06-13.45.09-20.17-.03.8-2.48 1.5-5.13 3.39-7.02zm70.39.46c3.28-4.24 10.55-4.66 14.07-.51 1.97 1.86 2.45 4.6 3.12 7.1-6.68.05-13.36.08-20.04-.01.62-2.31 1.19-4.76 2.85-6.58zm70.54-2.32c6.57-2.82 14.08 2.67 14.72 9.48 1.91 7.8-5.1 16.99-13.49 14.65-11.18-2.45-11.92-20.44-1.23-24.13zm74.07.01c4.92-1.88 10.82.32 13.64 4.68 3.38 4.93 2.87 12.2-1.39 16.45-4.36 4.63-12.67 4.4-16.83-.39-5.86-6.07-3.83-18.12 4.58-20.74zm67.9 1.8c3.57-4.01 10.77-3.84 14.07.43 1.54 1.89 2.04 4.34 2.78 6.61-6.74.17-13.47.12-20.2.04.77-2.49 1.4-5.21 3.35-7.08zm137.15-1.67c4.86-1.99 10.84-.08 13.8 4.21 3.58 5.02 3.13 12.63-1.32 17-4.85 4.83-14.06 3.97-17.73-1.9-4.56-6.23-2.23-16.56 5.25-19.31zm271.82 1.66c3.45-3.79 10.22-3.9 13.65-.03 1.87 1.93 2.42 4.64 3.18 7.13-6.73.07-13.45.09-20.18-.01.76-2.5 1.41-5.21 3.35-7.09zm111.03-2.04c5.75-1.73 12.25 1.95 14.12 7.57 2.33 5.73-.01 13.17-5.65 15.99-4.55 2.15-10.57 1.31-13.89-2.62-6.19-6.29-3.5-18.87 5.42-20.94zm228.16.46c5.9-2.96 13.4 1.22 15 7.45 1 4.55.7 9.98-2.8 13.41-3.6 3.94-10.2 4.46-14.4 1.17-7-5.37-6.2-18.38 2.2-22.03zm44.1 1.79c3.3-3.89 10-4.19 13.5-.48 2.1 1.91 2.7 4.79 3.6 7.35-6.8.12-13.6.09-20.4.03.8-2.41 1.4-5.04 3.3-6.9zm70.7-2.2c5.4-1.97 11.7 1.52 13.5 6.86 1.6 4.7 1.2 10.45-2.2 14.26-3.8 4.45-11.3 4.61-15.5.59-6.5-6-4.7-18.94 4.2-21.71zm133.1.07c5.5-1.86 12.2 1.29 14.3 6.76 2.3 5.08 1.1 11.68-3.2 15.31-4.7 3.84-12.5 3.28-16.4-1.44-5.5-6.29-3.3-18.3 5.3-20.63zm131 .07c4.9-1.99 10.7.55 13.2 5.07 3 5.22 2.2 12.56-2.3 16.62-3.9 3.65-10.5 3.7-14.4.08-6.6-5.76-5.2-18.74 3.5-21.77zm43.8 1.59c3.5-3.63 10.2-3.5 13.5.41 1.9 1.87 2.3 4.54 3.1 6.95-6.8.07-13.5.09-20.3-.01.9-2.58 1.6-5.41 3.7-7.35zm261.6.77c3.3-4.26 10.6-4.63 14.1-.5 1.9 1.86 2.4 4.59 3.1 7.1-6.7.06-13.3.07-20-.01.6-2.32 1.2-4.75 2.8-6.59zM627.64 497.74c4.6-1.72 9.59-.66 14.15.68.3 4.08-1.57 8.36-5.69 9.7-3.67 1.05-8.68 1.5-11.33-1.86-2.28-2.9-.46-7.4 2.87-8.52zm477.46.24c4.6-2.07 9.9-.95 14.6.43.5 4.34-1.9 8.7-6.2 9.93-3.5.74-8.2 1.16-10.7-2.04-2.2-2.74-.8-6.98 2.3-8.32zm600.2.19c4.8-2.35 10.4-1.19 15.3.41-.6 2.52-.5 5.51-2.6 7.4-3.1 3.11-8.2 3.45-12.2 2.24-4.3-1.49-4.6-8.12-.5-10.05z"/></svg>