<svg viewBox="0 0 1200 300" xmlns="http://www.w3.org/2000/svg" xmlns:serif="http://www.serif.com/" fill-rule="evenodd" clip-rule="evenodd" stroke-linejoin="round" stroke-miterlimit="1.414"><text x="283.775" y="244.434" font-family="'Righteous-Regular','Righteous'" font-size="240" fill="#ff41b4" transform="translate(115.298 -5.137)" serif:id="(BitMidi)">BitMidi</text><path d="M41.186 192.116c-4.171 0-11.185-3.297-11.185-7.36v-69.513c0-4.067 7.014-7.36 11.185-7.36 4.17 0 11.184 3.293 11.184 7.36v69.513c0 4.063-7.013 7.36-11.184 7.36zM86.467 219.517c-4.17 0-11.184-3.298-11.184-7.36V87.842c0-4.068 7.013-7.36 11.184-7.36 4.171 0 11.185 3.292 11.185 7.36v124.313c0 4.063-7.014 7.36-11.185 7.36zM131.749 260c-4.171 0-11.185-3.298-11.185-7.361V47.36c0-4.068 7.014-7.36 11.185-7.36 4.17 0 11.184 3.292 11.184 7.36V252.64c0 4.063-7.013 7.36-11.184 7.36zM177.03 202.75c-4.17 0-11.184-3.298-11.184-7.36v-90.78c0-4.068 7.013-7.36 11.184-7.36 4.166 0 11.185 3.292 11.185 7.36v90.78c0 4.062-7.02 7.36-11.185 7.36zM222.311 217.058c-4.165 0-11.184-3.297-11.184-7.36V90.3c0-4.068 7.019-7.36 11.184-7.36 4.166 0 11.185 3.292 11.185 7.36v119.397c0 4.063-7.019 7.36-11.185 7.36zM267.593 181.895c-4.166 0-11.185-3.298-11.185-7.36v-49.07c0-4.068 7.019-7.36 11.185-7.36s11.184 3.292 11.184 7.36v49.07c0 4.062-7.018 7.36-11.184 7.36zM312.874 166.762c-4.166 0-11.184-3.298-11.184-7.36v-18.804c0-4.068 7.018-7.36 11.184-7.36 4.166 0 11.185 3.292 11.185 7.36V159.4c0 4.063-7.019 7.36-11.185 7.36z" fill="#ff41b4" fill-rule="nonzero"/></svg>