<svg id="Layer_1" xmlns="http://www.w3.org/2000/svg" viewBox="0 0 500 200"><style>.st0{fill:#CA3137;}</style><title>Artboard 1</title><path class="st0" d="M36.3 126h17.3c3.7 0 6.5.7 8.4 2.1 1.8 1.2 2.8 3.3 2.8 5.4v.3c0 2.2-1.1 4.2-2.9 5.4-1.8 1.4-4.6 2.1-8.3 2.1H36.3V126zM294 92.8c3.1-.1 6.1.6 8.9 1.9 2.6 1.2 4.9 3 6.7 5.1 1.9 2.2 3.3 4.7 4.3 7.5 1.1 2.7 1.6 5.7 1.6 8.6v.3c0 2.9-.5 5.9-1.5 8.6-.9 2.7-2.4 5.2-4.2 7.3-1.9 2.1-4.2 3.8-6.7 5-2.7 1.3-5.7 1.9-8.8 1.9-6 .1-11.8-2.5-15.7-7-1.9-2.2-3.3-4.7-4.4-7.3-1-2.8-1.5-5.8-1.5-8.8v-.3c0-2.9.5-5.9 1.5-8.6.9-2.6 2.4-5.1 4.2-7.2 1.9-2.2 4.2-3.9 6.7-5.1 2.9-1.3 5.9-2 8.9-1.9zm.3-30.3c-7.6-.1-15.1 1.4-22.1 4.2-6.6 2.6-12.7 6.5-17.9 11.4-5 4.8-9 10.6-11.8 16.9-2.9 6.6-4.3 13.6-4.2 20.8v.3c-.1 14.2 5.7 27.9 15.9 37.7 5.1 4.8 11.2 8.6 17.7 11.2 14.2 5.5 30 5.5 44.2 0 6.6-2.7 12.6-6.5 17.7-11.4 5-4.8 9.1-10.6 11.8-16.9 2.9-6.6 4.4-13.7 4.4-20.9v-.3c.1-14.3-5.7-28-16.1-37.8-5.1-4.9-11.1-8.7-17.7-11.3-6.9-2.6-14.4-4-21.9-3.9zm-258 28.1h14.8c7.3 0 11 2.3 11 7v.3c0 4.7-3.7 7-10.9 7h-15V90.6h.1zm424.1-25.9V167h34.2V64.7h-34.2zm-121.1 0l41.5 103.1h32.7L455 64.7h-37.7l-19.9 57.5-19.9-57.5h-38.2zm-193.6 0v28.9h30.1V167h34.3V93.6h30.1V64.7h-94.5zm-40.7 0V167h34.2V64.7H105zm-102 0V167h56.7c5.7.1 11.4-.6 17-2 4.5-1.2 8.7-3.3 12.4-6 3.2-2.3 5.7-5.4 7.4-8.9 1.7-3.6 2.5-7.5 2.5-11.4v-.3c0-7-2-12.4-5.9-16.2-3.9-3.8-9.2-6.7-15.8-8.6 5.1-1.6 9.7-4.5 13.3-8.4 3.3-3.8 5-8.8 5-14.9V90c.1-3.2-.5-6.3-1.7-9.2-1.1-2.5-2.7-4.8-4.6-6.7-3.3-3.2-7.2-5.5-11.6-6.9-4.6-1.6-10.4-2.3-17.5-2.3H3zm119.1-38.9c7.9 0 14.4 6.4 14.4 14.4 0 7.9-6.4 14.4-14.4 14.4-7.9 0-14.4-6.4-14.4-14.4s6.4-14.4 14.4-14.4c-.1 0 0 0 0 0zm355.5-5.1c-10.7 0-19.4 8.7-19.4 19.4s8.7 19.4 19.4 19.4S497 50.8 497 40.1s-8.7-19.4-19.4-19.4zm-355.5 0c-10.7 0-19.4 8.7-19.4 19.4s8.7 19.4 19.4 19.4 19.4-8.7 19.4-19.4-8.7-19.4-19.4-19.4z"/></svg>