<svg version="1.1" id="Layer_1" xmlns="http://www.w3.org/2000/svg" x="0" y="0" viewBox="0 0 500 200" xml:space="preserve"><style>.st0{fill:#27aae1}</style><path id="path6" class="st0" d="M92.4 70.1l-25.9-15c-2.7-1.6-5.6-2.3-8.7-2.3-3 0-5.9.8-8.7 2.3l-16.6 9.6v20l25.2-14.5 25.9 14.9V115l17.3 10V85.1c.1-6.2-3.2-11.9-8.5-15zm-34.6 59.8L31.9 115V85.1l-17.3-10V115c0 6.1 3.3 11.9 8.7 14.9l25.9 14.9c2.7 1.6 5.6 2.3 8.7 2.3s5.9-.8 8.7-2.3l16.6-9.6v-20l-25.4 14.7z"/><g id="g10" transform="translate(-645.4 -951)"><path id="path8" class="st0" d="M774.8 1015.1c0-.2 1-.7 2.3-.7 2.3 0 4.5 1.2 4.5 6.7v23.3c4.5-6 10.4-9.5 18.7-9.5 13.3 0 23.9 10.4 23.9 26.4 0 15.9-10.3 26.6-24.2 26.6-9.1 0-15.6-4.3-18.4-9v4.8c0 2.5-1.2 3.3-3 3.3h-.7c-1.8 0-3.1-.7-3.1-3.3v-68.6zm24.7 66.5c10.7 0 17.8-8.3 17.8-20.4 0-11.9-7.4-20.4-17.6-20.4-8.8 0-14.9 4.7-18.1 12v11.9c0 9.6 8.4 16.9 17.9 16.9zm34.2-66.5c0-.2 1-.7 2.3-.7 2.3 0 4.5 1.2 4.5 6.7v62.6c0 2.5-1.3 3.3-3.1 3.3h-.7c-1.8 0-3.1-.7-3.1-3.3l.1-68.6zm18.8 23.7c0-2.5 1.3-3.3 3.1-3.3h.7c1.8 0 3.1.7 3.1 3.3v26.2c0 10.2 5.1 16.2 14.1 16.2 7.3 0 13.1-4.3 16.1-10.7v-31.7c0-2.5 1.3-3.3 3.1-3.3h.7c1.8 0 3.1.7 3.1 3.3v47.3c0 .2-1 .7-2.3.7-2.3 0-4.5-1.2-4.5-6.7v-1.6c-3.6 5.4-9.4 9.1-17.1 9.1-13.3 0-20-8.9-20-22.2l-.1-26.6zm78.6-4.1c14.2 0 23.5 10.1 23.5 25.4v.6c0 1.9-.7 2.3-2.8 2.3h-39.2c.5 10.8 8.3 18.4 19.2 18.4 9.8 0 14.3-4.3 17.3-9 .2-.3 4 .6 4 3.9 0 3.5-7.6 11.2-21.3 11.2-15.4 0-26.1-10.8-26.1-26.2 0-15.2 10.8-26.6 25.4-26.6zm16.2 22.5c-.6-10-6.8-16.4-16.2-16.4-9.5 0-16.9 6.8-18.3 16.4h34.5zm16.5-42.1c0-.2 1-.7 2.3-.7 2.3 0 4.5 1.2 4.5 6.7v23.1c3.5-5.4 9.1-9.3 17.1-9.3 13.3 0 20 8.9 20 22.2v26.6c0 2.5-1.3 3.3-3.1 3.3h-.7c-1.8 0-3.1-.7-3.1-3.3v-26.2c0-10.2-5.1-16.2-13.6-16.2-10 0-16.6 6.8-16.6 17.3v25.1c0 2.5-1.3 3.3-3.1 3.3h-.7c-1.8 0-3.1-.7-3.1-3.3l.1-68.6zm54.8 3.8c0-3.1 1.6-4.5 4.7-4.5 3 0 4.5 1.5 4.5 4.5 0 3.1-1.6 4.5-4.7 4.5-3 0-4.5-1.6-4.5-4.5zm1 19.9c0-2.5 1.3-3.3 3.1-3.3h.7c1.8 0 3.1.7 3.1 3.3v44.7c0 2.5-1.3 3.3-3.1 3.3h-.7c-1.8 0-3.1-.7-3.1-3.3v-44.7zm13.6-1.2c-.1-.5 1-2 3.4-2 2.5 0 3.6 1 5.2 5.1l14.8 39.6 15.1-39.6c1.6-4.1 2.8-5.1 5-5.1 2.5 0 3.5 1.7 3.4 2l-18.6 46.7c-.7 1.8-1.5 2.8-5 2.8-3.6 0-3.9-.7-4.7-2.5l-18.6-47zm74.1-2.9c14.2 0 23.5 10.1 23.5 25.4v.6c0 1.9-.7 2.3-2.8 2.3h-39.2c.5 10.8 8.3 18.4 19.2 18.4 9.8 0 14.3-4.3 17.3-9 .2-.3 4 .6 4 3.9 0 3.5-7.6 11.2-21.3 11.2-15.4 0-26.1-10.8-26.1-26.2 0-15.2 10.8-26.6 25.4-26.6zm16.2 22.5c-.6-10-6.8-16.4-16.2-16.4-9.5 0-16.9 6.8-18.3 16.4h34.5z"/></g></svg>