<svg width="500" height="200" xmlns="http://www.w3.org/2000/svg"><path fill="none" d="M-1-1h502v202H-1z"/><path d="M106.874 127.342c2.967-1.885 10.15-8.172 8.353-20.27-1.623-10.934-10.774-18.2-22.535-17.625-5.25.26-22.484 3.758-22.484 3.758v81.903s21.31-4.15 25.214-4.897c13.582-2.59 22.9-11.49 22.668-24.19-.208-11.42-6.246-16.76-11.216-18.67zm-3.513 16.63c.62 7.215-3.77 10.746-8.43 12.097-3.89 1.12-10.44 2.15-10.44 2.15v-21.76s6.75-1.42 9.61-1.26c4.05.22 8.7 2.16 9.26 8.76zM93.14 123.26c-1.183.267-8.65 1.63-8.65 1.63v-20.407c2.465-.507 5.968-1.364 9.3-1.26 4.265.135 7.89 3.155 8.014 9.01.13 6.2-3.513 9.846-8.667 11.026h.003zm80.657 11.785c.958-12.41-3.435-16.074-10.436-16.658 4.55-2.142 12.04-9.12 10.39-21.486-1.4-10.53-9.49-19.84-24.94-18.66-5.85.45-22.27 3.92-22.27 3.92v81.88l14.47-2.82v-33.4s7.08-1.6 10.57-1.96c5.39-.55 8.78 1.43 8.11 13.38-.62 11.04 2.68 16.39 9.1 18.24 6.05 1.74 10.75-1.2 10.75-1.2v-7.86c-5.23 1.23-6.59-2.15-5.72-13.35zm-14.182-33.607c.386 6.614-3.226 10.66-9.19 12.25-4.067 1.086-9.42 1.842-9.42 1.842V93.156s5.875-1.38 9.656-1.17c5.66.313 8.65 4.095 8.96 9.452zm28.807-31.342v81.837l14.592-2.87V67.215L188.42 70.1m51.11 29.872v11.868l10.434-2.016s.163 5.375-.003 7.546c-.63 8.397-3.83 12.093-9.2 12.614-5 .487-9.87-2.862-9.87-12.29V85.52c0-7.715 3.41-11.688 8.94-12.466 3.91-.55 7.29 1.257 8.59 5.812.71 2.476.86 7.936.86 7.936l14.5-2.907s-.38-7.41-2.31-12.597c-2.64-7.105-9.42-14.1-21.33-12.44-7.39 1.03-12.74 3.443-16.71 7.72-4.02 4.334-7.11 11.418-7.11 24.965v27.968c0 16.42 10.83 24.45 18.9 24.45 6.81 0 14.69-2.17 19.16-10.96l1.25 5.66 7.95-1.49V95.29l-24.01 4.685M304.3 47.27l-14.15 2.79L271 135.63l14.253-2.785 4.49-22.65 15.947-3.34 4.56 21.067 13.713-2.7-19.668-77.953zm-6.615 22.743l5.413 25.02-10.747 2.133 5.34-27.15zm33.67-28.062v81.81s21.116-4.16 23.904-4.72c16.26-3.2 23.76-10.74 23.76-23.4V62.93c0-15.146-6.94-25.69-20.53-25.53-8.51.096-27.14 4.56-27.14 4.56zm33.075 20.74v25.14c0 10.58-1.287 15.08-11.446 17.37-.99.23-3.55.7-7.16 1.39v-53.2s5.48-1.11 8.98-1.44c6.487-.61 9.618 3.35 9.618 10.74v.01zm25.432-32.27v81.82l40.198-7.89V90.07l-25.605 5.03.02-20.013 18.47-3.635v-14.3l-18.49 3.657V41.84l24.305-4.714V22.778l-38.896 7.64m41.964-24.895V.343l-363.65 71.54v5.174L431.822 5.52M68.178 194.48v5.176l363.644-71.536v-5.174L68.177 194.482" fill="#9221C7"/></svg>