<svg viewBox="0 0 500 200" xmlns="http://www.w3.org/2000/svg" fill-rule="evenodd" clip-rule="evenodd" stroke-linejoin="round" stroke-miterlimit="1.414"><path d="M445.347 112.031c1.248 0 2.363-.208 3.347-.624.984-.416 1.816-1 2.496-1.752.68-.751 1.2-1.663 1.56-2.735.36-1.072.54-2.271.54-3.6V82.54h6.454v20.78c0 2.064-.332 3.972-.996 5.724-.664 1.751-1.62 3.263-2.867 4.535-1.248 1.271-2.76 2.263-4.535 2.975-1.776.712-3.775 1.068-5.999 1.068-2.224 0-4.223-.356-5.999-1.068-1.775-.712-3.283-1.704-4.523-2.975-1.24-1.272-2.192-2.784-2.855-4.535-.664-1.752-.996-3.66-.996-5.723V82.54h6.455v20.756c0 1.327.18 2.527.54 3.599.36 1.072.875 1.988 1.547 2.747.672.76 1.5 1.348 2.484 1.764.984.416 2.1.624 3.347.624m31.642-14.95h1.512c.607 0 1.111-.083 1.511-.251.4-.168.744-.436 1.032-.804l9.574-12.117c.4-.512.82-.868 1.26-1.068.44-.2.996-.3 1.668-.3h5.567l-11.686 14.42c-.368.449-.72.825-1.056 1.129a4.82 4.82 0 01-1.08.744 4.77 4.77 0 011.428.815c.424.352.836.8 1.236 1.344L500 117.238h-5.71c-.768 0-1.34-.108-1.716-.324a2.687 2.687 0 01-.948-.948l-9.814-12.813c-.32-.416-.68-.716-1.08-.9-.4-.184-.968-.276-1.703-.276h-2.04v15.261h-6.455V82.517h6.455v14.565z" fill="#0080ff" fill-rule="nonzero"/><path d="M417.76 99.902c0-2.372-.329-4.488-.986-6.348-.657-1.86-1.583-3.43-2.777-4.713-1.195-1.282-2.633-2.26-4.317-2.934-1.683-.673-3.55-1.01-5.602-1.01h-9.932v30.034h9.932c2.052 0 3.92-.336 5.602-1.01 1.684-.673 3.122-1.65 4.317-2.933 1.194-1.283 2.12-2.854 2.777-4.713.657-1.86.986-3.984.986-6.373m2.549 0c0 2.63-.393 4.994-1.178 7.094-.786 2.1-1.892 3.888-3.319 5.363-1.427 1.474-3.134 2.605-5.122 3.39-1.988.786-4.192 1.178-6.612 1.178H391.67V82.901h12.408c2.42 0 4.624.393 6.612 1.179 1.988.785 3.695 1.916 5.122 3.39 1.427 1.475 2.533 3.263 3.319 5.363.785 2.1 1.178 4.456 1.178 7.07M352.506 82.9c.224 0 .4.029.529.085.128.056.264.18.408.372l22.027 29.482a14.06 14.06 0 01-.072-1.395V82.9h2.164v34.026h-1.178c-.369 0-.665-.16-.89-.48l-22.123-29.53c.048.481.072.938.072 1.37v28.64h-2.14V82.901h1.203zm-68.589 15.92h7.382c1.571 0 2.914-.201 4.028-.602 1.114-.4 2.028-.93 2.741-1.587.714-.657 1.239-1.403 1.575-2.236a6.813 6.813 0 00.505-2.573c0-2.293-.725-4.028-2.176-5.206-1.45-1.179-3.691-1.768-6.72-1.768h-7.335V98.82zm0 1.803v14.332h8.536c2.998 0 5.259-.646 6.781-1.936 1.523-1.29 2.285-3.106 2.285-5.447 0-1.074-.205-2.04-.613-2.897a6.055 6.055 0 00-1.768-2.189c-.77-.6-1.715-1.062-2.837-1.382-1.122-.32-2.397-.481-3.824-.481h-8.56zm-2.453 16.303V82.901h9.787c1.94 0 3.62.193 5.038.578 1.418.384 2.593.95 3.523 1.695a6.93 6.93 0 012.08 2.73c.457 1.073.685 2.292.685 3.654 0 .898-.156 1.764-.469 2.597a7.857 7.857 0 01-1.358 2.309 8.744 8.744 0 01-2.177 1.84c-.857.52-1.84.917-2.945 1.19 2.677.4 4.737 1.29 6.18 2.669 1.442 1.378 2.164 3.198 2.164 5.458 0 1.443-.257 2.742-.77 3.896a7.882 7.882 0 01-2.236 2.934c-.978.801-2.18 1.414-3.607 1.84-1.427.424-3.046.636-4.858.636h-11.037zm-14.468-17.025c0-2.372-.329-4.488-.986-6.348-.657-1.86-1.583-3.43-2.777-4.713-1.195-1.282-2.633-2.26-4.317-2.934-1.683-.673-3.55-1.01-5.602-1.01h-9.932v30.034h9.932c2.052 0 3.92-.336 5.602-1.01 1.684-.673 3.122-1.65 4.317-2.933 1.194-1.283 2.12-2.854 2.777-4.713.657-1.86.986-3.984.986-6.373m2.55 0c0 2.63-.394 4.994-1.18 7.094-.785 2.1-1.89 3.888-3.318 5.363-1.426 1.474-3.134 2.605-5.122 3.39-1.987.786-4.192 1.178-6.612 1.178h-12.408V82.901h12.408c2.42 0 4.625.393 6.612 1.179 1.988.785 3.696 1.916 5.122 3.39 1.427 1.475 2.533 3.263 3.319 5.363.785 2.1 1.178 4.456 1.178 7.07m-77.486 0c0-2.373-.33-4.505-.985-6.397-.659-1.892-1.583-3.495-2.778-4.81a11.911 11.911 0 00-4.317-3.017c-1.684-.697-3.55-1.046-5.603-1.046-2.019 0-3.867.349-5.543 1.046a12.16 12.16 0 00-4.328 3.018c-1.21 1.314-2.147 2.917-2.813 4.809-.665 1.892-.998 4.024-.998 6.396 0 2.39.333 4.525.998 6.409.666 1.883 1.603 3.482 2.813 4.797a12.03 12.03 0 004.328 3.006c1.676.69 3.524 1.034 5.543 1.034 2.053 0 3.92-.345 5.603-1.034a11.787 11.787 0 004.317-3.006c1.195-1.315 2.12-2.914 2.778-4.797.656-1.884.985-4.02.985-6.409m2.548 0c0 2.63-.392 5.014-1.177 7.154-.786 2.14-1.891 3.968-3.32 5.483-1.426 1.515-3.132 2.685-5.12 3.51-1.989.826-4.193 1.24-6.614 1.24-2.388 0-4.576-.414-6.564-1.24-1.989-.825-3.695-1.995-5.121-3.51-1.427-1.515-2.537-3.343-3.332-5.483-.794-2.14-1.19-4.524-1.19-7.154 0-2.613.396-4.99 1.19-7.13.795-2.14 1.905-3.967 3.332-5.482 1.426-1.515 3.132-2.69 5.121-3.523 1.988-.833 4.176-1.25 6.564-1.25 2.42 0 4.625.413 6.614 1.238 1.988.826 3.694 2 5.12 3.523 1.429 1.523 2.534 3.354 3.32 5.495.785 2.14 1.177 4.516 1.177 7.13m-60.493-.193h5.916c1.507 0 2.859-.18 4.052-.54 1.195-.362 2.204-.879 3.03-1.552A6.69 6.69 0 00149 95.189c.432-.945.649-2.012.649-3.198 0-2.42-.793-4.216-2.381-5.386-1.587-1.17-3.896-1.756-6.926-1.756h-6.228V99.71zm0 1.828v15.39h-2.453V82.9h8.681c3.93 0 6.861.758 8.8 2.273 1.942 1.515 2.911 3.74 2.911 6.673 0 1.298-.224 2.485-.673 3.559a8.336 8.336 0 01-1.936 2.825c-.842.81-1.855 1.475-3.042 1.996-1.186.521-2.524.862-4.015 1.022.384.24.73.561 1.033.962l11.71 14.716h-2.14c-.255 0-.475-.048-.66-.144-.185-.096-.365-.256-.542-.48l-10.892-13.804c-.272-.352-.565-.6-.877-.745-.313-.144-.798-.216-1.456-.216h-4.45zM98.557 98.82h7.383c1.572 0 2.914-.2 4.028-.6 1.114-.402 2.028-.93 2.741-1.588.713-.657 1.24-1.403 1.576-2.236a6.815 6.815 0 00.503-2.573c0-2.293-.724-4.028-2.174-5.206-1.451-1.179-3.692-1.768-6.722-1.768h-7.335V98.82zm0 1.804v14.332h8.538c2.998 0 5.257-.646 6.78-1.936 1.524-1.29 2.285-3.106 2.285-5.447 0-1.074-.204-2.04-.612-2.897a6.06 6.06 0 00-1.769-2.189c-.768-.6-1.715-1.062-2.837-1.382-1.123-.32-2.397-.481-3.824-.481h-8.561zm-2.452 16.303V82.901h9.787c1.94 0 3.62.193 5.038.578 1.419.384 2.594.95 3.522 1.695a6.936 6.936 0 012.081 2.73c.456 1.073.686 2.292.686 3.654 0 .898-.156 1.764-.469 2.597a7.918 7.918 0 01-1.359 2.309 8.773 8.773 0 01-2.176 1.84c-.859.52-1.84.917-2.947 1.19 2.678.4 4.737 1.29 6.18 2.669 1.444 1.378 2.164 3.198 2.164 5.458 0 1.443-.255 2.742-.768 3.896a7.883 7.883 0 01-2.238 2.934c-.978.801-2.18 1.414-3.606 1.84-1.427.424-3.047.636-4.858.636H96.105zm243.335-.194l.016.014c.145.12.33.18.554.18h1.9l-13.924-34.026h-2.453l-13.922 34.026h1.875a.922.922 0 00.464-.115l12.761-30.808 12.729 30.729zm-110.596-.224c.062.09.132.17.215.238.143.12.33.18.553.18h1.9l-13.923-34.026h-2.454l-13.922 34.026h1.875a.962.962 0 00.334-.056l12.787-30.867 8.447 20.391h.05l2.61 6.424 1.528 3.69z" fill="#00233b" fill-rule="nonzero"/><path d="M49.745 68.747H20.958v10.479H50.02c1.167 0 2.19 1.016 2.19 2.183v37.504c0 1.168-1.023 2.045-2.19 2.045H12.517c-1.168 0-2.038-.877-2.038-2.045V68.816c-5.883 0-10.48 4.692-10.48 10.479v39.342a12.561 12.561 0 0012.61 12.616h37.136c7.006 0 12.761-5.61 12.761-12.616V81.501c0-7.006-5.755-12.754-12.761-12.754" fill="#0080ff" fill-rule="nonzero"/><path d="M41.732 91.82a2.114 2.114 0 00-2.114-2.115H23.072a2.114 2.114 0 00-2.114 2.114v16.546c0 1.168.946 2.114 2.114 2.114h16.546a2.114 2.114 0 002.114-2.114V91.819z" fill="#0080ff" fill-rule="nonzero"/></svg>
