<svg width="500" height="200" xmlns="http://www.w3.org/2000/svg" stroke="null" vector-effect="non-scaling-stroke"><path fill="none" d="M-1-1h502v202H-1z"/><path d="M79.975 137.995V62.698h13.88c7.286 0 12.838 1.388 15.96 4.51 3.47 3.124 4.86 7.982 4.86 14.575 0 4.858-.695 9.022-2.43 11.798-1.735 2.777-4.164 4.512-7.634 5.9 3.818 1.04 6.94 2.775 8.676 5.55 1.735 2.777 2.776 6.594 2.776 11.8 0 7.286-1.735 12.838-5.205 16.308-3.47 3.47-8.675 5.204-15.962 5.204h-14.92v-.347zM90.037 94.97h3.817c3.817 0 6.593-1.042 8.328-2.777 1.735-1.735 2.776-4.858 2.776-9.022 0-4.163-.694-7.286-2.43-9.02-1.734-1.736-4.51-2.43-8.674-2.43h-3.817v23.25zm0 33.31h3.47c4.51 0 7.98-1.04 9.716-2.776 1.735-1.735 2.776-4.858 2.776-9.37 0-4.51-1.042-7.98-2.777-9.715-1.735-2.083-4.858-3.124-9.37-3.124h-3.47v24.984h-.346zm53.09-27.066v36.78h-10.063V62.7h12.145c7.98 0 13.878 1.388 17.348 4.51 3.47 3.124 5.205 7.982 5.205 15.27 0 5.55-1.04 10.062-3.47 13.185-2.43 3.123-5.9 4.857-10.756 5.55l18.043 36.782h-10.757l-17.696-36.78zm0-5.898h3.123c4.164 0 6.94-1.04 8.675-2.776 1.734-2.082 2.428-5.205 2.428-10.063 0-4.164-.694-6.94-2.428-8.328-1.735-1.736-4.858-2.43-9.022-2.43h-2.776v23.596zm39.903 4.858c0-13.88 1.736-23.596 4.86-29.842 3.47-5.9 8.673-9.02 16.307-9.02 7.634 0 12.84 3.12 16.31 9.02 3.47 5.9 4.857 15.962 4.857 29.842 0 13.88-1.735 23.595-4.858 29.494-3.47 5.9-8.675 9.02-16.31 9.02-7.633 0-13.184-3.12-16.307-9.02-3.47-5.552-4.86-15.615-4.86-29.494zm10.064 0c0 10.756.693 18.043 2.428 22.554 1.735 4.51 4.51 6.593 8.675 6.593 4.164 0 6.94-2.08 8.328-6.245 1.735-4.164 2.43-11.798 2.43-22.9 0-10.758-.695-18.392-2.43-22.556-1.735-4.165-4.51-6.247-8.675-6.247-4.164 0-6.94 2.082-8.675 6.593-1.04 3.817-2.08 11.45-2.08 22.208zm43.72 37.821l17.697-75.297h9.37l17.696 75.297h-10.41l-3.47-14.92h-17.35l-3.47 14.92h-10.062zm22.208-55.865l-6.94 32.617h13.533l-6.593-32.617zm37.475 55.865V62.698h13.532c10.41 0 17.35 2.776 21.513 8.328 4.164 5.552 6.246 15.268 6.246 29.148 0 13.88-2.083 23.595-6.247 29.147-4.164 5.553-11.45 8.328-21.514 8.328h-13.533v.347zm10.063-9.715h5.204c5.552 0 9.716-2.082 12.145-6.246 2.428-4.164 3.47-11.45 3.47-21.86s-1.042-17.697-3.47-21.86c-2.083-4.165-6.247-6.247-11.8-6.247h-5.204v56.213h-.346zm48.578 9.715V62.698H365.2v65.93h21.86v9.367h-31.92zm61.07-31.923v31.923h-10.41v-31.923l-14.226-43.374h10.41l6.246 21.167c.347 1.388.694 3.123 1.388 5.205.347 2.082 1.04 4.51 1.388 6.94l1.04-6.246c.348-2.082 1.042-3.817 1.39-5.9l6.244-21.166h10.41l-13.88 43.374zM24.803 132.79L.167 100.868l24.636-32.27zm450.394-64.193l24.636 32.27-24.636 31.924z" fill="#0093CF"/></svg>