<svg version="1.1" id="Layer_1" xmlns="http://www.w3.org/2000/svg" x="0" y="0" viewBox="0 0 874.3 393.7" xml:space="preserve"><style>.st0{fill:#404041}</style><path class="st0" d="M790.6 271.9c-3.4 0-6.1-2.7-6.1-6.1 0-3.3 2.7-6.1 6.1-6.1 3.3 0 6.1 2.7 6.1 6.1 0 3.3-2.8 6.1-6.1 6.1m0-11c-2.7 0-4.9 2.2-4.9 4.9s2.2 4.9 4.9 4.9 4.9-2.2 4.9-4.9-2.2-4.9-4.9-4.9m3.1 8.1h-1.4l-1.2-2.3h-1.6v2.3h-1.3v-6.7h3.2c1.4 0 2.3.9 2.3 2.2 0 1-.6 1.7-1.4 2l1.4 2.5zm-2.4-3.5c.5 0 1-.3 1-1 0-.8-.4-1-1-1h-2v2h2zM155.1 259.1h15.6v42.5h27.1v13.6h-42.7zM213.9 287.3v-.2c0-16.1 13-29.2 30.3-29.2s30.1 12.9 30.1 29v.2c0 16.1-13 29.2-30.3 29.2s-30.1-12.9-30.1-29m44.6 0v-.2c0-8.1-5.8-15.1-14.4-15.1-8.5 0-14.2 6.9-14.2 15v.2c0 8.1 5.8 15.1 14.3 15.1 8.6 0 14.3-6.9 14.3-15M293.4 290.6v-31.5h15.8v31.2c0 8.1 4.1 11.9 10.3 11.9s10.3-3.7 10.3-11.5v-31.6h15.8v31.1c0 18.1-10.3 26-26.3 26-15.9 0-25.9-8-25.9-25.6M369.4 259.1H391c20 0 31.7 11.5 31.7 27.7v.2c0 16.2-11.8 28.2-32 28.2h-21.3v-56.1zm21.9 42.3c9.3 0 15.5-5.1 15.5-14.2v-.2c0-9-6.2-14.2-15.5-14.2H385v28.5h6.3zM445.3 259.1h44.9v13.6h-29.4v9.6h26.6v12.9h-26.6v20h-15.5zM511.8 259.1h15.5v42.5h27.2v13.6h-42.7zM595.1 258.7h15l23.9 56.5h-16.7l-4.1-10h-21.6l-4 10h-16.3l23.8-56.5zm13.7 34.4l-6.2-15.9-6.3 15.9h12.5zM654 259.1h26.5c8.6 0 14.5 2.2 18.3 6.1 3.3 3.2 5 7.5 5 13.1v.2c0 8.6-4.6 14.3-11.5 17.2l13.4 19.6h-18l-11.3-17h-6.8v17H654v-56.2zm25.8 26.9c5.3 0 8.3-2.6 8.3-6.6v-.2c0-4.4-3.2-6.6-8.4-6.6h-10.2V286h10.3zM726.2 259.1h45.1v13.2h-29.7v8.5h26.9v12.3h-26.9v8.9h30.1v13.2h-45.5zM121.1 293.9c-2.2 4.9-6.8 8.4-12.8 8.4-8.5 0-14.3-7.1-14.3-15.1v-.2c0-8.1 5.7-15 14.2-15 6.4 0 11.3 3.9 13.3 9.3h16.4c-2.6-13.4-14.4-23.3-29.6-23.3C91 258 78 271.1 78 287.2v.2c0 16.1 12.8 29 30.1 29 14.8 0 26.4-9.6 29.4-22.4l-16.4-.1z"/><path fill="#fff" d="M752.9 169.6L710 145l-7.4-3.2-175.5 1.2v89.1h225.8z"/><path d="M674.8 223.9c2.1-7.2 1.3-13.8-2.2-18.7-3.2-4.5-8.6-7.1-15.1-7.4l-123.1-1.6c-.8 0-1.5-.4-1.9-1-.4-.6-.5-1.4-.3-2.2.4-1.2 1.6-2.1 2.9-2.2l124.2-1.6c14.7-.7 30.7-12.6 36.3-27.2l7.1-18.5c.3-.8.4-1.6.2-2.4-8-36.2-40.3-63.2-78.9-63.2-35.6 0-65.8 23-76.6 54.9-7-5.2-15.9-8-25.5-7.1-17.1 1.7-30.8 15.4-32.5 32.5-.4 4.4-.1 8.7.9 12.7-27.9.8-50.2 23.6-50.2 51.7 0 2.5.2 5 .5 7.5.2 1.2 1.2 2.1 2.4 2.1h227.2c1.3 0 2.5-.9 2.9-2.2l1.7-6.1z" fill="#f38020"/><path d="M714 144.8c-1.1 0-2.3 0-3.4.1-.8 0-1.5.6-1.8 1.4L704 163c-2.1 7.2-1.3 13.8 2.2 18.7 3.2 4.5 8.6 7.1 15.1 7.4l26.2 1.6c.8 0 1.5.4 1.9 1 .4.6.5 1.5.3 2.2-.4 1.2-1.6 2.1-2.9 2.2l-27.3 1.6c-14.8.7-30.7 12.6-36.3 27.2l-2 5.1c-.4 1 .3 2 1.4 2h93.8c1.1 0 2.1-.7 2.4-1.8 1.6-5.8 2.5-11.9 2.5-18.2 0-37-30.2-67.2-67.3-67.2" fill="#faae40"/></svg>