<svg width="500" height="200" xmlns="http://www.w3.org/2000/svg"><path fill="none" d="M-1-1h502v202H-1z"/><g stroke="null" fill="#204056"><path d="M20.82 119.846c-.898-2.724-1.343-6.165-1.343-10.79 0-4.626.445-8.072 1.344-10.79 2.51-7.8 9.16-12.06 17.865-12.06 6.466 0 11.586 2.63 15 6.8.263.36.353.904-.09 1.266l-5.657 4.988c-.45.365-.898.274-1.26-.18-2.157-2.446-4.4-3.81-7.993-3.81-3.86 0-6.82 1.907-8.08 5.715-.713 2.18-.895 4.717-.895 8.072 0 3.355.182 5.983.895 8.16 1.26 3.715 4.22 5.62 8.08 5.62 3.593 0 5.836-1.36 7.994-3.804.36-.46.807-.46 1.258-.095l5.656 4.988c.444.36.354.814.09 1.27-3.413 4.08-8.533 6.71-15 6.71-8.704-.003-15.353-4.265-17.863-12.06m196.179 0c-.898-2.724-1.343-6.165-1.343-10.79 0-4.626.445-8.072 1.344-10.79 2.516-7.8 9.16-12.06 17.864-12.06 6.467 0 11.59 2.63 15 6.8.266.36.36.904-.094 1.266l-5.656 4.988c-.45.365-.896.274-1.255-.18-2.155-2.446-4.4-3.81-7.996-3.81-3.856 0-6.82 1.907-8.076 5.715-.72 2.18-.895 4.717-.895 8.072 0 3.355.175 5.983.895 8.16 1.255 3.715 4.22 5.62 8.076 5.62 3.596 0 5.84-1.36 7.995-3.804.36-.46.805-.46 1.254-.095l5.656 4.988c.453.36.36.814.093 1.27-3.41 4.08-8.532 6.71-15 6.71-8.704-.003-15.346-4.265-17.862-12.06m226.744 11.062c-.538 0-.896-.36-.896-.908v-25.205c0-5.624-2.787-9.524-8.176-9.524-5.205 0-8.258 3.9-8.258 9.525V130c0 .548-.36.908-.896.908h-8.263c-.537 0-.9-.36-.9-.908v-25.205c0-5.624-2.78-9.524-8.162-9.524-5.21 0-8.266 3.9-8.266 9.525V130c0 .548-.36.908-.898.908h-8.26c-.542 0-.896-.36-.896-.908V88.108c0-.545.354-.908.895-.908h8.26c.538 0 .897.363.897.908v3.174h.092c1.885-2.722 5.655-5.077 11.4-5.077 5.118 0 9.25 2.082 11.85 5.802h.09c3.322-3.623 7.634-5.802 13.83-5.802 10.052 0 15.714 6.89 15.714 16.23V130c0 .547-.36.908-.902.908h-8.258zm21.631 16.322c-.537 0-.895-.363-.895-.91v-7.253c0-.542.358-.91.895-.91h1.617c3.412 0 5.122-1.534 6.466-5.164l1.258-3.718-15.805-41.168c-.18-.544.182-.908.725-.908h8.885c.537 0 .898.363 1.075.907l9.79 28.564h.176l9.34-28.563c.18-.544.54-.908 1.074-.908h8.527c.544 0 .905.363.723.907l-16.518 45.52c-3.77 10.34-7.365 13.602-14.547 13.602h-2.783zM61.947 119.848c-.987-3.086-1.436-5.987-1.436-10.792 0-4.797.45-7.7 1.437-10.777 2.424-7.618 9.062-12.062 17.86-12.062 8.704 0 15.345 4.444 17.77 12.06.984 3.078 1.436 5.98 1.436 10.778 0 4.805-.452 7.706-1.435 10.792-2.426 7.613-9.067 12.055-17.772 12.055-8.797 0-15.435-4.442-17.86-12.055m25.937-2.718c.72-2.265.898-4.353.898-8.073 0-3.71-.177-5.706-.897-8.062-1.256-3.623-4.038-5.713-8.077-5.713-4.035 0-6.913 2.09-8.166 5.713-.715 2.356-.897 4.352-.897 8.062 0 3.72.182 5.808.897 8.073 1.253 3.63 4.13 5.706 8.166 5.706 4.04 0 6.82-2.078 8.077-5.706m186.038-30.924c-7.096 0-11.85 1.722-15.355 4.26-.357.277-.447.725-.176 1.177l3.316 5.988c.277.456.808.547 1.26.182 2.067-1.63 5.026-2.995 9.878-2.995 7.073 0 9.476 2.146 9.598 6.863h.002v.056c.002.112.004.224.004.34v14.146c0 4.985-3.41 7.43-9.604 7.43-4.852 0-7.452-1.81-7.452-5.435 0-4.083 2.874-5.9 9.336-5.9l1.966.003c.537 0 .9-.362.9-.902v-5.813c0-.543-.363-.904-.9-.904h-3.58c-10.683 0-17.333 4.358-17.333 13.874 0 9.16 6.65 13.33 14.548 13.33 6.1 0 10.144-2.085 12.21-5.077h.088V130c0 .55.363.91.9.91h7.54c.54 0 .9-.362.9-.91v-28.56c0-10.698-4.85-15.235-18.045-15.235m-107.269 18.493c-.234 0-.388.156-.388.39v6.838c0 .234.154.39.388.39h22.235c.628 0 .99-.36.99-.9 0-7.077-.453-10.07-1.438-13.152-2.427-7.435-8.89-12.06-17.778-12.06-8.62 0-15.262 4.442-17.688 12.06-.893 2.81-1.437 6.258-1.437 10.792 0 4.532.628 7.886 1.53 10.7 2.423 7.614 8.884 12.147 18.043 12.147 7.988 0 14.1-3.083 17.776-7.436.355-.45.355-.902-.093-1.268l-5.292-4.716c-.452-.363-.9-.268-1.35.18-2.153 2.36-5.295 4.17-10.143 4.17-4.845 0-8.26-2.353-9.696-6.612a10.846 10.846 0 0 1-.51-1.903c-.328-1.846-.52-3.645-.52-6.283.068-2.487.212-4.076.565-6.094l.015-.08c.003-.02.008-.037.01-.057v.002c.088-.477.204-.923.35-1.37 1.167-3.536 4.398-5.62 8.532-5.62 4.043 0 7.268 2.085 8.435 5.62.36 1.094.54 2.177.54 3.72 0 .363-.18.54-.54.54h-11.796.002-.743zM143.194 69.25h-8.247c-.543 0-.902.362-.902.9v41.314H134c-.095 2.5-.367 4.144-.847 5.683-1.167 3.618-3.95 5.61-8.07 5.61-4.034 0-6.81-1.992-7.982-5.61-.624-1.995-.89-4.165-.89-8.148 0-3.984.266-6.16.89-8.146 1.15-3.55 3.838-5.554 7.74-5.634h3.52a.359.359 0 0 0 .282-.37l.045-8.28a.36.36 0 0 0-.327-.378l-2.81-.01h-3.305c-7.23.078-12.518 3.603-14.734 10.5-1.076 3.353-1.523 6.434-1.523 12.318 0 5.883.447 8.962 1.524 12.31 2.24 6.974 7.62 10.503 14.97 10.503 5.833 0 9.42-2.168 11.476-5.16h.09v3.26c0 .547.358.907.9.907h8.248c.537 0 .898-.36.898-.907V70.15c0-.54-.36-.9-.898-.9m216.181 35.448c-.23 0-.386.156-.386.39v6.838c0 .234.155.39.386.39h22.237c.628 0 .99-.36.99-.9 0-7.077-.452-10.07-1.437-13.152-2.428-7.435-8.89-12.06-17.778-12.06-8.62 0-15.263 4.442-17.69 12.06-.893 2.81-1.436 6.258-1.436 10.792 0 4.532.63 7.886 1.533 10.7 2.42 7.614 8.884 12.147 18.04 12.147 7.99 0 14.1-3.083 17.778-7.436.357-.45.357-.902-.092-1.268l-5.293-4.716c-.45-.363-.9-.268-1.35.18-2.152 2.36-5.294 4.17-10.143 4.17-4.846 0-8.258-2.353-9.696-6.612a10.933 10.933 0 0 1-.507-1.903h-.002c-.325-1.846-.52-3.645-.52-6.283.07-2.487.212-4.076.566-6.094l.015-.08.01-.057v.002c.09-.477.204-.923.35-1.37 1.167-3.536 4.4-5.62 8.532-5.62 4.044 0 7.27 2.085 8.437 5.62.36 1.094.538 2.177.538 3.72 0 .363-.18.54-.54.54h-12.54zM336.347 69.25h-8.26c-.542 0-.9.364-.9.903v41.373h-.046c-.097 2.503-.37 4.15-.85 5.69-1.167 3.625-3.956 5.62-8.08 5.62-4.037 0-6.82-1.995-7.994-5.62-.625-1.998-.896-4.17-.896-8.16s.27-6.17.896-8.158c1.15-3.555 3.843-5.544 7.75-5.622l3.524.002c.54 0 .9-.362.9-.902V87.11c0-.542-.36-.903-.9-.903h-5.763c-.042 0-.08-.003-.124-.003l-.116.002h-.122v.002c-7.236.076-12.535 3.607-14.755 10.512-1.078 3.36-1.525 6.444-1.525 12.336s.447 8.976 1.526 12.33c2.244 6.982 7.634 10.517 14.994 10.517 5.838 0 9.43-2.172 11.493-5.168h.087V130c0 .548.36.907.9.907h8.26c.54 0 .9-.36.9-.908V70.152c0-.54-.36-.902-.897-.902m-120.022 74.023v8.26c0 .542.36.903.9.903h30.615c.548 0 .908-.362.908-.904v-8.26c0-.537-.36-.898-.908-.898h-30.614c-.54 0-.9.36-.9.9"/><path d="M208.554 47.856c-.014-.014-.022-.03-.035-.044l-.006-.002a.894.894 0 0 0-.646-.246H1.498c-.07 0-.134.007-.196.018-.02.003-.034.01-.053.013-.042.01-.085.02-.122.035a.052.052 0 0 0-.018.01c-.32.13-.515.428-.515.824V151.53c0 .314.122.56.33.72.015.013.03.027.05.04.142.09.318.14.522.14h206.37c.304 0 .55-.117.706-.316a.907.907 0 0 0 .194-.585V48.463a.912.912 0 0 0-.213-.608M11.548 142.37c-.065 0-.128-.005-.185-.014-.018-.004-.036-.01-.054-.016-.043-.01-.085-.018-.123-.033l-.017-.01c-.318-.13-.512-.425-.514-.817V58.523c0-.397.196-.693.514-.824.008-.004.013-.008.02-.01.036-.015.155-.045.174-.05.06-.01.123-.015.187-.015h186.26c.066 0 .127.006.187.015.02.005.036.01.053.017.042.01.084.017.122.033.008.002.012.006.02.01.318.13.513.426.513.823v82.957c-.002.392-.198.688-.513.817l-.02.01c-.035.014-.08.024-.12.033-.02.005-.035.012-.055.016a1.2 1.2 0 0 1-.183.015H11.548z"/></g></svg>