<svg xmlns="http://www.w3.org/2000/svg" width="500" height="200" viewBox="0 0 132.292 52.917"><path d="M30.186 29.789c.544 0 1.014-.177 1.463-.397.272-.147.522-.25.816-.25.89 0 1.411.845 1.411 1.536 0 .47-.272.794-.647 1.044-.867.647-2.154.89-3.198.89-3.146 0-5.499-2.28-5.499-5.771 0-3.448 2.28-5.8 5.55-5.8 1.045 0 2.206.22 3.096.815.448.294.69.618.69 1.088 0 .67-.492 1.588-1.389 1.588-.272 0-.522-.095-.816-.272-.448-.22-.919-.375-1.485-.375-1.463 0-2.257 1.088-2.257 2.897.008 1.772.802 3.007 2.265 3.007zM39.184 31.23c0 .889-.544 1.337-1.662 1.337-1.117 0-1.661-.448-1.661-1.337v-8.8c0-.89.522-1.338 1.61-1.338 1.14 0 1.559.573 1.536 1.338v.492c.522-1.088 1.537-1.86 2.853-1.86.94 0 1.36.449 1.36 1.485 0 1.162-.522 1.485-1.514 1.537-1.36.051-2.03.323-2.53 1.088v6.058zM49.954 20.967c3.521 0 5.727 2.33 5.727 5.822 0 3.595-2.28 5.896-5.823 5.896-3.521 0-5.697-2.308-5.697-5.822-.007-3.566 2.279-5.896 5.793-5.896zm-.022 9.05c1.44 0 2.33-1.214 2.33-3.147 0-2.007-.94-3.198-2.382-3.198-1.44 0-2.33 1.191-2.33 3.125 0 2 .941 3.22 2.382 3.22zM63.253 30.928c-.375 1.118-.89 1.64-2.183 1.64-1.316 0-1.809-.545-2.132-1.684l-2.11-7.704c-.074-.324-.177-.765-.177-1.044 0-.522.324-1.044 1.61-1.044 1.191 0 1.559.419 1.787 1.411l1.39 6.198 1.734-5.676c.294-.992.772-1.588 2.03-1.588 1.286 0 1.756.647 2.028 1.559l1.632 5.697 1.485-6.197c.25-1.015.596-1.412 1.713-1.412 1.235 0 1.588.522 1.588 1.044 0 .294-.095.72-.176 1.044l-2.294 7.734c-.346 1.14-.845 1.661-2.132 1.661-1.286 0-1.808-.521-2.154-1.639l-1.786-5.58zM80.309 21.092c.794 0 1.485.125 1.955.419v-4.558c0-.89.544-1.338 1.662-1.338 1.117 0 1.661.448 1.661 1.338V31.23c0 .918-.573 1.337-1.632 1.337-1.044 0-1.463-.374-1.463-1.043v-.147c-.647.794-1.61 1.213-2.852 1.213-2.728 0-4.882-2.059-4.882-5.624 0-3.617 2.206-5.874 5.55-5.874zm.448 2.676c-1.61 0-2.602 1.088-2.602 3.021 0 2.007 1.014 3.125 2.55 3.125a2.46 2.46 0 0 0 1.56-.522v-5.205c-.42-.272-.942-.42-1.508-.42zM87.609 24.466c0-1.985 1.558-3.418 4.433-3.418 1.463 0 2.529.323 3.396.816.574.323.89.69.89 1.19 0 .618-.493 1.537-1.316 1.537-.25 0-.47-.096-1.044-.345-.816-.346-1.485-.545-2.11-.545-.669 0-1.088.25-1.088.692 0 1.536 5.749.89 5.749 4.785 0 2.11-1.64 3.448-4.536 3.448-1.485 0-2.529-.294-3.566-.919-.595-.345-.919-.742-.919-1.264 0-.574.449-1.537 1.338-1.537.324 0 .618.147.993.346.765.397 1.411.72 2.279.72.742 0 1.242-.25 1.242-.742.015-1.617-5.741-.948-5.741-4.764zM108.686 22.158c0 .419-.147 1.14-.397 2.007-.89 3.293-3.125 8.498-5.823 11.799-.772.94-1.264 1.338-1.882 1.338-.867 0-1.786-.67-1.786-1.537 0-.544.375-.963.816-1.411 1.14-1.162 1.683-1.956 1.911-2.33l-3.742-8.874c-.147-.345-.294-.69-.294-1.044 0-.544.375-1.014 1.588-1.014s1.61.419 1.956 1.338l2.382 6.44c.595-1.316 1.316-3.22 2.058-6.396.177-.743.324-1.39 1.713-1.39 1.228.008 1.5.5 1.5 1.074zM113.847 22.43v.272c.669-1.044 1.786-1.61 3.345-1.61 1.411 0 2.528.47 3.197 1.536.471.691.692 1.662.692 2.853v5.749c0 .889-.545 1.337-1.662 1.337s-1.661-.448-1.661-1.337v-5.205c0-.574-.096-1.015-.324-1.338-.323-.47-.816-.691-1.514-.691-.816 0-1.441.323-1.912.845v6.396c0 .89-.544 1.338-1.661 1.338-1.118 0-1.662-.449-1.662-1.338V22.43c0-.89.522-1.338 1.61-1.338 1.155 0 1.574.573 1.552 1.338zM128.601 29.789c.544 0 1.015-.177 1.463-.397.272-.147.522-.25.816-.25.89 0 1.412.845 1.412 1.536 0 .47-.272.794-.647 1.044-.868.647-2.154.89-3.198.89-3.147 0-5.5-2.28-5.5-5.771 0-3.448 2.28-5.8 5.551-5.8 1.044 0 2.206.22 3.095.815.449.294.691.618.691 1.088 0 .67-.492 1.588-1.39 1.588-.271 0-.521-.095-.815-.272-.449-.22-.92-.375-1.485-.375-1.463 0-2.257 1.088-2.257 2.897.007 1.772.801 3.007 2.264 3.007z" fill="#467db0"/><g transform="matrix(.08675 0 0 .08675 0 28.627)"><path d="M125-150C55.964-150 0-94.036 0-25s55.964 125 125 125a125 125 0 0 0 83.39-32.063l-.01-.01a125 125 0 0 0 9.557-9.536L160.84 1.293a44.5 44.5 0 0 1-9.55 9.545A44.5 44.5 0 0 1 125 19.5C100.423 19.5 80.5-.423 80.5-25s19.923-44.5 44.5-44.5a44.51 44.51 0 0 1 26.295 8.66 44.5 44.5 0 0 1 9.543 9.549l57.09-57.09a125.006 125.006 0 0 0-9.536-9.556l-.011.01A125 125 0 0 0 125-150zm0 13.5a111.501 111.501 0 0 1 73.852 28.104l-37.895 37.894A58 58 0 0 0 125-83c-32.033 0-58 25.967-58 58 0 32.032 25.967 58 58 58a58.002 58.002 0 0 0 35.916-12.537l37.91 37.91A111.5 111.5 0 0 1 125 86.5C63.42 86.5 13.5 36.58 13.5-25S63.42-136.5 125-136.5z" fill="#1e4262"/><path d="M194.264-84.717l-9.598 9.598A78 78 0 0 1 203-25a78 78 0 0 1-18.283 50.17l9.502 9.502A91.5 91.5 0 0 0 216.5-25a91.5 91.5 0 0 0-22.236-59.717z" fill="#47bf7f"/><path d="M125-116.5c-50.534 0-91.5 40.966-91.5 91.5S74.466 66.5 125 66.5a91.508 91.508 0 0 0 59.717-22.236l-9.598-9.598A78 78 0 0 1 125 53c-43.078 0-78-34.922-78-78s34.922-78 78-78a78.002 78.002 0 0 1 50.172 18.283l9.502-9.502A91.5 91.5 0 0 0 125-116.5z" fill="#467db0"/><circle cx="40.25" cy="-25" r="18.5" fill="#467db0"/><circle cx="-109.75" cy="-125" r="18.5" transform="rotate(90)" fill="#467db0"/><circle cx="-59.75" cy="-125" r="18.5" transform="matrix(0 -1 -1 0 0 0)" fill="#467db0"/></g><path d="M108.686 22.158c0 .419-.147 1.14-.397 2.007-.89 3.293-3.125 8.498-5.823 11.799-.772.94-1.264 1.338-1.882 1.338-.867 0-1.786-.67-1.786-1.537 0-.544.375-.963.816-1.411 1.14-1.162 1.683-1.956 1.911-2.33l-3.742-8.874c-.147-.345-.294-.69-.294-1.044 0-.544.375-1.014 1.588-1.014s1.61.419 1.956 1.338l2.382 6.44c.595-1.316 1.316-3.22 2.058-6.396.177-.743.324-1.39 1.713-1.39 1.228.008 1.5.5 1.5 1.074z" fill="#467db0"/></svg>