<svg xmlns="http://www.w3.org/2000/svg" viewBox="0 0 500 200"><path d="M260.61 0h-21.09C142.5 3.42 62.91 66.76 28.37 162.75c-5.65 15.7-1.71 24.24 3.51 18.09C46.44 163.76 66.41 153 88.64 153c26.46 0 49.93 15.15 64.41 38.46 7.54 11 10 11.72 16.89.28 17.52-29.08 42.21-48.56 81.82-48.56s60.12 18.38 78.28 48.56c6.9 11.45 9.33 10.73 16.89-.28 14.5-23.32 37.95-38.46 64.43-38.46 22.19 0 42.18 10.78 56.75 27.86 5.24 6.15 9.16-2.41 3.51-18.09C437.1 66.84 357.55 3.51 260.61 0" fill="#707bf0" stroke="#979797"/></svg>