<svg xmlns="http://www.w3.org/2000/svg" width="500" height="200" viewBox="0 0 300 66.6"><path fill="#ed1c24" d="M0 66.6h19.8v-6H0v6zm0-7.8h19.8v-6H0v6zM0 51h19.8v-6H0v6z"/><path fill="#f6836c" d="M0 43.2h19.8v-6H0v6zm0-7.8h19.8v-6H0v6z"/><path fill="#fff200" d="M22.2 66.6H42v-6H22.2v6zm0-7.8H42v-6H22.2v6zm0-7.8H42v-6H22.2v6z"/><path fill="#ec008c" d="M44.4 66.6h19.8v-6H44.4v6zm0-7.8h19.8v-6H44.4v6zm0-7.8h19.8v-6H44.4v6z"/><path fill="#f680c5" d="M44.4 43.2h19.8v-6H44.4v6zm0-7.8h19.8v-6H44.4v6zm0-7.8h19.8v-6H44.4v6zm0-7.8h19.8v-6H44.4v6z"/><path fill="#b2db18" d="M66.6 66.6h19.8v-6H66.6v6zm0-7.8h19.8v-6H66.6v6zm0-7.8h19.8v-6H66.6v6z"/><path fill="#d9ed84" d="M66.6 43.2h19.8v-6H66.6v6zm0-7.8h19.8v-6H66.6v6z"/><path fill="#59caf5" d="M88.8 66.6h19.8v-6H88.8v6zm0-7.8h19.8v-6H88.8v6zm0-7.8h19.8v-6H88.8v6z"/><path fill="#b2e6fa" d="M88.8 43.2h19.8v-6H88.8v6zm0-7.8h19.8v-6H88.8v6zm0-7.8h19.8v-6H88.8v6zm0-7.8h19.8v-6H88.8v6zm0-7.8h19.8V6H88.8v6z"/><path fill="#231f20" d="M125.4 59h4.7c7 0 8-3.7 8-15.2V21c0-10-1-13.2-8.6-13.2h-4v51zm-9-59h14.8c15 0 16.4 5.2 16.4 24.6v19.8c0 17-3.4 22.2-18 22.2h-13.2V0m34.8 0h25.2v8h-16.2v20.8h15v7.8h-15v22h16.2v8h-25.2V0M180 0h25.2v8H189v20.8h15v7.8h-15v22h16.2v8H180V0m61.8 0H267v8h-16.2v20.8h15v7.8h-15v22H267v8h-25.2V0m-33 58.8l20.7-51h-20.7V0h29.4v7.8l-20.4 51h20.4v7.8h-29.4v-7.8m70.8-29.4h2.8c7.3 0 8.4-1 8.4-11 0-9.7-1-10.6-6.6-10.6h-4.6v21.6zm-9-29.4H285c13.5 0 14.4 3.4 14.4 18 0 9-.8 13.3-8.4 15.6 6.3.7 8.4 4 8.4 10.2v14.5c0 2.4 0 5.5.6 8.3h-9c-1-1.7-.6-3.3-.6-6v-15c0-6.3-1.2-7.8-7.3-7.8h-3.3v28.8h-9V0"/></svg>