<svg width="500" height="200" xmlns="http://www.w3.org/2000/svg"><g fill="none" fill-rule="evenodd"><path fill="#FE7D6C" d="M92.874 120.46L56.789 99.625V57.958l36.085-20.833 36.085 20.833v41.668z"/><path fill="#FCCDB2" d="M141.126 120.46l-36.085-20.834V57.958l36.085-20.833 36.085 20.833v41.668z"/><path fill="#FD9E8A" d="M117 162.613l-36.085-20.834v-41.667L117 79.278l36.085 20.834v41.667z"/><path fill="#90D999" d="M117 46.244l-7.518-4.34v-8.681l7.518-4.34 7.518 4.34v8.68zM126.596 29.63l-7.518-4.341v-8.68l26.364-15.222 7.518 4.34v8.681zM89.884 19.523v-8.68L97.4 6.501l17.505 10.106v8.68l-7.518 4.341z"/><path fill="#FF5A4E" d="M80.915 113.555l11.959 6.904L117 106.59l-11.826-6.827-.133-13.58-24.126 13.93z"/><path fill="#FE7969" d="M153.085 113.555l-11.959 6.904L117 106.59l11.826-6.827V86.106l24.259 14.006z"/><path fill="#FF5E52" d="M117 51.054l-11.959 6.904v28.225L117 79.278l11.826 6.828.133-28.148z"/><path fill="#FF433B" d="M117 106.59l-11.826-6.828-.133-13.58L117 79.279l11.826 6.828v13.656z"/><g fill="#333"><path d="M219.287 59.053c-.9 2.117-2.647 5.135-3.97 7.04l2.54 1.218c1.483-1.747 3.177-4.394 4.712-6.776l-3.282-1.482zM206.9 66.199c-.53-1.959-1.959-4.764-3.44-6.829l-2.86 1.165c1.43 2.17 2.806 5.082 3.283 6.935l3.017-1.27zm6.246 14.822v-7.252c2.541 1.8 5.823 4.394 7.094 5.611l2.17-2.858c-1.217-.9-5.77-3.864-8.417-5.4h9.952V67.84h-10.799v-9.793h-3.652v9.793h-10.905v3.282h9.687c-2.593 3.441-6.51 6.67-10.216 8.258.741.742 1.694 2.065 2.117 2.965 3.23-1.694 6.67-4.606 9.317-7.729v6.405h3.652zm4.394 7.57a20.13 20.13 0 0 1-4.923 6.987 122.989 122.989 0 0 0-5.982-2.805c.742-1.218 1.536-2.7 2.33-4.182h8.575zm2.594 11.381c-1.165-.847-2.753-1.8-4.447-2.753 2.806-2.964 4.976-6.67 6.353-11.222l-2.224-.9-.582.159h-8.628c.423-.953.74-1.853 1.111-2.753l-3.494-.635a35.047 35.047 0 0 1-1.376 3.388h-7.146v3.335h5.505a58.076 58.076 0 0 1-3.388 5.611c2.594.953 5.453 2.276 8.1 3.653-3.441 2.435-7.464 4.129-11.752 5.082.688.74 1.482 2.17 1.853 3.017 4.817-1.27 9.316-3.335 13.075-6.352a44.011 44.011 0 0 1 4.605 2.964l2.435-2.594zm18.37-28.056c-.794 6.088-2.065 11.381-3.97 15.828-2.013-4.711-3.495-10.11-4.501-15.828h8.47zm7.252-3.652h-14.93a84.898 84.898 0 0 0 1.8-9.158l-3.599-.53c-1.323 9.158-3.705 17.998-7.728 23.557a22.437 22.437 0 0 1 2.964 2.382 40.476 40.476 0 0 0 3.6-6.935c1.164 5.24 2.646 10.005 4.658 14.134-2.965 5.029-7.094 8.893-12.81 11.699.688.741 1.8 2.33 2.17 3.176 5.4-2.911 9.422-6.617 12.547-11.222 2.594 4.5 5.929 8.099 10.005 10.587a13.102 13.102 0 0 1 2.593-3.07c-4.393-2.33-7.834-6.247-10.534-11.064 2.806-5.453 4.553-12.017 5.77-19.904h3.494v-3.652zm25.408 27.95V80.598h6.193v15.616h-6.193zm-6.882-31.709h6.458c-1.43 8.047-3.864 15.51-7.57 20.487.636 1.005 1.535 3.229 1.8 4.182a30.696 30.696 0 0 0 2.753-4.235v19.11h3.44V99.76h9.688V77.104h-9.687a82.756 82.756 0 0 0 3.282-12.599h7.887v-3.652h-18.051v3.652zm39.015 26.945H283.18v3.547h20.117V91.45zm3.282-30.12l-2.753-.318-.582.212h-18.317v3.6h17.629a652.486 652.486 0 0 1-1.747 16.304h-11.012c.476-3.918 1.006-8.788 1.27-12.81l-3.652-.213c-.37 5.135-1.059 12.123-1.747 16.41h21.334c-1.006 11.593-2.117 16.252-3.494 17.575-.529.53-1.111.635-2.011.635a48.313 48.313 0 0 1-5.877-.317c.635 1.058 1.005 2.54 1.111 3.652 2.543.106 4.925.16 6.301 0 1.588-.053 2.54-.476 3.6-1.588 1.852-1.905 3.07-7.41 4.234-21.598.053-.529.106-1.747.106-1.747h-6.51c.9-6.51 1.693-14.345 2.117-19.798zm35.73 22.338h-3.653a95.823 95.823 0 0 1-.265 4.341h-7.887v3.335h7.464c-.953 5.664-3.23 9.687-8.734 12.281.74.583 1.852 1.959 2.223 2.859 6.458-3.176 8.999-8.152 10.163-15.14h6.141c-.423 7.517-.953 10.534-1.694 11.275-.37.477-.794.583-1.482.583-.741 0-2.594-.053-4.605-.212.476.847.794 2.117.9 3.07 2.064.106 4.181.16 5.293 0 1.27-.053 2.223-.423 3.017-1.323 1.165-1.324 1.747-5.082 2.33-15.14.052-.53.052-1.588.052-1.588h-9.581c.159-1.376.265-2.858.318-4.34zm23.504-4.181c-.37.37-.847.423-1.748.423-.847 0-3.335-.053-5.823-.264.538.922.864 1.953.953 3.017 2.149.171 4.305.224 6.46.159 1.376-.106 2.382-.37 3.229-1.112 1.217-1.112 1.852-3.653 2.54-9.476.08-.508.134-1.02.16-1.535h-17.259c.37-1.217.582-2.646.794-4.076h-3.864a27.591 27.591 0 0 1-.847 4.076h-15.563v3.282h14.028c-2.435 3.6-7.094 5.717-16.516 6.935.688.635 1.535 2.117 1.8 3.017 11.169-1.694 16.41-4.711 18.95-9.952h14.347c-.476 3.388-1.005 4.923-1.64 5.506zm-.847 8.522c.106-1.323.212-2.753.265-4.182h-3.707a93.066 93.066 0 0 1-.264 4.182h-7.676v3.335h7.252c-.9 5.823-3.123 9.793-8.999 12.281.794.635 1.853 2.012 2.276 2.912 6.776-3.07 9.37-7.994 10.43-15.193h6.987c-.423 7.57-.847 10.587-1.535 11.328-.37.477-.847.583-1.64.583-.742 0-2.912-.053-5.137-.265.582.9.954 2.276 1.06 3.23 1.921.12 3.847.137 5.77.052 1.376-.159 2.33-.476 3.07-1.43 1.27-1.323 1.694-5.134 2.224-15.192.053-.53.053-1.64.053-1.64h-10.429zm-.794-29.909h-3.865v3.335h-13.764V58.1h-3.864v3.335h-12.334v3.388h12.334V68.9h3.864v-4.076h13.764v4.076h3.865v-4.076h12.493v-3.388h-12.493V58.1zm49.652 26.097c-.953-1.694-5.717-8.681-7.199-10.587v-1.694h6.405v-3.705h-6.405V58.047h-3.864v10.164h-7.305v3.705h7.04c-1.588 7.2-4.923 15.564-8.364 19.957a16.725 16.725 0 0 1 2.118 3.812c2.435-3.441 4.764-8.894 6.51-14.61v25.25h3.865V78.426c1.747 3.018 3.917 6.776 4.764 8.682l2.435-2.912zm13.87 9.37c-3.283-3.388-5.824-7.464-7.57-12.016h15.723a34.993 34.993 0 0 1-8.154 12.016zm10.535-15.828l-.688.16h-7.994V70.01h12.334v-3.653h-12.334v-8.31h-3.865v8.31h-11.275v3.653h11.275v7.887h-10.587v3.653h1.958l-.688.211c2.065 5.506 4.87 10.323 8.47 14.24-4.235 3.23-9.158 5.558-14.24 6.988.688.794 1.694 2.435 2.065 3.44 5.346-1.693 10.48-4.234 14.875-7.781 3.865 3.44 8.524 5.982 13.923 7.623.582-1.006 1.694-2.541 2.54-3.282-5.24-1.43-9.792-3.759-13.55-6.882 4.552-4.446 8.151-10.164 10.216-17.31l-2.435-1.059zm-221.564 52.432c0 3.653-.992 6.446-2.975 8.378-1.983 1.933-4.836 2.899-8.56 2.899H199v-22.13h6.781c3.441 0 6.115.953 8.023 2.86 1.907 1.908 2.86 4.572 2.86 7.993zm-2.725.09c0-2.885-.724-5.06-2.172-6.523-1.448-1.463-3.6-2.195-6.456-2.195h-3.739v17.68h3.134c3.067 0 5.373-.755 6.917-2.263 1.544-1.509 2.316-3.742 2.316-6.698zm11.66 11.187v-22.13h2.572v22.13H225.6zm22.375-11.595h7.523v10.762c-1.17.374-2.361.656-3.572.848-1.211.192-2.614.287-4.208.287-3.35 0-5.959-.996-7.826-2.989-1.867-1.993-2.8-4.786-2.8-8.378 0-2.301.461-4.317 1.385-6.047a9.367 9.367 0 0 1 3.988-3.966c1.736-.913 3.77-1.37 6.1-1.37 2.362 0 4.562.434 6.6 1.302l-.999 2.27c-1.998-.847-3.92-1.271-5.767-1.271-2.694 0-4.798.802-6.312 2.407-1.514 1.604-2.27 3.83-2.27 6.675 0 2.987.728 5.252 2.187 6.796 1.458 1.544 3.6 2.316 6.425 2.316 1.534 0 3.033-.176 4.496-.53v-6.811h-4.95v-2.301zm16.836 11.595v-22.13h2.573v22.13h-2.573zm19.455 0h-2.574v-19.844h-7.008v-2.286h16.59v2.286h-7.008v19.844zm26.084 0l-2.755-7.039h-8.87L296 141.448h-2.603l8.749-22.22h2.165l8.703 22.22h-2.664zm-3.557-9.355l-2.573-6.857c-.333-.868-.676-1.932-1.03-3.194a28.68 28.68 0 0 1-.953 3.194l-2.604 6.857h7.16zm13.264 9.355v-22.13h2.573v19.799h9.763v2.33h-12.336zm24.797-11.065l5.904-11.065h2.785l-7.387 13.547v8.583h-2.603v-8.462l-7.372-13.668h2.816l5.857 11.065zm24.586-9.082c-2.432 0-4.351.81-5.76 2.43-1.407 1.619-2.11 3.836-2.11 6.652 0 2.896.678 5.134 2.035 6.713 1.357 1.58 3.292 2.369 5.805 2.369 1.544 0 3.305-.278 5.283-.833v2.256c-1.534.575-3.426.862-5.676.862-3.26 0-5.775-.988-7.546-2.966-1.771-1.978-2.657-4.789-2.657-8.431 0-2.281.427-4.28 1.28-5.995.852-1.715 2.083-3.037 3.693-3.965 1.61-.929 3.504-1.393 5.684-1.393 2.32 0 4.349.424 6.085 1.271l-1.09 2.21c-1.675-.787-3.35-1.18-5.026-1.18zm30.883 20.147h-2.573v-10.414h-11.655v10.414h-2.574v-22.13h2.574v9.415h11.655v-9.415h2.573v22.13zm22.406 0h-12.336v-22.13h12.336v2.286h-9.763v7.129h9.173v2.27h-9.173v8.144h9.763v2.3zm21.241 0h-12.336v-22.13h12.336v2.286h-9.763v7.129h9.173v2.27h-9.173v8.144h9.763v2.3z"/></g><path d="M0 0h500v200H0z"/></g></svg>