<svg xmlns="http://www.w3.org/2000/svg" viewBox="0 0 500 200"><style>.st0{fill:#ff6600;} .st1{fill:#333333;}</style><path class="st0" d="M50.7 68.6v61.8H35.8v-6.6c-2.1 2.8-4 4.7-5.7 5.7-2.3 1.3-4.8 1.9-7.6 1.9-5.6 0-9.9-2.3-12.9-7-3-4.6-4.5-10.3-4.5-16.9 0-7.4 1.6-13.1 4.9-17 3.3-3.9 7.5-5.9 12.5-5.9 2.5 0 4.7.4 6.7 1.3s3.8 2.2 5.4 4V68.6h16.1zm-15.9 39.3c0-3.5-.7-6.1-2.1-7.9s-3.1-2.6-5.2-2.6c-1.8 0-3.4.8-4.6 2.5-1.2 1.7-1.9 4.4-1.9 8.3 0 3.7.6 6.3 1.9 8 1.3 1.7 2.9 2.5 4.8 2.5 2 0 3.7-.9 5.1-2.6 1.3-1.6 2-4.4 2-8.2zM60.9 68.6h15.9v11.7H60.9V68.6zm0 17h15.9v44.7H60.9V85.6zM87 85.6h14.8v7.3c1.4-3.2 2.9-5.4 4.4-6.6 1.5-1.2 3.4-1.8 5.6-1.8 2.3 0 4.9.8 7.7 2.4l-4.9 12.2c-1.9-.8-3.3-1.3-4.4-1.3-2.1 0-3.7.9-4.8 2.8-1.6 2.6-2.5 7.5-2.5 14.7v15H87V85.6zM169.5 112.2h-31.8c.3 2.8 1 4.8 2.1 6.2 1.5 1.9 3.5 2.9 6 2.9 1.6 0 3-.4 4.4-1.3.9-.5 1.8-1.5 2.8-2.8l15.6 1.6c-2.4 4.5-5.3 7.7-8.6 9.7-3.4 2-8.2 2.9-14.5 2.9-5.5 0-9.8-.8-12.9-2.5-3.1-1.7-5.7-4.3-7.8-8s-3.1-7.9-3.1-12.8c0-7 2.1-12.7 6.2-17 4.1-4.3 9.9-6.5 17.2-6.5 5.9 0 10.6 1 14 2.9 3.4 1.9 6 4.7 7.8 8.4 1.8 3.7 2.7 8.5 2.7 14.4v1.9zm-16.1-8.2c-.3-3.3-1.1-5.7-2.5-7.1-1.3-1.4-3.1-2.1-5.3-2.1-2.5 0-4.5 1.1-6 3.2-1 1.3-1.6 3.4-1.8 6h15.6zM207.6 112.8l15.1 1.9c-.8 3.4-2.2 6.3-4.1 8.8-1.9 2.5-4.3 4.4-7.3 5.8s-6.7 2.1-11.2 2.1c-4.4 0-8-.4-11-1.3-2.9-.9-5.4-2.3-7.5-4.3s-3.8-4.3-4.9-7c-1.2-2.7-1.8-6.2-1.8-10.6 0-4.6.7-8.4 2.2-11.5 1.1-2.2 2.5-4.3 4.4-6 1.8-1.8 3.7-3.1 5.7-4 3.1-1.4 7-2.1 11.9-2.1 6.8 0 11.9 1.3 15.4 3.9s6 6.4 7.5 11.5l-14.9 2.1c-.5-1.9-1.3-3.4-2.6-4.3-1.2-1-2.9-1.5-5-1.5-2.6 0-4.7 1-6.4 3-1.6 2-2.4 5.1-2.4 9.2 0 3.7.8 6.5 2.4 8.4 1.6 1.9 3.7 2.9 6.2 2.9 2.1 0 3.8-.6 5.2-1.7 1.3-1.1 2.4-2.9 3.1-5.3zM249.1 68.6v17h8.7v12.6h-8.7V114c0 1.9.2 3.2.5 3.8.5 1 1.4 1.4 2.7 1.4 1.2 0 2.8-.4 4.9-1.1l1.2 11.8c-3.9.9-7.6 1.4-11 1.4-3.9 0-6.9-.5-8.7-1.6-1.9-1.1-3.3-2.8-4.1-5-.9-2.2-1.3-5.8-1.3-10.8V98.2h-5.8V85.6h5.8v-8.2l15.8-8.8z"/><path class="st1" d="M265.9 68.6h15.9v61.8h-15.9V68.6zM288.7 85.6h16.7l8.5 29.8 7.9-29.8h15.6L321 133.4c-1.9 5.5-3.8 9.1-5.7 11-2.8 2.7-6.9 4-12.6 4-2.3 0-5.8-.3-10.6-1l-1.2-12c2.3.8 4.8 1.2 7.6 1.2 1.9 0 3.4-.5 4.5-1.4 1.2-.9 2.1-2.6 2.9-5l-17.2-44.6zM342.2 85.6H357v7.3c1.4-3.2 2.9-5.4 4.4-6.6 1.5-1.2 3.4-1.8 5.6-1.8 2.3 0 4.9.8 7.7 2.4l-4.9 12.2c-1.9-.8-3.3-1.3-4.4-1.3-2.1 0-3.7.9-4.8 2.8-1.6 2.6-2.5 7.5-2.5 14.7v15h-15.9V85.6zM378 68.6h15.9v11.7H378V68.6zm0 17h15.9v44.7H378V85.6zM434.8 112.8l15.1 1.9c-.8 3.4-2.2 6.3-4.1 8.8-1.9 2.5-4.3 4.4-7.3 5.8s-6.7 2.1-11.2 2.1c-4.4 0-8-.4-11-1.3-2.9-.9-5.4-2.3-7.5-4.3s-3.8-4.3-4.9-7c-1.2-2.7-1.8-6.2-1.8-10.6 0-4.6.7-8.4 2.2-11.5 1.1-2.2 2.5-4.3 4.4-6 1.8-1.8 3.7-3.1 5.7-4 3.1-1.4 7-2.1 11.9-2.1 6.8 0 11.9 1.3 15.4 3.9s6 6.4 7.5 11.5l-14.9 2.1c-.5-1.9-1.3-3.4-2.6-4.3-1.2-1-2.9-1.5-5-1.5-2.6 0-4.7 1-6.4 3-1.6 2-2.4 5.1-2.4 9.2 0 3.7.8 6.5 2.4 8.4s3.7 2.9 6.2 2.9c2.1 0 3.8-.6 5.2-1.7 1.3-1.1 2.4-2.9 3.1-5.3zM454.4 117.9l15.7-1.6c.6 2 1.6 3.5 2.7 4.3 1.2.9 2.7 1.3 4.7 1.3 2.1 0 3.8-.5 4.9-1.5.9-.7 1.4-1.6 1.4-2.7 0-1.2-.6-2.2-1.8-2.9-.9-.5-3.1-1.1-6.8-1.8-5.5-1-9.3-2-11.5-2.9-2.1-.9-3.9-2.4-5.4-4.5s-2.2-4.5-2.2-7.2c0-2.9.8-5.5 2.4-7.6 1.6-2.1 3.8-3.7 6.5-4.8 2.8-1.1 6.5-1.6 11.2-1.6 4.9 0 8.6.4 10.9 1.2 2.3.8 4.3 2.1 5.9 3.8 1.6 1.7 2.9 4 3.9 7l-15 1.6c-.4-1.4-1-2.5-1.9-3.2-1.2-.9-2.8-1.3-4.5-1.3-1.8 0-3.1.3-3.9 1-.8.7-1.2 1.5-1.2 2.5 0 1.1.5 1.9 1.6 2.5 1 .6 3.3 1.1 6.8 1.5 5.3.6 9.2 1.5 11.8 2.7 2.6 1.2 4.5 2.8 5.9 4.9s2 4.5 2 7c0 2.6-.7 5.1-2.2 7.5-1.4 2.4-3.7 4.4-6.8 5.8-3.1 1.4-7.3 2.2-12.7 2.2-7.6 0-12.9-1.2-16.1-3.5-3.4-2.1-5.4-5.4-6.3-9.7z"/></svg>
