<svg xmlns="http://www.w3.org/2000/svg" width="500" height="200" viewBox="0 0 500 200"><path d="M86.31 89.824c-3.645 0-6.523 3.136-6.523 7.04s2.942 7.04 6.524 7.04c3.646 0 6.524-3.136 6.524-7.04s-2.942-7.04-6.524-7.04zm-23.345 0c-3.646 0-6.524 3.136-6.524 7.04s2.942 7.04 6.524 7.04c3.646 0 6.524-3.136 6.524-7.04.064-3.904-2.878-7.04-6.524-7.04zm54.431-53.248H31.688c-7.228 0-13.112 5.888-13.112 13.12v85.76c0 7.232 5.884 13.12 13.112 13.12h72.532l-3.39-11.712 8.187 7.552 7.74 7.104 13.815 11.968V49.696c-.064-7.232-5.948-13.12-13.176-13.12zm-24.689 82.88s-2.303-2.752-4.221-5.12c8.379-2.368 11.577-7.552 11.577-7.552-2.623 1.728-5.117 2.944-7.356 3.776-3.198 1.344-6.268 2.176-9.274 2.752-6.14 1.152-11.77.832-16.566-.064-3.646-.704-6.78-1.664-9.403-2.752-1.47-.576-3.07-1.28-4.669-2.176-.192-.128-.384-.192-.576-.32-.128-.064-.191-.128-.255-.128-1.152-.64-1.791-1.088-1.791-1.088s3.07 5.056 11.193 7.488c-1.919 2.432-4.286 5.248-4.286 5.248-14.135-.448-19.508-9.664-19.508-9.664 0-20.416 9.21-36.992 9.21-36.992 9.211-6.848 17.91-6.656 17.91-6.656l.64.768c-11.514 3.264-16.758 8.32-16.758 8.32s1.407-.768 3.773-1.792c6.844-3.008 12.28-3.776 14.52-4.032.383-.064.703-.128 1.087-.128a54.087 54.087 0 0 1 12.92-.128c6.076.704 12.6 2.496 19.253 6.08 0 0-5.053-4.8-15.927-8.064l.896-1.024s8.762-.192 17.909 6.656c0 0 9.21 16.576 9.21 36.992 0-.064-5.372 9.152-19.508 9.6zm96.582-55.488h-21.235V87.84l14.135 12.736V77.408h7.548c4.797 0 7.163 2.304 7.163 6.016v17.728c0 3.712-2.238 6.208-7.163 6.208H167.99v13.504h21.235c11.385.064 22.067-5.632 22.067-18.688V83.104c.064-13.312-10.618-19.136-22.003-19.136zm111.293 38.208V82.592c0-7.04 12.664-8.64 16.502-1.6l11.705-4.736C324.184 66.144 315.805 63.2 308.833 63.2c-11.385 0-22.642 6.592-22.642 19.392v19.584c0 12.928 11.257 19.392 22.386 19.392 7.164 0 15.735-3.52 20.468-12.736l-12.537-5.76c-3.07 7.872-15.926 5.952-15.926-.896zM261.885 85.28c-4.413-.96-7.355-2.56-7.547-5.312.256-6.592 10.425-6.848 16.374-.512l9.402-7.232c-5.884-7.168-12.536-9.088-19.38-9.088-10.426 0-20.532 5.888-20.532 17.024 0 10.816 8.315 16.64 17.462 18.048 4.669.64 9.85 2.496 9.722 5.696-.384 6.08-12.92 5.76-18.613-1.152l-9.082 8.512c5.308 6.848 12.536 10.304 19.316 10.304 10.426 0 22.003-6.016 22.45-17.024.64-13.888-9.466-17.408-19.572-19.264zm-42.854 35.52h14.327V63.968h-14.327V120.8zm241.582-56.832h-21.235V87.84l14.136 12.736V77.408h7.547c4.797 0 7.164 2.304 7.164 6.016v17.728c0 3.712-2.239 6.208-7.164 6.208h-21.747v13.504h21.3c11.385.064 22.066-5.632 22.066-18.688V83.104c0-13.312-10.681-19.136-22.067-19.136zM356.42 63.2c-11.769 0-23.474 6.4-23.474 19.52v19.392c0 12.992 11.77 19.52 23.602 19.52 11.77 0 23.474-6.528 23.474-19.52V82.72c0-13.056-11.833-19.52-23.602-19.52zm9.21 38.912c0 4.096-4.605 6.208-9.146 6.208-4.605 0-9.21-1.984-9.21-6.208V82.72c0-4.16 4.477-6.4 8.954-6.4 4.67 0 9.403 1.984 9.403 6.4v19.392zm65.817-19.392c-.32-13.312-9.402-18.688-21.107-18.688h-22.707v56.832h14.52v-18.048h2.558l13.176 18.048h17.91l-15.48-19.52c6.845-2.176 11.13-8.128 11.13-18.624zm-20.851 7.68h-8.443V77.408h8.443c9.018 0 9.018 12.992 0 12.992z" fill="#7289DA" fill-rule="evenodd"/></svg>