<svg width="500" height="200" xmlns="http://www.w3.org/2000/svg" style="background:#fff"><g fill-rule="nonzero" fill="none"><path d="M66.495 89.577c.247 5.114 2.144 9.155 4.866 12.124 2.721 2.97 6.598 4.536 11.051 4.536 2.97 0 5.526-.66 7.835-1.98 2.227-1.319 3.712-3.133 4.372-5.525h17.979c-2.144 6.928-5.278 12.289-10.557 16-5.278 3.711-11.546 5.608-18.804 5.608C63.856 120.34 50 108.134 50 83.722c0-5.196.742-9.897 2.227-14.103 1.484-4.207 3.629-7.753 6.433-10.805 2.804-2.969 6.268-5.278 10.31-6.927 4.04-1.567 7.917-2.392 13.112-2.392 10.557 0 17.815 3.299 23.176 9.98 5.36 6.68 7.917 16.659 7.917 30.102h-46.68zm29.03-11.216c-.082-2.474-.494-4.619-1.319-6.516-.825-1.897-1.814-3.381-3.134-4.618a12.491 12.491 0 0 0-4.453-2.722c-1.65-.577-3.382-.907-5.114-.907-3.629 0-7.423 1.32-10.062 3.876-2.639 2.557-4.123 6.186-4.536 10.887h28.619z" fill="#D51317"/><path d="M118.948 150.69V50.238h17.073l.165 8.248c3.958-6.351 10.309-8.578 18.721-8.578 4.206 0 7.423.825 10.97 2.474 3.628 1.65 6.68 4.042 9.236 7.093 2.557 3.134 4.536 6.846 6.021 11.382 1.485 4.453 2.227 9.484 2.227 15.175 0 5.113-.577 9.732-1.815 14.02-1.237 4.207-3.051 7.918-5.36 10.97-2.392 3.134-5.279 5.525-8.66 7.175-3.382 1.65-6.598 2.557-10.97 2.557-8.33 0-14.927-2.145-19.958-9.155v39.258h-17.65v-.165zm33.073-45.195c10.226 0 15.34-6.928 15.34-20.784 0-6.02-1.402-10.886-4.206-14.68-2.804-3.794-6.433-5.69-10.97-5.69-4.288 0-7.834 1.814-10.721 5.36-2.887 3.546-4.289 8.165-4.289 13.938 0 14.598 4.949 21.856 14.846 21.856zM245.794 64.918c-.99-3.3-2.557-6.104-4.784-8.33-2.226-2.227-5.113-3.96-8.824-5.114-3.712-1.154-7.918-1.814-13.196-1.814-5.361 0-9.897.577-13.691 1.732-3.711 1.154-6.763 2.721-9.072 4.866-2.31 2.062-4.041 4.783-5.031 7.752-1.072 2.887-1.65 5.609-1.732 9.732h16.495c.495-3.299 1.567-5.608 3.381-7.422 1.815-1.815 4.701-2.805 8.825-2.805 3.464 0 6.186.578 8.247 1.815 2.062 1.237 3.052 2.886 3.052 5.113 0 2.392-.742 4.042-2.31 5.114-1.566 1.072-4.535 1.897-8.99 2.556-4.453.66-8.576 1.32-12.37 2.145-3.794.742-7.01 1.98-9.732 3.629-2.722 1.65-4.866 3.876-6.433 6.762-1.567 2.887-2.31 6.68-2.31 11.547 0 5.443 1.815 9.897 5.361 13.36 3.63 3.382 9.238 5.114 16.99 5.114 4.536 0 8.577-.742 12.041-2.144a22.562 22.562 0 0 0 8.33-5.856c.165 2.31.578 4.124 1.072 5.773h16V76.381c0-4.37-.33-8.082-1.32-11.463zm-17.98 33.896c-.907 1.815-1.979 3.3-3.381 4.619-1.402 1.32-3.134 2.392-5.03 3.134a17.734 17.734 0 0 1-6.351 1.155c-5.774 0-8.578-2.475-8.578-7.506 0-2.886.99-5.113 2.887-6.68 1.897-1.567 5.443-2.804 10.557-3.794 1.237-.247 2.309-.495 3.298-.66 0 0 4.949-1.072 8.165-1.896l-.082 6.02c-.165 1.98-.66 3.876-1.485 5.608zM300.64 110.69c-.578 1.403-1.403 2.392-2.393 3.3-1.237.99-2.721 2.144-4.536 3.051-3.299 1.65-7.175 2.227-11.546 2.227-5.526 0-9.567-.99-13.36-2.969-3.795-1.98-6.846-4.536-9.156-7.753a30.795 30.795 0 0 1-5.03-11.051c-1.073-4.206-1.567-8.495-1.567-12.866 0-5.196.742-9.98 2.309-14.268 1.567-4.289 3.629-8 6.268-11.052 2.639-3.051 5.773-5.443 9.32-7.093 3.546-1.649 6.68-2.556 10.804-2.556 8.412 0 14.68 1.98 18.886 8.742v-8.165h17.32v69.114c0 5.113-.413 9.567-2.145 13.443-1.732 3.876-4.123 7.093-7.092 9.732-2.97 2.556-6.598 4.618-10.64 5.938-4.123 1.402-8.494 2.062-13.113 2.062-4.618 0-8.99-.66-12.948-1.98-4.042-1.32-7.423-3.216-10.31-5.608-2.886-2.392-5.113-5.36-6.763-8.825-1.649-3.464-2.474-7.34-2.474-11.71h16.495c0 4.123 1.32 7.257 4.041 9.484 2.722 2.226 6.268 3.381 10.722 3.381 4.701 0 8.742-1.32 12.041-3.876 3.3-2.557 4.949-6.103 4.949-10.557v-10.144h-.083zm-16.33-5.36c4.37 0 8-1.65 10.886-4.949 2.886-3.299 4.289-7.835 4.289-13.608 0-14.433-5.031-21.608-15.176-21.608-10.144 0-15.175 6.845-15.175 20.536 0 6.02 1.402 10.804 4.289 14.35 2.886 3.464 6.515 5.279 10.886 5.279zM448.35 90.237c-1.072-2.31-2.474-4.289-4.865-5.773-2.392-1.567-5.609-2.887-9.65-4.041-4.041-1.155-8.907-2.557-14.763-4.207-3.546-.99-6.268-2.061-8.165-3.134-1.897-1.072-2.804-2.556-2.804-4.37 0-2.063.907-3.547 2.804-4.454 1.897-.825 4.619-1.32 8.248-1.32 3.793 0 6.68.825 8.577 2.31 1.484 1.154 2.557 2.721 3.134 5.195h17.237c-.742-6.598-3.134-11.134-7.175-14.68-4.454-3.876-11.547-5.938-21.196-5.938-5.278 0-9.732.495-13.36 1.567-3.63 1.072-6.599 2.392-8.908 4.123-2.31 1.732-3.629 3.712-4.619 6.021-1.072 2.31-1.567 4.701-1.567 7.258 0 2.804.413 5.36 1.155 7.67.742 2.31 1.897 4.371 4.206 6.268 2.227 1.897 5.361 3.629 9.32 5.278 4.041 1.567 9.32 3.134 15.835 4.619 3.629.825 6.35 1.814 8.165 2.886 1.814 1.073 2.639 2.887 2.639 5.361 0 2.227-1.237 3.794-3.629 4.866-2.392 1.072-5.278 1.567-8.66 1.567-4.041 0-7.257-1.072-9.732-2.804-1.98-1.402-3.216-3.299-3.629-5.773H388.64c.248 3.299.99 5.69 2.31 8.082 1.484 2.887 3.628 5.444 6.432 7.506 2.805 2.061 6.104 3.71 10.062 4.783 3.877 1.072 8.33 1.65 13.114 1.65 9.814 0 17.237-1.98 22.268-5.939 5.03-3.958 7.175-8.907 7.175-14.927-.082-4.207-.577-7.34-1.65-9.65zM339.072 89.577c.248 5.114 2.144 9.155 4.866 12.124 2.722 2.97 6.598 4.536 11.052 4.536 2.969 0 5.525-.66 7.835-1.98 2.227-1.319 3.711-3.133 4.37-5.525h17.98c-2.144 6.928-5.278 12.289-10.556 16-5.279 3.711-11.547 5.608-18.805 5.608-19.381 0-33.237-12.206-33.237-36.618 0-5.196.743-9.897 2.227-14.103 1.485-4.207 3.629-7.753 6.433-10.805 2.804-2.969 6.268-5.278 10.31-6.927 4.04-1.567 7.917-2.392 13.113-2.392 10.556 0 17.814 3.299 23.175 9.98 5.36 6.68 7.918 16.659 7.918 30.102h-46.68zm29.114-11.216c-.083-2.474-.495-4.619-1.32-6.516-.825-1.897-1.814-3.381-3.134-4.618a12.491 12.491 0 0 0-4.454-2.722c-1.65-.577-3.381-.907-5.113-.907-3.629 0-7.423 1.32-10.062 3.876-2.64 2.557-4.124 6.186-4.536 10.887h28.619z" fill="#2C2926"/><g fill="#FFF"><path d="M226.636 152.933c.016.426.179.833.46 1.152.272.295.658.457 1.058.445.262.005.52-.06.75-.189a.869.869 0 0 0 .414-.53h1.719a2.744 2.744 0 0 1-1.005 1.528 3.02 3.02 0 0 1-1.806.53c-1.844 0-3.173-1.166-3.173-3.498a4.028 4.028 0 0 1 .221-1.343c.13-.384.34-.736.615-1.033.274-.291.61-.516.984-.659.4-.16.826-.238 1.256-.23 1.005 0 1.698.318 2.214.952.516.633.754 1.594.754 2.873l-4.461.002zm2.765-1.071a1.753 1.753 0 0 0-.125-.62 1.343 1.343 0 0 0-.288-.445 1.242 1.242 0 0 0-.423-.26 1.472 1.472 0 0 0-.489-.085 1.382 1.382 0 0 0-.958.373c-.266.281-.419.65-.43 1.037h2.713zM231.65 158.774v-9.597h1.631l.014.786c.38-.606.988-.822 1.788-.822.363-.005.723.074 1.05.23.345.158.647.395.883.691.257.322.452.69.574 1.083.145.47.216.958.21 1.45.004.451-.056.901-.178 1.336a3.11 3.11 0 0 1-.516 1.05 2.325 2.325 0 0 1-.827.692c-.327.16-.687.24-1.05.23-.794 0-1.43-.203-1.906-.873v3.744h-1.673zm3.156-4.32c.974 0 1.462-.661 1.464-1.984a2.279 2.279 0 0 0-.406-1.396 1.244 1.244 0 0 0-1.044-.542 1.27 1.27 0 0 0-1.025.507 2.058 2.058 0 0 0-.41 1.332c0 1.387.474 2.081 1.421 2.083zM243.76 150.58a1.86 1.86 0 0 0-.46-.797 2.05 2.05 0 0 0-.844-.488 4.076 4.076 0 0 0-1.26-.17 4.53 4.53 0 0 0-1.304.163c-.32.087-.616.245-.867.46-.22.203-.385.456-.484.738a2.74 2.74 0 0 0-.163.922h1.58c.024-.266.137-.516.32-.71.237-.198.544-.291.851-.258a1.53 1.53 0 0 1 .786.173.541.541 0 0 1 .292.486.544.544 0 0 1-.23.489c-.27.132-.562.21-.862.23-.427.06-.82.127-1.182.203-.324.063-.636.18-.921.345-.26.155-.472.378-.613.646a2.334 2.334 0 0 0-.23 1.103c-.019.479.169.942.515 1.272.343.324.88.487 1.613.489.394.008.785-.06 1.152-.203a2.1 2.1 0 0 0 .798-.562c.012.187.046.373.103.553h1.544v-4.007a3.79 3.79 0 0 0-.134-1.076zm-1.71 3.236a1.46 1.46 0 0 1-.808.744 1.638 1.638 0 0 1-.606.11c-.548 0-.823-.23-.823-.716a.781.781 0 0 1 .275-.64 2.424 2.424 0 0 1 1.004-.365l.318-.067s.461-.099.777-.184v.576c-.003.189-.05.374-.136.542zM249.002 154.952a.848.848 0 0 1-.23.313 2.263 2.263 0 0 1-.431.295 2.39 2.39 0 0 1-1.101.207 2.578 2.578 0 0 1-1.272-.28 2.43 2.43 0 0 1-.876-.727 3.055 3.055 0 0 1-.484-1.055 5.106 5.106 0 0 1-.15-1.249 3.986 3.986 0 0 1 .23-1.364c.131-.382.33-.737.588-1.048.246-.285.548-.516.888-.678.32-.157.674-.236 1.032-.23.8 0 1.4.191 1.802.836v-.795h1.65v6.604c.023.438-.046.876-.203 1.286a2.624 2.624 0 0 1-.678.921 2.995 2.995 0 0 1-1.018.57 3.977 3.977 0 0 1-1.254.193c-.42.004-.839-.06-1.24-.189a2.922 2.922 0 0 1-.979-.53 2.468 2.468 0 0 1-.645-.84 2.594 2.594 0 0 1-.23-1.123h1.567c-.02.345.122.68.385.906.293.226.659.34 1.03.32.415.012.822-.119 1.152-.371.307-.244.478-.62.46-1.012l.007-.96zm-1.56-.517c.4.01.782-.166 1.037-.474.29-.369.437-.831.41-1.3 0-1.382-.482-2.07-1.447-2.062-.964.008-1.447.66-1.449 1.959-.026.49.119.975.41 1.37.246.325.632.514 1.04.507zM263.11 152.995a1.207 1.207 0 0 0-.46-.555 3.456 3.456 0 0 0-.922-.385l-1.408-.398a3.482 3.482 0 0 1-.776-.3.472.472 0 0 1-.27-.42.433.433 0 0 1 .27-.423c.25-.098.517-.143.785-.132.29-.014.577.067.816.23a.806.806 0 0 1 .3.496h1.65a2.041 2.041 0 0 0-.692-1.403c-.426-.373-1.101-.57-2.023-.57-.43-.01-.861.04-1.279.148a2.535 2.535 0 0 0-.848.397c-.196.148-.35.346-.444.573-.1.217-.15.453-.15.692-.003.248.034.494.11.73.074.234.212.441.4.6.268.215.57.384.893.501.493.186.999.332 1.514.438.271.051.533.144.777.274.172.11.27.306.253.51a.488.488 0 0 1-.346.46 2.088 2.088 0 0 1-.827.15 1.6 1.6 0 0 1-.921-.267.8.8 0 0 1-.346-.555h-1.751c.015.269.09.531.216.77.147.282.357.527.613.716.289.211.614.367.959.46.409.11.83.163 1.253.16.94 0 1.65-.187 2.13-.567.449-.335.707-.868.69-1.429a2.214 2.214 0 0 0-.165-.9zM252.675 152.933c.016.426.179.833.46 1.152.273.293.659.455 1.059.445.26.005.519-.06.746-.189a.864.864 0 0 0 .417-.53h1.719a2.744 2.744 0 0 1-1.005 1.528 3.02 3.02 0 0 1-1.797.534c-1.843 0-3.173-1.166-3.173-3.497a3.97 3.97 0 0 1 .212-1.344c.13-.383.34-.734.613-1.032.275-.291.612-.517.986-.659.4-.16.826-.238 1.256-.23 1.005 0 1.698.318 2.214.951.517.634.754 1.595.754 2.873l-4.46-.002zm2.765-1.071a1.806 1.806 0 0 0-.124-.62 1.343 1.343 0 0 0-.298-.445 1.242 1.242 0 0 0-.424-.26 1.484 1.484 0 0 0-.488-.085 1.382 1.382 0 0 0-.959.373c-.265.281-.418.65-.428 1.037h2.721zM266.993 155.325a.638.638 0 0 1-.288.265.922.922 0 0 1-.399.08.975.975 0 0 1-.447-.096.922.922 0 0 1-.306-.268 1.249 1.249 0 0 1-.189-.389 1.647 1.647 0 0 1 0-.9 1.2 1.2 0 0 1 .189-.376.963.963 0 0 1 .302-.263.942.942 0 0 1 .438-.097c.132 0 .263.028.382.085a.664.664 0 0 1 .288.252v-1.13h.622v3.127h-.59v-.29h-.002zm-.028-1.118a.629.629 0 0 0-.087-.23.475.475 0 0 0-.42-.221.498.498 0 0 0-.258.062.46.46 0 0 0-.168.161.664.664 0 0 0-.092.23 1.272 1.272 0 0 0 .002.53c.02.083.053.16.1.231a.51.51 0 0 0 .17.166c.074.045.16.067.247.064a.484.484 0 0 0 .255-.062.429.429 0 0 0 .164-.163.691.691 0 0 0 .087-.23 1.304 1.304 0 0 0 0-.538zM268.726 155.071a.562.562 0 0 0 .403.136.567.567 0 0 0 .325-.094.394.394 0 0 0 .166-.198h.541a1.04 1.04 0 0 1-.4.58 1.184 1.184 0 0 1-.657.176 1.293 1.293 0 0 1-.484-.086.99.99 0 0 1-.362-.23 1.118 1.118 0 0 1-.23-.378 1.399 1.399 0 0 1-.081-.482 1.332 1.332 0 0 1 .083-.472c.103-.29.323-.524.606-.645.15-.063.31-.095.472-.092.174-.004.346.034.503.11.139.072.26.174.352.3.094.128.16.274.198.428.043.165.058.336.044.505h-1.631a.636.636 0 0 0 .152.442zm.691-1.19a.438.438 0 0 0-.339-.123.52.52 0 0 0-.246.05.46.46 0 0 0-.242.281.67.67 0 0 0-.028.15h1.012a.742.742 0 0 0-.145-.359h-.012zM271.134 155.615l-.775-2.265h.653l.476 1.546.477-1.546h.618l-.767 2.265zM273.373 155.05a.385.385 0 0 0 .258.187.659.659 0 0 0 .316.007.408.408 0 0 0 .131-.048.3.3 0 0 0 .1-.088.23.23 0 0 0 .039-.138c0-.092-.063-.164-.187-.21a4.097 4.097 0 0 0-.518-.14 3.19 3.19 0 0 1-.265-.072.89.89 0 0 1-.23-.11.518.518 0 0 1-.162-.17.46.46 0 0 1-.062-.252.703.703 0 0 1 .085-.36.668.668 0 0 1 .23-.23.988.988 0 0 1 .316-.113c.119-.02.239-.032.36-.032.12 0 .239.011.357.035.109.02.213.06.308.117a.712.712 0 0 1 .337.579h-.59a.272.272 0 0 0-.136-.242.613.613 0 0 0-.29-.065h-.113a.426.426 0 0 0-.113.028.288.288 0 0 0-.085.064.187.187 0 0 0 .027.247c.046.04.1.069.16.085.075.025.152.045.23.06l.258.058c.09.02.178.044.265.073a.98.98 0 0 1 .23.115.525.525 0 0 1 .224.445.726.726 0 0 1-.09.376.737.737 0 0 1-.23.242.965.965 0 0 1-.33.129 1.899 1.899 0 0 1-.765-.003.975.975 0 0 1-.334-.13.735.735 0 0 1-.242-.243.76.76 0 0 1-.102-.38h.59a.332.332 0 0 0 .023.18z"/></g></g></svg>