<svg width="500" height="200" xmlns="http://www.w3.org/2000/svg"><path fill="#9BCB52" d="M329.162 120.754h-3.953c-.99 0-1.59-.79-1.59-1.58v-4.35h-.198c-2.966 4.546-7.71 6.918-12.85 6.918-9.882.198-17.986-7.708-18.776-17.59-.99-12.454 6.325-21.94 18.184-21.94 6.128 0 10.674 2.766 13.243 6.72h.198V67.385c0-.988.79-1.58 1.58-1.58h4.154c.988 0 1.58.79 1.58 1.58v51.787c.2.79-.592 1.58-1.58 1.58zM311.57 88.338c-7.51 0-12.057 5.732-12.057 13.243s4.546 13.45 12.057 13.45c7.51 0 12.058-5.93 12.058-13.44s-4.548-13.25-12.058-13.25zm45.264 33.404c-11.266 0-20.16-7.906-20.16-19.765 0-11.662 8.894-19.766 20.16-19.766 11.267 0 20.16 8.11 20.16 19.77 0 11.86-8.696 19.77-20.16 19.77zm0-33.404c-7.71 0-12.452 5.93-12.452 13.243 0 7.52 4.743 13.45 12.452 13.45 7.51 0 12.452-5.93 12.452-13.44s-4.546-13.25-12.452-13.25zm31.823 32.416h-4.15c-.99 0-1.582-.79-1.582-1.58v-51.79c0-.987.79-1.58 1.58-1.58h4.152c.988 0 1.58.79 1.58 1.58v51.788c.2.79-.592 1.58-1.58 1.58zm15.813 0h-4.15c-.99 0-1.582-.79-1.582-1.58v-51.79c0-.987.79-1.58 1.58-1.58h4.152c.988 0 1.58.79 1.58 1.58v51.788c.2.79-.592 1.58-1.58 1.58zm38.345 0h-3.953c-.988 0-1.58-.593-1.58-1.58v-2.966c-1.385 1.58-5.14 5.732-12.058 5.732s-13.243-4.348-13.243-11.662c0-7.51 6.13-11.266 14.83-11.464l10.08-.395v-1.39c0-5.736-3.95-8.7-9.484-8.7-4.15 0-7.906 1.383-9.883 2.37-.99.395-1.78 0-2.372-.79l-.987-1.977c-.398-.99 0-1.78.79-2.175 2.963-1.385 7.51-2.966 12.846-2.966 6.324 0 9.882 1.78 12.452 4.347 2.57 2.57 4.15 5.93 4.15 12.453v20.36c.197 0-.593.79-1.58.79zm-5.732-18.184l-8.894.593c-6.13.395-8.7 2.964-8.7 6.522s2.76 6.523 7.9 6.523c4.94 0 8.302-3.36 9.685-5.534v-8.104zm29.65-13.44c-3.36 0-5.338 2.173-6.326 3.16-.593.99-2.372 3.954-2.372 9.687v17.196c0 .988-.79 1.58-1.58 1.58h-4.35c-.988 0-1.58-.79-1.58-1.58v-34.59c0-.99.79-1.582 1.58-1.582h4.35c.987 0 1.58.8 1.58 1.78v4.15h.198c1.778-4.34 5.336-6.52 9.29-6.52.988 0 1.778 0 2.57.2.987.2 1.383.99 1.383 1.78l-.198 3.56c0 .99-.988 1.78-2.174 1.384-.396-.197-1.384-.197-2.372-.197z"/><path fill="#039CB5" d="M158.583 103.163H128.54c.395 8.894 5.336 14.626 13.835 14.626 5.732 0 9.686-2.18 11.662-3.56.79-.6 1.977-.4 2.57.39.593.592.395 1.78-.396 2.37-1.97 1.58-6.52 4.546-14.23 4.546-10.87 0-17.79-8.104-17.79-19.37 0-11.46 8.31-19.17 17.99-19.17 9.888 0 16.8 7.314 16.8 17.394-.192 1.187-.39 2.77-.39 2.77zm-3.953-3.558c0-4.744-3.558-12.848-12.848-12.848-9.092 0-12.847 7.71-13.243 12.848h26.09zm38.543-13.44l-14.23 33.6c-.2.594-.99.99-1.582.99h-.98c-.592 0-1.383-.396-1.58-.99l-14.034-33.6c-.593-1.187.395-2.57 1.58-2.57h.594c.592 0 1.382.395 1.58.99l12.452 30.042 12.453-30.044c.196-.593.986-.99 1.58-.99h.592c1.186 0 1.977 1.385 1.58 2.57zm36.172 16.998h-30.242c.395 8.894 5.337 14.626 13.836 14.626 5.73 0 9.68-2.18 11.66-3.56.79-.6 1.97-.4 2.57.39.59.592.39 1.78-.4 2.37-1.98 1.58-6.52 4.546-14.23 4.546-10.87 0-17.79-8.104-17.79-19.37 0-11.465 8.3-19.174 17.984-19.174 9.882 0 16.8 7.314 16.8 17.394 0 1.188-.197 2.77-.197 2.77zm-4.15-3.558c0-4.744-3.56-12.848-12.85-12.848-9.09 0-12.847 7.71-13.242 12.848h26.09zM252.47 85.57c0 .99-.988 1.78-1.976 1.582-.593 0-1.383-.197-2.174-.197-3.558 0-5.732 2.57-6.523 3.36-.593.988-2.57 3.953-2.57 10.476v18.19c0 .99-.79 1.78-1.778 1.78h-.6c-.99 0-1.78-.79-1.78-1.78V85.376c0-.988.79-1.78 1.78-1.78h.59c.988 0 1.78.792 1.78 1.78v5.14c1.384-4.943 5.34-7.513 9.49-7.513.99 0 1.58 0 2.37.2.99.197 1.58.987 1.385 1.976v.395zm35.382-1.976c1.383 0 2.37 1.384 1.778 2.768l-17.79 42.89c-2.568 6.13-5.73 6.92-8.3 6.92-.99 0-1.78-.198-2.57-.396-.988-.198-1.78-1.384-1.384-2.372.198-.988 1.384-1.78 2.372-1.58.593 0 .99.197 1.78.197 2.173 0 3.755-.79 5.534-5.93l2.174-6.12-13.638-33.8c-.593-1.382.395-2.765 1.778-2.765.79 0 1.582.593 1.78 1.383l12.254 31.034 12.255-31.033c.395-.593 1.186-1.186 1.977-1.186z"/><path d="M66.87 66.003S29.117 63.63 1.05 91.896l42.694 12.848s24.312-30.242 64.832-27.87L66.87 66.004zM52.243 80.037c-6.72 0-12.254-1.582-12.254-3.558s5.33-3.56 12.25-3.56c6.72 0 12.25 1.58 12.25 3.56 0 1.97-5.534 3.55-12.255 3.55zm55.345-.99c-35.776.2-62.856 33.405-62.856 33.405L4.806 99.012l4.546 10.08 35.776 12.453s28.067-40.322 62.262-41.508l.198-.99zm-1.384 2.966c-30.242 2.57-60.483 47.043-60.483 47.043l-32.81-12.453 3.76 8.5 29.05 11.267c22.14-34.197 44.08-50.998 59.89-53.17l.598-1.187z" fill="#9BCB52"/><path d="M480.173 94.466V83.99h-3.756v-1.384h8.895v1.384h-3.558v10.476h-1.58zm16.997 0V84.78l-3.952 9.686h-.395l-3.954-9.686v9.686h-1.39v-11.86h2.172l3.557 8.895 3.56-8.89h2.173v11.86h-1.78z" fill="#9BCA52"/></svg>