<svg xmlns="http://www.w3.org/2000/svg" id="Layer_1" viewBox="0 0 500.00002 200.00001" width="500" height="200"><style id="style3548">.st0{fill:#0a090d}.st1{fill:none}</style><g id="g3550" transform="translate(48.58 -101.597) scale(1.18273)"><circle class="st0" cx="330.6" cy="112.9" r="8.5" id="circle3552" fill="#0a090d"/><g id="g3554"><path class="st0" d="M212.4 106.6c-1.3-.8-2.7-1-4.2-.7-1.4.3-2.7 1.2-3.4 2.5l-33.5 54.2-33.5-54.2c-.8-1.3-2-2.1-3.4-2.5-1.4-.3-2.9-.1-4.2.7-2.6 1.6-3.4 5-1.8 7.6l38.2 61.9c1 1.6 2.8 2.6 4.7 2.6 1.9 0 3.7-1 4.7-2.6l38.2-61.9c1.6-2.5.8-6-1.8-7.6z" id="path3556" fill="#0a090d"/><path class="st0" d="M52.5 143.2l18-28.4c-13.6-5.6-29.4-.7-37.4 11.9-9 14.2-4.7 33.1 9.5 42.1s33.1 4.7 42.1-9.5c1.5-2.4 4.9-3.2 7.3-1.7 1.2.8 2 1.9 2.3 3.3.3 1.4.1 2.8-.7 4-5.9 9.3-15 15.7-25.8 18.1-10.7 2.4-21.8.5-31.1-5.3-19-12-24.7-37.5-12.6-56.7 5.9-9.3 15-15.7 25.8-18.2 10.7-2.4 21.8-.5 31.1 5.3 1.2.8 2 1.9 2.3 3.3.3 1.4.1 2.8-.7 4l-21.1 33.3c-1.5 2.4-4.9 3.2-7.3 1.7-2.5-1.4-3.2-4.7-1.7-7.2z" id="path3558" fill="#0a090d"/><path class="st0" d="M313.4 134.3c-5.9-5-7.4-9.6-9-14.5-2.1-6.4-4.4-13.6-17-16.1-12-2.4-24.2 6-30.9 15.3-12 16.6-12.1 45.1 5.8 58.3 5.9 4.4 14.6 6.9 23.7 6.9 3.2 0 6.2-.3 9.2-.9 10.2-2.1 18-7.3 22.7-15.2 7.7-13.3 6.2-24.6-4.5-33.8zm-45.2 34.9c-13.1-9.7-12.7-31.8-3.6-44.3 4.1-5.7 11.5-11.5 18.5-11.5.8 0 1.6.1 2.3.2 6.8 1.3 7.6 3.7 9.4 9.3 1.8 5.4 4 12.2 12 19.1 6.9 5.9 7.6 12 2.3 21-4 6.8-10.9 9.4-16 10.5-8.9 1.7-19.1 0-24.9-4.3z" id="path3560" fill="#0a090d"/></g><g id="g3562"><path class="st0" d="M65 224.6c.7 0 1.3-.3 1.8-.8s.7-1.3.7-2.2h2.6v.1c0 1.4-.5 2.7-1.5 3.7s-2.3 1.5-3.7 1.5c-1.9 0-3.4-.6-4.4-1.9-1-1.3-1.5-2.9-1.5-5v-2.1c0-2 .5-3.7 1.5-5 1-1.3 2.5-2 4.4-2 1.6 0 2.8.5 3.8 1.6 1 1 1.4 2.4 1.4 4v.1h-2.6c0-1-.2-1.9-.7-2.5-.5-.6-1.1-1-1.9-1-1.1 0-1.9.4-2.3 1.3-.5.9-.7 2-.7 3.4v2.1c0 1.4.2 2.5.7 3.4.5.8 1.3 1.3 2.4 1.3z" id="path3564" fill="#0a090d"/><path class="st0" d="M92.8 217.8c0-2 .5-3.7 1.6-5 1.1-1.3 2.5-2 4.4-2 1.8 0 3.3.7 4.4 2 1.1 1.3 1.6 3 1.6 5v2c0 2.1-.5 3.7-1.6 5-1.1 1.3-2.5 2-4.4 2-1.9 0-3.3-.7-4.4-2-1.1-1.3-1.6-3-1.6-5v-2zm2.9 2c0 1.4.3 2.6.8 3.5.5.9 1.3 1.4 2.3 1.4 1 0 1.8-.5 2.3-1.4.5-.9.8-2.1.8-3.5v-2c0-1.4-.3-2.5-.8-3.4-.5-.9-1.3-1.4-2.3-1.4-1 0-1.8.5-2.3 1.4-.5.9-.8 2.1-.8 3.4v2z" id="path3566" fill="#0a090d"/><path class="st0" d="M130.8 211.1l.2 2.1c.4-.8.9-1.3 1.6-1.8.6-.4 1.4-.6 2.3-.6.8 0 1.6.2 2.2.7.6.5 1.1 1.2 1.4 2.1.4-.9.9-1.6 1.6-2.1.7-.5 1.4-.8 2.4-.8 1.3 0 2.3.5 3.1 1.6.8 1.1 1.1 2.7 1.1 4.9v9.1h-2.9v-9.2c0-1.6-.2-2.7-.6-3.3-.4-.6-1-1-1.7-1s-1.2.2-1.6.7c-.4.5-.8 1.2-1 2v10.7H136V217c0-1.5-.2-2.6-.6-3.3-.4-.7-1-1-1.7-1-.6 0-1.1.2-1.5.5-.4.3-.8.8-1 1.4v11.5h-2.9v-15.4h2.5z" id="path3568" fill="#0a090d"/><path class="st0" d="M181.9 220.1c0 2-.4 3.7-1.3 4.9-.9 1.2-2.1 1.8-3.7 1.8-.7 0-1.4-.1-2-.4-.6-.3-1.1-.7-1.5-1.3v7.3h-2.9v-21.3h2.6l.2 1.8c.4-.7.9-1.2 1.5-1.5.6-.3 1.3-.5 2-.5 1.6 0 2.8.7 3.7 2 .9 1.3 1.3 3.1 1.3 5.3v1.9zm-2.9-1.9c0-1.5-.2-2.7-.7-3.7-.5-1-1.2-1.4-2.2-1.4-.6 0-1.1.2-1.6.5-.4.4-.8.8-1.1 1.4v7.8c.3.6.6 1 1 1.3.4.3 1 .5 1.6.5 1 0 1.7-.4 2.2-1.2.5-.8.7-1.9.7-3.3v-1.9z" id="path3570" fill="#0a090d"/><path class="st0" d="M213.1 226.5c-.1-.3-.2-.7-.3-1-.1-.3-.1-.7-.1-1-.4.7-1 1.3-1.6 1.7-.6.4-1.4.7-2.1.7-1.3 0-2.3-.4-3-1.2-.7-.8-1.1-1.9-1.1-3.3 0-1.5.5-2.6 1.5-3.5 1-.8 2.4-1.3 4.2-1.3h2.1V216c0-.9-.2-1.7-.6-2.2-.4-.5-1-.8-1.8-.8-.7 0-1.2.2-1.7.7-.4.5-.6 1.1-.6 1.8h-2.7v-.1c0-1.2.4-2.2 1.4-3.2 1-.9 2.3-1.4 3.9-1.4 1.5 0 2.7.4 3.7 1.3.9.9 1.4 2.2 1.4 3.8v7.1c0 .6 0 1.2.1 1.7s.2 1.1.3 1.6h-3zm-3.4-1.9c.7 0 1.3-.2 1.8-.6.6-.4 1-.9 1.2-1.5v-3.2h-2.2c-.9 0-1.6.3-2.1.8-.5.6-.7 1.3-.7 2.1 0 .7.2 1.3.5 1.7.4.5.8.7 1.5.7z" id="path3572" fill="#0a090d"/><path class="st0" d="M242.2 211.1l.2 2.3c.4-.8 1-1.4 1.6-1.9.7-.4 1.4-.7 2.2-.7 1.3 0 2.4.5 3.1 1.5.7 1 1.1 2.5 1.1 4.6v9.5h-2.9V217c0-1.4-.2-2.4-.6-3-.4-.6-1-.9-1.8-.9-.6 0-1.1.2-1.6.5-.5.4-.8.9-1.1 1.5v11.4h-2.9v-15.4h2.7z" id="path3574" fill="#0a090d"/><path class="st0" d="M278.7 221.2l.2 1h.1l3-11.1h3.1l-5.4 17.8c-.4 1.1-.8 2-1.5 2.7-.6.7-1.5 1.1-2.7 1.1-.2 0-.5 0-.8-.1-.3-.1-.5-.1-.8-.2l.3-2.1c.1 0 .2 0 .4.1h.4c.6 0 1-.2 1.3-.7.3-.5.6-1 .8-1.7l.5-1.6-4.7-15.3h3.1l2.7 10.1z" id="path3576" fill="#0a090d"/></g><path class="st1" id="rect3578" fill="none" d="M1.2 85.9h338.4V255H1.2z"/></g></svg>