<svg id="Layer_1" xmlns="http://www.w3.org/2000/svg" viewBox="0 0 500 200"><style>.st0{fill:#4E5D60;} .st1{fill:#1D7F36;}</style><path class="st0" d="M50 88.2h18v2.4H53.2V98h12.2v2.3H53.2v8.7h16.1v2.4H50V88.2zM108.1 99.6L96.7 88.2h3.7s8 8.1 9.7 9.7c1.8-1.6 9.7-9.7 9.7-9.7h3.7l-11.4 11.4 11.8 11.7h-3.8l-10-9.9-10 9.9h-3.8l11.8-11.7zM162.5 88.2h3.9l11.6 23.1h-3.3l-3-6H157l-2.9 6h-3.2l11.6-23.1zm8.1 15l-6.3-12.7-6.3 12.7h12.6zM206.7 88.2h2.6l18.8 19.3V88.2h2.8v23.1h-2.7l-18.7-19V111.4h-2.8V88.2zM259.3 88.2h23.1v2.3h-9.9v20.7h-3.2V90.6h-9.9v-2.4zM310.7 88.2h18.1v2.4h-14.9V98h12.2v2.3h-12.2v8.7H330v2.4h-19.3V88.2z"/><g><path class="st1" d="M410 128.7v14.4l-33.3-19.3 33.3 4.9V53.5l-20 34.7 20 11.6-40 23.1 20-34.7-10-5.8-7.5 30.4V78.1l7.5 4.3 30-28.9-40 23.1v46.3l40 23.1 40-23.1z"/><path class="st1" d="M447.5 78.1v40.4L430 88.2l-20 11.6 40 23.1V76.6l-40-23.1 20 34.7z"/></g></svg>