<svg width="500" height="200" viewBox="0 0 500 200" xmlns="http://www.w3.org/2000/svg"><g fill="#2D363B" fill-rule="evenodd"><path d="M222.045 126.41c-9.034 6.76-15.227 1.817-8.18-13.07 5.624-11.874 13.976-29.83-5.91-29.83-8.012 0-13.125 4.206-18.523 9.717 1.136-2.386.682-9.545-6.762-9.716-.568-.055-1.25-.055-1.988-.055-3.977 0-9.148 2.556-12.216 4.26-1.023.57-.227 2.217.966 1.762 2.954-1.193 6.648-1.534 4.886 2.273 0 0-7.273 16.08-9.943 21.307-3.977 8.58-31.25 23.01-20.057.17 8.352-17.045 8.637-17.897 12.84-27.045 1.08-2.387-.965-2.898-2.272-1.08-2.727 3.75-5.397 4.83-8.92 5-3.352-4.545-9.49-6.59-14.773-6.59-21.818 0-42.784 20.965-42.784 38.238 0 9.375 5.965 14.49 14.033 14.49 9.205 0 18.693-4.263 21.99-8.297.567 4.49 2.726 8.296 9.6 8.296 11.592 0 24.83-11.592 26.422-14.604-1.59 3.125-1.875 3.864-2.216 4.603-3.808 7.896 8.635 14.77 12.896 5.794l12.273-25.852c3.124-6.59 8.238-12.16 15.226-12.16 8.523 0 4.83 8.978 1.99 14.717-1.308 2.67-5.058 10.737-5.058 10.737-4.432 9.49.17 16.762 10.966 16.762 3.864 0 11.307-1.422 17.273-7.785 1.307-1.59 0-3.353-1.762-2.046zm-93.522-13.524c-3.012 6.705-9.546 12.614-16.534 12.614-4.206 0-6.48-3.068-6.48-7.102 0-9.205 8.524-24.318 20.74-24.318 3.807 0 5.852 2.613 5.852 6.363.057 2.443-.454 5.568-3.58 12.443z"/><path d="M278.295 50.273h-16.59c-59.09 0-44.944 40.795-19.944 40.795 2.558 0 2.5-2.954 0-2.954-10.965 0-18.692-26.534 13.24-26.534h21.25c9.943 0 20.51 4.204 20.51 15.113 0 23.75-24.77 48.807-46.59 48.807h-4.318l23.637-49.886c3.52-8.41-8.354-14.432-13.07-5.512l-24.375 51.25c-2.5 5.284-3.977 8.637-3.977 10.796 0 3.693 4.318 4.09 15 4.09h5.17c28.07 0 65.228-27.33 65.228-58.238-.057-14.773-9.886-27.727-35.17-27.727zM95.966 93.795c1.193-2.386 2.33-4.602 2.67-5.625a1.708 1.708 0 0 0-1.59-2.272h-23.75L84.83 61.58h27.386c2.273 0 4.148-1.194 5.17-3.24 1.194-2.33 2.046-4.317 2.444-5.17.738-1.59-.285-2.727-1.364-2.727h-49.26c-59.092 0-44.945 40.682-19.945 40.682 2.558 0 2.5-2.955 0-2.955-10.965 0-18.692-26.59 13.24-26.59h6.534s-23.068 48.693-31.76 66.534c-4.15 8.522-2.785 22.16 4.374 22.16.852 0 1.307-.4 1.76-1.365a98742.69 98742.69 0 0 1 24.547-51.705h22.897c2.273-.057 4.148-1.478 5.114-3.41zm374.204-28.75c1.648-3.465 2.273-6.306 2.273-8.465 0-4.546-3.58-6.194-7.954-6.194-.342 0-.683 0-1.024.057-3.977.057-9.034 2.557-12.046 4.262-1.022.568-.227 2.215.966 1.76 2.955-1.192 6.648-1.533 4.887 2.274 0 0-1.42 3.35-3.012 6.703l-.055.17c-.34.74-.682 1.478-1.08 2.16L437.84 100.5c0 .057-.056.114-.056.114l-.227.454c-5.91 12.387-21.08 24.432-36.193 24.432-3.296 0-5.853-.51-7.784-1.364 16.93-8.41 32.556-19.943 32.556-30 0-5.738-3.693-10.568-12.16-10.568-19.828 0-41.362 19.262-41.362 34.602 0 1.932.227 3.694.68 5.285-4.26 1.306-7.896 2.102-10.226 2.102-5.34 0-5.113-3.523-3.92-6.705l11.932-25.227c3.75-7.84-8.58-15.17-13.125-5.284l-13.012 27.103c-2.84 5.852-9.716 10.17-16.023 10.17-8.806 0-3.522-9.318-.738-15.056l7.67-16.25c2.103-4.375.228-8.125-2.727-9.773a5.482 5.482 0 0 0-1.136-.51c-.797-.285-1.65-.4-2.558-.4-.512-.056-1.08-.056-1.705-.056-3.977 0-9.147 2.557-12.216 4.262-1.02.568-.226 2.215.967 1.76 2.955-1.192 6.59-1.533 4.887 2.274l-7.728 16.193c-4.886 10.113-12.727 28.352 6.99 28.352 8.465 0 15.397-4.774 20.85-10.853-.34 6.307 4.547 10.852 14.888 10.852 4.716 0 12.727-2.046 21.647-5.4 4.888 4.15 12.104 5.4 18.013 5.4 11.932 0 23.01-5.455 31.818-13.92-2.442 8.124 2.274 14.09 11.99 14.09 3.863 0 11.306-1.42 17.272-7.84 1.42-1.535.114-3.297-1.647-1.99-9.035 6.76-15.228 1.76-8.182-13.068l22.897-48.637zm-62.5 28.92c2.5 0 3.58 1.194 3.58 3.07 0 6.874-11.023 14.6-22.784 20.283-1.08-9.318 10.568-23.352 19.204-23.352z"/></g></svg>