<svg xmlns="http://www.w3.org/2000/svg" width="500" height="200" viewBox="0 0 500 200"><g fill="#40A1DB"><path d="M47.148 62.852L41.012 76.41c-1-.345-2.03-.654-3.11-.93-1.08-.275-2.254-.424-3.52-.424-2.895 0-5.2 1.01-6.92 3.01-1.815 2.09-2.73 4.535-2.73 7.336v12.773H39.69v14.114H24.732v65.583H9.792V112.29H0V98.174h9.793v-11.85c0-7.057 2.03-12.89 6.125-17.506 4.702-5.257 11.27-7.885 19.7-7.885 2.07 0 4.148.144 6.23.43 1.98.25 3.753.762 5.3 1.487M121.557 123.97H63.87c0 5.145 2.147 9.488 6.486 13.012 4.262 3.543 9.17 5.31 14.7 5.31 7.956 0 14.645-3.61 20.093-10.876l12.628 7.07c-4.185 5.354-9.076 9.513-14.696 12.497-5.61 3.077-11.503 4.608-17.642 4.608-11.57 0-20.998-3.796-28.238-11.4-6.707-7.045-10.054-15.566-10.054-25.524 0-9.87 3.347-18.332 10.054-25.414 7.24-7.69 16.667-11.53 28.238-11.53 8.602 0 16.442 3.13 23.516 9.377 8.394 7.53 12.6 17.526 12.6 30.012v2.86zm-17.507-12.514c-1.645-5.344-4.208-9.412-7.728-12.2-3.62-2.722-7.87-4.074-12.754-4.074-4.83 0-8.998 1.404-12.517 4.222-3.613 2.89-6.023 6.912-7.18 12.053h40.18zM206.822 123.97h-57.677c0 5.145 2.155 9.488 6.5 13.012 4.25 3.543 9.157 5.31 14.69 5.31 7.952 0 14.646-3.61 20.09-10.876l12.627 7.07c-4.185 5.354-9.074 9.513-14.696 12.497-5.625 3.077-11.49 4.608-17.638 4.608-11.575 0-20.994-3.796-28.24-11.4-6.708-7.045-10.055-15.566-10.055-25.524 0-9.87 3.347-18.332 10.055-25.414 7.245-7.69 16.665-11.53 28.24-11.53 8.598 0 16.44 3.13 23.51 9.377 8.393 7.53 12.593 17.526 12.593 30.012v2.858h.002zm-17.496-12.514c-1.64-5.344-4.213-9.412-7.727-12.2-3.618-2.722-7.883-4.074-12.77-4.074-4.818 0-8.985 1.404-12.498 4.222-3.627 2.89-6.03 6.912-7.188 12.053h40.182zM290.61 153.705H275.7v-8.554c-2.56 3.252-5.805 5.783-9.78 7.59-4.07 1.907-8.512 2.845-13.31 2.845-10.782 0-19.602-3.876-26.487-11.66-6.343-7.143-9.52-15.556-9.52-25.263 0-9.427 3.27-17.748 9.788-24.972 7.166-7.98 16.122-11.97 26.887-11.97 4.98 0 9.41.954 13.297 2.855 3.793 1.893 6.753 4.433 8.854 7.626l.273-29.352h14.91v90.855zm-14.384-35.043c0-6.232-2.142-11.568-6.403-16.02-4.237-4.45-9.353-6.658-15.312-6.658-6.17 0-11.372 2.173-15.62 6.534-4.35 4.43-6.533 9.822-6.533 16.144 0 6.25 2.183 11.604 6.533 16.05 4.327 4.416 9.538 6.618 15.62 6.618 5.87 0 10.987-2.202 15.343-6.62 4.244-4.367 6.373-9.71 6.373-16.048M361.23 83.61l-33.68 55.974h32.88v14.114h-57.714l33.556-55.785h-30.708V83.61M442.16 153.705h-14.923v-8.554c-2.536 3.252-5.808 5.783-9.78 7.59-4.057 1.907-8.498 2.845-13.287 2.845-10.784 0-19.622-3.876-26.487-11.66-6.346-7.143-9.526-15.556-9.526-25.263 0-9.427 3.27-17.748 9.792-24.972 7.158-7.98 16.113-11.97 26.888-11.97 4.97 0 9.4.954 13.287 2.855 3.797 1.893 6.747 4.433 8.85 7.626l.264-8.594h14.923v70.1h-.002zm-14.373-35.043c0-6.232-2.15-11.568-6.408-16.02-4.246-4.45-9.356-6.658-15.313-6.658-6.174 0-11.374 2.173-15.623 6.534-4.356 4.43-6.534 9.822-6.534 16.144 0 6.25 2.178 11.604 6.534 16.05 4.328 4.416 9.54 6.618 15.623 6.618 5.875 0 10.99-2.202 15.346-6.62 4.236-4.367 6.374-9.71 6.374-16.048M461.464 83.615h14.92v70.09h-14.92z"/></g><path fill="#90C25A" d="M500 22.127l-5.056 46.203-11.656-10.856c-1.816 1.076-27.996 16.116-46.958 1.04 0 0 14.92 4.41 30.596-16.31L454.266 30.4 500 22.127z"/></svg>