<svg xmlns="http://www.w3.org/2000/svg" viewBox="0 0 527.411 169.398" width="500" height="200"><path fill="#fff" d="M468.507 0H212.32c-21.707 0-40.695 11.812-50.912 29.337C151.192 11.812 132.204 0 110.498 0H58.9C26.422 0 0 26.425 0 58.905v51.587c0 32.48 26.423 58.906 58.902 58.906h409.605c32.48 0 58.903-26.425 58.903-58.906V58.905C527.41 26.425 500.987 0 468.507 0z"/><path fill="#09f" d="M468.507 153.383c23.687 0 42.888-19.2 42.888-42.89V58.905c0-23.69-19.2-42.89-42.888-42.89H212.32c-23.686 0-42.887 19.198-42.887 42.89v94.478h299.074z"/><path fill="#006" d="M153.384 153.383V58.905c0-23.69-19.2-42.89-42.887-42.89H58.902c-23.686 0-42.887 19.198-42.887 42.89v51.587c0 23.69 19.2 42.89 42.887 42.89h94.482z"/><path fill="#fff" d="M320.156 75.275h19.62v53.21h-19.62zM262.912 86.28c0-5.528 3.813-11.005 13.07-11.005h28.42v15.613H285.79c-2.498 0-3.255.992-3.255 2.664v7.472h21.867v15.61h-21.867v11.852h-19.623V86.28zm112.253 4.82h10.4c2.408 0 3.245.83 3.245 3.234l-.008 34.152h19.632V86.49c0-5.527-3.815-11.004-13.07-11.004h-39.823l-.01 53h19.635V91.1zm67.554 0h10.4c2.407 0 3.244.83 3.244 3.234l-.01 34.152h19.635V86.49c0-5.527-3.816-11.004-13.07-11.004h-39.824l-.01 53h19.633V91.1z"/></svg>