<svg width="500" height="200" xmlns="http://www.w3.org/2000/svg"><g stroke="null"><path fill="#666" d="M7.53 140.392V97.806H.2v-1.98h7.33V87.84c0-6.157 1.173-10.922 3.518-14.367s5.644-5.13 9.822-5.13c1.906 0 3.665.294 5.35.953 1.687.587 3.006 1.393 3.886 2.42l-1.54 1.172c-.806-.806-1.832-1.393-3.225-1.906-1.39-.514-2.857-.734-4.323-.734-3.665 0-6.524 1.54-8.503 4.545-1.98 3.006-2.932 7.404-2.932 13.12v7.99h15.1v1.98H9.436v42.66H7.53v-.148zm50.356-48.376c-4.838.22-8.943 1.76-12.388 4.69-3.445 2.933-5.864 6.89-7.256 11.948v31.885h-1.98V89.89h1.98v13.047c1.76-3.59 4.104-6.523 7.036-8.796 2.932-2.27 6.084-3.664 9.382-4.03.66-.073 1.247-.147 1.833-.147s1.026-.073 1.393-.073v2.126zm27.56 49.476c-3.3 0-6.45-.733-9.31-2.126a24.301 24.301 0 0 1-7.622-5.644c-2.2-2.345-3.885-5.13-5.13-8.356a27.155 27.155 0 0 1-1.907-10.042c0-3.59.66-6.89 1.906-10.04a27.213 27.213 0 0 1 5.204-8.357 24.548 24.548 0 0 1 7.696-5.718c2.932-1.393 6.01-2.126 9.236-2.126s6.303.733 9.235 2.125 5.497 3.298 7.623 5.717c2.2 2.42 3.884 5.204 5.204 8.356 1.32 3.15 1.98 6.523 1.98 10.04 0 3.52-.66 6.818-1.907 10.043a28.503 28.503 0 0 1-5.13 8.356c-2.2 2.346-4.692 4.252-7.624 5.644-3.004 1.466-6.156 2.126-9.454 2.126zm-22.063-25.874c0 3.225.586 6.303 1.76 9.235 1.172 2.932 2.71 5.498 4.69 7.623 1.98 2.2 4.325 3.885 6.964 5.13 2.638 1.247 5.497 1.907 8.575 1.907 3.006 0 5.79-.66 8.503-1.98 2.712-1.32 5.058-3.078 7.11-5.277 2.052-2.2 3.665-4.764 4.838-7.696 1.172-2.932 1.76-6.01 1.76-9.31a24.65 24.65 0 0 0-1.76-9.234c-1.173-2.932-2.786-5.498-4.765-7.697s-4.398-3.96-7.036-5.278c-2.712-1.32-5.498-1.98-8.503-1.98s-5.792.66-8.504 1.98a22.772 22.772 0 0 0-7.036 5.277 26.985 26.985 0 0 0-4.765 7.77c-1.246 3.077-1.832 6.23-1.832 9.528zm98 24.92h-1.98v-28.292c0-7.403-1.026-12.754-3.078-16.126-2.052-3.37-5.35-5.057-9.895-5.057-2.492 0-4.91.44-7.257 1.32-2.345.88-4.544 2.125-6.597 3.664a25.535 25.535 0 0 0-5.277 5.57 24.831 24.831 0 0 0-3.3 6.89v31.885h-1.98V89.89H124v13.047c1.027-1.98 2.346-3.885 3.96-5.57s3.37-3.152 5.35-4.398a31.84 31.84 0 0 1 6.23-2.86c2.2-.66 4.47-1.026 6.743-1.026 5.204 0 9.016 1.832 11.36 5.57 2.42 3.74 3.593 9.602 3.593 17.592v28.146l.147.147zm35.036-2.344c-.954.66-1.833 1.1-2.713 1.465-.806.293-1.76.66-2.86.952s-2.344.44-3.664.44c-2.345 0-4.397-.733-6.157-2.126-1.76-1.392-2.638-3.298-2.638-5.643V91.87h-7.33v-1.98h7.33V72.298h1.98V89.89h12.166v1.98h-12.167v41.266c0 1.906.733 3.298 2.125 4.325a7.816 7.816 0 0 0 4.69 1.54c1.1 0 2.127-.147 3.08-.367.953-.22 1.832-.513 2.565-.806a22.17 22.17 0 0 0 1.76-.806c.44-.292.66-.44.733-.512l1.1 1.54v.146zm28.292 3.298c-3.298 0-6.45-.733-9.382-2.126s-5.497-3.298-7.77-5.717c-2.2-2.42-3.958-5.278-5.277-8.504-1.32-3.225-1.98-6.596-1.98-10.26 0-3.593.587-6.89 1.833-10.043 1.246-3.08 2.932-5.864 5.13-8.21 2.2-2.345 4.692-4.178 7.624-5.497 2.86-1.32 6.01-1.98 9.31-1.98 3.37 0 6.523.66 9.454 2.053s5.498 3.225 7.697 5.57 3.886 5.058 5.205 8.283c1.32 3.152 1.98 6.597 1.98 10.188v1.1h-46.252c.293 3.226 1.026 6.304 2.272 9.09s2.932 5.277 4.91 7.33 4.326 3.738 6.964 4.91c2.638 1.173 5.423 1.833 8.355 1.833 1.98 0 3.812-.293 5.718-.806a21.76 21.76 0 0 0 5.204-2.2c1.612-.952 3.078-2.052 4.25-3.37a16.345 16.345 0 0 0 2.933-4.252l1.833.513a16.92 16.92 0 0 1-3.08 4.837c-1.318 1.466-2.858 2.712-4.69 3.812-1.76 1.1-3.738 1.906-5.864 2.565-1.98.587-4.18.88-6.378.88zm21.77-27.047c-.22-3.372-.88-6.45-2.126-9.31-1.246-2.858-2.86-5.276-4.838-7.33a21.72 21.72 0 0 0-6.89-4.836c-2.565-1.174-5.35-1.76-8.356-1.76-3.005 0-5.79.586-8.356 1.76-2.565 1.17-4.91 2.784-6.89 4.836s-3.518 4.545-4.69 7.403c-1.174 2.858-1.833 5.937-2.053 9.235h44.2zm52.848 26.094h-1.98v-28.294c0-7.403-1.026-12.754-3.078-16.126-2.052-3.37-5.35-5.057-9.895-5.057-2.492 0-4.91.44-7.257 1.32-2.345.88-4.544 2.125-6.597 3.664a25.535 25.535 0 0 0-5.277 5.57 24.853 24.853 0 0 0-3.298 6.89v31.885h-1.98V89.89h1.98v13.047c1.026-1.98 2.345-3.885 3.958-5.57s3.37-3.152 5.35-4.398a31.947 31.947 0 0 1 6.23-2.86c2.2-.66 4.472-1.026 6.744-1.026 5.204 0 9.016 1.832 11.36 5.57 2.42 3.74 3.593 9.602 3.593 17.592v28.146l.147.147zm36.43.952c-3.52 0-6.745-.733-9.75-2.272-3.005-1.466-5.57-3.445-7.77-5.937a27.174 27.174 0 0 1-5.057-8.356c-1.173-3.08-1.832-6.304-1.832-9.53 0-3.518.587-6.816 1.76-9.968 1.172-3.153 2.785-5.938 4.91-8.357a23.653 23.653 0 0 1 7.477-5.717c2.86-1.393 5.937-2.126 9.31-2.126 2.344 0 4.543.367 6.596 1.027 2.052.66 3.958 1.612 5.717 2.712 1.76 1.098 3.298 2.49 4.69 3.957 1.394 1.54 2.64 3.15 3.666 4.837v-32.25h1.98v67.14c0 1.32.512 1.98 1.538 1.98v1.978c-.586 0-1.026-.073-1.246-.22-.733-.293-1.246-.806-1.686-1.54a4.47 4.47 0 0 1-.586-2.198v-6.597c-1.1 1.686-2.42 3.226-3.812 4.618-1.465 1.393-3.078 2.64-4.764 3.665s-3.518 1.833-5.424 2.42c-1.832.512-3.81.732-5.717.732zm0-1.906c1.978 0 4.03-.44 6.302-1.246 2.273-.806 4.398-1.98 6.304-3.372 1.98-1.392 3.592-3.005 4.91-4.91 1.32-1.906 2.053-3.885 2.2-5.938v-18.398c-.733-1.98-1.832-3.884-3.298-5.717-1.466-1.76-3.152-3.372-5.058-4.69-1.906-1.32-3.885-2.42-6.01-3.153-2.126-.806-4.252-1.172-6.23-1.172-3.3 0-6.304.732-8.87 2.125-2.64 1.393-4.91 3.225-6.743 5.498-1.906 2.272-3.3 4.837-4.325 7.77-1.026 2.93-1.54 5.863-1.54 8.868 0 3.153.587 6.232 1.76 9.09a27.636 27.636 0 0 0 4.764 7.696c1.98 2.273 4.398 4.032 7.11 5.35 2.712 1.394 5.57 2.054 8.723 2.054v.146z"/><path fill="#5DC4C6" d="M379.445 140.76V67.313c0-.44.146-.806.513-1.173.366-.292.733-.512 1.246-.512h15.172c.44 0 .807.147 1.173.513.292.295.512.734.512 1.174 0 .44-.146.88-.513 1.246-.294.367-.734.513-1.174.513h-13.413v70h13.413c.44 0 .807.147 1.173.513.292.367.512.733.512 1.246s-.146.807-.513 1.173c-.294.293-.734.513-1.174.513H381.2c-.44 0-.88-.146-1.246-.513-.367-.366-.513-.733-.513-1.246z"/><path fill="#666" d="M427.968 138.047c-.953.66-1.833 1.1-2.712 1.466-.807.293-1.76.66-2.86.953s-2.344.44-3.664.44c-2.345 0-4.398-.733-6.157-2.126-1.76-1.393-2.638-3.3-2.638-5.644V91.87h-7.33v-1.98h7.33V72.298h1.98V89.89h12.166v1.98h-12.167v41.266c0 1.906.732 3.298 2.125 4.325a7.82 7.82 0 0 0 4.692 1.54c1.1 0 2.126-.147 3.08-.367.952-.22 1.83-.513 2.564-.806a22.17 22.17 0 0 0 1.76-.806c.44-.292.66-.44.732-.512l1.1 1.54zm25.14 2.345L431.12 89.89h2.125l20.744 47.717L474.73 89.89h2.126l-21.99 50.502h-1.76z"/><path fill="#5DC4C6" d="M481.695 141.932c-.293-.293-.513-.733-.513-1.173s.147-.88.513-1.247c.294-.367.733-.513 1.173-.513h13.414V69.073h-13.414c-.44 0-.88-.146-1.173-.513-.293-.366-.513-.733-.513-1.246 0-.44.147-.806.513-1.173.294-.292.733-.512 1.173-.512h15.173c.44 0 .88.147 1.247.513.366.295.513.734.513 1.174v73.445c0 .44-.147.805-.513 1.172-.367.293-.733.513-1.246.513H482.87c-.44 0-.806-.147-1.173-.513zm-40.827-76.524c-.586.66-2.052.22-3.225-.88l-15.54-14.952c-1.172-1.1-1.612-2.565-1.025-3.152.586-.66 2.052-.22 3.225.88l15.54 14.953c1.172 1.026 1.612 2.492 1.025 3.15z"/><circle stroke="#5DC4C6" fill="none" stroke-width="4" stroke-miterlimit="10" cx="417.706" cy="43.199" r="5.717"/><path fill="#5DC4C6" d="M439.476 65.408c.586.66 2.052.22 3.225-.88l15.54-14.952c1.173-1.1 1.612-2.565 1.026-3.152-.586-.66-2.052-.22-3.225.88l-15.538 14.953c-1.173 1.026-1.613 2.492-1.026 3.15z"/><circle stroke="#5DC4C6" fill="none" stroke-width="4" stroke-miterlimit="10" cx="462.638" cy="43.199" r="5.717"/></g></svg>