<svg width="500" height="200" viewBox="0 0 500 200" style="background-color:#000" xmlns="http://www.w3.org/2000/svg"><g fill="none" fill-rule="evenodd"><path d="M86.45 95.451H65V7h57.156v20.598H86.451v15.794h35.684v20.092H86.45v31.967zm41.388-28.431V7h21.574v59.895c0 13.266 24.985 13.014 24.985 0V7h21.574v60.02c0 19.964-17.161 29.821-34.193 29.695-17.036 0-33.94-9.73-33.94-29.695zm73.809 28.431V7h16.656l30.53 44.225V7h21.325v88.451H253.25l-30.152-43.088v43.088h-21.451zm74.242 0V7h16.655l30.532 44.225V7h21.323v88.451H327.49l-30.152-43.088v43.088h-21.45zm125.824-35.759V95.45h-21.577V59.818L347.248 7h24.942l8.832 14.151 9.966 18.07 10.477-19.207L409.536 7h25.23l-33.053 52.692z" fill="#FFE100"/><path d="M211.39 129.244h16.28v11.694h-48.083v-18.713c0-19.125 23.563-21.945 30.639-7.153l17.445-11.801v14l-16.28 10.046v1.927zm-10.648 0v-6.743c0-7.086-9.89-7.15-9.89 0v6.743h9.89z" fill="#3FB1EA"/><path d="M267.209 103.272c29.673 0 44.576 22.64 44.576 45.156 0 22.512-14.903 44.897-44.576 44.897h-33.912v-90.053h33.912zm0 69.082c15.156 0 22.866-12.094 22.866-23.926 0-11.84-7.709-24.316-22.866-24.316h-12.075v48.243h12.075v-.001zm48.268 20.971v-90.053h21.964v90.053h-21.964zm49.89-21.225h37.248v21.225h-59.343v-90.053h59.216V124.5h-37.121v13.122h37.102v21.353h-37.102v13.124z" fill="#ED1C24"/><path d="M203.594 143.803c-13.677 0-24.762 11.1-24.762 24.795 0 13.697 11.085 24.802 24.762 24.802 13.673 0 24.763-11.105 24.763-24.802-.001-13.696-11.09-24.795-24.763-24.795zm0 38.405c-7.505 0-13.589-6.092-13.589-13.61 0-7.513 6.084-13.605 13.59-13.605 7.505 0 13.587 6.093 13.587 13.605 0 7.519-6.082 13.61-13.588 13.61z" fill="#3FB1EA"/></g></svg>