<svg id="Layer_2" data-name="Layer 2" xmlns="http://www.w3.org/2000/svg" xmlns:xlink="http://www.w3.org/1999/xlink" viewBox="0 0 822.04688 215"><defs><linearGradient id="linear-gradient" x1="-1.11229" y1="555.24286" x2="-0.34572" y2="555.24286" gradientTransform="matrix(136, 0, 0, -136, 277.85, 75640.037)" gradientUnits="userSpaceOnUse"><stop offset="0" stop-color="#2f2348"/><stop offset="0.11798" stop-color="#2f2348"/><stop offset="0.29213" stop-color="#3c355d"/><stop offset="1" stop-color="#494977"/></linearGradient><linearGradient id="linear-gradient-2" x1="-0.57343" y1="555.19752" x2="0.19353" y2="555.19752" gradientTransform="matrix(289, -50, -50, -289, 28124.444, 160511.33)" gradientUnits="userSpaceOnUse"><stop offset="0" stop-color="#715f9e"/><stop offset="0.03933" stop-color="#715f9e"/><stop offset="0.32022" stop-color="#8a98c6"/><stop offset="0.51124" stop-color="#b0b9db"/><stop offset="0.9382" stop-color="#e0e3f3"/><stop offset="1" stop-color="#e0e3f3"/></linearGradient><linearGradient id="linear-gradient-3" x1="-0.57331" y1="555.20996" x2="0.19301" y2="555.20996" gradientTransform="matrix(289, -50, -50, -289, 28124.444, 160511.33)" gradientUnits="userSpaceOnUse"><stop offset="0" stop-color="#7f6da7"/><stop offset="0.03933" stop-color="#7f6da7"/><stop offset="0.32022" stop-color="#97a3cd"/><stop offset="0.51124" stop-color="#b9c0de"/><stop offset="0.9382" stop-color="#e3e6f4"/><stop offset="1" stop-color="#e3e6f4"/></linearGradient></defs><title>fc_logo</title><path d="M232.71089,122.4107c21.22511,1.1108,42.3189,2.229,63.1162,3.2915,20.6314,1.0488,41.1802,2.1386,61.481,3.1743a17.32354,17.32354,0,0,0,2.8018-9.4194c-.2007-11.9507-14.3111-22.5289-37.1372-30.03621-23.0884-7.59709-55.2706-12.082-91.2276-11.59229-36.543.5176-69.99559,6.086-94.353,14.6768-24.6133,8.68749-39.7246,20.397-39.3242,33.0444.3174,12.6416,16.0913,23.62009,41.0351,31.086,24.7168,7.4033,58.2383,11.3369,94.58109,10.1367q-.4659-22.1397-.9732-44.3618" style="fill:#233a76;fill-rule:evenodd"/><path d="M232.71089,122.4107l-.0478.9311c21.2246,1.1045,42.3115,2.2222,63.1162,3.2847,20.6313,1.0557,41.1802,2.1391,61.48,3.1748a.93277.93277,0,0,0,.8349-.4419,18.23207,18.23207,0,0,0,2.94681-9.66751v-.248a18.02562,18.02562,0,0,0-2.81491-9.14989c-2.6778-4.3609-7.1289-8.3697-13.042-12.0132a104.84384,104.84384,0,0,0-21.9219-9.7427c-22.0806-7.2593-52.3101-11.6753-86.2036-11.6753-1.7671,0-3.5464.0137-5.3272.0342-36.63329.52489-70.16109,6.1001-94.64989,14.7393-12.2133,4.3051-22.1289,9.3559-29.0498,14.9663a34.88377,34.88377,0,0,0-8.0385,8.8388,18.49691,18.49691,0,0,0-2.8633,9.6187c0,.1733,0,.3452.0063.5176v-.0069a18.31194,18.31194,0,0,0,3.1885,9.6255c2.9941,4.5679,7.9277,8.7217,14.4556,12.4629a115.5811,115.5811,0,0,0,24.0542,9.8662c21.9009,6.5557,50.5849,10.3848,82.01509,10.3926q6.36555,0,12.8623-.2149a.92909.92909,0,0,0,.897-.9521q-.4563-22.1397-.9658-44.3608l-.9322.0205-.0478.9311.0478-.9311-.9238.0278q.5274,22.21215.9658,44.3535l.9312-.0195-.0342-.9248q-6.45915.20655-12.8003.206c-31.27829,0-59.81739-3.8222-81.477-10.3076-12.4063-3.7129-22.5015-8.2949-29.4707-13.4565a32.74346,32.74346,0,0,1-8.0181-8.107,16.44321,16.44321,0,0,1-2.8911-8.6596v-.0074c0-.1513-.0069-.3032-.0069-.4555a16.69606,16.69606,0,0,1,2.5943-8.6597c2.5737-4.271,7.0659-8.43851,13.1865-12.3306a114.45971,114.45971,0,0,1,22.936-10.68791C161.9292,84.8394,195.3052,79.271,231.752,78.7534q2.67029-.0315,5.30659-.0346c33.7275,0,63.8057,4.4023,85.624,11.5854,11.3438,3.7329,20.4863,8.2251,26.7661,13.2002a30.45157,30.45157,0,0,1,7.19,7.7627,16.11131,16.11131,0,0,1,2.5464,8.211v.21379a16.46074,16.46074,0,0,1-2.6709,8.69441l.7939.4902.04791-.9321c-20.30031-1.0347-40.84871-2.1182-61.48051-3.1739-20.7969-1.0625-41.8911-2.1801-63.1157-3.28461a.93118.93118,0,0,0-.9727.95261l.9238-.0278" style="fill:#2e2c54"/><path d="M231.876,84.94289q.42478,18.74416.83489,37.46781c21.22511,1.1108,42.3189,2.229,63.1162,3.2915,20.6314,1.0488,41.1802,2.1386,61.481,3.1743q-.31125-18.186-.5317-36.4263c-20.3345-1.21431-40.918-2.4497-61.63239-3.6846-20.83831-1.2353-42.00831-2.5253-63.268-3.82271" style="fill:#2e2c54;fill-rule:evenodd"/><path d="M231.876,84.94289l-.94481.02051q.413,18.74415.8349,37.4683a.954.954,0,0,0,.897.9311c21.2178,1.1045,42.3115,2.2222,63.1162,3.2847,20.6313,1.0556,41.1802,2.1391,61.48,3.1738a.96936.96936,0,0,0,.7114-.2617.98967.98967,0,0,0,.2896-.7041q-.3114-18.17505-.5381-36.419a.95446.95446,0,0,0-.8907-.9384c-20.3349-1.2144-40.9179-2.4497-61.6318-3.6778-20.8315-1.2353-42.0083-2.52541-63.26169-3.8232a.9155.9155,0,0,0-.71731.2627.94347.94347,0,0,0-.2895.7036l.94481-.02051-.05471.95211c21.2593,1.29689,42.4292,2.5874,63.2676,3.8228q31.0722,1.842,61.6255,3.6777l.062-.9453-.9522.01369q.249,18.21676.5313,36.42631l.9526-.0137.04791-.9522c-20.30031-1.0356-40.84181-2.1191-61.48051-3.1748-20.7969-1.0625-41.8911-2.1801-63.1094-3.2837l-.0552.9449.9522-.0205q-.4131-18.72375-.8345-37.46831l-.95259.021-.05471.95211.05471-.95211" style="fill:#2e2c54"/><path d="M356.77339,92.4492q.24692,18.21765.5332,36.4234c.125-.187.2505-.374.3755-.5855a6.24892,6.24892,0,0,1,.334-.584,5.47756,5.47756,0,0,1,.2935-.5815c.084-.1865.1679-.3721.25241-.5864.084-.1865.168-.3736.25149-.5816a4.19725,4.19725,0,0,1,.2119-.5791,4.38469,4.38469,0,0,1,.2114-.6015,4.3125,4.3125,0,0,1,.2105-.5806,3.99974,3.99974,0,0,1,.1704-.6006c.0434-.1845.0859-.3681.1289-.5757.04341-.1845.0859-.4145.1289-.622a3.25468,3.25468,0,0,1,.0889-.59821,3.01645,3.01645,0,0,1,.0874-.57419,3.084,3.084,0,0,1,.0473-.5952c.0015-.1831.0044-.3887.00691-.5947.00139-.1836.00389-.3667.00529-.5728-.2031-12.1333-.4067-24.292-.5278-36.4726-.00149.206-.0049.4121-.0054.5947-.0029.206-.0044.4116-.0068.5947a3.06084,3.06084,0,0,0-.0474.5957,3.24626,3.24626,0,0,0-.0884.5972,3.18594,3.18594,0,0,0-.0874.5976c-.0434.2071-.0869.3911-.1303.5747-.0435.2071-.0869.4141-.1284.5992a4.717,4.717,0,0,0-.1709.5986,4.447,4.447,0,0,0-.212.60009,4.13723,4.13723,0,0,0-.2109.57861c-.085.208-.1694.416-.2534.6021-.0835.2085-.1685.3935-.2529.5791a5.45431,5.45431,0,0,0-.2935.58,4.78386,4.78386,0,0,0-.2524.5845,6.31248,6.31248,0,0,0-.334.6045A6.1171,6.1171,0,0,0,356.77339,92.4492Z" style="fill:#3b4272;fill-rule:evenodd"/><path d="M356.77339,92.4492l-.9502.01269q.2469,18.21766.5332,36.42681a.95038.95038,0,0,0,1.7408.5117c.1235-.18551.2602-.3891.40281-.6289l.04929-.0942c.0352-.0845.1416-.2539.2822-.4868l.0508-.0962a4.60163,4.60163,0,0,1,.24371-.4859l.05079-.0967c.083-.186.1743-.3881.2695-.6274l-.88429-.3491.86719.3901c.0835-.187.1733-.3877.2656-.6167l.0435-.1372a3.93217,3.93217,0,0,1,.1675-.439l.0459-.14451a3.86271,3.86271,0,0,1,.166-.46039l.0444-.1377a4.01679,4.01679,0,0,1,.1675-.4463l.042-.1333a3.20619,3.20619,0,0,1,.1289-.4654l.04251-.1357c.04339-.1855.08829-.3794.13419-.6011l-.9306-.1919.9253.2173c.0508-.2187.0937-.4521.1343-.6474l.019-.1797a2.72536,2.72536,0,0,1,.0693-.4156l.0201-.1875a2.49621,2.49621,0,0,1,.0673-.3872l.02011-.187a2.22571,2.22571,0,0,1,.02779-.41011l.0195-.18509c.0015-.1782.0044-.3833.0069-.5918v-.0024c.0014-.1812.0034-.3648.00481-.5738v-.0224c-.20261-12.1338-.40621-24.2901-.52781-36.4663a.95.95,0,0,0-1.8999.0024c-.0015.2017-.0044.4077-.0054.5977l.9502.0039-.9502-.01421c-.00289.211-.0044.41751-.0068.59721l.9502.0117-.9297-.1948a3.86938,3.86938,0,0,0-.0674.7788l.9497.0117-.9297-.1953a3.93962,3.93962,0,0,0-.1084.78469l.9497.00781-.9296-.19581a3.89556,3.89556,0,0,0-.108.78951l.9502.0039-.9296-.1948c-.0406.19239-.0816.3672-.125.5508l-.0054.0239c-.0435.2066-.086.40969-.126.584l.9273.21-.8921-.3282a5.66218,5.66218,0,0,0-.2036.7085l.9248.2183-.8804-.35791a5.15246,5.15246,0,0,0-.2564.73971l.9248.21829-.8818-.35449a4.89444,4.89444,0,0,0-.2549.7183l.9258.2148-.8809-.3579c-.0834.2075-.1655.4062-.23869.56929l-.01561.03621c-.0733.1831-.15039.3525-.2359.539l.8648.3946-.816-.4869a6.23767,6.23767,0,0,0-.3437.6758l.8662.3911-.8159-.4863a2.78038,2.78038,0,0,0-.2134.4478c-.0449.1191-.0713.1938-.0894.2324l.8663.3906-.816-.48731a7.16832,7.16832,0,0,0-.3857.70361l.8677.3882-.813-.4917a6.59426,6.59426,0,0,0-.3887.6807.94421.94421,0,0,0-.0845.40519l.9502-.01269.8653.3921c.0337-.08.1416-.25.2842-.4819l.0546-.10351a5.39678,5.39678,0,0,1,.2823-.50539l.0498-.0967c.0659-.1474.1035-.2597.1318-.3344a1.01166,1.01166,0,0,1,.0703-.1538l.05031-.0958a4.71268,4.71268,0,0,1,.24319-.4848l.04881-.0923c.084-.1846.17579-.3853.27049-.6187l-.8823-.3544.8662.3901c.0947-.209.1821-.4253.26761-.6343l.04489-.1431a3.90717,3.90717,0,0,1,.1675-.4389l.0429-.1358a3.71831,3.71831,0,0,1,.1675-.4609l.0445-.1392a3.96794,3.96794,0,0,1,.13771-.4897l.03509-.1177c.044-.1958.0884-.40721.1318-.61421l-.9301-.19489.9248.2188c.04341-.1841.0888-.377.1357-.5982l.02-.1914a2.60447,2.60447,0,0,1,.0674-.4062l.02-.1875a2.73,2.73,0,0,1,.0684-.4102l.02-.1831a2.30378,2.30378,0,0,1,.02691-.4121l.02049-.1836c.0019-.1865.0039-.3911.0068-.5927v-.0103c.0005-.1748.0034-.3809.0049-.5913l-.9497-.0068-.9502.0092c.1211,12.1851.32471,24.3457.5278,36.479l.9502-.0156-.9502-.0068c-.0014.2031-.0039.3852-.0053.5713v-.0025c-.0025.2041-.0054.4102-.0069.5982l.9502.0073-.9306-.1924a3.89815,3.89815,0,0,0-.0664.77979l.9497.00781-.9297-.19481a3.7348,3.7348,0,0,0-.1079.76171l.9502.00729-.9297-.19479a4.08614,4.08614,0,0,0-.1094.7812l.9502.0118-.9307-.1914c-.0449.21919-.0879.4453-.1235.5966l-.0054.0254c-.0395.1929-.0801.36619-.1235.5503l.9253.2168-.8828-.3525a4.90331,4.90331,0,0,0-.2124.7353l.9248.2178-.8828-.3511a4.95864,4.95864,0,0,0-.25349.7144l.92579.2173-.8813-.355a5.12461,5.12461,0,0,0-.2564.7432l.9263.2133-.88039-.3579a4.74922,4.74922,0,0,0-.25581.71929l.9243.21771-.8809-.3549c-.0757.187-.1538.3608-.2378.5463l-.0171.0415c-.0742.1885-.1504.358-.2348.545l.8667.3901-.8159-.4868a6.26492,6.26492,0,0,0-.3438.6777l.8662.3906-.8159-.4873a6.72834,6.72834,0,0,0-.3848.6812l.8667.3901-.8174-.4843c-.1079.1826-.2221.3535-.3491.542l.791.5278.9497-.0156q-.30615-18.173-.5327-36.4205l-.9502.0127.8653.3921Z" style="fill:#2e2c54"/><path d="M96.9517,87.0196c.3164,12.8676.7158,25.687,1.1152,38.52829.0425.79491.1269,1.56391.2104,2.33441.1661.7881.4141,1.5792.6211,2.3418.3301.7632.6192,1.4976.9493,2.2364.4126.7578.8242,1.4917,1.2778,2.247.5351.7271,1.0698,1.4541,1.6059,2.1573.6167.72309,1.2339,1.4214,1.8916,2.1172.7403.6987,1.48,1.3896,2.2613,2.0605.8628.6665,1.6855,1.3281,2.5478,1.9946.9449.6612,1.8902,1.2984,2.7935,1.9317,1.0268.6338,2.0537,1.2656,3.0806,1.874,1.1088.6045,2.2158,1.207,3.3662,1.8076,1.2309.6016,2.4214,1.1768,3.6118,1.7744,1.3135.5723,2.5854,1.1172,3.8574,1.66309,1.354.54011,2.7495,1.084,4.103,1.60161,1.4361.5166,2.8716,1.0283,4.3067,1.5136,1.5175.4883,3.0766.9747,4.5937,1.4317,1.5991.46,3.1577.915,4.7569,1.3506,1.6401.4326,3.2797.8584,4.9609,1.2646,1.7222.4033,3.4438.8067,5.1245,1.1826,1.7627.377,3.5249.7481,5.3291,1.0997,1.8442.34759,3.6475.6689,5.4917.9931,1.8853.3213,3.7295.6152,5.6553.9121,1.8847.2686,3.852.5381,5.8193.8067,1.9668.2402,3.9741.4834,5.9409.7226,2.0074.2207,4.0157.4102,6.064.6045,2.0483.1397,4.1382.30759,6.186.4707,2.0904.1397,4.22019.2822,6.30959.3975,2.1304.1113,4.3027.2051,6.4326.2939q3.25635.09524,6.51421.1924c2.17139.04,4.34179.0557,6.55419.0713,2.2134-.0078,4.42581-.0156,6.6792-.0498,2.2119-.0596,4.4663-.1172,6.7192-.1738q-.4167-18.61965-.8325-37.2705c-2.2168.0444-4.4746.0835-6.7319.123-2.2569-.0073-4.4327-.0137-6.649-.0225-2.2158-.0312-4.4316-.0634-6.6074-.1211-2.17479-.0576-4.3501-.1381-6.5259-.2246-2.1338-.1064-4.268-.2114-6.4433-.3447-2.09379-.1308-4.22659-.2895-6.32029-.4453-2.0523-.2031-4.1465-.3872-6.1973-.5674-2.0532-.209-4.064-.4389-6.1162-.6723-1.9707-.2325-3.9815-.4908-5.9526-.751-1.9288-.2818-3.8999-.5664-5.7881-.8491-1.9287-.3116-3.7769-.6202-5.6646-.95611-1.8481-.33839-3.6553-.67379-5.5024-1.03659-1.8067-.3643-3.5723-.7739-5.3379-1.1646-1.7656-.3916-3.4907-.8081-5.1748-1.2207-1.6836-.4184-3.3677-.8623-5.0103-1.3076-1.562-.4443-3.1626-.91551-4.7246-1.3833q-2.3415-.7464-4.5605-1.4927c-1.479-.5024-2.917-1.0249-4.3145-1.5498-1.397-.5302-2.7539-1.0815-4.1103-1.6338-1.3155-.5825-2.5899-1.1367-3.9058-1.7202-1.2334-.582-2.4263-1.1645-3.6587-1.7768-1.1108-.6123-2.2217-1.2237-3.332-1.8604-1.0694-.6142-2.0987-1.2558-3.1265-1.89651-.9468-.64449-1.8511-1.28509-2.7988-1.95409-.8643-.6728-1.7285-1.3701-2.5112-2.041-.7823-.6772-1.5235-1.3745-2.2657-2.0781-.6591-.7012-1.2768-1.4043-1.896-2.1567-.5356-.7076-1.0717-1.4385-1.6494-2.1739-.4126-.7319-.8672-1.4668-1.2798-2.2524-.33-.7407-.6191-1.502-.9502-2.2676-.208-.7891-.4155-1.5596-.582-2.32621C97.0781,88.60889,96.9946,87.815,96.9517,87.0196Z" style="fill-rule:evenodd;fill:url(#linear-gradient)"/><path d="M96.9502,87.02l-.9453.0206c.3105,12.8754.7109,25.6962,1.1108,38.5371v.021c.0484.8281.1314,1.6147.2139,2.3877l.0205.0898c.1797.8481.4282,1.6553.6284,2.3936l.0484.1318c.3242.7451.6137,1.4834.9516,2.249l.0352.062c.4135.7661.8344,1.51129,1.2968,2.2837l.0484.0767c.5381.7236,1.0762,1.4555,1.6147,2.1665l.0342.0415c.6211.7314,1.249,1.44189,1.9253,2.1523l.0347.042c.7451.6963,1.497,1.3999,2.2978,2.0903l.0342.0279c.8555.6626,1.6768,1.3242,2.5532,1.9936l.0347.0279c.9517.6694,1.8975,1.3042,2.7944,1.9321l.041.0283c1.0289.6338,2.0635,1.2686,3.0987,1.8838l.0273.0195c1.1113.6006,2.2222,1.208,3.3814,1.8155l.0273.0136c1.228.5996,2.4155,1.1729,3.6021,1.7666l.0415.02049c1.3178.57231,2.5942,1.11721,3.8637,1.66221l.021.0146c1.3594.5381,2.7603,1.0898,4.1197,1.6074l.0136.0069c1.4419.5185,2.8843,1.0283,4.3262,1.5185h.0137c1.5254.4961,3.0913.9795,4.6094,1.44239h.0141c1.5938.46191,3.1597.917,4.7676,1.35161l.0073.0078c1.6421.43359,3.2915.8623,4.9819,1.2685h.0069c1.7251.4014,3.4433.8086,5.1333,1.1875h.0073c1.7661.3789,3.5327.752,5.3477,1.1035h.0068c1.8491.3526,3.6572.67,5.499.9942h.0073c1.8907.3242,3.7398.6211,5.6719.918h.0069c1.8906.2685,3.8574.538,5.8305.8066h.0137c1.9668.2422,3.9746.4834,5.9414.7246h.0068c2.0152.22169,4.0298.4141,6.0791.6074h.0274c2.0356.1446,4.1265.3106,6.1758.4766h.0068c2.0908.13769,4.22309.2832,6.3208.3926h.00679c2.1324.11809,4.3125.208,6.438.2968h.0137c2.1733.0625,4.3403.1309,6.5137.1934h.0141c2.1734.042,4.34671.0547,6.562.0693h.0132c2.20851-.0078,4.4234-.0146,6.6866-.0488h.0141c2.208-.0615,4.4639-.1172,6.7139-.1719a.94955.94955,0,0,0,.9248-.9736q-.4146-18.61967-.8281-37.26711a.95952.95952,0,0,0-.9732-.93209c-2.2148.0483-4.4717.083-6.728.124l.0141.9526.0069-.9526c-2.2564-.0068-4.4302-.0137-6.6519-.02v.9448l.0137-.9448c-2.2148-.0347-4.4297-.06891-6.5962-.1245-2.167-.0552-4.3403-.1387-6.51419-.2207h.00689c-2.13189-.1109-4.2637-.2144-6.4307-.3452-2.084-.1309-4.21579-.2896-6.30659-.4488l-.0689.9527.0894-.9458c-2.0562-.20661-4.1538-.3931-6.2031-.5728l-.083.9526.0966-.9448c-2.0493-.2143-4.0571-.4419-6.1069-.6772-1.9595-.2276-3.9673-.4893-5.9341-.7447l-.124.938.1382-.938c-1.9322-.2832-3.9058-.5664-5.7896-.8491l-.1377.939.1514-.939c-1.9248-.31-3.7676-.6142-5.6514-.95161h.0074c-1.8492-.33839-3.6504-.66949-5.4927-1.03569h.0068c-1.7939-.3584-3.5532-.7656-5.3198-1.1587-1.7598-.3867-3.4775-.8008-5.1543-1.2148-1.6768-.4136-3.3535-.8555-4.9893-1.3042l-.248.918.2554-.9107c-1.5528-.44191-3.1465-.9106-4.7061-1.3804l-.2759.9107.2896-.9033c-1.5596-.4971-3.0703-.9942-4.5474-1.4908-1.4624-.497-2.8911-1.01411-4.2847-1.5385h.0069c-1.3867-.5249-2.7324-1.0699-4.0918-1.62161l-.3589.876.3862-.86919c-1.3178-.5864-2.5942-1.1387-3.9052-1.7182l-.3868.8696.4073-.8628c-1.2281-.5791-2.4146-1.1592-3.6431-1.7666l-.4209.8491.4556-.8281c-1.1114-.6143-2.2154-1.2212-3.3125-1.8565-1.0557-.6001-2.0699-1.2348-3.0977-1.8764l-.5039.80709.5313-.78659c-.9317-.6348-1.8355-1.27641-2.7808-1.9458l-.5518.7798.586-.752c-.8555-.66941-1.711-1.3525-2.4771-2.0151l.0073.0068c-.7661-.66211-1.4975-1.352-2.2358-2.0493l-.6558.6899.69-.6552c-.6416-.6831-1.2417-1.3731-1.8491-2.10451l-.7383.60011.7588-.5728c-.5313-.6968-1.0694-1.435-1.6558-2.1875l-.7519.5869.8276-.4692c-.4209-.7524-.8691-1.4766-1.2627-2.2222l-.8413.4419.8691-.38621c-.3174-.71089-.6074-1.46969-.9521-2.26369l-.8696.3799.9179-.2417c-.207-.79351-.414-1.5522-.5727-2.2837l-.9248.1997.9453-.10351c-.0899-.76559-.1656-1.54539-.2071-2.30419a.94938.94938,0,0,0-1.8974.0689l.9453-.0206-.9453.0484c.0415.8276.1308,1.6416.2139,2.41449l.0136.09671c.1724.80029.3867,1.5801.5938,2.3667l.0483.1382c.3174.7383.6069,1.50439.9517,2.2769l.0278.0556c.4346.8208.8901,1.56589,1.2905,2.2764l.0826.1177c.5659.7177,1.0976,1.4487,1.6352,2.1596l.0278.0347c.628.7656,1.2627,1.4834,1.939,2.2012l.0347.041c.7451.7041,1.497,1.4082,2.2978,2.105h.0069c.7934.6899,1.6694,1.3935,2.5459,2.0698l.0346.0273c.9453.6695,1.8565,1.3116,2.8081,1.9673l.0347.0205c1.0283.6416,2.0703,1.2832,3.1533,1.9112,1.1245.6416,2.2427,1.2558,3.3467,1.8701l.0415.0205c1.2349.6142,2.436,1.2007,3.6709,1.7803l.0205.0136c1.3247.5869,2.5947,1.13869,3.9058,1.7183l.0273.0141c1.3599.5518,2.7256,1.1036,4.1333,1.6417h.0068c1.4009.5244,2.8501,1.0488,4.3404,1.5595,1.4834.49709,3.0088,1.001,4.5747,1.4976l.021.0068c1.5596.4693,3.167.9385,4.7334,1.3872h.0137c1.642.4488,3.333.8897,5.0302,1.3111v.0068c1.6905.4072,3.4224.8281,5.1958,1.2212,1.7598.3931,3.5332.8003,5.3545,1.1733h.0069c1.8559.3584,3.6645.6968,5.5131,1.0347h.0074c1.8901.33839,3.7465.64839,5.6787.959h.0068c1.8975.2895,3.8643.5727,5.7964.8559h.0132c1.9736.2618,3.9888.5171,5.9624.75249h.0063c2.0493.23441,4.0645.46191,6.128.67581h.0136c2.0494.17919,4.1402.3657,6.1827.5654h.0273c2.0908.1587,4.23.3174,6.32709.4482,2.18751.1319,4.3267.2354,6.459.3452h.0069c2.18061.0835,4.3608.1656,6.5415.2281,2.18011.0551,4.4018.0898,6.6172.1172h.0068c2.2222.0068,4.3955.0136,6.6518.021h.0206c2.2568-.0342,4.5126-.0762,6.7343-.1177l-.02-.95221-.95259.021q.42479,18.66137.83489,37.26711l.9522-.0195-.0278-.9463c-2.2491.05569-4.5054.1113-6.7208.1728l.0279.9454-.0137-.9454c-2.2495.0352-4.4575.042-6.6655.04789V167l.0063-.95311c-2.2143-.01269-4.3813-.03419-6.541-.06839l-.02049.94539.02729-.94539c-2.17329-.0693-4.3398-.1308-6.5136-.1933l-.0274.9453.041-.9453c-2.1318-.0899-4.2988-.1865-6.4238-.2969-2.0771-.1103-4.20209-.2549-6.29289-.3935l-.0689.9462.0757-.9462c-2.0425-.1651-4.1401-.3311-6.1963-.4688l-.062.9453.0893-.9453c-2.0493-.1934-4.0503-.3857-6.0512-.6064l-.1035.94429.1171-.93849c-1.9668-.2412-3.9741-.4824-5.9409-.7246l-.1172.9463.1309-.9463c-1.9663-.2685-3.9331-.5381-5.8169-.8066l-.1309.9453.1446-.9385c-1.9253-.2969-3.7603-.5937-5.6441-.91111h.0069c-1.8423-.32429-3.6431-.64159-5.479-.99319h.0073c-1.7944-.3447-3.5537-.71781-5.3135-1.09081h.0068c-1.6767-.37209-3.3945-.77929-5.1127-1.17969h.0068c-1.6699-.4004-3.3052-.8281-4.9404-1.2627l.0068.0068c-1.5938-.4345-3.1465-.8906-4.7471-1.3525l-.2627.918.2764-.9112c-1.5112-.455-3.0635-.9375-4.5747-1.42871l-.2969.90431.3032-.8965c-1.4213-.4834-2.8496-.9941-4.2846-1.5117l-.3242.8975.3378-.89061c-1.3452-.51079-2.7392-1.05569-4.0849-1.59379l-.3521.88279.3726-.876c-1.2759-.54489-2.5459-1.08979-3.8496-1.65619l-.3867.8701.4277-.8486c-1.2007-.6006-2.3872-1.1797-3.6226-1.78031l-.414.85551.4419-.8418c-1.1387-.6006-2.2427-1.2012-3.3535-1.8008l-.4556.834.4829-.8213c-1.0142-.59961-2.0356-1.22761-3.0635-1.8623l-.497.8071.5454-.7793c-.918-.6352-1.8565-1.2768-2.795-1.9326l-.5449.7803.5796-.7525c-.8486-.6552-1.6768-1.3178-2.5459-1.9941l-.5796.7519.6138-.7172c-.7593-.6558-1.4902-1.33891-2.229-2.0357l-.6485.69679.69-.65579c-.6416-.6831-1.2485-1.3657-1.856-2.084l-.7246.6216.752-.5796c-.524-.6899-1.0557-1.415-1.5938-2.1465l-.7656.566.814-.4893c-.4414-.7383-.8487-1.46341-1.2559-2.208l-.835.4482.8697-.3862c-.3242-.71141-.6074-1.4429-.9453-2.2222l-.8765.3726.918-.2485c-.2144-.7867-.4556-1.5596-.6075-2.2842l-.9316.1933.9458-.1035c-.0835-.7724-.166-1.5175-.207-2.2837l-.9458.0547.9458-.0342c-.3936-12.8408-.794-25.65471-1.1114-38.5166l-.9521.021-.9453.0484.9453-.0484" style="fill:#2e2c54"/><path d="M232.85009,129.503q.41537,18.6672.8325,37.2705-.46365-22.1397-.9678-44.3599-.41818-18.7317-.8364-37.46971Q232.34354,107.27546,232.85009,129.503Z" style="fill:#f58220;fill-rule:evenodd"/><path d="M232.84959,129.50389l-.95259.021q.42479,18.66137.83489,37.26711a.94923.94923,0,1,0,1.898-.041q-.4563-22.1397-.9668-44.3608-.4131-18.72375-.8345-37.46831a.95864.95864,0,0,0-.97259-.93119.94785.94785,0,0,0-.92481.9727q.46575,22.3359.96581,44.56149l.95259-.021.9522-.02q-.52815-22.25384-.9732-44.562a.95827.95827,0,0,0-.29-.66209.97089.97089,0,0,0-.68259-.2691.93588.93588,0,0,0-.66261.2964.91922.91922,0,0,0-.2622.6763q.413,18.74415.8349,37.4683.5178,22.22235.9658,44.3603a.978.978,0,0,0,.2896.66989.96454.96454,0,0,0,.6836.26271.92884.92884,0,0,0,.6621-.2978.90622.90622,0,0,0,.2627-.6758q-.4146-18.61967-.8281-37.26711l-.9522.02" style="fill:#2e2c54"/><path d="M202.99269,123.0816c-1.1582,0-2.4175-.0332-3.7544-.0913-53.91119-2.38041-95.07079-14.9527-96.98879-36.4673-1.0972-12.2476,15.6079-22.9229,39.2481-30.4507,22.9721-7.3169,52.4516-11.6182,78.67769-11.6182q.8013,0,1.5991.0054c47.8394.31739,24.4199,12.5171-2.2012,17.2988-32.748,5.8858-69.69189,18.2437-13.8276,54.3941,8.3545,5.4067,5.1167,6.9292-2.7529,6.9292m27.9121-82.5274c-2.0889.041-4.2119.0689-6.34279.0689h-.42091v-.0059c-2.2602.11669-4.4805.1851-6.7002.2539h0c-2.2285.1177-4.4507.228-6.6377.3247v-.0063c-2.1875.1655-4.3613.3027-6.5415.44039v.00051c-2.1455.18649-4.2846.3726-6.43749.5312l-.0005-.0053c-2.1001.2339-4.2412.4404-6.2924.6543l-.001-.0064c-2.0904.2818-4.1533.5366-6.21.7632l.0005.002c-2.022.2827-4.085.5586-6.0581.8418l-.001-.0059c-2.019.33059-3.9555.6338-5.9336.958l-.0005-.00541c-1.9297.35791-3.8662.70321-5.7612,1.05421h.0073c-1.8979.3726-3.7881.7657-5.6445,1.1387l-.001-.0054c-1.812.4273-3.6655.8199-5.4775,1.2198l-.0005-.0015c-1.7319.4668-3.5054.88619-5.2647,1.3057l-.0009-.0049c-1.7202.4682-3.4058.9355-5.0918,1.4038l.0005.0015c-1.6905.4833-3.333.97309-4.9405,1.4697l-.0009-.0015c-1.6001.5357-3.1187,1.0508-4.6783,1.5591l.001.0019c-1.5229.5308-2.9975,1.0752-4.4795,1.6265l.0015.0025c-1.4361.56289-2.8306,1.1191-4.2652,1.6752l.0005.0015c-1.3178.6069-2.643,1.1934-4.0019,1.7798V59.584c-1.2725.605-2.5371,1.2036-3.7608,1.83589l-.0029-.00479c-1.1929.63379-2.4267,1.2612-3.5786,1.8681v-.0014c-1.0967.645-2.1597,1.3164-3.2358,1.9467h0c-1.0162.669-1.9854,1.3311-2.9615,1.9996l.001.0019c-.9023.689-1.7637,1.3643-2.6655,2.0601l.0024.0029c-.8545.6821-1.6333,1.3784-2.4526,2.0947-.6953.7149-1.417,1.4234-2.0576,2.13819l.0044.00391c-.604.72609-1.1744,1.4317-1.7837,2.1372-.4908.75-.9751,1.5-1.419,2.23l.001.001c-.4106.75289-.8149,1.5063-1.1719,2.2461-.2519.7861-.5293,1.5327-.7671,2.2656-.1933.7695-.354,1.5137-.4692,2.2568h0c-.0415.773-.0757,1.5459-.0757,2.27739V86.999c.0405.773.1221,1.5523.2046,2.3184.1636.7398.3667,1.4932.5703,2.27249.3277.75341.6113,1.49951.9204,2.20651l.002-.00051c.4043.76081.8491,1.48731,1.268,2.22761.5694.727,1.0997,1.4536,1.6299,2.1469l-.0014.001c.6069.7363,1.2148,1.4253,1.8623,2.1148.7412.69969,1.476,1.393,2.2446,2.0586.7681.6586,1.6255,1.351,2.4761,2.017l.0009-.00191c.9527.66941,1.8565,1.311,2.7945,1.95261l-.0005.0015c1.0239.6387,2.0478,1.271,3.106,1.8755,1.1035.6347,2.2138,1.2485,3.3242,1.8618,1.2212.604,2.4087,1.1807,3.6299,1.7637l.0009-.003c1.3111.5796,2.5879,1.1387,3.9058,1.7183l-.002.0044c1.3555.5503,2.7037,1.09419,4.087,1.624,1.4008.5244,2.8291,1.042,4.3056,1.5454q2.2149.74565,4.5542,1.4903l-.0005.0019c1.5572.4619,3.1558.9375,4.7134,1.3784l-.0005.0015c1.6402.4414,3.3218.8823,4.9961,1.30269,1.6836.41411,3.4087.82771,5.1685,1.21441,1.7661.3935,3.5327.8003,5.3266,1.1665,1.8423.3584,3.6504.6968,5.4995,1.0347,1.8838.3383,3.7261.6416,5.6582.9521l-.0004.001c1.8823.2827,3.853.5718,5.7827.8481v.001c1.9643.2617,3.977.5166,5.9414.751,2.0493.2344,4.0571.4624,6.1064.6689l-.0346.3867.0346-.3867c2.0469.1792,4.1353.3657,6.189.57229l.0005-.00589c2.0903.1587,4.2231.3174,6.3139.4483,2.17339.1308,4.30519.2343,6.43749.3452,2.1739.0825,4.3472.1655,6.52051.2207,2.17389.0615,4.38869.0893,6.60359.1235h0c2.2109.0078,4.3872.0147,6.6391.021,2.0269-.0371,4.0532-.06881,6.05031-.10981q-.10471-7.281-.207-14.57329c-.09621-6.9971-.23441-14.0215-.33061-21.0459h0a.9013.9013,0,0,1,.041-.2954q-.0864-4.13085-.1728-8.2676l.37941-.00681-.37941.00681-.0137-.414.4209.0278c21.2529,1.2969,42.42921,2.58739,63.2608,3.8223,20.6313,1.2236,41.1308,2.4536,61.3857,3.66309.07271-.12649.1504-.24609.227-.36769a6.87663,6.87663,0,0,1,.3306-.607,4.20229,4.20229,0,0,1,.2417-.5561h-.0005a5.3038,5.3038,0,0,1,.2905-.5796h-.0009c.0898-.186.1655-.3657.249-.5591v-.0137l.00631-.00681c.07129-.16209.149-.35449.233-.54929a5.15084,5.15084,0,0,1,.22259-.61671h.0015a5.68989,5.68989,0,0,1,.1938-.55129,5.79821,5.79821,0,0,1,.1768-.61471c.0395-.17289.0786-.36959.1181-.56589h.0069v-.0074c.0395-.17771.0791-.3496.1181-.539a3.56331,3.56331,0,0,1,.0899-.5996,3.432,3.432,0,0,1,.0884-.5874,3.16139,3.16139,0,0,1,.042-.5625c.0068-.1783.0068-.3833.0068-.5884h0c.0063-.1797.0063-.3867.0063-.59381h.0025c-.0728-.706-.145-1.43649-.17969-2.17429-.19191-.6963-.38331-1.4048-.53661-2.1133-.27439-.7187-.5552-1.4375-.836-2.1562-.354-.6763-.7089-1.3594-1.0571-2.0615-.4819-.6934-.92429-1.3799-1.3999-2.0591-.6016-.66361-1.1631-1.3457-1.6802-2.0215-.67619-.6362-1.3647-1.2788-1.9824-1.97411-.7685-.63969-1.4902-1.27249-2.2515-1.93259l-.0014.0014c-.855-.6416-1.669-1.2622-2.5308-1.9033-.9385-.6167-1.83009-1.2339-2.7612-1.8433l.0005-.0014c-1.0098-.607-2.0191-1.1934-2.9947-1.77981l-.0009.00051c-1.1035-.5757-2.1665-1.1651-3.2627-1.7544l-.001.00189c-1.18209-.54979-2.33009-1.09269-3.5122-1.65619h0c-1.2695-.5449-2.5464-1.0693-3.7808-1.6143l.0005-.0029c-1.35059-.4941-2.7007-1.0151-4.01659-1.5635v-.0005c-1.38381-.4931-2.80761-.9858-4.19821-1.4795-1.48679-.4545-2.9195-.9502-4.3926-1.4184l.0005-.0034c-1.5552-.4248-3.1094-.8697-4.624-1.34231v.00051c-1.6031-.4058-3.1983-.83251-4.795-1.2593l-.0004.0034c-1.69-.3848-3.3672-.8037-5.0088-1.2095l-.001.002c-1.72849-.3584-3.4517-.7163-5.1812-1.0952l-.0005.0049c-1.8085-.3589-3.6225-.69-5.3896-1.0489l.001-.00091c-1.84719-.30329-3.70119-.61329-5.5137-.94439v-.0029c-1.9316-.2612-3.8228-.543-5.748-.8316v-.0014c-1.9366-.2344-3.9151-.4961-5.8511-.7788v-.002c-2.0147-.2134-4.023-.4331-5.9966-.6396v-.0015q-3.08715-.2571-6.1685-.5503h0c-2.0981-.1728-4.1958-.3179-6.2587-.4834v-.0005c-2.1412-.0967-4.3238-.2202-6.4659-.3374l.001-.0005c-2.1802-.0688-4.3203-.1445-6.4936-.2475v.00679c-2.229-.02779-4.4507-.07619-6.6792-.13129h-.2901c-2.1294,0-4.293,0-6.457-.0274" style="fill:url(#linear-gradient-2)"/><path d="M231.876,84.94289l-.02.38621c21.25869,1.2974,42.42919,2.5879,63.267,3.82279,20.70759,1.228,41.29109,2.46341,61.62549,3.67771l.2627.021.1104-.24171a6.09592,6.09592,0,0,1,.31741-.54539l.01359-.0205.00741-.0205c.06879-.1519.18549-.3521.31-.5659l.01419-.01371.00681-.021a4.33054,4.33054,0,0,1,.23439-.54489l.0142-.0205.0068-.021a4.88366,4.88366,0,0,1,.2685-.5381l.0142-.02051.0068-.021c.0899-.18609.1724-.37259.2622-.59329l-.3588-.145.352.1587c.0899-.19341.1724-.4072.2622-.6143l.0064-.0273.0078-.02781a3.6917,3.6917,0,0,1,.1928-.52449l.0137-.0278.0069-.0273a3.85658,3.85658,0,0,1,.1928-.545l.0078-.0278.0064-.0273a5.09412,5.09412,0,0,1,.1592-.55231l.0131-.02729v-.0205c.0489-.1934.0899-.4004.1309-.6074l-.3721-.0762.3721.083c.042-.1792.0899-.3657.1314-.57961l.00731-.04149v-.0347a2.61828,2.61828,0,0,1,.08249-.5244l.0068-.0342v-.0415a2.50546,2.50546,0,0,1,.083-.5175l.0069-.0416v-.03461a3.10884,3.10884,0,0,1,.0342-.52439l.0141-.0342v-.0347c0-.1865,0-.3935.0069-.6001v-.6347c-.0757-.7315-.1451-1.4771-.1797-2.2154v-.04151l-.01369-.041c-.19971-.72459-.39311-1.44919-.55181-2.15969l-.0073-.0346-.0068-.0274c-.2827-.7251-.5586-1.4492-.8413-2.1738l-.0069-.021-.0141-.02051c-.3589-.68989-.7246-1.38669-1.0835-2.11129l-.0137-.0205-.0142-.0279c-.4829-.6899-.9238-1.38031-1.4209-2.084l-.0136-.0205-.0142-.0205c-.6006-.6626-1.1655-1.3457-1.6904-2.0361l-.0137-.0205-.0278-.0205c-.69-.649-1.3731-1.2906-1.96679-1.9595l-.02-.0278-.021-.0137c-.77251-.6421-1.50441-1.2837-2.28371-1.9531l-.00729-.0137-.01371-.0068c-.8555-.64161-1.6768-1.2559-2.5322-1.9043l-.0074-.0074-.0136-.0063c-.938-.6143-1.8355-1.2354-2.7808-1.8564l-.0064-.0069h-.0078c-1.0278-.6138-2.0493-1.21431-3.0283-1.8008l-.0073-.0068-.0137-.0068c-1.0967-.5728-2.1601-1.1597-3.2705-1.7598l-.0141-.0068h-.0069c-1.1865-.5454-2.332-1.0904-3.519-1.6631h-.0064l-.0078-.0069c-1.2764-.5454-2.5532-1.06931-3.7739-1.6079l-.0068-.0068h-.0137c-1.353-.4971-2.7051-1.0215-4.0093-1.5664h-.0068l-.0142-.0068c-1.3935-.4966-2.83539-.9937-4.2226-1.4903h-.0137l-.0069-.0068c-1.4697-.4487-2.9047-.939-4.3886-1.4146h-.0069l-.0068-.0073c-1.5596-.4277-3.1191-.876-4.6367-1.3452l-.0073-.0073h-.0137c-1.5943-.4068-3.2017-.8277-4.8023-1.2554l-.0073-.0073h-.0068c-1.6841-.3789-3.3604-.8003-5.00979-1.2071h-.01371c-1.7251-.3593-3.4565-.7109-5.1748-1.0903h-.0068l-.0068-.00681c-1.815-.35209-3.6231-.69-5.3892-1.042h-.0068c-1.856-.31109-3.7056-.61379-5.5137-.94529l-.0068-.0074H287.437c-1.93261-.2617-3.82321-.5449-5.76221-.8344H281.668c-1.93171-.23491-3.90531-.4971-5.83791-.7798h-.0132l-.0068-.0069c-2.0147-.2143-4.0372-.4277-6.0108-.6416h-.0068c-2.0557-.166-4.1192-.3593-6.1753-.5522h-.0068c-2.1045-.1655-4.2027-.3105-6.2583-.4829h-.0142c-2.1392-.0967-4.3262-.2207-6.4653-.3379h-.0137c-2.1807-.0693-4.3198-.145-6.5-.249h-.0137c-2.22219-.0205-4.45119-.0684-6.6723-.124h-.3111c-2.1323,0-4.2915-.0069-6.4585-.0274h-.0068c-2.084.041-4.209.062-6.33449.062h-.44141c-2.2637.1172-4.4853.1861-6.707.2554h-.0142c-2.2217.1172-4.4502.2275-6.6308.3242h-.0137c-2.1807.1587-4.36089.2964-6.5484.4346h-.0068c-2.146.1865-4.292.3725-6.43109.5312h-.0137c-2.0977.2349-4.2437.4351-6.2998.649h-.0137c-2.105.2758-4.1606.538-6.2173.7661h-.0137c-2.0151.2822-4.0781.5586-6.0581.8418h-.0073c-2.0215.3242-3.9609.6279-5.9409.9516h-.0068c-1.9322.3521-3.8711.7041-5.7686,1.0562h-.0073c-1.897.3725-3.7949.7656-5.6441,1.1382h-.0136c-1.8081.4214-3.6573.8213-5.4717,1.2148h-.0142l-.0068.0068c-1.7251.4624-3.4912.88289-5.2647,1.3042h-.0136c-1.7324.4688-3.4224.938-5.1065,1.4078h-.0068q-2.5356.7338-4.9473,1.4697l-.0068.0063h-.0073c-1.6079.5386-3.126,1.0493-4.6919,1.5664h-.0069c-1.5254.5386-3.0156,1.0767-4.499,1.6358v.0068h-.0068c-1.4419.5586-2.8428,1.1245-4.2783,1.6836h-.0137l-.0068.0068c-1.3179.60749-2.629,1.1939-3.9883,1.77349h-.0069l-.0073.00681c-1.2764.607-2.5527,1.2075-3.7949,1.8491h-.0068c-1.1866.628-2.4219,1.2559-3.5743,1.8633l-.0141.0069h-.0069c-1.1176.6626-2.187,1.3383-3.2495,1.9594l-.0073.0069-.0063.0073c-1.0352.6758-2.022,1.352-3.0088,2.02829h-.0069l-.0141.00681c-.9038.6973-1.7666,1.3804-2.67,2.0704v.00679h-.0073c-.876.70361-1.6557,1.40721-2.477,2.125l-.0137.00731-.0137.01369c-.6904.71041-1.435,1.43511-2.1045,2.18751v.0068l-.0073.0064c-.6206.7456-1.1933,1.4565-1.8008,2.1601l-.021.0205-.0131.0279c-.4903.75879-.9869,1.5249-1.4424,2.27v.00679l-.0069.01371c-.4072.75929-.8213,1.5181-1.1938,2.291l-.0137.021-.0068.0274c-.2417.77289-.5313,1.52489-.7798,2.2978v.0068l-.0068.0142c-.2071.80709-.3731,1.6006-.4971,2.394v.0415c-.041.773-.0757,1.5523-.0757,2.31159v.09671c.041.8071.124,1.6079.2139,2.38029v.04151c.1723.7793.3794,1.5528.5864,2.3389l.0068.0278.0137.0274c.3242.75239.6143,1.518.9526,2.2705l.0069.0136.0068.0069c.4209.8071.876,1.5459,1.2832,2.2637l.0142.0273.0205.021c.5727.731,1.104,1.46239,1.6421,2.1733l.0068.0069c.6284.7593,1.2495,1.4697,1.9185,2.1806l.0068.0069.0068.0068c.7383.7036,1.4908,1.4077,2.2774,2.0903.7929.6768,1.6557,1.3804,2.5254,2.0498l.0068.0069.0068.0068c.9522.669,1.856,1.31109,2.8086,1.9595h.0069l.0068.0073c1.0283.6416,2.0562,1.2832,3.1328,1.90429,1.1177.63481,2.2285,1.24851,3.3399,1.86331l.0063.0063h.0073c1.2349.6143,2.4287,1.2007,3.6704,1.7803l.0074.0073c1.3178.5791,2.5874,1.1382,3.9052,1.71779l.0069.00681c1.3594.5523,2.7187,1.1041,4.1196,1.6353,1.4004.5244,2.8428,1.0493,4.3262,1.5527q2.2251.74565,4.5679,1.4971h.0073c1.5659.4697,3.167.939,4.7334,1.3872,1.6494.4414,3.3325.8901,5.0234,1.3115,1.6836.4141,3.4082.8272,5.1817,1.2212,1.7597.3863,3.5327.8003,5.3413,1.1656h.0063c1.8496.3662,3.6572.6972,5.5068,1.03559,1.8902.33741,3.7398.64841,5.6719.959h.0064c1.8838.28321,3.8574.56541,5.7895.84811,1.9732.2622,3.9883.52489,5.9619.7525,2.0493.2343,4.064.4697,6.1201.6762h.0074c2.0493.1797,4.1401.3653,6.1889.566h.0142c2.0908.1586,4.2227.3173,6.32079.4487,2.1802.1308,4.31931.2344,6.4517.3452,2.1801.082,4.3535.1655,6.5341.2197,2.1802.0625,4.39551.0899,6.6104.1245h.0068c2.2154.0074,4.3887.0142,6.645.021h.0069c2.2632-.041,4.52-.0756,6.73441-.1245l.38669-.0063-.0069-.3799q-.528-22.25325-.9736-44.5615l-.38619.00729-.02.38621.02-.38621-.37941.00681q.46575,22.33528.9731,44.5611l.3799-.00691-.0068-.38619c-2.21579.0483-4.4717.083-6.7281.124v.3867l.0069-.3867c-2.2564-.0063-4.4365-.0132-6.6519-.021v.3799l.0069-.3799c-2.2149-.0342-4.4297-.062-6.60359-.1235-2.17331-.0552-4.34661-.1382-6.52051-.2207-2.1323-.1109-4.2641-.2144-6.43749-.3452-2.0908-.1309-4.2236-.2896-6.3139-.4483l-.0274.3863.0342-.37941c-2.0561-.20759-4.147-.39359-6.1963-.57329l-.0346.3867.0346-.3867c-2.0493-.2065-4.0571-.4345-6.1064-.6689-1.9668-.2344-3.982-.48981-5.9483-.752l-.0483.3789.0552-.3789c-1.9317-.2763-3.9053-.5659-5.7891-.8491l-.0552.3799.062-.3799c-1.9321-.3105-3.7744-.6138-5.6582-.9521-1.8491-.3379-3.6572-.6763-5.4995-1.0347-1.7939-.3662-3.5605-.773-5.3266-1.1665-1.7598-.3867-3.4849-.8003-5.1685-1.21441-1.6767-.42089-3.3603-.86279-5.0024-1.30419l-.0967.3658.1035-.3658c-1.5596-.4419-3.1606-.9179-4.7197-1.3803l-.1104.3657.1172-.3657q-2.33865-.7449-4.5542-1.4903c-1.4765-.5034-2.9048-1.021-4.3056-1.5454-1.3868-.5312-2.7393-1.0766-4.0987-1.6284l-.145.35159.1587-.35159c-1.3179-.5796-2.5947-1.1387-3.9058-1.7183l-.1587.3521.1661-.34521c-1.2286-.58649-2.4219-1.166-3.6504-1.77349l-.1724.3384.186-.331c-1.1103-.6143-2.2216-1.2286-3.3256-1.8633-1.0625-.6074-2.0909-1.2422-3.1187-1.8838l-.2002.32419.2134-.31739c-.938-.64161-1.8418-1.2832-2.7945-1.95261l-.2202.31741.2344-.3037c-.8555-.6695-1.7183-1.3663-2.4912-2.0288-.7725-.669-1.5107-1.3658-2.2563-2.06991l-.2623.28271.2828-.26171c-.6553-.69719-1.2696-1.394-1.8838-2.13909l-.2964.2412.3105-.2276c-.5381-.7036-1.0761-1.4423-1.6557-2.1806l-.3037.2348.3378-.1865c-.4209-.7451-.8696-1.4766-1.2763-2.24221l-.3379.17921.3447-.1587c-.3179-.7246-.6074-1.4902-.9453-2.2636l-.352.1523.3725-.0967c-.207-.7939-.4141-1.55951-.5796-2.31151l-.3725.08251.3798-.041c-.0835-.7734-.166-1.5596-.207-2.3394l-.3867.021h.3867v-.07611c0-.73149.0342-1.50439.0757-2.27739l-.3867-.0205.3799.062c.1171-.7656.2827-1.5317.4829-2.3252l-.3726-.0898.3657.1172c.2412-.7451.5245-1.5039.7798-2.3042l-.3657-.1109.3447.1656c.3589-.7447.7661-1.5039,1.1802-2.2627l-.3384-.1797.3242.2002c.4488-.7383.9385-1.49761,1.4356-2.2564l-.3242-.207.2895.248c.6211-.71721,1.2007-1.435,1.815-2.1733l-.2969-.2485.2832.2553c.6484-.7246,1.3799-1.4418,2.0835-2.1665l-.2759-.26221.2554.28271c.8208-.71771,1.6006-1.414,2.4565-2.0976l-.2417-.3032.2344.3032c.9043-.6968,1.7666-1.37311,2.6704-2.063l-.2344-.3105.2212.3173c.9864-.6762,1.9663-1.3452,2.9942-2.0214l-.2139-.3174.1934.3305c1.0835-.6342,2.1528-1.3105,3.2568-1.9589l-.2002-.3316.1792.3452c1.1523-.6074,2.3877-1.23531,3.5815-1.8701l-.1796-.3384.1796.34519c1.2281-.63469,2.4981-1.23479,3.7745-1.84219l-.1661-.3453.1524.3521c1.3589-.5864,2.6841-1.1729,4.0019-1.7798l-.1587-.3452.1377.3516c1.4424-.5586,2.8433-1.1177,4.2857-1.6831l-.1382-.3594.1309.3594c1.4834-.5523,2.9599-1.0977,4.4853-1.629l-.1313-.3657.1245.3657c1.5664-.5102,3.0908-1.0283,4.6987-1.5659l-.124-.3593.1103.3657c1.6075-.49661,3.25-.9864,4.9405-1.4697l-.1104-.3721.1035.3721c1.6909-.4688,3.3809-.9385,5.106-1.4073l-.0967-.3657.0898.3726c1.7666-.4209,3.5469-.8418,5.2857-1.3111l-.1035-.3725.083.3794c1.8144-.3999,3.6704-.7935,5.4853-1.2217l-.0825-.3721.0757.3794c1.8564-.373,3.7466-.7661,5.6445-1.1387h-.0073c1.8975-.352,3.8369-.6967,5.769-1.0556l-.0693-.37261.062.37941c1.9805-.3242,3.9195-.6279,5.9409-.959l-.062-.373.0557.3799c1.9731-.2832,4.0361-.5591,6.0581-.8418l-.0552-.3794.0415.3794c2.063-.2281,4.1333-.4834,6.2305-.7662l-.0483-.37931.042.38671c2.0561-.2144,4.2021-.4214,6.3066-.6558l-.0415-.3794.0278.3862c2.15289-.1586,4.292-.34471,6.43749-.5312l-.0342-.3862.0274.3862c2.187-.1382,4.3677-.2759,6.562-.4419l-.0347-.3789.021.3862c2.187-.0967,4.4092-.207,6.6377-.3247l-.0205-.38621.0142.38621c2.2285-.0688,4.4575-.1377,6.7275-.2549l-.021-.3798v.3867h.42091c2.13229,0,4.25729-.0279,6.34819-.0689l-.0069-.3867-.0068.3867c2.16651.0274,4.333.0274,6.4653.0274h.2964v-.3794l-.0063.3794c2.2285.0551,4.4502.1035,6.6792.13129l.0068-.38669-.0137.3794c2.1802.104,4.3262.1792,6.5137.2485l.0137-.3867-.0279.3867c2.1465.1172,4.3335.2417,6.4795.3379l.0142-.3794-.0278.3794c2.0629.1655,4.1606.3106,6.2587.4834l.0342-.3867-.0342.3867q3.0843.28935,6.1822.5518l.0278-.3867-.0415.3867c1.9805.207,3.9951.42769,6.0171.6416l.0415-.3794-.062.3794c1.9385.2827,3.9189.5454,5.8579.7802l.0488-.3798-.0556.3798c1.9321.2896,3.83.5723,5.76851.8345l.04829-.3794-.0688.3794c1.81451.3316,3.6709.6416,5.52051.9453l.06149-.3725-.0693.3725c1.7671.3589,3.5811.69,5.3896,1.0489l.07521-.3794-.082.3725c1.73149.3794,3.45659.7383,5.18849,1.0972l.0762-.3794-.0962.3721c1.6484.4077,3.33251.8281,5.0298,1.2148l.083-.3794-.0967.3726c1.6011.4277,3.2016.8554,4.8091,1.2627l.0966-.3726-.1167.3657c1.5245.4761,3.0909.9248,4.6568,1.3521l.1035-.36571-.1167.36571c1.4766.4697,2.9116.96629,4.4023,1.4214l.1099-.3653-.1309.3589c1.4009.4966,2.836.9932,4.22951,1.49029l.13089-.35889-.15089.352c1.32419.5518,2.68409,1.0762,4.043,1.5733l.13079-.3589-.1577.352c1.2344.545,2.5113,1.0694,3.7808,1.6143l.1523-.3516-.1665.3452c1.1875.5655,2.3399,1.1104,3.5264,1.66259l.1587-.35149-.1797.3379c1.1045.5932,2.1738,1.1865,3.2847,1.7661l.1797-.3447-.2007.3315c.9868.5933,2.0083,1.1865,3.0293,1.8003l.2002-.33061-.2134.32421c.938.61379,1.8349,1.2349,2.7807,1.856l.21341-.32421-.23431.31c.86231.64161,1.6772,1.26271,2.5322,1.90481l.2348-.3037-.2485.2901c.773.6689,1.5044,1.311,2.2837,1.9594l.2485-.2964-.2895.2549c.6279.711,1.3315,1.3662,2.0215,2.0152l.2627-.2832-.3042.2348c.5317.6968,1.1113,1.4009,1.7319,2.0835l.28321-.25541-.31791.21441c.48291.6899.9317,1.3867,1.42191,2.0908l.31009-.2207-.3374.1724c.3584.72409.7246,1.4282,1.0898,2.125l.3384-.1797-.3594.1382c.2832.72459.5659,1.4492.8423,2.1738l.3589-.13821-.3731.083c.1587.73831.35941,1.47661.5596,2.20071l.3652-.103-.3798.0205c.0346.7661.1108,1.5249.1865,2.2563l.37991-.04151h-.38681c0,.20711,0,.41411-.0063.59381l.3862.0068-.3862-.0068c0,.207,0,.414-.0068.59319l.3862.00691-.3731-.083a3.074,3.074,0,0,0-.0551.6694l.3794.0073-.3726-.0761a3.31769,3.31769,0,0,0-.0967.6694l.3794.0068-.3721-.083a3.36036,3.36036,0,0,0-.0966.67629h.3867l-.3799-.07569c-.041.19969-.083.3794-.124.5654v.0074h-.0069c-.0419.207-.083.414-.1245.5932l.3731.083-.35939-.13131a5.70953,5.70953,0,0,0-.18551.64161l.372.0898-.352-.145a5.64269,5.64269,0,0,0-.2276.6558l.37311.0893-.35941-.14451a4.95081,4.95081,0,0,0-.228.63481l.373.0893-.352-.145c-.0899.207-.1719.4141-.24859.58689l-.00631.00681v.0137c-.0835.1934-.1592.3731-.249.5591l.352.1587-.331-.1934a5.20184,5.20184,0,0,0-.3106.6143l.3452.1587-.3242-.19291a4.72756,4.72756,0,0,0-.2763.62061l.352.1587-.3311-.1997a6.54253,6.54253,0,0,0-.352.648l.3452.1591-.3247-.2002a5.49773,5.49773,0,0,0-.3589.6211l.3521.1587.021-.3867c-20.3355-1.2144-40.9185-2.4492-61.6328-3.6777-20.83159-1.23491-42.0079-2.5254-63.2608-3.8223l-.4209-.0278.0137.414.37941-.00681" style="fill:#2e2c54"/><path d="M220.17529,44.4541c-26.22609,0-55.70559,4.3013-78.67769,11.6182-23.6402,7.5278-40.3453,18.2031-39.2481,30.4507,1.918,21.5146,43.0776,34.08689,96.98879,36.4673,1.3369.0581,2.5962.0913,3.7544.0913,7.8696,0,11.1074-1.5225,2.7529-6.9292C149.8813,80.002,186.8252,67.6441,219.57319,61.7583c26.6211-4.7817,50.0406-16.98141,2.2012-17.2988q-.7968-.00585-1.5991-.0054" style="fill:url(#linear-gradient-3)"/><path d="M232.58349,93.4966c.0952,7.022.2324,14.0474.3271,21.0454q.28785,19.96665.5767,39.83889-.1428-10.45753-.2837-20.94089C233.01029,120.15289,232.81879,106.8155,232.58349,93.4966Z" style="fill:#f58220;fill-rule:evenodd"/><path d="M232.58009,93.499l-.9517.0137c.0962,7.0244.2344,14.0488.33061,21.0459q.27973,19.96515.57269,39.834a.956.956,0,1,0,1.9117-.0273q-.145-10.4532-.2832-20.9351-.28935-19.9344-.6211-39.9521a.95551.95551,0,1,0-1.9107.0346l.9517-.0137-.9517.0137c.2344,13.3174.4273,26.6553.62061,39.9385q.145,10.4949.28269,20.9414a.96733.96733,0,0,0,.9659.94629.95541.95541,0,0,0,.9458-.97359q-.29009-19.85161-.5796-39.8345c-.0967-7.0034-.2281-14.0278-.3247-21.04591a.95537.95537,0,0,0-.9727-.94529.97963.97963,0,0,0-.66939.29.96923.96923,0,0,0-.26861.6831l.9517-.0137" style="fill:#2e2c54"/><path d="M233.20359,133.44q.13995,10.49475.2837,20.94089c1.6406-.07229,3.2803-.14649,4.9204-.24219,1.6812-.09281,3.32131-.1885,4.9605-.2861,1.6001-.1162,3.1982-.2344,4.83881-.376,1.60009-.13971,3.19929-.2793,4.79839-.4434,1.518-.165,3.07661-.3252,4.6758-.5117,1.5581-.18461,3.1176-.3682,4.6362-.5781,1.5171-.2041,3.0347-.4082,4.5527-.6416,1.4776-.2246,2.9541-.457,4.4722-.707,1.478-.2491,2.914-.5,4.3501-.751,1.436-.2686,2.873-.542,4.3501-.8125,1.355-.294,2.70951-.586,4.14651-.878,1.35489-.31541,2.71039-.6308,4.10689-.9423,1.314-.3125,2.6279-.6485,3.9419-.9854,1.2734-.334,2.5884-.6621,3.9023-1.0215,1.23291-.3545,2.4654-.7094,3.7388-1.0884,1.1919-.3735,2.3843-.7485,3.6162-1.125,1.15191-.372,2.3032-.7685,3.4946-1.166,1.1104-.393,2.26131-.8056,3.4141-1.2231,1.0693-.4375,2.09621-.855,3.2075-1.2925,1.0288-.4351,2.0576-.8691,3.1275-1.30421.9873-.43359,1.9756-.88869,2.9638-1.34229.9468-.4541,1.8536-.9106,2.8013-1.38671.8648-.47269,1.772-.94629,2.6782-1.41939.8242-.4702,1.69-.9644,2.5142-1.4624.78371-.49121,1.5669-.981,2.3525-1.4951.7417-.4893,1.4854-1.0005,2.187-1.53811.66121-.50929,1.3218-1.01659,2.0235-1.54979.6216-.5288,1.24171-1.0581,1.9028-1.5889.4971-.52931,1.0361-1.0547,1.6148-1.6035.497-.5469.99511-1.0933,1.4936-1.645.415-.5669.8716-1.1329,1.3281-1.7012.3745-.5405.7495-1.105,1.083-1.6734-.019-6.8349-.0771-13.6967-.1362-20.559q-.56175.8451-1.125,1.688c-.4575.5659-.8725,1.1352-1.2886,1.6767q-.74625.81735-1.4941,1.6328c-.5391.5518-1.1191,1.0991-1.65869,1.6221-.66061.5278-1.28171,1.0776-1.90231,1.581-.70369.5289-1.3238,1.0391-1.9864,1.5445q-1.1139.7617-2.2304,1.5244c-.7847.5102-1.5694,1.0205-2.3125,1.5122-.8672.4902-1.73439.958-2.5586,1.4243-.9082.4697-1.815.9395-2.6392,1.4116-.9487.47219-1.8975.9214-2.8457,1.3931-.9878.4512-1.9775.9019-2.9668,1.33009-1.0703.43161-2.10009.86031-3.0889,1.29441-1.1128.43359-2.1826.8423-3.2534,1.2525-1.1523.41209-2.2641.8242-3.3745,1.2128-1.19429.3912-2.3462.7818-3.539,1.1915-1.2349.371-2.42729.7402-3.6202,1.1103-1.2749.3496-2.5088.6982-3.7426,1.0488-1.3164.3521-2.5899.7036-3.9068,1.0279-1.3154.3305-2.6313.6596-3.9458.9673-1.35589.30949-2.75389.6142-4.0693.9003-1.3965.2881-2.8345.5733-4.1904.8609-1.4791.2641-2.877.52929-4.274.7964-1.519.2876-2.9575.5332-4.436.7754-1.478.2246-2.9985.4443-4.4761.664-1.5195.2266-3.039.4243-4.5586.6226-1.51949.2031-3.0796.37889-4.6401.5581-1.6016.1787-3.1616.333-4.6802.4912-1.6016.1558-3.2021.2891-4.8027.4214-1.6431.13519-3.2437.2461-4.8443.3564-1.6411.1123-3.3247.19779-4.9663.2867C236.48679,133.3091,234.84569,133.375,233.20359,133.44Z" style="fill:#f58220;fill-rule:evenodd"/><path d="M233.20359,133.44l-.95459.0127q.13994,10.49475.28369,20.9409a.9552.9552,0,0,0,.9966.9414c1.6411-.0733,3.2852-.1475,4.9341-.2432h-.003c1.6832-.0928,3.3248-.1885,4.9644-.2861h.0127c1.6001-.1172,3.2031-.2354,4.8521-.3789,1.6005-.1387,3.2045-.2783,4.81341-.4444l.00589-.0009c1.51411-.1641,3.0752-.3242,4.68311-.5117,1.55909-.1846,3.12449-.3692,4.65579-.5801h-.003c1.5166-.2051,3.0406-.4102,4.5708-.6446,1.4785-.2246,2.959-.458,4.482-.7089h.0029c1.4824-.25,2.9209-.501,4.3569-.752l.0103-.0029c1.4385-.2676,2.8745-.542,4.3462-.8115l.0307-.00591c1.3555-.293,2.7046-.585,4.1338-.874l.0269-.00589c1.3554-.3164,2.7075-.6309,4.0986-.9414l.0127-.0029c1.3242-.3155,2.6436-.6524,3.9585-.9893l.0044-.0019c1.2666-.3311,2.58451-.6602,3.9121-1.0235l.0117-.0039c1.2334-.3545,2.4693-.7099,3.7476-1.0898l.0132-.0039c1.1928-.37451,2.3828-.7491,3.6103-1.1241l.0147-.0043c1.1626-.376,2.31691-.773,3.50291-1.169l.01559-.0054c1.1138-.3935,2.2666-.8071,3.4209-1.2256l.0371-.01411c1.06741-.43649,2.09041-.85259,3.1953-1.28759l.0215-.0093c1.0288-.435,2.0532-.8667,3.1157-1.2988l.024-.0108c.9985-.4379,1.9917-.895,2.979-1.3481l.0141-.0068c.958-.459,1.8697-.9185,2.8169-1.3951l.0293-.0146c.854-.4668,1.7564-.9385,2.6621-1.4116l.0318-.0171c.8242-.47021,1.6963-.9683,2.5342-1.4741l.0136-.0083c.7832-.49081,1.5723-.9839,2.3682-1.5049.7554-.4981,1.5166-1.0215,2.2446-1.5791.6626-.50981,1.3223-1.0161,2.021-1.5479l.041-.0327c.62211-.5293,1.2354-1.0517,1.8814-1.5718l.0981-.0903c.47761-.5083,1.0034-1.022,1.5762-1.5649l.0493-.0503q.74567-.8196,1.49611-1.647l.062-.0762c.396-.5425.84469-1.0976,1.30229-1.667l.04-.05471c.3818-.55069.77-1.13419,1.1216-1.73379a.94851.94851,0,0,0,.1313-.4854c-.019-6.8389-.0771-13.7026-.13619-20.5649a.95488.95488,0,0,0-1.75-.5201q-.56027.84375-1.124,1.6866l.79439.5298-.7417-.6001c-.477.5898-.8979,1.1674-1.30369,1.6953l.75679.5815-.7041-.644q-.74625.81585-1.4941,1.6318l.7041.645-.6831-.6675c-.52.5332-1.0942,1.0752-1.6397,1.604l.66411.6856-.59521-.7461c-.6856.5479-1.3101,1.1011-1.9082,1.5859l.6011.7412-.5733-.7626c-.7251.5444-1.3481,1.0571-1.9917,1.5483l.5786.7588-.539-.7881q-1.11255.76169-2.231,1.5254l.5396.7871-.5201-.8003c-.7851.5103-1.5712,1.0215-2.31979,1.5161l.52739.7964-.4698-.8311c-.8564.4839-1.72259.9517-2.559,1.4244l.4702.831-.439-.8481c-.9087.4702-1.8257.9453-2.67479,1.4311l.47459.8286-.4253-.8549c-.9375.4668-1.8862.916-2.8457,1.3935l.4253.8545-.397-.8682c-.9868.4512-1.9707.8985-2.9492,1.32229l.3794.876-.3564-.88529c-1.0782.4341-2.1158.8667-3.1158,1.3057l.3833.874-.3466-.8896c-1.1089.4321-2.1768.8403-3.2481,1.2509l.3413.8912-.3213-.899c-1.1587.4146-2.269.8262-3.3681,1.211l.3149.9008-.2969-.90671c-1.2002.39261-2.35739.78471-3.5522,1.19531l.3101.9029-.275-.9141c-1.2397.3726-2.4345.7427-3.6284,1.1123l.2832.9121-.2524-.9209c-1.2793.3511-2.5161.7007-3.751,1.0518l.2608.9179-.2466-.92231c-1.3213.35351-2.58889.70361-3.8887,1.02341l-.0039.001c-1.3154.3301-2.6255.6587-3.9312.9643l.00591-.0014c-1.35011.3076-2.74511.6113-4.06051.8974l.2031.9331-.1934-.9355c-1.3911.2876-2.8305.5732-4.1948.8628l.1978.9336-.168-.9395c-1.4854.2647-2.88719.5313-4.2857.7989-1.5063.2851-2.93549.5293-4.4106.7705l.1543.9419-.1441-.9434c-1.47309.2236-2.99209.44289-4.4716.6631-1.5088.2256-3.023.4224-4.54249.6206h-.00341c-1.5054.2017-3.06059.3769-4.62159.5557h.00239c-1.5932.1782-3.1508.33149-4.6728.4902l.0068-.0005c-1.5932.15479-3.1899.2876-4.7895.4199-1.6348.1348-3.231.2456-4.8311.3555-1.6299.1118-3.3086.1973-4.9526.2861-1.6324.0884-3.2691.15429-4.9107.21929a.95357.95357,0,0,0-.91649.96681l.95459-.0127.0381.9536c1.6421-.065,3.2876-.1309,4.938-.22071,1.6396-.08889,3.3271-.17429,4.9795-.28759,1.6015-.1099,3.207-.2207,4.8579-.357,1.6011-.1328,3.2065-.2666,4.8164-.4228l.0068-.001c1.51471-.1572,3.07771-.312,4.6875-.4917h.0025c1.5595-.1792,3.125-.35591,4.65771-.56h-.00291c1.5195-.1988,3.04391-.397,4.5761-.6255,1.4742-.2183,2.9961-.4395,4.4785-.6646l.0108-.0014c1.4824-.2427,2.9297-.4898,4.45951-.7789,1.39739-.268,2.79149-.5317,4.26359-.7954l.0298-.0058c1.3477-.2852,2.7847-.57031,4.1861-.8594l.0097-.0024c1.3159-.2862,2.71681-.5913,4.0786-.9024l.0059-.0014c1.3237-.3096,2.6445-.6402,3.96-.9703l-.004.001c1.3345-.3286,2.6138-.6821,3.9249-1.0327l.0141-.0044c1.2334-.3496,2.4644-.6977,3.7349-1.0459l.0307-.0088c1.1919-.3701,2.3824-.7383,3.6119-1.1084l.0351-.01121c1.1904-.40869,2.3384-.79839,3.5254-1.18649l.019-.0069c1.1216-.3925,2.2349-.8051,3.3804-1.2153l.02-.0068c1.0703-.4102,2.1421-.8199,3.2588-1.2549l.0366-.0152c.9776-.4292,1.9981-.854,3.0621-1.2827l.02341-.00971c.99949-.43309,1.99509-.88629,2.98339-1.33789l.0283-.0132c.9375-.4668,1.8862-.916,2.8462-1.3936l.0493-.02631c.79881-.458,1.69581-.92239,2.6035-1.39209l.03031-.0166c.81349-.4605,1.68119-.9282,2.55859-1.42431l.0571-.03469c.7388-.4888,1.522-.9976,2.3067-1.5078l.0195-.0132q1.1118-.76246,2.2295-1.5239l.0395-.0293c.6817-.5196,1.2984-1.0269,1.9815-1.54011l.0273-.02189c.6436-.522,1.26031-1.0689,1.8965-1.5762l.0694-.061c.5327-.5167,1.1191-1.06991,1.6767-1.6402l.021-.0224q.74715-.81525,1.4951-1.63331l.0528-.06249c.4253-.5547.8354-1.1163,1.2734-1.6583l.0522-.0703q.56325-.84375,1.1255-1.6894l-.7949-.5283-.9546.0083c.0591,6.8618.11721,13.7221.1363,20.5532l.9545-.0025-.8237-.4829c-.3144.53669-.6767,1.0826-1.04389,1.6128l.78459.5435-.7441-.5982c-.4561.5674-.9209,1.1441-1.35449,1.7354l.77049.564-.708-.6402q-.7464.82545-1.4917,1.6426l.7061.6426-.6568-.6929c-.5845.5552-1.1372,1.0928-1.6538,1.64309l.6958.65331-.5976-.7441c-.6763.5419-1.3028,1.0781-1.9234,1.6059l.6182.7271-.5772-.7598c-.7046.5347-1.3672,1.0435-2.0288,1.5532-.67329.5161-1.3989,1.0156-2.1304,1.4971-.77189.5058-1.5488.9917-2.3334,1.4839l.5068.8086-.4937-.8169c-.8105.48969-1.6694.98-2.49359,1.4502l.47309.8291-.4419-.8462c-.9057.4731-1.8188.9492-2.6938,1.4277l.4575.83789-.4282-.853c-.94869.47651-1.8501.93021-2.7852,1.37841l.4121.8613-.3979-.8681c-.9893.4545-1.9732.9077-2.9502,1.33639l.3843.874-.3594-.88429c-1.0776.438-2.1108.8745-3.1401,1.3096l.372.8789-.3496-.88821c-1.1172.44-2.1489.85891-3.21969,1.29691l.36179.8838-.3252-.898c-1.1514.417-2.2998.8291-3.4077,1.2212l.3188.8999-.30269-.9052c-1.19631.39939-2.34471.79439-3.48531,1.163l.2934.9082-.2788-.9126c-1.23729.378-2.4311.754-3.6225,1.1265l.2851.9111-.2725-.9145c-1.268.3769-2.497.7314-3.7299,1.0854l.2636.9175-.2519-.9214c-1.3003.356-2.6118.6836-3.8926,1.0201l.0049-.002c-1.31349.3369-2.6221.6709-3.9258.9815l.2212.9287-.2085-.9317c-1.40139.3125-2.7598.6289-4.1147.9444l.21631.9296-.18951-.9355c-1.4448.2939-2.8042.5869-4.1592.8809l.2022.9326-.1714-.9385c-1.4824.2705-2.9199.5449-4.354.8125l.1753.9385-.1646-.9405c-1.436.251-2.8701.502-4.3432.75l.0029-.0009c-1.5142.25-2.9868.4814-4.4609.706-1.5078.23049-3.01959.4346-4.5367.6387l-.00289.001c-1.50541.208-3.05911.3906-4.61821.5761-1.5883.1846-3.145.3448-4.6665.5098h.0059c-1.5903.1621-3.1841.3027-4.78419.4414-1.63131.1416-3.22561.2588-4.82571.375l.0699.9522-.05719-.9532c-1.63811.0977-3.27681.1934-4.95551.2862h-.003c-1.6323.0957-3.26749.1689-4.9072.2412l.042.95409.9546-.01269q-.1428-10.45755-.2837-20.9409l-.9546.0127.0381.9536Z" style="fill:#2e2c54"/><path d="M232.58009,93.499c.2417,13.3174.4282,26.6553.6211,39.938,1.6421-.062,3.2846-.1313,4.9267-.2212,1.6416-.082,3.3257-.1718,4.9683-.2822,1.6011-.1108,3.2017-.22071,4.8437-.3594,1.6006-.1308,3.2012-.2617,4.8028-.4204,1.5176-.1587,3.0771-.311,4.6782-.4897,1.5596-.1797,3.11911-.3521,4.6436-.5596,1.518-.1997,3.0361-.393,4.5542-.62061,1.4765-.22069,3.0019-.44189,4.478-.66259,1.4765-.2412,2.9184-.4897,4.437-.7793,1.394-.2622,2.7944-.5317,4.2715-.7934,1.3589-.2901,2.7944-.5728,4.1885-.8628,1.31731-.2832,2.7182-.586,4.0708-.897,1.3183-.3106,2.6293-.6416,3.9472-.9658,1.3174-.3247,2.5874-.6768,3.90531-1.0288,1.23529-.3516,2.46969-.7036,3.74659-1.0479,1.1865-.373,2.3808-.7461,3.6162-1.1113,1.1933-.41411,2.3457-.8003,3.539-1.1944,1.1114-.3862,2.22221-.7998,3.3746-1.2138,1.0693-.4072,2.1391-.8213,3.2568-1.249.98681-.4351,2.0151-.8623,3.084-1.2974.9941-.4277,1.9804-.876,2.9673-1.33151.9521-.46929,1.8979-.91749,2.8501-1.39409.8208-.4692,1.7319-.9385,2.6357-1.4072.8281-.46971,1.6904-.9385,2.5601-1.42871.74461-.48979,1.5249-1.00049,2.312-1.51079.74461-.5039,1.4897-1.0146,2.228-1.5254.66261-.5034,1.2842-1.0141,1.9878-1.5385.6206-.5039,1.2412-1.0557,1.90381-1.5874.53859-.5171,1.11819-1.0694,1.65629-1.6211.497-.5454,1.0004-1.0835,1.4975-1.6284.4141-.5455.8281-1.11141,1.2901-1.6768.373-.5659.7456-1.1245,1.1245-1.6909q-26.73345-1.3242-53.855-2.7251-27.30465-1.377-55.1123-2.8155" style="fill:#f58220;fill-rule:evenodd"/><path d="M232.58009,93.499l-.9517.0137c.2344,13.3174.4273,26.6553.62061,39.9385a.96938.96938,0,0,0,.29639.6826.95506.95506,0,0,0,.6973.2622c1.6426-.0688,3.2842-.1308,4.9336-.2207,1.6421-.0893,3.333-.1792,4.9824-.29,1.6006-.1099,3.208-.2207,4.8574-.35841,1.6006-.13139,3.2085-.26219,4.81591-.42089h.00739c1.5175-.1587,3.0771-.3106,4.6845-.4898l.0069-.00731c1.5595-.17239,3.1259-.352,4.6577-.55859h-.0069c1.52541-.1933,3.0503-.393,4.5816-.6216,1.4697-.2197,2.9951-.4409,4.479-.6684h.00681c1.48289-.2417,2.93259-.4903,4.46439-.7803,1.3935-.2617,2.78761-.5308,4.2573-.7935l.0342-.0068c1.3457-.2832,2.7807-.5659,4.1816-.8559l.0137-.0064c1.3184-.2832,2.7187-.5864,4.0781-.897l.0069-.0068q1.9878-.4665,3.9609-.9658h-.0068c1.332-.3316,2.6152-.6836,3.9262-1.0357h.0132c1.2354-.352,2.4634-.7036,3.7334-1.0488l.0342-.0068c1.187-.3731,2.3808-.7383,3.6089-1.1109l.0346-.0136c1.1939-.4073,2.3389-.7935,3.5264-1.1866h.02c1.1182-.394,2.2359-.8081,3.3814-1.2212l.021-.0078c1.0693-.4067,2.1391-.8134,3.2568-1.24851l.0347-.021c.979-.42769,2.0005-.84859,3.0635-1.28319l.0205-.00681c1.00091-.43459,2.00091-.88329,2.9878-1.33889l.0278-.0137c.938-.4619,1.8838-.9179,2.8428-1.394l.0478-.02741c.8008-.45549,1.6978-.91789,2.6089-1.38669l.0273-.021c.814-.4551,1.6831-.92431,2.5601-1.4214l.0557-.0346c.7378-.4898,1.5239-1,2.311-1.5108l.01371-.0141c.74559-.5035,1.49069-1.0142,2.229-1.5181l.04149-.0342c.6831-.5176,1.2969-1.0283,1.98-1.539l.0273-.0206c.6494-.5244,1.26321-1.0693,1.898-1.58l.0688-.0552c.5317-.5176,1.1182-1.06931,1.6768-1.6421l.021-.021c.497-.5454,1-1.0903,1.497-1.63521l.0557-.06249c.42091-.5518.835-1.1177,1.269-1.6553l.0552-.07621c.3731-.55909.7451-1.125,1.1245-1.68409a.95518.95518,0,0,0,.0557-.959.93683.93683,0,0,0-.8071-.52391q-26.72475-1.32569-53.8492-2.73289-27.30465-1.37625-55.1049-2.8154a.98323.98323,0,0,0-.71729.2695.96344.96344,0,0,0-.28961.7036l.9517-.0137-.0484.9522q27.8109,1.418,55.1119,2.8154,27.1179,1.36605,53.8559,2.7256l.0479-.9526-.8003-.5313c-.37209.5659-.74509,1.125-1.1177,1.6909l.7935.5313-.7452-.60061c-.476.58641-.8969,1.166-1.3042,1.69041l.7593.587-.7036-.649c-.4976.5454-1.0015,1.0904-1.4976,1.6358l.7037.6416-.6827-.6626c-.518.5312-1.0908,1.0693-1.6362,1.601l.66261.6827-.59281-.7447c-.6904.55179-1.311,1.104-1.9116,1.5869l.6006.7452-.5728-.7661c-.7246.5454-1.3452,1.0561-1.9946,1.5459l.5796.7587-.5386-.7866c-.73779.51079-1.4829,1.0142-2.228,1.5249l.5386.7871-.5181-.8008c-.7866.5103-1.5732,1.021-2.3184,1.5181l.5245.79349-.4698-.82819c-.8549.4834-1.7251.9527-2.5595,1.4214l.4692.8355-.4351-.8486c-.9106.4687-1.8281.9448-2.6767,1.4282l.4761.8276-.4283-.8486c-.9379.4624-1.8837.9111-2.8427,1.38669l.4209.856-.3931-.86919c-.9868.4551-1.9736.9033-2.9531,1.3247l.3789.876-.3516-.8833c-1.0762.4346-2.1181.86279-3.11859,1.3042l.38619.8765-.3516-.8902c-1.1045.4278-2.1738.835-3.24359,1.249l.33839.8902-.31739-.897c-1.15921.41409-2.27.8276-3.37451,1.207l.3173.9038-.2963-.9101c-1.2012.3931-2.3531.7866-3.5533,1.2002l.3106.9043-.2764-.918c-1.2353.3731-2.4287.7451-3.6221,1.1113l.2823.918-.2554-.9248c-1.2769.3516-2.5186.7036-3.7534,1.0479l.26221.9248-.24851-.9248c-1.3179.353-2.5879.7046-3.8843,1.0214h-.0078c-1.3111.3316-2.6221.6626-3.9253.9668-1.3462.30329-2.7398.607-4.0576.897l.2002.9312-.1934-.9312c-1.3872.2827-2.8296.5728-4.1958.86229l.2007.93171-.166-.9385c-1.4834.2622-2.89119.5307-4.28519.793-1.51071.2895-2.93941.5317-4.40921.7734l.1519.9448-.1446-.9448c-1.4697.2207-2.9946.4409-4.47109.6621-1.51181.2275-3.02251.4214-4.54111.6211h-.0068c-1.5039.20019-3.05609.3799-4.6226.5586h.0069c-1.5938.1728-3.1533.3315-4.67139.4907-1.58691.15089-3.188.2822-4.78861.4136-1.62839.1382-3.229.248-4.8305.3589-1.6285.1098-3.3052.1933-4.9546.2832-1.6285.0888-3.2637.1587-4.90529.2207l.03419.9516.959-.0136c-.1929-13.2828-.3863-26.6211-.6211-39.9453l-.959.0209-.0484.9522.0484-.9522" style="fill:#2e2c54"/><path d="M233.71189,94.5274l.3828,34.3882q.0111.777.0225,1.5542c41.8247-1.189,124.4824-24.1714,29.8105-25.8335-16.7192-.2071-21.5908-8.5567-30.2158-10.1089" style="fill:#faa71a"/><path d="M234.09469,128.9156l.0171,1.5542h.0054q-.0117-.77715-.0225-1.5542" style="fill:#6b5f57"/><path d="M231.72409,71.9297c12.9453-.3667,23.3584,3.47119,23.4556,8.6128.0967,5.1187-10.2056,9.6177-23.07669,10.0347-12.91311.4204-23.55271-3.4112-23.66161-8.6021C208.29149,76.8076,218.77929,72.29689,231.72409,71.9297Z" style="fill:#233a76;fill-rule:evenodd"/><path d="M231.72409,71.9297l.02691.9429q.84659-.02415,1.67769-.0239a42.454,42.454,0,0,1,15.0479,2.4096,13.5578,13.5578,0,0,1,4.3237,2.5454,5.23144,5.23144,0,0,1,1.07671,1.3868,3.1107,3.1107,0,0,1,.36029,1.3701v.0537a3.21226,3.21226,0,0,1-.3662,1.4492,7.60694,7.60694,0,0,1-2.5532,2.6611,25.70184,25.70184,0,0,1-7.938,3.3462,51.762,51.762,0,0,1-11.3076,1.5635q-.9603.0315-1.9009.0313a42.45015,42.45015,0,0,1-14.9902-2.4029,13.64971,13.64971,0,0,1-4.3443-2.5449,5.24891,5.24891,0,0,1-1.0874-1.3892,3.10172,3.10172,0,0,1-.3647-1.3735l-.0005-.0078-.001-.082a3.19128,3.19128,0,0,1,.3711-1.4561,7.65991,7.65991,0,0,1,2.5903-2.6699,26.04205,26.04205,0,0,1,8.0279-3.33841A52.12811,52.12811,0,0,1,231.751,72.8726l-.02691-.9429-.0268-.9424a47.665,47.665,0,0,0-16.8052,3.2588,17.42938,17.42938,0,0,0-5.2778,3.2803,7.72744,7.72744,0,0,0-1.542,2.0308,5.07669,5.07669,0,0,0-.5757,2.3081l.00241.1372-.00051-.0078a5.00637,5.00637,0,0,0,.5752,2.1997,8.616,8.616,0,0,0,3.0376,3.1181,24.85772,24.85772,0,0,0,8.0493,3.10739,51.04323,51.04323,0,0,0,11.0108,1.13141q.9711,0,1.9624-.0317a47.2346,47.2346,0,0,0,16.6865-3.30571,17.24191,17.24191,0,0,0,5.2163-3.28129,7.70169,7.70169,0,0,0,1.5205-2.0234,5.086,5.086,0,0,0,.56591-2.2949l-.00041-.08941a4.99573,4.99573,0,0,0-.5669-2.19379,8.57074,8.57074,0,0,0-3.0171-3.11921,24.688,24.688,0,0,0-8.0391-3.11369,51.28994,51.28994,0,0,0-11.0708-1.1358q-.8577,0-1.7314.0249Z" style="fill:#2e2c54"/><path d="M231.72409,71.9297c12.9453-.3667,23.3584,3.47119,23.4556,8.6128.0967,5.1187-10.2056,9.6177-23.07669,10.0347-12.91311.4204-23.55271-3.4112-23.66161-8.6021C208.29149,76.8076,218.77929,72.29689,231.72409,71.9297Z" style="fill:#c7c4e2;fill-rule:evenodd"/><path d="M231.72409,71.9297l.02691.9429q.84659-.02415,1.67769-.0239a42.454,42.454,0,0,1,15.0479,2.4096,13.5578,13.5578,0,0,1,4.3237,2.5454,5.23144,5.23144,0,0,1,1.07671,1.3868,3.1107,3.1107,0,0,1,.36029,1.3701v.0537a3.21226,3.21226,0,0,1-.3662,1.4492,7.60694,7.60694,0,0,1-2.5532,2.6611,25.70184,25.70184,0,0,1-7.938,3.3462,51.762,51.762,0,0,1-11.3076,1.5635q-.9603.0315-1.9009.0313a42.45015,42.45015,0,0,1-14.9902-2.4029,13.64971,13.64971,0,0,1-4.3443-2.5449,5.24891,5.24891,0,0,1-1.0874-1.3892,3.10172,3.10172,0,0,1-.3647-1.3735l-.0005-.0078-.001-.082a3.19128,3.19128,0,0,1,.3711-1.4561,7.65991,7.65991,0,0,1,2.5903-2.6699,26.04205,26.04205,0,0,1,8.0279-3.33841A52.12811,52.12811,0,0,1,231.751,72.8726l-.02691-.9429-.0268-.9424a47.665,47.665,0,0,0-16.8052,3.2588,17.42938,17.42938,0,0,0-5.2778,3.2803,7.72744,7.72744,0,0,0-1.542,2.0308,5.07669,5.07669,0,0,0-.5757,2.3081l.00241.1372-.00051-.0078a5.00637,5.00637,0,0,0,.5752,2.1997,8.616,8.616,0,0,0,3.0376,3.1181,24.85772,24.85772,0,0,0,8.0493,3.10739,51.04323,51.04323,0,0,0,11.0108,1.13141q.9711,0,1.9624-.0317a47.2346,47.2346,0,0,0,16.6865-3.30571,17.24191,17.24191,0,0,0,5.2163-3.28129,7.70169,7.70169,0,0,0,1.5205-2.0234,5.086,5.086,0,0,0,.56591-2.2949l-.00041-.08941a4.99573,4.99573,0,0,0-.5669-2.19379,8.57074,8.57074,0,0,0-3.0171-3.11921,24.688,24.688,0,0,0-8.0391-3.11369,51.28994,51.28994,0,0,0-11.0708-1.1358q-.8577,0-1.7314.0249Z" style="fill:#2e2c54"/><path d="M231.78909,76.1812c7.0371-.2041,12.747,1.9009,12.81691,4.6875.06929,2.7866-5.57671,5.227-12.61091,5.458-7.0322.2309-12.7837-1.8565-12.8564-4.6812C219.10639,78.8418,224.75239,76.3858,231.78909,76.1812Z" style="fill:#2e2c54;fill-rule:evenodd"/><path d="M231.78909,76.1812l.0278.9428q.46067-.013.9136-.0136a22.75622,22.75622,0,0,1,8.041,1.2871,7.07156,7.07156,0,0,1,2.2319,1.3008,2.45131,2.45131,0,0,1,.5069.6401,1.24312,1.24312,0,0,1,.1528.5537v.0274a1.30405,1.30405,0,0,1-.1533.5918,3.74057,3.74057,0,0,1-1.2564,1.2827,13.73512,13.73512,0,0,1-4.2065,1.7534,28.12473,28.12473,0,0,1-6.0825.8364q-.52.01755-1.0289.01709A22.54832,22.54832,0,0,1,222.957,84.1236a7.00709,7.00709,0,0,1-2.21731-1.2974,2.45027,2.45027,0,0,1-.5048-.6421,1.27585,1.27585,0,0,1-.1534-.563l-.9428.0244.94331-.0107v-.0137a1.32439,1.32439,0,0,1,.15579-.6045,3.76191,3.76191,0,0,1,1.26121-1.2988,13.63469,13.63469,0,0,1,4.21729-1.7666,27.76266,27.76266,0,0,1,6.1006-.8272l-.0278-.9428-.0274-.9424a26.13528,26.13528,0,0,0-9.3022,1.8252,9.84235,9.84235,0,0,0-2.9907,1.8838,4.63646,4.63646,0,0,0-.9175,1.2236,3.23125,3.23125,0,0,0-.356,1.4497l.0005.0352.0005.01359a3.16439,3.16439,0,0,0,.3633,1.38041,5.11439,5.11439,0,0,0,1.7939,1.8579,13.85985,13.85985,0,0,0,4.5069,1.7525,28.08,28.08,0,0,0,6.0751.6264c.3604,0,.7232-.0058,1.0904-.018a26.45821,26.45821,0,0,0,9.268-1.8286,9.85615,9.85615,0,0,0,2.9825-1.8653,4.62769,4.62769,0,0,0,.9165-1.2134,3.18468,3.18468,0,0,0,.3564-1.4423l-.001-.0738a3.13794,3.13794,0,0,0-.3652-1.3789,5.14085,5.14085,0,0,0-1.8008-1.854,14.00857,14.00857,0,0,0-4.5312-1.7568,28.29343,28.29343,0,0,0-6.1206-.6314c-.3208,0-.6431.0049-.9688.0142Z" style="fill:#2e2c54"/><path d="M388.668,90.38184v11.92382h15.08789v4.98047H388.668v20.74219h-5.85938V85.1084h26.51368v5.27344Z"/><path d="M419.13672,96.65137v20.00976q0,7.26563,6.29883,7.26563a8.66029,8.66029,0,0,0,5.03906-1.582,7.59193,7.59193,0,0,0,3.01758-3.66211V96.65137h5.5664v31.377h-5.5664v-4.33594a8.65788,8.65788,0,0,1-3.76465,3.38379,11.52034,11.52034,0,0,1-5.52246,1.53809q-5.15625,0-7.89551-2.959-2.74072-2.959-2.73926-8.4082V96.65137Z"/><path d="M444.5957,126.15332l1.96289-5.27344q4.65821,3.04688,7.5,3.04688,5.15625,0,5.15625-4.33594,0-3.10546-4.98046-5.332a40.9665,40.9665,0,0,1-5.1709-2.666,11.48212,11.48212,0,0,1-2.31446-2.06543,8.19343,8.19343,0,0,1-1.46484-2.46093,7.98364,7.98364,0,0,1-.4834-2.79786,7.18912,7.18912,0,0,1,2.8125-6.03515,11.71317,11.71317,0,0,1,7.35352-2.168,23.63158,23.63158,0,0,1,8.64258,2.168l-1.582,5.15625a10.65947,10.65947,0,0,0-6.65039-2.63672,5.77613,5.77613,0,0,0-3.35449.9375,2.793,2.793,0,0,0-1.3623,2.373q0,3.01758,3.42773,4.57031l3.98438,1.81641a13.99474,13.99474,0,0,1,5.332,3.80859,8.44736,8.44736,0,0,1,1.66992,5.36133,8.0208,8.0208,0,0,1-2.959,6.60644q-2.959,2.3877-8.20312,2.3877A18.67351,18.67351,0,0,1,444.5957,126.15332Z"/><path d="M473.62891,128.02832V101.33887h-4.30664v-4.6875h9.873v31.377Zm3.04687-43.24219a3.33212,3.33212,0,0,1,2.44629,1.01075,3.29819,3.29819,0,0,1,1.01074,2.417,3.4509,3.4509,0,0,1-3.457,3.457,3.29824,3.29824,0,0,1-2.417-1.01074,3.42787,3.42787,0,0,1,2.417-5.874Z"/><path d="M485.99219,112.2666q0-7.26562,3.91113-11.7334a13.0227,13.0227,0,0,1,10.29785-4.46777q6.73828,0,10.459,4.292t3.7207,11.90918q0,7.5879-3.80859,11.96778a13.03362,13.03362,0,0,1-10.3711,4.37988q-6.709,0-10.459-4.42383T485.99219,112.2666Zm5.85937,0q0,11.80665,8.34961,11.80664a7.05065,7.05065,0,0,0,6.1084-3.16406q2.21191-3.16407,2.21191-8.64258,0-11.66016-8.32031-11.66015a7.15576,7.15576,0,0,0-6.0791,3.10546Q491.85157,106.81739,491.85156,112.2666Z"/><path d="M539.54688,128.02832v-18.252q0-5.00978-1.50879-7.0166-1.51026-2.00683-5.05371-2.00684A8.28664,8.28664,0,0,0,529,101.89551a8.86265,8.86265,0,0,0-3.19336,2.8125v23.32031h-5.56641v-31.377h3.8086l1.75781,4.043q2.75391-4.62891,8.99414-4.62891,10.3125,0,10.3125,12.53906v19.42383Z"/><path d="M580.85547,86.69043l-1.96289,5.00977q-2.8125-2.05078-8.84766-2.05079a10.56777,10.56777,0,0,0-9.0664,4.86329q-3.4131,4.86327-3.41407,12.53906,0,7.32421,3.502,11.87988a10.89592,10.89592,0,0,0,9.03711,4.55566q6.03514,0,9.2871-4.27734l3.22266,4.48242a17.82039,17.82039,0,0,1-13.125,5.06836q-8.40821,0-13.24219-6.06445t-4.834-15.99609q0-9.60937,5.15625-15.9668A16.37639,16.37639,0,0,1,569.89844,84.376Q576.9004,84.376,580.85547,86.69043Z"/><path d="M608.24805,128.02832v-19.7168a8.245,8.245,0,0,0-1.72852-5.53711,6.05139,6.05139,0,0,0-4.86328-2.02148,8.00751,8.00751,0,0,0-4.05859,1.18652,9.46249,9.46249,0,0,0-3.11914,2.76856v23.32031h-5.56641V83.79h5.56641V100.1084a8.277,8.277,0,0,1,3.58789-2.88574,11.9481,11.9481,0,0,1,5.11328-1.15723,9.75817,9.75817,0,0,1,7.80664,3.28125q2.82714,3.28125,2.82812,8.96484v19.7168Z"/><path d="M639.41992,124.4248q-3.33984,4.18946-10.22461,4.18946a8.80262,8.80262,0,0,1-6.40234-2.68067,8.99669,8.99669,0,0,1-2.709-6.665,9.94767,9.94767,0,0,1,4.17383-8.07128,16.66537,16.66537,0,0,1,10.65039-3.2959,12.47774,12.47774,0,0,1,3.98438.76172q0-7.61719-6.79688-7.61719-5.21484,0-8.02734,2.8125l-2.34375-4.6582a13.74229,13.74229,0,0,1,4.37891-2.21192,17.06753,17.06753,0,0,1,5.34765-.92285q6.82617,0,9.916,3.10547,3.09081,3.10546,3.09179,9.873v11.25q0,4.13085,2.46094,5.50781v2.7832a10.48727,10.48727,0,0,1-5.084-.9668A5.45239,5.45239,0,0,1,639.41992,124.4248Zm-.52734-11.80664a20.134,20.134,0,0,0-3.69141-.58593,10.564,10.564,0,0,0-6.88476,2.168,6.44522,6.44522,0,0,0-2.666,5.127q0,4.89258,5.77149,4.89258,4.21875,0,7.4707-4.01368Z"/><path d="M670.26953,102.0127a6.3807,6.3807,0,0,0-3.66211-1.25977,6.52312,6.52312,0,0,0-5.17187,2.72461,10.081,10.081,0,0,0-2.21094,6.5625v17.98828H653.6582v-31.377h5.56641v5.00976q3.04688-5.5957,9.05273-5.5957a25.3152,25.3152,0,0,1,4.30664.52734Z"/><path d="M678.53125,101.0459h-3.63281V96.65137h3.63281v-6.5625l5.56641-2.13867v8.70117h8.61328v4.39453h-8.61328v15.58594q0,3.95507,1.332,5.625a5.16916,5.16916,0,0,0,4.293,1.66992,10.29744,10.29744,0,0,0,4.42382-1.084l.82032,4.89258a30.767,30.767,0,0,1-7.58789.87891,8.23586,8.23586,0,0,1-6.28516-2.76856,9.884,9.884,0,0,1-2.5625-6.9873Z"/><path d="M698.27734,126.15332l1.96289-5.27344q4.6582,3.04688,7.5,3.04688,5.15625,0,5.15625-4.33594,0-3.10546-4.98046-5.332a41.00037,41.00037,0,0,1-5.17188-2.666,11.50837,11.50837,0,0,1-2.31445-2.06543,8.21357,8.21357,0,0,1-1.46485-2.46093,7.98348,7.98348,0,0,1-.48242-2.79786,7.18912,7.18912,0,0,1,2.8125-6.03515,11.71317,11.71317,0,0,1,7.35352-2.168,23.63158,23.63158,0,0,1,8.64258,2.168l-1.582,5.15625a10.65947,10.65947,0,0,0-6.65039-2.63672,5.77935,5.77935,0,0,0-3.35547.9375,2.792,2.792,0,0,0-1.36132,2.373q0,3.01758,3.42773,4.57031l3.98438,1.81641a13.99474,13.99474,0,0,1,5.332,3.80859,8.44736,8.44736,0,0,1,1.66992,5.36133,8.02082,8.02082,0,0,1-2.959,6.60644q-2.959,2.3877-8.20313,2.3877A18.67346,18.67346,0,0,1,698.27734,126.15332Z"/></svg>