<svg width="200" height="100" xmlns="http://www.w3.org/2000/svg"><defs><linearGradient x1="21.668%" y1="50%" x2="97.915%" y2="50%" id="a"><stop stop-color="#2F2348" offset="0%"/><stop stop-color="#2F2348" offset="11.798%"/><stop stop-color="#3C355D" offset="29.213%"/><stop stop-color="#494977" offset="100%"/></linearGradient><linearGradient x1="38.764%" y1="53.406%" x2="123.408%" y2="10.166%" id="b"><stop stop-color="#715F9E" offset="0%"/><stop stop-color="#715F9E" offset="3.933%"/><stop stop-color="#8A98C6" offset="32.022%"/><stop stop-color="#B0B9DB" offset="51.124%"/><stop stop-color="#E0E3F3" offset="93.82%"/><stop stop-color="#E0E3F3" offset="100%"/></linearGradient><linearGradient x1="65.265%" y1="50.699%" x2="215.733%" y2="1.967%" id="c"><stop stop-color="#7F6DA7" offset="0%"/><stop stop-color="#7F6DA7" offset="3.933%"/><stop stop-color="#97A3CD" offset="32.022%"/><stop stop-color="#B9C0DE" offset="51.124%"/><stop stop-color="#E3E6F4" offset="93.82%"/><stop stop-color="#E3E6F4" offset="100%"/></linearGradient></defs><g fill="none" fill-rule="evenodd"><path d="M44.668 56.157c6.78.362 13.518.726 20.161 1.072 6.59.341 13.154.696 19.639 1.033a5.719 5.719 0 0 0 .895-3.067c-.065-3.89-4.572-7.335-11.863-9.779-7.375-2.473-17.655-3.934-29.14-3.774-11.673.168-22.358 1.981-30.138 4.778C6.36 49.25 1.532 53.061 1.66 57.18c.1 4.116 5.14 7.69 13.107 10.121 7.895 2.41 18.603 3.691 30.211 3.3-.099-4.805-.202-9.62-.31-14.443" fill="#233A76"/><path d="M44.668 56.157l-.015.303c6.78.36 13.515.724 20.16 1.07 6.591.343 13.155.696 19.639 1.033.108.005.21-.05.267-.144a6.018 6.018 0 0 0 .941-3.147v-.081a5.95 5.95 0 0 0-.9-2.979c-.855-1.42-2.276-2.725-4.165-3.911a33.176 33.176 0 0 0-7.002-3.172c-7.053-2.364-16.71-3.802-27.536-3.802-.564 0-1.133.005-1.701.012-11.702.17-22.411 1.986-30.234 4.798-3.9 1.402-7.068 3.047-9.279 4.873a11.283 11.283 0 0 0-2.567 2.878 6.107 6.107 0 0 0-.913 3.3v-.002A6.04 6.04 0 0 0 2.38 60.32c.957 1.487 2.533 2.84 4.618 4.057a36.529 36.529 0 0 0 7.683 3.213c6.996 2.134 16.158 3.38 26.198 3.383 1.355 0 2.725-.023 4.108-.07a.3.3 0 0 0 .287-.31c-.097-4.805-.2-9.62-.309-14.443l-.298.007-.015.303.015-.303-.295.009c.113 4.821.216 9.635.309 14.44l.297-.006-.01-.3c-1.376.044-2.739.066-4.09.066-9.99 0-19.106-1.244-26.025-3.356-3.963-1.208-7.187-2.7-9.413-4.38a10.565 10.565 0 0 1-2.562-2.64 5.423 5.423 0 0 1-.923-2.82v-.002l-.002-.148c.016-1 .303-1.976.828-2.82.823-1.39 2.257-2.747 4.212-4.014a36.246 36.246 0 0 1 7.327-3.48c7.738-2.782 18.4-4.595 30.041-4.763.569-.007 1.134-.01 1.695-.011 10.774 0 20.381 1.433 27.35 3.772 3.624 1.215 6.544 2.678 8.55 4.297a9.844 9.844 0 0 1 2.297 2.528c.503.8.785 1.723.813 2.673v.07a5.433 5.433 0 0 1-.853 2.83l.254.16.015-.303c-6.484-.337-13.048-.69-19.638-1.034-6.643-.346-13.381-.71-20.16-1.07a.294.294 0 0 0-.222.087.306.306 0 0 0-.09.224l.295-.009" fill="#2E2C54" fill-rule="nonzero"/><path d="M44.402 43.958c.09 4.069.18 8.135.266 12.199 6.78.362 13.518.726 20.161 1.072 6.59.341 13.154.696 19.639 1.033-.067-3.947-.123-7.9-.17-11.86l-19.687-1.2c-6.656-.401-13.418-.821-20.21-1.244" fill="#2E2C54"/><path d="M44.402 43.958l-.302.007c.088 4.068.177 8.135.267 12.199a.308.308 0 0 0 .286.303c6.778.36 13.515.723 20.16 1.07 6.591.343 13.155.696 19.639 1.033a.306.306 0 0 0 .227-.085.325.325 0 0 0 .093-.23c-.067-3.945-.124-7.897-.172-11.857a.308.308 0 0 0-.285-.306c-6.495-.395-13.07-.797-19.686-1.197-6.654-.402-13.419-.822-20.207-1.245a.29.29 0 0 0-.23.086.31.31 0 0 0-.092.229l.302-.007-.018.31c6.791.422 13.553.843 20.21 1.245 6.616.4 13.178.799 19.684 1.197l.02-.308-.304.005c.053 3.954.11 7.907.17 11.86l.304-.005.015-.31c-6.484-.337-13.046-.69-19.638-1.034-6.643-.345-13.381-.71-20.159-1.069l-.018.308.305-.007-.267-12.199-.304.007-.018.31.018-.31" fill="#2E2C54" fill-rule="nonzero"/><path d="M84.297 46.402c.052 3.954.11 7.907.17 11.859.04-.061.08-.122.12-.19.032-.066.068-.13.107-.19.027-.066.059-.13.093-.19.027-.061.054-.121.081-.191.027-.06.054-.122.08-.19.018-.064.041-.127.068-.188.018-.067.04-.132.068-.196.018-.064.04-.128.067-.189.013-.066.031-.132.054-.195.014-.06.028-.12.042-.188.013-.06.027-.135.04-.202.004-.066.014-.131.03-.195a1 1 0 0 1 .027-.187c-.001-.065.004-.13.015-.194l.002-.194.002-.186c-.065-3.95-.13-7.91-.169-11.875l-.001.194-.002.193a1.015 1.015 0 0 0-.016.194 1.076 1.076 0 0 0-.028.195 1.056 1.056 0 0 0-.028.194l-.041.187-.041.196c-.023.063-.041.128-.055.194-.027.064-.05.13-.068.196-.027.06-.05.124-.067.188-.027.068-.054.136-.081.196-.027.068-.054.128-.08.189a1.79 1.79 0 0 0-.095.189 1.574 1.574 0 0 0-.08.19c-.04.063-.075.13-.107.197-.039.06-.075.124-.107.19z" fill="#3B4272"/><path d="M84.297 46.402l-.304.004c.053 3.954.11 7.908.17 11.86.003.135.091.254.219.292a.3.3 0 0 0 .338-.125c.04-.06.083-.127.128-.205l.016-.03c.011-.028.045-.083.09-.16l.016-.03a1.51 1.51 0 0 1 .078-.159l.016-.031c.027-.06.056-.127.087-.205l-.283-.113.277.127c.027-.061.055-.126.085-.2l.014-.046c.015-.048.033-.096.053-.143l.015-.047c.015-.05.032-.1.053-.15l.014-.044c.015-.05.033-.098.054-.146l.013-.043a1.06 1.06 0 0 1 .041-.152l.014-.044.043-.195-.297-.063.295.07c.016-.07.03-.146.043-.21l.006-.058a.903.903 0 0 1 .022-.136l.007-.06a.827.827 0 0 1 .021-.127l.007-.06a.738.738 0 0 1 .008-.134l.007-.06.002-.193v-.001l.001-.187v-.007c-.064-3.95-.13-7.909-.168-11.873a.306.306 0 0 0-.304-.306.306.306 0 0 0-.303.307l-.002.195h.304l-.304-.004-.002.195.304.003-.297-.063a1.283 1.283 0 0 0-.022.254l.303.003-.297-.063c-.02.084-.031.17-.034.255l.303.003-.297-.064c-.02.084-.031.17-.034.257l.303.001-.297-.063-.04.18-.001.007-.04.19.296.069-.285-.107a1.87 1.87 0 0 0-.065.23l.295.071-.281-.116a1.7 1.7 0 0 0-.082.24l.295.072-.281-.116c-.033.076-.06.154-.082.234l.296.07-.281-.116a5.374 5.374 0 0 1-.077.185l-.005.012c-.023.06-.048.115-.075.175l.276.129-.26-.159c-.041.071-.078.145-.11.22l.276.128-.26-.159a.913.913 0 0 0-.068.146l-.029.076.277.127-.26-.159c-.046.074-.087.15-.124.23l.277.126-.26-.16a2.158 2.158 0 0 0-.124.221.312.312 0 0 0-.027.132l.304-.004.276.128c.011-.026.045-.082.091-.157l.017-.034c.028-.056.058-.111.09-.164l.016-.032c.022-.048.034-.084.043-.109a.332.332 0 0 1 .022-.05l.016-.031c.023-.054.049-.107.078-.158l.015-.03c.027-.06.057-.125.087-.201l-.282-.116.277.127c.03-.068.058-.138.085-.206l.014-.047c.015-.049.033-.096.054-.143l.014-.044c.014-.051.032-.101.053-.15l.014-.045c.012-.054.026-.108.044-.16l.012-.038.042-.2-.297-.064.295.072.043-.195.007-.062a.863.863 0 0 1 .021-.133l.007-.06a.905.905 0 0 1 .021-.134l.007-.06a.764.764 0 0 1 .008-.134l.007-.06.002-.193v-.003l.002-.193-.304-.002-.303.003c.039 3.967.104 7.927.168 11.877l.304-.005-.304-.002-.001.186v-.001l-.002.195.303.002-.297-.063a1.293 1.293 0 0 0-.021.254l.303.003-.297-.064c-.02.082-.031.165-.034.248l.303.003-.297-.064c-.02.084-.031.169-.035.255l.304.004-.298-.063c-.014.072-.028.145-.04.194v.009c-.013.063-.026.119-.04.179l.295.07-.282-.114a1.62 1.62 0 0 0-.068.24l.296.07-.282-.114c-.033.075-.06.153-.081.232l.296.071-.282-.115a1.69 1.69 0 0 0-.082.241l.296.07-.281-.117c-.033.076-.06.154-.082.235l.295.07-.28-.115-.077.178-.005.013a3.877 3.877 0 0 1-.075.178l.276.127-.26-.159a2.055 2.055 0 0 0-.11.22l.277.128-.26-.159a2.203 2.203 0 0 0-.124.222l.277.127-.261-.157c-.035.059-.071.115-.112.176l.253.172.303-.005c-.065-3.945-.121-7.897-.17-11.858l-.303.004.276.128-.276-.128z" fill="#2E2C54" fill-rule="nonzero"/><path d="M.304 15.634c.101 4.19.229 8.363.356 12.544.014.26.04.51.067.76.053.257.133.515.199.763.105.248.198.487.303.728.132.247.263.486.408.732.171.236.342.473.513.702.197.235.394.463.604.69.237.227.473.452.723.67.275.217.538.433.814.65.301.215.603.422.892.628.328.207.656.413.984.61.354.197.708.394 1.075.59.393.195.774.382 1.154.577.42.186.826.364 1.232.541.432.176.878.353 1.31.522.46.168.918.335 1.376.493.485.159.983.317 1.467.466.511.15 1.01.298 1.52.44.524.14 1.048.279 1.585.411.55.131 1.1.263 1.636.385.563.123 1.126.244 1.703.358.589.113 1.165.218 1.754.324.602.104 1.191.2 1.806.297.602.087 1.23.175 1.86.262l1.897.235c.64.072 1.282.134 1.937.197.654.046 1.322.1 1.976.154.667.045 1.348.091 2.015.129.68.036 1.374.067 2.055.096l2.08.062c.694.013 1.387.018 2.094.023.707-.002 1.414-.005 2.134-.016.706-.02 1.426-.038 2.146-.056l-.266-12.135c-.708.015-1.43.027-2.15.04l-2.124-.007c-.708-.01-1.416-.02-2.11-.04-.695-.018-1.39-.045-2.085-.073-.682-.034-1.364-.069-2.058-.112-.67-.043-1.35-.094-2.02-.145-.655-.066-1.324-.126-1.979-.185-.656-.068-1.298-.143-1.953-.219-.63-.075-1.272-.16-1.902-.244-.616-.092-1.246-.184-1.849-.277-.616-.101-1.206-.201-1.81-.31-.59-.111-1.167-.22-1.757-.338-.577-.119-1.14-.252-1.705-.38a75.651 75.651 0 0 1-1.653-.397 77.273 77.273 0 0 1-1.6-.426c-.499-.144-1.01-.298-1.51-.45a95.444 95.444 0 0 1-1.456-.486 45.353 45.353 0 0 1-1.378-.505c-.446-.172-.88-.352-1.313-.532-.42-.19-.827-.37-1.248-.56a63.1 63.1 0 0 1-1.168-.578c-.355-.2-.71-.399-1.065-.606-.341-.2-.67-.409-.998-.617-.303-.21-.592-.419-.894-.637a22.39 22.39 0 0 1-.802-.664c-.25-.22-.487-.448-.724-.677-.21-.228-.408-.457-.606-.702-.17-.23-.342-.468-.527-.708-.131-.238-.277-.477-.408-.733-.106-.241-.198-.489-.304-.738-.066-.257-.133-.508-.186-.758-.027-.25-.053-.509-.067-.768z" fill="url(#a)" transform="translate(1 29)"/><path d="M1.304 44.634l-.302.007c.099 4.192.227 8.366.354 12.547v.007c.016.27.042.526.069.777l.006.03c.058.276.137.538.201.779l.015.043c.104.242.196.483.304.732l.012.02c.132.25.266.492.414.744l.015.025c.172.235.344.474.516.705l.011.014c.198.238.399.469.615.7l.011.014c.238.227.478.456.734.68l.011.01c.273.215.536.43.816.649l.01.009c.305.218.607.424.893.629l.013.01c.329.205.66.412.99.612l.009.007c.355.195.71.393 1.08.59l.009.005c.392.196.771.382 1.15.575l.013.007c.421.186.83.364 1.235.541l.006.005c.435.175.882.355 1.316.523l.005.003c.46.168.92.334 1.381.494h.005c.487.162.987.319 1.472.47h.005c.509.15 1.009.298 1.523.44l.002.002c.524.141 1.051.281 1.591.413h.002c.551.13 1.1.264 1.64.387h.002c.565.123 1.129.245 1.709.36h.002c.59.114 1.168.217 1.756.323h.003c.604.105 1.194.202 1.811.299h.003c.603.087 1.232.175 1.862.262h.004c.629.08 1.27.158 1.898.236h.002a123.3 123.3 0 0 0 1.942.198h.009c.65.047 1.318.101 1.973.155h.002c.668.045 1.349.092 2.019.128h.002c.681.038 1.377.068 2.056.097h.005c.694.02 1.386.042 2.08.063h.005c.694.013 1.388.017 2.096.022h.004c.706-.002 1.413-.005 2.136-.016h.004c.706-.02 1.426-.038 2.145-.056a.307.307 0 0 0 .295-.317l-.264-12.133a.31.31 0 0 0-.31-.304c-.708.016-1.43.027-2.15.04l.005.31.002-.31c-.721-.001-1.415-.004-2.125-.006v.308l.004-.308c-.707-.011-1.415-.022-2.107-.04-.692-.018-1.386-.045-2.08-.072h.002c-.681-.036-1.362-.07-2.054-.113-.666-.042-1.347-.094-2.015-.146l-.022.31.029-.307c-.657-.068-1.327-.128-1.982-.187l-.026.31.03-.307a189.58 189.58 0 0 1-1.95-.22c-.626-.075-1.267-.16-1.895-.243l-.04.305.044-.305c-.617-.092-1.248-.185-1.85-.277l-.043.306.048-.306c-.615-.1-1.203-.2-1.805-.31h.002c-.59-.11-1.166-.218-1.754-.337h.002c-.573-.116-1.135-.249-1.7-.377a64.415 64.415 0 0 1-3.24-.82l-.079.299.082-.297c-.496-.144-1.005-.296-1.503-.45l-.088.297.092-.294a95.36 95.36 0 0 1-1.452-.485c-.468-.162-.924-.33-1.369-.501h.002c-.443-.171-.873-.348-1.307-.528l-.114.285.123-.283c-.421-.19-.829-.37-1.248-.56l-.123.284.13-.281a68.467 68.467 0 0 1-1.164-.575l-.134.276.145-.27c-.355-.2-.707-.397-1.058-.604-.337-.195-.66-.402-.99-.61l-.16.262.17-.256c-.298-.207-.587-.416-.889-.634l-.176.254.187-.245c-.273-.217-.546-.44-.791-.656l.002.003c-.244-.216-.478-.44-.714-.668l-.21.225.221-.213a14.713 14.713 0 0 1-.59-.686l-.236.196.242-.187c-.17-.226-.342-.467-.529-.712l-.24.191.264-.152c-.134-.245-.277-.481-.403-.724l-.269.144.278-.126c-.102-.231-.194-.478-.304-.737l-.278.124.293-.079c-.066-.258-.132-.505-.183-.743l-.295.065.302-.034c-.029-.25-.053-.503-.066-.75a.306.306 0 0 0-.314-.295.307.307 0 0 0-.292.317l.302-.007-.302.016c.013.27.041.535.068.786l.004.032c.055.26.124.514.19.77l.015.045c.102.24.194.49.304.742l.01.018c.138.267.284.51.411.74l.027.04c.18.233.35.47.522.702l.009.012c.2.249.403.483.62.716l.01.014c.238.229.479.458.734.685h.003c.253.225.533.454.813.674l.01.009c.303.218.594.427.898.64l.01.007c.33.209.662.418 1.008.622.36.21.717.41 1.07.61l.012.006c.395.2.779.39 1.173.58l.007.004c.423.19.828.37 1.247.56l.009.004c.434.18.87.36 1.32.534h.002a51.866 51.866 0 0 0 2.848.996l.007.002c.498.153 1.011.305 1.512.452h.004c.525.146 1.065.29 1.607.426v.003c.54.132 1.093.27 1.66.397.562.128 1.128.26 1.71.382h.002c.593.117 1.17.227 1.761.337h.002c.604.11 1.197.211 1.814.312h.002c.607.095 1.235.187 1.852.279h.004c.63.085 1.274.168 1.905.245h.002c.654.076 1.298.15 1.957.22h.004c.655.058 1.323.12 1.975.184h.01c.667.052 1.35.103 2.02.146.699.043 1.382.077 2.063.112h.002c.697.028 1.393.054 2.09.075.696.018 1.406.029 2.114.038h.002l2.125.007h.006c.721-.011 1.442-.025 2.151-.039l-.006-.31-.304.007c.09 4.05.179 8.095.266 12.134l.304-.007-.009-.308c-.718.018-1.439.036-2.146.057l.009.307-.005-.307c-.718.011-1.424.013-2.129.015v.31l.002-.31c-.707-.004-1.4-.011-2.09-.022l-.006.308.009-.308c-.694-.023-1.386-.043-2.08-.063l-.01.308.014-.308c-.681-.03-1.373-.06-2.052-.097-.664-.036-1.342-.083-2.01-.128l-.022.308.024-.308c-.653-.054-1.323-.108-1.98-.153l-.02.308.03-.308c-.655-.062-1.294-.125-1.933-.197l-.034.307.038-.305-1.898-.236-.037.308.042-.308c-.629-.087-1.257-.175-1.858-.263l-.042.308.046-.305c-.615-.097-1.201-.194-1.803-.297h.002c-.588-.106-1.163-.209-1.75-.323h.002c-.573-.113-1.135-.234-1.697-.356h.002c-.535-.12-1.084-.253-1.633-.384h.002c-.533-.13-1.055-.27-1.578-.41l.003.001c-.51-.141-1.006-.29-1.517-.44l-.084.299.089-.297a69.78 69.78 0 0 1-1.462-.465l-.094.295.096-.292a78.37 78.37 0 0 1-1.368-.492l-.104.292.108-.29c-.43-.167-.875-.344-1.305-.52l-.112.288.119-.285a211.03 211.03 0 0 1-1.23-.54l-.123.284.136-.276a112.53 112.53 0 0 0-1.157-.58l-.132.279.141-.274c-.364-.196-.716-.391-1.071-.587l-.146.272.155-.267c-.324-.196-.65-.4-.979-.607l-.159.263.175-.254c-.294-.207-.593-.415-.893-.629l-.174.254.185-.245c-.271-.213-.536-.429-.813-.65l-.186.246.197-.234a22.167 22.167 0 0 1-.712-.663l-.208.227.22-.213a17.192 17.192 0 0 1-.592-.679l-.232.203.24-.19c-.167-.224-.337-.46-.508-.698l-.245.184.26-.159a21.44 21.44 0 0 1-.401-.719l-.267.146.278-.126c-.104-.231-.194-.47-.302-.723l-.28.121.293-.08c-.068-.257-.145-.509-.194-.745l-.297.063.302-.033c-.027-.252-.053-.494-.066-.744l-.302.018.302-.011c-.126-4.18-.254-8.353-.355-12.54l-.304.006-.302.016.302-.016" fill="#2E2C54" fill-rule="nonzero"/><path d="M44.713 58.466l.266 12.135c-.099-4.806-.202-9.62-.31-14.443l-.266-12.2c.099 4.848.202 9.684.31 14.508z" fill="#F58220"/><path d="M44.713 58.466l-.304.007c.09 4.05.179 8.095.266 12.134a.31.31 0 0 0 .157.265c.095.053.211.05.304-.007a.31.31 0 0 0 .145-.272c-.097-4.805-.2-9.62-.308-14.443l-.267-12.199a.309.309 0 0 0-.31-.303.3.3 0 0 0-.213.096.312.312 0 0 0-.083.22c.1 4.849.202 9.685.309 14.51l.304-.008.304-.006c-.113-4.83-.216-9.667-.31-14.509a.307.307 0 0 0-.31-.303.296.296 0 0 0-.213.097.302.302 0 0 0-.084.22c.088 4.068.177 8.135.267 12.199.11 4.823.213 9.638.308 14.443a.305.305 0 0 0 .31.304.294.294 0 0 0 .213-.098.298.298 0 0 0 .083-.22l-.264-12.133-.304.006" fill="#2E2C54" fill-rule="nonzero"/><path d="M34.176 27.375c-.37 0-.772-.01-1.2-.03-17.22-.774-30.367-4.868-30.98-11.872-.35-3.988 4.986-7.464 12.537-9.915 7.338-2.382 16.754-3.782 25.131-3.782.171 0 .341 0 .511.002 15.281.103 7.8 4.075-.703 5.632-10.46 1.916-22.261 5.94-4.417 17.71 2.669 1.76 1.635 2.255-.88 2.255M43.093.506c-.668.013-1.346.022-2.026.022h-.135V.527c-.722.038-1.431.06-2.14.082-.712.039-1.422.074-2.12.106V.713c-.7.054-1.393.098-2.09.143-.685.061-1.368.122-2.056.173v-.001c-.671.076-1.355.143-2.01.213v-.002c-.668.091-1.327.174-1.984.248-.646.093-1.305.183-1.935.275V1.76c-.645.107-1.264.206-1.896.312V2.07c-.616.117-1.235.229-1.84.343h.002c-.606.122-1.21.25-1.803.371v-.002c-.579.14-1.17.267-1.75.397-.553.152-1.12.288-1.682.425v-.002c-.55.153-1.088.305-1.626.457-.54.158-1.065.318-1.578.48v-.001c-.512.174-.997.342-1.495.508-.486.173-.957.35-1.43.53-.459.184-.904.365-1.362.546a57.1 57.1 0 0 1-1.278.58c-.407.197-.81.392-1.202.597v-.001c-.382.206-.776.41-1.144.608-.35.21-.69.428-1.033.634a61.67 61.67 0 0 0-.946.65v.001c-.288.224-.563.444-.851.67v.002c-.273.222-.521.449-.783.682-.222.233-.453.463-.657.696l.001.001c-.193.237-.375.466-.57.696a26.37 26.37 0 0 0-.453.726c-.13.246-.26.49-.374.732-.08.256-.169.499-.245.737-.062.25-.113.493-.15.735-.013.252-.024.503-.024.742v.018c.013.251.039.505.065.754.053.241.118.487.183.74.104.246.195.489.294.719.13.247.271.484.405.725.182.236.351.473.52.699.194.24.388.464.595.689.237.227.472.453.717.67.246.214.52.44.791.657v-.001c.305.218.593.427.893.636.327.208.654.414.992.61.353.207.707.407 1.062.607.39.197.77.384 1.16.574l1.247.559v.001c.433.18.863.356 1.305.529.447.17.904.34 1.375.503.472.162.957.324 1.455.485.497.151 1.008.306 1.505.45a66.951 66.951 0 0 0 3.247.82c.564.128 1.129.26 1.702.38a97.222 97.222 0 0 0 3.564.647c.6.092 1.23.186 1.847.276.627.085 1.27.168 1.897.245.655.076 1.296.15 1.95.217l-.01.126.01-.126c.655.059 1.322.12 1.978.187v-.002c.668.051 1.349.103 2.017.146.694.042 1.375.076 2.056.112.694.027 1.389.054 2.083.072.694.02 1.402.029 2.11.04l2.12.007c.647-.012 1.295-.022 1.932-.036l-.066-4.745c-.03-2.278-.075-4.565-.105-6.852-.001-.032.003-.065.013-.096l-.055-2.692.12-.002-.12.002-.005-.134.135.009c6.788.422 13.553.842 20.207 1.244 6.59.398 13.138.799 19.608 1.193.023-.041.048-.08.072-.12.032-.068.067-.134.106-.198.021-.062.047-.122.077-.18a1.74 1.74 0 0 1 .092-.19c.029-.06.053-.118.08-.181v-.005l.002-.002c.023-.053.047-.115.074-.179.02-.068.043-.135.071-.2.018-.062.039-.121.063-.18.015-.068.034-.135.056-.2.013-.057.025-.12.038-.185h.002v-.002l.038-.175c.004-.066.013-.132.028-.196.004-.064.014-.128.029-.19-.001-.062.003-.124.013-.184.002-.058.002-.125.002-.192.002-.058.002-.126.002-.193h.001c-.023-.23-.046-.468-.057-.708a12.967 12.967 0 0 1-.172-.688 98.26 98.26 0 0 0-.267-.702c-.113-.22-.226-.443-.337-.671-.154-.226-.296-.45-.448-.67a10.265 10.265 0 0 1-.536-.659c-.216-.207-.436-.416-.633-.642-.246-.209-.476-.415-.72-.63-.273-.208-.533-.41-.808-.619-.3-.2-.585-.402-.882-.6-.323-.198-.645-.389-.957-.58-.353-.187-.692-.38-1.042-.571a128.46 128.46 0 0 1-1.123-.539c-.405-.177-.813-.348-1.207-.525v-.001c-.431-.161-.863-.33-1.283-.51-.442-.16-.897-.32-1.341-.481-.475-.148-.933-.31-1.403-.462v-.001a42.508 42.508 0 0 1-1.477-.437c-.512-.132-1.022-.27-1.532-.41v.001c-.54-.125-1.075-.261-1.6-.394v.001c-.552-.117-1.103-.233-1.655-.356v.001c-.578-.117-1.157-.224-1.722-.341-.59-.1-1.182-.2-1.76-.308v-.001a125.84 125.84 0 0 1-1.837-.27v-.001a75.973 75.973 0 0 1-1.869-.254l-1.915-.209c-.657-.056-1.314-.116-1.97-.18-.67-.056-1.34-.103-2-.157-.683-.031-1.38-.072-2.065-.11-.696-.022-1.38-.047-2.074-.08v.002c-.712-.01-1.421-.025-2.133-.043h-.093c-.68 0-1.371 0-2.062-.009" fill="url(#b)" fill-rule="nonzero" transform="translate(1 29)"/><path d="M44.402 43.958l-.007.126c6.79.422 13.553.842 20.21 1.245 6.614.4 13.189.802 19.684 1.197l.084.007.035-.079c.03-.06.065-.12.101-.178l.005-.006.002-.007c.022-.05.06-.114.1-.184l.004-.005.002-.006c.02-.061.046-.12.075-.178l.004-.006.002-.007c.025-.06.054-.119.086-.176l.005-.006.002-.007c.029-.06.055-.121.084-.193l-.115-.047.112.051c.03-.063.056-.132.084-.2l.002-.009.003-.009c.016-.058.037-.115.061-.17l.005-.01.002-.008c.016-.061.037-.12.062-.178l.002-.009.002-.009c.014-.06.03-.12.05-.18l.005-.008v-.007c.016-.063.029-.13.042-.198l-.119-.025.119.027c.013-.058.029-.119.042-.188l.002-.014v-.011a.868.868 0 0 1 .027-.17l.002-.012v-.014a.83.83 0 0 1 .026-.168l.002-.014v-.01a1.031 1.031 0 0 1 .011-.172l.005-.01v-.012c0-.06 0-.128.002-.195v-.207c-.024-.238-.046-.481-.057-.721v-.014l-.005-.013a15.113 15.113 0 0 1-.176-.703l-.002-.012-.002-.009-.27-.707-.001-.007-.005-.007c-.115-.224-.231-.451-.346-.687l-.004-.007-.005-.009c-.154-.225-.295-.45-.454-.679l-.004-.006-.005-.007a9.964 9.964 0 0 1-.54-.663l-.004-.006-.009-.007c-.22-.211-.438-.42-.628-.638l-.006-.01-.007-.004c-.247-.209-.48-.418-.73-.636l-.002-.004-.004-.002-.81-.62-.002-.003-.004-.002c-.3-.2-.586-.402-.888-.604l-.002-.002h-.003l-.967-.587-.002-.002-.005-.002c-.35-.187-.69-.378-1.044-.573l-.005-.002h-.002a65.366 65.366 0 0 1-1.124-.542h-.002l-.003-.002c-.407-.178-.815-.348-1.205-.523l-.002-.003h-.005a31.32 31.32 0 0 1-1.28-.51h-.003l-.004-.002c-.445-.162-.906-.323-1.349-.485h-.004l-.002-.002c-.47-.146-.928-.306-1.402-.46h-.002l-.003-.003a47.44 47.44 0 0 1-1.48-.438l-.003-.003h-.004c-.51-.132-1.023-.27-1.534-.408l-.003-.003H68.9c-.538-.123-1.073-.26-1.6-.393h-.004c-.552-.117-1.105-.231-1.653-.355h-.003l-.002-.002c-.58-.115-1.157-.225-1.721-.34h-.002c-.593-.1-1.184-.199-1.762-.307l-.002-.002h-.002c-.617-.086-1.221-.178-1.84-.272h-.003a76.77 76.77 0 0 1-1.864-.254h-.005l-.002-.002-1.92-.209h-.002c-.656-.054-1.316-.117-1.972-.18h-.003c-.672-.054-1.342-.1-1.999-.157h-.004c-.683-.032-1.382-.072-2.065-.11h-.005a127.41 127.41 0 0 1-2.076-.081h-.004a132.49 132.49 0 0 1-2.132-.04h-.099c-.681 0-1.37-.003-2.063-.01h-.002c-.666.014-1.345.02-2.023.02h-.141c-.724.039-1.433.061-2.143.084h-.004c-.71.038-1.422.074-2.118.105h-.005c-.696.052-1.393.097-2.091.142h-.003c-.685.06-1.37.121-2.054.173h-.004c-.67.076-1.356.142-2.013.211h-.004c-.672.09-1.329.175-1.986.25h-.004c-.644.092-1.303.182-1.935.274h-.003c-.645.105-1.265.204-1.897.31h-.002c-.618.114-1.237.229-1.843.343h-.002c-.606.122-1.213.25-1.803.371h-.005c-.577.137-1.168.267-1.747.396h-.005l-.002.002c-.551.15-1.115.287-1.682.424h-.004c-.553.153-1.093.306-1.631.459h-.002c-.54.159-1.067.318-1.58.478l-.003.002h-.002c-.514.176-.999.342-1.499.51h-.002c-.487.176-.963.35-1.437.533v.002h-.002c-.46.182-.908.366-1.367.548h-.004l-.002.002c-.421.198-.84.39-1.274.578h-.003l-.002.002c-.408.198-.815.393-1.212.602h-.002c-.38.205-.774.409-1.142.607l-.005.002h-.002c-.357.216-.698.436-1.038.638l-.002.002-.002.003c-.33.22-.646.44-.961.66h-.002l-.005.002c-.289.227-.564.45-.853.674v.002h-.002c-.28.23-.529.459-.791.692l-.005.003-.004.004c-.22.231-.458.467-.672.712v.003l-.003.002c-.198.242-.38.474-.575.703l-.006.007-.005.009c-.156.247-.315.496-.46.739v.002l-.003.004c-.13.248-.262.495-.38.746l-.005.007-.002.01c-.078.25-.17.496-.25.747v.002l-.002.005a8.4 8.4 0 0 0-.158.78v.013c-.014.252-.025.505-.025.753v.031c.013.263.04.524.069.775v.014c.055.253.12.505.187.761l.002.01.005.008c.103.245.196.494.304.74l.002.004.002.002c.135.263.28.503.41.737l.005.009.006.007c.183.238.353.476.525.707l.002.003c.2.247.399.478.613.71l.002.002.002.002c.236.23.476.458.727.68.254.22.53.45.807.668l.002.002.002.002c.305.218.593.427.898.638h.002l.002.003c.328.209.657.418 1 .62.358.206.712.406 1.067.606l.002.002h.003c.394.2.776.391 1.172.58l.003.002 1.247.56.002.002c.434.18.869.36 1.316.532.447.171.908.342 1.382.506.474.162.96.324 1.46.487h.001c.5.153 1.012.306 1.512.452.527.144 1.065.29 1.605.427.538.135 1.089.27 1.655.398.562.125 1.129.26 1.706.38h.002a103.566 103.566 0 0 0 3.57.65l.003-.002c.602.093 1.232.185 1.85.277.63.085 1.273.17 1.904.245.654.076 1.298.153 1.955.22h.002c.655.058 1.322.119 1.977.184h.004c.668.052 1.35.103 2.02.146.696.043 1.379.076 2.06.113.697.026 1.39.053 2.087.071.697.02 1.404.03 2.112.04h.002l2.123.007h.002c.723-.013 1.444-.024 2.15-.04l.124-.002-.002-.124c-.112-4.83-.216-9.666-.31-14.508l-.124.002-.007.126.007-.126-.121.002c.099 4.848.202 9.684.31 14.509l.122-.003-.002-.125c-.708.015-1.429.027-2.15.04v.126l.003-.126-2.125-.007v.124l.002-.124c-.707-.011-1.415-.02-2.11-.04-.693-.018-1.388-.045-2.082-.072-.681-.036-1.362-.07-2.056-.112-.668-.043-1.35-.095-2.017-.146l-.009.126.011-.124a149.09 149.09 0 0 0-1.98-.187l-.01.126.01-.126c-.654-.067-1.295-.141-1.95-.217-.628-.077-1.272-.16-1.9-.245l-.015.123.018-.123c-.617-.09-1.248-.185-1.85-.277l-.017.124.02-.124a97.222 97.222 0 0 1-3.564-.647c-.573-.119-1.138-.251-1.702-.38a66.951 66.951 0 0 1-3.249-.82l-.03.12.032-.12c-.498-.143-1.01-.298-1.507-.449l-.035.12.037-.12a93.337 93.337 0 0 1-1.455-.485 48.533 48.533 0 0 1-1.375-.503c-.443-.173-.875-.35-1.31-.53l-.045.114.05-.114c-.42-.189-.829-.371-1.247-.56l-.051.115.053-.113c-.392-.19-.774-.38-1.166-.577l-.055.11.06-.108c-.355-.2-.71-.4-1.063-.606-.34-.198-.668-.405-.996-.614l-.064.106.068-.103c-.3-.21-.588-.418-.893-.636l-.07.103.075-.099a23.61 23.61 0 0 1-.796-.66 22.828 22.828 0 0 1-.72-.674l-.084.092.09-.085c-.21-.227-.405-.454-.602-.697l-.094.079.099-.074c-.172-.23-.344-.47-.529-.71l-.097.076.108-.06c-.135-.243-.278-.481-.408-.73l-.108.058.11-.052c-.101-.236-.194-.485-.302-.737l-.112.05.119-.032c-.066-.258-.132-.507-.185-.752l-.12.027.122-.014a14.22 14.22 0 0 1-.066-.761l-.123.006h.123v-.024c0-.239.011-.49.024-.742l-.123-.007.121.02c.037-.249.09-.498.154-.756l-.119-.03.117.039c.077-.243.168-.49.25-.75l-.118-.037.11.054c.115-.242.245-.49.377-.737l-.108-.058.104.065c.143-.24.3-.487.458-.735l-.103-.067.092.08c.199-.233.384-.466.58-.707l-.095-.08.09.082c.208-.235.442-.469.666-.705l-.088-.085.082.092c.262-.234.511-.46.784-.683l-.077-.099.075.099c.289-.227.564-.447.853-.672l-.075-.1.07.102c.316-.22.629-.438.957-.658l-.068-.103.062.108c.346-.207.687-.427 1.04-.638l-.064-.108.057.112c.368-.198.763-.402 1.144-.609l-.057-.11.057.112c.393-.206.798-.402 1.206-.6l-.053-.112.049.115a57.1 57.1 0 0 0 1.278-.58l-.05-.112.043.115c.46-.182.908-.364 1.37-.548l-.045-.117.042.117c.474-.18.945-.358 1.432-.53l-.041-.12.04.12c.5-.167.987-.336 1.5-.51l-.04-.118.036.12a76.552 76.552 0 0 1 1.578-.48l-.035-.12.033.12c.54-.152 1.08-.305 1.63-.457l-.03-.12.028.122c.565-.137 1.133-.274 1.689-.427l-.033-.121.026.123c.58-.13 1.173-.258 1.752-.397l-.026-.122.024.124c.593-.121 1.197-.25 1.803-.37h-.002c.606-.115 1.225-.228 1.843-.344l-.022-.122.02.124c.632-.106 1.251-.205 1.897-.312l-.02-.122.018.124c.63-.092 1.29-.182 1.935-.274l-.018-.124.014.124c.659-.075 1.32-.158 1.99-.25l-.016-.123.014.126c.657-.07 1.342-.138 2.014-.214l-.013-.123.009.125c.688-.051 1.37-.112 2.056-.173l-.01-.125.008.125c.699-.045 1.395-.09 2.096-.143l-.011-.124.007.126c.698-.032 1.408-.067 2.12-.106l-.007-.126.005.126c.712-.022 1.424-.045 2.149-.083l-.007-.123v.125h.135c.68 0 1.36-.009 2.027-.022l-.002-.126-.002.126c.692.009 1.384.009 2.065.009h.095v-.124l-.002.124c.712.018 1.421.034 2.133.043l.002-.126-.004.123c.696.034 1.382.059 2.08.081l.005-.126-.009.126c.686.038 1.384.079 2.07.11l.004-.123-.009.123c.66.054 1.33.101 2 .158l.01-.126-.01.126c.656.062 1.315.122 1.974.18l.01-.127-.014.126c.633.068 1.276.14 1.922.21l.013-.124-.02.123c.62.092 1.252.178 1.872.254l.015-.123-.018.123c.618.094 1.224.187 1.843.272l.015-.124-.022.124c.58.108 1.173.209 1.764.308l.02-.122-.023.122c.565.117 1.144.224 1.722.341l.024-.123-.026.12c.553.124 1.104.241 1.657.358l.024-.123-.03.12c.526.134 1.064.27 1.606.396l.027-.123-.031.121c.511.14 1.023.279 1.536.411l.03-.121-.036.119c.487.155.987.301 1.487.44l.033-.119-.037.12c.472.152.93.314 1.406.462l.035-.119-.042.117c.448.162.906.323 1.351.485l.042-.117-.048.115c.423.18.857.35 1.291.512l.042-.117-.05.115c.394.177.802.348 1.207.525l.05-.114-.054.112c.38.184.747.362 1.126.542l.051-.115-.057.11c.352.193.694.386 1.049.575l.057-.112-.064.108c.315.193.642.386.968.586l.064-.108-.068.106c.3.2.586.402.888.604l.068-.105-.075.1c.276.21.536.412.809.62l.075-.098-.08.094c.247.218.481.427.73.638l.08-.096-.093.083c.2.231.425.445.646.656l.084-.092-.098.076c.17.227.355.456.554.678l.09-.083-.101.07c.154.225.297.452.454.68l.099-.071-.108.056c.114.236.231.465.348.692l.108-.059-.115.045.27.708.114-.045-.12.027c.052.24.116.481.18.717l.116-.034-.121.007c.011.25.035.496.06.735l.12-.014h-.123c0 .067 0 .135-.002.193l.124.003-.124-.003c0 .068 0 .135-.002.193l.124.003-.12-.027a1.02 1.02 0 0 0-.017.218l.12.002-.118-.025a1.1 1.1 0 0 0-.031.218l.121.002-.119-.027a1.114 1.114 0 0 0-.03.22h.123l-.121-.024c-.013.065-.027.123-.04.184v.002h-.002l-.04.194.12.027-.116-.043a1.886 1.886 0 0 0-.059.209l.119.029-.112-.047c-.029.07-.053.14-.073.213l.12.03-.116-.048a1.632 1.632 0 0 0-.073.207l.12.029-.113-.047c-.029.067-.055.135-.08.19l-.001.003v.005c-.027.063-.051.121-.08.182l.113.051-.106-.063c-.037.065-.07.132-.1.2l.111.052-.104-.063a1.554 1.554 0 0 0-.088.202l.113.052-.106-.065a2.143 2.143 0 0 0-.113.21l.11.053-.103-.065c-.043.064-.08.132-.115.202l.113.051.006-.126c-6.495-.395-13.07-.797-19.686-1.197-6.654-.402-13.419-.822-20.207-1.244l-.135-.01.005.135.12-.002" fill="#2E2C54" fill-rule="nonzero"/><path d="M39.664 1.776c-8.377 0-17.793 1.4-25.131 3.782C6.982 8.01 1.646 11.485 1.996 15.473c.613 7.004 13.76 11.098 30.98 11.873.428.019.83.03 1.2.03 2.514 0 3.548-.496.88-2.257C17.21 13.35 29.011 9.326 39.471 7.41c8.503-1.556 15.984-5.528.703-5.631-.17-.002-.34-.002-.51-.002" fill="url(#c)" fill-rule="nonzero" transform="translate(1 29)"/><path d="M44.627 46.744l-.304.004c.03 2.287.075 4.574.105 6.852.06 4.334.12 8.657.183 12.97 0 .112.06.215.156.27a.3.3 0 0 0 .307-.005.313.313 0 0 0 .148-.274c-.031-2.27-.061-4.541-.09-6.816a6445.62 6445.62 0 0 0-.199-13.008.312.312 0 0 0-.157-.267.3.3 0 0 0-.306.005.313.313 0 0 0-.147.273l.304-.004-.304.004c.075 4.336.136 8.679.198 13.004l.09 6.818c.004.17.14.308.309.308.081-.001.159-.035.216-.095a.314.314 0 0 0 .086-.222l-.185-12.97c-.031-2.28-.073-4.567-.104-6.852a.314.314 0 0 0-.092-.22.302.302 0 0 0-.432.007.319.319 0 0 0-.086.222l.304-.004" fill="#2E2C54" fill-rule="nonzero"/><path d="M44.826 59.748l.09 6.818c.525-.024 1.048-.048 1.572-.079.537-.03 1.061-.061 1.585-.093.51-.038 1.021-.076 1.545-.123.511-.045 1.022-.09 1.533-.144.485-.054.983-.106 1.494-.167.497-.06.995-.12 1.48-.188.485-.066.97-.133 1.455-.209.472-.073.943-.148 1.428-.23.472-.08.931-.163 1.39-.244.458-.088.917-.177 1.39-.265.432-.096.865-.19 1.324-.286.433-.102.865-.205 1.312-.307.42-.101.839-.21 1.259-.32.406-.11.826-.216 1.246-.333.394-.115.788-.23 1.194-.354.381-.122.762-.244 1.156-.367.367-.12.735-.25 1.116-.38.354-.127.722-.261 1.09-.397.342-.143.67-.279 1.025-.421.328-.142.657-.283.999-.425.315-.141.63-.29.947-.437.302-.148.592-.296.894-.451.277-.154.566-.308.856-.462.263-.154.54-.314.803-.477.25-.16.5-.319.751-.486.237-.16.475-.326.699-.501l.646-.505c.199-.172.397-.344.608-.517.159-.172.331-.343.516-.522l.477-.536c.133-.184.278-.369.424-.554.12-.176.24-.36.346-.544-.006-2.226-.024-4.46-.043-6.694l-.36.55c-.146.184-.278.37-.411.545l-.478.532c-.172.18-.357.358-.53.528-.21.172-.409.351-.607.515-.225.172-.423.338-.635.503l-.712.496c-.25.166-.501.332-.739.492-.277.16-.554.312-.817.464-.29.153-.58.306-.843.46-.303.153-.606.3-.909.453a51.6 51.6 0 0 1-.948.433c-.341.14-.67.28-.986.422-.356.141-.697.274-1.04.408-.368.134-.723.268-1.077.394-.382.128-.75.255-1.13.388-.395.121-.776.241-1.157.362-.407.114-.802.227-1.196.341-.42.115-.827.23-1.248.335-.42.108-.84.215-1.26.315-.433.1-.88.2-1.3.293-.446.094-.905.187-1.338.28-.473.086-.92.173-1.365.26-.486.093-.945.173-1.417.252-.473.073-.958.145-1.43.216-.486.074-.97.138-1.456.203-.486.066-.984.123-1.482.182-.512.058-1.01.108-1.495.16a104.155 104.155 0 0 1-3.082.253c-.524.036-1.062.064-1.586.093-.524.03-1.049.05-1.573.072z" fill="#F58220"/><path d="M44.826 59.748l-.305.004.09 6.818a.314.314 0 0 0 .096.222c.06.058.14.088.223.085.524-.024 1.05-.049 1.576-.08h-.001c.538-.03 1.062-.061 1.586-.093h.004a110.428 110.428 0 0 0 3.087-.268h.002c.484-.054.982-.106 1.496-.167.498-.06.998-.12 1.487-.189.484-.066.97-.133 1.46-.21.471-.073.944-.149 1.43-.23h.002c.473-.082.933-.163 1.391-.245l.004-.001c.46-.087.918-.177 1.388-.264l.01-.002c.433-.096.864-.19 1.32-.285l.009-.002c.433-.103.865-.205 1.309-.306l.004-.001a75.82 75.82 0 0 0 1.264-.322h.002c.404-.109.825-.216 1.25-.334l.003-.001c.394-.116.789-.231 1.197-.355l.005-.001c.38-.122.76-.244 1.153-.366l.004-.002c.372-.122.74-.252 1.12-.38l.004-.002c.356-.128.724-.263 1.093-.4l.012-.004c.34-.142.668-.277 1.02-.419l.007-.003c.329-.142.656-.282.996-.423l.007-.003c.32-.143.636-.292.952-.44l.004-.002c.306-.149.598-.299.9-.454l.01-.005c.272-.152.56-.305.85-.46l.01-.005c.263-.153.542-.315.81-.48l.004-.002c.25-.16.502-.32.756-.49.242-.162.485-.333.717-.514l.646-.504.013-.011c.199-.172.395-.342.6-.512l.032-.03c.153-.165.32-.332.504-.509l.015-.016.478-.536.02-.025c.127-.177.27-.357.416-.543l.013-.018c.122-.179.246-.369.358-.564a.313.313 0 0 0 .042-.158c-.006-2.227-.025-4.462-.043-6.696a.31.31 0 0 0-.219-.295.302.302 0 0 0-.34.126l-.36.549.254.173-.237-.196c-.152.192-.286.38-.416.552l.242.19-.225-.21-.477.531.224.21-.218-.217c-.166.173-.35.35-.524.522l.213.223-.19-.243c-.22.179-.419.359-.61.517l.192.24-.183-.247c-.232.177-.43.344-.636.504l.184.247-.172-.257-.712.497.172.256-.166-.26c-.25.166-.502.332-.741.493l.168.26-.15-.271c-.273.157-.55.31-.817.464l.15.27-.14-.276c-.29.153-.583.308-.855.466l.152.27-.136-.279c-.3.152-.602.299-.909.454l.136.278-.127-.282c-.315.147-.63.292-.942.43l.121.285-.113-.288c-.345.141-.676.282-.996.425l.123.285-.11-.29c-.355.14-.696.274-1.038.407l.109.29-.103-.292c-.37.135-.725.269-1.076.394l.1.293-.094-.295c-.384.128-.753.256-1.135.39l.1.293-.089-.297c-.396.121-.777.242-1.159.362l.09.297-.08-.3a132.8 132.8 0 0 0-1.198.342l.083.3-.078-.3c-.422.114-.827.228-1.243.332-.42.108-.84.215-1.256.315h.001c-.43.1-.876.198-1.297.291l.065.304-.062-.305c-.444.094-.904.187-1.34.281l.064.304-.054-.306c-.474.087-.922.173-1.369.26-.481.093-.938.173-1.409.251l.05.307-.046-.307c-.471.073-.956.144-1.429.216-.482.073-.965.137-1.45.202h-.002c-.48.066-.977.123-1.476.18-.508.059-1.006.109-1.492.16h.002a105.201 105.201 0 0 1-3.073.253c-.52.036-1.057.064-1.582.093-.521.029-1.044.05-1.568.071a.308.308 0 0 0-.293.315l.305-.004.012.31c.525-.02 1.05-.042 1.577-.071.524-.03 1.063-.057 1.59-.094a109.172 109.172 0 0 0 3.091-.254h.002c.484-.052.983-.102 1.498-.16.498-.059.999-.116 1.488-.183.485-.064.971-.129 1.46-.203.472-.071.958-.143 1.431-.217h.004c.473-.08.936-.16 1.424-.254.447-.087.892-.173 1.362-.259l.01-.002c.43-.093.89-.185 1.337-.28h.003c.42-.093.868-.193 1.303-.294h.002c.422-.101.844-.209 1.265-.316h-.002c.427-.107.835-.222 1.254-.336l.005-.002c.393-.114.787-.227 1.193-.34l.01-.003c.38-.12.76-.24 1.153-.361l.011-.004c.38-.133.747-.26 1.126-.386l.006-.002c.359-.128.714-.262 1.08-.396l.007-.002c.341-.134.684-.267 1.04-.409l.012-.005c.312-.14.638-.278.978-.417l.008-.003c.319-.141.637-.289.953-.436l.009-.004c.3-.152.602-.299.909-.454l.016-.009c.255-.149.541-.3.831-.453l.01-.005c.26-.15.537-.302.817-.464l.018-.011c.236-.16.487-.325.737-.491l.007-.004c.236-.166.474-.331.712-.497l.012-.01c.218-.168.415-.334.633-.5l.009-.008c.206-.17.403-.348.606-.513l.022-.02c.17-.168.357-.348.535-.534l.007-.007.478-.532.017-.02c.135-.18.266-.364.406-.54l.017-.023.36-.55-.254-.172-.305.003c.019 2.234.037 4.467.043 6.691h.305l-.263-.158c-.1.175-.216.353-.333.525l.25.177-.237-.194c-.146.184-.295.372-.433.565l.246.183-.226-.208-.477.535.226.209-.21-.226c-.187.181-.363.356-.528.535l.222.213-.19-.242c-.217.176-.417.35-.615.523l.197.236-.184-.247c-.225.174-.437.34-.648.506-.215.168-.447.33-.68.487-.247.165-.495.323-.746.483l.162.263-.158-.266c-.259.16-.533.32-.796.473l.15.27-.14-.276c-.29.154-.581.309-.86.465l.145.273-.136-.278c-.303.155-.591.303-.89.449l.132.28-.128-.283c-.316.148-.63.296-.942.436l.123.284-.115-.288c-.344.143-.674.285-1.003.427l.119.286-.112-.29c-.357.144-.686.28-1.028.423l.115.288-.104-.293c-.367.136-.734.27-1.088.398l.102.293-.097-.295c-.382.13-.749.259-1.113.379l.094.295-.09-.297c-.395.123-.776.246-1.157.367l.091.297-.087-.298c-.405.123-.797.238-1.191.353l.084.3-.08-.3c-.416.115-.835.222-1.244.331h.002c-.42.11-.838.218-1.254.32l.07.301-.066-.303c-.448.102-.882.205-1.314.308l.069.302-.06-.304c-.462.095-.897.19-1.33.287l.065.303-.055-.305c-.473.088-.932.177-1.39.264l.056.306-.053-.307c-.459.082-.917.164-1.387.245a80.026 80.026 0 0 1-2.874.438c-.481.067-.977.127-1.475.187-.508.06-1.005.112-1.49.166h.001a99.687 99.687 0 0 1-3.07.266l.023.31-.019-.31-1.583.093c-.522.03-1.044.055-1.568.078l.013.31.305-.003-.09-6.818-.305.004.012.31-.012-.31z" fill="#2E2C54" fill-rule="nonzero"/><path d="M44.627 46.744c.077 4.336.136 8.678.198 13.003.525-.02 1.05-.043 1.574-.072a91.433 91.433 0 0 0 1.587-.092c.511-.036 1.022-.072 1.547-.117a87.673 87.673 0 0 0 1.534-.137c.485-.052.983-.101 1.494-.16.499-.058.997-.114 1.484-.181.485-.066.97-.128 1.454-.203.472-.071.96-.143 1.43-.215.472-.079.933-.16 1.418-.254.445-.085.893-.173 1.364-.258.435-.095.893-.187 1.338-.281.421-.092.869-.191 1.3-.292.422-.101.84-.21 1.261-.315.421-.105.827-.22 1.248-.335.394-.114.789-.229 1.197-.34.379-.122.76-.244 1.155-.363.38-.135.749-.26 1.13-.389.355-.125.71-.26 1.078-.395.342-.132.683-.267 1.04-.406.316-.142.644-.281.986-.423a39.4 39.4 0 0 0 .947-.433c.304-.153.607-.299.91-.454.263-.153.554-.306.843-.458.264-.153.54-.306.817-.466.238-.159.487-.325.739-.491.238-.164.476-.33.712-.497.211-.164.41-.33.634-.501.199-.164.397-.344.609-.517.172-.168.357-.348.529-.528.158-.177.32-.352.478-.53.132-.177.265-.362.412-.546.12-.184.238-.366.36-.55-5.694-.288-11.428-.583-17.203-.887-5.815-.3-11.683-.605-17.604-.917" fill="#F58220"/><path d="M44.627 46.744l-.304.004c.075 4.336.136 8.679.198 13.004a.319.319 0 0 0 .095.222c.06.058.14.089.222.085.525-.022 1.05-.042 1.576-.072.525-.029 1.065-.058 1.592-.094.511-.036 1.024-.072 1.551-.117.512-.043 1.025-.085 1.539-.137h.002c.485-.052.983-.101 1.496-.16l.003-.002c.498-.056.998-.114 1.487-.182h-.002a65.39 65.39 0 0 0 1.464-.202c.469-.071.956-.143 1.43-.218h.002c.474-.078.937-.16 1.426-.254.446-.085.89-.172 1.36-.258l.011-.002c.43-.092.888-.184 1.336-.279l.004-.002c.421-.092.869-.19 1.303-.292l.002-.002c.423-.101.845-.206 1.265-.315h-.002c.426-.108.836-.222 1.254-.337h.005c.394-.114.786-.229 1.192-.341l.011-.003c.38-.121.76-.24 1.153-.361l.01-.005c.382-.132.748-.258 1.127-.386h.007c.357-.128.714-.263 1.08-.398l.006-.002c.342-.133.684-.265 1.04-.407l.012-.006c.312-.14.639-.277.978-.418l.007-.002c.32-.142.639-.288.954-.436l.01-.005c.299-.15.6-.299.907-.454l.015-.009c.256-.148.543-.298.834-.451l.008-.007c.26-.148.538-.3.818-.463l.018-.011c.236-.16.487-.326.738-.492l.005-.004c.238-.164.476-.33.712-.495l.013-.01c.218-.17.414-.336.632-.502l.009-.007c.207-.17.404-.348.606-.514l.022-.018c.17-.169.357-.348.536-.535l.007-.006c.158-.178.319-.355.478-.533l.018-.02c.134-.18.266-.364.405-.54l.018-.024c.119-.182.238-.366.359-.548a.316.316 0 0 0 .017-.313.299.299 0 0 0-.257-.17c-5.691-.288-11.425-.584-17.2-.89-5.815-.299-11.683-.604-17.603-.917a.31.31 0 0 0-.229.088.317.317 0 0 0-.092.23l.304-.005-.016.31c5.923.308 11.79.613 17.604.917 5.775.296 11.51.592 17.203.887l.015-.31-.255-.173-.357.55.253.173-.238-.195c-.152.19-.286.38-.417.55l.243.191-.225-.211c-.159.178-.32.355-.478.533l.225.208-.218-.215c-.166.173-.349.348-.523.52l.212.223-.19-.242c-.22.18-.419.36-.61.516l.191.243-.182-.25c-.232.178-.43.344-.638.504l.186.247-.172-.256c-.236.166-.474.33-.712.496l.172.257-.166-.261c-.25.166-.502.332-.74.494l.167.258-.15-.27c-.273.158-.55.311-.817.464l.15.272-.14-.277c-.29.153-.583.308-.854.465l.152.27-.137-.276c-.3.15-.602.296-.908.451l.134.279-.125-.283c-.315.148-.63.294-.944.431l.122.285-.113-.287c-.344.141-.676.28-.996.424l.123.286-.112-.29c-.353.14-.694.272-1.036.406l.108.29-.101-.292c-.37.135-.725.27-1.078.393l.101.294-.094-.296c-.384.128-.752.256-1.135.39l.099.295-.089-.299c-.394.122-.775.243-1.157.362l.09.3-.08-.302c-.409.115-.805.23-1.2.341l.084.301-.08-.3c-.42.114-.826.229-1.24.332h-.003c-.418.108-.837.216-1.254.315-.43.098-.875.197-1.296.292l.064.303-.061-.303c-.444.092-.904.186-1.34.28l.063.304-.053-.306c-.473.085-.923.173-1.368.258-.483.095-.94.173-1.409.252l.049.308-.046-.308-1.429.216c-.482.074-.965.137-1.45.202h-.002c-.48.065-.976.124-1.477.182h.002c-.509.056-1.007.108-1.492.16-.507.049-1.018.091-1.53.134-.52.045-1.03.08-1.542.117-.52.036-1.056.063-1.583.092-.52.03-1.042.052-1.567.072l.011.31.306-.004c-.061-4.325-.123-8.668-.198-13.006l-.306.007-.016.31.016-.31" fill="#2E2C54" fill-rule="nonzero"/><path d="M44.988 47.079l.123 11.196.007.506c13.36-.387 39.762-7.87 9.522-8.411-5.34-.067-6.897-2.786-9.652-3.291" fill="#FAA71A" fill-rule="nonzero"/><path d="M44.353 39.721c4.135-.12 7.461 1.13 7.493 2.804.03 1.667-3.26 3.132-7.372 3.268-4.124.136-7.523-1.111-7.558-2.801-.048-1.683 3.302-3.151 7.437-3.27z" fill="#233A76"/><path d="M44.353 39.721l.009.307c.18-.005.359-.008.536-.007 1.635-.037 3.264.23 4.806.784.507.186.976.467 1.381.829a1.7 1.7 0 0 1 .344.451c.072.138.111.29.115.446v.018a1.062 1.062 0 0 1-.116.472c-.198.352-.479.65-.816.866a8.127 8.127 0 0 1-2.536 1.09 16.24 16.24 0 0 1-3.611.509c-.205.006-.407.01-.608.01-1.629.034-3.25-.23-4.788-.783a4.342 4.342 0 0 1-1.388-.828 1.705 1.705 0 0 1-.347-.452 1.025 1.025 0 0 1-.116-.448V42.956c.001-.165.042-.328.118-.474.201-.355.485-.653.827-.87a8.233 8.233 0 0 1 2.564-1.086 16.355 16.355 0 0 1 3.635-.498l-.009-.307-.008-.307c-1.838.021-3.656.38-5.368 1.061-.62.25-1.191.612-1.686 1.068a2.512 2.512 0 0 0-.493.662c-.118.232-.181.49-.184.751l.001.045v-.003c.007.25.07.495.184.716.233.418.567.767.97 1.016a7.85 7.85 0 0 0 2.571 1.011c1.156.253 2.335.376 3.517.369.207 0 .416-.004.627-.01a14.84 14.84 0 0 0 5.33-1.077 5.494 5.494 0 0 0 1.666-1.068c.197-.191.36-.414.486-.659.117-.231.179-.487.18-.747v-.03a1.651 1.651 0 0 0-.18-.714 2.767 2.767 0 0 0-.964-1.015 7.797 7.797 0 0 0-2.568-1.014 16.085 16.085 0 0 0-3.536-.37c-.183 0-.367.003-.553.008l.008.307z" fill="#2E2C54" fill-rule="nonzero"/><path d="M44.353 39.721c4.135-.12 7.461 1.13 7.493 2.804.03 1.667-3.26 3.132-7.372 3.268-4.124.136-7.523-1.111-7.558-2.801-.048-1.683 3.302-3.151 7.437-3.27z" fill="#C7C4E2"/><path d="M44.353 39.721l.009.307c.18-.005.359-.008.536-.007 1.635-.037 3.264.23 4.806.784.507.186.976.467 1.381.829a1.7 1.7 0 0 1 .344.451c.072.138.111.29.115.446v.018a1.062 1.062 0 0 1-.116.472c-.198.352-.479.65-.816.866a8.127 8.127 0 0 1-2.536 1.09 16.24 16.24 0 0 1-3.611.509c-.205.006-.407.01-.608.01-1.629.034-3.25-.23-4.788-.783a4.342 4.342 0 0 1-1.388-.828 1.705 1.705 0 0 1-.347-.452 1.025 1.025 0 0 1-.116-.448V42.956c.001-.165.042-.328.118-.474.201-.355.485-.653.827-.87a8.233 8.233 0 0 1 2.564-1.086 16.355 16.355 0 0 1 3.635-.498l-.009-.307-.008-.307c-1.838.021-3.656.38-5.368 1.061-.62.25-1.191.612-1.686 1.068a2.512 2.512 0 0 0-.493.662c-.118.232-.181.49-.184.751l.001.045v-.003c.007.25.07.495.184.716.233.418.567.767.97 1.016a7.85 7.85 0 0 0 2.571 1.011c1.156.253 2.335.376 3.517.369.207 0 .416-.004.627-.01a14.84 14.84 0 0 0 5.33-1.077 5.494 5.494 0 0 0 1.666-1.068c.197-.191.36-.414.486-.659.117-.231.179-.487.18-.747v-.03a1.651 1.651 0 0 0-.18-.714 2.767 2.767 0 0 0-.964-1.015 7.797 7.797 0 0 0-2.568-1.014 16.085 16.085 0 0 0-3.536-.37c-.183 0-.367.003-.553.008l.008.307z" fill="#2E2C54" fill-rule="nonzero"/><path d="M44.374 41.106c2.248-.067 4.072.618 4.094 1.526.022.907-1.781 1.701-4.028 1.777-2.246.075-4.084-.605-4.107-1.524-.01-.913 1.793-1.713 4.041-1.78z" fill="#2E2C54"/><path d="M44.374 41.106l.009.306c.098-.002.195-.004.292-.004a7.144 7.144 0 0 1 2.568.42c.261.094.503.238.713.423.065.06.12.13.162.208a.41.41 0 0 1 .049.18v.01a.431.431 0 0 1-.05.192c-.098.17-.235.314-.4.418a4.342 4.342 0 0 1-1.344.57 8.824 8.824 0 0 1-1.943.273 9.31 9.31 0 0 1-.329.005 7.079 7.079 0 0 1-2.548-.416c-.26-.095-.5-.238-.708-.422a.796.796 0 0 1-.162-.21.422.422 0 0 1-.049-.182l-.3.008.3-.004v-.004a.438.438 0 0 1 .05-.197c.099-.172.237-.318.403-.423.414-.268.87-.462 1.347-.575a8.71 8.71 0 0 1 1.949-.27l-.009-.306-.009-.307a8.21 8.21 0 0 0-2.971.594 3.136 3.136 0 0 0-.955.613c-.119.116-.218.25-.293.399a1.068 1.068 0 0 0-.114.472v.016c.005.156.044.31.116.449.137.248.335.457.573.605.444.275.93.468 1.44.57.638.14 1.288.209 1.94.204.116 0 .231-.002.349-.005a8.312 8.312 0 0 0 2.96-.596 3.14 3.14 0 0 0 .953-.607c.118-.114.217-.248.293-.395.073-.145.112-.306.113-.47v-.024a1.037 1.037 0 0 0-.117-.449 1.66 1.66 0 0 0-.575-.603A4.424 4.424 0 0 0 46.63 41a8.873 8.873 0 0 0-1.955-.206c-.103 0-.206.002-.31.005l.009.307z" fill="#2E2C54" fill-rule="nonzero"/><path fill="#000" fill-rule="nonzero" d="M94.485 45.729v3.882h4.819v1.622h-4.82v6.753h-1.871V44.012h8.47v1.717zM104.217 47.77v6.515c0 1.577.67 2.366 2.012 2.366a2.73 2.73 0 0 0 1.61-.515c.438-.283.775-.7.963-1.193V47.77h1.779v10.216h-1.779v-1.412a2.785 2.785 0 0 1-1.202 1.102 3.627 3.627 0 0 1-1.764.5c-1.098 0-1.939-.32-2.522-.963-.584-.642-.875-1.554-.875-2.737V47.77h1.778zM112.35 57.375l.626-1.716c.992.66 1.79.992 2.396.992 1.098 0 1.647-.471 1.647-1.412 0-.674-.53-1.253-1.591-1.736-.57-.25-1.122-.54-1.652-.868a3.692 3.692 0 0 1-.739-.673c-.2-.237-.36-.508-.468-.8a2.644 2.644 0 0 1-.154-.912c-.034-.765.301-1.5.898-1.965a3.691 3.691 0 0 1 2.349-.706 7.434 7.434 0 0 1 2.76.706l-.505 1.68a3.37 3.37 0 0 0-2.124-.86 1.82 1.82 0 0 0-1.072.306.913.913 0 0 0-.435.772c0 .655.365 1.151 1.095 1.488l1.273.592c.656.27 1.24.695 1.703 1.24.368.503.556 1.119.533 1.745a2.633 2.633 0 0 1-.945 2.151c-.63.519-1.503.778-2.62.778a5.878 5.878 0 0 1-2.976-.802zM121.623 57.986v-8.69h-1.376V47.77h3.154v10.216h-1.778zm.973-14.079c.294-.005.577.114.782.33.21.205.326.49.323.786 0 .299-.116.585-.323.797-.208.21-.489.33-.782.329-.29.003-.57-.116-.772-.33a1.132 1.132 0 0 1-.245-1.22c.17-.42.572-.694 1.017-.692zM125.572 52.854c0-1.577.417-2.85 1.25-3.82a4.124 4.124 0 0 1 3.289-1.455c1.435 0 2.548.466 3.34 1.398.793.931 1.19 2.224 1.19 3.877 0 1.647-.406 2.946-1.217 3.897a4.126 4.126 0 0 1-3.313 1.426c-1.429 0-2.542-.48-3.341-1.44-.799-.96-1.198-2.255-1.198-3.883zm1.872 0c0 2.563.889 3.844 2.667 3.844a2.24 2.24 0 0 0 1.951-1.03c.471-.687.706-1.625.706-2.814 0-2.53-.885-3.796-2.657-3.796a2.273 2.273 0 0 0-1.942 1.011c-.483.674-.725 1.602-.725 2.785zM142.679 57.986v-5.943c0-1.087-.16-1.848-.482-2.284-.322-.436-.86-.653-1.615-.653a2.61 2.61 0 0 0-1.272.372c-.408.216-.758.53-1.02.915v7.593h-1.778V47.77h1.216l.562 1.317c.586-1.005 1.544-1.508 2.873-1.508 2.196 0 3.294 1.361 3.294 4.083v6.324h-1.778zM155.874 44.527l-.627 1.631c-.6-.445-1.541-.667-2.827-.667a3.36 3.36 0 0 0-2.896 1.583c-.726 1.055-1.09 2.416-1.09 4.082 0 1.59.373 2.88 1.119 3.868a3.46 3.46 0 0 0 2.886 1.483c1.285 0 2.274-.464 2.967-1.392l1.03 1.46a5.633 5.633 0 0 1-4.193 1.65c-1.79 0-3.2-.659-4.23-1.975-1.03-1.316-1.544-3.052-1.544-5.208 0-2.086.549-3.819 1.647-5.199a5.194 5.194 0 0 1 4.258-2.07c1.49 0 2.657.252 3.5.754zM164.623 57.986v-6.42a2.72 2.72 0 0 0-.552-1.802 1.915 1.915 0 0 0-1.553-.658 2.522 2.522 0 0 0-1.297.386c-.393.221-.734.53-.996.901v7.593h-1.778V43.583h1.778v5.313a2.654 2.654 0 0 1 1.146-.94 3.757 3.757 0 0 1 1.633-.377 3.089 3.089 0 0 1 2.494 1.069c.602.712.903 1.685.903 2.919v6.419h-1.778zM174.58 56.813c-.71.91-1.8 1.364-3.266 1.364a2.786 2.786 0 0 1-2.045-.873 2.958 2.958 0 0 1-.865-2.17 3.258 3.258 0 0 1 1.333-2.628 5.254 5.254 0 0 1 3.402-1.073 3.92 3.92 0 0 1 1.273.248c0-1.653-.724-2.48-2.171-2.48-1.11 0-1.965.305-2.564.916l-.749-1.517c.42-.324.894-.567 1.399-.72a5.359 5.359 0 0 1 1.708-.3c1.454 0 2.51.336 3.167 1.01.659.675.988 1.746.988 3.215v3.663c0 .896.262 1.494.786 1.793v.906a3.295 3.295 0 0 1-1.624-.315 1.772 1.772 0 0 1-.772-1.04zm-.168-3.844a6.32 6.32 0 0 0-1.18-.191 3.331 3.331 0 0 0-2.198.706 2.11 2.11 0 0 0-.852 1.67c0 1.061.615 1.592 1.844 1.592.898 0 1.693-.436 2.386-1.307v-2.47zM184.434 49.516a2.013 2.013 0 0 0-1.17-.41 2.073 2.073 0 0 0-1.651.887 3.323 3.323 0 0 0-.707 2.136v5.857h-1.778V47.77h1.778v1.631c.65-1.214 1.613-1.822 2.892-1.822a7.94 7.94 0 0 1 1.376.172l-.74 1.765zM187.073 49.201h-1.16v-1.43h1.16v-2.137l1.778-.697v2.833h2.752v1.431h-2.752v5.074c0 .859.142 1.47.426 1.832.348.39.856.591 1.371.544a3.24 3.24 0 0 0 1.413-.353l.262 1.593a9.65 9.65 0 0 1-2.423.286 2.609 2.609 0 0 1-2.008-.902 3.255 3.255 0 0 1-.819-2.275v-5.799zM193.38 57.375l.628-1.716c.992.66 1.79.992 2.395.992 1.098 0 1.647-.471 1.647-1.412 0-.674-.53-1.253-1.59-1.736-.57-.25-1.123-.54-1.652-.868a3.7 3.7 0 0 1-.74-.673c-.2-.237-.359-.508-.468-.8a2.644 2.644 0 0 1-.154-.912c-.034-.765.302-1.5.899-1.965a3.691 3.691 0 0 1 2.348-.706 7.434 7.434 0 0 1 2.761.706l-.505 1.68a3.37 3.37 0 0 0-2.124-.86 1.82 1.82 0 0 0-1.072.306.913.913 0 0 0-.435.772c0 .655.365 1.151 1.095 1.488l1.272.592c.656.27 1.24.695 1.704 1.24.367.503.556 1.119.533 1.745a2.633 2.633 0 0 1-.945 2.151c-.63.519-1.504.778-2.62.778a5.878 5.878 0 0 1-2.976-.802z"/></g></svg>