<svg width="500" height="200" xmlns="http://www.w3.org/2000/svg"><path fill="none" d="M-1-1h502v202H-1z"/><g fill="none" fill-rule="evenodd"><path d="M129.135 100c0 35.33-28.806 63.97-64.337 63.97-35.532 0-64.34-28.64-64.34-63.97 0-35.326 28.808-63.97 64.34-63.97 35.53 0 64.337 28.644 64.337 63.97" fill="#FBB116"/><path d="M474.877 87.784c4.27 0 7.253 2.518 8.355 6.952h-16.9c1.29-4.442 4.34-6.952 8.545-6.952zm0-13.076c-14.264 0-25.023 10.766-25.023 25.04v.178c0 14.407 11.082 24.864 26.365 24.864 8.617 0 15.552-3.027 20.603-8.99a1.32 1.32 0 0 0-.164-1.87l-7.752-6.543a1.471 1.471 0 0 0-1.917.03c-3.494 3.092-6.472 4.3-10.596 4.3-4.923 0-8.273-2.136-9.785-6.197h31.326c.742 0 1.366-.547 1.424-1.263l.05-.636c.074-.893.132-1.62.132-2.684v-.174c0-12.014-6.46-26.054-24.665-26.054zm-30.228-15.29c.31.26.488.63.488 1.026v61.972c0 .75-.635 1.356-1.424 1.356h-13.53c-.788 0-1.424-.606-1.424-1.356V62.32c0-.68.514-1.25 1.217-1.353l13.533-1.87a1.49 1.49 0 0 1 1.14.32zM335.436 110.95c-5.936 0-10.242-4.713-10.242-11.203v-.166c0-6.388 4.41-11.204 10.242-11.204 5.882 0 10.152 4.707 10.152 11.204v.165c0 6.49-4.27 11.202-10.153 11.202zm24.936-35.273H346.83c-.79 0-1.423.604-1.423 1.357v2.778c-3.685-3.43-8.115-5.107-13.44-5.107-11.505 0-23.152 8.54-23.152 24.876v.165c0 16.326 11.647 24.87 23.15 24.87 5.234 0 9.658-1.572 13.442-4.786v2.582c0 .75.632 1.356 1.424 1.356h13.543c.788 0 1.42-.606 1.42-1.356v-45.38c0-.752-.632-1.357-1.42-1.357zm46.384 23.904v.165c0 6.49-4.298 11.202-10.234 11.202-5.878 0-10.152-4.713-10.152-11.203v-.166c0-6.497 4.275-11.204 10.153-11.204 5.843 0 10.234 4.816 10.234 11.204zm-6.763-24.876c-5.333 0-9.756 1.676-13.44 5.107v-19.37c0-.396-.183-.768-.494-1.028a1.477 1.477 0 0 0-1.14-.32l-13.535 1.87c-.7.103-1.22.674-1.22 1.353v60.096c0 .75.635 1.356 1.43 1.356h13.534c.78 0 1.423-.606 1.423-1.356v-2.582c3.78 3.214 8.21 4.785 13.44 4.785 11.505 0 23.146-8.544 23.146-24.87v-.166c0-16.335-11.642-24.876-23.146-24.876zm-94.675 2.208v11.04c0 .746-.633 1.356-1.432 1.356h-9.785v18.075c0 2.57 1.04 3.054 2.94 3.054 2.126 0 4.145-.484 5.985-1.443.447-.23.98-.223 1.417.023.43.246.696.694.696 1.166v10.36c0 .48-.264.928-.695 1.17-3.4 1.92-7.024 2.82-11.42 2.82-10.3 0-15.313-4.913-15.313-15.023v-20.2h-4.27c-.785 0-1.423-.61-1.423-1.356v-11.04c0-.753.637-1.36 1.42-1.36h4.272V64.988c0-.674.52-1.25 1.223-1.35l13.534-1.868a1.47 1.47 0 0 1 1.14.318c.31.26.493.634.493 1.027v12.44h9.785c.8 0 1.43.607 1.43 1.36zM243.6 87.784c4.277 0 7.252 2.518 8.358 6.952h-16.905c1.298-4.442 4.345-6.952 8.547-6.952zm0-13.076c-14.266 0-25.017 10.766-25.017 25.04v.178c0 14.407 11.09 24.864 26.36 24.864 8.62 0 15.55-3.027 20.61-8.99a1.311 1.311 0 0 0-.168-1.87l-7.744-6.543a1.47 1.47 0 0 0-1.916.03c-3.507 3.092-6.47 4.3-10.605 4.3-4.927 0-8.27-2.136-9.79-6.197h31.347c.744 0 1.357-.547 1.41-1.266l.058-.687c.07-.86.122-1.58.122-2.63v-.175c0-12.014-6.464-26.054-24.668-26.054zm-46.75 22.576v.174c0 5.308-4.3 9.164-10.248 9.164-5.96 0-10.15-3.767-10.15-9.164v-.174c0-5.306 4.28-9.163 10.15-9.163 5.947 0 10.25 3.858 10.25 9.164zm14.784-21.728h-13.538c-.788 0-1.427.608-1.427 1.36v2.677c-3.174-2.673-7.43-4.885-13.972-4.885-11.243 0-22.623 7.758-22.623 22.576v.174c0 14.823 11.38 22.583 22.623 22.583 5.66 0 10.046-1.604 14.112-5.265.65 8.327-4.316 12.503-12.153 12.503-5.604 0-10.217-1.194-15.418-3.984-.35-.185-.76-.22-1.146-.11a1.416 1.416 0 0 0-.853.73l-4.636 9.678c-.31.655-.03 1.424.64 1.77 6.36 3.204 13.9 4.907 21.77 4.907 19.127 0 28.05-8.445 28.05-25.607V76.916c0-.752-.643-1.36-1.428-1.36z" fill="#3E4748"/><path d="M113.517 105.47l-16.52-20.41c-.392-.483-1.248-.483-1.64 0l-16.514 20.41a.94.94 0 0 0-.108 1.04c.172.334.533.547.925.547h8c-3.136 9.218-12.213 15.905-22.908 15.905-13.284 0-24.09-10.302-24.09-22.965 0-12.66 10.806-22.96 24.09-22.96 3.605 0 7.07.748 10.31 2.22.44.195.97.08 1.268-.294l9.13-11.382a.954.954 0 0 0 .194-.794.998.998 0 0 0-.497-.66c-6.2-3.41-13.26-5.216-20.405-5.216-22.61 0-41.004 17.536-41.004 39.087 0 21.556 18.393 39.09 41.004 39.09 20.076 0 36.82-13.835 40.318-32.03h7.627c.394 0 .755-.213.93-.548a.958.958 0 0 0-.11-1.04" fill="#fff"/></g></svg>