<svg width="500" height="200" xmlns="http://www.w3.org/2000/svg"><path fill="none" d="M-1-1h502v202H-1z"/><g stroke="null"><path d="M.96 124.99h34.025v17.014H.96zm51.036 0H86v17.014H51.996zM.934 90.965H86.01v17.013H.935zM.96 56.942h51.043v17.012H.96zm68.05 0h17.01v17.012H69.01z" opacity=".7" fill="#3D515B"/><path d="M333 56.844c-27.322 0-41.433 19.322-41.433 43.157 0 23.837 13.764 43.16 41.434 43.16s41.435-19.323 41.435-43.16c0-23.834-14.112-43.156-41.434-43.156zm20.672 43.234c-.02 15.328-5.184 27.742-20.67 27.742s-20.653-12.413-20.67-27.742v-.075c.017-15.326 5.183-27.74 20.67-27.74 15.486 0 20.65 12.414 20.67 27.74v.076zM210.66 142.003V22.68s15.738-2.235 16.958-2.4c1.383-.186 3.218.798 3.218 2.744v44.233c3.266-3.105 6.862-5.608 10.782-7.515 3.923-1.905 8.523-2.86 13.807-2.86 4.576 0 8.63.777 12.17 2.33 3.54 1.55 6.495 3.73 8.864 6.533 2.368 2.806 4.165 6.155 5.39 10.05 1.226 3.893 1.838 8.18 1.838 12.865v53.342H263.51V88.66c0-5.118-1.184-9.08-3.552-11.887-2.37-2.804-5.924-4.206-10.663-4.206-3.485 0-6.75.79-9.8 2.37-3.05 1.58-5.936 3.73-8.66 6.454v60.613H210.66zm269.366 1.149c-13.884 0-22.586-8.08-22.586-23.155V75.32h-15.648s3.326-11.504 3.59-12.41c.263-.904.95-1.877 2.332-2.07l9.707-1.352 3.846-24.464s11.298-1.593 13.09-1.86c1.69-.253 3.225.965 3.225 2.808v23.516h19.79v15.83h-19.79v44.077c0 6.018 3.665 8.318 7.176 8.318 2.147 0 5.086-1.14 7.28-2.158 1.356-.626 3.456-.162 4 1.73l3.03 10.575c-2.2 1.42-9.16 5.292-19.04 5.292zm-49.322-67.569c-3.932-1.277-11.324-3.32-18.355-3.32-7.165 0-12.802 2.474-12.802 8.43 0 7.44 12.15 9.606 20.464 12.64 5.56 2.026 20.468 5.98 20.468 22.013 0 19.478-16.175 27.805-33.43 27.805-17.256 0-27.45-6.417-27.45-6.417s2.675-9.455 3.217-11.322c.49-1.678 2.443-2.267 3.687-1.79 4.44 1.712 12.46 4.09 21.525 4.09 9.177 0 13.617-2.8 13.617-8.775 0-7.95-12.393-10.38-20.59-12.966-5.646-1.78-20.59-5.93-20.59-23.565 0-17.372 15.253-25.522 31.556-25.522 13.8 0 20.57 2.886 25.625 5.462l-3.236 11.282c-.494 1.74-1.92 2.536-3.708 1.956zM202.783 59.76c0-1.88-1.605-2.955-3.137-2.78-6.77.776-11.602 3.962-14.727 6.93-6.138-4.81-14.656-7.105-24.217-7.105-19.168 0-34.144 9.25-34.144 29.424 0 11.58 4.928 19.56 12.756 24.257-5.814 2.752-9.686 8.59-9.686 14.332 0 9.603 7.587 12.61 7.587 12.61s-13.265 6.438-13.265 19.32c0 16.49 15.174 23.156 33.717 23.156 26.727 0 45.116-11.04 45.116-31.31 0-12.476-9.546-19.363-30.35-20.182-12.346-.487-20.343-.93-22.324-1.587-2.618-.87-3.904-2.965-3.904-5.28 0-2.554 2.098-4.986 5.406-6.656 2.885.512 5.93.765 9.09.765 19.186 0 34.147-9.225 34.147-29.425 0-4.898-.884-9.15-2.49-12.783 2.817-1.504 6.285-2.562 10.425-2.562-.002 0-.002-9.412-.002-11.126zm-52.824 82.347s10.065.38 20.123.847c11.3.523 14.822 2.958 14.822 8.81 0 7.148-9.82 14.102-23.544 14.102-13.026 0-19.533-4.533-19.533-12.08 0-4.328 2.286-9.172 8.132-11.68zm10.78-40.534c-9.08 0-16.166-4.823-16.166-15.344 0-10.523 7.09-15.346 16.166-15.346 9.075 0 16.165 4.81 16.165 15.345s-7.08 15.343-16.165 15.343z" fill="#404041"/></g></svg>