<svg width="500" height="200" viewBox="0 0 419 77" xmlns="http://www.w3.org/2000/svg"><g fill="none" fill-rule="evenodd"><path fill="#D12026" d="M0 0h77v77H0z"/><path d="M20.51 20.74l14.15 14.19-14.194 14.235-3.04-2.998L28.62 34.973l-11.195-11.15 3.085-3.082zm12.706 32.858v-4.53h23.402v4.53H33.216z" fill="#FFF"/><path d="M100.672 19.976h-9.504V68h9.504V51.008c0-4.104.216-5.616 1.008-7.128 1.224-2.52 3.528-3.888 6.408-3.888 2.232 0 4.032.792 5.04 2.16.792 1.152 1.08 2.448 1.08 5.4V68h9.504V45.896c0-4.248-.504-6.624-1.8-8.712-2.016-3.168-5.688-4.968-10.296-4.968-4.68 0-8.856 2.232-10.944 5.76v-18zM161.728 68c-.936-2.304-1.224-4.392-1.224-9.36v-2.592c.072-3.096.072-5.328.072-6.696.072-4.032.072-4.104.072-4.968 0-5.04-.648-6.84-3.024-8.784-2.664-2.16-6.912-3.312-12.312-3.312-10.008 0-15.48 3.96-16.056 11.592h9c.648-3.816 2.448-5.184 6.84-5.184 4.248 0 6.264 1.512 6.264 4.536 0 2.808-.936 3.24-8.424 4.176-5.184.72-7.2 1.08-9.072 1.944-4.032 1.656-6.12 4.824-6.12 9.072 0 6.552 4.608 10.512 12.168 10.512 4.752 0 8.496-1.44 11.52-4.32 0 1.224.072 1.8.576 3.384h9.72zm-10.44-13.032c0 2.376-.36 3.528-1.584 4.896-1.728 1.872-4.104 2.88-6.84 2.88-3.312 0-5.328-1.8-5.328-4.68 0-3.168 1.728-4.464 7.056-5.256 3.888-.504 5.184-.864 6.696-1.8v3.96zm39.24-.288c-.72 4.608-3.312 7.056-7.416 7.056-5.112 0-8.136-4.032-8.136-11.016 0-7.128 3.096-11.232 8.352-11.232 3.672 0 6.192 2.16 6.912 5.904h9.36c-.792-8.064-7.056-13.104-16.344-13.104-10.8 0-17.856 7.344-17.856 18.648 0 10.872 7.056 18 17.712 18 9.288 0 15.48-5.328 16.704-14.256h-9.288zm46.8-21.456h-11.304l-12.24 12.456V19.976h-9.504V68h9.504V56.192l3.888-3.672L227.248 68h11.592l-14.616-21.888 13.104-12.888zM264.256 57.2c-1.44 3.456-3.6 4.896-7.128 4.896-5.112 0-7.92-3.168-8.136-9h24.984v-1.44c0-11.664-6.84-19.368-17.208-19.368-10.08 0-17.496 7.848-17.496 18.504 0 10.872 7.128 18.144 17.784 18.144 8.136 0 14.472-4.608 16.344-11.736h-9.144zm-15.264-10.224c.504-4.824 3.528-7.848 7.776-7.848 4.248 0 6.912 2.808 7.488 7.848h-15.264zm52.272-14.328c-1.008-.144-1.44-.144-2.16-.144-5.04 0-8.712 2.304-11.232 7.128v-6.408H278.8V68h9.504V53.456c0-4.104.36-6.336 1.44-8.064 1.584-2.736 4.392-4.32 7.776-4.32 1.08 0 2.016.072 3.744.36v-8.784zm43.632-12.672h-11.664l-11.304 19.728-11.304-19.728h-11.952L316.6 49.352V68h10.44V49.496l17.856-29.52zm18.432 12.312c-11.088 0-18.36 7.272-18.36 18.36 0 10.944 7.2 18.288 18.072 18.288 10.8 0 17.928-7.272 17.928-18.36 0-10.944-7.128-18.288-17.64-18.288zm-.288 7.056c5.184 0 8.352 4.32 8.352 11.232 0 7.056-3.096 11.304-8.352 11.304-5.328 0-8.496-4.176-8.496-11.232 0-7.128 3.168-11.304 8.496-11.304zm55.296-6.12h-9.504v17.28c0 3.6-.288 5.4-1.008 6.768-1.296 2.52-3.6 3.888-6.552 3.888-2.304 0-4.104-.792-5.112-2.304-.792-1.224-.936-2.448-.936-6.408V33.224h-9.504v22.032c0 4.68.648 7.416 2.304 9.504 2.16 2.664 5.616 4.176 9.72 4.176 4.968 0 8.712-1.872 11.52-5.832V68h9.072V33.224z" fill="#231F20"/></g></svg>