<svg xmlns="http://www.w3.org/2000/svg" viewBox="0 0 500 200"><style>.st0{fill:#26C6DA;} .st1{fill:#607D8B;}</style><path d="M123.6 76.7l-20.1-11.6c-3.7-2.1-9.7-2.1-13.4 0L69.9 76.7c-3.7 2.1-6.7 7.4-6.7 11.6v23.2c0 4.3 3 9.5 6.7 11.6L90 134.7c3.7 2.1 9.7 2.1 13.4 0l20.1-11.6c3.7-2.1 6.7-7.4 6.7-11.6V88.4c.1-4.3-2.9-9.5-6.6-11.7zM111 122.8c-3.4 0-6.1-2.7-6.1-6.1 0-1 .3-2 .8-2.9l-8.4-19.9c0-.1-.2-.1-.2 0l-.4 16.4c-.1 3.1-4.1 4-5.3 1.2-1.7-3-6.6-16.1-11-27.4H80c-1.9 0-3.4-1.5-3.4-3.4s1.5-3.4 3.4-3.4 3.4 1.5 3.4 3.4c0 1.1-.5 2.1-1.3 2.8l10.4 20.7h.1v-.1c.3-4.7 0-8.5 1.1-12.7 1.2-4.3 4.5-4.5 6.2-1.4l11.6 20.5c3.4.3 5.8 3.3 5.5 6.6-.3 3.2-2.9 5.6-6 5.7z" class="st0"/><path d="M144.2 79.2h8.3v18.5h21.6V79.2h8.3v43.3h-8.3V105h-21.6v17.6h-8.3V79.2zm64.4 43.4v-4c-1.2 1.5-2.7 2.6-4.5 3.3-1.8.7-3.9 1.1-6.3 1.1-2.3 0-4.3-.4-6.1-1.3-1.7-.8-3.1-2.1-4.1-3.7-1-1.6-1.4-3.4-1.4-5.3 0-3.1 1.1-5.5 3.3-7.3 2.2-1.8 5.3-2.7 9.3-2.7h9.6v-.9c0-1.9-.6-3.4-1.9-4.5-1.3-1.1-3.1-1.6-5.6-1.6-3.1 0-6.4 1-9.8 3.1l-2.9-5.6c2.6-1.4 5-2.5 7.1-3.1 2.1-.6 4.6-1 7.5-1 4.3 0 7.6 1 10 3.1 2.4 2.1 3.6 5 3.6 8.7l.1 21.7h-7.9zm-8.7-5.9c2.3 0 4.3-.5 5.9-1.6 1.6-1.1 2.6-2.4 2.8-4.1v-3h-8.4c-2.1 0-3.7.3-4.7 1s-1.5 1.7-1.5 3.1c0 1.4.5 2.5 1.6 3.3 1 .9 2.4 1.3 4.3 1.3zM244 98.4c-1.6-.9-3.2-1.7-5-2.2-1.5-.5-3.1-.8-4.7-.8-1.4 0-2.4.2-3.3.7-.8.5-1.2 1.2-1.2 2.2 0 1 .5 1.8 1.5 2.4 1 .6 2.6 1.1 4.8 1.8 1.9.6 3.8 1.3 5.7 2.1 1.5.7 2.8 1.7 3.9 3s1.6 3.1 1.6 5.3c0 3.2-1.2 5.7-3.7 7.4s-5.6 2.6-9.3 2.6c-2.5 0-5.1-.4-7.5-1.2-2.4-.8-4.5-2-6.2-3.4l2.8-5.6c1.6 1.3 3.4 2.3 5.3 3 1.9.7 3.9 1.1 5.9 1.1 1.5 0 2.7-.3 3.6-.8.9-.5 1.4-1.4 1.3-2.3 0-1.2-.5-2-1.5-2.6-1-.6-2.7-1.2-5-1.9-1.9-.5-3.7-1.2-5.4-2-1.4-.7-2.7-1.7-3.7-2.9-1-1.3-1.6-3-1.5-5.1 0-3.3 1.2-5.7 3.6-7.5 2.4-1.7 5.4-2.6 8.9-2.6 2.2 0 4.4.3 6.5.9 2 .6 3.9 1.4 5.7 2.6l-3.1 5.8zm28-9.3c3.8 0 6.8 1.1 9 3.4s3.3 5.4 3.3 9.3v20.7h-8.1v-18.3c0-2.3-.7-4.1-2-5.5-1.3-1.3-3.1-2-5.4-2-2.7 0-4.8 1-6.4 2.7-1.6 1.8-2.4 4-2.4 6.8v16.3h-8V76.6h8v19.1c2.4-4.3 6.3-6.5 12-6.6zm37.6 0c3.8 0 6.8 1.1 9 3.4s3.3 5.4 3.3 9.3v20.7h-8.1v-18.3c0-2.3-.7-4.1-2-5.5-1.3-1.3-3.1-2-5.4-2-2.7 0-4.8 1-6.3 2.7-1.5 1.8-2.3 4-2.3 6.8v16.3h-8.1V89.4h8v6.2c2.2-4.2 6.2-6.4 11.9-6.5zm34.5.1c3.4 0 6.4.7 9.1 2.1 2.6 1.3 4.7 3.4 6.1 5.9 1.5 2.5 2.2 5.5 2.2 8.8 0 3.3-.7 6.3-2.2 8.9-1.4 2.5-3.6 4.6-6.1 5.9-2.6 1.4-5.6 2.1-9.1 2.1s-6.5-.7-9.2-2.1c-2.6-1.3-4.7-3.4-6.2-5.9-1.5-2.6-2.2-5.5-2.2-8.9 0-3.3.7-6.2 2.2-8.8 1.4-2.5 3.6-4.6 6.2-5.9 2.7-1.4 5.7-2.1 9.2-2.1zm0 6.9c-2.8 0-5.1.9-6.8 2.8-1.7 1.9-2.6 4.3-2.6 7.2 0 3 .9 5.4 2.6 7.2 1.7 1.9 4 2.8 6.8 2.8 2.7 0 4.9-.9 6.7-2.8 1.7-1.9 2.6-4.3 2.6-7.2 0-3-.9-5.4-2.6-7.2-1.8-1.9-4-2.8-6.7-2.8zm56.3-19.5v45.9h-8v-5.3c-1.1 1.8-2.7 3.3-4.6 4.2-1.9 1-4.1 1.5-6.5 1.5-3.1 0-5.9-.7-8.3-2.1-2.4-1.4-4.3-3.5-5.5-6-1.3-2.6-2-5.5-2-8.9 0-3.3.7-6.2 2-8.8 1.2-2.5 3.1-4.5 5.5-5.9 2.4-1.4 5.1-2.1 8.1-2.1 2.5 0 4.7.5 6.6 1.5 1.9 1 3.5 2.5 4.7 4.3V76.6h8zM383 116.2c2.8 0 5-.9 6.8-2.8 1.8-1.9 2.6-4.3 2.6-7.3s-.9-5.4-2.6-7.3c-1.8-1.9-4-2.8-6.8-2.8s-5 .9-6.7 2.8c-1.7 1.9-2.6 4.3-2.7 7.3 0 3 .9 5.4 2.7 7.3s3.9 2.8 6.7 2.8zm37.9-27c5.3 0 9.3 1.5 11.9 4.5s4 7.2 4 12.7c0 1.1 0 1.9-.1 2.4h-24.5c.5 2.4 1.6 4.2 3.3 5.5 1.7 1.3 3.7 2 6.2 2 1.7 0 3.3-.3 4.9-1 1.5-.6 2.9-1.6 4-2.8l4.3 4.5c-1.7 1.8-3.7 3.3-6 4.2-2.4 1-5 1.5-7.9 1.5-3.4 0-6.4-.7-8.9-2.1-2.5-1.3-4.6-3.4-6-5.9-1.4-2.5-2.1-5.5-2.1-8.8 0-3.3.7-6.2 2.1-8.8 1.4-2.5 3.5-4.6 6-6 2.6-1.2 5.5-1.9 8.8-1.9zm8.5 14.2c-.1-2.4-.9-4.4-2.4-5.8-1.5-1.4-3.5-2.2-6.1-2.2-2.4 0-4.3.7-5.9 2.1-1.6 1.4-2.6 3.4-2.9 5.9h17.3z" class="st1"/></svg>
