<svg id="Layer_1" xmlns="http://www.w3.org/2000/svg" xmlns:xlink="http://www.w3.org/1999/xlink" viewBox="0 0 500 200"><style>.st3{clip-path:url(#SVGID_2_)}.st5{fill:#232323}.st7{fill:#f3c715}.st9{fill:#d7994f}.st10{fill:#b8804d}.st11{fill:#fff}.st12{fill:#c1cfcf}.st13{fill:#1d1d1d}.st16{fill:#e1b080}.st18{fill:#171617}.st21{fill:#1c1d1d}</style><defs><path id="SVGID_1_" d="M486.9 42.3v114.6c0 13.9-11.3 25.3-25.3 25.3h-424c-13.9 0-25.3-11.3-25.3-25.3V42.3c0-14 11.4-25.3 25.3-25.3h424c13.9 0 25.3 11.3 25.3 25.3z"/></defs><clipPath id="SVGID_2_"><use xlink:href="#SVGID_1_" overflow="visible"/></clipPath><path clip-path="url(#SVGID_2_)" fill="#e14e25" d="M15.9 20.5h164.6v158.1H15.9z"/><path clip-path="url(#SVGID_2_)" fill="#fff" d="M180.4 20.5h302.9v158.1H180.4z"/><path d="M461.6 178.6h-424c-12 0-21.7-9.7-21.7-21.7V42.2c0-12 9.7-21.7 21.7-21.7h424c12 0 21.7 9.7 21.7 21.7v114.6c.1 12.1-9.7 21.8-21.7 21.8z" clip-path="url(#SVGID_2_)" fill="none" stroke="#1c1d1d" stroke-width="7.087" stroke-miterlimit="10"/><g class="st3"><defs><path id="SVGID_3_" d="M67.5 81.6l5.1-14.8s4.1-11.7 16.6-7.3c11.5 4.1 13.1-.5 18.5-1.3 7.4-1.1 11.7 2 13.1 7.4 1.4 5.4 4.8 15.8 4.8 15.8l4.6.5c.2-2.1 3.8-34.7-33.5-31-2.9-.4-34.4-5.5-32.8 31l3.6-.3z"/></defs><use xlink:href="#SVGID_3_" overflow="visible" fill="#232323"/><clipPath id="SVGID_4_"><use xlink:href="#SVGID_3_" overflow="visible"/></clipPath><path d="M64 84.6c-.6 0-1.3-.2-1.8-.7-.6-.5-.9-1.2-.9-1.9-.5-11.5 2.1-20.3 7.8-26.1 6.4-6.7 15.3-8.1 21.6-8.1 2.9 0 5.2.3 6.2.4 1.9-.2 3.8-.3 5.6-.3 10.2 0 18 3 23.3 8.8 8 8.8 7.5 21.6 7.1 25.3-.1.7-.4 1.4-1 1.9-.5.4-1.1.6-1.7.6h-.3l-4.6-.5c-1.1-.1-1.9-.8-2.3-1.8-.1-.4-3.5-10.6-4.9-16-1-3.8-3.5-5.6-7.7-5.6-.8 0-1.6.1-2.4.2-1.2.2-2.3.6-3.4 1.2-1.9.9-4.1 1.8-7.4 1.8-2.6 0-5.5-.6-8.9-1.8-1.6-.6-3.1-.9-4.5-.9-6.3 0-8.6 6.2-8.7 6.5L70 82.4c-.3 1-1.2 1.7-2.3 1.8l-3.5.4H64z" clip-path="url(#SVGID_4_)" fill="#232323"/><g><path class="st5" d="M97.4 156.7c-12.6 0-22.4-6.3-22.4-14.3s9.8-14.3 22.4-14.3c12.6 0 22.4 6.3 22.4 14.3s-9.9 14.3-22.4 14.3z"/><path class="st5" d="M97.4 151.3C84.8 151.3 75 145 75 137s9.8-14.3 22.4-14.3c12.6 0 22.4 6.3 22.4 14.3s-9.9 14.3-22.4 14.3zM67.7 74.1c-.3 0-.6 0-.8-.1C51 68.7 46.8 49.4 48.2 40.7c.8-4.8 3.2-5.6 4.6-5.6 3 0 4.6 3.5 5.2 4.6C63.7 52 77 52.5 77.2 52.5c.9 0 1.8.6 2.3 1.4.5.8.5 1.8 0 2.7L70 72.8c-.5.8-1.4 1.3-2.3 1.3zM62.4 103.8c-5.3 0-9.6-5.2-9.6-11.6 0-6.4 4.3-11.6 9.6-11.6S72 85.8 72 92.2c.1 6.4-4.3 11.6-9.6 11.6zM132.7 103.8c-5.3 0-9.6-5.2-9.6-11.6 0-6.4 4.3-11.6 9.6-11.6s9.6 5.2 9.6 11.6c.1 6.4-4.2 11.6-9.6 11.6zM127.5 74.1c-.9 0-1.8-.5-2.3-1.3l-9.4-16.2c-.5-.8-.5-1.8 0-2.7.5-.8 1.3-1.4 2.3-1.4.5 0 13.5-.6 19.3-12.8.5-1.1 2.2-4.6 5.2-4.6 1.4 0 3.8.7 4.6 5.6 1.4 8.7-2.7 28-18.7 33.3-.4 0-.7.1-1 .1z"/><path class="st5" d="M96.9 142.9c-22.2 0-39.6-18.8-39.6-42.9 0-.2 0-.5.1-.7l9.4-34.7c2.3-10.4 13.8-16.7 30.7-16.7 17 0 29.2 6.4 31.1 16.3l.3 1.1 7.7 34.1c0 .2.1.4.1.6-.2 24.1-17.6 42.9-39.8 42.9z"/><path class="st5" d="M64.1 83.3c-.6 0-1.3-.2-1.8-.7-.6-.5-.9-1.2-.9-1.9-.5-11.5 2.1-20.2 7.8-26.1 6.4-6.7 15.3-8.1 21.6-8.1 2.9 0 5.2.3 6.2.4 1.9-.2 3.8-.3 5.6-.3 10.2 0 18 3 23.3 8.8 7.8 8.6 7.6 20.6 7.2 25.3-.1.7-.4 1.4-1 1.9-.5.4-1.1.7-1.7.7h-.2l-4.6-.5c-1.1-.1-1.9-.8-2.3-1.8-.1-.4-3.5-10.6-4.9-16-1-3.8-3.5-5.6-7.7-5.6-.8 0-1.6.1-2.4.2-1.2.2-2.3.6-3.4 1.2-1.9.9-4.1 1.8-7.4 1.8-2.6 0-5.5-.6-8.9-1.8-1.6-.6-3.1-.9-4.5-.9-6.4 0-8.7 6.4-8.7 6.5l-5.1 14.8c-.3 1-1.2 1.7-2.3 1.8l-3.5.4c-.3-.1-.3-.1-.4-.1zM67 136.9c-.8 0-1.5-.3-2-.9-.8-.9-.9-2.2-.2-3.2 5-8 3.5-11.9 2.1-12.8-1.1-.6-1.6-2-1.1-3.2 4.8-13.5 18.4-13.9 20-13.9h.2c1.2 0 2.3.9 2.6 2.2 3.4 16.6-11.8 27.9-20.3 31.7-.5.1-.9.1-1.3.1zM127.9 136.9c-.4 0-.7-.1-1.1-.2-8.5-3.7-23.7-15.1-20.3-31.7.3-1.2 1.3-2.1 2.6-2.2h.2c1.5 0 15.1.4 20 13.9.4 1.2-.1 2.6-1.2 3.3-.1.1-4 2.8 2.2 12.8.6 1 .5 2.3-.2 3.2-.7.6-1.4.9-2.2.9z"/><path class="st5" d="M76.2 121.7c-23.7 0-29.5-23.5-29.6-23.7-.3-1.2.3-2.4 1.3-3 .4-.2.9-.3 1.3-.3.7 0 1.4.3 1.9.8 1.8 1.8 5.1 2.8 9.6 2.8 11 0 25.4-5.7 27-6.3l.1-.1c.3-.2.7-.2 1.1-.2.5 0 .9.1 1.3.4.7.4 1.2 1.2 1.3 2l2.6 21.7c.1 1.2-.6 2.4-1.8 2.9-5.6 1.9-11.1 3-16.1 3zM118.6 121.7c-5 0-10.5-1.1-16.3-3.1-1.2-.4-1.9-1.6-1.8-2.9l2.6-21.7c.1-.9.6-1.6 1.4-2 .4-.2.9-.3 1.3-.3s.8.1 1.1.2c1.7.7 16.1 6.4 27.1 6.4 4.5 0 7.7-.9 9.6-2.8.5-.5 1.2-.8 1.9-.8.4 0 .9.1 1.3.3 1.1.6 1.6 1.8 1.3 3 0 .2-5.8 23.7-29.5 23.7zM98 161.2c-4.2 0-7.6-3.4-7.6-7.6 0-4.2 3.4-7.6 7.6-7.6 4.2 0 7.6 3.4 7.6 7.6 0 4.2-3.4 7.6-7.6 7.6z"/></g><g><defs><path id="SVGID_5_" d="M67.5 81.6l5.1-14.8s4.1-11.7 16.6-7.3c11.5 4.1 13.1-.5 18.5-1.3 7.4-1.1 11.7 2 13.1 7.4 1.4 5.4 4.8 15.8 4.8 15.8l4.6.5c.2-2.1 3.8-34.7-33.5-31-2.9-.4-34.4-5.5-32.8 31l3.6-.3z"/></defs><use xlink:href="#SVGID_5_" overflow="visible" fill="#232323"/><clipPath id="SVGID_6_"><use xlink:href="#SVGID_5_" overflow="visible"/></clipPath><path d="M64 84.6c-.6 0-1.3-.2-1.8-.7-.6-.5-.9-1.2-.9-1.9-.5-11.5 2.1-20.3 7.8-26.1 6.4-6.7 15.3-8.1 21.6-8.1 2.9 0 5.2.3 6.2.4 1.9-.2 3.8-.3 5.6-.3 10.2 0 18 3 23.3 8.8 8 8.8 7.5 21.6 7.1 25.3-.1.7-.4 1.4-1 1.9-.5.4-1.1.6-1.7.6h-.3l-4.6-.5c-1.1-.1-1.9-.8-2.3-1.8-.1-.4-3.5-10.6-4.9-16-1-3.8-3.5-5.6-7.7-5.6-.8 0-1.6.1-2.4.2-1.2.2-2.3.6-3.4 1.2-1.9.9-4.1 1.8-7.4 1.8-2.6 0-5.5-.6-8.9-1.8-1.6-.6-3.1-.9-4.5-.9-6.3 0-8.6 6.2-8.7 6.5L70 82.4c-.3 1-1.2 1.7-2.3 1.8l-3.5.4H64z" clip-path="url(#SVGID_6_)" fill="#232323"/></g><g><defs><path id="SVGID_7_" d="M67.5 80.9l5.1-14.8s4.1-11.7 16.6-7.3c11.5 4.1 13.1-.5 18.5-1.3 7.4-1.1 11.7 2 13.1 7.4 1.4 5.4 4.8 15.8 4.8 15.8l4.6.5c.2-2.1 3.8-34.7-33.5-31-2.9-.4-34.4-5.5-32.8 31l3.6-.3z"/></defs><clipPath id="SVGID_8_"><use xlink:href="#SVGID_7_" overflow="visible"/></clipPath><path class="st7" d="M117.1 143c0 6.4-8.8 11.7-19.7 11.7-10.9 0-19.7-5.2-19.7-11.7 0-6.4 8.8-11.6 19.7-11.6 10.8 0 19.7 5.2 19.7 11.6z"/><path class="st5" d="M97.4 155.6c-5.4 0-10.6-1.3-14.4-3.5-4-2.4-6.2-5.6-6.2-9 0-3.5 2.2-6.7 6.2-9 3.9-2.3 9-3.5 14.4-3.5s10.6 1.3 14.4 3.5c4 2.4 6.2 5.6 6.2 9 0 3.5-2.2 6.7-6.2 9-3.9 2.3-9 3.5-14.4 3.5zm0-23.3c-5.1 0-9.9 1.2-13.5 3.3-3.4 2-5.3 4.7-5.3 7.4 0 5.9 8.4 10.7 18.8 10.7s18.8-4.8 18.8-10.7c0-2.8-1.9-5.4-5.3-7.4-3.7-2.1-8.4-3.3-13.5-3.3z"/><ellipse cx="97.3" cy="139.6" rx="19.4" ry="12.8" fill="#d59729"/><path class="st9" d="M117.1 137.7c0 6.4-8.8 11.6-19.7 11.6-10.9 0-19.7-5.2-19.7-11.6 0-6.4 8.8-11.6 19.7-11.6 10.8-.1 19.7 5.1 19.7 11.6z"/><path class="st5" d="M97.4 150.2c-5.4 0-10.6-1.3-14.4-3.5-4-2.4-6.2-5.6-6.2-9 0-3.5 2.2-6.7 6.2-9 3.9-2.3 9-3.5 14.4-3.5s10.6 1.3 14.4 3.5c4 2.4 6.2 5.6 6.2 9 0 3.5-2.2 6.7-6.2 9-3.9 2.3-9 3.5-14.4 3.5zm0-23.2c-10.4 0-18.8 4.8-18.8 10.7 0 5.9 8.4 10.7 18.8 10.7s18.8-4.8 18.8-10.7c-.1-5.9-8.5-10.7-18.8-10.7z"/><path class="st10" d="M116.7 133.1c0 7.2-8.7 13.1-19.5 13.1s-19.5-5.8-19.5-13.1c0-7.2 8.7-13.1 19.5-13.1 10.7 0 19.5 5.8 19.5 13.1z"/><path class="st11" d="M77.1 55.9S62 55.5 55.5 41.6c-6.6-13.9-9.8 23.2 12.2 30.5l9.4-16.2z"/><path class="st5" d="M67.7 73h-.3c-7.9-2.6-12.2-8.8-14.4-13.5-2.8-6-3.5-12.3-3.3-16.2.2-2.4.8-5.3 2.7-5.7 2.1-.4 3.5 2.6 3.9 3.6C62.6 54.4 77 55 77.1 55c.3 0 .6.2.8.5.2.3.2.6 0 .9l-9.4 16.2c-.2.3-.5.4-.8.4zm-15-33.6c-.1 0-.9.8-1.2 4-.2 3.7.4 9.6 3.1 15.3 2 4.2 5.8 9.7 12.6 12.3l8.3-14.3c-1.6-.2-4.2-.7-7.2-1.9C64 53.1 58.1 49.4 54.6 42c-1.1-2.5-1.9-2.6-1.9-2.6z"/><path class="st12" d="M64 69.5s-12.9-7.3-12.4-26.9c0 0 .4-2.9 1.2-3.2 0 0-2.7 19.9 11.8 27.8l-.6 2.3z"/><path class="st9" d="M69.4 92.9c0 4.9-3.1 9-7 9-3.8 0-7-4-7-9 0-4.9 3.1-9 7-9s7 4 7 9z"/><path class="st5" d="M62.4 102.8c-4.4 0-7.9-4.4-7.9-9.9S58 83 62.4 83s7.9 4.4 7.9 9.9c0 5.4-3.5 9.9-7.9 9.9zm0-17.9c-3.3 0-6 3.6-6 8s2.7 8 6 8 6-3.6 6-8-2.7-8-6-8z"/><path class="st9" d="M125.8 92.9c0 4.9 3.1 9 7 9 3.8 0 7-4 7-9 0-4.9-3.1-9-7-9s-7 4-7 9z"/><path class="st5" d="M132.7 102.8c-4.4 0-7.9-4.4-7.9-9.9s3.5-9.9 7.9-9.9 7.9 4.4 7.9 9.9c0 5.4-3.5 9.9-7.9 9.9zm0-17.9c-3.3 0-6 3.6-6 8s2.7 8 6 8 6-3.6 6-8c.1-4.4-2.6-8-6-8z"/><path class="st10" d="M135.6 92.8c0 3-1.6 5.4-3.5 5.4s-3.5-2.4-3.5-5.4c0-3 1.6-5.4 3.5-5.4 1.9.1 3.5 2.5 3.5 5.4zM58.9 92.8c0 3 1.6 5.4 3.5 5.4s3.5-2.4 3.5-5.4c0-3-1.6-5.4-3.5-5.4-1.9.1-3.5 2.5-3.5 5.4z"/><path class="st11" d="M118.1 55.9s15.1-.4 21.6-14.3c6.6-13.9 9.8 23.2-12.2 30.5l-9.4-16.2z"/><path class="st5" d="M127.5 73c-.3 0-.6-.2-.8-.5l-9.4-16.2c-.2-.3-.2-.6 0-.9.2-.3.5-.5.8-.5.2 0 14.6-.6 20.8-13.8.5-1 1.9-4 3.9-3.6 1.9.4 2.5 3.3 2.7 5.7.3 3.9-.5 10.2-3.3 16.2-2.2 4.7-6.5 10.9-14.4 13.5-.1.1-.2.1-.3.1zm-7.8-16.3L128 71c6.8-2.5 10.6-8 12.6-12.3 2.7-5.7 3.4-11.6 3.1-15.3-.2-3.2-1-4-1.2-4 0 0-.7.1-1.9 2.6-3.5 7.5-9.4 11.1-13.8 12.9-3 1.1-5.6 1.6-7.1 1.8z"/><path class="st9" d="M126.2 66.7l-.3-1.2c-1.6-8.7-13.1-14.2-28.4-14.2-15.3 0-26 5.4-28.1 14.7L60 100.7c0 22.7 16.5 40.2 36.9 40.2s36.9-17.5 36.9-40.2l-7.6-34z"/><path class="st5" d="M96.9 142.3c-10.3 0-19.9-4.3-27.1-12-7.2-7.8-11.2-18.3-11.2-29.6v-.4L68 65.7C70.3 55.9 81.2 50 97.4 50c16.4 0 28.1 6 29.8 15.3l.3 1.1v.1l7.7 34v.3c0 11.3-4 21.8-11.2 29.6-7.2 7.6-16.8 11.9-27.1 11.9zm-35.6-41.4c0 10.5 3.8 20.3 10.5 27.5 6.7 7.2 15.6 11.2 25.1 11.2 9.5 0 18.5-4 25.1-11.2 6.7-7.2 10.4-17 10.5-27.6L124.9 67l-.3-1.1v-.1c-1.4-7.8-12.3-13.1-27.1-13.1s-24.8 5.1-26.8 13.7v.1l-9.4 34.4z"/><path class="st13" d="M67.5 80.9l5.1-14.8s4.1-11.7 16.6-7.3c11.5 4.1 13.1-.5 18.5-1.3 7.4-1.1 11.7 2 13.1 7.4 1.4 5.4 4.8 15.8 4.8 15.8l4.6.5c.2-2.1 3.8-34.7-33.5-31-2.9-.4-34.4-5.5-32.8 31l3.6-.3z"/><path class="st5" d="M64.1 82.2c-.2 0-.4-.1-.6-.2-.2-.2-.3-.4-.3-.7-.5-11.7 2.3-20.4 8.4-25.9 3.4-3.1 11.3-8 25.3-6.1h.1c11.9-1.2 21 1.2 26.9 7.1 8.3 8.3 7.8 21 7.5 24.8v.1c0 .2-.1.5-.3.6-.2.2-.4.2-.7.2l-4.6-.5c-.4 0-.7-.3-.8-.6 0-.1-3.5-10.5-4.9-15.9-1.4-5.4-5.6-7.7-12.1-6.7-1.5.2-2.6.7-3.9 1.3-3.1 1.4-6.6 3-15.1 0-3.6-1.3-6.8-1.3-9.5 0-4.3 2-5.9 6.6-5.9 6.7l-5.1 14.8c-.1.3-.4.6-.8.6l-3.6.4zm3.4-1.3zm59-1l3 .3c.3-4.3.2-15.2-7-22.4-5.5-5.5-14.1-7.7-25.5-6.6h-.4c-13.3-1.9-20.6 2.7-23.8 5.6-5.4 4.9-8.1 12.8-7.8 23.4l1.9-.2 4.9-14.2c.1-.2 1.9-5.4 6.9-7.7 3.2-1.5 6.9-1.6 11-.1 7.7 2.7 10.8 1.4 13.7.1 1.3-.6 2.7-1.2 4.4-1.5 7.4-1.1 12.5 1.9 14.2 8.1 1 4.6 3.8 13 4.5 15.2z"/><path class="st11" d="M127.4 119.4s-4 10-15.9 16l-1.1 1.9s12.7-4.7 18.5-18.4l-1.5.5zM97.3 77.9l34.4 3.5s-6.8 18-25.9 13.9l-8.5-17.4z"/><path class="st5" d="M111.3 97.3c-1.8 0-3.7-.2-5.7-.6-.4-.1-.7-.4-.9-.7l-8.5-17.4c-.2-.4-.2-1 .1-1.4.3-.4.8-.6 1.2-.6l34.4 3.5c.4 0 .8.3 1 .6.2.4.3.8.1 1.2-.1.2-1.8 4.8-6.1 9-3.2 3.1-8.3 6.4-15.6 6.4zm-4.5-3.2c7.2 1.4 13.3-.4 18.2-5.1 2.4-2.3 3.9-4.9 4.8-6.5l-30.2-3 7.2 14.6z"/><path class="st11" d="M97.3 77.9l-34.4 3.5s6.8 18 25.9 13.9l8.5-17.4z"/><path class="st5" d="M83.3 97.3c-7.3 0-12.4-3.3-15.6-6.4-4.3-4.2-6-8.8-6.1-9-.1-.4-.1-.8.1-1.2.2-.4.6-.6 1-.6l34.4-3.5c.5 0 1 .2 1.2.6.3.4.3.9.1 1.4L90 95.9c-.2.4-.5.6-.9.7-2.1.5-4 .7-5.8.7zM64.9 82.5c.8 1.6 2.4 4.1 4.8 6.5 4.9 4.8 11 6.5 18.2 5.1L95 79.5l-30.1 3z"/><path class="st11" d="M68.2 118.4s6.8 3.8-1.2 16.5c0 0 22.6-9.9 18.7-28.7.1.1-13-.3-17.5 12.2z"/><path class="st5" d="M67 135.9c-.3 0-.5-.1-.7-.3-.3-.3-.3-.8-.1-1.1 3.9-6.2 4-10 3.5-12.2-.5-2.2-1.9-3.1-2-3.1-.4-.2-.6-.7-.4-1.1 2.4-6.8 7.3-9.9 11-11.3 4-1.5 7.3-1.4 7.5-1.4.4 0 .8.3.9.8 1.6 8-1.2 15.7-8.2 22.3-5.2 4.9-10.8 7.3-11.1 7.5-.1-.1-.2-.1-.4-.1zm2.4-17.8c.7.6 1.7 1.8 2.2 3.7.8 3 .1 6.6-2.1 10.9 2.1-1.2 5-3.1 7.8-5.7 6.3-5.9 8.9-12.6 7.8-19.7-1.1.1-3.5.3-6 1.3-4.7 1.7-7.9 4.9-9.7 9.5z"/><path class="st11" d="M126.7 118.4s-6.8 3.8 1.2 16.5c0 0-22.6-9.9-18.7-28.7 0 .1 13-.3 17.5 12.2z"/><path class="st5" d="M127.9 135.9c-.1 0-.3 0-.4-.1-.2-.1-5.8-2.6-11.1-7.5-7-6.5-9.8-14.2-8.2-22.3.1-.4.5-.7.9-.8.1 0 3.5-.1 7.5 1.4 3.7 1.4 8.6 4.5 11 11.3.2.4 0 .9-.4 1.1-.1 0-1.5.9-2 3.1-.5 2.1-.3 6 3.5 12.1.2.3.2.8-.1 1.1-.2.5-.4.6-.7.6zm-18-28.7c-1.2 7.2 1.4 13.8 7.8 19.7 2.8 2.6 5.7 4.5 7.8 5.7-2.2-4.3-2.9-7.9-2.1-10.9.5-1.9 1.5-3.1 2.2-3.7-1.8-4.5-5-7.7-9.6-9.5-2.6-.9-4.9-1.2-6.1-1.3z"/><path d="M114.8 113.1c0 28.3-13.1 29.9-17.8 29.9-5.3 0-17.8-1.6-17.8-29.9h35.6z" fill="#e56c6c"/><path class="st5" d="M97 144.3c-1.8 0-7.3 0-11.9-4.8-4.8-5-7.3-13.9-7.3-26.5 0-.7.6-1.3 1.3-1.3h35.7c.7 0 1.3.6 1.3 1.3 0 12.5-2.5 21.4-7.5 26.5-3.1 3.2-7 4.8-11.6 4.8zm-16.5-29.9c.2 11.1 2.4 19 6.5 23.3 3.4 3.5 7.3 3.9 9.9 3.9 3.9 0 7.2-1.3 9.7-3.9 4.3-4.4 6.6-12.2 6.7-23.3H80.5z"/><path class="st13" d="M96.4 77.6s-23.6-6.1-28.2 3.1l28.2-3.1z"/><path class="st5" d="M68.2 81.6c-.3 0-.6-.1-.8-.4-.2-.3-.2-.6-.1-1 4.9-9.8 28.3-3.8 29.3-3.6.4.1.7.5.7 1s-.4.8-.8.9l-28.2 3.1h-.1zm13.1-5.1c-4.2 0-8.6.6-11.1 3l20.1-2.2c-1.9-.3-4.1-.6-6.3-.7-.9 0-1.8-.1-2.7-.1z"/><path class="st13" d="M98.2 77.8s23.6-6.1 28.2 3.1l-28.2-3.1z"/><path class="st5" d="M126.4 81.8h-.1l-28.2-3.1c-.5 0-.8-.4-.8-.9s.3-.9.7-1c1-.3 24.4-6.2 29.3 3.5.2.3.1.7-.1 1-.2.4-.5.5-.8.5zm-22.1-4.2l20.1 2.2c-3-2.8-8.9-3.2-13.8-2.9-2.2.1-4.4.4-6.3.7z"/><path class="st13" d="M89 95s-.1 0-.2.1c-2.7 1.1-30.4 12-39.5 3 0 0 7.3 31.3 42.3 18.7L89 95z"/><path class="st5" d="M76.2 120.6c-5 0-9.4-1.1-13.4-3.2-11.3-6.1-14.3-18.6-14.4-19.1-.1-.4.1-.8.5-1 .4-.2.8-.1 1.1.2 7 7 27.5 1.3 38.5-3.2.1 0 .1-.1.2-.1.3-.1.6-.1.9 0 .3.1.4.4.5.7l2.6 21.7c.1.4-.2.8-.6 1-5.9 2-11.1 3-15.9 3zm-25.1-20.1c1.5 3.9 5.2 11.2 12.6 15.2 7.2 3.9 16.2 4 26.8.3l-2.4-19.8c-5.2 2.2-26.7 9.9-37 4.3z"/><path class="st13" d="M105.8 95s.1 0 .2.1c2.7 1.1 30.4 12 39.5 3 0 0-7.3 31.3-42.3 18.7l2.6-21.8z"/><path class="st5" d="M118.6 120.6c-4.8 0-10-1-15.7-3-.4-.1-.7-.6-.6-1l2.6-21.7c0-.3.2-.6.5-.7.3-.1.6-.2.9 0 0 0 .1 0 .1.1 11 4.5 31.5 10.2 38.5 3.2.3-.3.8-.4 1.1-.2.4.2.6.6.5 1-.1.5-3.2 13-14.4 19.1-4.1 2.1-8.6 3.2-13.5 3.2zm-14.4-4.6c10.6 3.7 19.7 3.6 26.8-.3 7.5-4 11.1-11.3 12.6-15.2-4.4 2.4-11.3 2.7-20.5.8-7.3-1.5-14-4-16.6-5l-2.3 19.7z"/><path class="st9" d="M108.3 100.4l-11-22.5-11 22.1c0 .1 0 .1 0 0-.8 2.2-1.2 3.7-1.2 5.6 0 6.8 5.5 12.4 12.3 12.4 6.8 0 12.3-5.4 12.3-12.2-.1-2-.6-3.8-1.4-5.4z"/><path class="st5" d="M97.3 119.1c-7.4 0-13.4-6-13.4-13.5 0-2.1.5-3.7 1.2-5.8 0-.1.1-.2.1-.3l11-22.1c.2-.4.6-.6 1-.6s.8.2 1 .6l11 22.5c0 .1 0 .1.1.2.9 1.8 1.3 3.7 1.3 5.7.1 7.3-5.9 13.3-13.3 13.3zm-10-18.7c-.8 2.2-1.1 3.5-1.1 5.1 0 6.2 5 11.3 11.2 11.3 6.2 0 11.2-5 11.2-11.1 0-1.7-.4-3.3-1.2-4.9 0-.1 0-.1-.1-.2l-9.9-20.3-10.1 20.1z"/><path d="M80.5 120.4s6-.8 11-2.7c0 0 5.1 2.9 11.6-.1 0 0 5.5 2.1 10 2.6l-.4 2.9s-5.9-2.2-9.6-3.1c0 0-5.2 2.9-11.6 0l-10.7 3.3-.3-2.9z" fill="#c85f5f"/><path class="st16" d="M93 106.4c0 1.1-.7 2-1.6 2-.9 0-1.6-.9-1.6-2s.7-2 1.6-2c.9 0 1.6.9 1.6 2z"/><path class="st5" d="M53 51.6c-.7 0-1.4-.1-2.2-.3-.7-.2-1.2-.9-1-1.6.2-.7.9-1.2 1.6-1 1.9.4 3.5.2 4.9-.8 1-.7 1.5-1.6 1.5-1.6.3-.7 1.1-.9 1.8-.6.7.3.9 1.1.6 1.8-.9 1.6-3.3 4.1-7.2 4.1z"/><path d="M100.2 69.5c0 1.7-1.3 3-3 3-1.6 0-3-1.3-3-3s1.3-3 3-3 3 1.3 3 3z" fill="#cc3231"/><path class="st5" d="M97.2 73.4c-2.2 0-3.9-1.8-3.9-3.9 0-2.2 1.8-3.9 3.9-3.9 2.2 0 3.9 1.8 3.9 3.9 0 2.2-1.7 3.9-3.9 3.9zm0-6c-1.1 0-2.1.9-2.1 2s.9 2.1 2.1 2.1c1.1 0 2.1-.9 2.1-2.1 0-1-1-2-2.1-2z"/><path class="st18" d="M87 96.8l-3.1.9s-7.8 10.3 2.6 19.5l3-.8c0 .1-10.1-6.1-2.5-19.6zM107.5 96.7l3.6 1.2s7.5 10.1-3 19.3l-3-.9s10-6.2 2.4-19.6z"/><path class="st10" d="M65 87.1l-.8 2.9s6.3 8.1 16.1 7.1c.1 0-8.3-.2-15.3-10zM129.7 86.9l.6 2.6s-5 8.6-15.8 7.6c0 0 8.2-.4 15.2-10.2z"/><path class="st12" d="M88.5 92.9S74 96.3 66.2 82.4l-1.3.2s6.9 15 23 11.5l.6-1.2zM106.3 93.1s14.4 3.1 21.9-10.8l1.5.2s-6.6 14.6-22.9 11.6l-.5-1zM117.4 120.6s.1 5.3 8 12c0 0-4.6-1.9-10.4-8.4l.5-3.7 1.9.1zM76.6 120.6s.8 5.3-7.1 12c0 0 4.8-2.5 9.7-7.5l-.6-4.6-2 .1z"/><g><defs><path id="SVGID_9_" d="M67.5 80.9l5.1-14.8s4.1-11.7 16.6-7.3c11.5 4.1 13.1-.5 18.5-1.3 7.4-1.1 11.7 2 13.1 7.4 1.4 5.4 4.8 15.8 4.8 15.8l4.6.5c.2-2.1 3.8-34.7-33.5-31-2.9-.4-34.4-5.5-32.8 31l3.6-.3z"/></defs><clipPath id="SVGID_10_"><use xlink:href="#SVGID_9_" overflow="visible"/></clipPath></g><path class="st11" d="M129.8 86.9l3.1 13.7-1.3-.1-2.8-12.4zM97.3 80.3l9.9 20.4s5 8-3.7 14.4c0 0 5.4-6.1 2.2-13.7-3.2-7.7-8.4-21.1-8.4-21.1zM123.5 76.8l-3.7-12.6s-1.4-4.6-6.2-5.7c0 0 3.2 1 5.1 7 1.7 5.4 3.2 10.6 3.2 10.6l1.6.7zM143.4 100.6s-4.1 13.7-17 17c0 0 11.7-6 17-17zM111.9 120s-2 18.2-13.3 21.5c0 0 12.4.5 14.6-21.3l-1.3-.2zM131.5 85s5.7-1.8 7.2 6.9c0 0 .9 6.1-3.6 8.3 0 0 4.5-3.7 1.7-10.2.1 0-1-4.3-5.3-5z"/><path class="st12" d="M130.7 69.7s14.5-7.6 12.8-28.8c0 0-.1-1.7-1.1-1.5 0 0 2.2 20.2-12.2 28.1l.5 2.2z"/><path class="st5" d="M141.6 52.6c-3.9 0-6.3-2.5-7.1-4.1-.3-.7-.1-1.5.6-1.8.7-.3 1.5-.1 1.8.6.1.2 1.9 3.4 6.4 2.4.7-.2 1.4.3 1.6 1 .2.7-.3 1.4-1 1.6-.8.2-1.6.3-2.3.3z"/><circle class="st13" cx="82.4" cy="86.2" r="2"/><path class="st13" d="M113.5 86.2c0 1.1-.9 2-2 2s-2-.9-2-2 .9-2 2-2 2 .9 2 2z"/><path class="st11" d="M113.6 52.6s16.9 3.3 15.9 27.6l-1.3-.1c-.1 0 1.3-20.9-14.6-27.5z"/><path class="st16" d="M113.9 61c.9.9 1.1 2.1.4 2.9-.7.7-2 .6-2.9-.3-.9-.9-1.1-2.1-.4-2.9.7-.7 2-.6 2.9.3zM116.9 65.6c.2.8-.2 1.5-.8 1.6-.6.1-1.2-.4-1.4-1.1-.2-.8.2-1.5.8-1.6.6-.1 1.3.4 1.4 1.1z"/><path d="M99.4 130c0 4.2-1.1 7.7-2.5 7.7s-2.6-3.4-2.6-7.6c0-4.2 1.1-7.7 2.5-7.7 1.4-.1 2.5 3.3 2.6 7.6z" fill="#e58484"/><g><path class="st5" d="M96.8 133.8c-.6 0-1.1-.5-1.1-1.1v-5.4c0-.6.5-1.1 1.1-1.1s1.1.5 1.1 1.1v5.4c0 .6-.5 1.1-1.1 1.1z"/></g><g><path class="st7" d="M102.9 154.3c0 2.7-2.2 4.9-4.9 4.9s-4.9-2.2-4.9-4.9 2.2-4.9 4.9-4.9c2.7-.1 4.9 2.1 4.9 4.9z"/><path class="st5" d="M98 160.1c-3.2 0-5.9-2.6-5.9-5.9 0-3.2 2.6-5.9 5.9-5.9 3.2 0 5.9 2.6 5.9 5.9 0 3.3-2.7 5.9-5.9 5.9zm0-9.9c-2.2 0-4 1.8-4 4s1.8 4 4 4 4-1.8 4-4-1.8-4-4-4z"/></g><path class="st5" d="M99.3 156.5c-.2 0-.4-.1-.5-.3l-1.9-3.7c-.2-.3 0-.7.3-.8.3-.1.7 0 .8.3l1.9 3.7c.2.3 0 .7-.3.8h-.3z"/><path class="st5" d="M96.7 156.5c-.2 0-.3-.1-.4-.2-.2-.2-.2-.6 0-.8l1.7-1.7c.2-.2.6-.2.8 0 .2.2.2.6 0 .8l-1.7 1.7c-.1.2-.3.2-.4.2z"/><g><defs><path id="SVGID_11_" d="M67.5 80.9l5.1-14.8s4.1-11.7 16.6-7.3c11.5 4.1 13.1-.5 18.5-1.3 7.4-1.1 11.7 2 13.1 7.4 1.4 5.4 4.8 15.8 4.8 15.8l4.6.5c.2-2.1 3.8-34.7-33.5-31-2.9-.4-34.4-5.5-32.8 31l3.6-.3z"/></defs><clipPath id="SVGID_12_"><use xlink:href="#SVGID_11_" overflow="visible"/></clipPath></g></g></g><path clip-path="url(#SVGID_2_)" fill="#1d1d1d" d="M176.4 20.5h8v158.1h-8z"/><g class="st3"><path class="st21" d="M218.9 130.5V63.6h9.6v28.7h11.8V63.6h9.6v66.9h-9.6v-29.8h-11.8v29.8h-9.6zM254.6 130.5l14.9-66.9h8l14.9 66.9h-9.6l-2.8-14.4h-13l-2.8 14.4h-9.6zm23.7-23.4l-4.7-24.3h-.2l-4.7 24.3h9.6zM328.2 82.8h-9.6v-2.2c0-2.2-.5-4.1-1.6-5.7-1-1.6-2.8-2.4-5.2-2.4-1.3 0-2.4.3-3.2.8-.8.5-1.5 1.1-2 1.9-.5.8-.8 1.7-1 2.8-.2 1-.3 2.1-.3 3.2 0 1.3 0 2.4.1 3.3.1.9.3 1.7.7 2.3.4.7.9 1.3 1.6 1.8.7.5 1.7 1 3 1.5L318 93c2.1.8 3.9 1.8 5.2 2.9 1.3 1.1 2.4 2.4 3.1 3.8.7 1.5 1.2 3.2 1.4 5.1.2 1.9.4 4.1.4 6.5 0 2.8-.3 5.4-.8 7.8-.6 2.4-1.5 4.5-2.7 6.2-1.3 1.8-3 3.1-5.2 4.1-2.1 1-4.7 1.5-7.8 1.5-2.3 0-4.5-.4-6.5-1.2-2-.8-3.7-1.9-5.2-3.4-1.4-1.4-2.6-3.1-3.4-5-.8-1.9-1.3-4-1.3-6.3v-3.6h9.6v3c0 1.8.5 3.3 1.6 4.7 1 1.4 2.8 2.1 5.2 2.1 1.6 0 2.9-.2 3.8-.7.9-.5 1.6-1.1 2.1-2 .5-.9.8-1.9.9-3.1.1-1.2.1-2.6.1-4.1 0-1.8-.1-3.2-.2-4.3-.1-1.1-.4-2-.8-2.7-.4-.7-1-1.3-1.7-1.7-.7-.4-1.7-.9-2.9-1.4l-6.9-2.8c-4.1-1.7-6.9-3.9-8.3-6.7-1.4-2.8-2.1-6.3-2.1-10.5 0-2.5.3-4.9 1-7.1.7-2.3 1.7-4.2 3.1-5.8 1.3-1.6 3-2.9 5-3.9s4.5-1.5 7.3-1.5c2.4 0 4.6.4 6.5 1.3 2 .9 3.7 2 5.1 3.5 2.9 3 4.3 6.5 4.3 10.3v4.8zM366.4 63.6v51.9c0 2.2-.4 4.2-1.2 6.1-.8 1.8-1.9 3.5-3.3 4.9-1.4 1.4-3.1 2.6-5 3.4s-3.9 1.2-6 1.2-4.1-.4-6-1.2c-1.8-.8-3.5-1.9-4.9-3.4-1.4-1.4-2.6-3.1-3.4-4.9-.8-1.8-1.2-3.9-1.2-6.1V63.6h9.6v50.9c0 2.4.6 4.1 1.7 5.3s2.5 1.7 4.2 1.7c1.7 0 3.1-.6 4.2-1.7s1.7-2.9 1.7-5.3V63.6h9.6zM375.4 130.5V63.6h15.4c11.3 0 16.9 6.5 16.9 19.6 0 3.9-.6 7.3-1.8 10.1-1.2 2.8-3.4 5-6.4 6.7l10.3 30.5h-10.2l-8.9-28.6H385v28.6h-9.6zm9.6-57.9v20.9h5.5c1.7 0 3-.2 4-.7 1-.5 1.8-1.1 2.4-2 .5-.9.8-2 1-3.2.2-1.3.3-2.8.3-4.5 0-1.7-.1-3.2-.3-4.5-.2-1.3-.6-2.4-1.1-3.3-1.2-1.8-3.4-2.6-6.8-2.6h-5zM411.1 130.5L426 63.6h8l14.9 66.9h-9.6l-2.8-14.4h-13.1l-2.8 14.4h-9.5zm23.7-23.4l-4.7-24.3h-.2l-4.7 24.3h9.6z"/></g></svg>