<svg xmlns="http://www.w3.org/2000/svg" width="500" height="200" version="1">
  <path d="M221.37 15.23c-1.1.66-2.2 1.87-2.75 2.75-.72 1.33-.66 1.5 3.58 6.5 3.1 3.86 4.63 5.3 5.4 5.2 3.3-.4 6.28-5.2 5.62-8.83-1.1-5.68-7.33-8.54-11.9-5.5zM50.4 40.2c-.23.2-.4 25.5-.4 56.2v55.87h13.78v-54h46.83v54h13.8l-.1-56.1-.1-56.03-6.7-.17-6.8-.16v46.9H63.8l-.1-23.4-.18-23.3-6.4-.1c-3.63 0-6.6 0-6.88.3zm113.5 0c-.22.2-.4 25.5-.4 56.2v55.87h13.8l-.12-56.1-.17-56.03-6.3-.17c-3.6 0-6.6 0-6.9.22zm104.53.43c-.16.4-.22 20.67 0 45.02 0 34.44.28 44.97.83 46.68 2.48 8.1 7.33 14.32 13.77 17.63 11.58 6.06 32.52 6.06 45.2.16 4.95-2.42 11-8.48 12.44-12.67 2.2-5.73 2.37-11.8 2.2-55.65l-.16-41.55h-13.2l-.1 44.25c-.3 41.16-.3 44.52-1.2 46.56-3.7 8.26-9.9 11.57-22.1 11.57-12.7 0-19.8-4.02-22.7-12.67-.8-2.48-1-7.33-1.23-46.3l-.3-43.52-6.5-.17c-5.16-.1-6.5 0-6.76.66zm112.08-.44c-.2.2-.4 25.5-.4 56.2v55.8h13.3v-101l11.8.3c7.18.1 12.85.5 14.7 1.1 11.2 2.7 16 10.3 15.35 23.7-.32 6.2-2.2 11-5.94 14.7-3.86 3.8-7.3 5-15.27 5.5l-6.82.3 4.4 5.3 4.44 5.4h2.5c4.03 0 9.93-1.5 13.9-3.3 2.48-1.38 4.96-3.2 7.93-6.3 7.17-7.3 9.8-14.1 9.8-25.7 0-5.5-.16-6.97-1.42-10.66-2.75-8.06-7.7-13.8-15.2-17.65-6.5-3.5-8.82-3.85-31.96-4.07-11.36-.17-20.84-.1-21.06.16zM218 103.7c-.28 60.4-.17 58.7-3.42 63.8-1.76 2.77-6.6 7.07-9.92 8.72-1.38.76-2.53 1.64-2.42 1.86.4 1.1 6.23 7.73 6.84 7.73 1.87 0 9.92-4.8 13.23-7.9 4.2-3.8 7.5-9.9 8.5-15.4.2-2.2.6-19.5.6-51V64l-5.9-7.06c-3.2-3.85-6.05-7.16-6.6-7.7-.55-.56-.72 7.48-.9 54.54z"/>
</svg>