<svg xmlns="http://www.w3.org/2000/svg" width="500" height="200" viewBox="0 0 317.79 149.79" id="Artwork"><defs id="defs4"><style id="style2">.cls-2{fill:#434447}.cls-3{fill:#fff}</style></defs><path id="path8" d="M114 44.4L88.82 26.16c-2.61-1.89-4.88-2.81-7.21-2.78s-4.61.88-7.21 2.78L49.16 44.4c-3.65 2.6-4.49 5.6-3.58 8.79.42 1.5 1.78 4.25 4.73 4.81v35.1A10.89 10.89 0 0 0 61.15 104h40.91a10.88 10.88 0 0 0 10.84-10.9V58c2.95-.58 4.28-3.32 4.73-4.83.91-3.19.06-6.19-3.58-8.79" fill="#f96f12"/><path id="path10" d="M142.38 67.11a2.48 2.48 0 0 0-2.55-2.11c-2.36 0-6.22 1.83-8.71 3.4v15.01a21.3 21.3 0 0 0 6.09.85c5.76 0 5.83-4.39 5.83-9.69a45.41 45.41 0 0 0-.66-7.46m7.27 17.8c-2.23 4.19-6.87 6.28-12.57 6.28a27.56 27.56 0 0 1-6-.65v10.54c0 1.83-.53 2.95-2.55 2.95h-2.36c-2.36 0-3.47-.33-3.47-2.95V61.81c0-2.23 1-2.81 2.88-2.81h2.95c1.7 0 2 .85 2.29 2.16 3-1.64 6.41-3.14 10-3.14a9.09 9.09 0 0 1 6.94 2.55c2.95 3 3.67 7.79 3.67 13.81 0 5.5-.46 8-1.83 10.54" class="cls-2"/><path id="path12" d="M173.27 76.54c-1.11-.07-2.16-.13-3.21-.13-6.22 0-8 .72-8 4.32 0 2.55.72 4.39 2.42 4.39 3 0 5.76-1.11 8.77-3.27v-5.3zm5.56 14h-3.67c-1.18 0-1.9-.71-1.9-2.54-3.27 2-6.15 3.21-9.69 3.21-6.29 0-9.36-3.34-9.36-9.75 0-7.59 4.91-9.62 10.67-10.28a62.65 62.65 0 0 1 8.31-.53 15.84 15.84 0 0 0-.46-4.71 2.76 2.76 0 0 0-2.81-1.57 48.88 48.88 0 0 0-9.43 1.37 7.3 7.3 0 0 1-1.18.2 1.84 1.84 0 0 1-2.29-2.1V62c0-1.31.33-2.36 1.83-2.75A54.67 54.67 0 0 1 169.6 58c2.62 0 7.13.39 9.36 3 1.9 2.16 2.49 4.13 2.49 10.6v16.11c0 1.83-.59 2.81-2.62 2.81" class="cls-2"/><path id="path14" d="M205.14 65.08c-1.64-.07-3-.13-5.17-.13-3.34 0-4.12.66-4.78 2a22.74 22.74 0 0 0-1.25 8.18 38.78 38.78 0 0 0 .39 5.17c.46 3.67 1.31 4.32 4.06 4.32a24.92 24.92 0 0 0 6.74-1.11V65.08zm7 34.56c-2.23 3.34-6.55 4.91-12 4.91a57.83 57.83 0 0 1-12.24-1.24c-1.44-.39-2-1.57-2-3a7.82 7.82 0 0 1 .46-3 1.69 1.69 0 0 1 1.7-1.25 10.15 10.15 0 0 1 1.64.33 47.48 47.48 0 0 0 10.86 1.31c3 0 4.06-1 4.39-3a30.14 30.14 0 0 0 .2-4.32 40.76 40.76 0 0 1-7.59.85c-8.71 0-12.11-4.85-12.11-15.71 0-6 1.11-10.54 3.53-13.35 2.88-3.34 5.89-4.12 13-4.12 2.94 0 5.3 0 9 .26 2.1.13 2.62 1 2.62 2.95v32.1c0 3.21-.19 4.52-1.37 6.28" class="cls-2"/><path id="path16" d="M236.36 70.32c0-4.06-.59-5.76-5-5.76-4.71 0-5.69 1.64-5.69 6.41v.59h10.73v-1.24zm5.24 7h-16c-.07 3.27.13 5.83 2.16 6.74a10.49 10.49 0 0 0 3.93.72 37.49 37.49 0 0 0 8-1 12.82 12.82 0 0 1 2.29-.46c1 0 1.57 1.18 1.77 2a11.5 11.5 0 0 1 .13 2.16c0 1.51-.33 2.55-2.36 2.88a59.12 59.12 0 0 1-9.88.85c-4.91 0-8.44-1-10.6-3.08-2.75-2.55-3.67-6.81-3.67-13.29 0-5.76.59-9.62 2.62-12.5S225.56 58 231.32 58c5.43 0 8.7 1.37 10.6 4.06 2 2.95 2.42 7.07 2.42 11.26 0 3.6-.46 4-2.75 4" class="cls-2"/><path id="path18" d="M260.24 91.13a76.81 76.81 0 0 1-9.36-.46c-1.37-.2-1.83-.26-1.83-3a7.65 7.65 0 0 1 .39-3.41 1.4 1.4 0 0 1 1.51-.79 81.07 81.07 0 0 0 10.21.72c2.69 0 3.27-.33 3.27-2.42a3.48 3.48 0 0 0-.39-2.16c-1-1-6.81-2-11.06-4.12-3.34-1.64-4.65-3.53-4.65-7.4 0-3.47.79-5.83 2.29-7.33 2.35-2.36 6.22-2.62 12.57-2.62 1.64 0 3.21 0 4.84.13 2.36.13 3.27.65 3.27 3.21a8.75 8.75 0 0 1-.3 2.82 2.07 2.07 0 0 1-2.16 1.25c-1.44 0-4.13-.53-8.64-.53-3.27 0-3.8.13-3.8 2.55a1.85 1.85 0 0 0 .33 1.31c.72.92 6.22 2.36 8.25 3 5.1 1.7 7.52 3.4 7.52 9.16 0 8-2.94 10.08-12.3 10.08" class="cls-2"/><path id="path20" d="M85 90.5h-3.52c-1.71 0-2.37-1-2.37-3V70.7c0-2.83 0-4.6-.46-5.19-.33-.4-.92-.53-2.1-.53a14.05 14.05 0 0 0-8 3v19.56c0 1.84-.53 3-2.57 3h-3.51c-1.84 0-2.37-1.05-2.37-2.63V48.08c0-2.24 1-2.83 2.9-2.83h3c2 0 2.57 1.58 2.57 2.83v12.16A20.68 20.68 0 0 1 77.4 58c8.09 0 10.13 5.06 10.13 9.34v20.2c0 1.84-.53 3-2.57 3" class="cls-3"/><path id="path22" d="M100.42 90.5h-2.5c-2.37 0-3.49-.33-3.49-3V61.89c0-2.24 1-2.9 2.9-2.9h3.09a2.6 2.6 0 0 1 2.63 2.9v25.65c0 1.84-.59 3-2.63 3m0-36.17h-2.5c-2.37 0-3.49-.33-3.49-3v-2.3c0-2.24 1-2.89 2.9-2.89h3.09a2.6 2.6 0 0 1 2.63 2.89v2.3c0 1.84-.59 3-2.63 3" class="cls-3"/></svg>