<svg xmlns="http://www.w3.org/2000/svg" viewBox="0 0 2050.6667 382.12" height="200" width="500"><defs><clipPath id="a"><path d="M4864 839.355l-98.8-270.898-290.65-9.566c-39.16-1.257-50.38-35.48-19.37-59.492l229.37-177.03-80.7-276.88c-10.8-37.265 18.52-58.566 50.9-36.558l240.81 161.492L5136.35 8.93c32.35-22.008 61.78-.707 50.97 36.558l-80.7 276.88 229.29 177.03c31.1 24.012 19.79 58.235-19.29 59.493l-290.65 9.567-98.85 270.898c-6.74 18.41-19.13 27.58-31.56 27.58-12.38 0-24.88-9.17-31.56-27.58"/></clipPath><linearGradient id="b" gradientTransform="rotate(-90 2881.573 -2014.673) scale(866.89908)" gradientUnits="userSpaceOnUse" x2="1"><stop offset="0" stop-color="#f4d530"/><stop offset="1" stop-color="#ccaa1e"/></linearGradient><clipPath id="c"><path d="M3787.91 839.355l-99.08-270.898-290.43-9.488c-39.14-1.337-50.44-35.56-19.58-59.454l229.53-177.15-80.67-276.878c-10.91-37.265 18.52-58.566 50.87-36.558l240.93 161.492L4060.08 8.93c32.53-22.008 61.85-.707 51.04 36.558l-80.71 276.88 229.4 177.148c31 23.894 19.88 58.117-19.48 59.453l-290.55 9.487-98.89 270.898c-6.67 18.41-19.19 27.58-31.57 27.58-12.42 0-24.81-9.17-31.41-27.58"/></clipPath><linearGradient id="d" gradientTransform="rotate(-90 2343.301 -1477.373) scale(853.97272)" gradientUnits="userSpaceOnUse" x2="1"><stop offset="0" stop-color="#f4d530"/><stop offset="1" stop-color="#ccaa1e"/></linearGradient><clipPath id="e"><path d="M2664.98 839.355l-98.93-270.898-290.6-9.488c-39.2-1.337-50.35-35.56-19.55-59.454l229.5-177.15-80.65-276.878c-10.84-37.265 18.52-58.566 50.86-36.558l240.85 161.492L2937.22 8.93c32.37-22.008 61.76-.707 50.88 36.558l-80.63 276.88 229.42 177.148c30.97 23.894 19.78 58.117-19.43 59.453l-290.51 9.487-99 270.898c-6.68 18.41-19.17 27.58-31.56 27.58-12.43 0-24.82-9.17-31.41-27.58"/></clipPath><linearGradient id="f" gradientTransform="rotate(-90 1781.387 -913.75) scale(853.97272)" gradientUnits="userSpaceOnUse" x2="1"><stop offset="0" stop-color="#f4d530"/><stop offset="1" stop-color="#ccaa1e"/></linearGradient><clipPath id="g"><path d="M1564.45 839.355l-98.83-270.898-290.64-9.488c-39.17-1.337-50.46-35.56-19.44-59.454l229.45-177.15-80.7-276.878c-10.8-37.265 18.55-58.566 50.95-36.558l240.68 161.492L1836.78 8.93c32.42-22.008 61.85-.707 50.98 36.558l-80.64 276.88 229.22 177.148c31.02 23.894 19.88 58.117-19.29 59.453l-290.73 9.487-98.73 270.898c-6.79 18.41-19.16 27.58-31.55 27.58-12.42 0-24.93-9.17-31.59-27.58"/></clipPath><linearGradient id="h" gradientTransform="rotate(-90 1231.429 -364.646) scale(853.97272)" gradientUnits="userSpaceOnUse" x2="1"><stop offset="0" stop-color="#f4d530"/><stop offset="1" stop-color="#ccaa1e"/></linearGradient><clipPath id="i"><path d="M426.742 839.355l-98.855-270.898L37.18 558.89c-39.098-1.257-50.305-35.48-19.37-59.492l229.358-177.03-80.656-276.88c-10.848-37.265 18.5-58.566 50.926-36.625l240.87 161.56L698.892 8.862c32.536-21.94 61.92-.64 50.97 36.625l-80.548 276.88 229.403 177.03c30.98 24.012 19.683 58.235-19.492 59.493l-290.633 9.567-98.887 270.898c-6.676 18.41-19.094 27.58-31.48 27.58-12.426 0-24.875-9.17-31.48-27.58"/></clipPath><linearGradient id="j" gradientTransform="rotate(-90 662.333 204.595) scale(866.9277)" gradientUnits="userSpaceOnUse" x2="1"><stop offset="0" stop-color="#f4d530"/><stop offset="1" stop-color="#ccaa1e"/></linearGradient><clipPath id="k"><path d="M0 2733.58V0h14670v2733.58z"/></clipPath></defs><g clip-path="url(#a)" transform="matrix(.1398 0 0 -.1398 0 382.12)"><path d="M4864 839.355l-98.8-270.898-290.65-9.566c-39.16-1.257-50.38-35.48-19.37-59.492l229.37-177.03-80.7-276.88c-10.8-37.265 18.52-58.566 50.9-36.558l240.81 161.492L5136.35 8.93c32.35-22.008 61.78-.707 50.97 36.558l-80.7 276.88 229.29 177.03c31.1 24.012 19.79 58.235-19.29 59.493l-290.65 9.567-98.85 270.898c-6.74 18.41-19.13 27.58-31.56 27.58-12.38 0-24.88-9.17-31.56-27.58" fill="url(#b)"/></g><g clip-path="url(#c)" transform="matrix(.1398 0 0 -.1398 0 382.12)"><path d="M3787.91 839.355l-99.08-270.898-290.43-9.488c-39.14-1.337-50.44-35.56-19.58-59.454l229.53-177.15-80.67-276.878c-10.91-37.265 18.52-58.566 50.87-36.558l240.93 161.492L4060.08 8.93c32.53-22.008 61.85-.707 51.04 36.558l-80.71 276.88 229.4 177.148c31 23.894 19.88 58.117-19.48 59.453l-290.55 9.487-98.89 270.898c-6.67 18.41-19.19 27.58-31.57 27.58-12.42 0-24.81-9.17-31.41-27.58" fill="url(#d)"/></g><g clip-path="url(#e)" transform="matrix(.1398 0 0 -.1398 0 382.12)"><path d="M2664.98 839.355l-98.93-270.898-290.6-9.488c-39.2-1.337-50.35-35.56-19.55-59.454l229.5-177.15-80.65-276.878c-10.84-37.265 18.52-58.566 50.86-36.558l240.85 161.492L2937.22 8.93c32.37-22.008 61.76-.707 50.88 36.558l-80.63 276.88 229.42 177.148c30.97 23.894 19.78 58.117-19.43 59.453l-290.51 9.487-99 270.898c-6.68 18.41-19.17 27.58-31.56 27.58-12.43 0-24.82-9.17-31.41-27.58" fill="url(#f)"/></g><g clip-path="url(#g)" transform="matrix(.1398 0 0 -.1398 0 382.12)"><path d="M1564.45 839.355l-98.83-270.898-290.64-9.488c-39.17-1.337-50.46-35.56-19.44-59.454l229.45-177.15-80.7-276.878c-10.8-37.265 18.55-58.566 50.95-36.558l240.68 161.492L1836.78 8.93c32.42-22.008 61.85-.707 50.98 36.558l-80.64 276.88 229.22 177.148c31.02 23.894 19.88 58.117-19.29 59.453l-290.73 9.487-98.73 270.898c-6.79 18.41-19.16 27.58-31.55 27.58-12.42 0-24.93-9.17-31.59-27.58" fill="url(#h)"/></g><g clip-path="url(#i)" transform="matrix(.1398 0 0 -.1398 0 382.12)"><path d="M426.742 839.355l-98.855-270.898L37.18 558.89c-39.098-1.257-50.305-35.48-19.37-59.492l229.358-177.03-80.656-276.88c-10.848-37.265 18.5-58.566 50.926-36.625l240.87 161.56L698.892 8.862c32.536-21.94 61.92-.64 50.97 36.625l-80.548 276.88 229.403 177.03c30.98 24.012 19.683 58.235-19.492 59.493l-290.633 9.567-98.887 270.898c-6.676 18.41-19.094 27.58-31.48 27.58-12.426 0-24.875-9.17-31.48-27.58" fill="url(#j)"/></g><g clip-path="url(#k)" fill="#405eb4" transform="matrix(.1398 0 0 -.1398 0 382.12)"><path d="M6352 69.727c13.36-19.965 35.93-32.07 59.95-32.07l8185.05-.41c19.3 0 37.6 7.605 51.1 21.206 13.5 13.516 21.2 31.922 21.2 51.027v546.254c0 39.9-32.4 72.29-72.3 72.29H6626.38c-29.16 0-55.41-17.645-66.7-44.497l-214.27-545.925c-9.32-22.313-6.75-47.79 6.59-67.875M5912.29 1193.75l-360.05 990.72c-1.31 2.93-2.13 6.19-2.13 9.62 0 12.57 10.1 22.67 22.51 22.67l153.5-.08 3.34.15c19.41 0 36.11-12.65 42.09-30.12l284.81-876.88h4.12l290.12 874.4 1.36 4.11c6.61 16.23 21.71 27.42 39.29 28.34l142.18.08c12.47 0 22.63-10.1 22.63-22.67 0-2.18-.31-4.43-.94-6.53L6182.47 1154.7l-241.65-700.454a20.41 20.41 0 0 0-4.38-8.69c-7.84-9.68-22.08-11.302-31.8-3.368l-119.19 96.53c-17.9 14.278-22.84 34.622-16.61 51.86l184.78 480.332c2.85 8.85-28.36 86.35-41.33 122.84m-651.08 351.5v96.76c-42.93 0-85.96 4.26-129.06 4.26-109.48 0-380.31-17.16-380.31-210.65 0-116.01 111.7-178.28 204.1-178.28 199.98 0 305.27 124.55 305.27 287.91m206.02-381.17c0-24.52-19.82-44.41-44.24-44.41h-92.7c-27.77-.08-47.54 19.8-47.54 44.33l-.1 97.62h-4.36c-47.24-66.62-154.67-167.65-339.51-167.65-236.4 0-401.95 103.1-401.95 341.65 0 275.12 301.05 361.06 509.45 361.06 79.5 0 135.31 0 214.93-4.26 0 189.06-68.96 285.74-270.76 285.74-87.77 0-180.49-25.4-255.84-68.49-6.6-3.96-14.41-6.29-22.83-6.29-23.38 0-42.63 18.24-44.3 41.23l-5.02 79.83c-.07 9.78 4.56 17.15 11.38 21.11 98.35 56.38 214.57 96.06 348.83 96.06 313.66 0 440.54-154.74 440.54-453.46v-453.38c0-80 1.79-132.54 4.15-168.43l-.13-2.26m-1903.55 509.93c-4.32-171.92 85.91-414.66 302.96-414.66 227.84 0 322.29 225.58 322.29 408.21 0 204.21-105.16 412.7-324.34 412.7-219.28 0-305.23-206.32-300.91-406.25m633.91-507.81v110.33h-4.18c-53.87-81.7-178.45-180.62-374.04-180.62-330.93 0-470.63 294.53-470.63 593.15 0 294.45 154.72 554.49 472.91 554.49 191.26 0 300.81-75.25 363.16-176.18h4.12v621.81c0 24.37 19.65 44.02 43.72 44.4h114.02c24.42 0 44.08-19.72 44.38-44.09V1166.2c-.3-24.56-19.5-43.9-43.1-44.49h-103.69c-26.8 0-46.67 19.86-46.67 44.49m-2669.46 502.44c0 208.4 126.8 410.37 343.77 410.37 214.95 0 341.71-201.97 341.71-410.37 0-195.59-105.21-410.43-341.71-410.43-238.4 0-343.77 214.84-343.77 410.43m-214.93 0c0-313.78 227.83-573.74 558.7-573.74 328.9 0 556.6 259.96 556.6 573.74 0 333.11-223.38 573.75-556.6 573.75-335.26 0-558.7-240.64-558.7-573.75m0 0c0-313.78 227.83-573.74 558.7-573.74 328.9 0 556.6 259.96 556.6 573.74 0 333.11-223.38 573.75-556.6 573.75-335.26 0-558.7-240.64-558.7-573.75m214.93 0c0 208.4 126.8 410.37 343.77 410.37 214.95 0 341.71-201.97 341.71-410.37 0-195.59-105.21-410.43-341.71-410.43-238.4 0-343.77 214.84-343.77 410.43m-360.94-503.69c0-24.39-19.73-44.19-44.22-44.41H995.5c-23.902.76-43.238 20.41-43.238 44.5v638.87h-717.74l.154-638.96c-1.055-24.87-19.574-43.34-42.633-44.41H66.113c-26.797 0-46.597 19.87-46.597 44.41l.152 4.26v1405.51c0 26.16 19.805 45.98 44.37 45.98l126.095-.1c24.898-.46 44.117-19.87 44.39-44.09v-583.46h717.74v585.54c1.272 23.46 20.725 42.11 44.534 42.11l123.443-.1c27.15.15 46.95-19.87 46.95-44.4V1164.95m1454.15-43.24l-3.26-.17c-24.47 0-44.35 19.87-44.35 44.41v1523.46c.25 24.38 20.04 44.17 44.43 44.17l3.02-.08h110.21c25.28-.77 44.47-20.27 44.47-44.49v-1567.3h-154.52m428.27.75l-2.92-.08c-24.42 0-44.38 19.73-44.54 44.02v1007.27c0 24.92 19.89 44.88 44.47 44.88h112.89c24.89-.09 44.7-20.05 44.7-44.57l.06-1051.52h-154.66m167.52 1568.73v-183.88c-.31-24.37-20.18-44.02-44.61-44.02l-3.33.09h-179.84v183.55c.32 24.85 20.03 44.33 44.3 44.33l2.99-.07h180.49M7776.42 1179.3c0-20.03-11.51-36.08-27.95-42.7-108.4-37.11-231.38-42.48-311.85-42.48-474.8 0-790.83 305.22-790.83 782.31 0 462 335.28 769.32 793.09 769.32 104.13 0 206.78-13.89 304.48-51.08l3.62-1.31c15.79-7 26.81-22.53 26.81-40.69l-11.83-144.04c-1.38-12.97-10.84-21.75-22.51-21.75-3.17 0-6.2.62-9 1.87-87.75 45.35-182.55 67.86-280.92 67.86-345.93 0-575.89-249.25-575.89-586.7 0-352.52 253.65-586.56 565.24-586.56 94.65 0 217.66 21.67 297.07 57.62 2.71 1.25 5.83 1.93 9.25 1.93 12.44 0 22.51-10.08 22.51-22.6l8.71-141m1116.42-13.57c-.3-24.32-20.19-44.12-44.49-44.12l-113.29.16c-24.52 0-44.43 19.96-44.43 44.32l.17 3.97v519c0 255.69-55.92 380.32-232.01 391.05-230 0-333.17-184.89-333.17-451.31l-.09-462.76c0-24.16-19.34-43.81-43.49-44.43h-114.21c-24.46 0-44.26 19.96-44.26 44.48v1520.2c0 27.19 20.1 47.14 44.57 47.14h113.44c24.46-.23 44.09-20.04 44.09-44.34l-.05-628.32h4.24c73.17 116 199.9 182.69 352.39 182.69 283.72 0 410.59-176.18 410.59-470.69v-607.04m2054.76 4.33c0-22.83-14.4-40.13-33.4-45.11-74.5-25.92-155-30.75-217.8-30.75-330.9 0-558.7 259.98-558.7 573.83 0 333.09 223.6 573.73 558.7 573.73 66.2 0 147.8-12.51 207.1-30.05 19.7-4.5 34.4-22.05 34.4-43.18l-.3-3.96-10.1-101.85c-.2-12.28-10.3-22.13-22.7-22.13-2.5 0-5 .37-7.2 1.16-69 25.07-135.6 36.72-192.6 36.72-225.6 0-352.3-201.96-352.3-410.44 0-195.6 105.3-410.46 365.3-410.46 58.3 0 128.7 15.38 186.8 44.97 4 1.78 7.2 2.54 10.7 2.54 11.7 0 21.4-8.83 22.4-20.17l9.7-114.85m859.1-48.29c-16.3-.16-28.3 5.75-36.4 15.14l-476.9 547.73-.2-518.6c0-24.63-19.8-44.5-44.2-44.5l-3.8.23H11139l-3.2-.23c-24.6 0-44.4 19.87-44.4 44.5l.1 1523.05c.5 25.15 20.2 44.49 44.4 44.49l111.6-.08c26.2.08 45.9-19.87 45.9-44.41v-916.16l424.1 428.21c8.2 10.02 20.7 16.47 34.6 16.47l200.8.16c12.5 0 22.5-10.18 22.5-22.67 0-5.67-2-10.8-5.5-14.75l-470-448.35 536.7-570.93c4.5-4.22 7.5-10.09 7.5-16.85 0-12.59-10.1-22.68-22.5-22.68l-214.9.23"/><path d="M1528.13 1668.64c0-195.59 105.25-410.43 343.71-410.43 236.56 0 341.77 214.84 341.77 410.43 0 208.4-126.76 410.37-341.77 410.37-216.91 0-343.71-201.97-343.71-410.37m-214.93 0c0 333.11 223.44 573.75 558.64 573.75 333.11 0 556.78-240.64 556.78-573.75 0-313.78-227.82-573.74-556.78-573.74-330.81 0-558.64 259.96-558.64 573.74m7943.35 105.29h567.3c0 167.64-98.82 305.18-272.9 305.18-197.81 0-279.26-163.32-294.4-305.18m698.54-577.31c-.76-19.63-12.11-35.03-28.04-41.25-72.59-27.55-159.77-60.61-318.01-60.61-388.99 0-567.43 236.51-567.43 593.22 0 324.49 204.14 554.48 513.73 554.48 357.21 0 478.06-254.92 483.16-595.86 0-13.13-10-23.15-22.5-23.15l-759.45.07c0-217.09 169.74-365.31 361.07-365.31 110.36 0 235.6 47.13 303.33 86.64 3.34 1.87 7.15 3.03 11.44 3.03 12.59 0 22.7-9.92 22.7-22.44v-128.82m2374.51 54.5v-113.66c-.2-14.91-12.6-27.12-27.7-27.12l-2 .09h-111v113.3c.1 15.43 12.4 27.49 27.3 27.49l1.8-.1h111.6m567.5-110.33c0-14.05-8.8-24.69-20.5-27.71-45.6-15.94-95.1-18.88-133.6-18.88-203 0-342.8 159.56-342.8 352.19 0 204.39 137.2 352.08 342.8 352.08 40.6 0 90.7-7.65 127.1-18.43 12.1-2.77 21.1-13.52 21.1-26.49l-.2-2.43-6.1-62.51c-.2-7.56-6.3-13.59-13.9-13.59-1.6 0-3.1.22-4.5.7-42.4 15.4-83.3 22.54-118.2 22.54-138.5 0-216.2-123.96-216.2-251.87 0-120.04 64.5-251.92 224.1-251.92 35.9 0 79.1 9.44 114.8 27.62 2.4 1.09 4.4 1.54 6.6 1.54 7 0 12.9-5.42 13.6-12.41l5.9-70.43m177.5 305.94c0-120.02 64.6-251.9 210.9-251.9 145.2 0 209.8 131.88 209.8 251.9 0 127.92-77.9 251.88-209.8 251.88-133.1 0-210.9-123.96-210.9-251.88m-131.9 0c0 204.45 137.2 352.12 342.8 352.12 204.4 0 341.7-147.67 341.7-352.12 0-192.58-139.8-352.05-341.7-352.05-203.1 0-342.8 159.47-342.8 352.05m1727.3 97.52c0 147.53-62.5 259.22-235.2 259.22-61.3 0-163.5-34.59-210-131.59-36 91.73-114.3 131.59-192.8 131.59-99.7 0-167.4-35.95-215.3-114.33h-2.7v65.24h-.3v6.12c0 14.99-12 27.22-27.1 27.37h-61.7c-15 0-27.5-12.3-27.5-29.08v-4.41h-.4l.4-617.47c0-15.14 12.3-27.48 27.4-27.48h70.5c14.9.39 26.8 12.59 26.8 27.4l-.1 314.4c0 126.25 50.5 251.18 178 251.18 101.2 0 121.1-105 121.1-188.76v-376.74c0-15.14 12.9-27.48 28.1-27.48h70.6c14.8.39 26.8 12.59 26.8 27.4 0 0-.1 316.91-.2 327.48 3.3 121.64 54.6 238.1 177.7 238.1 101 0 121-105 121-188.76l.1-376.74c0-15.14 12.2-27.48 27.4-27.48h70.5c15 .39 26.9 12.59 26.9 27.4v407.42"/></g></svg>