<svg xmlns="http://www.w3.org/2000/svg" viewBox="0 0 467 200"><path fill="#0A0A08" d="M466.045 80.515c0-23.4-15.098-45.485-47.188-45.485-24.287 0-40.797 13.243-49.56 29.205-5.768-4.075-13.353-6.563-22.859-6.563-29.624 0-44.512 25.206-44.512 44.376 0 12.969 6.776 36.41 36.71 36.41 14.702 0 26.104-6.329 33.725-15.41 7.087 8.752 18.493 15.41 36.503 15.41 36.415 0 57.18-30.198 57.18-57.943m-106.043 12.39c0 10.023-5.007 27.56-20.045 27.56-11.197 0-15.038-8.99-15.038-17.537 0-11.347 6.34-26.829 19.602-27.423 6.344-.295 10.766 3.098 12.984 6.497 1.47 2.349 2.497 5.742 2.497 10.904m76.225-12.766c0 12.832-6.425 35.288-25.675 35.288-14.335 0-19.244-11.505-19.244-22.456 0-14.536 8.116-34.349 25.102-35.1 8.11-.384 13.773 3.954 16.603 8.302 1.894 3.025 3.214 7.36 3.214 13.966m-79.775-58.134c.736-3.293-2.807-4.009-3.997-4.114-33.247.08-48.576 26.803-48.576 26.803l1.593-7.49c.8-3.737-1.668-6.793-5.492-6.793h-15.25c-3.82 0-7.644 3.052-8.487 6.779l-21.168 93.735c-.85 3.728 1.582 6.777 5.406 6.777h15.44c3.82 0 7.637-3.049 8.487-6.772l.197-.857c.762-4.252 7.027-31.442 7.714-34.513 5.51-24.991 22.068-46.778 50.405-48.866l.083-.012c6.964-1.113 9.032-4.867 9.811-7.342l3.778-16.995c.017-.11.024-.219.056-.34m-97.724 58.51c0-23.401-15.093-45.486-47.182-45.486-24.291 0-40.802 13.243-49.567 29.205-5.767-4.075-13.354-6.563-22.858-6.563-18.456 0-31.19 9.788-38.167 21.799l1.27-5.403c.758-3.622 1.521-7.434 1.521-11.24 0-16.947-13.139-25.336-27.237-25.336-14.853 0-23.538 8.927-23.538 8.927-2.664 2.738-4.157 1.932-3.31-1.797l8.533-37.827C59.04 3.061 56.601.008 52.778.008H37.154c-3.82 0-7.644 3.048-8.492 6.774L.337 131.099c-.853 3.73 1.585 6.775 5.402 6.775h15.628c3.826 0 7.648-3.045 8.5-6.775l11.025-48.274c1.9-6.286 3.235-11.424 6.473-15.429 3.236-4.187 8.183-7.42 13.522-7.42 3.427 0 11.425 1.331 11.425 11.994 0 3.046-.905 6.95-.905 6.95-.855 3.72-2.257 9.81-3.1 13.543l-9.955 43.277c-.848 3.725 1.585 6.773 5.412 6.773H79.2c3.824 0 7.655-3.048 8.527-6.773l7.07-30.078c1.188 13.272 9.189 32.795 36.52 32.795 14.703 0 26.103-6.326 33.724-15.406 7.092 8.749 18.495 15.406 36.503 15.406 36.424 0 57.183-30.197 57.183-57.942m-106.04 12.39c0 10.023-5.011 27.56-20.047 27.56-11.2 0-15.038-8.99-15.038-17.537 0-11.347 6.34-26.834 19.612-27.419 6.334-.3 10.765 3.098 12.966 6.489 1.478 2.359 2.507 5.745 2.507 10.908m76.219-12.766c0 12.832-6.416 35.288-25.668 35.288-14.341 0-19.25-11.505-19.25-22.456 0-14.536 8.114-34.349 25.102-35.1 8.113-.384 13.781 3.96 16.608 8.302 1.888 3.025 3.208 7.36 3.208 13.966m75.29 99.879c26.96 16.791 59.665 22.436 90.787 19.05 24.387-2.644 54.785-12.114 66.411-35 3.558-7.01-.946-28.664-5.595-24.435-39.402 35.787-98.878 50.06-148.584 28.8-3.663-1.569-7.646 8.711-3.02 11.585"/></svg>