<svg xmlns="http://www.w3.org/2000/svg" width="500" height="200" viewBox="0 0 152 33">
  <path fill="#212121" d="M42.7 13.88h-7.01V6.61h-4.24v18.86h4.24V17.6h7.01v7.87h4.25V6.61H42.7v7.27zm13.1-2.4c-4.41 0-7.31 2.83-7.31 7.25a6.69 6.69 0 0 0 7.06 7 6.84 6.84 0 0 0 7.18-7.27 6.65 6.65 0 0 0-6.93-6.98zm-.17 11.24c-1.79 0-2.76-1.76-2.76-4.08 0-2 .78-4.11 2.79-4.11s2.71 2.07 2.71 4.08c-.03 2.46-1.06 4.11-2.74 4.11zm15.86-11.24c-4.41 0-7.32 2.83-7.32 7.25a6.69 6.69 0 0 0 7.06 7 6.84 6.84 0 0 0 7.18-7.27 6.65 6.65 0 0 0-6.92-6.98zm-.16 11.24c-1.79 0-2.76-1.76-2.76-4.08 0-2 .78-4.11 2.79-4.11S74 16.6 74 18.61c0 2.46-1 4.11-2.67 4.11zM84.16 9.14v-1.5A4.14 4.14 0 0 0 80 11.78v8.76c0 1.93.39 3.25 1.17 4.05a4.52 4.52 0 0 0 3.21 1.18 8.92 8.92 0 0 0 2.74-.36v-3.22a5.14 5.14 0 0 1-1.26.11c-1.26 0-1.68-.76-1.68-2.41v-5h3v-3.11h-3V9.14zm43.47 0v-1.5a4.14 4.14 0 0 0-4.14 4.15v8.76c0 1.93.39 3.25 1.17 4.05a4.52 4.52 0 0 0 3.21 1.18 8.93 8.93 0 0 0 2.74-.36V22.2a5.15 5.15 0 0 1-1.26.11c-1.26 0-1.67-.76-1.67-2.41v-5h3v-3.12h-3V9.14zM95.3 17.13c-1.68-.59-2.2-.93-2.2-1.6s.59-1.09 1.62-1.09a7.25 7.25 0 0 1 3 .76l.72-2.91a9 9 0 0 0-3.82-.81C91.19 11.48 89 13.41 89 16c0 1.59 1.06 3.16 3.91 4.08 1.56.53 2 .87 2 1.6s-.53 1.12-1.81 1.12a8.28 8.28 0 0 1-3.66-1l-.75 3a9.63 9.63 0 0 0 4.41 1c3.9-.03 5.9-1.9 5.9-4.48 0-1.98-1.11-3.32-3.7-4.19zm18.15-5.35h-4.24v8.14a2.36 2.36 0 0 1-2.29 2.4c-1.51 0-2.15-1.2-2.15-3.19v-7.35h-4.24v8c0 4.23 2 6 4.8 6a4.87 4.87 0 0 0 4.27-2.24h.08l.2 1.93h3.69c-.05-1.15-.11-2.6-.11-4.39v-9.3zm2.91.01h4.25v13.68h-4.25zm2.15-6.33a2.27 2.27 0 1 0-.05 4.53 2.27 2.27 0 1 0 .05-4.53zm20.36 5.99c-4.72 0-6.9 3.83-6.9 7.3 0 4.31 2.65 7 7.29 7a12.9 12.9 0 0 0 4.94-.87l-.56-2.88a11.23 11.23 0 0 1-3.77.59c-2 0-3.71-.84-3.85-2.63h8.8a11 11 0 0 0 .14-1.71c.04-3.36-1.68-6.8-6.09-6.8zM136 17a2.81 2.81 0 0 1 2.65-2.77A2.48 2.48 0 0 1 141 17h-5zm15.76-5.24h-.62l-.62 1.71c-.08.23-.15.51-.22.8-.08-.29-.14-.56-.22-.79l-.62-1.71h-.63l-.25 3.16h.42l.15-1.93v-.86c.07.29.15.6.23.86l.64 1.87h.36l.66-1.82c.09-.28.19-.61.27-.91V13l.13 1.91h.56zm-5.7.41h.96v2.75h.48v-2.75h.97v-.41h-2.41v.41zM11 0a10.91 10.91 0 0 0-5.53 1.48A10.86 10.86 0 0 0 0 0v11a22 22 0 0 0 21.93 22V0a10.85 10.85 0 0 0-5.47 1.45A10.91 10.91 0 0 0 11 0z"/>
  <path fill="#fff" d="M15.69 4A4.71 4.71 0 0 0 11 8.28a4.7 4.7 0 1 0-4.7 5.12 4.66 4.66 0 0 0 2.51-.72l2.19 2.2 2.2-2.19A4.71 4.71 0 1 0 15.69 4zm-9.43 7.83a3.14 3.14 0 1 1 .95-6.14 1.57 1.57 0 1 0 2.06 2.08 3.15 3.15 0 0 1-3.01 4.06zm9.41 0a3.14 3.14 0 0 1-3-4.08 1.57 1.57 0 1 0 2.07-2.07 3.14 3.14 0 1 1 .93 6.18z"/>
</svg>