<svg xmlns="http://www.w3.org/2000/svg" viewBox="0 0 500 200"><path class="st0" d="M150.7 138V60.3h16.1v29.6H197V60.3h16.1V138H197v-34.7h-30.2V138h-16.1zm68.6-77.7h16.5V108c0 5.3.6 9.2 1.9 11.7 2 4.4 6.2 6.5 12.8 6.5 6.5 0 10.8-2.2 12.8-6.5 1.3-2.5 1.9-6.4 1.9-11.7V60.3h16.5V108c0 8.3-1.3 14.7-3.8 19.3-4.8 8.4-13.9 12.7-27.3 12.7s-22.6-4.2-27.4-12.7c-2.6-4.6-3.8-11-3.8-19.3V60.3z"/><path class="st0" d="M300.2 138h-18.9l25-39.6-23.8-38.1h19.4l13.9 25.3L330 60.3h18.8L325 97.8l25.3 40.2h-19.7l-14.8-26.5-15.6 26.5z"/></svg>
