<?xml version="1.0" encoding="UTF-8" standalone="no"?><!DOCTYPE svg PUBLIC "-//W3C//DTD SVG 1.1//EN" "http://www.w3.org/Graphics/SVG/1.1/DTD/svg11.dtd"><svg width="100%" height="100%" viewBox="0 0 500 200" version="1.1" xmlns="http://www.w3.org/2000/svg" xmlns:xlink="http://www.w3.org/1999/xlink" xml:space="preserve" xmlns:serif="http://www.serif.com/" style="fill-rule:evenodd;clip-rule:evenodd;stroke-linejoin:round;stroke-miterlimit:1.41421;"><g><path d="M500,69.824c0,-16.774 -13.618,-30.392 -30.392,-30.392l-439.216,0c-16.774,0 -30.392,13.618 -30.392,30.392l0,60.784c0,16.774 13.618,30.392 30.392,30.392l439.216,0c16.774,0 30.392,-13.618 30.392,-30.392l0,-60.784Z" style="fill:#1772f2;"/><g id="iLoveCoding"><path d="M159.714,72.1c0.94,-0.987 2.084,-1.48 3.432,-1.48c1.349,0 2.503,0.483 3.464,1.449c0.96,0.966 1.44,2.128 1.44,3.485c0,1.357 -0.48,2.508 -1.44,3.454c-0.961,0.945 -2.115,1.418 -3.464,1.418c-1.348,0 -2.492,-0.473 -3.432,-1.418c-0.94,-0.946 -1.41,-2.097 -1.41,-3.454c0,-1.357 0.47,-2.508 1.41,-3.454Zm-2.514,18.071c0.409,-0.74 1.186,-1.305 2.33,-1.696c1.144,-0.391 2.278,-0.586 3.402,-0.586c1.124,0 2.115,0.144 2.973,0.432c-1.594,12.376 -2.391,18.626 -2.391,18.75c-0.204,0.822 -0.306,1.511 -0.306,2.066c0,0.555 0.041,1.038 0.122,1.449c0.164,1.069 0.91,1.604 2.238,1.604c1.328,0 2.554,-0.874 3.678,-2.621c1.124,-1.748 1.971,-3.732 2.544,-5.952c0.286,0.164 0.735,0.658 1.348,1.48c0.613,0.822 0.981,1.439 1.104,1.85c-0.818,3.29 -2.207,5.942 -4.169,7.957c-1.961,2.014 -4.311,3.022 -7.049,3.022c-2.738,0 -4.771,-0.679 -6.099,-2.036c-1.329,-1.357 -1.993,-3.104 -1.993,-5.242c0,-0.452 0.021,-0.925 0.062,-1.419l2.206,-19.058Z" style="fill:#fff;fill-rule:nonzero;"/><path d="M190.915,112.128c0.449,0.165 0.95,0.247 1.502,0.247c0.551,0 1.083,-0.062 1.594,-0.185c0.51,-0.124 0.98,-0.422 1.409,-0.895c0.43,-0.472 0.767,-0.853 1.012,-1.141c0.245,-0.287 0.552,-0.925 0.919,-1.912c0.45,-1.151 1.002,-2.775 1.655,-4.872c1.717,1.604 2.738,2.817 3.065,3.639c-1.961,7.237 -5.414,10.855 -10.359,10.855c-2.33,0 -5.292,-1.521 -8.889,-4.564c-1.879,3.043 -4.801,4.564 -8.765,4.564c-1.758,0 -3.341,-0.596 -4.751,-1.789c-1.41,-1.192 -2.115,-2.898 -2.115,-5.119c0,-2.22 0.736,-4.04 2.207,-5.458c1.471,-1.419 3.371,-2.128 5.701,-2.128c0.449,0 1.083,0.041 1.9,0.123l0.858,-7.833c-1.798,0.576 -4.577,1.316 -8.336,2.221l0,-4.626c3.065,-0.699 6.007,-1.48 8.827,-2.344l1.226,-10.053c0.858,-6.867 4.331,-10.3 10.42,-10.3c2.412,0 4.342,0.668 5.793,2.005c1.451,1.336 2.176,3.217 2.176,5.643c0,5.839 -3.739,10.547 -11.217,14.124l-1.839,14.556l-0.062,0.616c3.024,2.714 5.047,4.256 6.069,4.626Zm2.452,-33.429c0,-1.727 -0.715,-2.59 -2.146,-2.59c-1.716,0 -2.799,2.035 -3.248,6.106l-0.613,4.872c4.004,-2.384 6.007,-5.18 6.007,-8.388Zm-21.516,31.825c0,1.234 0.695,1.851 2.084,1.851c1.349,0 2.186,-1.213 2.513,-3.639c-0.776,-0.329 -1.501,-0.494 -2.176,-0.494c-0.674,0 -1.246,0.227 -1.716,0.679c-0.47,0.452 -0.705,0.987 -0.705,1.603Z" style="fill:#fff;fill-rule:nonzero;"/><path d="M213.718,87.828c3.76,0 6.896,1.212 9.41,3.638c2.513,2.426 3.77,5.387 3.77,8.882c0,5.304 -1.543,9.549 -4.629,12.736c-3.085,3.187 -6.814,4.78 -11.187,4.78c-4.372,0 -7.836,-1.254 -10.39,-3.762c-2.554,-2.508 -3.831,-5.613 -3.831,-9.313c0,-5.181 1.573,-9.293 4.72,-12.336c3.188,-3.084 7.233,-4.625 12.137,-4.625Zm-1.226,4.995c-1.92,0 -3.535,1.11 -4.842,3.331c-1.308,2.22 -2.023,5.016 -2.146,8.388c0,2.385 0.48,4.358 1.441,5.921c0.96,1.562 2.421,2.344 4.383,2.344c1.961,0 3.606,-1.09 4.934,-3.269c1.328,-2.18 1.992,-4.667 1.992,-7.463c0,-2.796 -0.47,-5.017 -1.41,-6.661c-0.939,-1.727 -2.39,-2.591 -4.352,-2.591Z" style="fill:#fff;fill-rule:nonzero;"/><path d="M252.582,106.454c-1.267,3.33 -3.096,6.054 -5.486,8.172c-2.391,2.118 -5.119,3.176 -8.184,3.176c-3.065,0 -5.363,-1.017 -6.896,-3.053c-1.532,-2.035 -2.299,-4.368 -2.299,-7c0,-0.534 0.021,-1.069 0.062,-1.604l2.084,-17.577c1.307,-0.494 2.697,-0.74 4.168,-0.74c2.697,0 4.046,1.007 4.046,3.022c0,0.082 -0.337,2.827 -1.012,8.233c-0.674,5.407 -1.011,8.543 -1.011,9.406c0,2.344 1.124,3.516 3.371,3.516c1.921,0 3.535,-1.09 4.843,-3.269c2.289,-3.947 3.494,-8.409 3.617,-13.384l-0.552,0c-1.716,0 -3.024,-0.391 -3.923,-1.172c-1.022,-0.904 -1.533,-1.994 -1.533,-3.269c0,-1.274 0.389,-2.302 1.165,-3.083c0.94,-0.823 2.064,-1.234 3.372,-1.234c3.105,0 5.047,1.624 5.823,4.872c1.226,-0.164 2.105,-0.329 2.636,-0.493l0,3.516l-2.268,0.37l0,1.048c-0.041,3.701 -0.715,7.216 -2.023,10.547Zm-5.211,-15.543c0,0.699 0.593,1.049 1.778,1.049c0.123,0 0.245,0 0.368,0c-0.286,-1.11 -0.715,-1.665 -1.287,-1.665c-0.572,0 -0.859,0.205 -0.859,0.616Z" style="fill:#fff;fill-rule:nonzero;"/><path d="M268.765,103.678c2.534,-0.534 4.424,-1.562 5.67,-3.083c1.246,-1.522 1.87,-2.992 1.87,-4.41c0,-1.419 -0.378,-2.385 -1.134,-2.899c-0.756,-0.514 -1.584,-0.771 -2.483,-0.771c-1.921,0 -3.606,1.079 -5.057,3.238c-1.451,2.159 -2.176,4.728 -2.176,7.71c0,2.981 0.705,5.201 2.115,6.661c1.409,1.459 3.156,2.189 5.241,2.189c3.065,0 6.007,-1.069 8.827,-3.207c2.819,-2.138 5.108,-4.934 6.865,-8.388c0.899,0.863 1.717,1.932 2.452,3.207c-1.348,3.084 -3.739,6.106 -7.172,9.067c-1.716,1.439 -3.749,2.611 -6.099,3.515c-2.35,0.905 -4.771,1.357 -7.264,1.357c-4.087,0 -7.315,-1.254 -9.685,-3.762c-2.534,-2.714 -3.801,-6.188 -3.801,-10.424c0,-4.235 1.584,-7.935 4.751,-11.101c3.167,-3.166 6.957,-4.749 11.371,-4.749c3.146,0 5.701,0.688 7.662,2.066c1.962,1.377 2.963,3.238 3.004,5.581c0,3.166 -1.257,5.736 -3.77,7.71c-2.513,1.974 -5.956,3.351 -10.329,4.132l-0.858,-3.639Z" style="fill:#fff;fill-rule:nonzero;"/><path d="M304.134,117.864c-6.334,0 -10.982,-1.624 -13.945,-4.872c-2.963,-3.249 -4.444,-7.535 -4.444,-12.86c0,-5.325 0.909,-10.177 2.728,-14.556c1.818,-4.379 4.525,-7.977 8.122,-10.793c3.596,-2.817 7.488,-4.225 11.677,-4.225c4.189,0 7.479,1.018 9.869,3.053c2.391,2.035 3.586,4.77 3.586,8.203c0,3.433 -1.052,6.281 -3.157,8.542c-2.104,2.262 -4.566,3.392 -7.386,3.392c-2.82,0 -5.006,-0.627 -6.559,-1.881c-1.553,-1.254 -2.33,-2.59 -2.33,-4.009c0,-1.418 0.562,-2.528 1.686,-3.33c1.124,-0.802 2.769,-1.203 4.935,-1.203c-0.531,0.535 -0.797,1.244 -0.797,2.128c0,0.884 0.266,1.655 0.797,2.313c0.531,0.658 1.348,0.987 2.452,0.987c1.103,0 2.207,-0.586 3.31,-1.758c1.103,-1.172 1.655,-2.724 1.655,-4.657c0,-1.932 -0.582,-3.474 -1.747,-4.625c-1.165,-1.152 -2.81,-1.727 -4.935,-1.727c-2.779,0 -5.302,1.13 -7.57,3.392c-2.268,2.261 -3.995,5.14 -5.18,8.635c-1.185,3.495 -1.778,7.175 -1.778,11.04c0,3.33 0.716,6.27 2.146,8.819c0.736,1.316 1.829,2.365 3.279,3.146c1.451,0.781 3.157,1.172 5.119,1.172c3.351,0 6.579,-1.08 9.685,-3.238c3.106,-2.159 5.721,-4.945 7.846,-8.357l2.085,3.762c-2.411,3.947 -5.436,7.185 -9.073,9.714c-3.637,2.529 -7.662,3.793 -12.076,3.793Z" style="fill:#fff;fill-rule:nonzero;"/><path d="M337.236,87.828c3.76,0 6.896,1.212 9.409,3.638c2.514,2.426 3.77,5.387 3.77,8.882c0,5.304 -1.542,9.549 -4.628,12.736c-3.085,3.187 -6.814,4.78 -11.187,4.78c-4.373,0 -7.836,-1.254 -10.39,-3.762c-2.554,-2.508 -3.831,-5.613 -3.831,-9.313c0,-5.181 1.573,-9.293 4.72,-12.336c3.187,-3.084 7.233,-4.625 12.137,-4.625Zm-1.226,4.995c-1.921,0 -3.535,1.11 -4.843,3.331c-1.307,2.22 -2.022,5.016 -2.145,8.388c0,2.385 0.48,4.358 1.44,5.921c0.961,1.562 2.422,2.344 4.383,2.344c1.962,0 3.607,-1.09 4.935,-3.269c1.328,-2.18 1.992,-4.667 1.992,-7.463c0,-2.796 -0.47,-5.017 -1.41,-6.661c-0.94,-1.727 -2.39,-2.591 -4.352,-2.591Z" style="fill:#fff;fill-rule:nonzero;"/><path d="M376.467,73.025c0.287,-0.699 0.93,-1.285 1.931,-1.758c1.002,-0.473 2.207,-0.709 3.617,-0.709c1.41,0 2.462,0.206 3.157,0.617c-0.409,3.207 -1.063,8.244 -1.962,15.111c-1.879,14.35 -2.819,22.255 -2.819,23.714c0,1.46 0.613,2.19 1.839,2.19c1.062,0 2.165,-0.668 3.31,-2.005c1.144,-1.336 2.186,-3.526 3.126,-6.568c1.144,1.11 1.941,2.323 2.391,3.639c-1.472,4.893 -3.78,8.059 -6.927,9.498c-1.43,0.699 -2.779,1.048 -4.046,1.048c-3.637,0 -6.069,-1.315 -7.294,-3.947c-2.126,2.673 -4.843,4.009 -8.153,4.009c-3.31,0 -6.1,-1.131 -8.368,-3.392c-2.268,-2.262 -3.402,-5.243 -3.402,-8.943c0,-5.387 1.574,-9.684 4.72,-12.891c3.147,-3.207 7.131,-4.81 11.954,-4.81c0.122,0 0.245,0 0.367,0c1.676,0 3.249,0.246 4.72,0.74l1.839,-15.543Zm-6.007,19.613c-2.615,0 -4.689,0.997 -6.222,2.992c-1.532,1.994 -2.441,4.965 -2.728,8.912c-0.04,0.37 -0.061,0.719 -0.061,1.048c0,2.015 0.48,3.619 1.441,4.811c0.96,1.193 2.196,1.789 3.708,1.789c2.575,0 4.516,-1.83 5.824,-5.489l1.593,-13.261c-1.348,-0.534 -2.533,-0.802 -3.555,-0.802Z" style="fill:#fff;fill-rule:nonzero;"/><path d="M391.302,72.1c0.94,-0.987 2.084,-1.48 3.433,-1.48c1.348,0 2.503,0.483 3.463,1.449c0.96,0.966 1.441,2.128 1.441,3.485c0,1.357 -0.481,2.508 -1.441,3.454c-0.96,0.945 -2.115,1.418 -3.463,1.418c-1.349,0 -2.493,-0.473 -3.433,-1.418c-0.94,-0.946 -1.41,-2.097 -1.41,-3.454c0,-1.357 0.47,-2.508 1.41,-3.454Zm-2.513,18.071c0.408,-0.74 1.185,-1.305 2.329,-1.696c1.144,-0.391 2.278,-0.586 3.402,-0.586c1.124,0 2.115,0.144 2.973,0.432c-1.594,12.376 -2.391,18.626 -2.391,18.75c-0.204,0.822 -0.306,1.511 -0.306,2.066c0,0.555 0.041,1.038 0.122,1.449c0.164,1.069 0.91,1.604 2.238,1.604c1.328,0 2.554,-0.874 3.678,-2.621c1.124,-1.748 1.972,-3.732 2.544,-5.952c0.286,0.164 0.735,0.658 1.348,1.48c0.613,0.822 0.981,1.439 1.104,1.85c-0.818,3.29 -2.207,5.942 -4.169,7.957c-1.961,2.014 -4.311,3.022 -7.049,3.022c-2.738,0 -4.771,-0.679 -6.099,-2.036c-1.328,-1.357 -1.992,-3.104 -1.992,-5.242c0,-0.452 0.02,-0.925 0.061,-1.419l2.207,-19.058Z" style="fill:#fff;fill-rule:nonzero;"/><path d="M418.273,110.586l1.472,-13.754c0,-1.11 -0.286,-2.035 -0.859,-2.775c-0.572,-0.74 -1.522,-1.11 -2.85,-1.11c-1.328,0 -2.452,0.586 -3.371,1.757c-0.92,1.172 -1.502,2.642 -1.747,4.41c-1.472,11.267 -2.248,17.393 -2.33,18.38l-8.275,0l3.371,-29.05c1.717,-0.452 3.024,-0.678 3.923,-0.678c2.738,0 4.169,1.007 4.291,3.022c2.003,-1.974 4.404,-2.96 7.203,-2.96c2.799,0 4.996,0.699 6.59,2.097c1.593,1.398 2.39,3.166 2.39,5.304c0,0.575 -0.122,1.665 -0.367,3.269c-0.94,6.249 -1.41,9.888 -1.41,10.916c0,1.892 0.633,2.837 1.9,2.837c2.779,0 4.883,-2.919 6.314,-8.758c1.389,1.481 2.227,2.652 2.513,3.516c-2.166,7.237 -5.926,10.855 -11.279,10.855c-2.534,0 -4.414,-0.781 -5.64,-2.344c-1.226,-1.562 -1.839,-3.207 -1.839,-4.934Z" style="fill:#fff;fill-rule:nonzero;"/><path d="M449.107,87.828c2.248,0 4.311,0.37 6.191,1.11c1.267,-0.782 2.595,-1.172 3.985,-1.172c1.389,0 2.492,0.185 3.31,0.555l-2.207,17.393c3.024,-2.344 5.313,-4.482 6.865,-6.415l1.778,3.763c-2.329,2.467 -5.435,5.098 -9.317,7.894l-1.655,12.891c-0.45,3.865 -1.707,6.835 -3.77,8.912c-2.064,2.076 -4.731,3.115 -8,3.115c-1.88,0 -3.719,-0.617 -5.517,-1.851c-1.88,-1.315 -2.82,-3.433 -2.82,-6.352c0,-3.578 1.696,-6.847 5.088,-9.807c-2.901,-0.206 -5.394,-1.419 -7.478,-3.639c-2.084,-2.22 -3.126,-5.119 -3.126,-8.696c0,-5.387 1.573,-9.684 4.72,-12.891c3.146,-3.207 7.131,-4.81 11.953,-4.81Zm0.919,4.81c-2.615,0 -4.689,0.997 -6.221,2.992c-1.533,1.994 -2.442,4.965 -2.728,8.912c-0.041,0.37 -0.062,0.719 -0.062,1.048c0,2.015 0.481,3.619 1.441,4.811c0.96,1.193 2.197,1.789 3.709,1.789c2.574,0 4.515,-1.809 5.823,-5.428l1.532,-13.384c-1.266,-0.493 -2.431,-0.74 -3.494,-0.74Zm-7.355,34.107c0,1.111 0.316,1.984 0.95,2.622c0.633,0.637 1.358,0.956 2.176,0.956c2.288,0 3.616,-1.46 3.984,-4.379l1.042,-9.252c-5.435,3.248 -8.152,6.6 -8.152,10.053Z" style="fill:#fff;fill-rule:nonzero;"/></g><g id="bigger"><g id="_----" serif:id="&lt; &gt; "><path d="M62.131,65.558l3.424,3.424c1.092,1.092 1.613,2.01 1.563,2.755c-0.05,0.744 -0.62,1.662 -1.712,2.754l-24.119,23.97l24.119,23.97c1.092,1.091 1.662,2.009 1.712,2.754c0.05,0.744 -0.471,1.662 -1.563,2.754l-3.424,3.424l-30.521,-30.222c-1.886,-1.787 -1.886,-3.574 0,-5.36l30.521,-30.223Z" style="fill:#fff;fill-rule:nonzero;"/><path d="M104.82,65.558l-3.424,3.424c-1.092,1.092 -1.613,2.01 -1.563,2.755c0.05,0.744 0.62,1.662 1.712,2.754l24.116,23.97l-24.116,23.97c-1.092,1.091 -1.662,2.009 -1.712,2.754c-0.05,0.744 0.471,1.662 1.563,2.754l3.424,3.424l30.517,-30.222c1.885,-1.787 1.885,-3.574 0,-5.36l-30.517,-30.223Z" style="fill:#fff;fill-rule:nonzero;"/></g><path id="_--copy" serif:id=" copy" d="M64.501,91.781c0,-3.177 0.917,-5.66 2.751,-7.45c1.833,-1.791 4.367,-2.686 7.601,-2.686c0.896,0 1.809,0.156 2.74,0.466c0.931,0.31 1.798,0.729 2.599,1.256c0.801,0.527 1.491,1.022 2.068,1.484c0.578,0.462 1.126,0.952 1.646,1.472c0.52,-0.52 1.068,-1.01 1.646,-1.472c0.577,-0.462 1.267,-0.957 2.068,-1.484c0.801,-0.527 1.668,-0.946 2.599,-1.256c0.931,-0.31 1.844,-0.466 2.739,-0.466c3.235,0 5.768,0.895 7.602,2.686c1.834,1.79 2.75,4.273 2.75,7.45c0,3.19 -1.653,6.439 -4.959,9.745l-13.492,12.994c-0.26,0.26 -0.578,0.39 -0.953,0.39c-0.375,0 -0.693,-0.13 -0.953,-0.39l-13.514,-13.037c-0.144,-0.116 -0.343,-0.303 -0.595,-0.563c-0.253,-0.26 -0.654,-0.733 -1.202,-1.419c-0.549,-0.685 -1.04,-1.389 -1.473,-2.111c-0.433,-0.722 -0.819,-1.596 -1.159,-2.621c-0.339,-1.025 -0.509,-2.021 -0.509,-2.988Z" style="fill:#fff;fill-rule:nonzero;"/></g></g></svg>
