<svg xmlns="http://www.w3.org/2000/svg" xml:space="preserve" style="fill-rule:evenodd;clip-rule:evenodd;stroke-linejoin:round;stroke-miterlimit:1.41421" viewBox="0 0 500 200"><path d="M500 69.824c0-16.774-13.618-30.392-30.392-30.392H30.392C13.618 39.432 0 53.05 0 69.824v60.784C0 147.382 13.618 161 30.392 161h439.216C486.382 161 500 147.382 500 130.608V69.824Z" style="fill:#1772f2"/><path d="M159.714 72.1c.94-.987 2.084-1.48 3.432-1.48 1.349 0 2.503.483 3.464 1.449.96.966 1.44 2.128 1.44 3.485 0 1.357-.48 2.508-1.44 3.454-.961.945-2.115 1.418-3.464 1.418-1.348 0-2.492-.473-3.432-1.418-.94-.946-1.41-2.097-1.41-3.454 0-1.357.47-2.508 1.41-3.454ZM157.2 90.171c.409-.74 1.186-1.305 2.33-1.696a10.469 10.469 0 0 1 3.402-.586c1.124 0 2.115.144 2.973.432-1.594 12.376-2.391 18.626-2.391 18.75-.204.822-.306 1.511-.306 2.066 0 .555.041 1.038.122 1.449.164 1.069.91 1.604 2.238 1.604 1.328 0 2.554-.874 3.678-2.621 1.124-1.748 1.971-3.732 2.544-5.952.286.164.735.658 1.348 1.48.613.822.981 1.439 1.104 1.85-.818 3.29-2.207 5.942-4.169 7.957-1.961 2.014-4.311 3.022-7.049 3.022-2.738 0-4.771-.679-6.099-2.036-1.329-1.357-1.993-3.104-1.993-5.242 0-.452.021-.925.062-1.419l2.206-19.058Z" style="fill:#fff;fill-rule:nonzero"/><path d="M190.915 112.128c.449.165.95.247 1.502.247.551 0 1.083-.062 1.594-.185.51-.124.98-.422 1.409-.895.43-.472.767-.853 1.012-1.141.245-.287.552-.925.919-1.912.45-1.151 1.002-2.775 1.655-4.872 1.717 1.604 2.738 2.817 3.065 3.639-1.961 7.237-5.414 10.855-10.359 10.855-2.33 0-5.292-1.521-8.889-4.564-1.879 3.043-4.801 4.564-8.765 4.564-1.758 0-3.341-.596-4.751-1.789-1.41-1.192-2.115-2.898-2.115-5.119 0-2.22.736-4.04 2.207-5.458 1.471-1.419 3.371-2.128 5.701-2.128.449 0 1.083.041 1.9.123l.858-7.833c-1.798.576-4.577 1.316-8.336 2.221v-4.626c3.065-.699 6.007-1.48 8.827-2.344l1.226-10.053c.858-6.867 4.331-10.3 10.42-10.3 2.412 0 4.342.668 5.793 2.005 1.451 1.336 2.176 3.217 2.176 5.643 0 5.839-3.739 10.547-11.217 14.124l-1.839 14.556-.062.616c3.024 2.714 5.047 4.256 6.069 4.626Zm2.452-33.429c0-1.727-.715-2.59-2.146-2.59-1.716 0-2.799 2.035-3.248 6.106l-.613 4.872c4.004-2.384 6.007-5.18 6.007-8.388Zm-21.516 31.825c0 1.234.695 1.851 2.084 1.851 1.349 0 2.186-1.213 2.513-3.639-.776-.329-1.501-.494-2.176-.494-.674 0-1.246.227-1.716.679-.47.452-.705.987-.705 1.603Z" style="fill:#fff;fill-rule:nonzero"/><path d="M213.718 87.828c3.76 0 6.896 1.212 9.41 3.638 2.513 2.426 3.77 5.387 3.77 8.882 0 5.304-1.543 9.549-4.629 12.736-3.085 3.187-6.814 4.78-11.187 4.78-4.372 0-7.836-1.254-10.39-3.762-2.554-2.508-3.831-5.613-3.831-9.313 0-5.181 1.573-9.293 4.72-12.336 3.188-3.084 7.233-4.625 12.137-4.625Zm-1.226 4.995c-1.92 0-3.535 1.11-4.842 3.331-1.308 2.22-2.023 5.016-2.146 8.388 0 2.385.48 4.358 1.441 5.921.96 1.562 2.421 2.344 4.383 2.344 1.961 0 3.606-1.09 4.934-3.269 1.328-2.18 1.992-4.667 1.992-7.463 0-2.796-.47-5.017-1.41-6.661-.939-1.727-2.39-2.591-4.352-2.591ZM252.582 106.454c-1.267 3.33-3.096 6.054-5.486 8.172-2.391 2.118-5.119 3.176-8.184 3.176-3.065 0-5.363-1.017-6.896-3.053-1.532-2.035-2.299-4.368-2.299-7 0-.534.021-1.069.062-1.604l2.084-17.577a11.692 11.692 0 0 1 4.168-.74c2.697 0 4.046 1.007 4.046 3.022 0 .082-.337 2.827-1.012 8.233-.674 5.407-1.011 8.543-1.011 9.406 0 2.344 1.124 3.516 3.371 3.516 1.921 0 3.535-1.09 4.843-3.269 2.289-3.947 3.494-8.409 3.617-13.384h-.552c-1.716 0-3.024-.391-3.923-1.172-1.022-.904-1.533-1.994-1.533-3.269 0-1.274.389-2.302 1.165-3.083.94-.823 2.064-1.234 3.372-1.234 3.105 0 5.047 1.624 5.823 4.872 1.226-.164 2.105-.329 2.636-.493v3.516l-2.268.37v1.048c-.041 3.701-.715 7.216-2.023 10.547Zm-5.211-15.543c0 .699.593 1.049 1.778 1.049h.368c-.286-1.11-.715-1.665-1.287-1.665s-.859.205-.859.616ZM268.765 103.678c2.534-.534 4.424-1.562 5.67-3.083 1.246-1.522 1.87-2.992 1.87-4.41 0-1.419-.378-2.385-1.134-2.899a4.325 4.325 0 0 0-2.483-.771c-1.921 0-3.606 1.079-5.057 3.238-1.451 2.159-2.176 4.728-2.176 7.71 0 2.981.705 5.201 2.115 6.661 1.409 1.459 3.156 2.189 5.241 2.189 3.065 0 6.007-1.069 8.827-3.207 2.819-2.138 5.108-4.934 6.865-8.388.899.863 1.717 1.932 2.452 3.207-1.348 3.084-3.739 6.106-7.172 9.067-1.716 1.439-3.749 2.611-6.099 3.515a20.046 20.046 0 0 1-7.264 1.357c-4.087 0-7.315-1.254-9.685-3.762-2.534-2.714-3.801-6.188-3.801-10.424 0-4.235 1.584-7.935 4.751-11.101 3.167-3.166 6.957-4.749 11.371-4.749 3.146 0 5.701.688 7.662 2.066 1.962 1.377 2.963 3.238 3.004 5.581 0 3.166-1.257 5.736-3.77 7.71-2.513 1.974-5.956 3.351-10.329 4.132l-.858-3.639Z" style="fill:#fff;fill-rule:nonzero"/><path d="M304.134 117.864c-6.334 0-10.982-1.624-13.945-4.872-2.963-3.249-4.444-7.535-4.444-12.86 0-5.325.909-10.177 2.728-14.556 1.818-4.379 4.525-7.977 8.122-10.793 3.596-2.817 7.488-4.225 11.677-4.225 4.189 0 7.479 1.018 9.869 3.053 2.391 2.035 3.586 4.77 3.586 8.203s-1.052 6.281-3.157 8.542c-2.104 2.262-4.566 3.392-7.386 3.392-2.82 0-5.006-.627-6.559-1.881s-2.33-2.59-2.33-4.009c0-1.418.562-2.528 1.686-3.33 1.124-.802 2.769-1.203 4.935-1.203-.531.535-.797 1.244-.797 2.128 0 .884.266 1.655.797 2.313.531.658 1.348.987 2.452.987 1.103 0 2.207-.586 3.31-1.758 1.103-1.172 1.655-2.724 1.655-4.657 0-1.932-.582-3.474-1.747-4.625-1.165-1.152-2.81-1.727-4.935-1.727-2.779 0-5.302 1.13-7.57 3.392-2.268 2.261-3.995 5.14-5.18 8.635-1.185 3.495-1.778 7.175-1.778 11.04 0 3.33.716 6.27 2.146 8.819.736 1.316 1.829 2.365 3.279 3.146 1.451.781 3.157 1.172 5.119 1.172 3.351 0 6.579-1.08 9.685-3.238 3.106-2.159 5.721-4.945 7.846-8.357l2.085 3.762c-2.411 3.947-5.436 7.185-9.073 9.714-3.637 2.529-7.662 3.793-12.076 3.793Z" style="fill:#fff;fill-rule:nonzero"/><path d="M337.236 87.828c3.76 0 6.896 1.212 9.409 3.638 2.514 2.426 3.77 5.387 3.77 8.882 0 5.304-1.542 9.549-4.628 12.736-3.085 3.187-6.814 4.78-11.187 4.78-4.373 0-7.836-1.254-10.39-3.762-2.554-2.508-3.831-5.613-3.831-9.313 0-5.181 1.573-9.293 4.72-12.336 3.187-3.084 7.233-4.625 12.137-4.625Zm-1.226 4.995c-1.921 0-3.535 1.11-4.843 3.331-1.307 2.22-2.022 5.016-2.145 8.388 0 2.385.48 4.358 1.44 5.921.961 1.562 2.422 2.344 4.383 2.344 1.962 0 3.607-1.09 4.935-3.269 1.328-2.18 1.992-4.667 1.992-7.463 0-2.796-.47-5.017-1.41-6.661-.94-1.727-2.39-2.591-4.352-2.591ZM376.467 73.025c.287-.699.93-1.285 1.931-1.758 1.002-.473 2.207-.709 3.617-.709 1.41 0 2.462.206 3.157.617a5103.19 5103.19 0 0 1-1.962 15.111c-1.879 14.35-2.819 22.255-2.819 23.714 0 1.46.613 2.19 1.839 2.19 1.062 0 2.165-.668 3.31-2.005 1.144-1.336 2.186-3.526 3.126-6.568 1.144 1.11 1.941 2.323 2.391 3.639-1.472 4.893-3.78 8.059-6.927 9.498-1.43.699-2.779 1.048-4.046 1.048-3.637 0-6.069-1.315-7.294-3.947-2.126 2.673-4.843 4.009-8.153 4.009-3.31 0-6.1-1.131-8.368-3.392-2.268-2.262-3.402-5.243-3.402-8.943 0-5.387 1.574-9.684 4.72-12.891 3.147-3.207 7.131-4.81 11.954-4.81h.367c1.676 0 3.249.246 4.72.74l1.839-15.543Zm-6.007 19.613c-2.615 0-4.689.997-6.222 2.992-1.532 1.994-2.441 4.965-2.728 8.912a9.78 9.78 0 0 0-.061 1.048c0 2.015.48 3.619 1.441 4.811.96 1.193 2.196 1.789 3.708 1.789 2.575 0 4.516-1.83 5.824-5.489l1.593-13.261c-1.348-.534-2.533-.802-3.555-.802Z" style="fill:#fff;fill-rule:nonzero"/><path d="M391.302 72.1c.94-.987 2.084-1.48 3.433-1.48 1.348 0 2.503.483 3.463 1.449.96.966 1.441 2.128 1.441 3.485 0 1.357-.481 2.508-1.441 3.454-.96.945-2.115 1.418-3.463 1.418-1.349 0-2.493-.473-3.433-1.418-.94-.946-1.41-2.097-1.41-3.454 0-1.357.47-2.508 1.41-3.454Zm-2.513 18.071c.408-.74 1.185-1.305 2.329-1.696a10.469 10.469 0 0 1 3.402-.586c1.124 0 2.115.144 2.973.432-1.594 12.376-2.391 18.626-2.391 18.75-.204.822-.306 1.511-.306 2.066 0 .555.041 1.038.122 1.449.164 1.069.91 1.604 2.238 1.604 1.328 0 2.554-.874 3.678-2.621 1.124-1.748 1.972-3.732 2.544-5.952.286.164.735.658 1.348 1.48.613.822.981 1.439 1.104 1.85-.818 3.29-2.207 5.942-4.169 7.957-1.961 2.014-4.311 3.022-7.049 3.022-2.738 0-4.771-.679-6.099-2.036-1.328-1.357-1.992-3.104-1.992-5.242 0-.452.02-.925.061-1.419l2.207-19.058Z" style="fill:#fff;fill-rule:nonzero"/><path d="m418.273 110.586 1.472-13.754c0-1.11-.286-2.035-.859-2.775-.572-.74-1.522-1.11-2.85-1.11s-2.452.586-3.371 1.757c-.92 1.172-1.502 2.642-1.747 4.41-1.472 11.267-2.248 17.393-2.33 18.38h-8.275l3.371-29.05c1.717-.452 3.024-.678 3.923-.678 2.738 0 4.169 1.007 4.291 3.022 2.003-1.974 4.404-2.96 7.203-2.96 2.799 0 4.996.699 6.59 2.097 1.593 1.398 2.39 3.166 2.39 5.304 0 .575-.122 1.665-.367 3.269-.94 6.249-1.41 9.888-1.41 10.916 0 1.892.633 2.837 1.9 2.837 2.779 0 4.883-2.919 6.314-8.758 1.389 1.481 2.227 2.652 2.513 3.516-2.166 7.237-5.926 10.855-11.279 10.855-2.534 0-4.414-.781-5.64-2.344-1.226-1.562-1.839-3.207-1.839-4.934Z" style="fill:#fff;fill-rule:nonzero"/><path d="M449.107 87.828c2.248 0 4.311.37 6.191 1.11 1.267-.782 2.595-1.172 3.985-1.172 1.389 0 2.492.185 3.31.555l-2.207 17.393c3.024-2.344 5.313-4.482 6.865-6.415l1.778 3.763c-2.329 2.467-5.435 5.098-9.317 7.894l-1.655 12.891c-.45 3.865-1.707 6.835-3.77 8.912-2.064 2.076-4.731 3.115-8 3.115-1.88 0-3.719-.617-5.517-1.851-1.88-1.315-2.82-3.433-2.82-6.352 0-3.578 1.696-6.847 5.088-9.807-2.901-.206-5.394-1.419-7.478-3.639-2.084-2.22-3.126-5.119-3.126-8.696 0-5.387 1.573-9.684 4.72-12.891 3.146-3.207 7.131-4.81 11.953-4.81Zm.919 4.81c-2.615 0-4.689.997-6.221 2.992-1.533 1.994-2.442 4.965-2.728 8.912-.041.37-.062.719-.062 1.048 0 2.015.481 3.619 1.441 4.811.96 1.193 2.197 1.789 3.709 1.789 2.574 0 4.515-1.809 5.823-5.428l1.532-13.384c-1.266-.493-2.431-.74-3.494-.74Zm-7.355 34.107c0 1.111.316 1.984.95 2.622.633.637 1.358.956 2.176.956 2.288 0 3.616-1.46 3.984-4.379l1.042-9.252c-5.435 3.248-8.152 6.6-8.152 10.053ZM62.131 65.558l3.424 3.424c1.092 1.092 1.613 2.01 1.563 2.755-.05.744-.62 1.662-1.712 2.754l-24.119 23.97 24.119 23.97c1.092 1.091 1.662 2.009 1.712 2.754.05.744-.471 1.662-1.563 2.754l-3.424 3.424-30.521-30.222c-1.886-1.787-1.886-3.574 0-5.36l30.521-30.223ZM104.82 65.558l-3.424 3.424c-1.092 1.092-1.613 2.01-1.563 2.755.05.744.62 1.662 1.712 2.754l24.116 23.97-24.116 23.97c-1.092 1.091-1.662 2.009-1.712 2.754-.05.744.471 1.662 1.563 2.754l3.424 3.424 30.517-30.222c1.885-1.787 1.885-3.574 0-5.36L104.82 65.558Z" style="fill:#fff;fill-rule:nonzero"/><path d="M64.501 91.781c0-3.177.917-5.66 2.751-7.45 1.833-1.791 4.367-2.686 7.601-2.686.896 0 1.809.156 2.74.466.931.31 1.798.729 2.599 1.256a27.662 27.662 0 0 1 2.068 1.484c.578.462 1.126.952 1.646 1.472.52-.52 1.068-1.01 1.646-1.472a27.662 27.662 0 0 1 2.068-1.484 11.07 11.07 0 0 1 2.599-1.256 8.64 8.64 0 0 1 2.739-.466c3.235 0 5.768.895 7.602 2.686 1.834 1.79 2.75 4.273 2.75 7.45 0 3.19-1.653 6.439-4.959 9.745L84.859 114.52c-.26.26-.578.39-.953.39s-.693-.13-.953-.39l-13.514-13.037a7.177 7.177 0 0 1-.595-.563c-.253-.26-.654-.733-1.202-1.419a19.01 19.01 0 0 1-1.473-2.111c-.433-.722-.819-1.596-1.159-2.621-.339-1.025-.509-2.021-.509-2.988Z" style="fill:#fff;fill-rule:nonzero"/></svg>