<svg width="500" height="200" xmlns="http://www.w3.org/2000/svg"><path fill="none" d="M-1-1h582v402H-1z"/><path d="M16.94 152.28H.5V47.718h16.44V152.28zm113.436 0h-16.423V87.1L99.72 129.966h-9.107L76.67 87.836v64.444H60.244V47.718H75.07l20.248 54.937 20.107-54.937h14.95V152.28zm96.47-72.832c0 10.87-2 18.85-6.006 23.945-4.226 5.374-11.158 8.067-20.858 8.067h-9.83v40.82h-16.44V47.718h26.27c9.396 0 16.217 2.545 20.474 7.645 4.258 5.09 6.39 13.117 6.39 24.085zm-16.427.15c0-5.1-.498-8.83-1.477-11.18-1.47-3.922-4.353-5.886-8.66-5.886H190.15v34.125h10.134c4.307 0 7.19-1.96 8.66-5.884.978-2.353 1.473-6.074 1.473-11.174zm100.26 72.682H266.78V47.718h43.897v14.815h-27.456v29.73h23.628v14.813h-23.628v30.386h27.455v14.818zm96.434 0H389.94l-13.64-42.87h-9.253v42.87h-16.442V47.718h26.432c9.476 0 16.314 2.434 20.474 7.277 4.167 4.842 6.235 12.693 6.235 23.57 0 13.8-4.07 22.905-12.182 27.307l15.556 46.408zm-19.802-73.714c0-4.803-.497-8.388-1.473-10.742-1.568-3.53-4.453-5.292-8.66-5.292h-10.136v32.06h10.135c4.207 0 7.092-1.77 8.66-5.302.975-2.352 1.472-5.92 1.472-10.724zM499.5 99.998c0 13.016-.288 21.916-.88 26.718-.976 8.02-3.218 13.992-6.77 17.898-5.17 5.876-11.944 8.804-20.25 8.804-8.31 0-15.082-2.928-20.27-8.804-3.52-3.906-5.78-9.877-6.757-17.898-.592-4.802-.88-13.702-.88-26.718 0-13.01.288-21.91.88-26.714.978-8.02 3.234-13.984 6.757-17.9 5.186-5.875 11.958-8.802 20.27-8.802 8.306 0 15.077 2.927 20.25 8.802 3.553 3.916 5.794 9.88 6.77 17.9.592 4.803.88 13.704.88 26.714zm-16.44 0c0-19.278-1.17-30.828-3.523-34.647-1.665-2.644-4.307-3.96-7.938-3.96-3.54 0-6.136 1.318-7.785 3.96-2.465 3.92-3.684 15.478-3.684 34.65 0 19.18 1.218 30.736 3.685 34.66 1.65 2.623 4.242 3.952 7.78 3.952 3.634 0 6.274-1.33 7.94-3.953 2.352-3.827 3.522-15.386 3.522-34.66z"/></svg>