<svg width="500" height="200" xmlns="http://www.w3.org/2000/svg"><path fill="none" d="M-1-1h502v202H-1z"/><path d="M169.3 73.36c-1.046-1.044-1.568-2.35-1.568-3.656s.522-2.61 1.567-3.656c1.043-1.045 2.35-1.567 3.655-1.567 1.306 0 2.612.523 3.656 1.568 1.046 1.045 1.568 2.35 1.568 3.656s-.522 2.612-1.567 3.657c-1.043 1.045-2.35 1.568-3.655 1.568-1.306 0-2.612-.523-3.656-1.567zm8.878 50.145h-10.446V81.718h10.446v41.787zm21.939-22.46v22.46h-8.88V81.718h8.88v7.835c1.306-2.61 3.134-4.44 5.745-6.007 2.612-1.567 5.224-2.09 8.097-2.09 6.528 0 10.968 2.613 13.318 8.097 4.18-5.484 9.14-8.096 15.41-8.096 4.7 0 8.618 1.306 11.49 4.18 2.874 2.872 4.44 7.05 4.44 12.535v25.333h-8.88v-22.983c0-7.574-3.133-11.49-9.662-11.49-2.873 0-5.485 1.044-7.835 2.872-2.09 1.828-3.395 4.7-3.395 8.357v23.245h-8.88v-22.983c0-3.917-.783-6.79-2.09-8.618-1.305-1.828-3.655-2.873-6.528-2.873-3.134 0-5.746 1.046-7.835 3.135-2.35 2.09-3.395 4.962-3.395 8.88zm144.165-10.969c-4.44 0-7.574 1.305-9.663 4.178-2.09 2.873-3.396 6.53-3.396 11.23v18.02h-9.402V81.72h9.402v8.358c1.305-2.612 3.395-4.7 5.745-6.53 2.35-1.567 5.484-2.61 8.357-2.61v8.878c-.26.262-.784.262-1.045.262zm42.571 33.429h-7.574v-5.484c-3.396 4.18-8.36 6.27-14.104 6.27-4.44 0-7.835-1.307-10.708-3.658-2.873-2.35-4.18-5.745-4.18-9.924 0-4.18 1.568-7.052 4.44-9.14 3.135-2.09 7.052-3.135 12.276-3.135h11.49v-1.567c0-5.485-3.133-8.357-9.14-8.357-3.917 0-7.835 1.304-12.013 4.177l-3.917-5.484c4.962-3.918 10.708-6.007 17.237-6.007 4.962 0 8.88 1.306 12.014 3.656 3.134 2.612 4.7 6.268 4.7 11.753v26.9h-.52zm-8.62-15.41v-3.394h-9.923c-6.268 0-9.402 2.09-9.402 6.008 0 2.09.783 3.656 2.35 4.7 1.567 1.046 3.656 1.568 6.53 1.568 2.872 0 5.223-.784 7.312-2.35 2.09-1.83 3.134-3.918 3.134-6.53zm20.895-35.779c-1.045-1.045-1.567-2.35-1.567-3.656s.523-2.612 1.568-3.657c1.044-1.044 2.35-1.567 3.656-1.567s2.612.523 3.656 1.567c1.045 1.045 1.567 2.35 1.567 3.657s-.522 2.61-1.567 3.656c-1.044 1.045-2.35 1.567-3.656 1.567s-2.612-.522-3.656-1.567zm8.88 51.19H397.56V81.717h10.447v41.787zm42.309-12.536c0 3.917-1.306 7.05-4.44 9.4-2.873 2.352-6.53 3.658-10.97 3.658-3.133 0-6.267-.523-9.4-1.567-3.135-1.044-6.27-2.61-8.62-4.7l4.18-6.79c4.96 3.655 9.662 5.484 14.102 5.484 2.088 0 3.655-.523 4.7-1.306 1.045-1.045 1.828-2.09 1.828-3.395 0-2.09-2.873-3.918-8.357-5.746-.52-.26-.783-.26-1.044-.26-8.618-2.352-13.058-6.27-13.058-11.754 0-3.917 1.567-7.05 4.44-9.402 3.134-2.35 6.79-3.394 11.752-3.394 4.7 0 9.402 1.306 13.58 4.18l-3.394 6.528c-3.395-2.35-7.052-3.395-10.97-3.395-2.09 0-3.917.26-4.96 1.043-1.307.784-2.09 1.828-2.09 3.395 0 1.306.783 2.35 2.09 2.873 1.043.524 2.35 1.046 3.916 1.307 1.567.522 3.134.784 4.44 1.306 1.306.522 2.612.783 3.917 1.306 1.305.52 2.61 1.305 3.917 2.088 3.134 2.35 4.44 5.224 4.44 9.14zm48.838-4.44H466.51c.26 3.133 1.566 5.484 4.178 7.312 2.612 1.828 5.485 2.873 8.88 2.873 5.223 0 9.14-1.567 12.014-4.962l4.962 5.484c-4.44 4.7-10.447 7.052-17.5 7.052-5.744 0-10.706-1.83-14.885-5.747-4.18-3.918-6.27-9.14-6.27-15.67 0-6.53 2.09-11.753 6.27-15.67 4.178-3.918 9.14-5.746 14.885-5.746 5.746 0 10.447 1.828 14.365 5.223 3.917 3.396 6.007 8.097 6.007 14.103v5.746h-.262zm-32.646-7.052h23.766c0-3.396-1.045-6.268-3.395-8.097-2.09-1.827-4.962-2.87-8.096-2.87-3.134 0-6.007 1.043-8.618 2.87-2.35 2.09-3.657 4.964-3.657 8.098zm-174.461-17.76c5.485 0 10.447 1.828 14.365 5.746 3.917 3.917 6.006 9.14 6.006 15.41 0 6.528-2.09 11.75-6.007 15.67-3.918 3.917-8.62 6.006-13.842 6.006-5.223 0-9.924-2.35-14.103-6.79v21.415h-8.88V82.24h8.88v7.313c3.396-5.223 7.836-7.835 13.58-7.835zm-13.842 21.416c0 3.918 1.306 7.313 3.657 9.663 2.35 2.612 5.223 3.918 8.88 3.918 3.395 0 6.53-1.306 9.14-3.657 2.612-2.61 3.918-5.745 3.918-9.663s-1.305-7.313-3.655-9.924c-2.612-2.61-5.485-3.917-9.14-3.917-3.397 0-6.53 1.306-8.88 3.918-2.613 2.35-3.92 5.746-3.92 9.664zM65.876 34.708C29.834 34.708.583 63.958.583 100s29.25 65.292 65.293 65.292 65.292-29.25 65.292-65.292-29.25-65.292-65.292-65.292zM41.848 111.23c-.783 1.567-1.306 1.828-1.828 4.44h-7.835c-4.962 0-7.052-4.18-4.7-8.357l14.102-24.81c1.306-2.09 2.873-3.135 4.7-3.135 1.568 0 3.396 1.044 4.44 3.134l3.657 6.53-3.134 5.222s-5.223-9.14-5.223-9.402l-14.103 24.81c-.262.262 0 .785 0 .785H42.37l-.522.783zm55.368 14.887H53.6c-7.573 0-10.707-5.746-7.05-12.275l21.937-37.87c3.657-6.53 10.447-6.268 14.104 0l21.94 37.61c3.394 6.79 0 12.535-7.314 12.535z" stroke="null" fill="#FFA837"/></svg>