<svg xmlns="http://www.w3.org/2000/svg" viewBox="0 0 200 80" width="500" height="200" fill="#472a49"><path d="M57.2 47.08h-6.76V14.83h6.77v32.25zm0 9.35h-6.76v-6.77h6.77v6.78zM60.4 27.1h6.74v2.8h.1c1.58-1.64 3.6-3.28 6.1-3.28 3.2 0 4.72 2.22 4.72 6.07v23.73h-6.74v-21.3c0-2.2-.76-2.9-1.92-2.9a3 3 0 0 0-2.26 1.1v23.1H60.4V27.1zM92.37 51a2.36 2.36 0 0 1-2 .93c-2 0-2.34-1.34-2.34-10.35 0-9.24.53-10.46 2.5-10.46a2.1 2.1 0 0 1 1.88.94V51zm.3 5.38h6.44V14.83h-6.73v13.9h-.1A5.24 5.24 0 0 0 88 26.6c-4.93 0-7.2 5.38-7.2 15.1s1.74 15.2 6.62 15.2c2.68 0 3.8-1.3 5.13-2.82h.1v2.34zM102.57 27.1h6.74v29.33h-6.73V27.1zm0-12.26h6.74v6.75h-6.73v-6.77zM125.24 57.78c0 1.8-1.7 2.83-4.73 2.83-3.55 0-4.6-.86-4.6-2.3 0-2.08 3.15-2.94 4.2-3.12.7.07 5.14.76 5.14 2.6zm5.6-34.2a7.9 7.9 0 0 0-6 4.42 7.22 7.22 0 0 0-4.55-1.4c-5.38 0-8.53 4.43-8.53 9.15 0 3.36.7 6.25 3.56 8.22-2.16 1.28-3.86 2.86-3.86 5.6 0 2.4 1.93 3.87 4 4.45v.1c-2.57 1-5.2 2.16-5.2 5.4 0 1.85 2.22 5.64 10 5.64s10.56-4.15 10.56-8.3c0-9.88-13.77-6.83-13.77-10.4a1.35 1.35 0 0 1 .64-1.35 8.1 8.1 0 0 0 2.4.3c5.3 0 8.63-4.42 8.63-9.5a9 9 0 0 0-2-6 3.72 3.72 0 0 1 2-.74 7.2 7.2 0 0 1 2 .35v-5.93zm-13 12.42c0-3.66.8-5.25 2.44-5.25s2.4 1.6 2.4 5.25-.82 5.2-2.4 5.2-2.45-1.56-2.45-5.2zM142.36 41.76c0 8.93-.53 10.22-2.1 10.22s-2.1-1.3-2.1-10.22.52-10.22 2.1-10.22 2.1 1.3 2.1 10.22zm7.2 0c0-11.1-4.07-15.14-9.3-15.14s-9.3 4-9.3 15.14 4.04 15.14 9.3 15.14 9.3-4.04 9.3-15.14z"/></svg>