<svg xmlns="http://www.w3.org/2000/svg" viewBox="0 0 500 200"><path d="M466.7 89.8c-1.1-1.3-2.5-2.3-4.2-3-1.7-.7-3.6-1.1-5.7-1.1-2.2 0-4.1.4-5.7 1.1-1.7.7-3 1.7-4.2 3-1.1 1.3-2 2.8-2.6 4.5-.6 1.7-.9 3.6-.9 5.7 0 2 .3 3.9.9 5.7.6 1.7 1.4 3.3 2.6 4.5 1.1 1.3 2.5 2.3 4.2 3 1.7.7 3.6 1.1 5.7 1.1 2.2 0 4.1-.4 5.7-1.1 1.7-.7 3-1.7 4.2-3 1.1-1.3 2-2.8 2.5-4.5.6-1.7.9-3.6.9-5.7 0-2-.3-3.9-.9-5.7-.6-1.7-1.4-3.2-2.5-4.5zm-3.7 14.9c-.2 1.4-.6 2.7-1.1 3.7-.5 1-1.1 1.8-1.9 2.4-.8.6-1.7.9-2.9.9s-2.3-.3-3.2-.9c-.9-.6-1.6-1.4-2.2-2.4-.6-1-1-2.3-1.2-3.7-.3-1.4-.4-3-.4-4.7s.1-3.2.3-4.7c.2-1.4.5-2.7 1-3.7s1.1-1.8 1.9-2.4c.8-.6 1.8-.9 3-.9 1.3 0 2.3.3 3.2.9.9.6 1.6 1.4 2.1 2.4s.9 2.3 1.2 3.7c.2 1.4.4 3 .4 4.7s.1 3.2-.2 4.7zM401.8 112.9l-3-1.6v-7.6h1.6c5.2 0 7.7-1.2 9.3-2.5 2.3-1.9 2.8-4.7 2.8-6.6 0-1.3-.2-3-.8-4.2-.5-1-1.7-2.5-3-3.1-1.7-.8-3.6-1.2-8.9-1.2h-10.3v.9l3.3 1.6v22.7l-3.3 1.6v1.1h12.3v-1.1zm-3-24.4h2.1c2.3 0 3.3.7 3.8 1.1 1.6 1.3 2.3 3.4 2.1 4.8-.2 2.4-1.4 6.7-6.4 6.7h-1.7V88.5zM415.7 112.9v1.1H428v-1.1l-3-1.6v-7.6l3.6-1.2c1.6 2.7 5 8.8 6.2 10.1l1.7 1.3h6.4v-1.4l-2.5-1.3-6.7-10.7c1-.5 1.9-1.1 2.7-1.8 1.2-1.1 2.3-3.1 2.3-5 0-1.3-.2-2.5-.7-3.5-.5-1-1.8-2.5-3.1-3.1-1.7-.8-3.6-1.2-8.9-1.2h-10.3V87l3.3 1.6v22.7l-3.3 1.6zm9.3-24.4h2.1c2.3 0 3.3.7 3.8 1.1 1.6 1.3 2.3 3.4 2.1 4.8-.2 2.1-.9 4.5-5 5.8l-3.1 1V88.5zM389.5 71.3h80.6v3.4h-80.6zM389.5 125.4h80.6v3.4h-80.6zM113.6 105.4l.4 4.6h-.3l-2.1-4.6L87 71.3H68.1v3.1l6.3 3.2v44.7l-6.9 3.3v3.1h13.6V88.1l-.4-3.2h.2l1 2.9 30 41.9h8.6V78.1l7-3.6v-3.2h-13.9M164.7 99.6c-2-1.5-4.1-2.9-6.5-4.1-2.3-1.2-4.5-2.4-6.5-3.6-2-1.2-3.6-2.5-4.9-4-1.3-1.5-2-3.2-2-5.3 0-2.3.7-4.6 2.3-5.9 1.6-1.2 3.5-2 5.8-2 1.4 0 2.7.1 4 .4 1.3.3 2.3.6 2.9.9l3.9 12.1h3.1l2.5-15s-4.9-1.7-7.8-2.2c-2.9-.5-6-.7-9.3-.7-2.7 0-5.3.3-7.6.9-2.4.6-4.4 1.6-6.1 2.9-1.7 1.3-3.1 2.9-4.1 4.9-1 2-1.5 4.3-1.5 7 0 3.1.6 5.7 1.9 7.8 1.3 2.1 2.9 3.9 4.9 5.5 2 1.5 4.1 2.9 6.3 4s4.4 2.3 6.3 3.4c2 1.2 3.6 2.4 4.9 3.8 1.3 1.4 1.9 3.1 1.9 5.1 0 2.8-1 5-3 6.5-2 1.6-4.5 2.6-7.5 2.6-1.8 0-3.3-.3-4.4-.8-1.1-.5-1.9-1.1-2.5-1.7l-3.4-12.3h-3.1l-3 16c.6.5 1.5 1 2.8 1.4 1.2.4 2.6.9 4.2 1.2 1.6.4 3.3.7 5.1.9 1.8.2 3.5.3 5.3.3 7.2 0 12.6-1.5 16.3-4.5 3.7-3 5.5-7.2 5.5-12.7 0-3-.7-5.5-2-7.6-1-1.9-2.7-3.7-4.7-5.2zM252.7 74.1c-3.7-1.6-9.1-2.9-18.4-2.9h-20.9v3.1l6.7 2.4v46.5l-6.7 2.4v3.1h20.9c9.3 0 14.7-1.3 18.4-2.9 6.1-2.7 11.2-7.2 13.6-12.7 1.5-3.5 2.6-9 2.6-13.6s-1-9.1-2.6-12.6c-2.4-5.6-7.7-10.1-13.6-12.8zm1.6 35.3c-.7 2.8-1.7 5.3-3.2 7.5-1.4 2.2-5.5 7-13.7 7h-5.5V76.2h5.5c8.2 0 12.3 4.8 13.7 7 1.4 2.2 2.5 4.7 3.2 7.5.7 2.8 1 5.9 1 8.9s-.3 7-1 9.8zM312.4 113l-3.8 10.4h-16.7v-21.6h16.8v-5.3h-16.8V76.6h16l3.3 9.7h3.2l1.6-15h-43.2v3.1l6.7 2.4v46.4l-6.7 2.4v3.1h44.4l-1.6-15.7M369.6 113c-1.7-2.5-4.4-7.5-6.2-10.7 3.1-1.1 5.4-3.1 7.2-5.4 1.9-2.5 2.9-5.8 2.9-9.7 0-2.8-.5-5.2-1.5-7.2-1-2.1-3.3-4.8-6.1-6.1-3.6-1.6-7.4-2.6-18.3-2.6h-22.5v2.2l6.7 3.3v46.5l-6.7 3.3v2.2h25.3v-2.2l-6.2-3.2v-47h5.8c8.8 0 12.5 6 12.5 11.9 0 10.2-8.7 13.8-10.8 13.9v1.8h.1c2.6 4.5 4.9 8 6.7 11.6 1.9 3.9 4.2 7.4 6.7 10.4l3.5 2.7h14.2V126l-5.8-2.6c-3.1-3.4-5.1-6.8-7.5-10.4zM179.5 74.4l6.7 2.4v46.4l-6.7 2.4v3.1h25.7v-3.1l-6.7-2.4V76.8l6.7-2.4v-3.1h-25.7M29.9 76.8h10.9v46.4l-6.6 3.3v2.2h25.6v-2.2l-6.6-3.3V76.8l6.6-3.4v-2.1H38.7"/></svg>