<svg xmlns="http://www.w3.org/2000/svg" viewBox="0 0 500 200"><path d="M469 86.86V62.75c.07-9.91.22-19.85.32-29.77 0-2.48 0-5 2.94-6.06 3.22-1.1 6.5-1.19 9.29.95a5.15 5.15 0 0 1 1.53 3.64c.1 14.6.07 29.19.07 43.77v106.66c0 1.48-.18 2.36-1.88 2.87a120.36 120.36 0 0 1-46.07 4.66c-24.21-2.33-42.17-20.29-45-44.44-1.45-12.31-.86-24.41 3.66-36 6.35-16.4 18.1-26.66 35.62-29.49 13-2.1 25.66-.39 37.38 6.2.53.26 1.14.58 2.14 1.12Zm0 50.77c0-11.63 0-23.25.05-34.9a3.77 3.77 0 0 0-2.1-3.67 51.11 51.11 0 0 0-30-7.81 31.7 31.7 0 0 0-29.5 22.64 68.62 68.62 0 0 0-1.56 34.86 35.84 35.84 0 0 0 31.44 28.33 99 99 0 0 0 29.34-1.72c1.8-.36 2.41-1 2.39-2.85-.06-11.63-.06-23.25-.06-34.88Z"/><path fill="#F10017" d="M113.71 78.36c29.23-.83 55.08 24.68 54.77 56.32-.28 29.35-24.24 56-57.27 55-27.57-.86-53.73-23.93-52.72-57.75.88-29.18 25.45-54.61 55.22-53.57Zm-1.49 98.47c13.3-.34 23.38-5.52 31.26-15.19 15.19-18.59 12-47.57-6.93-62.28-10.33-8-21.9-10.51-34.45-6.42-17.33 5.63-27.84 22.57-28.36 40.59a42.37 42.37 0 0 0 4.82 20.95c7.24 14 18.65 21.52 33.66 22.35Z"/><path d="M257.07 134.08c-.54-22.33 13.4-43.48 34.33-52a53.74 53.74 0 0 1 30.45-2.95c16.18 3 28.42 11.77 37 25.72a53.14 53.14 0 0 1 7.62 36.15c-3.26 22.36-15.42 38.14-37 45.88a52.55 52.55 0 0 1-27.52 1.87c-17.73-3.25-30.78-13-39-29a52 52 0 0 1-5.88-25.67Zm54.36 42.66a31.83 31.83 0 0 0 13.27-2.36c19.36-7.65 29.73-27.73 26.18-48.36a43 43 0 0 0-16.45-27.23c-12.49-9.83-31.21-10.17-44-.88-17.14 12.43-23.17 36.57-13.88 55.72 7.02 14.44 18.57 22.52 34.88 23.11ZM207 77.77h2.48l30.89.12c3.31 0 5 1.24 5.79 4.11s-.13 6.57-2.47 7.7a13 13 0 0 1-5.34 1c-9.56.09-19.12 0-28.67 0H207v2.79q-.09 43.68-.18 87.35c0 3.08-1.07 4.89-4 5.9a10.33 10.33 0 0 1-9-.58 5.1 5.1 0 0 1-2.76-4.71c.06-43.41-.09-86.83.2-130.24.09-14.71 7.51-25.86 19.38-34.13a37.91 37.91 0 0 1 21.86-7c2.3 0 4.59-.07 6.89-.07a6.88 6.88 0 0 1 6.93 6.62c.25 4.22-2 7.17-6 7.64-4.47.52-9.06.48-13.38 1.56-11.14 2.79-19.78 14.35-19.87 25.79-.07 8.44-.18 16.89-.27 25.33a3.11 3.11 0 0 0 .2.82Z"/><path fill="#F10017" d="M35.2 132.48c0 16.06-.05 32.13 0 48.19 0 3.29-1.66 5.13-4.38 6.17a8.77 8.77 0 0 1-8.46-1 6.23 6.23 0 0 1-2.64-5.55q.16-36.85.2-73.74c0-7.7.09-15.41 0-23.09 0-2.45 1.13-3.83 3.15-4.84 2.7-1.39 5.5-1.14 8.2-.33 3.06.92 4.13 2.69 4.13 6v48.2a.93.93 0 0 0-.2-.01ZM27.3 45.44c-6.21 0-10.55-4.27-10.48-10.17.06-5.18 4.81-9.25 10.75-9.21S38 30.36 38 35.65c0 5.58-4.71 9.84-10.7 9.79Z"/></svg>