<svg xmlns="http://www.w3.org/2000/svg" width="500" height="200" viewBox="0 0 408 78" class="logo__l2u5SYnO4"><g fill="none" fill-rule="evenodd"><path fill="#FF8188" d="M32 6.83c0 3.768 3.064 6.832 6.83 6.832 3.768 0 6.832-3.064 6.832-6.83 0-3.768-3.064-6.832-6.83-6.832C35.063 0 32 3.064 32 6.83zM9.44 16.27c0 3.767 3.063 6.83 6.83 6.83s6.83-3.063 6.83-6.83-3.063-6.83-6.83-6.83-6.83 3.063-6.83 6.83zM0 38.83c0 3.768 3.064 6.832 6.83 6.832 3.768 0 6.832-3.064 6.832-6.83 0-3.768-3.064-6.832-6.83-6.832C3.063 32 0 35.064 0 38.83zm54.56-22.56c0 3.767 3.064 6.83 6.83 6.83 3.768 0 6.832-3.063 6.832-6.83s-3.064-6.83-6.83-6.83c-3.768 0-6.83 3.063-6.83 6.83zM64 38.83c0 3.768 3.064 6.832 6.83 6.832 3.768 0 6.832-3.064 6.832-6.83 0-3.768-3.064-6.832-6.83-6.832C67.063 32 64 35.064 64 38.83zM32 70.888c0 3.767 3.064 6.83 6.83 6.83 3.768 0 6.832-3.063 6.832-6.83s-3.064-6.83-6.83-6.83c-3.768 0-6.832 3.063-6.832 6.83zm22.56-9.44c0 3.767 3.064 6.83 6.83 6.83 3.768 0 6.832-3.063 6.832-6.83s-3.064-6.83-6.83-6.83c-3.768 0-6.83 3.063-6.83 6.83zm-45.12 0c0 3.767 3.063 6.83 6.83 6.83s6.83-3.063 6.83-6.83-3.063-6.83-6.83-6.83-6.83 3.063-6.83 6.83z"/><path fill="#061B2B" d="M106.153 64.05c-.213-.32-.424-.955-.424-1.485 0-1.486 1.272-2.758 2.756-2.758 1.167 0 1.91.742 2.227 1.272 4.35 6.682 9.23 10.182 17.29 10.182 9.122 0 16.123-6.895 16.123-19.835V3.755c0-1.484 1.273-2.758 2.757-2.758 1.485 0 2.758 1.274 2.758 2.758v47.248c0 8.59-2.65 15.168-6.787 19.304-3.925 3.926-9.228 5.94-15.168 5.94-10.288 0-17.077-5.092-21.532-12.197m118.375-15.648c-.435-.946-17.68-38.9-18.04-39.706-.38-.85-1.067-.85-1.465.007-.24.52-17.64 38.587-18.138 39.707-.464 1.046-.41 1.638.875 1.638h35.866c1.342 0 1.337-.7.902-1.646m-54.195 23.815l31.715-68.733c.742-1.59 1.803-2.65 3.71-2.65h.214c1.91 0 2.97 1.06 3.713 2.65l31.608 68.52c.32.637.424 1.168.424 1.7 0 1.377-1.167 2.544-2.65 2.544-1.274 0-2.228-.954-2.76-2.122 0 0-7.547-16.585-7.95-17.456-.405-.87-.718-1.636-2.374-1.636H185.43c-1.57 0-1.943.734-2.366 1.633-.424.898-7.958 17.565-7.958 17.565-.53 1.274-1.378 2.016-2.65 2.016-1.38 0-2.548-1.06-2.548-2.333 0-.425.107-1.062.425-1.698M265.03 3.673c0-1.485 1.272-2.76 2.757-2.76h.848c1.167 0 2.016.638 2.758 1.593 0 0 41.916 53.426 48.78 62.237.625.803 1.285.812 1.285-.004V3.46c0-1.485 1.167-2.65 2.652-2.65s2.652 1.165 2.652 2.65v70.35c0 1.27-.955 2.332-2.228 2.332h-.424c-1.06 0-1.91-.742-2.758-1.803 0 0-48.98-62.466-49.74-63.413-.625-.782-1.28-.782-1.28.004v62.667c0 1.484-1.166 2.65-2.65 2.65-1.486 0-2.653-1.166-2.653-2.65V3.673zm89.03 69.816l-.09-69.824c0-1.485 1.274-2.758 2.758-2.758h47.944c1.38 0 2.546 1.167 2.546 2.546 0 1.378-1.166 2.545-2.546 2.545H361.2c-.918 0-1.628.825-1.628 1.635l.005 26.554c0 .976.764 1.62 1.623 1.646.858.024 38.788 0 38.788 0 1.38 0 2.547 1.166 2.547 2.546 0 1.378-1.167 2.544-2.547 2.544h-38.79c-.893 0-1.62.83-1.62 1.64v26.94c0 .965.69 1.65 1.62 1.65h44.094c1.38 0 2.546 1.167 2.546 2.546 0 1.38-1.166 2.545-2.546 2.545h-48.474c-1.485 0-2.758-1.273-2.758-2.758"/></g></svg>