<svg id="jobtalk" xmlns="http://www.w3.org/2000/svg" viewBox="0 0 500 200"><style>.st0{fill:#96C512;}</style><path class="st0" d="M176.9 104.7c-.1-.2-8.1-20.4-17.1-33.1-.4-.6-1.2-.7-1.8-.4l-3.4 2.1-.1.1c-14-6-14.9-6-15.2-6-.6 0-5 .3-9.1.7-8.8.8-9.2 1.3-9.6 1.9-.1.1-.2.3-.4.5-.4.6-1.1 1.6-1.9 2.7l-6.2 1.1c0-.2-.1-.3-.1-.4-.1-.3-.3-.5-.6-.6l-3.5-2.1c-.4-.3-1-.2-1.4 0-.4.3-.7.7-.6 1.3.6 6.6-12.5 31-13.1 32.1-.3.6-.1 1.4.4 1.7l3.9 2.7c.3.2.7.3 1.1.2.4-.1.7-.3.9-.7.2-.4.4-.7.5-1 .3.2.5.5.8.8-1 2-2.6 5.9 0 7.9 1.1.8 2.4 1.2 3.8 1.2 1.1 0 2.3-.2 3.5-.7 0 3.3 2 5.6 5.4 6.1.9.1 1.8.2 2.4.2.7 2.1 2.6 3.8 2.6 3.9.1.1.3.2.4.3.3.1 1.9.7 3.4.8.2.5.4 1 .8 1.4.9 1.3 2.6 2 4.9 2 2 0 4-.5 4.9-.8l3.2 1.4c.9.4 1.8.6 2.7.6.7 0 1.3-.1 1.9-.4 1.5-.6 2.5-1.7 3-2.6 1 .3 1.9.3 2.9.1 2.3-.5 3.9-2.4 4.8-3.8 2.2 1.6 4.6 1.7 6.6.2 2.6-1.8 3.4-4.5 2.4-8.1-.1-.3-.2-.6-.5-1.1l.3-.3c1.4 1.1 2.4 1.8 3 2.2 1 .6 2 .9 2.9.9 2.1 0 3.5-1.4 4.1-2l.1-.1c1.1-1.1 1.2-4.7-.5-8.2l.6-.5c.1 0 .1.1.2.1.4.2.9.2 1.3 0l4.7-2.7c.7-.2.9-.9.7-1.6m-3-.1l-2.2 1.2c-2.3-7.8-12.1-26.2-14.7-31l1.2-.7c7.5 10.9 14 26.4 15.7 30.5m-66.2 9.1c-1.1.6-2.4 1-3.5 1-.9 0-1.6-.2-2.2-.7-.7-.6-.3-2.3.5-4 2.1 1.8 3.8 3 5.2 3.7m49.3 3.5zm-13.7-16.3c-.5.5-.5 1.3 0 1.9 4.8 5.1 10.9 11.8 13.2 14.7 0 0 0 .1.1.2.7.9.8 1.2.8 1.2.7 2.5.3 4-1.4 5.2-1.4 1-2.8.6-4.5-1.1-1.1-1.1-12.2-11.7-12.3-11.8-.5-.5-1.4-.5-1.9 0s-.5 1.4 0 1.9c.1.1 8.9 8.4 11.6 11.1-.6 1-1.7 2.6-3.4 3-1.2.3-2.5-.2-4-1.4-6.3-5.4-9.3-8.1-9.3-8.1-.5-.5-1.4-.4-1.9.1-.5.6-.5 1.4.1 1.9 0 0 3.1 2.8 9.4 8.1.3.3.7.5 1 .8-.4.5-.9 1-1.5 1.2-.7.3-1.6.2-2.5-.2l-3.6-1.7c-.8-.4-1.5-1.3-2.2-2.3-1-1.3-2.2-2.9-4.1-3.4-.2 0-.3-.1-.5-.1-.2-2-1.5-3.8-2.9-4.7-1.1-.8-2.3-1.2-3.5-1.1-2.3-5-5.8-5.8-7.8-5.8-.7 0-1.2.1-1.2.1h-.1c-.1 0-.7.3-1.4.9-2.2-.8-6.3-4.4-8.7-6.7 8-16.1 10.5-24.1 11.1-27.9l3.8-.7c-1.4 1.6-2.7 2.9-3.9 3.9-.2.1-.3.3-.4.5-.1.2-.7 2 .4 3.6s3.5 2.4 7.1 2.3c5.1-.2 7.9-2.3 9.3-4.2 1.5.2 4.5.6 6.3.7 4.2 2.7 9 5.9 10 6.8.4.4 1.6 1.4 3.2 2.7l.2.1c5.4 4.5 15.4 12.9 17.7 15.8 2.6 3.3 2.4 6.8 2.2 7.2l-.1.1c-.7.7-1.3 1.2-2.1 1.2-.5 0-1-.2-1.6-.5-.4-.2-1.3-.8-3.5-2.6-5.2-4.1-13.8-11.7-15.5-13.2-.4-.2-1.3-.2-1.7.3m-32.9 15.3c0-.5.1-.9.2-1.3.3-.2.4-.6.4-.9.3-.4.6-.6.7-.7h.5c1.2 0 3.5.5 5.1 3.9-.2.1-.4.3-.6.4-.9.8-1.4 2-1.6 2.7-.5 0-1.1-.1-1.8-.2-2.1-.3-3.1-1.6-2.9-3.9m8.2 3.4c.5-.4 1-.6 1.5-.6.8 0 1.5.4 1.8.7 1.1.8 1.8 2 1.8 3-.7.4-1.3 1-1.6 1.7-.1.3-.3.6-.3.9-.6-.1-1.4-.3-2-.5-.7-.7-1.9-2.3-1.9-3.6-.1-.6.2-1.1.7-1.6m5.9 5.9c.2-.4.7-.7 1.2-.7.2 0 .3 0 .5.1 1 .3 1.8 1.3 2.6 2.4l.9 1.2c-2.4.4-4.2.1-4.8-.7-.6-.8-.7-1.6-.4-2.3m25.3-34.7c-1.6-1.3-2.9-2.4-3.3-2.8-1.7-1.6-10.6-7.3-10.7-7.3-.2-.1-.5-.2-.7-.2-1.3 0-3.8-.3-5.4-.5v-.1c.1-.3 0-.7-.1-1-.2-.3-.5-.5-.8-.6-.7-.2-1.5.3-1.6.9-.1.2-1.4 4.6-8.2 4.8-2.5.1-4.2-.3-4.8-1.1-.2-.3-.2-.6-.2-.9 1.9-1.6 4-3.9 6.2-6.8 1-1.3 1.8-2.4 2.3-3.2l.1-.2c2-.7 14.7-1.7 16.5-1.7.9.1 8.8 3.4 15.7 6.4h.1c2.3 4.3 12 22.5 14.2 29.9l-1.1.8c-.1-.1-.1-.2-.2-.2-2.4-3.1-12.5-11.6-18-16.2m-40.4-14.7c-.3 2.9-2.3 10.4-11.2 28.3-.1.1-.2.3-.2.3l-.6 1.2-1.7-1.2c2.4-4.6 11.4-21.9 12.7-30.2l1 .6v.2c-.1.3-.1.6 0 .8"/><path d="M192.3 103.7v-2.3h-7V82.8h6.9v-2.2h-7.8v-5.3h7.8V71h6.2v4.4h8v5.3h-8v2.2h7.3v18.6h-7.3v2.3h8.1v5.4h-8.1v8.8h-6.2v-8.8h-8.1v-5.4h8.2zM190.5 90h2.3v-2.2h-2.3V90zm0 6.4h2.3v-2.3h-2.3v2.3zm9.8-8.6h-2.4V90h2.4v-2.2zm0 6.4h-2.4v2.3h2.4v-2.3zm8.5 16.2c1.3-5.8 2.4-12.1 3.1-17.1h-5.1v-6.1h22.8v6.1h-11.2c-.9 4.9-2.2 10.7-3.7 16.2 2.4-.4 4.8-.7 7-1-.8-2.3-1.7-4.7-2.8-7.1l5.3-1.7c2.9 6 4.8 11.4 5.8 16.2l-5.9 1.9c-.2-1.4-.5-2.8-.8-4.2-5.3 1.1-12.1 2.4-16.4 3l-1.7-6c1.1.1 2.3-.1 3.6-.2m19.4-31.2H208v-6.1h20.2v6.1zm13.7 26.6V77.9h-1.7v-5.8h17.2v3.6h4.7v-4.8h5.6v4.8h4.5v4.9h-3.8l3.4 1c-.4 1.5-1 3.4-1.7 5.3h2.9c-.2-5-.3-10.3-.3-15.7h5.5v4.1l3.8-1.5c1.8 3.1 3.1 5.9 3.8 8.6l-4.6 1.6c-.5-2.6-1.5-5.3-3-8.2-.1 3.8 0 7.6.1 11.1h7.5v4.9h-7.4c.1 2.8.2 5.3.4 7.6.7-2.2 1.3-4.6 1.7-7.1l4.6 1.2c-.9 5.7-2.6 10.8-5.2 15.2.4 2 .9 3.1 1.5 3.2.5.1.7-.6.9-3.7l4.4 1.4c-.8 7.1-3 8.8-6.5 8-1.5-.4-2.7-1.8-3.7-4-1.2 1.5-2.4 2.9-3.8 4.2l-4.1-2.7c.7-.6 1.3-1.3 2-1.9H263v2h-5.1v-22h13.9v18.7c1.2-1.4 2.2-2.8 3.1-4.3-.8-4.4-1.3-9.8-1.7-16h-17.6v26.2h-5.5v-8c-3.2.8-6.9 1.7-9.3 2.3l-1.2-6.1c.7 0 1.4-.1 2.3-.2m8.3-23v-5h-3v4.9l3 .1zm0 5.5h-3v5.1h3v-5.1zm0 16.1v-5.6h-3v6.1c1.1-.1 2.1-.3 3-.5m9.3-17.6c-.2-1.7-.6-3.6-1.1-5.3l3.6-.9h-4.9v-2.7h-1.3v8.9h3.7zm6.2 0c.6-2.2 1.1-4.5 1.5-6.2h-4.5c.6 2.1 1.1 4.4 1.3 6.2h1.7zm1 11.3h-3.6v2.7h3.6v-2.7zm-3.6 10.3h3.6v-2.8h-3.6v2.8zm34.9-18l-1.7-2.4c7.4-2.8 14.9-8.2 21-16.5h2.8c6.3 8.2 14 13.4 21.5 16.5l-1.8 2.5c-7.3-3.2-14.6-8.2-21.2-16.3-6.2 8-13.3 13.2-20.6 16.2m7.9 21.8c2.6-4.8 5.1-10 6.7-13.9h-13.7v-2.6h40.2v2.6h-23.5c-1.7 3.9-4.1 9-6.7 13.7 7.3-.5 15.9-1.3 22.4-1.8-2-2.5-4.3-5-7-7.5l2.1-1.5c5.4 5.1 9.5 10 12.3 14.5l-2.5 1.6c-.9-1.6-2-3.2-3.2-4.8-9.8 1-25.2 2.4-33.6 3.1l-.7-2.9c2.1-.1 4.5-.3 7.2-.5m26-22.9h-25.7v-2.6h25.7v2.6zm36.1-6.8h-15.2v-2.4H368v2.4zm-11.1 18.1h9.6v14.2h-9.6v2.4h-2.5v-16.6h2.5zm9.1-11.3h-11.3V87H366v2.3zm0 6.7h-11.3v-2.2H366V96zm-.3-20.3h-10.4v-2.3h10.4v2.3zm-1.6 27.3h-7.2v9.4h7.2V103zm11.1 3.4v-4.9h-6.7v-2.1h6.7v-4.2c-1.9.4-3.8.8-5.3.9l-.8-1.9c3.9-.4 9.7-1.7 12.6-3l1.2 1.8c-1.4.6-3.2 1.2-5.2 1.7v4.7h7.7c-.3-2.6-.6-5.3-.8-8.2h2.5c.1 2.9.4 5.6.7 8.2h9.5v2.1h-9.2c.4 2.5.9 4.8 1.5 6.7 1.5-1.8 2.7-3.8 3.7-5.9l2 .9c-1.2 2.7-2.8 5.1-4.8 7.3 1.1 2.7 2.3 4.3 3.6 4.4.7.1 1.1-.9 1.3-4.6l2.1.7c-.5 5.1-1.5 6.4-3.8 6.2-2-.2-3.7-2-5-4.9-2.1 1.9-4.3 3.6-6.6 4.9l-1.8-1.5c2.8-1.5 5.4-3.4 7.5-5.6-.8-2.5-1.6-5.4-2.1-8.7h-8v4.5c2.1-.4 4.2-.8 5.9-1.1l.1 2c-1.8.4-3.9.8-6 1.3v6.3c0 1.6-.5 2.6-2 2.8-1 .2-3.5.2-5.3.1l-.4-2.3h4.1c.8-.1 1-.4 1-1.1v-5.4c-2.4.5-4.8.9-6.5 1.3l-.4-2.2c1.8-.3 4.3-.7 7-1.2m6.3-18.5V84h-8.9v-2h8.9v-3.8H370v-2.1h6.7c-.6-1.2-1.5-2.5-2.4-3.7l2.3-.9c1.2 1.6 2.2 3.2 2.9 4.6h6.8c1.3-1.6 2.5-3.3 3.2-4.6l2.6.8c-.7 1.2-1.8 2.6-3 3.9h6.5v2.1h-11.4V82h8.9v2h-8.9v3.9h13V90h-28.7v-2.1h13zm9 3.7c2.1 1.5 3.8 3.1 5 4.6-.9.8-1.3 1.1-1.6 1.4-1.1-1.5-2.8-3.1-4.8-4.6l1.4-1.4z"/><path class="st0" d="M186 122.5h4.5v1.6H189v6.8h-1.6v-6.8H186zm14.8 0h4.4v1.6h-2.9v1.5h2.9v1.5h-2.9v2.2h2.9v1.6h-4.4zm15.2 0h1.4l3.5 5.5v-5.5h1.6v8.4H221l-3.5-5.5v5.5H216zm21.8 1.1l-1.1 1c-.4-.6-.8-.9-1.2-.9-.2 0-.4.1-.5.2-.1.1-.2.2-.2.4 0 .1 0 .3.1.4.1.2.5.5 1.1 1.1.6.5.9.8 1.1 1 .3.3.5.6.7.9.1.3.2.6.2 1 0 .7-.2 1.3-.7 1.7-.5.4-1.1.7-1.8.7-.6 0-1.1-.1-1.5-.4-.4-.3-.8-.8-1.1-1.4l1.3-.8c.4.7.8 1.1 1.4 1.1.3 0 .5-.1.7-.2.2-.2.3-.3.3-.6 0-.2-.1-.4-.2-.6-.1-.2-.4-.5-.9-.9-.9-.7-1.5-1.3-1.7-1.7-.3-.4-.4-.8-.4-1.2 0-.6.2-1.1.6-1.5.4-.4 1-.6 1.6-.6.4 0 .8.1 1.2.3.2.2.6.5 1 1m10.9-1.1h1.6v3.2h2.7v-3.2h1.6v8.4H253v-3.7h-2.7v3.7h-1.6zm20.8-.2c1.1 0 2.1.4 3 1.3.8.9 1.2 1.9 1.2 3.1 0 1.2-.4 2.3-1.2 3.1-.8.8-1.8 1.3-3 1.3s-2.2-.4-3-1.3c-.8-.9-1.2-1.9-1.2-3.1 0-.8.2-1.5.6-2.2.4-.7.9-1.2 1.5-1.6.7-.4 1.4-.6 2.1-.6m0 1.6c-.8 0-1.4.3-1.9.8s-.8 1.2-.8 2c0 .9.3 1.7 1 2.2.5.4 1.1.6 1.7.6.7 0 1.3-.3 1.9-.8.5-.5.8-1.2.8-2s-.3-1.5-.8-2c-.5-.6-1.2-.8-1.9-.8m14.9-1.4h1.6v2.9l2.2-2.9h1.9l-2.9 3.7 3.2 4.7h-1.9l-2.5-3.7v3.7h-1.6zm16.3 0h1.6v5.4c0 .5 0 .8.1 1 .1.2.2.3.4.5.2.1.4.2.7.2.3 0 .5-.1.7-.2.2-.1.3-.3.4-.5.1-.2.1-.6.1-1.1v-5.2h1.6v5c0 .8 0 1.4-.1 1.7-.1.3-.3.6-.5.9-.3.3-.6.5-.9.7-.3.1-.7.2-1.2.2-.6 0-1.1-.1-1.5-.4-.4-.3-.8-.6-.9-1-.2-.4-.3-1.1-.3-2.1v-5.1zm29 0h1.5v2.9l2.2-2.9h1.9l-2.8 3.7 3.1 4.7h-1.9l-2.5-3.7v3.7h-1.5zm18.7 0h1.6l3.1 8.4h-1.6l-.6-1.7h-3.3l-.7 1.7h-1.6l3.1-8.4zm.8 2.2l-1.1 2.9h2.2l-1.1-2.9zm14.3-2.2h1.5v8.4h-1.5zm20 1.4l-1.1 1.1c-.7-.8-1.5-1.1-2.4-1.1-.8 0-1.5.3-2 .8s-.8 1.2-.8 2 .3 1.5.8 2c.6.6 1.3.8 2.1.8.5 0 1-.1 1.4-.3.4-.2.7-.6.9-1.1H380v-1.5h4.1v.4c0 .7-.2 1.4-.5 2.1-.4.7-.8 1.2-1.4 1.5-.6.3-1.3.5-2.1.5s-1.6-.2-2.3-.6c-.7-.4-1.2-.9-1.6-1.6-.4-.7-.6-1.4-.6-2.3 0-1.1.4-2.1 1.1-2.9.8-1 1.9-1.5 3.3-1.5.7 0 1.4.1 2 .4.5.3 1 .7 1.5 1.3m11.1-1.4h1.5v8.4h-1.5z"/></svg>
