<svg width="500" height="200" viewBox="0 0 500 200" xmlns="http://www.w3.org/2000/svg" xmlns:xlink="http://www.w3.org/1999/xlink"><title>500x200 flat svg</title><defs><path id="a" d="M.01 49.717V.053h49.44v49.664H.01z"/></defs><g transform="translate(20 20)" fill="none" fill-rule="evenodd"><rect fill="#0A1C2C" width="460" height="160" rx="8"/><g transform="translate(50 50.824)"><mask id="b" fill="#fff"><use xlink:href="#a"/></mask><path d="M38.745 19.926l-.01 10.036s-.142 1.48 1.216.794c1.358-.688 5.295-2.695 7.874-4.007 3.65-1.857.01-3.66.01-3.66l-7.9-4.04c-1.318-.675-1.19.876-1.19.876m-11.323 17.5c1.862-.894 8.052-4.123 9.438-4.832 1.878-.963.03-1.847.03-1.847l-9.44-4.867s-1.684-.902-1.61.998c.078 1.9-.01 9.427-.01 9.427s-.268 2.014 1.593 1.12m-12.89 6.467c1.86-.893 8.05-4.122 9.436-4.83 1.88-.964.032-1.848.032-1.848l-9.443-4.867s-1.683-.902-1.606.998c.074 1.9-.015 9.427-.015 9.427s-.267 2.014 1.594 1.12M1.605 37.177c1.863-.894 8.053-4.124 9.44-4.833 1.877-.962.03-1.845.03-1.845l-9.442-4.867S-.05 24.73.026 26.63c.075 1.9-.012 9.425-.012 9.425s-.267 2.016 1.592 1.122m12.937-6.46c1.863-.893 8.052-4.12 9.438-4.832 1.88-.962.034-1.844.034-1.844l-9.444-4.866s-1.682-.903-1.608.998c.077 1.9-.01 9.426-.01 9.426s-.27 2.013 1.59 1.12m12.88-6.804c1.862-.895 8.052-4.122 9.438-4.833 1.88-.962.032-1.844.032-1.844L27.45 12.37s-1.684-.904-1.607.997c.075 1.9-.014 9.427-.014 9.427s-.268 2.014 1.593 1.12M1.62 24.17c1.86-.893 8.05-4.12 9.437-4.832 1.88-.962.032-1.844.032-1.844l-9.443-4.867s-1.684-.903-1.607.996c.075 1.9-.014 9.427-.014 9.427s-.267 2.016 1.594 1.12m12.91-6.752c1.862-.893 8.052-4.122 9.438-4.832 1.88-.962.032-1.844.032-1.844l-9.444-4.87s-1.682-.902-1.607 1c.075 1.9-.013 9.426-.013 9.426s-.267 2.014 1.594 1.12M.024 39.132l.015 8.21s.237 3.762 4.008 1.817c3.774-1.947 7.66-3.894 7.66-3.894s1.086-.63-.004-1.196c-1.086-.568-10.71-5.51-10.71-5.51s-.973-.397-.97.572M.065 10.64l.008-8.21S.305-1.332 4.08.61C7.853 2.55 11.74 4.492 11.74 4.492s1.086.63 0 1.198c-1.09.57-10.706 5.522-10.706 5.522s-.972.397-.972-.572" fill="#FBC500" mask="url(#b)"/></g><g fill="#FBC500"><path d="M111.075 89.445c.373 1.77 1.19 3.236 2.452 4.4 1.26 1.163 2.825 1.745 4.693 1.745 1.496 0 2.72-.28 3.68-.838.956-.56 1.715-1.316 2.275-2.27.56-.953.957-2.07 1.19-3.35.236-1.28.35-2.64.35-4.085v-34h6.937v34.28c0 1.722-.187 3.536-.56 5.445-.375 1.91-1.075 3.676-2.102 5.307-1.028 1.628-2.464 2.977-4.308 4.048-1.846 1.07-4.216 1.605-7.11 1.605-3.784 0-6.867-.978-9.25-2.932-2.38-1.954-3.946-4.468-4.692-7.54l6.445-1.815zM163.003 100.476c-.093-.838-.163-1.78-.21-2.828-.047-1.047-.07-1.92-.07-2.617h-.14c-.84 1.77-2.253 3.27-4.24 4.503-1.984 1.234-4.19 1.85-6.62 1.85-2.146 0-4.004-.348-5.567-1.047-1.565-.698-2.85-1.663-3.854-2.897-1.005-1.235-1.75-2.665-2.24-4.294-.49-1.63-.736-3.374-.736-5.237V67.383h6.584v18.29c0 1.352.106 2.644.315 3.876.21 1.233.596 2.316 1.157 3.246.56.932 1.33 1.677 2.31 2.235.98.56 2.243.84 3.784.84 2.662 0 4.81-.99 6.445-2.97 1.636-1.977 2.453-4.618 2.453-7.924V67.384h6.585v25.97c0 .886.022 2.025.07 3.42.046 1.398.116 2.632.21 3.702h-6.235zM194.843 75.762c-.748-1.21-1.8-2.2-3.152-2.967-1.355-.768-2.872-1.152-4.553-1.152-.747 0-1.495.082-2.242.244-.748.163-1.414.42-1.996.767-.585.35-1.052.793-1.403 1.328-.35.536-.526 1.2-.526 1.99 0 1.395.633 2.432 1.893 3.106 1.262.675 3.152 1.29 5.676 1.85 1.586.374 3.055.815 4.412 1.326 1.352.513 2.533 1.152 3.537 1.92 1.002.768 1.785 1.688 2.346 2.76.56 1.07.84 2.327.84 3.768 0 1.955-.374 3.608-1.12 4.957-.75 1.35-1.742 2.454-2.978 3.314-1.238.863-2.65 1.48-4.238 1.85-1.587.372-3.222.558-4.904.558-2.522 0-4.986-.487-7.39-1.464-2.407-.98-4.402-2.467-5.99-4.468l4.694-3.98c.885 1.304 2.113 2.398 3.678 3.28 1.563.887 3.28 1.328 5.15 1.328.84 0 1.644-.082 2.415-.245.77-.163 1.472-.43 2.102-.802.63-.37 1.132-.86 1.507-1.465.373-.605.56-1.373.56-2.305 0-1.536-.736-2.676-2.207-3.42-1.47-.744-3.632-1.442-6.48-2.095-1.12-.28-2.254-.616-3.398-1.01-1.144-.397-2.183-.945-3.118-1.642-.936-.7-1.694-1.572-2.278-2.62-.584-1.046-.875-2.337-.875-3.873 0-1.768.36-3.292 1.086-4.573.724-1.28 1.67-2.327 2.837-3.14 1.167-.816 2.498-1.422 3.994-1.817 1.493-.394 3.034-.594 4.623-.594 2.382 0 4.68.466 6.9 1.396 2.218.932 3.933 2.283 5.15 4.05l-4.554 3.84zM223.37 72.76h-8.826v17.192c0 1.995.373 3.42 1.12 4.28.748.858 1.938 1.288 3.574 1.288.607 0 1.26-.063 1.962-.192.7-.13 1.33-.32 1.89-.577l.21 5.377c-.794.278-1.67.5-2.626.663-.957.163-1.95.245-2.977.245-3.13 0-5.524-.862-7.18-2.583-1.66-1.722-2.488-4.305-2.488-7.75V72.76h-6.377v-5.376h6.376V57.89h6.514v9.494h8.827v5.376zM241.865 90.423h.14l11.63-39.375h7.635l11.56 39.375h.14l10.928-39.375h7.356l-14.57 49.43h-7.218L257.42 60.752h-.143l-12.05 39.724h-7.214l-14.573-49.43h7.498M310.41 84.698c-1.638 0-3.328.07-5.08.21-1.75.14-3.34.418-4.763.837-1.426.42-2.606 1.047-3.54 1.884-.934.837-1.4 1.956-1.4 3.35 0 .978.197 1.793.594 2.444.4.654.924 1.188 1.578 1.607.654.42 1.377.71 2.17.873.796.163 1.613.245 2.455.245 3.082 0 5.452-.92 7.11-2.758 1.656-1.838 2.487-4.154 2.487-6.947v-1.745h-1.61zm1.61-5.656c0-2.465-.748-4.293-2.24-5.48-1.498-1.185-3.483-1.78-5.956-1.78-1.87 0-3.632.362-5.29 1.082-1.66.723-3.047 1.64-4.17 2.76l-3.502-4.19c1.637-1.537 3.632-2.747 5.99-3.63 2.36-.885 4.893-1.328 7.602-1.328 2.382 0 4.448.338 6.2 1.013 1.75.675 3.186 1.593 4.308 2.757 1.12 1.164 1.96 2.537 2.52 4.12.56 1.582.842 3.28.842 5.095v14.45c0 1.12.035 2.294.105 3.527.07 1.233.197 2.244.384 3.037h-5.955c-.375-1.583-.56-3.165-.56-4.748h-.21c-1.216 1.77-2.744 3.14-4.59 4.117-1.845.978-4.027 1.466-6.55 1.466-1.308 0-2.674-.174-4.097-.524-1.424-.35-2.72-.917-3.89-1.71-1.166-.79-2.135-1.84-2.906-3.143-.77-1.3-1.157-2.907-1.157-4.816 0-2.512.676-4.502 2.032-5.967 1.355-1.468 3.13-2.584 5.325-3.353 2.195-.767 4.67-1.266 7.426-1.5 2.755-.233 5.534-.35 8.337-.35v-.908zM343.123 72.76h-8.826v17.192c0 1.995.373 3.42 1.12 4.28.748.858 1.938 1.288 3.573 1.288.606 0 1.262-.063 1.962-.192.7-.13 1.33-.32 1.89-.577l.213 5.377c-.797.278-1.673.5-2.628.663-.957.163-1.95.245-2.976.245-3.13 0-5.523-.862-7.182-2.583-1.657-1.722-2.486-4.305-2.486-7.75V72.76h-6.376v-5.376h6.376V57.89h6.515v9.494h8.826v5.376zM371.426 75.762c-.702-1.07-1.752-1.965-3.152-2.688-1.4-.72-2.898-1.083-4.484-1.083-1.73 0-3.257.328-4.59.978-1.33.654-2.463 1.528-3.398 2.62-.933 1.093-1.646 2.363-2.137 3.803-.49 1.446-.735 2.96-.735 4.54 0 1.582.245 3.096.735 4.537.49 1.444 1.204 2.713 2.137 3.806.935 1.093 2.08 1.967 3.433 2.62 1.354.65 2.895.976 4.625.976 1.68 0 3.208-.327 4.588-.978 1.377-.652 2.51-1.538 3.398-2.654l4.413 3.98c-1.403 1.63-3.153 2.896-5.255 3.804-2.1.907-4.483 1.36-7.145 1.36-2.57 0-4.94-.417-7.113-1.255-2.17-.84-4.05-2.013-5.638-3.527-1.588-1.51-2.837-3.338-3.75-5.48-.91-2.14-1.364-4.537-1.364-7.19 0-2.606.444-4.98 1.33-7.12.887-2.14 2.125-3.98 3.714-5.516 1.587-1.536 3.467-2.722 5.638-3.56 2.172-.84 4.52-1.258 7.04-1.258 2.335 0 4.66.466 6.972 1.396 2.31.932 4.143 2.283 5.5 4.05l-4.764 3.84zM387.887 72.41c.795-1.628 2.147-3.023 4.063-4.187 1.915-1.164 4.063-1.747 6.447-1.747 2.147 0 3.993.362 5.534 1.083 1.542.72 2.826 1.686 3.853 2.896 1.026 1.212 1.786 2.63 2.276 4.258.49 1.63.735 3.377.735 5.236v20.527h-6.585V82.14c0-1.353-.106-2.636-.315-3.85-.21-1.213-.596-2.285-1.156-3.218-.562-.934-1.32-1.68-2.276-2.24-.96-.56-2.207-.84-3.75-.84-2.615 0-4.764.99-6.445 2.974-1.682 1.984-2.523 4.63-2.523 7.944v17.567h-6.585v-52.78h6.585V72.41h.14z"/></g></g></svg>
