<svg width="500" height="200" xmlns="http://www.w3.org/2000/svg"><linearGradient id="a" x1=".834" y1="1.078" x2=".166" y2="-.078"><stop offset="0" stop-color="#3C9EDF"/><stop offset="1" stop-color="#2C7CD3"/></linearGradient><path fill="none" d="M-1-1h502v202H-1z" vector-effect="non-scaling-stroke"/><path fill-rule="evenodd" clip-rule="evenodd" fill="url(#a)" d="M7.487 13.986h155.15c4.016 0 7.274 3.3 7.274 7.373v157.28c0 4.073-3.257 7.374-7.272 7.374H7.488c-4.018 0-7.274-3.3-7.274-7.373V21.36c0-4.073 3.256-7.374 7.273-7.374zM88.93 96.338l45.522 57.728h-30.328l-31.605-42.51-9.305 11.53v30.98H39.033V45.934h24.182v47.573l37.496-47.573h30.314L88.93 96.338z"/><path d="M232.15 154.066l-14.72-17.697-3.9 4.482v13.214h-4.83v-39.343h4.828v20.292l17.166-20.292h6.054L220.57 133.36l17.63 20.706h-6.05zm7.735-14.276c0-8.257 5.818-14.922 13.85-14.922 8.494 0 13.498 6.724 13.498 15.276v1.12H244.54c.348 5.368 4.014 9.85 10.065 9.85 3.258 0 6.458-1.297 8.727-3.657l2.095 2.89c-2.85 2.832-6.633 4.424-11.17 4.424-8.38.004-14.372-6.07-14.372-14.98zm13.79-11.265c-5.994 0-8.96 5.13-9.194 9.437h18.445c-.056-4.188-2.85-9.437-9.25-9.437zm19.723 32.677c.64.295 1.687.472 2.385.472 1.92 0 3.2-.648 4.19-3.008l1.86-4.305-11.754-28.784h4.77l9.31 23.356 9.366-23.356h4.713l-14.084 34.27c-1.687 4.13-4.538 5.72-8.26 5.782-.932 0-2.387-.176-3.143-.412l.645-4.014zm26.996-10.912l2.21-3.184c1.863 2.182 5.41 4.07 9.252 4.07 4.303 0 6.69-2.065 6.69-4.896 0-6.9-17.398-2.654-17.398-13.21 0-4.484 3.724-8.2 10.417-8.2 4.83 0 8.204 1.83 10.415 4.13l-2.037 3.066c-1.687-2.064-4.712-3.598-8.378-3.598-3.84 0-6.225 1.946-6.225 4.483 0 6.194 17.398 2.124 17.398 13.212 0 4.778-3.784 8.612-10.998 8.612-4.655 0-8.495-1.475-11.346-4.483zm30.311-2.18v-18.64h-4.655v-3.892h4.655v-7.785h4.42v7.785h5.706v3.893h-5.704v17.697c0 2.124.93 3.657 2.793 3.657 1.277 0 2.382-.59 2.966-1.238l1.28 3.362c-1.105 1.06-2.676 1.828-5.18 1.828-4.187-.002-6.28-2.42-6.28-6.667zm14.605-8.32c0-8.257 5.353-14.922 13.906-14.922s13.908 6.665 13.908 14.922-5.355 14.984-13.908 14.984-13.905-6.724-13.905-14.984zm23.218 0c0-5.78-3.317-10.97-9.312-10.97-5.993 0-9.31 5.19-9.31 10.97 0 5.84 3.317 11.03 9.31 11.03 5.995.002 9.312-5.188 9.312-11.03zm30.717 14.276v-18.638c0-5.073-2.56-6.606-6.34-6.606-3.434 0-6.634 2.123-8.32 4.424v20.82h-4.368v-28.49h4.367v4.128c1.975-2.418 5.818-4.836 10.065-4.836 5.817 0 8.9 3.008 8.9 9.2v19.998h-4.305zm11.457-14.276c0-8.257 5.82-14.922 13.85-14.922 8.495 0 13.498 6.724 13.498 15.276v1.12h-22.693c.352 5.368 4.015 9.85 10.065 9.85 3.26 0 6.46-1.297 8.73-3.657l2.095 2.89c-2.85 2.832-6.633 4.424-11.17 4.424-8.38.004-14.375-6.07-14.375-14.98zm13.792-11.265c-5.993 0-8.96 5.13-9.193 9.437h18.445c-.056-4.188-2.85-9.437-9.25-9.437zm16.87 21.707l2.563-3.716c1.63 2.065 3.898 3.893 7.273 3.893 4.77 0 7.798-3.363 7.798-8.258v-27.43h4.83v27.49c0 8.492-5.41 12.562-12.337 12.562-4.075 0-7.45-1.357-10.126-4.542zm29.21-1.71l2.907-3.775c2.505 2.95 6.692 5.662 12.166 5.662 6.92 0 9.134-3.776 9.134-6.843 0-10.145-22.982-4.482-22.982-18.522 0-6.488 5.702-10.97 13.382-10.97 5.877 0 10.473 2.064 13.736 5.544l-2.91 3.596c-2.908-3.303-6.986-4.718-11.233-4.718-4.596 0-7.968 2.536-7.968 6.252 0 8.85 22.98 3.775 22.98 18.463 0 5.662-3.84 11.563-14.31 11.563-6.7-.002-11.7-2.598-14.9-6.254z" fill="#1A1A1A"/></svg>