<svg xmlns="http://www.w3.org/2000/svg" viewBox="0 0 500 200"><path fill="#fff" d="M1.29.59h500v200h-500z"/><path d="M349.726 127.516c0 1.958-1.498 3.456-3.456 3.456s-3.455-1.498-3.455-3.456 1.497-3.455 3.455-3.455 3.456 1.613 3.456 3.456m6.104-16.357v-.115c0-10.942 8.64-20.272 19.927-20.272 6.45 0 10.827 2.534 14.282 5.644.46.346.92 1.152.92 2.074 0 1.613-1.267 2.765-2.764 2.765-.806 0-1.382-.346-1.843-.69-2.764-2.535-5.99-4.724-10.596-4.724-7.948 0-13.937 6.682-13.937 15.09v.115c0 8.408 6.22 15.09 14.282 15.09 4.492 0 7.948-2.074 10.827-4.723.345-.346.92-.807 1.612-.807 1.382 0 2.65 1.267 2.65 2.65 0 .69-.347 1.382-.807 1.842-3.686 3.686-8.178 6.22-14.628 6.22-11.288 0-19.927-9.33-19.927-20.157m38.932-.002v-.115c0-10.942 8.64-20.272 20.273-20.272s20.272 9.215 20.272 20.157v.115c0 10.942-8.64 20.272-20.387 20.272-11.748 0-20.157-9.214-20.157-20.157m34.556 0v-.115c0-8.408-6.22-15.204-14.398-15.204-8.408 0-14.282 6.797-14.282 15.09v.115c0 8.408 6.22 15.09 14.397 15.09 8.408 0 14.283-6.797 14.283-14.975m11.863-16.817a2.852 2.852 0 0 1 2.88-2.88 2.852 2.852 0 0 1 2.878 2.88v4.03c2.534-3.8 5.99-7.37 12.555-7.37 6.335 0 10.366 3.34 12.44 7.717 2.764-4.26 6.91-7.716 13.706-7.716 8.983 0 14.397 5.99 14.397 15.664v21.54a2.852 2.852 0 0 1-2.88 2.88 2.852 2.852 0 0 1-2.88-2.88V108.05c0-7.486-3.8-11.748-10.135-11.748-5.875 0-10.712 4.377-10.712 12.094v19.926a2.852 2.852 0 0 1-2.88 2.88 2.852 2.852 0 0 1-2.88-2.88v-20.27c0-7.258-3.8-11.635-10.02-11.635s-10.827 5.068-10.827 12.325v19.696c0 1.612-1.152 2.88-2.88 2.88-1.727 0-2.88-1.268-2.88-2.88V94.344z" fill="#ec1e3b"/><g fill="#ec1c3b"><path d="M110.265 69.12c-1.843-1.843-5.068-1.843-6.91.115-.923.92-1.383 2.188-1.383 3.455s.576 2.534 1.497 3.455c5.297 5.184 8.177 12.094 8.177 19.466 0 14.975-12.21 27.184-27.183 27.184-14.973 0-27.182-12.21-27.182-27.183 0-7.37 2.88-14.28 8.177-19.465 1.957-1.842 1.957-4.952.115-6.91-1.843-1.843-5.068-1.843-6.91-.116-7.142 7.025-11.174 16.355-11.174 26.376 0 20.387 16.587 36.973 36.974 36.973 20.387 0 36.973-16.587 36.973-36.974 0-10.02-4.03-19.35-11.172-26.377z"/><path d="M84.464 93.192c2.65 0 4.838-2.188 4.838-4.837V58.408c0-2.65-2.19-4.838-4.838-4.838-2.65 0-4.837 2.188-4.837 4.838v29.83c-.116 2.65 2.073 4.954 4.837 4.954z"/></g><path d="M189.28 66.47c-2.766 0-5.07 2.304-5.07 5.068v3.916c-3.224-3.455-6.68-5.99-10.135-7.602-4.147-1.958-8.754-2.994-13.476-2.994-5.76 0-11.404 1.497-16.587 4.492a33.86 33.86 0 0 0-12.325 12.21c-2.994 5.067-4.492 10.71-4.492 16.7 0 5.874 1.382 11.403 4.262 16.356 2.88 4.953 6.91 8.984 12.094 11.863 5.183 2.88 10.827 4.376 16.7 4.376 5.07 0 9.907-1.036 14.284-3.11 3.57-1.727 6.795-4.03 9.444-6.795v.23c0 6.682-.806 11.52-2.303 14.4-1.497 2.878-4.03 5.297-7.602 7.255-3.57 1.958-8.063 2.88-13.246 2.88-5.3 0-9.79-.922-13.362-2.88-1.843-.92-3.455-2.188-4.837-3.57l-2.764-3.34c-.92-1.498-2.534-2.304-4.26-2.304-2.766 0-5.07 2.304-5.07 5.07 0 .92.23 1.842.807 2.763l.806 1.037c1.15 1.612 2.303 2.994 3.57 4.146 2.764 2.65 6.335 4.723 10.827 6.335 4.377 1.498 9.33 2.305 14.743 2.305 7.487 0 13.937-1.613 19.235-4.838 5.414-3.225 9.215-7.832 11.403-13.822 1.612-4.146 2.304-10.71 2.304-19.58V71.538c.115-2.764-2.19-5.068-4.953-5.068zm-4.724 31.675c0 6.91-2.188 12.44-6.45 16.7-4.26 4.148-9.905 6.336-16.93 6.336-6.912 0-12.67-2.187-17.048-6.334-4.377-4.26-6.565-9.675-6.565-16.125 0-4.26 1.036-8.292 3.225-11.978 2.073-3.686 5.068-6.565 8.753-8.638 3.687-2.074 7.72-3.11 12.095-3.11 4.147 0 8.063 1.036 11.634 3.11 3.57 2.073 6.334 4.837 8.292 8.293 1.958 3.225 2.994 7.256 2.994 11.748zm78.324-31.56c-2.765 0-5.07 2.304-5.07 5.068v4.377c-2.763-3.225-5.873-5.76-9.328-7.602-4.262-2.303-9.1-3.34-14.398-3.34-9.1 0-17.047 3.34-23.497 9.906-6.45 6.565-9.79 14.512-9.79 23.727 0 9.446 3.225 17.508 9.675 24.074 6.45 6.565 14.282 9.905 23.382 9.905 5.068 0 9.905-1.037 14.167-3.226 3.456-1.728 6.797-4.146 9.79-7.256v3.916c0 2.764 2.305 5.068 5.07 5.068 2.764 0 5.067-2.304 5.067-5.068v-54.48c-.115-2.765-2.303-5.07-5.068-5.07zm-4.608 32.597c0 4.492-1.037 8.638-2.995 12.21-1.958 3.57-4.952 6.45-8.638 8.522-3.687 2.073-7.718 3.225-11.865 3.225-4.146 0-8.062-1.037-11.633-3.226-3.57-2.073-6.565-5.183-8.64-8.984-2.187-3.8-3.224-7.832-3.224-12.094s1.037-8.293 3.225-12.094a22.852 22.852 0 0 1 8.64-8.87c3.57-2.072 7.6-3.11 11.747-3.11 6.566 0 12.21 2.305 16.702 6.912 4.376 4.723 6.68 10.597 6.68 17.508zm71.643-20.387c-1.843-4.147-4.608-7.602-8.41-10.02-3.8-2.42-8.176-3.687-13.014-3.687-4.72 0-9.214 1.152-13.245 3.34-3.225 1.728-6.22 4.262-8.984 7.487v-4.03c0-2.766-2.303-5.07-5.067-5.07-2.764 0-5.068 2.304-5.068 5.07v54.25c0 2.763 2.304 5.067 5.068 5.067s5.068-2.304 5.068-5.068V107.36c0-8.063.347-13.707 1.153-16.702 1.152-4.492 3.57-8.293 7.256-11.287 3.57-2.994 7.716-4.607 12.324-4.607 3.916 0 7.256.922 9.675 2.88 2.418 1.958 4.03 4.837 4.952 8.754.575 2.303.806 7.026.806 14.052v25.684c0 2.764 2.303 5.068 5.068 5.068 2.764 0 5.068-2.304 5.068-5.068v-27.99c.115-8.753-.807-15.203-2.65-19.35zM45.072 122.68L16.968 97.57l26.03-22.692c1.96-1.727 2.19-4.837.462-6.795-1.728-1.958-4.838-2.19-6.796-.46l-26.49 23.035V49.884c0-2.764-2.305-5.068-5.07-5.068-2.764 0-5.067 2.304-5.067 5.068v76.02c0 2.764 2.303 5.068 5.068 5.068 2.764 0 5.068-2.304 5.068-5.068v-21.54l28.334 25.456c.922.806 2.073 1.267 3.225 1.267 1.382 0 2.65-.576 3.57-1.613 1.96-2.073 1.728-5.068-.23-6.795z" fill="#414042"/></svg>