<svg id="Layer_1" xmlns="http://www.w3.org/2000/svg" viewBox="0 0 500 200"><style>.st0{fill:#FE5B5F;}</style><path class="st0" d="M164.7 85.1c-4.2-3.8-7.9-4-9.5-4-2-.2-4 .5-5.5 1.9-.9 1-1.5 2.2-1.5 3.6-.1 1.2.4 2.3 1.3 3.2 1.4 1.3 3.3 1.8 7 3.2l4.2 1.6c2.8.9 5.4 2.4 7.7 4.3 2.8 2.8 4.3 6.6 4.1 10.5 0 5.9-2 10.9-5 14-5 5.3-12.3 5.7-16 5.7-3.9.2-7.7-.6-11.2-2.3-3.1-1.6-5.8-3.7-8.3-6.2l6.9-9.3c1.6 1.6 3.4 3.1 5.3 4.3 2.1 1.4 4.5 2 7 2 2.1.1 4.2-.6 5.9-1.9 1.3-1.1 2.1-2.8 2-4.6 0-1.6-.7-3.1-1.9-4-1.5-1.3-5-2.6-6.6-3.2l-4.7-1.6c-2.6-1-5.7-2.1-7.9-4.5-2.3-2.8-3.6-6.2-3.4-9.9-.2-4.8 1.6-9.3 4.9-12.7 4.1-4 8.9-5.2 14.2-5.2 6.1-.1 12 1.9 16.8 5.6l-5.8 9.5zM239.1 117.1h-21.4l-4.3 10.7h-13.6l22.8-56.6h12l22.3 56.6h-13.6l-4.2-10.7zm-3.5-10l-7-19-7 19h14zM301.9 71.3v45.6h17.6v11h-30.7V71.3h13.1zM400.7 78.2c5.7 5.7 8.9 13.4 8.8 21.4.1 8-3.2 15.6-8.8 21.2-5.3 5.1-12.4 8.3-21.9 8.3-10.6 0-17.8-4.2-22.1-8.3-5.7-5.5-8.9-13.1-8.8-21 .1-8 3.2-15.7 8.7-21.4 3.9-3.9 10.9-8.4 22.2-8.4 8.9 0 16.2 2.6 21.9 8.2zm-34.4 8.7c-3.4 3.4-5.2 8-5 12.8-.2 4.8 1.7 9.4 5.2 12.7 3.2 3.2 7.6 4.9 12.1 4.7 4.7.2 9.2-1.6 12.5-4.9 3.3-3.3 5.1-7.9 4.9-12.6.1-4.7-1.7-9.3-4.9-12.7-3.4-3.2-7.9-4.9-12.5-4.9-4.5-.1-9 1.6-12.3 4.9zM444.8 127.9V71.3h11.4l30.8 36.6V71.3h13v56.6h-11.3l-30.8-36.7v36.7h-13.1zM79.5 112.7c-.2 1.1-.2 2.2-.2 3.3 0 2.3.9 4.5 2.5 6 1.6 1.6 3.8 2.5 6.1 2.5 1.9 0 3.8-.4 5.5-1.1 2.8-1.5 5.4-3.2 7.9-5.2l.8 1.1c-6.3 6.2-12.3 9.4-18 9.4-3.9 0-6.8-1.2-8.7-3.6-1.9-2.3-2.9-5.1-2.9-8.1.1-4.3 1.4-8.5 3.6-12.1 2.3-3.9 5.4-7.2 9.2-9.6 3.4-2.2 7.4-3.4 11.4-3.4 2.8 0 4.9.6 6.2 1.7 1.3 1 2 2.4 2 4-.1 2.3-1 4.6-2.6 6.3-2.3 2.6-5.7 4.8-10.2 6.4-4.2 1.1-8.4 2-12.6 2.4zm.2-2c3.3-.3 6.6-1.1 9.6-2.3 2.8-1.1 5.3-3 7.4-5.3 1.6-2 2.4-4 2.4-5.8.1-1-.3-2-1.1-2.8-.8-.7-1.9-1.1-3-1.1-2.7 0-5.6 1.5-8.7 4.3-3 3-5.1 7.4-6.6 13zM41.9 128.6H-1l.6-1.6c1.5.1 3.1-.2 4.5-.6 1.1-.4 1.9-1.1 2.7-2 .9-1.3 1.8-3.6 2.8-7.1l10.2-35.2c.7-2.1 1.1-4.2 1.3-6.4.1-1-.4-1.9-1.2-2.5s-2.3-.9-4.4-.9h-1.1l.5-1.6h23.6l-.3 1.6c-2.7 0-4.5.2-5.7.8-1.1.6-2 1.5-2.7 2.5-.6.8-1.4 3.2-2.6 7.2l-10 34.6c-.6 1.8-1 3.6-1.2 5.4.1.8.5 1.5 1.1 1.9.5.4 1.6.6 3.3.6H26c4 0 7.3-.5 9.7-1.5 1.9-.8 3.5-2 4.9-3.5 1.5-2 3-4.1 4.2-6.4l1.1-1.9h1.6l-5.6 16.6z"/></svg>
