<svg xmlns="http://www.w3.org/2000/svg" viewBox="0 0 500 200"><path d="M33.59 133.11V69.42h9v55.47h20.17v8.22zm39.2 0V69.42h9.08v63.69zm52.87 0-1.72-4.88c-2.2 4.11-6.69 6.31-12.43 6.31C100.41 134.55 95 126.8 95 117V85.49c0-9.37 5.83-17.4 17.79-17.4s17 7.17 17 17.4v3.73h-8.61v-4.78c0-4.3-2.48-8.32-8.42-8.32s-8.7 4.21-8.7 8.51v33.28c0 4.4 2.68 8.6 8.7 8.6s8.8-4.21 8.8-8.6v-9.85H113v-7.65h17.12v32.71zm43.57 0-3.35-15.59h-13.77l-3.35 15.59H140l14.44-63.69H164l14.44 63.69zM159 83.67l-5.26 26.11h10.52zm69.24 49.44h-18V69.42h18c11.86 0 17 7.36 17 17.21v29.27c.02 9.85-5.14 17.21-17 17.21zm8-46c0-6-2.68-9.37-8.61-9.37h-8.32v47.05h8.32c5.93 0 8.61-3.35 8.61-9.27zm22.2 46V69.42h9.08v63.69zm53.33 0-1.72-4.88c-2.2 4.11-6.69 6.31-12.43 6.31-11.09 0-16.55-7.74-16.55-17.5V85.49c0-9.37 5.83-17.4 17.79-17.4s17 7.17 17 17.4v3.73h-8.61v-4.78c0-4.3-2.48-8.32-8.42-8.32s-8.7 4.21-8.7 8.51v33.28c0 4.4 2.68 8.6 8.7 8.6s8.8-4.21 8.8-8.6v-9.85h-8.51v-7.65h17.12v32.71zm19.89.03V69.45h9.08v63.69zm43.17-55.36v55.37h-9.08V77.78h-13.1v-8.32h35.19v8.32zm46.02 55.37-3.35-15.59h-13.77l-3.35 15.59h-8.8L406 69.46h9.56L430 133.15zm-10.23-49.44-5.26 26.11h10.52zm30.21 49.44V69.46h9v55.47H470v8.22zM187.79 74.96h8.02v8.72h-8.02zm0 44.49h8.02v8.72h-8.02z" style="fill:#1d1d1b"/></svg>