<svg width="500" height="200" xmlns="http://www.w3.org/2000/svg"><path fill="none" d="M-1-1h502v202H-1z"/><path d="M141.33 1h20.26v134.456h80.122v16.577H141.33V1zm155.637 39.6c13.814-1.842 28.55.92 39.6 10.13 11.973 8.289 18.42 23.023 19.34 36.837 1.842 16.577 0 33.154-9.21 46.968-8.288 11.051-21.18 18.418-35.916 19.34-13.814 1.841-29.47-.922-41.441-10.13-11.052-9.21-16.577-23.024-18.42-36.838-1.84-14.735 0-31.312 9.21-44.205 7.368-12.893 22.103-21.181 36.837-22.102z"/><path fill="#fff" d="M299.73 56.256c9.21-.921 19.34 1.842 26.707 8.288 6.447 7.368 10.13 16.577 11.051 25.786.921 10.13 0 21.182-4.604 30.39s-12.893 15.657-23.024 17.499c-9.209 1.841-19.34-.921-25.786-6.447-7.367-5.525-11.972-13.814-13.814-22.102-1.841-11.972-.92-23.944 3.684-34.996 4.605-10.13 14.735-17.497 25.786-18.418z"/><path fill="#3492ff" d="M141.33 175.977h217.34V199H141.33v-23.023z"/></svg>