<svg width="500" height="200" viewBox="0 0 500 200" xmlns="http://www.w3.org/2000/svg"><path d="M347.136 118.124c-9.977 0-17.267-3.327-21.489-8.959-3.197-4.223-4.604-9.727-4.604-18.558V69H304V55h17.043V38H337v17h21v14h-21v23.527c.67 3.839 1.31 6.143 2.718 7.807 1.663 1.92 4.348 3.072 8.442 3.072 2.43 0 5.627-.384 6.779-.641l2.557 14.079c-2.175.767-7.163 1.28-10.36 1.28zm-92.1-20.222c4.22 3.84 10.743 6.144 17.012 6.144 4.477 0 7.93-2.176 7.93-5.248 0-9.343-30.058-6.015-30.058-25.981 0-11.902 11.511-19.326 23.79-19.326 8.059 0 16.883 3.072 20.978 6.272l-7.803 12.03c-3.198-2.303-7.419-4.223-11.895-4.223-4.605 0-8.443 1.792-8.443 4.991 0 8.064 30.058 4.864 30.058 26.365 0 11.903-11.64 19.198-24.685 19.198-8.57 0-17.652-2.943-24.943-8.319l8.059-11.903zm-53.71 12.671L173.57 55h18.29l18.164 37.015L226.78 55h17.522l-42.72 93h-17.395l17.14-37.427zM142 26h16v66.527c.628 3.839 1.268 6.143 2.675 7.807 1.663 1.92 4.348 3.072 8.442 3.072 2.43 0 5.627-.384 6.779-.641l2.557 14.079c-2.174.767-7.162 1.28-10.36 1.28-9.977 0-17.266-3.328-21.488-8.959-3.198-4.223-4.605-9.727-4.605-18.558V26zm0 132h270v16H142v-16z" fill-rule="evenodd"/></svg>