<svg width="177" height="221" viewBox="0 0 177 221" xmlns="http://www.w3.org/2000/svg"><g fill="none" fill-rule="evenodd"><g transform="translate(13.344)"><path d="M87.743 82.508l16.89-39.95c.2-.48.76-.707 1.243-.506a.94.94 0 0 1 .51 1.233L91.502 78.487l-3.76 4.02z" fill="#939598"/><path d="M102.313 62.177S94.23 72.77 88.525 78.89c-5.71 6.122-14.03 15.774-14.03 15.774v21.58c.06-.004.115-.016.175-.016 1.38 0 2.497 1.106 2.497 2.47 0 1.367-1.118 2.473-2.497 2.473-.06 0-.115-.014-.175-.018v21.772s10.478-7.12 18.068-14.008c8.558-7.767 18.07-19.895 18.07-19.895l-8.32-46.843z" fill="#931A2B"/><path d="M68.562 22.69l-.078 8.413-30.533 12.23.537-7.475 30.075-13.17z" fill="#A7A9AC"/><path d="M110.98 35.564l.595 7.472-30.687-11.984-.144-8.41 30.237 12.922zM74.64 20.03l.032 8.593-44.665-17.445.927-9.832L74.64 20.03zM30.934 1.346l-.927 9.832-5.923 3.495 1.024-9.6 5.826-3.727z" fill="#BCBEC0"/><path d="M118.147.98l1 9.826-44.475 17.817-.033-8.594L118.146.98z" fill="#A7A9AC"/><path d="M124.018 4.66l1.098 9.593-5.968-3.447-1-9.825 5.87 3.68z" fill="#BCBEC0"/><path d="M44.03 45.052l-6.08-1.718 30.534-12.23-44.4-16.43 5.923-3.496 44.665 17.445 44.476-17.817 5.968 3.447-44.228 16.8 30.687 11.983-6.065 1.768-30.81-11.4L44.03 45.05z" fill="#808285"/><path d="M24.566 69.727c-.032 0-.064 0-.095-.005a.943.943 0 0 1-.852-1.03l5.443-54.31a.942.942 0 0 1 1.04-.843c.522.05.904.512.852 1.028l-5.442 54.31a.948.948 0 0 1-.944.85zm97.87 0a.948.948 0 0 1-.948-.885l-3.29-54.683a.945.945 0 0 1 .892-.998.94.94 0 0 1 1.008.884l3.287 54.68a.944.944 0 0 1-.89.998c-.02.003-.04.003-.06.003zM58.9 80.656l-15.745-37.12a.942.942 0 0 1 .507-1.235.957.957 0 0 1 1.246.505l17.476 41.2-3.483-3.35z" fill="#939598"/><path d="M72.176 118.7c0-1.306 1.024-2.364 2.32-2.455v-21.58s-8.323-9.653-14.03-15.775c-5.706-6.12-13.79-16.713-13.79-16.713l-8.32 46.848s9.51 12.127 18.068 19.894c7.59 6.887 18.07 14.007 18.07 14.007v-21.773c-1.293-.09-2.318-1.15-2.318-2.454z" fill="#A81E2C"/><path d="M74.67 120.112a.956.956 0 0 1-.646-.25l-32.77-30.128-.01-2.578 33.42 30.72L107.66 86.79l.133 2.472-32.468 30.588a.945.945 0 0 1-.657.262z" fill="#939598"/><path d="M143.21 68.768l-40.897-6.59s3.804 21.657 3.804 57.91c0 36.257-4.993 60.974-4.993 60.974l41.373-4.473s5.23-19.78 5.23-53.914c-.003-34.133-4.518-53.908-4.518-53.908zm-18.904 95.58a2.009 2.009 0 0 1-2.02-2c0-1.102.904-2 2.02-2a2.01 2.01 0 0 1 2.02 2c0 1.104-.903 2-2.02 2zm-81.434-44.261c0-36.253 3.804-57.91 3.804-57.91L5.78 68.767s-4.517 19.776-4.517 53.91c0 34.137 5.23 53.914 5.23 53.914l41.372 4.475c0-.003-4.993-24.72-4.993-60.978zm-18.948 44.13a1.878 1.878 0 0 1-1.885-1.868c0-1.03.843-1.867 1.884-1.867 1.04 0 1.884.836 1.884 1.866a1.876 1.876 0 0 1-1.884 1.866z" fill="#CE2227"/><ellipse fill="#A51724" cx="124.306" cy="80.657" rx="1.869" ry="1.85"/><path d="M124.308 163.29a.944.944 0 0 1-.222-.028.942.942 0 0 1-.706-1.134c.03-.116 2.828-12.15 2.828-40.017 0-27.922-2.804-41.128-2.832-41.256a.952.952 0 0 1 1.86-.397c.03.13 2.874 13.535 2.874 41.654 0 28.133-2.76 39.96-2.878 40.45a.949.949 0 0 1-.924.73z" fill="#939598"/><ellipse fill="#A51724" cx="23.924" cy="80.657" rx="2.192" ry="2.17"/><path d="M23.922 163.29a.952.952 0 0 1-.94-.803c-.023-.157-2.388-16.012-2.388-40.867 0-24.855 2.365-40.94 2.388-41.1a.949.949 0 0 1 1.08-.793c.52.075.88.555.803 1.068-.025.16-2.368 16.12-2.368 40.827 0 24.717 2.345 40.434 2.367 40.586.08.51-.28.995-.8 1.072-.048.004-.096.01-.142.01z" fill="#939598"/></g><path d="M167.843 194.876c-4.492 0-8.13 3.544-8.13 7.923 0 1.753.59 3.368 1.58 4.68.085.01.18.02.264.02.392 0 .796-.05.9-.748l.95-6.543h3.144l-.938 6.542c-.25 1.734-1.154 2.47-2.15 2.713a8.248 8.248 0 0 0 4.378 1.254c4.49 0 8.13-3.547 8.13-7.922.003-4.378-3.636-7.922-8.127-7.922zm-4.37 4.685l.287-2.007h3.234l-.286 2.008h-3.234zm9.547 4.93c0 1.678-1.42 2.62-3.494 2.62-1.188 0-2.152-.307-2.936-.777l.563-1.93c.523.407 1.383.686 2.06.686.418 0 .64-.105.64-.242 0-.472-2.517.025-2.517-2.185 0-1.69 1.474-2.617 3.547-2.617 1.004 0 1.8.215 2.517.545l-.547 1.843a4.517 4.517 0 0 0-1.787-.405c-.17 0-.61.014-.61.217-.004.505 2.564-.003 2.564 2.246z" fill="#939598"/><path d="M37.636 220.15l.11-13.64h-.083l-5.06 13.64h-3.3l-4.923-13.64h-.083l.11 13.64h-4.428v-19.276h6.69l4.434 12.36h.11l4.24-12.36h6.8v19.277h-4.618zm7.094-11.708a7.926 7.926 0 0 1 2.82-1.715 9.722 9.722 0 0 1 3.287-.57c1.154 0 2.13.14 2.928.42.798.282 1.444.72 1.94 1.307.494.59.856 1.334 1.085 2.233.23.898.344 1.966.344 3.2v6.834H53.01v-1.44h-.083c-.348.562-.875 1-1.58 1.307a5.706 5.706 0 0 1-2.297.462c-.55 0-1.118-.075-1.705-.22a5.045 5.045 0 0 1-1.61-.708 3.867 3.867 0 0 1-1.196-1.307c-.312-.542-.468-1.217-.468-2.013 0-.98.27-1.77.812-2.37.54-.6 1.236-1.06 2.09-1.388.853-.327 1.8-.544 2.846-.654a29.99 29.99 0 0 1 3.053-.162v-.22c0-.67-.24-1.164-.715-1.482-.477-.317-1.064-.476-1.76-.476-.643 0-1.262.138-1.857.407a5.95 5.95 0 0 0-1.525.98l-2.284-2.425zm8.278 5.802h-.577c-.493 0-.994.02-1.498.068a6.27 6.27 0 0 0-1.347.258c-.395.128-.72.312-.977.56-.257.243-.385.565-.385.966 0 .255.06.473.18.652.118.183.27.327.453.436.184.107.394.187.632.23.238.045.468.067.69.067.915 0 1.615-.248 2.103-.748.485-.497.73-1.175.73-2.027l-.002-.46zm15.317-3.976c-.2-.056-.398-.09-.59-.11a6.08 6.08 0 0 0-.565-.025c-.605 0-1.113.11-1.526.326a3.102 3.102 0 0 0-.99.785 2.98 2.98 0 0 0-.536 1.006 3.34 3.34 0 0 0-.164.95v6.954h-4.512V206.61h4.346v1.96h.055a4.433 4.433 0 0 1 1.485-1.698c.642-.438 1.384-.66 2.23-.66.18 0 .36.01.535.027.172.02.315.044.426.08l-.195 3.948zm6.903-8.005c0 .347-.067.668-.207.968-.135.302-.318.56-.548.778a2.697 2.697 0 0 1-1.829.707c-.732 0-1.347-.24-1.842-.723-.494-.48-.743-1.055-.743-1.73a2.328 2.328 0 0 1 .744-1.713c.24-.22.514-.395.826-.53.312-.138.65-.205 1.017-.205.348 0 .683.062 1.003.19.322.127.596.3.826.517.23.218.413.476.55.775.14.298.206.62.206.966zm-4.84 17.888v-13.558h4.51v13.56h-4.51zm21.506-6.831c0 1.106-.202 2.11-.606 3.007-.404.9-.953 1.66-1.65 2.288a7.542 7.542 0 0 1-2.42 1.457 8.267 8.267 0 0 1-2.943.518 8.307 8.307 0 0 1-2.93-.518 7.343 7.343 0 0 1-2.42-1.457 6.8 6.8 0 0 1-1.636-2.288c-.405-.898-.607-1.9-.607-3.007 0-1.106.2-2.106.606-2.997.4-.89.947-1.64 1.634-2.26a7.134 7.134 0 0 1 2.422-1.415 8.706 8.706 0 0 1 2.93-.49c1.044 0 2.025.162 2.942.49a7.291 7.291 0 0 1 2.42 1.415 6.7 6.7 0 0 1 1.65 2.26c.403.888.606 1.888.606 2.997zm-4.346 0a3.82 3.82 0 0 0-.22-1.28 3.362 3.362 0 0 0-.632-1.103 3.261 3.261 0 0 0-1.018-.776c-.403-.198-.872-.298-1.402-.298-.532 0-1 .1-1.403.3a3.1 3.1 0 0 0-1.004.775 3.327 3.327 0 0 0-.606 1.102 4.074 4.074 0 0 0 0 2.558c.138.417.345.796.618 1.132.274.336.615.602 1.02.804.4.2.87.3 1.4.3.533 0 1-.1 1.402-.3a3.05 3.05 0 0 0 1.018-.804c.276-.336.482-.715.62-1.132.137-.417.206-.844.206-1.278zm14.549 6.83v-7.404c0-.382-.033-.745-.097-1.09a3.044 3.044 0 0 0-.316-.913 1.656 1.656 0 0 0-.62-.626c-.266-.153-.6-.23-1.002-.23-.403 0-.756.077-1.06.23a2.126 2.126 0 0 0-.756.64 2.9 2.9 0 0 0-.454.94c-.102.353-.15.722-.15 1.102v7.35h-4.537v-13.56h4.373v1.88h.054c.164-.29.382-.575.647-.856.265-.282.577-.523.935-.723a5.91 5.91 0 0 1 1.17-.49c.42-.125.87-.19 1.348-.19.915 0 1.694.162 2.338.49.642.328 1.16.75 1.553 1.266.396.517.68 1.112.855 1.784a8.05 8.05 0 0 1 .26 2.014v8.386h-4.54zm20.433-6.616v.547c0 .182-.008.352-.025.518h-9.93c.037.383.15.725.344 1.034.19.31.44.577.743.805.302.228.64.405 1.018.53.374.13.766.19 1.168.19.716 0 1.32-.13 1.817-.393a3.606 3.606 0 0 0 1.21-1.02l3.135 1.962a6.35 6.35 0 0 1-2.545 2.136c-1.053.5-2.278.748-3.67.748a8.835 8.835 0 0 1-2.915-.476 7.017 7.017 0 0 1-2.405-1.387 6.416 6.416 0 0 1-1.623-2.247c-.395-.89-.59-1.906-.59-3.05 0-1.106.19-2.11.576-3.007a6.807 6.807 0 0 1 1.568-2.288 7.053 7.053 0 0 1 2.336-1.457c.9-.345 1.87-.518 2.915-.518 1.01 0 1.936.167 2.78.503a6.047 6.047 0 0 1 2.17 1.458c.607.637 1.078 1.408 1.418 2.315.336.903.506 1.94.506 3.1zm-4.15-1.713c0-.708-.227-1.314-.677-1.824-.448-.508-1.122-.763-2.02-.763a3.4 3.4 0 0 0-1.21.205c-.368.136-.69.322-.963.558a2.764 2.764 0 0 0-.66.832 2.386 2.386 0 0 0-.275.993h5.804zm10.75-1.906v5.194c0 .638.125 1.115.372 1.434.248.32.692.478 1.333.478.22 0 .455-.02.702-.055.247-.037.454-.092.62-.163l.054 3.265c-.312.11-.705.205-1.182.287-.478.08-.953.122-1.43.122-.918 0-1.688-.116-2.312-.343-.623-.228-1.123-.556-1.5-.984a3.855 3.855 0 0 1-.81-1.527 7.399 7.399 0 0 1-.248-1.98v-5.732h-2.2v-3.323h2.174v-3.565h4.427v3.566h3.217v3.324h-3.216zm10.673 0v5.194c0 .638.123 1.115.37 1.434.248.32.692.478 1.334.478.22 0 .454-.02.7-.055a2.53 2.53 0 0 0 .62-.163l.055 3.265c-.312.11-.705.205-1.184.287-.478.08-.952.122-1.43.122-.917 0-1.688-.116-2.31-.343-.624-.228-1.124-.556-1.5-.984a3.818 3.818 0 0 1-.81-1.527 7.319 7.319 0 0 1-.248-1.98v-5.732h-2.2v-3.323h2.172v-3.565h4.43v3.566h3.215v3.324h-3.214zm18.37 3.619v.547c0 .182-.01.352-.028.518h-9.93c.038.383.152.725.345 1.034.192.31.44.577.744.805.302.228.64.405 1.017.53.377.13.767.19 1.17.19.715 0 1.32-.13 1.814-.393.496-.264.9-.603 1.212-1.02l3.135 1.962a6.33 6.33 0 0 1-2.543 2.136c-1.055.5-2.28.748-3.67.748-1.027 0-2-.158-2.916-.476a7.04 7.04 0 0 1-2.404-1.387 6.377 6.377 0 0 1-1.622-2.247c-.396-.89-.593-1.906-.593-3.05 0-1.106.194-2.11.578-3.007a6.826 6.826 0 0 1 1.57-2.288 7.023 7.023 0 0 1 2.336-1.457 8.06 8.06 0 0 1 2.914-.518c1.008 0 1.935.167 2.778.503a6.077 6.077 0 0 1 2.173 1.458c.605.637 1.075 1.408 1.415 2.315.338.905.508 1.94.508 3.1zm-4.152-1.713c0-.708-.225-1.314-.673-1.824-.45-.508-1.123-.763-2.022-.763-.44 0-.844.067-1.21.205-.368.136-.69.322-.963.558a2.795 2.795 0 0 0-.66.832 2.384 2.384 0 0 0-.274.993h5.803z" fill="#CF251F"/></g></svg>