<svg xmlns="http://www.w3.org/2000/svg" width="500" height="200" viewBox="-1 0 1036 221"><path fill="#777" d="M1033.75 99.84V81.66h-22.58V53.4l-.76.23-21.2 6.5-.4.1v21.43h-33.5V69.73c0-5.56 1.3-9.8 3.7-12.64 2.5-2.8 5.9-4.3 10.4-4.3 3.2 0 6.5.7 9.8 2.2l.9.3v-19l-.4-.2c-3.1-1.1-7.3-1.7-12.5-1.7-6.6 0-12.5 1.4-17.8 4.2-5.2 2.8-9.3 6.9-12.2 12-2.8 5.2-4.3 11.1-4.3 17.7v13.2H917v18.1h15.72v76.6h22.57V99.8h33.4v48.68c0 20.08 9.4 30.2 28.1 30.2 3 0 6.3-.32 9.5-1.02 3.3-.72 5.6-1.44 7-2.2l.3-.2v-18.34l-.9.62c-1.3.82-2.8 1.48-4.6 1.98-1.8.5-3.3.76-4.5.76-4.4 0-7.6-1.2-9.6-3.5-2.1-2.36-3.1-6.46-3.1-12.2V99.85h22.6zm-167.12 60.42c-8.2 0-14.65-2.72-19.2-8.07-4.58-5.4-6.9-13.1-6.9-22.8 0-10.1 2.32-17.9 6.9-23.4 4.56-5.5 10.96-8.2 19.02-8.2 7.82 0 14.05 2.6 18.5 7.8 4.5 5.2 6.77 13 6.77 23.2 0 10.3-2.14 18.2-6.36 23.5-4.2 5.2-10.5 7.9-18.73 7.9m1-80.9c-15.62 0-28.03 4.5-36.88 13.6-8.84 9-13.33 21.5-13.33 37.1 0 14.8 4.38 26.7 13 35.4 8.65 8.7 20.4 13.1 34.93 13.1 15.15 0 27.32-4.7 36.16-13.8 8.9-9.2 13.4-21.5 13.4-36.8 0-15.1-4.2-27.1-12.5-35.8S882.4 79 867.7 79m-86.6 0c-10.6 0-19.4 2.7-26.1 8.06-6.7 5.4-10.2 12.5-10.2 21.05 0 4.45.8 8.4 2.2 11.75 1.5 3.37 3.8 6.33 6.8 8.8 3 2.5 7.6 5.06 13.7 7.7 5.2 2.12 9 3.9 11.4 5.32 2.4 1.4 4.1 2.8 5.1 4.15 1 1.35 1.4 3.16 1.4 5.4 0 6.4-4.7 9.5-14.5 9.5-3.6 0-7.8-.8-12.3-2.3-4.6-1.5-8.8-3.62-12.62-6.4l-.96-.65v21.7l.36.15c3.2 1.5 7.2 2.73 11.92 3.7 4.7 1 9 1.5 12.75 1.5 11.5 0 20.8-2.7 27.6-8.1 6.8-5.4 10.25-12.7 10.25-21.5 0-6.4-1.85-11.9-5.5-16.3-3.68-4.4-10-8.4-18.8-12-7.05-2.8-11.55-5.16-13.4-6.96-1.8-1.7-2.7-4.2-2.7-7.3 0-2.75 1.12-4.95 3.42-6.74 2.3-1.8 5.52-2.7 9.6-2.7 3.8 0 7.6.6 11.4 1.76 3.8 1.2 7.2 2.75 10 4.65l.9.67V83.5l-.4-.15c-2.6-1.1-6-2.06-10.17-2.83-4.1-.76-7.85-1.15-11.1-1.15M686 160.27c-8.2 0-14.68-2.73-19.2-8.08-4.6-5.4-6.9-13.1-6.9-22.8 0-10.1 2.3-17.9 6.9-23.4 4.52-5.5 10.92-8.2 19-8.2 7.8 0 14.04 2.6 18.5 7.8 4.5 5.2 6.76 13 6.76 23.2 0 10.3-2.13 18.2-6.4 23.5-4.2 5.2-10.5 7.9-18.7 7.9m1-80.9c-15.6 0-28 4.5-36.9 13.6-8.8 9-13.3 21.5-13.3 37.1 0 14.8 4.4 26.7 13 35.4 8.65 8.7 20.4 13.1 34.9 13.1 15.18 0 27.3-4.7 36.2-13.8 8.84-9.2 13.3-21.5 13.3-36.8 0-15.1-4.2-27.1-12.5-35.8s-20-13.1-34.7-13.1M602.4 98V81.6h-22.3v94.77h22.3V128c0-8.25 1.86-15.02 5.55-20.13 3.64-5.05 8.5-7.6 14.4-7.6 2 0 4.27.32 6.7 1 2.4.63 4.17 1.34 5.2 2.1l.94.66V81.5l-.4-.16c-2.1-.88-5-1.33-8.8-1.33-5.6 0-10.6 1.8-14.9 5.4-3.8 3.1-6.5 7.4-8.6 12.7h-.3zm-62.2-18.7c-10.22 0-19.34 2.2-27.1 6.5-7.8 4.34-13.8 10.53-17.9 18.4-4.05 7.84-6.12 17-6.12 27.23 0 8.97 2 17.2 5.97 24.43 3.96 7.25 9.57 12.92 16.68 16.86 7.1 3.92 15.3 5.9 24.37 5.9 10.6 0 19.63-2.1 26.9-6.28l.3-.2v-20.4l-.97.67c-3.28 2.4-6.95 4.3-10.9 5.7-3.94 1.4-7.53 2.1-10.68 2.1-8.75 0-15.77-2.7-20.87-8.1-5.1-5.4-7.7-13-7.7-22.5 0-9.6 2.7-17.4 8.02-23.1 5.3-5.7 12.35-8.6 20.9-8.6 7.34 0 14.48 2.5 21.24 7.4l.95.7V84.4l-.3-.18c-2.6-1.4-6-2.6-10.3-3.5-4.3-.9-8.5-1.33-12.5-1.33m-66.5 2.3h-22.3v94.7h22.3V81.7zm-10.9-40.4c-3.7 0-6.9 1.2-9.5 3.7-2.7 2.5-4 5.6-4 9.3 0 3.6 1.3 6.7 3.9 9.1 2.6 2.4 5.8 3.6 9.5 3.6s6.9-1.2 9.6-3.7c2.6-2.4 4-5.5 4-9.1 0-3.6-1.4-6.7-3.9-9.2-2.6-2.6-5.9-3.8-9.7-3.8m-55.5 33.4v101.8h22.7V44.2h-31.5l-40 98.2-38.9-98.2h-32.8v132.2h21.4V74.66h.8l41 101.76h16l40.4-101.75h.8z"/><path fill="#F35325" d="M104.87 104.87H0V0h104.87v104.87z"/><path fill="#81BC06" d="M220.65 104.87H115.8V0h104.85v104.87z"/><path fill="#05A6F0" d="M104.86 220.7H0V115.82h104.86V220.7z"/><path fill="#FFBA08" d="M220.65 220.7H115.8V115.82h104.85V220.7z"/></svg>
