<svg xmlns="http://www.w3.org/2000/svg" width="500" height="200" viewBox="0 0 500 200"><path fill="#28BA00" d="M125.7 27.4H41.9L-.1 100l41.9 72.6h83.9l41.9-72.6-41.9-72.6zm-6.3 102.7H99.5v-25.7l3.7-6L84 110.8 64.8 98.4l3.7 6v25.7H48.6V69.9h11.9l23.5 17L107.5 70h11.9v60.1z"/><path d="M195.2 83.5H208l1 2.5c2-2.7 5.8-4.5 10.2-4.5 5.3 0 8.6 1.5 10.4 4.6 2.3-2.8 6-4.8 10.8-4.8 9.4 0 12.4 5.1 12.4 15.6v24h-13.5v-24c0-2-1.4-3-3.3-3-1.5 0-3.5 1-3.5 3v23.9h-16.9V96.9c0-1.7-1.4-3-3.3-3-2.1 0-3.5 1-3.5 3v23.9h-13.5V83.5zm60.1 17.6c0-14.4 9.3-19.9 21-19.9 11.8 0 20.1 5.5 20.1 19.9 0 14.4-9.4 19.9-21.1 19.9-11.7-.1-20-5.5-20-19.9zm25.7 0c0-5.1-1.4-7.8-5.1-7.8-3.7 0-5.1 2.7-5.1 7.8s1.4 7.8 5.1 7.8c3.7-.1 5.1-2.7 5.1-7.8zm35.7-.2c0-14.3 9.3-19.9 21-19.9 11.8 0 20.1 5.5 20.1 19.9 0 14.4-9.4 19.9-21.1 19.9-11.7-.1-20-5.5-20-19.9zm25.7 0c0-5.1-1.4-7.8-5.1-7.8-3.7 0-5.1 2.7-5.1 7.8s1.4 7.8 5.1 7.8c3.7-.1 5.1-2.7 5.1-7.8zm-48.9 30.6v-11c0 .7 2.6 1.1 3.9 1.1 1.7 0 2.9-.7 2.9-2.7V83.5h13.5v35.4c0 9.5-4.4 14.2-13.8 14.2-3.4 0-6.5-1-6.5-1.6zm5.3-58.2c0-4 3.3-6.5 7.7-6.5 4.5 0 7.8 2.6 7.8 6.5 0 4-3.4 6.5-7.8 6.5-4.4-.1-7.7-2.5-7.7-6.5zm62.4 34.1V93.7h-3.4V87l12.6-13.7h7.8v10.2h6.8v10.2h-6.8v11.7c0 2.1.5 3.2 2.4 3.2 2.3 0 4.4-.9 4.4-2.1v11.6c0 1.5-4.7 2.9-10.4 2.9-9.6-.1-13.4-5.7-13.4-13.6zm25.8-6.3c0-14.2 9.4-19.9 19.7-19.9 10.1 0 18.6 3.4 18.6 18.3 0 1.2-.4 4.3-.5 4.3H403c.3 3.4 2.1 4.1 9 4.1 5.6 0 6.8-.1 10.2-1.3v11.5c-3.4 1.5-5.8 2.8-13.6 2.8-14.6 0-21.6-6.4-21.6-19.8zm25-4v-.8c0-2.3-1.5-4.2-4.7-4.2-3 0-4.7 1.7-4.7 5.1h9.4zm14.7 4c0-13.8 9.1-19.9 20.1-19.9 6.2 0 9.2 1.6 12.6 2.9v12.6c-3.4-1.7-5.7-2.5-9.2-2.5-4.9 0-7.3 2.2-7.3 6.8s2.6 6.7 7.5 6.7c3.5 0 5.7-.9 9.1-2.5v12.4c-3.4 1.5-6.6 3.2-12.5 3.2-11.8.1-20.3-5.8-20.3-19.7zM462.8 70h13.5v14.4c3.4-1.9 5.7-3.1 10-3.1 9.5 0 13.7 5.1 13.7 15.6v24h-16.9V97c0-1.4-1.1-3.2-3.4-3.2-1.7 0-3.4 1.2-3.4 3.2v23.8h-13.5V70z" fill="#001B36"/></svg>