<svg width="500" height="200" xmlns="http://www.w3.org/2000/svg"><g fill-rule="nonzero" fill="none"><path d="M32.675 134c-.624 8.348-1.471 14.393-2.318 16.504l-.357-.24c2.14 5.421 1.962 14.633 1.962 14.633L35.127 166s-.624-8.972.268-13.337A8.55 8.55 0 0 1 37 149.256l-.178.144c-3.077-1.487-3.968-8.683-4.147-15.4z" fill="#C2BFBF"/><path d="M58.95 90.276c-6.54-28.803-22.086-38.263-23.745-41.84-1.849-2.541-3.697-7.107-3.697-7.107L31.413 41c-.19 2.541-.284 3.53-2.702 6.118C24.92 50.036 5.63 66.085 4.066 98.794c-1.47 30.498 22.18 48.665 25.404 50.97l.379.236c.9-2.07 1.848-8.048 2.465-16.19.142 6.589 1.09 13.649 4.36 15.155l.19-.142a41.504 41.504 0 0 0 4.076-3.341l.142-.141c7.867-7.154 23.034-25.32 17.868-55.065z" fill="#69B240"/><path d="M59.931 91.112c-6.657-28.9-22.48-38.392-24.168-41.981C33.88 46.58 32 42 32 42c1.592 6.045 1.35 54.354 1.495 60.115a305.49 305.49 0 0 1-.723 32.68c.145 6.61 1.11 13.694 4.438 15.205l.193-.142a42.126 42.126 0 0 0 4.149-3.353l.144-.141c8.057-7.178 23.494-25.406 18.235-55.252z" fill="#599636"/><path d="M378.008 135.06c2.028 1.606 6.085 2.314 9.623 2.314 4.623 0 9.151-.85 13.585-4.863 4.434-4.012 7.642-10.385 7.642-20.44 0-10.055-3.68-17.467-11.18-22.046-4.245-2.69-9.764-3.73-15.99-3.73-1.84 0-3.68.095-4.718.567a2.502 2.502 0 0 0-.849 1.322c-.189 1.7-.189 14.776-.189 22.518 0 7.742 0 18.977.19 20.346.188 1.369.66 3.163 1.933 4.013M358.762 82c1.651 0 7.878.283 10.755.283 5.378 0 9.151-.283 19.293-.283 8.491 0 15.614 2.313 20.756 6.703 6.18 5.335 9.434 12.793 9.434 21.857 0 12.888-5.896 20.346-11.746 24.548-5.849 4.201-13.49 6.892-24.387 6.892-5.802 0-15.708-.189-24.01-.283h-.095c-.377-.756.708-3.73 1.368-3.824 2.264-.236 2.83-.33 3.868-.755 1.745-.708 2.17-1.605 2.359-4.768.283-5.901.188-12.982.188-21.007 0-5.712.095-16.9-.094-20.44-.189-3.541-1.557-3.73-4.057-4.297a53.738 53.738 0 0 0-5.377-.85c-.189-.566 1.273-3.162 1.792-3.729M443.058 86.792c-.377.096-.85 1.054-.85 1.533-.094 3.498-.188 12.603-.188 18.88.05.24.235.428.472.48 1.274.095 4.34.19 6.936.19 3.68 0 5.803-.478 6.935-1.053 3.067-1.534 4.53-4.936 4.53-8.626 0-8.433-5.804-11.644-14.39-11.644a25.323 25.323 0 0 0-3.492.192m21.892 38.766c0-8.53-6.18-13.37-17.457-13.37-.472 0-4.058-.095-4.907.096-.85.192-.566.288-.566.48 0 6.085-.095 15.909.189 19.742.188 1.63 1.368 3.977 2.783 4.648 1.416.67 5.002 1.054 7.408 1.054 6.652 0 12.55-3.785 12.55-12.698m-39.255-43.414c.85 0 3.444.287 10.003.287 6.558 0 11.182-.191 17.174-.191 7.407 0 17.646 2.731 17.646 13.944 0 5.51-3.87 9.967-8.87 12.123-.284.096-.284.288 0 .384 7.124 1.82 13.399 6.277 13.399 14.806 0 8.53-5.096 13.561-12.55 16.868-4.53 2.012-10.144 2.731-15.806 2.731-4.34 0-15.995-.48-22.459-.383-.66-.288.614-3.403 1.18-3.882a17.863 17.863 0 0 0 4.388-.719c2.312-.575 2.595-1.341 2.878-4.84.283-3.497.189-13.752.189-21.419 0-10.446.094-17.538 0-21.036-.095-2.731-1.086-3.594-2.878-4.073-1.793-.48-3.87-.575-5.804-.862-.472-.48.991-3.403 1.463-3.786" fill="#C2BFBF"/><path d="M79.897 141.953a4.207 4.207 0 0 1-.282-1.946 2.484 2.484 0 0 1 .282-1.281 31.59 31.59 0 0 0 3.672-.76c1.694-.426 2.353-1.375 2.447-3.558.282-5.172.282-14.9.188-21.684v-.19c0-.712 0-1.756-.894-2.42a19.173 19.173 0 0 0-5.083-2.278c-.8-.237-1.27-.664-1.224-1.186.047-.522.518-1.091 1.6-1.281 2.777-.285 10.072-2.04 12.943-3.369.299.392.434.885.377 1.376l-.094.949c-.094.949-.188 2.04-.188 3.132.047.355.35.62.706.617.19.01.377-.059.517-.19 5.46-4.318 10.355-5.837 12.85-5.837 4.141 0 7.341 1.993 9.836 6.074.117.204.331.33.565.332a.61.61 0 0 0 .517-.285c5.036-3.843 10.025-6.12 13.32-6.12 7.86 0 12.566 5.93 12.566 15.895 0 2.847-.047 6.5-.047 9.87 0 3.368-.047 5.741-.047 7.686 0 .475.612 1.756 1.553 2.04.942.285 2.824.855 4.895 1.234h.094c.142.57-.188 2.8-.517 3.227l-2.165-.095a112.3 112.3 0 0 0-6.495-.19c-5.225 0-7.954.095-10.59.285-.188-.664-.282-2.8-.047-3.227 1.08-.19 2.149-.443 3.2-.759 1.648-.57 2.165-1.328 2.26-3.558.094-2.23.329-15.564-.189-18.885-.518-3.322-3.06-7.45-8.66-7.45-2.07 0-5.46.854-8.66 3.321-.2.222-.317.508-.33.807.377 1.803.377 3.891.377 7.023v5.599c0 3.843-.047 7.497 0 10.249 0 1.85 1.13 2.325 2.024 2.657l1.27.285c.754.19 1.554.38 2.683.57a5.213 5.213 0 0 1-.047 2.419 1.906 1.906 0 0 1-.33.807c-2.917-.095-5.882-.19-10.212-.19l-5.319.095-3.812.095a3.824 3.824 0 0 1-.282-1.661c-.05-.538.047-1.08.282-1.566l1.177-.19 2.73-.522c1.411-.427 1.976-1.233 2.07-3.084.283-4.27.518-16.56-.094-19.644-1.035-4.935-3.812-7.45-8.283-7.45-2.636 0-5.93 1.282-8.66 3.322a2.668 2.668 0 0 0-.8 1.993v5.077c0 6.168-.048 13.855.094 17.177.094 1.043.423 2.23 2.353 2.704l1.977.38 1.553.285a6.934 6.934 0 0 1-.236 3.226l-3.059-.095c-1.788-.095-4.047-.19-6.589-.19-2.542 0-5.083.095-6.777.19l-3.06.095M177.007 106.143a8.066 8.066 0 0 0-4.596 1.286c-3.329 2.047-5.017 6.142-5.017 12.19 0 11.286 5.58 19.19 13.552 19.19a8.455 8.455 0 0 0 5.862-2.095c2.438-2.047 3.751-6.19 3.751-12 0-11.143-5.44-18.619-13.552-18.619m1.548 36.857c-14.397 0-19.555-10.714-19.555-20.762 0-7 2.814-12.476 8.394-16.285A25.32 25.32 0 0 1 180.336 102C191.31 102 199 110.048 199 121.524c0 7.81-3.048 14-8.863 17.857-2.767 1.714-7.597 3.619-11.63 3.619M325.007 106.143a8.066 8.066 0 0 0-4.596 1.286c-3.329 2.047-5.017 6.142-5.017 12.19 0 11.286 5.58 19.19 13.552 19.19a8.455 8.455 0 0 0 5.862-2.095c2.438-2.047 3.751-6.19 3.751-12 0-11.143-5.44-18.619-13.552-18.619m1.548 36.857c-14.397 0-19.555-10.714-19.555-20.762 0-7 2.814-12.523 8.394-16.285A25.275 25.275 0 0 1 328.336 102C339.31 102 347 110.048 347 121.524c0 7.81-3.048 14-8.863 17.857-2.767 1.714-7.597 3.619-11.63 3.619M275.776 105.692c-4.502 0-7.393 3.505-7.393 8.927 0 5.421 2.512 11.824 9.525 11.824 1.185 0 3.412-.514 4.455-1.73 1.042-1.215 2.7-4.533 2.7-7.758 0-7.057-3.459-11.263-9.287-11.263m-.569 37.342a7.475 7.475 0 0 0-3.649.888c-3.554 2.243-5.213 4.487-5.213 7.057 0 2.57.948 4.393 3.033 6.076 2.085 1.682 5.876 3.084 10.284 3.084 8.72 0 12.605-4.627 12.605-9.207 0-3.178-1.611-5.328-4.928-6.543-2.56-.934-6.872-1.448-12.132-1.448m.569 21.919c-5.213 0-9.004-1.075-12.227-3.552-3.222-2.477-4.549-5.936-4.549-8.366a6.494 6.494 0 0 1 1.706-4.253c.9-1.028 3.033-2.944 7.914-6.216a.374.374 0 0 0 .237-.374.375.375 0 0 0-.284-.374c-4.029-1.495-5.213-4.019-5.592-5.374v-.187c-.095-.514-.237-1.028.52-1.542.76-.515 1.47-.935 2.418-1.496a31.985 31.985 0 0 0 3.886-2.524.603.603 0 0 0-.143-.981c-5.923-1.963-8.956-6.31-8.956-12.946-.017-4.193 2.033-8.132 5.497-10.562 2.37-1.87 8.388-4.113 12.274-4.113h.237c3.98.093 6.255.935 9.383 2.056 1.774.64 3.656.941 5.544.888 3.317 0 4.74-1.028 6.019-2.243.206.538.318 1.107.331 1.683a6.291 6.291 0 0 1-1.09 3.879c-.663.934-2.227 1.589-3.743 1.589h-.427a12.43 12.43 0 0 1-2.227-.374l-.38.14c-.094.187-.047.374.048.607v.14c.26 1.202.434 2.42.521 3.646 0 6.964-2.795 10.002-5.781 12.245a19.922 19.922 0 0 1-9.999 3.832l-1.137.094-1.138.093h-.094c-.664.187-2.37.982-2.37 2.477 0 1.496.758 2.758 4.455 3.038l2.37.187c4.88.327 10.946.748 13.79 1.73 3.898 1.335 6.482 4.996 6.397 9.066 0 6.262-4.502 12.104-12.037 15.703A26.415 26.415 0 0 1 275.776 165M252.804 138.852c-2.121-.286-3.677-.572-5.516-1.429a2.58 2.58 0 0 1-.66-1.333c-.188-3-.188-11.665-.188-17.33 0-4.619-.754-8.666-2.687-11.57-1.933-2.905-5.61-5.19-9.852-5.19-4.243 0-8.768 2.619-12.917 6.142-.094.095-.754.714-.707-.238.047-.952.142-2.857.236-4.095a2.107 2.107 0 0 0-.613-1.761c-2.687 1.333-10.276 3.19-13.105 3.475-2.074.381-2.545 2.38-.377 3.095h.047a18.525 18.525 0 0 1 4.997 2.19c.849.667.754 1.62.754 2.428.095 6.428.095 16.379-.188 21.76-.094 2.094-.66 2.904-2.216 3.284h.142c-1.18.295-2.377.518-3.583.667-.471.476-.471 3.285 0 3.857.471.57 5.893-.286 9.947-.286 5.61 0 8.485.286 9.946.286.566-.667.754-3.286.377-3.857a20.269 20.269 0 0 1-3.96-.571c-1.555-.381-1.932-1.143-2.027-2.905-.188-4.523-.188-14.14-.188-20.71 0-1.81.471-2.715 1.037-3.191 1.933-1.714 5.091-2.904 7.92-2.904a8.619 8.619 0 0 1 5.892 2 8.266 8.266 0 0 1 2.687 5.38c.377 3.666.283 10.95.283 17.33 0 3.476-.283 4.333-1.556 4.714-1.273.38-2.121.571-3.96.762-.565.571-.377 3.285 0 3.856 2.499 0 5.421-.285 9.617-.285 5.28 0 8.674.285 10.04.285.566-.666.755-3.19.378-3.856" fill="#47474A"/><path d="M489.498 141a7.5 7.5 0 1 1 7.5-7.594 7.406 7.406 0 0 1-7.5 7.593zm0-14.292a6.792 6.792 0 1 0 6.792 6.839 6.698 6.698 0 0 0-6.792-6.84zm1.84 11.556l-1.934-4.151h-1.556v4.15h-1.132v-9.48h2.782c2.076 0 2.925.943 2.925 2.641s-.66 2.264-1.887 2.547l1.981 4.293h-1.18zm-3.49-5.142h1.65c1.321 0 1.84-.471 1.84-1.65 0-1.18-.472-1.604-1.981-1.604h-1.51v3.254z" fill="#C2BFBF"/></g></svg>