<svg width="500" height="200" xmlns="http://www.w3.org/2000/svg"><path fill="none" d="M-1-1h502v202H-1z"/><path d="M21.515 62.258c1.505 2.342 2.174 4.406 3.01 8.81 5.912-5.743 13.16-8.81 21.135-8.81 7.193 0 13.048 2.342 17.62 7.082 1.227 1.17 2.398 2.732 3.458 4.238 7.918-8.14 15-11.32 24.535-11.32 6.747 0 13.16 2.008 17.12 5.41 4.906 4.237 6.467 9.312 6.467 21.133v61.563H92.834V93.206c0-10.37-1.226-12.38-7.137-12.38-4.238 0-10.15 2.9-15.056 7.306v62.286H49.118V94.043c0-10.818-1.56-13.327-7.863-13.327-4.182 0-9.98 2.174-14.832 6.58v63.122H4.284V89.972c0-12.49-.836-17.9-3.234-22.137l20.465-5.577zM195.77 75.084c6.916 8.14 10.038 17.565 10.038 31.617 0 14.89-3.4 25.038-10.873 33.514-6.58 7.416-15.223 12.044-28.55 12.044-23.532 0-38.922-17.62-38.922-44.832 0-27.268 15.502-45.335 38.922-45.335 12.323-.055 21.97 4.183 29.386 12.994zm-40.76 12.49c-1.562 4.573-2.4 10.65-2.4 19.294 0 9.98 1.005 17.454 2.845 21.803 2.063 4.74 7.138 7.083 11.487 7.083 9.814 0 13.997-8.81 13.997-29.275 0-11.655-1.507-19.294-4.574-23.197-2.175-2.843-5.688-4.572-9.814-4.572-5.297.112-9.703 3.457-11.543 8.866zm123.68-23.81v15.558l-38.253 55.316h39.758l-5.41 15.725h-63.79V136.31L251.7 79.656h-37.304V63.764h64.294zm38.364-23.866c0 7.806-6.19 13.996-14.052 13.996-7.584 0-13.83-6.245-13.83-13.996 0-7.75 6.47-14.052 14.22-14.052 7.584 0 13.662 6.3 13.662 14.052zM314.377 61.7v88.663h-22.695V65.27l22.695-3.57zm41.263-13.996v67.473c0 14.888.17 16.896 1.563 19.293.836 1.562 2.676 2.342 4.572 2.342.837 0 1.283 0 2.51-.334l3.847 13.494c-3.848 1.506-8.643 2.342-13.55 2.342-9.647 0-17.454-4.572-20.13-11.82-1.673-4.407-2.063-7.14-2.063-19.462V56.46c0-11.32-.28-18.235-1.117-26.042l23.197-5.24c.837 4.738 1.17 10.315 1.17 22.526zm47.01 0v67.473c0 14.888.166 16.896 1.56 19.293.78 1.562 2.62 2.342 4.517 2.342.836 0 1.394 0 2.565-.334l3.848 13.494c-3.848 1.506-8.588 2.342-13.55 2.342-9.648 0-17.454-4.572-20.13-11.82-1.73-4.407-2.008-7.14-2.008-19.462V56.46c0-11.32-.335-18.235-1.227-26.042l23.14-5.24c1.005 4.738 1.284 10.315 1.284 22.526zm35.575 19.294c8.42-3.57 15.67-5.074 23.643-5.074 14.554 0 24.536 5.41 27.937 15.056 1.115 3.568 1.617 6.245 1.56 15.557l-.556 29.108v1.56c0 9.314 1.56 12.882 8.14 17.734l-12.045 13.883c-5.297-2.23-10.037-6.133-12.212-10.483a42.562 42.562 0 0 1-5.24 4.573c-4.183 3.067-10.317 4.74-17.455 4.74-19.293 0-29.777-9.815-29.777-27.045 0-20.353 14.053-29.833 41.656-29.833 1.673 0 3.234 0 5.074.167V93.43c0-9.647-1.896-12.882-10.205-12.882-7.193 0-15.724 3.513-24.98 9.814l-9.648-16.226c4.628-2.956 8.03-4.63 14.108-7.138zm29.387 45.502c-15.67 0-21.19 2.844-21.19 13.216 0 6.747 4.294 11.32 10.037 11.32 4.237 0 8.475-2.23 11.82-5.91l.39-18.626h-1.058z" stroke="null" fill="#56575C"/></svg>