<svg width="500" height="200" xmlns="http://www.w3.org/2000/svg"><path d="M125.497 73.176l51.98 76.734h9.582V49.872h-11.616v76.081l-50.31-74.193-1.306-1.888h-5.372l-.145-.072v.072h-4.356V149.91h11.543zM263.14 109.91c17.568-10.6 24.465-19.82 24.465-32.669 0-17.714-11.906-29.111-30.345-29.111-16.697 0-27.587 10.962-32.233 21.198l-1.742 3.92 10.453 4.792 1.815-3.848c2.541-5.445 8.785-14.592 21.707-14.592 11.688 0 18.657 6.606 18.657 17.714 0 7.114-3.122 13.43-18.44 22.868-27.441 16.842-33.467 24.32-34.192 42.323 0 .581-.146 2.686-.146 3.267v4.283h64.176v-11.542H235.19c1.017-9.365 5.082-14.665 27.95-28.604zM352.87 84.864c-9.874 0-18.295 4.718-23.812 8.856 1.815-21.56 11.325-34.193 26.062-34.193 6.897 0 11.688 1.888 17.568 6.97l3.267 2.831 7.55-8.93-3.34-2.758c-7.985-6.679-15.535-9.51-25.118-9.51-23.376 0-37.895 20.472-37.895 53.43 0 37.025 18.367 50.238 35.572 50.238 21.997 0 33.467-17.35 33.467-34.484 0-23.957-18.004-32.45-33.322-32.45zm21.633 32.45c0 11.47-7.477 23.013-21.779 23.013-9.728 0-21.634-8.276-23.739-31.434 4.21-5.082 13.285-12.632 23.884-12.632 19.529 0 21.634 14.737 21.634 21.053z"/><path d="M113.81 162.905h73.322v8.567h-73.323zM114.1 28.529h73.104v8.566H114.1z" stroke-width=".72597"/></svg>
