<svg width="500" height="200" viewBox="0 0 500 200" xmlns="http://www.w3.org/2000/svg"><g fill="none" fill-rule="evenodd"><g fill="#010101"><path d="M69.035 153.275H57.778c-2.34 0-4.094-.44-5.994-3.51l-25.878-45.174c-.438-.73-.73-.877-1.023-.877-.292 0-.585.293-.585.878v46.346c0 1.315-1.023 2.34-2.34 2.34H8.51c-1.315 0-2.338-1.025-2.338-2.34V72.573c0-2.34 1.9-4.386 4.386-4.386h11.55c2.338 0 3.362 1.17 4.824 3.51l27.047 47.075c.438.73.584.877.877.877.292 0 .585-.293.585-1.024v-48.1c0-1.315 1.022-2.193 2.338-2.193h13.45c1.316 0 2.34.878 2.34 2.193v78.363c0 2.338-2.048 4.385-4.533 4.385zM135.41 153.275h-12.866c-1.316 0-2.34-1.024-2.34-2.34v-1.9c-4.385 3.216-9.064 5.117-15.935 5.117-9.943 0-19.592-4.825-19.592-19.59v-1.024c0-13.304 8.626-19.298 28.07-19.298h6.14v-4.094c0-6.58-3.215-7.895-8.625-7.895-7.31 0-15.497.44-19.006.732h-.584c-1.17 0-2.047-.584-2.047-2.046v-9.21c0-1.317.73-2.194 2.193-2.486 4.238-1.024 12.28-2.34 19.736-2.34 16.52 0 26.754 6.58 26.754 23.246v40.79c.44 1.315-.585 2.34-1.9 2.34zm-15.79-28.07h-6.58c-8.04 0-10.087 2.777-10.087 8.333v1.023c0 4.826 2.34 5.703 7.164 5.703 3.363 0 6.58-1.17 9.357-2.485v-12.573h.146zM234.24 153.275h-13.89c-1.315 0-2.338-1.17-2.338-2.34v-39.034c0-7.31-1.755-9.502-7.018-9.502-1.9 0-5.41.438-8.772 2.046.293 2.34.293 4.97.293 7.457v39.036c0 1.315-1.024 2.34-2.34 2.34h-13.888c-1.316 0-2.34-1.17-2.34-2.34V111.9c0-7.31-1.315-9.502-6.58-9.502-2.192 0-5.116 1.17-8.624 2.924v45.467c0 1.315-1.024 2.34-2.34 2.34h-13.742c-1.315 0-2.338-1.17-2.338-2.34V89.97c0-1.315 1.023-2.338 2.34-2.338h13.01c1.316 0 2.34 1.023 2.34 2.34v2.484c4.824-3.216 10.234-5.702 16.96-5.702 5.993 0 10.233 1.755 13.45 5.556 6.578-3.8 11.256-5.556 18.566-5.556 15.06 0 19.59 10.088 19.59 25v39.035c0 1.315-1.17 2.485-2.338 2.485zM302.222 126.228H265.82v.292c0 6.58 2.776 12.427 11.84 12.427 7.165 0 17.398-.584 21.93-1.023h.293c1.316 0 2.193.585 2.193 1.754v8.626c0 1.9-.44 2.632-2.34 3.07-7.31 1.9-13.45 2.778-23.39 2.778-13.89 0-28.656-7.31-28.656-29.386v-8.04c0-18.422 10.673-30.118 28.947-30.118 18.714 0 28.217 12.866 28.217 30.117v6.58c-.293 1.9-1.17 2.923-2.632 2.923zm-15.643-11.842c0-8.48-3.948-12.72-10.235-12.72-6.287 0-10.526 4.387-10.526 12.72v.44h20.76v-.44zM331.754 153.275h-13.89c-1.314 0-2.338-1.17-2.338-2.34v-83.04c0-1.316 1.17-2.34 2.34-2.34h13.888c1.316 0 2.193 1.024 2.193 2.34v83.04c0 1.17-.877 2.34-2.193 2.34zM404.708 90.41l-19.152 67.25c-3.51 12.282-8.188 18.568-25 18.568-4.24 0-10.965-.877-13.89-1.754-1.315-.44-2.34-.73-2.34-2.047v-9.21c0-1.316 1.025-2.194 2.34-2.194h.293c3.8.293 10.525.878 14.327.878 4.093 0 6.14-1.315 7.602-5.994l1.022-3.508h-1.754c-4.24 0-7.75-.73-10.673-10.673l-15.35-51.316c-.147-.293-.147-.585-.147-.732 0-1.17.73-1.9 2.34-1.9h15.204c1.17 0 1.9 1.023 2.193 2.193l10.234 42.983c.29 1.608.73 2.193 1.315 2.193h1.024L384.97 89.97c.293-1.17 1.17-2.192 2.34-2.192h15.35c1.17 0 2.194.877 2.194 2.047 0 .146-.146.292-.146.584z"/></g><path d="M471.374 21.988l-8.187 17.252c-.292-.44-.438-.585-.73-.877-1.317-1.316-2.78-2.34-4.387-3.07-1.608-.732-3.51-1.024-5.263-1.024-2.778 0-5.263.73-7.456 2.192-2.192 1.462-3.946 3.363-5.116 5.848L425.03 76.228l24.56 11.404 8.188-17.252c.292.44.292.585.73.877 1.317 1.316 2.78 2.34 4.533 3.07 1.755.73 3.51 1.024 5.41 1.024 2.778 0 5.117-.73 7.31-2.192 2.193-1.462 3.8-3.51 5.117-5.994l14.912-33.772-24.416-11.404z" fill="#0076BF"/></g></svg>
