<svg width="500" height="200" xmlns="http://www.w3.org/2000/svg"><path fill="none" d="M-1-1h502v202H-1z"/><path d="M385.85 154.606c7.014.536 14.017 1.112 21.01 1.735V32.99h-21.01v121.618zM47.87 108.84L20.506 32.987H.54v134.035c6.99-.995 13.992-1.947 21.01-2.86v-72.89l24.33 69.896c7.652-.89 15.32-1.73 23-2.52V32.99H47.87v75.85zm41.213 47.857c19.364-1.76 38.818-3.21 58.36-4.335v-20.704a1801.63 1801.63 0 0 0-37.35 2.553v-31.34c8.145-.082 18.87-.33 28.373-.213V81.955c-7.592-.018-19.792.106-28.373.216V53.878h37.35V32.99h-58.36v123.707zm71.828-102.82h21.99v96.804c6.992-.263 13.997-.48 21.01-.664v-96.14h21.988V32.988H160.91v20.888zm78.458 95.573l21.01-.005V101.65h28.48V80.947h-28.48v-27.07h37.64V32.99h-58.65v116.46zM499.46 32.988h-23.076l-15.213 35.26-13.668-35.26h-22.73l24.426 63.006-26.666 61.81c7.377.72 14.735 1.488 22.083 2.3l15.51-35.94 15.358 39.618c8 1.03 15.98 2.102 23.945 3.24l.033-.015-27.368-70.587 27.37-63.432zm-166.965-.01h-21.01v117.5c19.095.656 38.11 1.62 57.045 2.88v-20.7c-11.978-.8-23.99-1.476-36.035-2.037V32.978z" fill="#E50914" stroke="null"/></svg>