<svg xmlns="http://www.w3.org/2000/svg" width="500" height="200" viewBox="0 0 500 200"><path fill="#3C424F" d="M226.676 84.236c0-.908-.552-1.815-1.263-2.171l-20.624-11.94c-.356-.178-.73-.356-1.085-.356h-.178c-.356 0-.73.178-1.085.356l-20.838 11.94c-.73.356-1.263 1.263-1.263 2.171v32.031c0 .356.178.908.552 1.085.374.178.908.178 1.263 0l12.314-7.065c.73-.552 1.263-1.263 1.263-2.171V93.098c0-.908.552-1.637 1.263-2.171l5.249-3.079c.356-.178.908-.356 1.263-.356.356 0 .908.178 1.263.356l5.249 3.079c.73.356 1.263 1.263 1.263 2.171v15.019c0 .908.552 1.637 1.263 2.171l12.314 7.065c.356.178.908.178 1.263 0s.552-.552.552-1.085V84.236zm110.221-43.971c-.356-.178-.908-.178-1.263 0s-.552.552-.552 1.085v31.675c0 .356-.178.552-.356.73s-.552.178-.908 0l-5.25-2.901c-.73-.356-1.815-.356-2.527 0l-20.624 11.94c-.73.356-1.263 1.263-1.263 2.171v23.899c0 .908.552 1.637 1.263 2.171l20.624 11.94c.73.356 1.815.356 2.527 0l20.624-11.94c.73-.356 1.263-1.263 1.263-2.171V49.305c0-.908-.552-1.815-1.263-2.171l-12.295-6.869zm-1.993 60.627c0 .178-.178.356-.356.552l-7.065 4.164c-.178.178-.356.178-.552 0l-7.065-4.164c-.178-.178-.356-.356-.356-.552v-8.15c0-.178.178-.356.356-.552l7.065-4.164c.178-.178.356-.178.552 0l7.065 4.164c.178.178.356.356.356.552v8.15zm75.824-8.506c.73-.356 1.263-1.263 1.263-2.171v-5.783c0-.908-.552-1.637-1.263-2.171l-20.446-11.762c-.73-.356-1.815-.356-2.527 0l-20.624 11.94c-.73.356-1.263 1.263-1.263 2.171v23.899c0 .908.552 1.815 1.263 2.171l20.446 11.762c.73.356 1.637.356 2.527 0l12.492-6.869c.356-.178.73-.552.73-1.085 0-.356-.178-.908-.552-1.085l-20.82-11.94c-.356-.178-.552-.73-.552-1.085V92.92c0-.356.178-.908.552-1.085l6.513-3.808c.356-.178.908-.178 1.263 0l6.513 3.808c.356.178.552.73.552 1.085v5.783c0 .356.178.908.552 1.085.374.178.908.178 1.263 0l12.118-7.402z"/><path fill="#7FBD42" d="M264.134 70.303c.73-.356 1.815-.356 2.527 0l20.642 11.94c.73.356 1.263 1.263 1.263 2.171v23.899c0 .908-.552 1.637-1.263 2.171l-20.624 11.94c-.73.356-1.815.356-2.527 0l-20.642-11.94c-.73-.356-1.263-1.263-1.263-2.171V84.414c0-.908.552-1.637 1.263-2.171l20.624-11.94zm124.511 20.998h.552l3.986 2.349c.178 0 .178.178.178.356v4.52c0 .178-.178.356-.178.356l-3.986 2.349h-.552l-3.986-2.349c-.178 0-.178-.178-.178-.356v-4.52c0-.178.178-.356.178-.356l3.986-2.349zM159.19 122.83l-.008-56.871a12.877 12.877 0 0 0-6.441-11.151l-49.283-28.441a12.89 12.89 0 0 0-12.882-.001L41.299 54.797a12.878 12.878 0 0 0-6.441 11.152l.004 56.873a12.878 12.878 0 0 0 6.442 11.151l49.283 28.441a12.885 12.885 0 0 0 12.882 0l49.28-28.432a12.88 12.88 0 0 0 6.441-11.152z"/><path fill-rule="evenodd" clip-rule="evenodd" fill="#FFF" d="M45.747 74.392H60.75v56.765L45.505 122.2l.242-47.808z"/><path clip-rule="evenodd" fill="none" d="M73.346 147.59L54.85 136.724l.294-58.002"/><path fill-rule="evenodd" clip-rule="evenodd" fill="#FFF" d="M130.475 59.022l13.275 7.866-61.835 64.269-13.18-7.988 61.74-64.147z"/><path fill-rule="evenodd" clip-rule="evenodd" fill="#FFF" d="M68.304 65.597l10.68-10.54 67.67 68.717-13.43 7.625-64.92-65.802z"/><path fill-rule="evenodd" clip-rule="evenodd" fill="#FFF" d="M79 54.979l7.52 12.987-33.277 19.281-7.52-12.987L79 54.979z"/><path d="M318.604 164.28l-3.283-2.016 10.366-6.219v-12.324l-10.366-6.104 3.283-2.131 8.753 5.241 8.812-5.241 3.283 2.131-10.366 6.104v12.497l10.366 6.046-3.283 2.016-8.812-5.126-8.753 5.126zm28.678-27.009v3.34l8.753-5.126 12.324 7.142v14.397l-12.324 7.314-8.753-5.126v16.01l-3.456 1.958v-37.663l-2.937-1.957 3.398-2.074 2.995 1.785zm17.679 17.852v-10.539l-8.926-5.068-8.753 5.068v10.539l8.753 5.241 8.926-5.241zm30.58-10.538l-19.292 11.575 7.141 4.146 8.868-5.183 3.283 2.016-12.151 7.141-12.151-7.141v-14.454l12.151-7.257 12.151 7.257v1.9zm-20.847.115v8.466l15.837-9.445-7.142-4.319-8.695 5.298zm28.563-4.031l8.811-5.241 7.948 4.838-3.398 1.957-4.55-2.707-8.811 5.126v17.622l-3.455 2.016v-24.878l-2.822-1.843 3.283-2.131 2.994 1.843v3.398zm33.515-5.183v3.974h-.115l-8.753 5.298v17.622l-3.456 2.016v-37.893l-2.994-1.9 3.456-2.131 2.994 1.843v16.47l8.868-5.299zm2.879 6.795l12.324-7.314 12.151 7.314-3.456 2.016-8.696-5.299-6.91 4.031 19.061 11.691v2.476l-12.151 7.141-12.324-7.141 3.456-2.016 8.868 5.126 7.429-4.435-19.753-11.978v-1.612z" fill="#7FBD42"/></svg>