<svg width="500" height="200" xmlns="http://www.w3.org/2000/svg"><path fill="#fff" d="M-1-1h502v202H-1z"/><g><g stroke="null"><path d="M1345.69 1569.987c0-8.6-8.1-11.1-14.8-10.8v1.3c4 .1 7.1 1.4 7.1 4.1 0 1.9-1.4 4.2-5.4 4.2-3.2 0-9.4-1.9-14.4-3.5-5.5-1.9-10.7-3.6-15-3.6-8.5 0-14.9 6.3-14.9 14.1 0 6.3 4.8 8.6 6.7 9.4l.6-1c-1.2-.8-2.5-1.8-2.5-4.2 0-1.9 1.7-4.9 6-4.9 3.9 0 9.1 1.8 15.9 3.7 5.9 1.7 12.4 3.2 15.9 3.6v13.5l-6.6 5.5v.5l6.6 5.8v18.5c-3.4 2-7.4 2.5-10.8 2.5-6.3 0-12.3-1.7-17.1-6.9l17.8-8.6v-29.7l-21.8 9.7c2.3-5.8 6.8-9.6 11.5-12.4l-.3-1c-12.7 3.6-24.5 15.5-24.5 30.2 0 17.6 14.3 30.6 30.5 30.6 17.6 0 28.8-13.8 28.6-28.4l-1-.1c-2.6 5.6-6.3 10.9-11.2 13.7v-18l7-5.6-.1-.6-6.9-5.6v-13.5c6.4.1 13.1-4.3 13.1-12.5zm-37.7 48.2l-5.3 2.6c-3-3.9-5-9.2-5-16.6 0-3 .3-6.7 1.2-9.3l9.1-4v27.3zm46 9.6l-5.8 4.3.7.8 2.8-2 9.7 8.9 13-8.7-.6-.9-3.4 2.2-4.2-4.2v-29.8l3.5-2.6 7.5 6v26.4c0 16.5-3.6 19.1-11.1 21.8v1.1c12.3.5 23.4-3.6 23.4-24.7v-28.4l3.9-3.1-.7-.9-3.4 2.7-10.7-9.2-12.4 9.3v-35.8h-.9l-15.4 10.4v.9c1.6.9 4.1 1.6 4.1 6.7v48.8zm79.5-4.7l-10.7 8.3-11.1-8.7v-5.2l20.6-13.8v-.6l-10.2-15.7-22.5 12v28.6l-4.5 3.4.7.9 4-3.2 14.7 10.7 19.7-15.5-.7-1.2zm-21.7-7.1v-21.3l.7-.5 9.5 15-10.2 6.8zm105-49.9c0-1.3-.3-2.5-.8-4h-1c-1.3 3.6-3 5.6-7.2 5.6-3.7 0-6.6-2.3-8.2-3.9 0 .1-12.4 14.4-12.4 14.4l1 .9 3.5-4c2.7 2.1 4.7 4 10.7 4.1v36.2l-25.5-44.1c-2-3.3-5.3-8.3-11.4-8.3-6.8 0-13.1 5.9-12.3 15.8h1.3c.3-2.7 1.7-5.6 4.7-5.6 2.4 0 4.6 2.3 5.7 4.3v14.2c-7.9 0-13 3.6-13 10 0 3.3 1.7 8.9 7.1 9.9l.1-.9c-.7-.7-1.4-1.5-1.4-3 0-2.4 1.8-3.9 5-3.9.5 0 2 .1 2.3.2v18.4c-9.2.1-16.4 5.2-16.4 13.9 0 8.3 7.1 12.2 14.6 11.8l.1-1c-4.7-.5-7.1-2.7-7.1-5.7 0-3.7 2.7-5.7 6.1-5.7 3.5 0 6.6 2.2 8.8 4.7l12.5-14-1-.9-3.2 3.6c-4.8-4.2-7.5-5.8-12.9-6.6v-43.6l35.1 61.2h2.5v-61c6.3-.4 12.7-5.4 12.7-13zm31.3 57l-10.7 8.3-11.1-8.7v-5.2l20.6-13.8v-.6l-10.2-15.7-22.5 12v28.6l-4.5 3.4.7.9 4-3.2 14.7 10.7 19.7-15.5-.7-1.2zm-21.7-7.1v-21.3l.7-.5 9.5 15-10.2 6.8zm92.9-23.8l-3.2 2.4-8.3-7-9.6 8.7 3.9 3.7v32.8l-10.6-6.7v-26.7l3.4-2.4-10.1-9.4-9.4 8.7 3.9 3.7v31.2l-1.3.8-9.2-6.5v-26.2c0-6-2.9-7.8-6.7-10.1-3.2-2-4.7-3.6-4.7-6.6 0-2.5 2.5-3.9 3.7-4.7-.1-.1-.1-1-.1-1-3.3-.1-12.5 3.5-12.7 11.9-.1 4.3 2 6.2 4.1 8.3 2.2 2.1 4.1 4 4.1 7.7v25.2l-4.7 3.6.7.9 4.2-3.3 11.5 9 10.9-7.3 12 7.3 23.1-13.5v-29.2l5.7-4.1-.6-1.2zm80.7-23.9l-4.3 3.9-9.7-8.5-14.3 10.6v-9.9h-1.4l.3 70.5c-1.4-.2-5.1-1-8.4-1.5l-.3-58.9c0-4.3-3.1-10.4-10.9-10.4-8 0-13.2 6.1-13.2 12.2h1.2c.4-2.6 1.8-4.9 4.3-4.9 2.7 0 5 1.7 5 7.4v17c-8 .3-12.5 4.8-12.5 10.2 0 3.4 1.6 8.7 7.1 8.9l.2-1c-1.9-.8-2.3-2-2.3-3 0-2.5 2.4-3.5 5.7-3.5h1.6v26.9c-6.3 2.2-9.2 6.8-9.2 12.1 0 7.2 5.8 12.7 14.3 12.7 6 0 11.2-1 16.7-2.3 4.5-.9 9.8-2 12.4-2 3.3 0 4.8 1.5 4.8 3.9 0 3-1.3 4.1-3.1 4.7l.2 1c7.1-1.3 11.3-5.6 11.3-12 0-6.6-6.3-10.6-13.4-10.6-3.6 0-10.8 1.1-16.1 2.4-6 1.3-12.1 2-14 2-3 0-6.7-1.4-6.7-5.5 0-3.6 3-6.5 10.5-6.5 4 0 8.6.6 13.6 1.8 5.3 1.1 9.9 2.6 14.5 2.6 6.3 0 12-2.3 12-11.5v-53.6l5.1-4.3-1-.9zm-17.8 26.8c-1.1 1.2-3 2.5-5.2 2.5-2.4 0-4.1-1.4-5.3-2.5v-19.4l4.5-3 6 5.5v16.9zm0 12.9c-1-1-2.9-2.2-5.2-2.2-2.3 0-4.3 1.3-5.3 2.2v-11.4c.9.8 3 2.3 5.3 2.3s4.1-1.2 5.2-2.3v11.4zm0 20.3c0 3.5-2.4 6.9-6.9 6.9-.7 0-2.8-.1-3.5-.2v-25.5c1-.9 2.9-2.4 5.3-2.4 2.2 0 3.9 1.2 5.2 2.4v18.8h-.1zm59.4-30.8l-14.1-10-21.1 12.1v28.3l-4.3 3.5.6.9 3.4-2.8 14 10.2 21.5-13.1v-29.1zm-23.1 27.4v-31.1l11 7.9v31.1l-11-7.9zm64.6-36.3c0 .1-.8 0-.8 0-1.1 1-2.6 1.8-3.8 1.8-1.7 0-3.8-1-4.9-2.4h-.8l-7.3 8.1-7.6-8.1-12.8 8.9.6 1 3.4-2.3 4.5 4.8v27.4l-5.8 4.3.7.8 2.8-2 10.4 9 13.6-9-.6-.9-3.8 2.3-5.1-4.6v-30.5c2.2 2.4 4.8 4.5 7.8 4.5 5.7-.1 8.9-6.5 9.5-13.1zm52.3 41.7l-14.8 9.7-20.1-30.3 14.2-22 .9-.1c1.7 1.7 4.6 3.4 7.2 3.4 3 0 5.1-1.7 6.3-3.4 0 0 .8.1.8 0-.5 8.8-6.4 13.8-10.9 13.8-4.6 0-6.7-2.1-9.1-3.5l-1.3 2 21.7 32.2 4.3-2.7.8.9zm-47.8-2.5l-5.8 4.3.7.8 2.8-2 9.7 8.9 13-8.7-.7-.9-3.3 2.2-4.2-4.2v-67.2h-.9l-15.7 10.5v.9c1.5.9 4.5 1.3 4.5 6.6v48.8h-.1zm119.9-57.8c0-8.6-8.1-11.1-14.8-10.8v1.3c4 .1 7.1 1.4 7.1 4.1 0 1.9-1.3 4.2-5.4 4.2-3.2 0-9.4-1.9-14.4-3.5-5.5-1.9-10.7-3.6-15-3.6-8.5 0-14.9 6.3-14.9 14.1 0 6.3 4.8 8.6 6.7 9.4l.6-1c-1.2-.8-2.5-1.8-2.5-4.2 0-1.9 1.7-4.9 6-4.9 3.9 0 9.1 1.8 16 3.7 5.9 1.7 12.4 3.2 15.9 3.6v13.5l-6.6 5.5v.5l6.6 5.8v18.5c-3.4 2-7.3 2.5-10.8 2.5-6.3 0-12.3-1.7-17.1-6.9l17.8-8.6v-29.7l-21.8 9.7c2.3-5.8 6.8-9.6 11.5-12.4l-.3-1c-12.9 3.5-24.7 15.4-24.7 30.1 0 17.6 14.3 30.6 30.5 30.6 17.6 0 28.8-13.8 28.6-28.4l-1-.1c-2.6 5.6-6.3 10.9-11.2 13.7v-18l7-5.6-.1-.6-6.9-5.6v-13.5c6.5.2 13.2-4.2 13.2-12.4zm-37.7 48.2l-5.3 2.6c-3-3.9-5-9.2-5-16.6 0-3 .3-6.7 1.2-9.3l9.1-4v27.3zm52.6-52.2l-.6-.1-8.7 7.4v.6l7.4 8.3h.7l8.7-7.2-.1-.5-7.4-8.5zm13.3 64.3l-3.3 2.2-4.2-4.2v-30l4.1-3.1-.8-1-3.2 2.5-7.6-9-12.4 8.7.7 1.1 3.1-2.1 3.8 4.8v28.2l-5.6 4.2.6.8 2.9-2.1 9.5 8.7 13-8.7-.6-1zm72.5-.5l-3.1 2.1-4.7-4.2v-29.5l4.4-3.3-.7-.9-3.8 2.9-9.9-9.2-12.8 9.1-9.8-9.1-12.6 9-7.8-9-12.4 8.7.6 1.1 3.1-2.1 4.2 4.7v28.2l-3.4 3.4 9.9 8.4 9.6-8.7-3.9-3.7v-29.4l3.7-2.5 6.7 6.2v26.3l-3.3 3.4 10 8.4 9.4-8.7-3.9-3.7v-29.8l3.3-2.2 7.1 6.1v25.9l-2.9 3 10.1 9.2 13.4-9.1-.5-1zm37.7-6.7l-10.7 8.3-11.1-8.7v-5.2l20.6-13.8v-.6l-10.2-15.7-22.5 12v29.5l15 10.9 19.7-15.5-.8-1.2zm-21.7-7.1v-21.3l.7-.5 9.5 15-10.2 6.8zm61.5-4.1l-8.4-6.3c5.6-4.9 7.8-11.4 7.8-15.8 0-.6-.1-1.8-.2-2.8h-1c-.8 2.3-2.5 4.2-5.9 4.2-3.3 0-5.7-1.9-7.8-4.1l-19.6 10.7v15.8l7.2 5.7c-7.4 6.5-8.7 11.1-8.7 14.4 0 4.3 2 7.5 5.7 8.9l.5-.9c-.9-.8-1.8-1.3-1.8-3.3 0-1.4 1.8-3.5 5.1-3.5 4.2 0 6.8 2.9 8.2 4.5 0-.1 18.8-11.3 18.8-11.3v-16.2h.1zm-4.7-13c-2.9 5.2-9.6 10.3-13.4 13.2l-4.8-3.7v-15.5c1.9 4.1 6.4 7.7 11.4 7.7 3 0 4.6-.6 6.8-1.7zm-7.6 34.6c-2.2-4.9-7.2-8.4-12.4-8.4-1.2 0-4.9 0-8.2 2.1 2-3.3 7.8-9.5 15.2-14l5.4 4.1v16.2z" transform="matrix(.5993 0 0 .67332 -760.218 -982.645)"/></g></g></svg>
