<svg id="Layer_1" xmlns="http://www.w3.org/2000/svg" viewBox="-709 441 500 200"><style>.st0{fill:#413c3c}.st1{fill:#e9004c}.st2{fill:#00a8e1}.st3{fill:#6cc04a}</style><path class="st0" d="M-511.2 515c14.8 0 26.9 10.9 26.9 26 0 15.2-12.1 26.2-26.9 26.2-14.8 0-26.9-11-26.9-26.2 0-15.1 12-26 26.9-26zm0 44c9.4 0 17.1-7.5 17.1-17.9 0-10.3-7.7-17.8-17.1-17.8-9.3 0-17.1 7.5-17.1 17.8-.1 10.4 7.7 17.9 17.1 17.9zm80.7-24.1h2.2v-.9c0-8.2-4.6-10.9-10.9-10.9-7.7 0-13.9 4.8-13.9 4.8l-3.9-7s7.2-6 18.6-6c12.6 0 19.7 6.9 19.7 19.5V566h-9v-4.7c0-2.3.2-3.9.2-3.9h-.2s-4 9.9-16 9.9c-8.5 0-16.9-5.2-16.9-15.2 0-16.6 21.8-17.2 30.1-17.2zm-11.1 24.7c8.1 0 13.3-8.5 13.3-15.9v-1.6h-2.4c-7.2 0-20.2.5-20.2 9.4 0 4 3.1 8.1 9.3 8.1zm31.9-43.4h8.7v4.2c0 2-.2 3.7-.2 3.7h.2s4.2-9.1 16.8-9.1c13.3 0 21.8 10.6 21.8 26.2 0 15.9-9.6 26.2-22.6 26.2-10.9 0-15.3-8.2-15.3-8.2h-.2s.2 1.8.2 4.3v22.4h-9.6l.2-69.7zm23.3 42.9c7.9 0 14.4-6.4 14.4-17.8 0-10.8-5.8-17.8-14.1-17.8-7.5 0-14.4 5.2-14.4 17.9.1 8.8 5 17.7 14.1 17.7zm32.5-62.6h9.7v9.8h-9.7v-9.8zm0 19.7h9.6V566h-9.6v-49.8zm-123.5-19.7l.2 70.8h9.5v-70.8zm168 18.5c12.5 0 18.7 7.3 18.7 7.3l-4.5 6.7s-5.4-5.7-13.8-5.7c-10 0-17.4 7.5-17.4 17.8 0 10.2 7.2 17.9 17.6 17.9 9.3 0 15.4-6.7 15.4-6.7l3.9 7s-6.9 7.9-19.9 7.9c-15.7 0-26.8-11.1-26.8-26.2.1-14.7 11.2-26 26.8-26zm-252.3 11.5h-1.9V523c0-.5-.5-.9-1.2-.9h-5.8c-.6 0-1.2.4-1.2.9v3.5h-7.9v-1.8c0-2.5-2-4.5-4.5-4.5h-17.2c-2.5 0-4.5 2-4.5 4.5v1.8h-6.9v-2.4c0-.6-.5-1.2-1.2-1.2h-.8v-.9c0-.4-.3-.7-.7-.7h-4.6c-.3 0-.7.3-.7.7v.9h-.8c-.6 0-1.2.5-1.2 1.2v2.4h-1c-2.5 0-4.5 2-4.5 4.5v31.7c0 2.5 2 4.5 4.5 4.5h62c2.5 0 4.5-2 4.5-4.5V531c.2-2.5-1.9-4.5-4.4-4.5zm-31.1 34.7c-7.9 0-14.4-6.4-14.4-14.4s6.4-14.4 14.4-14.4 14.4 6.4 14.4 14.4-6.5 14.4-14.4 14.4z"/><path class="st0" d="M-584.4 546.9c0 4.6-3.7 8.3-8.3 8.3-4.6 0-8.3-3.7-8.3-8.3 0-4.6 3.7-8.3 8.3-8.3 4.5-.1 8.3 3.6 8.3 8.3z"/><path class="st1" d="M-607.6 496.2h-19.5c-.7 0-1.2.5-1.2 1.2v15c0 .7.5 1.2 1.2 1.2h12.5l4.6 4.5v-4.5h2.4c.7 0 1.2-.5 1.2-1.2v-15c0-.6-.5-1.2-1.2-1.2zm-13.8 13.7h-1.8v-2.8h1.8v2.8zm3.3 0h-1.8v-4.7h1.8v4.7zm3.2 0h-1.8v-6h1.8v6zm3.4 0h-1.8v-10.2h1.8v10.2z"/><path class="st2" d="M-569.3 503.8h2.3v2.3h-2.3z"/><path class="st2" d="M-558.5 496.3H-578c-.7 0-1.2.5-1.2 1.2v15c0 .7.5 1.2 1.2 1.2h2.4v4.5l4.6-4.5h12.5c.7 0 1.2-.5 1.2-1.2v-15c.2-.6-.5-1.2-1.2-1.2zm-4.9 7.5h-2.1v2.3h2.1v1.6h-2.1v2.2h-1.6v-2.2h-2.3v2.2h-1.6v-2.2h-2.1v-1.6h2.1v-2.3h-2.1v-1.6h2.1V500h1.6v2.2h2.3V500h1.6v2.2h2.1v1.6z"/><path class="st3" d="M-583 496.3h-19.5c-.7 0-1.2.5-1.2 1.2v15c0 .7.5 1.2 1.2 1.2h7.5l2.2 4.5 2.3-4.5h7.5c.7 0 1.2-.5 1.2-1.2v-15c0-.6-.5-1.2-1.2-1.2zm-2.3 7.5c-.9 3.6-7.3 7.2-7.5 7.3-.2-.1-6.6-3.9-7.5-7.3-1.2-4.2 4.2-6.8 7.5-3.1 3.4-3.8 8.6-1.1 7.5 3.1z"/></svg>