<svg xmlns="http://www.w3.org/2000/svg" width="500" height="200" viewBox="0 0 375 150" version="1.2"><path style="stroke:none;fill-rule:nonzero;fill:#01609c;fill-opacity:1" d="M15 103.55V84.544c.11-5.023 0-10.059.371-15.07.547-7.762 2.895-14.957 8.059-20.926a26.4 26.4 0 0 1 8.285-6.309c4.633-2.36 9.566-2.86 14.601-2.86h47.391c.613 0 1.191.09 1.793.145v38.989l-.07 2.11-.168 1.222-.13 1.539c-.304 1.465-.612 2.937-.921 4.398a32.641 32.641 0 0 1-6.059 13.04c-1.832 2.347-4.468 4.058-6.722 6.054l-.809.387-2.883 1.515-1.656.543-.781.27c-6.446 1.48-12.989.95-19.504.972-12.91.055-25.824 0-38.738 0H15zm14.863-9.777c.434.043.614.079.832.079h34.836a19.18 19.18 0 0 0 9.547-2.188 8.157 8.157 0 0 0 1.836-1.473c2.824-2.902 3.48-6.644 3.606-10.39.23-7.434.195-14.875.27-22.313 0-.386-.075-.777-.118-1.195-.336-.035-.613-.082-.824-.082H43.785c-2.773 0-5.308.86-7.805 1.91a6.655 6.655 0 0 0-2.035 1.426c-2.656 2.687-3.605 6.148-3.746 9.742-.262 6.777-.242 13.566-.336 20.352-.011 1.328 0 2.675 0 4.132zm0 0"/><path style="stroke:none;fill-rule:nonzero;fill:#03629d;fill-opacity:1" d="M170.57 100.25v10.273h-10.52v-3.918c0-.546.075-1.093.075-1.64V79.398c0-1.707-.063-3.406-.086-5.105V61.164c.715-.035 1.223-.09 1.766-.09h38.465a21.534 21.534 0 0 1 11.61 3.137 19.342 19.342 0 0 1 3.288 2.477 19.098 19.098 0 0 1 2.684 3.12 19.186 19.186 0 0 1 1.964 3.618c.528 1.277.91 2.597 1.153 3.953.61 3.328.566 6.785.82 10.183l-.059 21.086v1.872h-10.437v-7.579c.031-3.925.094-7.843.066-11.765 0-2.965 0-5.942-.28-8.887-.36-3.473-1.786-6.559-5.048-8.215-3.265-1.656-6.937-.996-10.574-1.031V99.629c0 1 .066 2.004.106 3.004v7.887H184.91v-10.274c.05-.297.086-.594.102-.894V74.207c0-.336-.055-.676-.098-1.117h-14.027l-.328.281c-.032 3.305-.079 6.606-.075 9.914.012 5.653.055 11.313.086 16.965zm0 0"/><path style="stroke:none;fill-rule:nonzero;fill:#03619c;fill-opacity:1" d="m151.555 106.895 2.726 3.53c-.265.087-.539.15-.816.18h-10.39a6.265 6.265 0 0 1-1.548-.445c-2.476-2.863-4.988-5.691-7.414-8.594-2.425-2.906-4.675-5.77-6.984-8.68a2.922 2.922 0 0 0-2.52-1.308c-4.89.063-9.777 0-14.632 0-.477 0-.957.05-1.504.078v18.875H98.21V80.582l33.047-.043c1.656 0 3.324-.09 4.98 0 4.633.3 7.528-3.055 7.75-7.469H98.25V61.16h55.77V74.88c-.38 1.715-.68 3.457-1.16 5.14-1.028 3.57-2.962 6.61-6.114 8.594-2.144 1.34-4.457 2.489-7.082 2.68-.27.059-.527.152-.77.277.825 1.016 1.56 1.953 2.329 2.856 1.582 1.836 3.203 3.668 4.754 5.562 1.882 2.282 3.714 4.602 5.578 6.907zm0 0"/><path style="stroke:none;fill-rule:nonzero;fill:#02619c;fill-opacity:1" d="M360 84.543v26h-10.39V91.719h-35.204v18.812h-10.39V84.242c.433-3.523.433-3.523 4.125-3.523h41.304v-7.61H306.31a32.808 32.808 0 0 1 2.101-3.918 18.131 18.131 0 0 1 4.031-4.164 18.202 18.202 0 0 1 5.137-2.695 27.725 27.725 0 0 1 8.992-1.25h33.379zM298.71 103.27v7.199h-55.8V94.512c.078-4.223.133-8.453.238-12.676.165-3.7 1.125-7.18 2.88-10.438 2.34-4.597 5.87-7.945 11.062-9.168 2.164-.503 4.375-1.101 6.574-1.12 11.32-.114 22.645-.055 33.965-.047.246 0 .488.035.855.066v11.898h-33.957a22.026 22.026 0 0 0-3 .196c-4.195.613-6.496 3.257-7.543 7.152a33.824 33.824 0 0 0-.609 3.855v14.852h45.336zM237.469 74.57v35.942h-10.262V94.508c0-10.516.07-21.031 0-31.547 0-1.5.32-2.027 1.902-1.922 2.352.145 4.723.078 7.09 0 .996 0 1.297.305 1.29 1.29-.02 4.093-.02 8.171-.02 12.241zm0 0"/><path style="stroke:none;fill-rule:nonzero;fill:#ef7929;fill-opacity:1" d="M291.352 48.953c-.11 3.633-1.633 6.395-4.918 8.027-.942.465-1.079.872-.465 1.692.191.387.32.797.39 1.223a7.071 7.071 0 0 1-1.222.359c-1.387.168-2.446-.242-2.41-1.832 0-1.223-.91-1.613-1.692-2.004-4.89-2.445-5.758-10.246-2.176-14.273 2.446-2.75 5.946-3.403 8.723-1.422a8.62 8.62 0 0 1 2.332 2.511 8.637 8.637 0 0 1 1.195 3.215c.145.793.145 1.656.243 2.504zm-12.16-.488c.273 1.008.488 2.035.835 3.02.141.378.336.726.586 1.042a3.967 3.967 0 0 0 1.938 1.36c.383.125.777.191 1.18.195.417.04.832.016 1.242-.074.406-.09.793-.242 1.156-.453.36-.215.68-.477.96-.79.278-.316.5-.663.669-1.046 1.32-2.77 1.222-5.399-.903-7.832-1.265-1.453-4.07-1.797-5.378-.438a7.226 7.226 0 0 0-1.633 2.285 7.252 7.252 0 0 0-.653 2.73zm0 0"/><path style="stroke:none;fill-rule:nonzero;fill:#ee7a2a;fill-opacity:1" d="M114.621 56.95c-2.762.523-3.101.347-3.953-1.837a25.16 25.16 0 0 1-.953-2.523c-.336-1.266-1.113-1.574-2.336-1.504-1.012.062-1.496.484-1.52 1.445 0 .758 0 1.508.055 2.262.172 2.613-.105 2.828-2.91 2.105v-16.91c2.41 0 4.781-.215 7.098.043 4.73.512 5.195 7.059 3.02 9.442-.974 1.07-.833 1.89-.376 2.953.598 1.441 1.192 2.91 1.875 4.523zM105.7 45.52c0 3.093.36 3.41 3.446 2.886h.156c1.562-.297 2.125-1.027 2.105-2.765 0-1.832-.64-2.707-2.12-2.977-3.173-.605-3.579-.281-3.606 2.856zm0 0"/><path style="stroke:none;fill-rule:nonzero;fill:#ef7929;fill-opacity:1" d="M307.645 40.04c.101.308.164.62.195.944-.07 4.278-.195 8.559-.242 12.836a3.3 3.3 0 0 1-.66 1.985 3.18 3.18 0 0 1-.766.734 3.215 3.215 0 0 1-.957.453c-2.703.832-5.543 1.086-8.027-.797a2.844 2.844 0 0 1-1.18-1.832c-.254-4.754-.38-9.511-.535-14.215 2.879-.656 3.117-.445 3.054 2.23-.043 3.056-.074 6.11-.062 9.204 0 2.164 1.004 3 3.148 3.117.215.016.434.008.649-.02.215-.027.422-.077.629-.152.203-.074.398-.164.582-.277a3.157 3.157 0 0 0 1.25-1.45 3.135 3.135 0 0 0 .254-1.26c-.149-3.013-.043-6.032-.153-9.052-.074-2.695-.125-2.695 2.82-2.449zm0 0"/><path style="stroke:none;fill-rule:nonzero;fill:#ed7c2e;fill-opacity:1" d="M241.094 39.883c3.097 0 5.96-.133 8.8.058 1.61.11 1.079 1.57 1.122 2.735h-5.012c-1.645 0-1.836.308-1.91 2.445-.055 1.348.312 1.914 1.77 1.781 1.452-.136 3.1-.03 4.741-.03.06.398.157.78.184 1.167.09 1.77 0 1.832-1.793 1.672-.695-.066-1.406-.035-2.11-.035-2.663 0-3.41.922-2.687 3.527.278.512.707.8 1.285.875 1.832.098 3.703.035 5.7.035.09.438.144.88.168 1.325 0 1.222-.32 1.921-1.836 1.835-2.297-.171-4.621-.086-6.93-.043-1.031 0-1.484-.41-1.484-1.406zM273.262 54.125c.043.441.133.934.133 1.43 0 1.16-.38 1.793-1.79 1.699-2.304-.145-4.62-.086-6.93-.035-1.12 0-1.546-.453-1.534-1.512.035-5.121.07-10.242.097-15.363 0-.094.078-.18.215-.453 2.805 0 5.707-.149 8.59.062 1.48.11.96 1.574 1.047 2.723h-5.145c-1.586 0-1.726.351-1.836 2.554-.046 1.352.41 1.77 1.723 1.672 1.547-.113 3.106 0 4.828 0 .05.61.106 1.223.149 1.875.054.946-.372 1.188-1.301 1.075-1.223-.145-2.508-.11-3.758-.145-1.04 0-1.61.457-1.61 1.535v1.656c0 .883.434 1.262 1.31 1.25 1.882-.035 3.738-.023 5.812-.023zM179.965 46.883c.066.469.14.812.152 1.156.078 1.797 0 1.832-1.777 1.684-.754-.067-1.512-.035-2.262-.035-2.445 0-3.387 1.273-2.523 3.667.285.446.691.696 1.218.747 1.836.078 3.707.03 5.747.03.07.536.109 1.071.117 1.614 0 1.043-.399 1.586-1.657 1.516-2.351-.137-4.726-.082-7.082-.04-1.023 0-1.503-.39-1.5-1.39.04-5.172.07-10.344.106-15.52 0-.085.09-.171.226-.421 2.762 0 5.622-.13 8.458.05 1.664.102.996 1.606 1.222 2.743h-5.262c-1.554 0-1.68.359-1.773 2.59-.059 1.402.488 1.714 1.762 1.632 1.59-.097 3.148-.023 4.828-.023zM128.266 54.133c.078.402.136.808.168 1.222.039 1.586-.282 1.868-1.895 1.864-2.309 0-4.617-.04-6.934 0-.949 0-1.418-.38-1.418-1.309V39.941H125.716c2.39-.05 2.562.133 2.37 2.743-1.655 0-3.343-.063-5.015 0-.57.035-1.523.37-1.59.703a11.83 11.83 0 0 0 0 3.238c0 .11.707.223 1.086.223h5.192c.047.488.097.925.14 1.375.141 1.3-.25 1.832-1.707 1.507a16.763 16.763 0 0 0-3.457-.074 1.307 1.307 0 0 0-.601.059 1.3 1.3 0 0 0-.836.82 1.26 1.26 0 0 0-.067.602v1.222c-.117 1.278.383 1.832 1.723 1.774 1.711-.086 3.465 0 5.313 0zm0 0"/><path style="stroke:none;fill-rule:nonzero;fill:#ef7929;fill-opacity:1" d="M145.738 56.992c-2.675.434-2.976.336-3.55-1.957-.348-1.398-1.016-1.969-2.415-1.746-.406.023-.816.023-1.222 0-2.942.066-3-.531-3.852 2.688-.082.27-.219.507-.414.714-.191.207-.418.36-.683.461-.266.102-.536.141-.817.114a1.808 1.808 0 0 1-.785-.254 1.328 1.328 0 0 1-.3-1.254c1.429-4.383 2.913-8.746 4.394-13.11.187-.41.328-.836.426-1.277.16-1.559 1.187-1.676 2.445-1.684 1.262-.003 1.222.97 1.512 1.711 1.628 4.633 3.226 9.278 4.796 13.926.176.512.293 1.04.465 1.668zm-4.89-6.691-2.391-6.805c-.8 2.445-1.488 4.492-2.258 6.805zM224.262 56.992c-2.676.434-2.977.336-3.551-1.957-.356-1.406-1.016-1.969-2.445-1.746-.407.023-.813.023-1.223 0-2.926.07-3.004-.547-3.848 2.688a1.83 1.83 0 0 1-1.101 1.175c-.262.102-.535.141-.817.114a1.808 1.808 0 0 1-.785-.254 1.318 1.318 0 0 1-.3-1.254c1.425-4.383 2.917-8.746 4.39-13.11.188-.41.332-.836.434-1.277.16-1.559 1.183-1.676 2.445-1.684 1.258-.003 1.223.97 1.504 1.711 1.617 4.633 3.207 9.282 4.8 13.926.212.512.325 1.04.497 1.668zm-9.551-6.722h4.613c-.8-2.336-1.535-4.415-2.351-6.778zM325.43 56.992c-2.676.434-2.973.336-3.551-1.957-.348-1.406-1.012-1.969-2.414-1.746-.406.023-.813.023-1.223 0-2.914.07-3.004-.55-3.855 2.688-.082.27-.219.507-.414.714-.192.207-.418.36-.684.461-.266.102-.535.141-.816.114a1.808 1.808 0 0 1-.786-.254 1.328 1.328 0 0 1-.3-1.254c1.43-4.383 2.922-8.746 4.394-13.11.192-.414.332-.84.426-1.285.16-1.558 1.223-1.668 2.445-1.675 1.223-.004 1.223.968 1.504 1.71 1.63 4.633 3.23 9.278 4.797 13.926.2.52.309 1.043.477 1.668zm-7.285-13.55-2.254 6.843h4.601zm0 0"/><path style="stroke:none;fill-rule:nonzero;fill:#ef7a29;fill-opacity:1" d="M185.035 53.938c.723-.032 1.457-.06 2.192-.102 1.14-.07 2.234-.254 2.578-1.606.34-1.351-.614-1.937-1.559-2.605-1.387-1-3-1.832-3.375-3.773-.371-1.946.375-4.336 1.785-5.278 1.414-.941 4.656-.996 6.028.125.379.504.464 1.051.257 1.649-.28.539-.714.867-1.308.988-.711.086-1.5-.395-2.188-.281-.675.144-1.175.52-1.492 1.133a2.09 2.09 0 0 0 .457 1.789 5.527 5.527 0 0 0 2 1.488c2.77 1.191 3.121 5.5 1.344 7.68a7.184 7.184 0 0 1-2.059 1.73c-2.89 1.621-4.629.543-4.66-2.938zM342.965 53.953c.918-.055 1.836-.086 2.77-.176 1.035-.097 2.023-.55 1.98-1.656a3.512 3.512 0 0 0-1.137-2.195c-1.308-1.223-3.191-1.832-3.668-3.899a5.283 5.283 0 0 1 1.676-5.425c1.398-1.055 4.59-1.055 6.016.066.351.281.433 1.258.242 1.77a1.824 1.824 0 0 1-1.395.863c-.664.066-1.398-.387-2.039-.262a2.172 2.172 0 0 0-1.515 1.098c-.157.68-.016 1.289.414 1.836a5.507 5.507 0 0 0 2.003 1.492c2.813 1.222 3.157 5.5 1.403 7.676a6.947 6.947 0 0 1-2.188 1.797c-2.906 1.476-4.406.511-4.562-2.985zm0 0"/><path style="stroke:none;fill-rule:nonzero;fill:#ee7a2b;fill-opacity:1" d="M200.45 42.691h-3.74c-.378-2.605-.128-2.832 2.255-2.77 2.383.06 4.62.075 6.918-.073 1.39-.086 1.558.613 1.652 1.699.117 1.285-.71 1.187-1.547 1.187-2.297 0-2.367 0-2.383 2.211-.039 3.563 0 7.133.047 10.696 0 .964-.058 1.648-1.343 1.582-1.13-.055-1.914-.13-1.864-1.618.121-3.62.102-7.242.121-10.867.008-.593-.066-1.187-.117-2.047zM226.781 42.617c0-2.824 0-2.762 2.446-2.695 2.285.066 4.578.066 6.898-.067 1.418-.085 1.516.708 1.61 1.727.1 1.168-.614 1.188-1.43 1.145h-.907c-1.16-.141-1.632.316-1.613 1.523.067 3.715.047 7.43.063 11.145 0 1.738-.985 2.445-2.551 1.664-.36-.176-.61-.965-.61-1.48 0-3.618.06-7.243.06-10.86 0-1.973-.056-1.961-1.985-1.961-.625-.02-1.266-.098-1.98-.14zm0 0"/><path style="stroke:none;fill-rule:nonzero;fill:#ee7b2d;fill-opacity:1" d="M339.043 54.113c.086.344.152.692.203 1.043.18 1.89 0 2.106-1.879 2.086l-6.789-.043c-.738 0-1.453-.062-1.46-1.062V40.184c2.76-.707 3.183-.403 3.136 2.34-.063 3.367-.113 6.722-.254 10.093-.047 1.219.398 1.574 1.574 1.52 1.746-.09 3.52-.024 5.469-.024zM149.29 39.941c.405.028.815.028 1.222 0 1.367-.203 1.832.504 1.777 1.723-.078 2.254-.187 4.516-.242 6.77-.04 1.406.07 2.824 0 4.226-.082 1.27.488 1.528 1.613 1.477 1.742-.078 3.496 0 5.426 0 .098.402.168.812.215 1.222.12 1.723-.067 1.914-1.774 1.903-2.316 0-4.625-.043-6.937-.043-.875 0-1.442-.223-1.442-1.262V40.43c-.074-.106.008-.192.141-.489zm0 0"/><path style="stroke:none;fill-rule:nonzero;fill:#f37926;fill-opacity:1" d="M37.762 82.77a20.752 20.752 0 0 1-.27-2.301c0-3.625.031-7.25 0-10.867a5.315 5.315 0 0 1 2.738-5.008 2.26 2.26 0 0 1 1.125-.293h25.817c.246.035.492.086.73.152-.238.313-.351.613-.562.715-1.887 1.113-3.8 2.187-5.688 3.309a6926.894 6926.894 0 0 0-14.058 8.312 763.465 763.465 0 0 0-8.555 5.164c-.398.207-.746.445-1.277.817zm0 0"/><path style="stroke:none;fill-rule:nonzero;fill:#f37823;fill-opacity:1" d="M42.918 85.484a9.617 9.617 0 0 1 1.145-.96 165.516 165.516 0 0 1 4.23-2.528c2.027-1.187 4.082-2.324 6.11-3.527 4.066-2.446 8.109-4.89 12.167-7.336a592.172 592.172 0 0 1 4.89-2.895c.415-.238.88-.398 1.493-.672.059.672.133 1.149.133 1.63v11.613c-.023 3.296-1.73 5.02-5 5.02H43.07zm0 0"/></svg>