<svg xmlns="http://www.w3.org/2000/svg" viewBox="0 0 500 200"><g fill-rule="evenodd" clip-rule="evenodd"><path fill="#EE6B39" d="M477.754 51c-.818-.923-1.57-1.913-2.463-2.758-2.37-2.23-4.76-4.447-7.21-6.592-3.45-3.016-7.37-5.37-11.45-7.378-5.51-2.696-11.26-4.778-17.35-5.68-3.3-.48-6.63-.735-9.94-1.057-1.41-.13-2.84-.254-4.25-.2-3.74.148-7.48.256-11.19.646-6.13.65-12.17 1.8-17.97 3.96-4.48 1.68-8.63 3.93-12.32 7.05-5.01 4.26-7.97 9.65-9.1 16.03-1.35 7.71.31 14.8 5.05 21.1 3.24 4.31 7.33 7.63 11.99 10.29 5.22 2.99 10.85 4.81 16.68 6.07 1.74.38 3.53.51 5.41.78 1.4 5.25 1.52 10.42-1.69 15.26.08.08.16.15.25.25 1.89-1.26 3.89-2.37 5.63-3.8 2.46-2.01 4.8-4.19 7.07-6.42 1.19-1.17 2.21-2.55 3.12-3.96.63-.97 1.48-1.18 2.42-1.19 4.9-.01 9.63-.93 14.15-2.76 6.86-2.76 12.41-7.06 15.71-13.84 1.45-2.97 2.22-6.16 1.97-9.47-.33-4.41-1.9-8.38-4.67-11.85-2.64-3.3-5.86-5.89-9.58-7.91-4.37-2.37-9.03-3.78-13.9-4.72-4.71-.9-9.46-1.06-14.18-.73-6.87.46-13.4 2.24-19.21 6.2-3.58 2.45-6.51 5.49-8.47 9.38-2.24 4.468-2.54 9.038-.6 13.72 2.26 5.42 6.07 9.428 11.09 12.348 3.99 2.32 8.28 3.78 12.86 4.17 3.25.28 6.52.55 9.76.388 4.52-.223 8.99-1.02 13.03-3.3 4.34-2.443 7.17-5.93 7.79-11.06.51-4.123-1.09-7.43-3.62-10.422-3.3-3.89-7.63-5.94-12.63-6.56-2.46-.31-4.97-.53-7.45-.4-3.98.22-7.88 1.037-11.29 3.31-2.86 1.91-4.79 4.52-5.47 7.92-1.11 5.57 1.83 10.24 6.48 12.73 2.78 1.49 5.76 2.29 8.89 2.16 3.02-.12 6-.63 8.62-2.316 3.98-2.54 3.09-7.314-.41-9.21-2.26-1.23-4.68-1.683-7.19-1.833-1.15-.075-2.3-.02-3.52-.225.31-.09.61-.22.92-.29 4.01-.94 8.03-1.223 12.015.087 3 .987 5.4 2.738 6.43 5.875.668 2.02.05 3.87-1.2 5.49-2.273 2.92-5.54 4.01-9.015 4.53-2.18.33-4.39.63-6.58.62-6.64-.07-12.83-1.77-18.12-5.94-2.41-1.89-4.35-4.307-5.02-7.38-.7-3.205.15-6.19 2.1-8.814 3.21-4.343 7.77-6.56 12.86-7.76 2.39-.57 4.86-.86 7.31-1.06 2.67-.213 5.36-.37 8.025-.196 5.28.344 10.47 1.36 15.16 3.97 4.485 2.48 8.05 5.854 9.705 10.89.91 2.75.62 5.43-.58 8.01-1.94 4.19-5.19 7.136-9.16 9.355-3.75 2.085-7.83 3.24-12.014 3.95-4.39.734-8.843.89-13.28.63-5.234-.32-10.39-1.23-15.34-3.08-4.8-1.8-9.19-4.226-13.04-7.65-3.35-2.99-5.93-6.456-7.374-10.72-1.35-4.01-.955-7.89.8-11.7 2.507-5.43 6.71-9.19 11.76-12.17 4.5-2.65 9.394-4.24 14.456-5.31 2.18-.46 4.41-.71 6.63-.88 3.216-.23 6.446-.48 9.66-.396 4.19.11 8.354.64 12.465 1.51 4.32.91 8.55 2.154 12.58 3.926 3.6 1.6 7.08 3.45 10.15 6 3.364 2.81 6.24 5.99 7.97 10.09.83 1.96 1.36 3.986 1.62 6.114.37 2.96.21 5.814-.85 8.63-1.02 2.705-2.59 5.05-4.46 7.203-4.09 4.71-9.16 8.05-14.79 10.6-3.71 1.683-7.56 2.97-11.62 3.5-2.08.277-4.17.418-6.26.66-.29.03-.68.205-.805.44-2.45 4.533-6.308 7.65-10.49 10.44-4.98 3.32-10.4 5.764-15.95 7.936-2.43.954-4.93 1.745-7.48 2.434.88-.76 1.75-1.525 2.65-2.26 3.91-3.243 6.99-7.107 8.73-11.92.835-2.31.907-4.75.72-7.184-.04-.6-.41-.755-.995-.75-5.72.03-11.24-1.1-16.605-3.04-5.26-1.9-10.068-4.58-14.43-8.11-4.39-3.533-7.96-7.7-10.41-12.773-1.67-3.47-2.58-7.1-2.65-11-.08-4.615.87-8.94 2.97-13.01 1.89-3.64 4.46-6.73 7.563-9.445 3.47-3.035 7.318-5.425 11.44-7.42 5.09-2.47 10.41-4.293 15.96-5.405 3.38-.675 6.778-1.315 10.188-1.85 1.8-.28 3.64-.31 5.46-.46.32-.03.63-.14.944-.203h12.99c.22.06.43.172.64.2 2.02.22 4.07.29 6.05.67 4.09.797 8.11 1.82 12.02 3.28 6.7 2.5 12.71 6.11 18 10.886 3.63 3.28 6.75 7.03 8.78 11.57v.63z"/><path fill="#010101" d="M365.634 173.595c-.77-.072-1.544-.146-2.313-.21-3.98-.29-7.88-.95-11.5-2.73-3.3-1.624-5.83-4.027-6.77-7.71-1.17-4.582-.53-8.802 3.1-12.177 2.16-2.004 4.85-3.024 7.64-3.785.59-.157 1.17-.308 1.72-.453-.94-.67-1.9-1.322-2.83-2.01-2.13-1.595-2.47-4.88-.54-6.653.71-.646 1.45-1.28 2.25-1.8.77-.52 1.62-.88 2.17-1.17-1.85-1.16-3.96-2.193-5.71-3.648-2.05-1.72-3.28-4.12-3.87-6.76-.94-4.21-.73-8.36 1.1-12.29 1.95-4.2 5.52-6.55 9.78-7.96 2.92-.97 5.92-1.47 9-1.49 7.19-.04 14.36-.13 21.54-.2.1 0 .2.03.36.06v7.87h-7.34c.87 1.78 2.02 3.49 2.56 5.37 1.4 4.85.62 9.42-2.42 13.54-2.65 3.58-6.37 5.24-10.63 6.05-2.81.54-5.59 1.22-8.37 1.89-.48.11-.94.4-1.35.7-.92.66-1.43 1.92-.06 2.96 1.94 1.48 4.23 2.05 6.51 2.59 3.49.83 7.04 1.39 10.48 2.36 4.14 1.16 7.77 3.21 9.73 7.3 1.14 2.39 1.33 4.9.99 7.54-.4 3.18-1.82 5.77-4.21 7.78-2.3 1.93-5.06 3.07-7.99 3.74-2.79.66-5.6 1.1-8.48 1.06-.24-.01-.49.12-.74.19h-3.77zm-.076-21.18c-2.43-.07-4.81.176-7.1 1.057-1.832.707-3.53 1.63-4.314 3.55-.947 2.332.375 5.055 2.922 6.437 2.938 1.6 6.177 1.76 9.38 1.92 1.99.09 3.996-.2 5.99-.38 2.662-.26 5.188-.98 7.265-2.75 1.07-.9 1.69-2.09 1.53-3.58-.29-2.56-2.07-3.74-4.2-4.56-3.69-1.42-7.57-1.57-11.46-1.7zm1.82-41.71c-.422.047-1.142.113-1.85.24-2.46.435-4.504 1.56-5.99 3.616-1.464 2.03-1.88 4.24-1.476 6.7.447 2.71 1.782 4.81 4.244 5.89 3.634 1.6 7.312 1.56 10.976-.22 4.316-2.1 5.302-8.06 3.007-11.68-1.98-3.11-5.02-4.39-8.92-4.53z"/><path fill="#EE6B39" d="M24.454 122.675c.35-1.406.614-2.837 1.055-4.212 1.42-4.433 4.03-8.03 7.57-11.067 3.28-2.814 7.03-4.644 11.22-5.398 6.39-1.164 12.5-.265 18.12 3.2 5.83 3.586 9.68 8.682 11.31 15.317 1.21 4.933.85 9.83-1.02 14.592-1.35 3.41-3.35 6.376-6 8.9-3.55 3.36-7.73 5.517-12.56 6.302-1.77.29-3.58.45-5.36.41-5.68-.11-10.82-1.79-15.28-5.44-3.83-3.14-6.65-6.93-8.1-11.69-.41-1.32-.66-2.68-.98-4.02v-6.92zm39.925 3.593c-.15-1.2-.18-2.427-.44-3.586-.77-3.453-2.54-6.285-5.22-8.615-3.65-3.176-7.82-4.142-12.48-3.236-3.9.77-6.86 3.05-9.06 6.19-2.61 3.73-3.47 7.92-2.54 12.44.8 3.87 2.75 6.98 5.86 9.4 3.81 2.96 8.07 3.82 12.69 2.52 6.36-1.79 11.25-8.25 11.16-15.1z"/><path fill="#010101" d="M219.595 147.73v-69.2h9.564v26.335c1.56-.713 3.02-1.54 4.58-2.076 3.21-1.1 6.51-1.47 9.94-1.14 3.11.31 6.08.96 8.85 2.39 2.92 1.51 5.32 3.64 7.22 6.34 2.58 3.68 3.84 7.78 4.26 12.24.43 4.51.18 8.94-1.29 13.25-2.12 6.2-6.33 10.4-12.41 12.8-3.63 1.42-7.38 2.08-11.26 2.07-1.23-.02-2.46 0-3.69-.01-4.46-.04-8.78-.98-13.04-2.17-.92-.26-1.82-.56-2.75-.85zm9.608-20.684c0 4.082.012 8.17-.014 12.25-.01.67.14.973.86 1.232 3.9 1.406 7.89 1.75 11.99 1.22 2.83-.37 5.3-1.52 7.42-3.41 2.99-2.682 4.15-6.25 4.41-10.09.15-2.187-.06-4.432-.41-6.605-.55-3.355-2.21-6.236-4.89-8.325-3.09-2.427-6.67-3.224-10.61-2.837-2.97.29-5.52 1.44-8.03 2.9-.63.36-.76.78-.75 1.42.01 4.08 0 8.17 0 12.25z"/><path fill="#EE6B39" d="M171.57 127.887h-35.38c.566 2.04.958 3.966 1.638 5.795 1.322 3.538 3.904 5.886 7.43 7.22 3.88 1.462 7.822 1.238 11.77.357 4.662-1.05 8.886-3.08 12.857-5.69.217-.14.48-.23.845-.39 0 3.22.01 6.32-.015 9.42-.007.19-.226.46-.416.58-4.18 2.57-8.62 4.45-13.51 5.13-1.98.27-3.97.63-5.95.59-5.8-.11-11.34-1.29-15.92-5.12-3.02-2.52-5.38-5.6-6.75-9.38-.95-2.59-1.43-5.26-1.71-8-.44-4.36.01-8.57 1.5-12.68.87-2.44 2.27-4.57 3.91-6.58 1.87-2.29 4.21-3.94 6.79-5.24 2.29-1.17 4.77-1.87 7.37-2 1.73-.1 3.47-.3 5.19-.19 4.5.27 8.65 1.58 12.2 4.52 4.21 3.48 6.48 8.05 7.47 13.32.27 1.45.5 2.91.61 4.38.1 1.26.02 2.56.02 3.92zm-34.957-6.95h24.44c-.752-6.906-5.844-11.768-13.823-10.843-5.94.695-9.81 5.052-10.617 10.843z"/><path fill="#010101" d="M292.074 126.135c-.272-13.547 11.096-24.824 25.316-24.627 13.5.193 25.096 11.09 24.74 25.34-.31 12.54-10.582 24.35-26.01 23.92-12.774-.357-24.34-10.82-24.046-24.633zm9.93.024c.16 1.29.194 2.61.49 3.87.803 3.44 2.62 6.28 5.36 8.53 3.575 2.94 7.613 3.95 12.12 3.03 3.307-.67 5.933-2.46 8.154-4.98 2.75-3.13 3.98-6.81 3.925-10.86-.034-2.75-.75-5.4-2.27-7.78-2.497-3.93-5.857-6.54-10.566-7.29-4.528-.73-8.485.52-11.812 3.5-3.498 3.13-5.47 7.09-5.4 11.95z"/><path fill="#EE6B39" d="M86.363 102.602l14.368 30.917c.6-1.32 1.15-2.5 1.67-3.69 1.3-3.01 2.59-6.02 3.89-9.04 1.93-4.48 3.86-8.97 5.8-13.45.61-1.41 1.23-2.83 1.9-4.21.13-.27.53-.56.81-.56 3.25-.04 6.5-.03 9.89-.03-.66 1.51-1.27 2.93-1.91 4.34l-7.35 16.26c-2.6 5.76-5.21 11.52-7.81 17.28-1.44 3.21-2.89 6.42-4.3 9.64-.23.52-.51.71-1.07.68-.9-.06-1.82-.1-2.72 0-.97.11-1.35-.35-1.72-1.16-2.32-5.08-4.7-10.12-7.07-15.16-2.52-5.36-5.04-10.73-7.57-16.07-1.64-3.47-3.28-6.93-4.91-10.4-.82-1.76-1.61-3.53-2.46-5.39h10.6z"/><path fill="#010101" d="M273.464 149.832v-71.32h9.51v71.32h-9.51z"/><path fill="#EE6B39" d="M189.804 149.868h-9.38v-47.23h9.37v9.816c1.355-1.823 2.52-3.502 3.796-5.077 2.09-2.602 4.573-4.83 7.955-5.38 3.144-.507 6.253.055 9.044 1.763 1.34.82 2.63 1.703 3.99 2.597-1.77 2.922-3.49 5.748-5.17 8.512-1.57-.97-3-2.06-4.6-2.79-3.13-1.44-6.27-1.38-9.16.67-2.26 1.6-3.55 3.95-4.6 6.44-1.02 2.41-1.32 4.93-1.29 7.56.07 7.29.02 14.6.02 21.89v1.21z"/></g></svg>