<svg width="500" height="200" xmlns="http://www.w3.org/2000/svg"><path fill="none" d="M-1-1h502v202H-1z"/><g stroke="null"><path fill="#253B80" d="M187.094 66.31h-27.627a3.838 3.838 0 0 0-3.793 3.24L144.5 140.392a2.3 2.3 0 0 0 2.278 2.658h13.19a3.84 3.84 0 0 0 3.793-3.244l3.014-19.107a3.835 3.835 0 0 1 3.79-3.245h8.745c18.198 0 28.7-8.806 31.443-26.257 1.237-7.635.053-13.634-3.522-17.835-3.926-4.613-10.89-7.053-20.136-7.053zm3.187 25.873c-1.51 9.914-9.084 9.914-16.408 9.914h-4.17l2.926-18.514a2.3 2.3 0 0 1 2.274-1.943h1.91c4.99 0 9.696 0 12.128 2.844 1.45 1.697 1.894 4.217 1.34 7.7zm79.394-.319h-13.23c-1.127 0-2.1.824-2.274 1.943l-.585 3.7-.925-1.34c-2.864-4.157-9.25-5.547-15.625-5.547-14.62 0-27.106 11.073-29.538 26.605-1.264 7.748.534 15.156 4.93 20.323 4.03 4.75 9.8 6.73 16.662 6.73 11.78 0 18.31-7.574 18.31-7.574l-.59 3.676a2.303 2.303 0 0 0 2.27 2.666H261a3.84 3.84 0 0 0 3.793-3.244l7.15-45.28a2.292 2.292 0 0 0-2.265-2.658zm-18.44 25.75c-1.277 7.557-7.276 12.63-14.927 12.63-3.842 0-6.912-1.232-8.883-3.567-1.955-2.318-2.7-5.62-2.077-9.295 1.192-7.493 7.292-12.732 14.826-12.732 3.757 0 6.81 1.248 8.822 3.603 2.016 2.38 2.816 5.7 2.238 9.36zm88.898-25.75H326.84c-1.27 0-2.46.63-3.18 1.685l-18.336 27.007-7.772-25.954a3.852 3.852 0 0 0-3.684-2.74h-13.064a2.304 2.304 0 0 0-2.185 3.047l14.642 42.973-13.767 19.435c-1.083 1.53.008 3.635 1.878 3.635h13.28a3.83 3.83 0 0 0 3.154-1.648l44.217-63.825c1.058-1.527-.028-3.616-1.89-3.616z"/><path fill="#179BD7" d="M384.15 66.31h-27.632a3.838 3.838 0 0 0-3.79 3.24l-11.173 70.842a2.298 2.298 0 0 0 2.27 2.658h14.18a2.688 2.688 0 0 0 2.65-2.27l3.17-20.08a3.835 3.835 0 0 1 3.79-3.245h8.74c18.204 0 28.703-8.806 31.45-26.257 1.24-7.635.048-13.634-3.527-17.835-3.923-4.613-10.883-7.053-20.13-7.053zm3.186 25.873c-1.507 9.914-9.08 9.914-16.41 9.914h-4.164l2.93-18.514a2.292 2.292 0 0 1 2.27-1.943h1.91c4.985 0 9.695 0 12.127 2.844 1.45 1.697 1.89 4.217 1.336 7.7zm79.39-.319h-13.222c-1.135 0-2.1.824-2.27 1.943l-.586 3.7-.93-1.34c-2.863-4.157-9.245-5.547-15.62-5.547-14.62 0-27.1 11.073-29.533 26.605-1.26 7.748.53 15.156 4.924 20.323 4.04 4.75 9.8 6.73 16.662 6.73 11.78 0 18.312-7.574 18.312-7.574l-.59 3.676a2.303 2.303 0 0 0 2.278 2.666h11.913a3.84 3.84 0 0 0 3.79-3.244l7.153-45.28a2.307 2.307 0 0 0-2.282-2.658zm-18.44 25.75c-1.27 7.557-7.276 12.63-14.927 12.63-3.835 0-6.913-1.232-8.884-3.567-1.955-2.318-2.69-5.62-2.076-9.295 1.2-7.493 7.29-12.732 14.825-12.732 3.757 0 6.81 1.248 8.822 3.603 2.024 2.38 2.824 5.7 2.238 9.36zm34.037-49.361l-11.34 72.14a2.298 2.298 0 0 0 2.27 2.657h11.4a3.833 3.833 0 0 0 3.794-3.244l11.18-70.838a2.3 2.3 0 0 0-2.27-2.662h-12.764a2.307 2.307 0 0 0-2.27 1.947z"/><path fill="#253B80" d="M29.772 156.817l2.112-13.42-4.706-.11H4.706l15.617-99.02c.05-.3.206-.58.436-.777.23-.198.525-.307.832-.307h37.89c12.58 0 21.26 2.618 25.794 7.784 2.125 2.424 3.478 4.957 4.132 7.744.687 2.926.7 6.42.028 10.682l-.048.31v2.732l2.125 1.204c1.79.95 3.21 2.036 4.302 3.28 1.818 2.072 2.993 4.706 3.49 7.83.513 3.21.344 7.03-.497 11.358-.97 4.977-2.537 9.31-4.653 12.858-1.947 3.268-4.428 5.978-7.373 8.08-2.81 1.995-6.152 3.51-9.93 4.48-3.66.952-7.832 1.433-12.408 1.433h-2.95c-2.108 0-4.156.76-5.764 2.12a8.93 8.93 0 0 0-3.005 5.365l-.222 1.208-3.733 23.652-.17.868c-.044.275-.12.413-.234.505a.621.621 0 0 1-.388.142H29.772z"/><path fill="#179BD7" d="M93.525 70.018a69.653 69.653 0 0 1-.388 2.222c-4.997 25.655-22.093 34.518-43.927 34.518H38.093a5.4 5.4 0 0 0-5.336 4.573l-5.692 36.1-1.612 10.23a2.846 2.846 0 0 0 2.808 3.29H47.98a4.744 4.744 0 0 0 4.686-4l.194-1.002 3.712-23.56.24-1.29a4.74 4.74 0 0 1 4.685-4.01h2.95c19.102 0 34.056-7.755 38.427-30.198 1.826-9.376.88-17.205-3.95-22.71-1.463-1.66-3.277-3.04-5.397-4.162z"/><path fill="#222D65" d="M88.297 67.934a39.244 39.244 0 0 0-2.36-.606 44.922 44.922 0 0 0-2.5-.473c-2.997-.485-6.28-.715-9.8-.715H43.94a4.73 4.73 0 0 0-4.683 4.007l-6.318 40.017-.183 1.167a5.398 5.398 0 0 1 5.336-4.572H49.21c21.834 0 38.93-8.867 43.927-34.518.15-.76.274-1.5.388-2.222a26.695 26.695 0 0 0-4.11-1.733c-.362-.12-.738-.238-1.118-.35z"/><path fill="#253B80" d="M39.257 70.147a4.719 4.719 0 0 1 2.634-3.538 4.72 4.72 0 0 1 2.05-.466h29.698c3.518 0 6.802.23 9.8.715.856.137 1.688.294 2.5.472.808.182 1.596.384 2.36.606a60 60 0 0 1 1.122.347 27.283 27.283 0 0 1 4.11 1.733c1.485-9.48-.014-15.936-5.14-21.78-5.65-6.436-15.85-9.19-28.903-9.19h-37.89a5.415 5.415 0 0 0-5.354 4.576L.46 143.664a3.256 3.256 0 0 0 3.212 3.765h23.393l5.874-37.266 6.317-40.017z"/></g></svg>