<svg width="42px" height="50px" viewBox="0 0 42 50" version="1.1" xmlns="http://www.w3.org/2000/svg" xmlns:xlink="http://www.w3.org/1999/xlink">
    <!-- Generator: Sketch 51.3 (57544) - http://www.bohemiancoding.com/sketch -->
    <desc>Created with Sketch.</desc>
    <defs></defs>
    <g id="overview" stroke="none" stroke-width="1" fill="none" fill-rule="evenodd">
        <g id="Artboard" transform="translate(-132.000000, -114.000000)" fill-rule="nonzero">
            <g id="item" transform="translate(52.000000, 114.000000)">
                <g id="paypal" transform="translate(27.000000, 0.000000)">
                    <g id="Group" transform="translate(53.000000, 0.000000)">
                        <path d="M11.9088,48.2856557 L12.7536,42.7856557 L10.8712,42.7405738 L1.8824,42.7405738 L8.1292,2.15860656 C8.1492,2.03565574 8.2116,1.92090164 8.3036,1.84016393 C8.3956,1.75901639 8.5136,1.71434426 8.6364,1.71434426 L23.7924,1.71434426 C28.8244,1.71434426 32.2964,2.78729508 34.11,4.9045082 C34.96,5.89795082 35.5012,6.93606557 35.7628,8.07827869 C36.0376,9.27745902 36.0428,10.7094262 35.774,12.4561475 L35.7548,12.5831967 L35.7548,13.7028689 L36.6048,14.1963115 C37.3208,14.5856557 37.8888,15.0307377 38.3256,15.5405738 C39.0528,16.3897541 39.5228,17.4692623 39.7216,18.7495902 C39.9268,20.0651639 39.8592,21.6307377 39.5228,23.4045082 C39.1348,25.4442623 38.508,27.220082 37.6616,28.6741803 C36.8828,30.0135246 35.8904,31.1241803 34.7124,31.9856557 C33.5884,32.8032787 32.2516,33.4241803 30.7404,33.8217213 C29.2764,34.2118852 27.6076,34.4090164 25.7772,34.4090164 L24.5972,34.4090164 C23.754,34.4090164 22.9348,34.7204918 22.2916,35.2778689 C21.6495103,35.8418797 21.2235738,36.6210283 21.0896,37.4766393 L21.0008,37.9717213 L19.5076,47.6651639 L19.4396,48.0209016 C19.422,48.1336066 19.3916,48.1901639 19.346,48.2278689 C19.3022661,48.264849 19.2475,48.2853851 19.1908,48.2860656 L11.9088,48.2860656 L11.9088,48.2856557 Z" id="Shape" fill="#253B80"></path>
                        <path d="M37.41,12.7122951 C37.3630675,13.0166854 37.3113274,13.3202771 37.2548,13.6229508 C35.256,24.1372951 28.4176,27.7696721 19.684,27.7696721 L15.2372,27.7696721 C14.1720352,27.7697323 13.265928,28.5653695 13.1028,29.6438525 L10.826,44.4389344 L10.1812,48.6315574 C10.129292,48.9682894 10.223763,49.3114349 10.4397646,49.570737 C10.6557662,49.830039 10.9716757,49.9795404 11.3044,49.979918 L19.192,49.979918 C20.1252345,49.9800599 20.9200411,49.2849246 21.0664,48.3405738 L21.144,47.929918 L22.6288,38.2741803 L22.7248,37.7454918 C22.8687404,36.7993068 23.6641729,36.101736 24.5988,36.1020492 L25.7788,36.1020492 C33.4196,36.1020492 39.4012,32.9237705 41.1496,23.7258197 C41.88,19.8831967 41.5016,16.6745902 39.5696,14.4184426 C38.9844,13.7381148 38.2588,13.172541 37.4108,12.7127049 L37.41,12.7122951 Z" id="Shape" fill="#179BD7"></path>
                        <path d="M35.3188,11.8581967 C35.0067181,11.7654187 34.6918998,11.6825919 34.3748,11.6098361 C34.0433199,11.5355576 33.7098529,11.4709142 33.3748,11.4159836 C32.176,11.2172131 30.8628,11.1229508 29.4548,11.1229508 L17.576,11.1229508 C16.6414409,11.1212134 15.8456499,11.8188744 15.7028,12.7651639 L13.1756,29.1655738 L13.1024,29.6438525 C13.2653904,28.5653527 14.17164,27.7697643 15.2368,27.770082 L19.684,27.770082 C28.4176,27.770082 35.256,24.1360656 37.2548,13.6233607 C37.3148,13.3118852 37.3644,13.0086066 37.41,12.7127049 C36.8822976,12.4293807 36.3323785,12.1918029 35.766,12.002459 C35.6212,11.9532787 35.4708,11.904918 35.3188,11.8590164 L35.3188,11.8581967 Z" id="Shape" fill="#222D65"></path>
                        <path d="M15.7028,12.7651639 C15.7983623,12.133054 16.1927807,11.590242 16.7564,11.3151639 C17.0122444,11.1891507 17.2925293,11.1238704 17.5764,11.1241803 L29.4556,11.1241803 C30.8628,11.1241803 32.1764,11.2184426 33.3756,11.4172131 C33.718,11.4733607 34.0508,11.5377049 34.3756,11.6106557 C34.6988,11.6852459 35.014,11.7680328 35.3196,11.8590164 C35.4696492,11.9049195 35.6192564,11.9523261 35.7684,12.0012295 C36.3344014,12.1916073 36.8842384,12.4291496 37.4124,12.7114754 C38.0064,8.82622951 37.4068,6.18032787 35.3564,3.7852459 C33.0964,1.14754098 29.0164,0.018852459 23.7952,0.018852459 L8.6392,0.018852459 C7.57185393,0.0179654908 6.66297428,0.813875945 6.4976,1.8942623 L0.184,42.895082 C0.124485261,43.2803533 0.232477485,43.6730165 0.479565111,43.9697665 C0.726652737,44.2665164 1.08809484,44.4376393 1.4688,44.4381148 L10.826,44.4381148 L13.1756,29.1651639 L15.7024,12.7647541 L15.7028,12.7651639 Z" id="Shape" fill="#253B80"></path>
                    </g>
                </g>
            </g>
        </g>
    </g>
</svg>
