<svg width="500" height="200" xmlns="http://www.w3.org/2000/svg"><path fill="none" d="M-1-1h502v202H-1z"/><g stroke="null" fill="#DD3735"><path d="M188.592 84.105c.268.2.736.335.268.736-.334.47-.736.87-1.003 1.405-.267.468-.468.6-.87.267.536-.87 1.07-1.67 1.605-2.407zm134.382 70.065c0 .2.067.335.067.536.134-.268.134-.4.2-.535h-.266zm0 .603v-.067.067zm-25.272-38.376c-.2-.067-.468-.2-.936-.334.134.267.2.468.267.668.335-.066.468-.066.602-.132 0-.067 0-.134.067-.2zm-.402-14.507c-.066.2-.066.4-.066.6 0-.2 0-.4.067-.6zm.068 1.336c-.067 0-.067 0-.134-.067v.066c.067.067.067.067.134 0zm-.134.534v-.467c-.2.067-.4.067-.67.134.336.134.67.2.67.334z"/><path d="M349.65 95.203c-.067-2.54-.2-5.147-.335-7.688-.134-2.607-.2-5.215-.468-7.822-.468-3.544-.936-7.154-1.738-10.63-.603-2.875-1.606-5.616-2.61-8.357-1.27-3.21-2.54-6.485-4.144-9.56-2.607-4.948-6.017-9.36-9.16-13.974-2.07-2.942-4.746-5.348-6.75-8.357-1.138-1.738-2.81-3.21-4.48-4.546-2.675-2.14-5.483-4.08-8.29-5.95-2.14-1.472-4.28-2.876-6.553-4.146-1.805-1.003-3.744-1.806-5.616-2.675-2.14-1.004-4.212-2.207-6.62-2.675-.6-.134-1.135-.334-1.737-.535-1.538-.535-3.008-1.136-4.546-1.604-2.34-.736-4.613-1.605-7.02-2.207-2.34-.602-4.747-1.003-7.154-1.338-2.674-.4-5.415-.535-8.09-.802-1.738-.2-3.476-.4-5.147-.468-2.54-.134-5.148-.134-7.69-.2-1.27-.067-2.606-.2-3.876-.134-1.94.067-3.878.267-5.817.535-1.872.2-3.744.534-5.55.802-2.205.267-4.412.4-6.618.668-2.072.268-4.212.67-6.284 1.003-.736.134-1.47.4-2.207.535-1.603.335-3.274.47-4.88 1.004-2.874.87-5.75 1.872-8.557 2.942-2.607 1.07-5.148 2.206-7.62 3.543-2.542 1.403-4.95 3.074-7.355 4.68-2.274 1.537-4.547 3.14-6.753 4.88-2.14 1.67-4.145 3.543-6.084 5.415-1.07 1.07-1.938 2.34-2.94 3.543-1.672 1.94-3.343 3.81-4.948 5.817-1.337 1.67-2.54 3.41-3.81 5.148-2.274 3.075-4.213 6.35-6.018 9.627-.735 1.337-1.404 2.674-2.072 4.01-1.003 2.007-2.073 3.946-3.01 6.018-.668 1.404-1.202 2.942-1.603 4.48a546.607 546.607 0 0 0-2.743 9.895c-.802 2.94-1.002 6.017-1.07 9.025-.066 2.674.2 5.282.47 7.956.066.67-.336 1.47.467 2.006.067 0 0 .267-.067.334-.2.4 0 .802.4.936 0 0 .068.067.068.134h-.334c-.2.6.47 1.07.2 1.738-.066.134.202.4.335.602 0 .2-.066.468 0 .668.067.602.335 1.204.335 1.872 0 .468.4 1.003.535 1.47.066.202 0 .536-.134.67-.4.468-.333.87.268 1.136.134.067.335.335.335.468 0 .4-.134.803-.2 1.204.133.133.2.267.133.4 0 .2-.2.402-.134.536.535 1.07.735 2.273.802 3.476 0 .268.134.535.268.87.067 0 .267 0 .4.066l-.4 1.204c.334-.2.6-.268.936-.402.2.87.4 1.672.668 2.407.067.133.2.267.4.4-.066.134-.066.402-.2.468.268 1.204.402 2.34.87 3.477.067 0 .134-.067.2-.067-.2-1.203-.334-2.474-.534-3.677v-.4s.133-.067.2-.067c.067.267.2.602.2.802.536 0 1.338.335 1.873.335.067-.2.133-.468.2-.602-.4-.4-.735-1.003-1.136-1.404.132.535 0 .735 0 .936-.27-.134-.603-.268-.937-.4.267-.336.535-.67.936-1.07 0-.603-.336-1.138-1.272-1.07.402-.134.803-.335 1.27-.47.068.202.134.402.2.536.536-.936-.266-1.67-.266-2.607.067-1.138-.602-2.274-.802-3.478-.335-1.872-.268-4.68-.468-6.552 0-.133-.2-.267-.335-.4-.067.066-.4.935-.468 1.002.2 1.605.4 3.21.534 4.814-.067 0-.134 0-.134.067-.267-1.404-.534-2.875-.87-4.48-.066.468-.132.67-.132.936-.2-.068-.268-.135-.602-.268.267.6.535 1.003.735 1.47-.467-.2-1-.133-1-.133v1.87c-.67-.668-.87-1.203-1.205-1.67-.134-.535-.2-1.07-.334-1.605l.2-.067c-.065-.267-.2-.468-.2-.67-.066-.467-.133-1-.2-1.603.067-.067.335-.134.468-.268l-.535-.802c.535.067.87.134 1.204.134 0-.135.067-.202 0-.27-.67-.6-.2-1.135.067-1.67.133-.267.6-.334.735-.602.534-1.003 1.403-1.805 1.403-3.075 0-.602.2-1.27.267-1.872.134-1.136.268-2.272.335-3.41.133-1.47 0-2.94.334-4.344.534-2.34 1.202-4.68 1.938-7.02a73.475 73.475 0 0 1 1.805-4.948c1.003-2.607 1.94-5.214 3.21-7.688 1.804-3.61 3.877-7.087 5.882-10.63 1.27-2.207 2.608-4.28 4.012-6.42 1.337-2.07 2.674-4.21 4.212-6.15 2.138-2.74 4.478-5.28 7.086-7.554 2.674-2.407 5.214-4.88 8.09-7.087a81.617 81.617 0 0 1 11.9-7.622c3.41-1.806 6.953-3.21 10.496-4.547 2.273-.868 4.747-1.27 7.087-2.004 2.673-.87 5.347-1.27 8.155-1.338 1.805-.066 3.544-.267 5.35-.468 1.603-.133 3.208-.267 4.946-.468-.2.268-.266.402-.333.535-.735 1.07-1.538 2.14-2.273 3.21-.602.87-1.27 1.805-1.872 2.674-1.07 1.405-2.206 2.81-3.21 4.28-1.537 2.206-2.94 4.48-4.545 6.685-1.605 2.14-3.343 4.145-5.015 6.218-2.206 2.875-4.28 5.816-6.485 8.69-2.005 2.742-4.145 5.35-6.084 8.09-1.738 2.408-3.276 4.948-4.947 7.422-2.474 3.677-4.947 7.287-7.42 10.964a662.37 662.37 0 0 1-5.885 8.356c-.132.2-.333.268-.533.4-.134.135-.402.27-.402.403-.133.467-.133.935-.334 1.336-.534 1.003-1.068 2.005-1.67 2.94-.334.536-.802 1.004-1.204 1.54-.133-.068-.2-.135-.334-.135.268-.667 1.404-1.068.87-2.07-.335.534-.67 1.002-1.004 1.536l-.802 1.605c.268.202.736.335.268.736-.2.335-.402.736-.602 1.07.067 0 .067.067.134.067.2-.267.4-.468.6-.735.068 0 .135.066.202.066-.2.67-.602 1.27-.936 1.872-.268.535-.936.936-1.404 1.338.067.066.535.267.602.334.2-.268.267-.134.468-.4.133.2.334-.135.4.066.2-.268.402-.468.47-.67.266-.668.667-1.202 1.336-1.47.267-.134.468-.334.668-.535 2.006-2.073 4.08-4.08 5.884-6.285 2.808-3.41 5.348-6.953 8.023-10.43 1.135-1.47 2.472-2.94 3.676-4.345.133.066.267.066.334.133-.134 1.404-.268 2.875-.334 4.28-.2 2.473-.335 4.946-.535 7.487-.066 1.003 0 2.006-.066 3.01 0 .266-.2.467-.2.734 0 .67.2 1.404.2 2.072-.2 2.474-.468 4.88-.67 7.355-.066.536.202 1.07.336 1.538-.067-.066-.134-.133-.335-.267 0 3.88.736 7.69.134 11.5.266-.067.4-.133.4-.267.067-.468.2-.936.2-1.404.068-.402 0-.803 0-1.27v-.67c.068-1.203.335-2.474.2-3.677-.132-1.337-.132-2.607.135-3.878.134-.535-.067-1.203.267-1.872v1.003c-.066 3.81.067 7.622-.468 11.433-.066.333.2.935-.534.868-.067 0-.134.334-.268.535-.334.668.4 1.537-.267 2.206-.134.133.133.734.2 1.135 0 .134.067.268 0 .335-.267.468-.267.468.134.534.066 1.47.2 2.808.266 4.212h.2c.87-2.54.335-5.148.803-7.755.066 1.07.133 2.14.066 3.277 0 1.738-.067 3.41-.134 5.148 0 .334-.066.67-.133 1.003-.202.936-.27 1.872-.603 2.74-.267.67-.134 1.672-.134 2.475v2.54c0 .067.2.268.2.535.068.602-.267 1.203-.066 1.872.067.134-.067.334-.134.468-.067.2-.133.4-.067.602l.2 1.003c0 .066.068.133.135.267.068-.267.068-.468.068-.535 1.136.134.534 1.137 1.07 1.672-.268.133-.47.2-.47.267.068.267.202.468.202.735 0 .6-.067 1.136-.134 1.738 0 1.537-.067 3.075-.067 4.546 0 .2.066.4.066.602 0 .133-.067.267-.067.468v1.404h.267c-.134.2-.268.4-.468.6-.068 0-.27 0-.27-.066V128.7h-1.002c-.133 4.01.2 7.62-.534 11.364-.803.067-1.07.2-1.94.2-2.072 0-4.144 0-6.217.068-2.474 0-4.88.066-7.354.066-1.203 0-2.474.134-3.677.134-1.605 0-3.276-.2-4.88-.2-2.474 0-4.88.2-7.355.267-1.804.066-3.61.066-5.414.133-1.204.067-2.407.133-3.61.267-.535.067-1.003.268-1.672.468-.2 0-.668-.067-1.07 0-.668.134-1.27.535-1.938.67-1.003.2-1.27.467-1.137 1.47v.668a2.034 2.034 0 0 0-.47-.334c-.066 0-.133.067-.133.067.067.2.2.333.268.533.267-.133.6-.467.87-.467h.935c-.134 0-.2.4-.4.735.534-.2.868-.333 1.202-.467.067.2.067.468.067.535.935-.067 1.804-.335 2.606-.134 2.608.67 5.282.936 7.956 1.203 1.74.134 3.41.2 5.148.268 2.474.134 4.948.267 7.42.267 2.074 0 4.08-.2 6.152-.2 2.875 0 5.75.133 8.625.2.6 0 1.27-.067 1.938-.067h4.88c4.347-.133 8.692-.2 13.038-.334 2.474-.066 5.014-.2 7.488-.266l7.622-.2c2.942-.068 5.884-.068 8.76-.135 2.205 0 4.344-.067 6.55-.134 2.474-.067 5.015-.268 7.488-.4 1.338-.068 2.675-.202 4.012-.336 1.604-.133 3.276-.334 4.88-.4 2.407-.134 4.88-.2 7.288-.335 3.008-.2 6.017-.468 9.092-.535 2.808-.134 5.683-.067 8.49-.134 2.475-.067 4.948-.2 7.49-.267l4.21-.202s2.81-.066 4.213-.2c2.407-.134 4.813-.4 7.22-.468 1.538-.067 3.076 0 4.613-.067 2.474-.067 5.015-.2 7.488-.2.936 0 1.94.133 3.143.2-.536.468-.87.735-1.272 1.07.268.066.535.2.803.334 0 .067-.066.134-.066.267-.335 0-.67.067-1.003.067-.133.336-.267.47-.4 1.138h1.203c-.468 0-.87.6-1.337 1.003.067.067.134.067.2.134-.735-.267-1.203-.133-1.47.602.2.067.334.067.535.067-.066.2-.133.4-.2.668-.067.135-.134.27-.134.47l-.2-.2c0-.135 0-.27-.067-.402-.402.4-1.004.668-.67 1.537-.267.134-.6.268-.936.468.067.134.2.268.268.468-.602.068-1.204.202-1.07.937.267.067.535.2.735.268-.334.134-.668.334-1.002.468-.067.134-.134.468-.268.535-.936.2-.4.535-.134.87-.2.133-.4.266-.6.333.2.068.333.135.467.27-.2.132-.335.2-.468.266.133.067.334.2.4.2-.267.2-.6.47-1.002.803 0 .133 0 .2.067.333-.268.268-.535.535-.802.936s-.402.935-.736 1.336c-1.405 1.538-2.408 3.343-4.213 4.546-.668.468-1.27 1.07-1.872 1.672-1.203 1.136-2.273 2.407-3.543 3.476-1.672 1.404-3.41 2.675-5.215 3.945-2.206 1.538-4.412 3.075-6.62 4.546-1.202.803-2.54 1.405-3.81 2.14s-2.473 1.405-3.743 2.14c-.803.535-1.538 1.27-2.407 1.67-2.207.937-4.547 1.74-6.82 2.61-.2.066-.334.132-.535.2-1.67.735-3.275 1.537-4.947 2.14-1.538.534-3.142.935-4.747 1.27-.535.133-1.136 0-1.738.066-1.137.2-2.273.468-3.41.602-2.94.4-5.883.668-8.825 1.07-1.738.2-3.41.534-5.148.735-1.203.067-2.473-.067-3.677-.067-.87 0-1.805.2-2.674.067-1.404-.2-2.808-.535-4.212-.803-.334-.066-.802-.2-1.07-.066-.534.267-1.002-.134-1.537 0-.335.066-.67-.2-1.003-.2-.268-.068-.602.066-.936 0-.736-.202-1.404-.47-2.206-.402s-1.605-.334-2.474-.535c-1.204-.267-2.34-.535-3.544-.802-.467-.134-.87-.335-1.337-.602-.133.067-.334.2-.6.2-1.138-.2-2.274-.267-3.344-.668-.936-.334-1.805-.802-2.808-.67-.268.068-.468-.065-.736-.065-.2-.268-.402-.803-.602-.803-1.337.067-2.14-1.07-3.276-1.404-.602-.2-1.07-.87-1.672-1.07-1.47-.6-2.674-1.87-4.345-2.072-.535-.066-1.07-.333-1.672-.534.2.268.335.468.535.67l-.134.132c-1.805-1.07-3.61-2.14-5.415-3.142-.268-.067-.47-.334-.67-.468l-1.805-1.203c-.2-.134-.6-.334-.6-.268-.402.468-.804.067-1.07-.066-1.806-1.27-3.88-2.072-5.617-3.476-.735-.602-1.604-1.003-2.14-1.738-.935-1.137-2.072-1.94-3.342-2.608-1.003-.534-1.94-1.136-2.875-1.738-.467-.334-.935-.735-.935-1.47 0-.47-.2-.937-.802-.67-.268-.4-.535-.868-.87-1.002-.802-.334-1.337-.936-1.938-1.47s-1.07-1.27-1.805-1.54c-1.337-.534-2.14-1.67-2.942-2.606-1.872-2.206-3.543-4.613-5.282-6.953-.133-.202-.4-.335-.6-.536l-.068.067c.334.67.668 1.27 1.003 1.94-.066.067-.2.133-.267.2-.4-.468-.87-.936-1.27-1.404-.067.067-.134.134-.2.134l4.813 7.622c.4.6.735 1.203 1.137 1.805a.924.924 0 0 1-.268.2c-.735-.133-1.404-.668-1.738-1.27-.602-1.07-1.27-1.738-2.608-1.605a11.571 11.571 0 0 1-.335-1.47c-.267 0-.468 0-.936-.067.935 1.47 1.737 2.74 2.607 4.212-.335-.2-.535-.335-.67-.4 1.204 1.27 2.074 2.873 3.61 3.676.336 1.537 2.074 2.273 2.475 3.744-.334-.067-.602-.134-.936-.2-.535-.67-1.137-1.338-1.738-2.073.133.468.334.87.6 1.203.804 1.003 1.54 2.006 2.475 2.875.334.334.802.468.802 1.07.134-.134.268-.2.535-.335-.134.268-.2.4-.267.602.267 0 .468.066.668.066.135.4-.065 1.003.737.87.067 0 .133.066.2.133.335.868.87.868 1.605.533.134-.066.468 0 .535.134.334.736.802.802 1.404.268 0 .334.068.668.068.936h.267c0-.133-.067-.334-.067-.668.334.267.535.4.67.535.667.936 1.27 1.805 2.205 2.54 1.27 1.07 2.407 2.207 3.61 3.21 2.34 1.938 4.948 3.543 7.555 5.014 3.21 1.806 6.285 3.745 9.56 5.483 3.945 2.073 8.157 3.477 12.503 4.48 1.605.334 3.143.668 4.747 1.07 1.404.4 2.808 1.002 4.212 1.336 2.14.467 4.345.868 6.484 1.27.468.066.936.133 1.47.2v.134c.603 0 1.338-.268 1.472-.067.334.535.602.267 1.003.2.467-.133 1.002-.133 1.537-.133 1.872.067 3.677.468 5.55.334.4 0 1.002-.334 1.336.334.134-.067.2-.133.334-.2.268-.067.602-.067.87-.134v.134c-.134.067-.268.067-.536.133.336.067.536.134.737.2-.134.135-.2.135-.334.202s-.335.133-.602.334c2.408.47 4.68.536 6.686 0v-.4h.268c0 .133.067.267.134.4a21.372 21.372 0 0 0 8.958-1.136c.268.335.468.803.87.134.133-.2.468-.267.735-.334.603-.134 1.338-.4 1.873-.2.602.2.802-.335 1.27-.335.802 0 1.538-.068 2.273-.202.4-.067.803-.267 1.27-.4 0-.068 0-.135-.066-.2-.468-.068-1.003-.135-1.404-.135.802-.4 1.537-.735 2.273-1.07 0 .067.066.067.066.134-.2.067-.335.334-.602.334h.936c-.2 0-.468.603-.802 1.004 2.407-.602 4.613-1.136 6.752-1.67v-.135c-.267.066-.468.066-.668.133-.067-1.404 1.47-.936 2.005-1.74-.668.202-1.337.403-2.005.536v-.134c2.273-1.003 4.613-2.006 6.886-3.01 0 .068.067.068.067.135-.4.268-.803.47-1.404.803.402.067.67.067.87.134 0 .2 0 .334-.067.4 1.137-.066.87-1.07 1.203-1.67.2.066.468.2.67.133.6-.134 1.136-.334 1.737-.535.67-.2 1.337-.4 2.006-.668 1.07-.468 2.07-1.07 3.14-1.605.202-.067.536 0 .803 0 .2 0 .335-.134.468-.267.27-.2.536-.602.737-.535.936.134 1.604-.2 1.872-1.07.066 0 .066-.067.133-.067.334-.267.668-.535 1.002-.735 1.47-.802 2.875-1.605 4.346-2.407.068-.066.202 0 .335 0 .2 0 .468 0 .602-.066.87-.4 1.67-.87 2.474-1.337-.2-.067 0-.134-.668-.2v-.134c.67-.134.87-.2 1.27-.334l-.133-.135c1.737-1.738 3.943-3.01 5.615-4.48.334.067.468.134.668.134.067-.2.067-.402.067-.536.268-.334.535-.735.87-1.003 1.47-1.336 3.075-2.472 4.412-3.876a94.482 94.482 0 0 0 5.55-6.017c1.603-1.872 3.208-3.744 4.545-5.817 1.872-2.875 3.477-5.816 5.148-8.825 1.203-2.14 2.273-4.28 3.477-6.418.133-.2.4-.468.6-.468 1.806-.202 3.61-.335 5.35-.536.4-.067.87-.334 1.27-.535-.2-.335-.334-.736-.535-1.07-.267-.402-.668-.736-.936-1.137-.266-.334-.467-.735-.667-1.137-.2-.334-.402-.6-.602-.936-.4-.735-.8-1.47-1.136-2.273-.066-.2-.2-.535-.133-.735 1.204-2.608 1.672-5.415 2.81-8.023 1.135-2.675 1.47-5.684 2.004-8.558.468-2.742.736-5.483 1.07-8.224.2-1.94.468-3.81.535-5.75.4-3.075.266-5.95.2-8.825zm-168.08 74.612c-.468-.535-.87-1.136-1.337-1.67l.2-.202a80.793 80.793 0 0 1 2.207 2.474c-.4-.2-.87-.334-1.07-.602zm1.07.602c.2-.067.4-.067.602-.134.2.334.334.736.535 1.137-.937-.067-1.405-.468-1.138-1.003zm69.53 27.612v-.202c1.27-.134 2.475-.267 3.745-.4v.2c-1.27.2-2.474.334-3.744.4zm16.85-1.74c-.937.2-1.94.335-2.876.468-.334.067-.736.4-.87-.2-.133.067-.267.067-.4.133.334 1.004 1.136.202 1.805.603-1.47.2-2.874.334-4.278.535v-.134c.4-.067.87-.133 1.27-.2v-.2c-.668-.068-1.337-.135-2.006-.135-.2 0-.468.267-.668.334-.268.067-.535.133-.87.133-1.136.067-2.272.067-3.342.134-.067 0-.2-.066-.268-.066v-.2c4.48-.602 8.892-1.204 13.372-1.805.067.132.067.266.133.4-.4 0-.668.133-1.002.2zm1.002-.668c1.537-.2 2.94-.335 4.412-.535-3.075.87-4.078 1.003-4.412.535zM211.792 60.64c2.14-2.943 4.345-5.885 6.485-8.893.668-.87 1.203-1.805 1.872-2.674.2-.268.467-.402.8-.67l-.066-.133c.267-.334.535-.6.67-.87.333-.534.533-1.135.8-1.737.068-.134.268-.268.268-.268.936.468.936-.534 1.27-.87a48.249 48.249 0 0 0 1.74-2.07c.4-.536.8-1.004 1.135-1.606.067-.2-.133-.536-.2-.803h-.2c.2-.134.4-.334.6-.468.068 0 .068 0 .135-.068.4-.602.802-1.203 1.203-1.738.802-1.07 1.672-2.14 2.608-3.076-.134.335-.268.67-.402.936.068 0 .068.067.135.067.802-1.068 1.67-2.07 2.474-3.14-.068-.068-.135-.135-.202-.135-.334.335-.602.67-.936 1.003-.067-.067-.134-.134-.2-.134.668-.87 1.337-1.738 2.005-2.74.134.2.268.467.535 1.002.268-.668.535-1.136.736-1.604-.2.2-.468.4-.67.6l-.2-.2c.402-.6.803-1.203 1.204-1.804 1.27-1.805 2.54-3.677 3.81-5.483.47-.668 1.07-1.203 1.472-1.872 1.27-2.54 3.275-4.546 4.813-6.886.334-.468.802-.87 1.204-1.27.335-.4.602-.267.87.067 1.805 2.273 3.61 4.613 5.415 6.886 1.337 1.67 2.674 3.276 3.945 5.014 1.537 2.14 3.008 4.28 4.546 6.418 1.738 2.474 3.476 4.948 5.148 7.488 2.54 3.744 4.947 7.488 7.488 11.232 1.872 2.74 3.744 5.416 5.55 8.157h-3.41c-3.143-.068-6.352-.336-9.494-.202-4.28.2-8.625.67-12.904 1.003-5.415.47-10.897.536-16.313.536-1.938 0-3.876.267-5.815.4-2.34.135-4.613.268-6.953.335-2.74.135-5.416.202-8.157.27-1.537.066-3.142 0-4.813 0zm76.684 30.753v.6c-.067 0-.134.068-.268.068-.267-.935-.534-1.938-.87-2.874-.667-1.938-1.403-3.877-2.606-5.616-1.337-1.872-2.54-3.81-3.878-5.75-.334-.467-.802-.868-1.203-1.27-1.403-1.537-2.807-3.142-4.612-4.278a54.741 54.741 0 0 0-8.357-4.28c-.802-.333-1.537-.734-2.34-1.202h1.605l11.433-.2c2.473-.068 4.88-.068 7.354-.202.602 0 .936.2 1.27.736a74.677 74.677 0 0 0 1.872 3.008c.067.134.2.335.2.535 0 1.47 0 3.01.068 4.48.066 1.537.2 3.008.267 4.546 0 1.537-.135 3.142-.068 4.747.067 2.273.134 4.613.134 6.953zm-71.938-22.397c3.143-.134 6.15-.335 9.227-.468 2.406-.134 4.88-.2 7.287-.334 1.003-.067 1.94-.134 2.942 0-1.07.534-2.14 1.07-3.076 1.738-1.203.802-2.34 1.872-3.543 2.74s-2.273 1.94-3.276 3.076c-1.27 1.538-2.675 2.875-4.013 4.346-.936 1.07-2.005 2.072-2.808 3.21-1.137 1.47-2.14 3.074-3.21 4.746.335-6.352.736-12.636.468-19.054zm43.658 64.316c-2.14.534-4.346 1.136-6.552 1.404-1.872.267-3.81.2-5.75.2-1.738 0-3.41-.067-5.148-.2-1.94-.2-3.878-.402-5.75-1.27-1.604-.736-3.276-1.405-4.88-2.207s-3.21-1.74-4.413-3.21c-.87-1.07-2.072-1.94-3.142-2.875a3.17 3.17 0 0 0 1.405 1.94c-.334.4-.802.2-1.47-.87-.2.134-.402.2-.536.267.2-.468.4-.936.6-1.337-.266-.535-.6-1.136-.868-1.67a54.673 54.673 0 0 1-1.538-2.676c-.133-.2-.133-.402-.267-.602-.334-.4-.67-.803-.936-1.204-.534-.802-1.002-1.67-1.67-2.473 0 .2.066.402.066.67-.067 0-.133.066-.133.066l-1.404-3.41c-.068 0-.068 0-.135.067l1.203 4.413c-.067 0-.133.067-.2.067-.2-.268-.4-.535-.535-.87-.134-.534-.535-.534-.87-.334-.2.133-.333.6-.267.802.468 1.136 1.003 2.273 1.538 3.41.134.4.267.735.468 1.136.067.133.267.267.267.468.267.535.468 1.07.802 1.537.6.803 1.27 1.605 1.872 2.407s1.136 1.672 1.67 2.474c.068.134.27.134.335.2.334 1.003 1.47 1.74 2.273 1.338.2 1.537 1.872 2.072 2.54 3.543a30.719 30.719 0 0 1-1.94-.87c-.066.068-.066.135-.132.268.803.4 1.605.803 2.34 1.27.67.402 1.338.803 1.94 1.27.802.736 1.738 1.137 2.874 1.405-.067-.2-.134-.268-.134-.268 1.872.87 3.81 1.806 5.282 2.54-6.953.135-14.374.268-22.062.402 0-1.27-.067-2.474-.067-3.744 0-.535.133-1.003.067-1.538-.2-3.075-.2-6.15-.602-9.16-.4-3.208-.4-6.35-.334-9.56.066-1.738-.067-3.543-.134-5.28 0-2.34 0-4.614.067-6.954 0-.334.133-.602.267-.936h.2c.068.134 0 .334.134.4.2.202.535.536.67.47.4-.268 1.002-.536 1.136-.937.334-.802.467-1.67.467-2.474 0-.602.27-1.003.536-1.405.134-.2.2-.4.335-.668-.267-.2-.534-.334-.87-.602.27-.735.202-1.604 1.205-2.006.134-.067.134-.402.2-.602.067-.535.134-1.137.2-1.672.135.2.202.268.335.4.067-.132.134-.2.134-.2 0-.266-.067-.8 0-.8.802-.135.468-1.004.87-1.405.066-.066-.068-.267-.068-.4s0-.335.067-.335c.936-.2.802-1.203 1.404-1.67.2-.135.268-.335.535-.67.535.936-.4 1.404-.468 2.073 1.137-.67 1.47-2.273.802-2.74.268-.202.535-.47.736-.737.735-.8 1.537-1.536 2.206-2.34.468-.6.735-1.336 1.203-1.938.27-.334.804-.6 1.205-.802 1.203-.668 2.34-1.404 3.075-2.54.134-.134.334-.268.535-.4s.602-.135.67-.336c.065-.133-.135-.468-.27-.668.27-.134.536-.4 1.07-.67-.2.402-.267.67-.4.937l.334.334c.6-.468 1.537-1.002 2.138-1.404 0-.066-.334-.334-.334-.334-.4.2-1.003.534-1.604.8.133-.2.133-.333.2-.4.936-.6 1.872-1.203 2.875-1.67 2.34-1.07 4.68-2.14 7.02-3.143.4-.2.936-.067 1.404-.067.2 0 .333 0 .534-.067 1.07-.334 2.14-.67 3.21-.936a5.544 5.544 0 0 1 1.47-.2c2.005.066 4.01.066 6.017.2.87.067 1.672.267 2.474.535 1.003.334 2.073.802 3.01 1.27a33.082 33.082 0 0 1 3.275 2.006c1.938 1.27 3.743 2.674 5.682 3.81 1.872 1.137 3.343 2.675 4.546 4.413 1.47 2.074 3.142 3.946 3.81 6.486l1.004 4.413c.2.8.668 1.603.468 2.54-.335 1.67-.602 3.41-.87 5.08-.133.67-.267 1.337-.2 2.006.134 2.072-.67 3.878-1.47 5.75-.268.6-.67 1.203-1.004 1.872.067.066.468.267.535.267.202-.4.402-.802.603-1.203.067 0 .067 0 .134.066-.335.936-.602 1.94-.936 2.875-.802 2.073-1.604 4.212-2.607 6.218-.535 1.137-1.47 2.073-2.14 3.143-.668.936-1.203 1.94-1.87 2.808-.603.737-1.205 1.472-2.007 2.007-1.805 1.337-3.677 2.674-5.616 3.744-1.203.736-2.607 1.137-3.944 1.472zm-35.635-3.544l-.066.067c-.133-.067-.334-.134-.468-.267l-1.604-2.407c-.134-.2-.2-.4-.134-.668a56.018 56.018 0 0 0 2.273 3.276zm41.586 9.16c3.008-1.27 5.482-3.076 7.755-5.148.335-.335.67-.67 1.07-.936 2.81-1.74 4.88-4.145 6.753-6.82 2.14-3.075 3.544-6.552 5.282-9.828.134-.267.267-.534.4-.735-.133 7.623.737 15.11 1.74 22.665-7.555.268-15.244.535-23 .803zm67.792-2.006c-.067.134-.2.267-.267.4-.066-.133-.066-.333-.133-.6-.4 1.07-1.27.534-1.872.534-3.61.067-7.287.067-10.898.067-3.476 0-7.02 0-10.496.067-1.136 0-2.34.267-3.476.334-2.74.134-5.482.2-8.223.268-.2 0-.4-.335-.734-.602-.067.134-.2.334-.4.602-.068-.134-.202-.268-.336-.468-.067.2-.133.4-.2.534h-.2c-.135-.936-.402-1.805-.402-2.74 0-2.006.2-4.012.267-6.018.067-.936 0-1.805 0-2.674.268.2.468.334.736.535.135-.267.268-.467.402-.668 0 0-.134-.067-.267-.2.133-.067.267-.2.267-.268.067-.2.2-.4.2-.535 0-.47-.133-.87-.2-1.27.067 0 .134 0 .2-.068l.402 2.006h.2c-.267-.468.602-.87-.133-1.404-.066-.067.067-.468.067-.67-.2-.4-.334-.8-.534-1.336.066-.067.267-.133.468-.2-.267-.134-.467-.268-.668-.335.67-.6.67-.936.067-1.604.133-.068.266-.068.266-.135 0-.602 0-1.203-.133-1.805-.134-.668.2-1.47-.803-1.872.067.2.134.334.268.535 0 0-.2.067-.4.2-.87-.802-.336-1.87-.536-3.075.468.134.802.268 1.136.4-.133-.467-.468-1.002-.668-1.603h-.268v-4.413c0 .067.468.067.736.134 0-.067.067-.134.067-.2-.2-.268-.468-.536-.736-.87l.133-.134c-.535-.668-.268-1.604-.268-1.805v-4.68c.67.67-.334 1.538.67 1.94v-.67h-.068c-.067-1.002-.067-2.005-.134-3.008h-.133c-.067.133-.067.2-.134.333h-.134c.134-5.28.268-10.563.4-15.978.67.87 1.405 1.67 1.873 2.54 1.538 2.808 3.544 5.215 5.416 7.756 1.605 2.207 3.076 4.614 4.547 6.887 1.805 2.74 3.543 5.482 5.35 8.223a194.228 194.228 0 0 0 4.144 6.15c1.27 1.806 2.608 3.544 3.945 5.283 1.137 1.537 2.34 3.075 3.477 4.613 1.337 1.872 2.674 3.744 4.01 5.55.67.935 1.405 1.87 2.14 2.807.402.535 1.003.936 1.404 1.27-.066 0-.133 0-.267-.067.2.268.333.468.467.602.735.4.802.802.4 1.404zm3.41-16.714v-.468c0 .133.067.334 0 .468zm2.273-29.484c-.066 0-.467-.4-.534-.468-.067.2 0 .4-.134.67-.066-.202-.534-.135-.534-.336-.067.936.4 1.872.334 2.808.2-.133 1.003-.2 1.203-.4a.51.51 0 0 0 .268.133c-1.337 1.004-1.003 2.007-.4 3.143.132.268.533.802.132 1.337-.133.134.067.535.134.87h.2v.133l-.602.2c-.134-.2-.936-.6-.936-.935v3.41c.668.2.668 1.136.936 1.604.134-.2.2-.334.267-.535l.067.067c-.067.4-.134.802-.267 1.203-.134.602-.268 1.137-.335 1.74 0 .066.134.2.134.266-.735 1.67-.334 3.543-.602 5.282-.2 1.27 0 2.607-.133 3.944-.135 1.136-.402 2.34-.67 3.476-.067.2-.2.267-.535.4.134-.8.067-1.336-.067-2.072-.066 0-.936-.468-1.002-.468 0 .936.534 2.207.735 3.276-.2-.067-1.002-.535-1.07-.535-.132.803-.132 1.872-.2 2.742-.066.667-.668 1.27-.735 2.004 0 .4.468.67.4 1.337h.536c0-1.336.603-2.54.603-3.943h.2c.067.134.268.267.2.334-.133.737-.4 1.54-.333 2.274 0 .4.334.803.2 1.27-.133.402-.2.803-.267 1.405-.067-.336-.134-.47-.134-.67-.068 0-.67-.067-.736-.067-.067.4.468.802.4 1.137-.066.067-.133.067-.266.133-.736-1.07-1.47-2.14-2.207-3.21-1.737-2.54-3.475-5.08-5.213-7.687-.468-.67-.87-1.337-1.204-2.006a94.535 94.535 0 0 0-6.886-10.23c-1.94-2.473-3.477-5.147-5.282-7.754-1.67-2.474-3.343-4.88-5.014-7.354-.6-.803-1.336-1.538-1.87-2.407-1.74-2.74-3.277-5.55-5.015-8.29-1.47-2.274-3.076-4.48-4.613-6.686-.535-.737-1.07-1.54-1.605-2.34-.067-.135-.134-.268-.134-.47-.133-1.47-.267-2.94-.334-4.345 0-1.337.133-2.674.133-4.078v-1.203c0-.335.067-.602.067-.936.067-.067.133-.2.2-.268-1.938 0-3.944-.067-5.883 0-1.27.067-1.94-.468-2.808-1.404-2.542-2.875-4.414-6.15-6.62-9.226-2.072-2.942-4.212-5.816-6.35-8.69-1.74-2.34-3.478-4.614-5.216-6.954-1.94-2.675-3.81-5.35-5.816-8.023-2.407-3.21-4.88-6.418-7.355-9.627-1.136-1.47-2.406-2.875-3.677-4.413.87.134 1.672.267 2.474.334l3.21.2c2.406.2 4.813.335 7.22.67 2.005.267 4.01.668 6.083 1.002 4.413.735 8.76 1.938 12.97 3.342 2.474.802 4.88 1.872 7.288 2.875 5.416 2.206 10.564 4.88 15.645 7.688 1.605.87 2.54 2.274 3.744 3.544 1.738 1.804 3.476 3.61 5.147 5.48 1.94 2.207 3.744 4.48 5.616 6.754 1.672 2.005 3.41 4.01 5.08 6.017.536.602.937 1.338 1.405 2.006 1.07 1.605 2.273 3.143 3.21 4.88.668 1.27 1.07 2.742 1.537 4.146.67 2.072 1.337 4.078 2.006 6.15.47 1.538.87 3.143 1.204 4.747.268 1.07.2 2.206.535 3.275.4 1.404 0 2.942.4 4.346.067.135.134.335.2.47.268.267.47.534.068.935-.067.067-.067.334 0 .535.133-.134.2-.267.334-.468 0 .134.067.2.067.267 0 .267-.068.534 0 .802 0 .133.132.334.2.468.133-.134.267-.2.534-.4.602 2.272.67 4.545.67 6.885 0 2.206.4 4.412-.536 6.552.2-.736-.268-1.404-.067-2.073z"/><path d="M296.9 116.73c.067 0 .133.068.133.068l-.066-.067c0-.066 0-.066-.067 0zm10.563 66.055c-.735.535-1.47 1.003-2.407 1.204-.067-.068-.067-.135-.133-.202.735-.468 1.537-.936 2.273-1.404.066.134.2.268.267.4zm-125.356-90.59c.736-.936 1.47-1.872 2.273-2.808.067.067.602.2.67.267-.736.936-1.74 2.207-2.475 3.21-.133-.134-.334-.602-.468-.67zm-18.987 32.76c-.535-1.137-1.07-2.34-1.604-3.477.066-.067.534-.267.6-.267.737 1.07 1.07 2.34 1.606 3.477 0 0-.535.268-.602.268zm17.05-32.091c-.403.6-.804 1.27-1.205 1.87-.067-.065-.802.27-.87.202.402-.602 1.405-1.67 1.806-2.273.068.067.135.134.27.2zm120.14 92.662c.066 0 .066-.066.133-.066a11.11 11.11 0 0 0 1.538.133c-.868.602-1.403.535-1.67-.067zM180.302 95.67c.067-.2.2-.4.335-.6.133 0 .334-.067.334-.067.268-.468.268-.802.536-1.204-.067-.067-.134-.067-.2-.134-.402.267-.803.6-1.204.87.133.133.133.2.133.333-.534-.068-.735.2-1.002.935-.067.2-.402.268-.736.535-.067.134-.134.468-.267.802l.067.067a.988.988 0 0 1-.335.2c-.4.4-.87.735-1.27 1.136-.067.2-.134.4-.134.602.468-.468 1.27-1.337 1.872-1.872l.067.067c.268-.4.468-.802.736-1.204.066.066.066.133.133.2-.2.535-.4 1.137-.6 1.67-.135.068-.336.202-.336.135-.267.2-.468.468-.735.67l-1.204.8c-.667.603-1.336 1.138-2.07 1.74-.47.735-.937 1.403-1.472 2.272.802-.2 1.003.134.936.803.936.133 1.003-.602 1.27-1.137.067-.134.134-.4.268-.468.6-.535 1.27-1.003 1.94-1.538.132-.133.132-.4.132-.6 0-.068-.334-.068-.535-.135.6-.67 1.47-1.805 2.072-2.54.334-.2.67-.47.67-.67-.068-.735.4-.935.935-1.203-.268-.2-.335-.402-.335-.47z"/><path d="M181.64 94.936c-.268.468-.536.87-.803 1.337l-.4-.2c-.268 1.537-1.204 2.874-2.14 3.142.267.134.534.267.735.2s.334-.4.468-.6l1.805-2.61.602-1.002-.268-.267zm-22.264 29.35c.334 0 .67.067 1.07.067 0-.268.334-.2.334-.468h.2c0 .334.068.602.068.936h-1.404c-.067-.066-.335-.467-.268-.534zm-.536-3.076c-.2-.2-.534-.4-.534-.6-.066-.27.134-.603.335-.937.134.468.2.87.335 1.337-.067.067-.134.134-.134.2zm1.673-4.278c.267.668.535 1.404.802 2.072-.067 0-.468.2-.535.268-.267-.67-.602-1.404-.87-2.073.068-.068.47-.268.603-.268zm148.822 63.914c.334-.133.735-.2 1.27-.334-.6.468-1.07.803-1.47 1.204-.067-.067-.134-.134-.2-.134.133-.268.266-.468.4-.736zM227.17 39.58c.4-.268.734-.47 1.135-.736l.134.133c-.402.535-.737 1.07-1.205 1.74-.066-.47-.066-.737-.133-1.07-.067 0 0 0 .067-.068zm19.587 33.828c.602-.267 1.204-.535 1.94-.87-.068.402-.068.67-.068.937-.2-.067-.47-.134-.67-.134-.4.068-1.136.603-1.47.67-.067 0 .267-.535.267-.602zm50.143 56.695c.133.668 1.404 1.002.133 1.67.2.135.402.202.602.335 0 .067-.067.2-.134.268-.132.066-.4.2-.533.133-.067 0-.2-.268-.2-.402 0-.602.066-1.203.133-2.005z"/></g></svg>