<svg width="500" height="200" xmlns="http://www.w3.org/2000/svg"><path fill="none" d="M-1-1h502v202H-1z"/><path d="M27.095 167.065c0 7.49-6.108 13.597-13.598 13.597-7.49 0-13.597-6.107-13.597-13.597 0-7.49 6.107-13.597 13.597-13.597a13.549 13.549 0 0 1 13.598 13.597zM79.64 19.453h-1.613c-.576-.115-1.152-.115-1.728-.115H56.94c-9.104 0-13.598.576-15.672 1.037C25.02 24.523 7.85 36.507 7.85 69.118v36.413l.23 12.45.232 9.8c0 6.107 4.38 11.177 10.025 13.712a15.89 15.89 0 0 0 6.453 1.383h.346c.69 0 1.498-.115 2.19-.23 1.267-.23 3.11-.807 5.53-1.96.922-.46 1.844-.92 2.88-1.612.462-.23.923-.576 1.384-.806.346-.23.807-.46 1.267-.69 12.446-6.57 22.125-6.57 23.508-6.685h.115c.69 0 1.383-.116 2.074-.116l15.902-.58c23.508-.23 42.406-19.242 42.406-42.75V62.2c.115-23.62-19.13-42.75-42.75-42.75zM97.733 57.71L74.11 92.74c-.116.46-.346.807-.692 1.268l-5.416 7.375c-1.728 2.304-4.84 3.11-7.375 1.843a5.367 5.367 0 0 1-1.152-.576l-5.877-4.84-.346-.345L35.162 82.6c-2.306-1.73-2.767-4.955-1.153-7.26l3.45-5.185c1.73-2.305 4.953-2.766 7.26-1.152l15.093 7.72L85.63 47.915c1.613-2.304 4.84-2.765 7.144-1.152l3.918 3.687c2.19 1.73 2.765 4.955 1.037 7.26z" fill="#fee300"/><path d="M179.777 70.5h-13.943v20.28c0 2.076-1.613 3.69-3.687 3.69h-8.067c-2.074 0-3.687-1.614-3.687-3.69V29.364c0-2.074 1.613-3.688 3.687-3.688h24.775c7.03 0 13.713 5.762 13.713 12.79v19.36c0 7.03-5.762 12.676-12.79 12.676zm-2.88-28.462c0-2.074-1.73-3.802-3.92-3.802h-7.143V57.94h7.144c2.075 0 3.918-1.728 3.918-3.918V42.038zM240.39 94.47h-8.413c-2.074 0-3.572-1.614-3.572-3.69V73.613c0-2.535-1.152-3.918-3.227-3.918h-7.95V90.78c0 2.076-1.614 3.69-3.688 3.69h-8.066c-2.074 0-3.688-1.614-3.688-3.69V29.364c0-2.074 1.614-3.688 3.688-3.688h23.853c8.066 0 13.712 5.532 13.712 12.56v12.1c0 7.144-2.31 12.1-9.45 12.79 7.6.346 10.6 5.762 10.6 12.792v14.75c-.12 2.073-1.85 3.802-3.81 3.802zm-11.985-52.432c0-2.074-1.73-3.802-3.918-3.802h-7.26v18.667h7.26c2.074 0 3.918-1.728 3.918-3.918V42.038zm45.517 54.505c-11.408 0-21.088-6.568-21.088-19.013V42.5c0-12.446 9.68-18.9 21.088-18.9 11.407 0 21.087 6.454 21.087 18.9v35.03c0 12.445-9.68 19.013-21.09 19.013zm5.646-54.044c0-3.35-2.535-6.11-5.762-6.11-3.226 0-5.76 2.76-5.76 6.1v35.26c0 3.343 2.534 6.11 5.76 6.11 3.227 0 5.762-2.766 5.762-6.108V42.5zm54.044 51.97h-24.66c-2.074 0-3.687-1.62-3.687-3.69V29.36c0-2.074 1.613-3.688 3.687-3.688h24.66c7.03 0 13.943 5.532 13.943 12.56v42.752c0 7.144-6.914 13.482-13.943 13.482zm-1.73-51.86c0-2.42-1.958-4.265-4.493-4.265h-6.8v43.56h6.8c2.53 0 4.49-1.844 4.49-4.264V42.61zm47.016 54.16c-11.293 0-21.203-6.57-21.203-19.016V29.362c0-2.074 1.613-3.688 3.688-3.688h8.18c1.96 0 3.573 1.614 3.573 3.688V77.76c0 3.342 2.535 6.108 5.762 6.108 3.226 0 5.76-2.766 5.76-6.108V29.363c0-2.074 1.615-3.688 3.574-3.688h8.18c2.075 0 3.573 1.614 3.573 3.688V77.76c0 12.445-9.68 19.013-21.087 19.013zm52.43-.23c-11.292 0-21.087-6.57-21.087-19.016V42.5c0-12.446 9.68-18.9 21.09-18.9s21.21 6.454 21.21 18.9v2.42c0 1.958-1.613 3.57-3.687 3.57h-8.067c-2.074 0-3.687-1.612-3.687-3.57V42.5c0-3.342-2.536-6.108-5.763-6.108-3.225 0-5.76 2.766-5.76 6.107v35.03c0 3.34 2.535 6.1 5.76 6.1 3.228 0 5.763-2.767 5.763-6.108V73.49c0-2.074 1.612-3.687 3.686-3.687h8.065c2.075 0 3.688 1.612 3.688 3.687v4.034c0 12.445-9.794 19.013-21.202 19.013zm64.3-57.5h-8.758v51.74c0 2.07-1.613 3.684-3.687 3.684H475c-1.958 0-3.57-1.616-3.57-3.69V39.04h-8.76c-1.957 0-3.455-1.498-3.455-3.34v-6.45c0-1.96 1.498-3.458 3.456-3.458h32.85c1.96 0 3.458 1.5 3.458 3.458v6.45c.23 1.73-1.382 3.342-3.34 3.342zM189.11 179.97h-8.18c-2.075 0-3.688-1.612-3.688-3.686v-25.006h-11.408v25.006c0 2.074-1.613 3.687-3.687 3.687h-8.067c-2.074 0-3.687-1.61-3.687-3.68v-61.31c0-2.07 1.613-3.684 3.687-3.684h8.067c2.074 0 3.687 1.613 3.687 3.687v22.47h11.408v-22.47c0-2.073 1.613-3.686 3.687-3.686h8.18c1.96 0 3.57 1.613 3.57 3.687v61.42c0 1.96-1.618 3.57-3.57 3.57zm49.435 0h-30.882c-1.96 0-3.457-1.612-3.457-3.456V114.75c0-1.96 1.613-3.457 3.457-3.457h30.306c1.84 0 3.34 1.498 3.34 3.457v6.914c0 1.96-1.5 3.457-3.34 3.457h-18.44v12.45h16.24c1.96 0 3.458 1.5 3.458 3.46v6.338c0 1.96-1.498 3.458-3.457 3.458h-16.24v15.327h19.013c1.96 0 3.457 1.613 3.457 3.457v6.914c.116 1.96-1.498 3.458-3.457 3.458zm57.27 0h-8.066c-2.08 0-3.23-1.612-3.69-3.686l-2.08-9.795h-14.63l-1.96 9.79c-.344 2.07-1.61 3.683-3.57 3.683h-8.18c-1.845 0-3.804-1.383-3.804-3.11 0-.23 0-.347.115-.577l13.138-61.42c.34-2.073 1.61-3.687 3.57-3.687h16.13c1.96 0 3.225 1.614 3.57 3.69l13.137 61.42c.115.343.115.343.115.574 0 1.842-1.96 3.11-3.802 3.11zm-21.087-50.816l-4.955 24.66h9.795l-4.84-24.66zm63.84 50.816h-28.003c-2.074 0-3.687-1.612-3.687-3.686V114.98c0-2.074 1.613-3.687 3.687-3.687h8.182c1.96 0 3.572 1.613 3.572 3.687v51.163h16.24c1.96 0 3.456 1.613 3.456 3.457v6.914c0 1.96-1.498 3.457-3.457 3.457zm40.1-55.426h-8.758v51.74c0 2.074-1.613 3.687-3.688 3.687h-8.18c-1.96 0-3.573-1.61-3.573-3.68v-51.74h-8.76c-1.96 0-3.46-1.61-3.46-3.34v-6.452c0-1.96 1.61-3.456 3.453-3.456h32.84c1.96 0 3.458 1.498 3.458 3.457v6.453c.23 1.843-1.384 3.34-3.343 3.34zM429.6 179.97h-8.182c-2.074 0-3.687-1.612-3.687-3.686v-25.006h-11.4v25.006c0 2.074-1.61 3.687-3.685 3.687h-8.067c-2.074 0-3.687-1.61-3.687-3.68v-61.31c0-2.07 1.613-3.684 3.687-3.684h8.065c2.076 0 3.69 1.613 3.69 3.687v22.47h11.407v-22.47c0-2.073 1.613-3.686 3.687-3.686h8.183c1.96 0 3.572 1.613 3.572 3.687v61.42c0 1.96-1.614 3.57-3.573 3.57z" fill="#483C40"/></svg>