<svg width="500" height="200" xmlns="http://www.w3.org/2000/svg"><path fill="none" d="M-1-1h502v202H-1z"/><path d="M489.9 101.65H485c-.6 0-1.1-.5-1.1-1.1v-1.2c-2.8 1.8-5 2.7-8.4 2.7-2.7 0-5-.7-6.6-2.3-2-2-2.7-5.3-2.7-9.7v-17.5c0-.6.5-1.1 1.1-1.1h4.9c.6 0 1.1.5 1.1 1.1v17.5c0 2.7.2 4.2 1.2 5.1.7.6 1.7 1 3.3 1 2 0 4.6-1.3 6.1-2.1v-21.5c0-.6.5-1.1 1.1-1.1h4.9c.6 0 1.1.5 1.1 1.1v28c0 .6-.5 1.1-1.1 1.1m-34.3-13.3h-3.3c-4.9 0-6 1.6-6 4.6v.2c0 2.6 1.2 3.3 3.9 3.3 1.9 0 3.9-.6 5.5-1.5v-6.6h-.1zm6.1 13.3h-4.6c-.6 0-1.1-.5-1.1-1.1v-.9c-2.5 1.5-5 2.4-7.6 2.4-4.5 0-9.3-1.7-9.3-9v-.2c0-6.1 3.8-9.3 13.1-9.3h3.4v-2.4c0-3.5-1.5-4.3-4.7-4.3-3.4 0-7 .2-8.7.4h-.3c-.5 0-1-.2-1-.9v-3.4c0-.6.3-1 1-1.1 2.2-.4 5.3-.9 9-.9 7.6 0 11.8 3.4 11.8 10.2v19.3c0 .7-.5 1.2-1 1.2m-26.1 0h-4.8c-.6 0-1.1-.5-1.1-1.1v-6.1c0-.6.5-1 1.1-1h4.8c.6 0 1.1.4 1.1 1v6.1c0 .6-.5 1.1-1.1 1.1m-10 0h-4.9c-.6 0-1.1-.5-1.1-1.1v-18.3c0-4.1-.9-5.2-3.9-5.2-1 0-3 .3-5 1.3.2 1.2.2 2.5.2 3.9v18.2c0 .6-.5 1.1-1.1 1.1h-4.9c-.6 0-1.1-.5-1.1-1.1v-18.2c0-4.1-.7-5.2-3.7-5.2-1.1 0-2.7.6-4.9 1.8v21.7c0 .6-.5 1.1-1.1 1.1h-4.8c-.6 0-1.1-.5-1.1-1.1v-28c0-.6.5-1.1 1.1-1.1h4.7c.6 0 1.1.5 1.1 1.1v1.1c2.3-1.4 4.5-2.6 7.7-2.6 3.1 0 5 .9 6.3 2.4 2.7-1.5 5.1-2.4 8.8-2.4 7.3 0 8.9 5 8.9 11.3v18.2c-.1.5-.6 1.1-1.2 1.1m-47.5-17.3c0-4.4-2-7.2-5.7-7.2-3.8 0-5.7 2.8-5.7 7.2v4.3c0 4.4 2 7.2 5.7 7.2s5.7-2.8 5.7-7.2v-4.3zm-5.8 17.7c-8.4 0-12.8-5.7-12.8-13.4v-4.3c0-7.7 4.4-13.4 12.8-13.4s12.8 5.7 12.8 13.4v4.3c0 7.7-4.4 13.4-12.8 13.4m-16.5-.7c-1.2.3-3.7.7-6.9.7-7 0-12.2-4.3-12.2-13v-5c0-8.7 5.3-13 12.2-13 3.3 0 5.7.4 6.9.7.9.2 1.1.5 1.1 1.4v3.5c0 .5-.4.8-1 .8h-.2c-2.1-.3-3.4-.4-6.9-.4-2.5 0-5.2 1.4-5.2 7v5c0 5.6 2.6 7 5.2 7 3.5 0 4.8-.1 6.9-.4h.2c.5 0 1 .3 1 .8v3.5c0 .9-.2 1.2-1.1 1.4m-22.1.3h-4.8c-.6 0-1.1-.5-1.1-1.1v-6.1c0-.6.5-1 1.1-1h4.8c.6 0 1.1.4 1.1 1v6.1c0 .6-.5 1.1-1.1 1.1m-15-17.9c0-4.2-2.3-6.6-5.6-6.6s-5.7 2.4-5.7 6.6v.2h11.4v-.2h-.1zm6 5.2h-17.5v.2c0 3.1 1.3 6.8 6.4 6.8 3.9 0 7.6-.3 9.9-.5h.2c.5 0 1 .3 1 .8v3.5c0 .9-.2 1.2-1.1 1.4-3.5.6-5.6.9-10.4.9-5.4 0-13-2.9-13-13.5v-4c0-8.4 4.7-13.6 12.9-13.6s12.7 5.6 12.7 13.6v3c0 1-.3 1.4-1.1 1.4m-27.4 12.7c-1.3.2-2.5.4-3.6.4-6.1 0-8.5-1.4-8.5-8.5v-16.8l-5-.8c-.6-.1-1.1-.5-1.1-1.1v-2.4c0-.6.5-1.1 1.1-1.1h5v-7.1c0-.6.5-1 1.1-1.1l5-.9h.2c.5 0 .9.3.9.8v8.2h4.8c.6 0 1.1.5 1.1 1.1v3.2c0 .6-.5 1.1-1.1 1.1h-4.8v16.8c0 2.7.2 3 2.1 3h2.8c.7 0 1.1.3 1.1.8v3.4c-.1.6-.4.9-1.1 1m-26.2-13.3h-3.4c-4.9 0-5.9 1.6-5.9 4.6v.2c0 2.6 1.2 3.3 3.9 3.3 1.9 0 3.9-.6 5.5-1.5v-6.6h-.1zm5.9 13.3h-4.6c-.6 0-1.1-.5-1.1-1.1v-.9c-2.5 1.5-5 2.4-7.6 2.4-4.4 0-9.3-1.7-9.3-9v-.2c0-6.1 3.7-9.3 13.1-9.3h3.4v-2.4c0-3.5-1.6-4.3-4.7-4.3-3.4 0-7 .2-8.7.4h-.2c-.5 0-1-.2-1-.9v-3.4c0-.6.3-1 1-1.1 2.1-.4 5.3-.9 8.9-.9 7.6 0 11.8 3.4 11.8 10.2v19.3c.1.7-.4 1.2-1 1.2m-25.2 0c-1.3.2-2.5.4-3.6.4-6.1 0-8.5-1.4-8.5-8.5v-16.8l-5-.8c-.6-.1-1.1-.5-1.1-1.1v-2.4c0-.6.5-1.1 1.1-1.1h5v-7.1c0-.6.5-1 1.1-1.1l5-.9h.2c.5 0 .9.3.9.8v8.2h4.8c.6 0 1.1.5 1.1 1.1v3.2c0 .6-.5 1.1-1.1 1.1h-4.8v16.8c0 2.7.2 3 2.1 3h2.8c.7 0 1.1.3 1.1.8v3.4c-.1.6-.4.9-1.1 1m-29.8.4c-2.1 0-6.6-.3-9.6-1.1-.6-.2-1-.6-1-1.2v-3.2c0-.4.4-.8.9-.8h.2c2.6.3 7.4.6 9 .6 3.3 0 3.8-1.1 3.8-2.6 0-1-.6-1.7-2.4-2.7l-7.3-4.5c-2.6-1.6-4.5-4.3-4.5-7.4 0-5.4 3.4-8 10.2-8 4.3 0 6.8.5 9.5 1.1.6.2 1 .6 1 1.2v3.1c0 .7-.3 1-.8 1h-.2c-1.5-.2-5.8-.6-8.9-.6-2.6 0-3.7.6-3.7 2.3 0 .9.8 1.4 2.1 2.2l7 4.3c4.5 2.7 5.1 5.4 5.1 8.1.1 4.5-3.4 8.2-10.4 8.2m-20.6-18.3c0-4.2-2.3-6.6-5.6-6.6s-5.7 2.4-5.7 6.6v.2h11.4v-.2h-.1zm6.1 5.2H190v.2c0 3.1 1.3 6.8 6.4 6.8 3.9 0 7.6-.3 9.9-.5h.2c.5 0 1 .3 1 .8v3.5c0 .9-.2 1.2-1.1 1.4-3.5.6-5.6.9-10.4.9-5.3 0-13-2.9-13-13.5v-4c0-8.4 4.7-13.6 12.9-13.6 8.3 0 12.8 5.6 12.8 13.6v3c-.1 1-.4 1.4-1.2 1.4m-28.8 12.7h-5c-.6 0-1.1-.5-1.1-1.1v-38.6c0-.6.5-1.1 1.1-1.1h5c.6 0 1 .5 1 1.1v38.6c0 .5-.4 1.1-1 1.1m-16.9-13.3h-3.4c-4.9 0-5.9 1.6-5.9 4.6v.2c0 2.6 1.2 3.3 3.9 3.3 1.9 0 3.9-.6 5.5-1.5v-6.6h-.1zm6 13.3h-4.6c-.6 0-1.1-.5-1.1-1.1v-.9c-2.5 1.5-5 2.4-7.6 2.4-4.4 0-9.3-1.7-9.3-9v-.2c0-6.1 3.7-9.3 13.1-9.3h3.4v-2.4c0-3.5-1.6-4.3-4.7-4.3-3.4 0-7 .2-8.7.4h-.3c-.5 0-1-.2-1-.9v-3.4c0-.6.3-1 1-1.1 2.1-.4 5.2-.9 9-.9 7.6 0 11.8 3.4 11.8 10.2v19.3c.1.7-.4 1.2-1 1.2m-31.7-17.9c0-4.2-2.3-6.6-5.6-6.6s-5.7 2.4-5.7 6.6v.2h11.4v-.2h-.1zm6 5.2h-17.5v.2c0 3.1 1.3 6.8 6.4 6.8 3.9 0 7.6-.3 9.9-.5h.2c.5 0 1 .3 1 .8v3.5c0 .9-.2 1.2-1.1 1.4-3.5.6-5.6.9-10.4.9-5.4 0-13-2.9-13-13.5v-4c0-8.4 4.7-13.6 12.9-13.6 8.3 0 12.8 5.6 12.8 13.6v3c-.1 1-.4 1.4-1.2 1.4m-26.9-11.9c-2.9 0-5.2.8-7.4 1.9v21.6c0 .6-.5 1.1-1.1 1.1h-4.9c-.6 0-1.1-.5-1.1-1.1v-28c0-.6.5-1.1 1.1-1.1h4.7c.6 0 1.1.5 1.1 1.1v1.1c2.6-2 5.5-2.6 7.7-2.6.6 0 1.1.5 1.1 1.1v3.9c-.1.5-.6 1-1.2 1m381-12.1h-.7v1.1h.7c.4 0 .6-.2.6-.6 0-.3-.3-.5-.6-.5m.6 3l-.6-1.3h-.7v1.3h-.6v-3.6h1.3c.7 0 1.3.4 1.3 1.1 0 .5-.2.8-.6 1l.7 1.4h-.8v.1zm-.7-4.5c-1.6 0-2.7 1.2-2.7 2.8 0 1.6 1.1 2.8 2.7 2.8s2.7-1.2 2.7-2.8c0-1.7-1.1-2.8-2.7-2.8m0 6.2c-1.9 0-3.4-1.5-3.4-3.4s1.4-3.4 3.4-3.4c1.9 0 3.4 1.5 3.4 3.4-.1 1.9-1.5 3.4-3.4 3.4" fill="#333F48"/><path d="M112.8 126.55h-7.3l-1.9 5.6h-2.8l7-19.3h2.8l7 19.3h-2.8l-2-5.6zm-3.7-11.1s-.4 1.8-.8 2.7l-2.2 6.1h5.9l-2.1-6.1c-.3-1-.7-2.7-.8-2.7zm10 2.8h2.7v8.3c0 1.9.4 3.5 2.6 3.5 2.8 0 4.5-2.5 4.5-5.2v-6.5h2.7v13.9H129v-1.8c0-.6.1-1 .1-1h-.1c-.6 1.4-2.4 3.2-5.1 3.2-3.1 0-4.7-1.6-4.7-5.3v-9.1h-.1zm16.2 10.3s1.6 1.6 4 1.6c1.1 0 2.3-.6 2.3-1.7 0-2.5-7.1-2-7.1-6.5 0-2.5 2.2-3.9 5-3.9 3 0 4.5 1.5 4.5 1.5l-1.1 2s-1.2-1.2-3.4-1.2c-1.2 0-2.3.5-2.3 1.7 0 2.5 7.1 1.9 7.1 6.5 0 2.3-2 4-5 4-3.4 0-5.3-2-5.3-2l1.3-2zm12.2-8h-1.8v-2.1h1.9v-4h2.6v4h3.3v2.1h-3.3v6.2c0 2.8 1.9 3.1 3 3.1.4 0 .6-.1.6-.1v2.4s-.4.1-.9.1c-1.8 0-5.3-.5-5.3-5.2v-6.5h-.1zm8.6-2.3h2.6v2.4c0 .6-.1 1-.1 1h.1c.6-2 2.2-3.6 4.4-3.6.4 0 .7.1.7.1v2.6s-.4-.1-.8-.1c-1.7 0-3.3 1.2-3.9 3.3-.2.8-.3 1.6-.3 2.5v5.7h-2.7v-13.9zm17 5.2h.6v-.2c0-2.3-1.3-3-3-3-2.1 0-3.9 1.3-3.9 1.3l-1.1-1.9s2-1.6 5.2-1.6c3.5 0 5.5 1.9 5.5 5.4v8.8h-2.5v-1.3c0-.6.1-1.1.1-1.1h-.1s-1.1 2.7-4.4 2.7c-2.4 0-4.7-1.5-4.7-4.2 0-4.7 6-4.9 8.3-4.9zm-3.1 6.8c2.2 0 3.7-2.4 3.7-4.4v-.4h-.7c-2 0-5.6.1-5.6 2.6 0 1.1.9 2.2 2.6 2.2zm9.6-17.5h2.7v15.1c0 1.7.7 2 1.5 2h.5v2.4s-.4.1-.9.1c-1.5 0-3.7-.4-3.7-3.9v-15.7h-.1zm6.9 0h2.7v2.7h-2.7v-2.7zm0 5.5h2.7v13.9h-2.7v-13.9zm13.5 5.2h.6v-.2c0-2.3-1.3-3-3-3-2.1 0-3.9 1.3-3.9 1.3l-1.1-1.9s2-1.6 5.2-1.6c3.5 0 5.5 1.9 5.5 5.4v8.8h-2.5v-1.3c0-.6.1-1.1.1-1.1h-.1s-1.1 2.7-4.4 2.7c-2.4 0-4.7-1.5-4.7-4.2 0-4.7 6-4.9 8.3-4.9zm-3 6.8c2.2 0 3.7-2.4 3.7-4.4v-.4h-.7c-2 0-5.6.1-5.6 2.6 0 1.1.8 2.2 2.6 2.2zm16.1-17.5h2.7v15.1c0 1.7.7 2 1.5 2h.5v2.4s-.4.1-.9.1c-1.5 0-3.7-.4-3.7-3.9v-15.7h-.1zm6.8 0h2.7v2.7h-2.7v-2.7zm0 5.5h2.7v13.9h-2.7v-13.9zm4.4 0h2.8l3.4 9.4c.3.8.4 1.9.5 1.9h.1s.2-1.1.5-1.9l3.4-9.4h2.8l-5.1 13.9h-3.1l-5.3-13.9zm21.1-.3c3.9 0 6 2.9 6 6.5 0 .4-.1 1.2-.1 1.2h-10.1c.1 3 2.3 4.6 4.8 4.6 2.4 0 4.1-1.6 4.1-1.6l1.1 1.9s-2.1 2-5.4 2c-4.4 0-7.3-3.2-7.3-7.3 0-4.5 2.9-7.3 6.9-7.3zm3.3 5.6c-.1-2.4-1.6-3.5-3.3-3.5-2 0-3.7 1.3-4.1 3.5h7.4zm5.6 5s1.6 1.6 4 1.6c1.1 0 2.3-.6 2.3-1.7 0-2.5-7.1-2-7.1-6.5 0-2.5 2.2-3.9 5-3.9 3 0 4.5 1.5 4.5 1.5l-1.1 2s-1.2-1.2-3.4-1.2c-1.2 0-2.3.5-2.3 1.7 0 2.5 7.1 1.9 7.1 6.5 0 2.3-2 4-5 4-3.4 0-5.3-2-5.3-2l1.3-2zm18-15.8h2.7v7.1c0 .7-.1 1.2-.1 1.2h.1c.6-1.3 2.4-3.1 5.1-3.1 3.3 0 4.8 1.8 4.8 5.3v8.9h-2.7v-8.3c0-1.9-.4-3.5-2.6-3.5-2.1 0-3.8 1.4-4.4 3.4-.2.5-.2 1.2-.2 1.8v6.5h-2.7v-19.3zm22 5.2c3.9 0 6 2.9 6 6.5 0 .4-.1 1.2-.1 1.2h-10.1c.1 3 2.3 4.6 4.8 4.6 2.4 0 4.1-1.6 4.1-1.6l1.1 1.9s-2.1 2-5.4 2c-4.4 0-7.3-3.2-7.3-7.3-.1-4.5 2.9-7.3 6.9-7.3zm3.3 5.6c-.1-2.4-1.6-3.5-3.3-3.5-2 0-3.7 1.3-4.1 3.5h7.4zm5.4-5.3h2.6v2.4c0 .6-.1 1-.1 1h.1c.6-2 2.2-3.6 4.4-3.6.4 0 .7.1.7.1v2.6s-.4-.1-.8-.1c-1.7 0-3.3 1.2-3.9 3.3-.2.8-.3 1.6-.3 2.5v5.7H303v-13.9zm15.6-.3c3.9 0 6 2.9 6 6.5 0 .4-.1 1.2-.1 1.2h-10.1c.1 3 2.3 4.6 4.8 4.6 2.4 0 4.1-1.6 4.1-1.6l1.1 1.9s-2.1 2-5.4 2c-4.4 0-7.3-3.2-7.3-7.3 0-4.5 2.9-7.3 6.9-7.3zm3.3 5.6c-.1-2.4-1.6-3.5-3.3-3.5-2 0-3.7 1.3-4.1 3.5h7.4z" fill="#666"/><path d="M.6 99.65c-.1 23.9 19.1 43.3 42.9 43.4 23.8.1 43.2-19.1 43.3-42.9.2-23.8-19-43.2-42.8-43.3h-.2C20 56.85.8 75.95.6 99.65" fill="#E4002B"/><path d="M57.8 96.75v22.9H29.7v-22.9h-7.4l21.5-21.4 21.5 21.4h-7.5zm14.2-2.7l-25.6-25.6c-.7-.7-1.6-1.2-2.7-1.2-1 0-2 .4-2.7 1.2l-25.5 25.6c-1 1-1.6 2.4-1.6 3.9 0 3 2.5 5.5 5.5 5.5h3.5v19.4c0 2 1.6 3.6 3.6 3.6H61c2 0 3.6-1.6 3.6-3.6v-19.4h3.5c3 0 5.5-2.5 5.5-5.5 0-1.6-.6-2.9-1.6-3.9" fill="#fff"/></svg>