<svg width="500" height="200" xmlns="http://www.w3.org/2000/svg"><path fill="none" d="M-1-1h502v202H-1z"/><g fill="#00D8FF"><circle r="19.914" cy="99.821" cx="250.179"/><path d="M250.178 59.36v4.76c13.13 0 25.785.95 37.448 2.657 11.623 1.746 22.254 4.245 31.26 7.34 5.434 1.863 10.313 3.966 14.518 6.187 3.174 1.666 5.99 3.412 8.37 5.197 3.61 2.66 6.268 5.36 7.934 7.82a16.548 16.548 0 0 1 1.825 3.49c.357 1.07.555 2.07.555 2.98 0 .88-.158 1.79-.476 2.78-.555 1.75-1.666 3.77-3.45 5.87-1.31 1.59-3.016 3.218-5.04 4.88-3.054 2.46-6.862 4.92-11.344 7.22-4.483 2.3-9.64 4.447-15.392 6.35-8.806 2.936-19.12 5.158-30.386 6.705-11.227 1.508-23.405 2.3-35.9 2.3-12.814 0-25.27-.712-36.774-2.22-11.464-1.507-21.977-3.77-30.823-6.823-5.633-1.943-10.67-4.124-15.034-6.465a68.868 68.868 0 0 1-8.65-5.472c-3.73-2.815-6.47-5.67-8.21-8.29-.88-1.31-1.51-2.54-1.87-3.69-.4-1.15-.56-2.18-.56-3.132 0-.832.12-1.705.39-2.617.476-1.628 1.47-3.49 3.055-5.476 1.19-1.47 2.7-3.016 4.523-4.564 2.736-2.3 6.19-4.6 10.234-6.783 4.085-2.185 8.765-4.248 14.04-6.07 9.046-3.136 19.836-5.715 31.657-7.46 11.822-1.747 24.714-2.738 37.964-2.738V54.6c-13.727 0-27.056.99-39.39 2.815-12.34 1.825-23.645 4.523-33.4 7.894-5.756 2.02-10.99 4.28-15.63 6.78-3.455 1.86-6.59 3.85-9.365 5.91-4.125 3.13-7.497 6.46-9.877 10.11-1.19 1.82-2.143 3.69-2.818 5.67a18.288 18.288 0 0 0-1.03 6.03c0 1.86.315 3.723.87 5.55.99 3.17 2.697 6.185 4.998 9.042 3.453 4.284 8.174 8.25 14.045 11.86 5.87 3.61 12.85 6.903 20.823 9.6 9.64 3.293 20.71 5.673 32.69 7.22 11.98 1.547 24.83 2.3 38 2.3 12.895 0 25.43-.79 37.17-2.38 11.704-1.586 22.574-3.926 32.094-7.1 6.27-2.063 11.94-4.443 16.98-7.06 3.768-1.945 7.18-4.047 10.195-6.23 4.524-3.29 8.17-6.82 10.79-10.59a27.318 27.318 0 0 0 3.096-5.91c.715-2.064 1.15-4.206 1.11-6.348 0-1.867-.316-3.69-.87-5.476-.953-3.095-2.7-6.03-4.92-8.767-1.706-2.06-3.69-4.004-5.99-5.91-3.45-2.815-7.537-5.472-12.18-7.932-4.64-2.46-9.916-4.68-15.67-6.663-9.677-3.33-20.824-5.95-32.963-7.775-12.14-1.783-25.23-2.775-38.838-2.775v4.88h.2zm-35.225 20.35l4.125 2.38c6.545-11.386 13.686-21.858 21.025-31.1 7.3-9.204 14.796-17.178 21.976-23.406 6.62-5.752 13.05-10.115 18.84-12.97 2.89-1.43 5.59-2.5 8.05-3.175 2.46-.68 4.68-1 6.54-1 1.15 0 2.18.12 3.09.32.91.2 1.664.51 2.34.91 1.03.59 2.022 1.47 2.974 2.73.713.952 1.387 2.103 1.982 3.49.91 2.064 1.664 4.642 2.18 7.617.515 2.976.793 6.387.793 10.116 0 6.03-.716 12.932-2.263 20.47-1.864 9.083-5.077 19.16-9.36 29.672-4.284 10.51-9.72 21.42-15.946 32.25-6.39 11.104-13.25 21.54-20.312 30.74-7.06 9.124-14.28 17.06-21.34 23.246-6.78 5.95-13.448 10.395-19.438 13.29-2.975 1.47-5.83 2.54-8.41 3.215-2.578.715-4.88 1.033-6.862 1.033-1.27 0-2.38-.12-3.37-.358-.99-.24-1.823-.56-2.5-.995-.99-.594-1.98-1.427-2.893-2.657a17.54 17.54 0 0 1-1.946-3.372c-.87-1.982-1.625-4.442-2.14-7.3-.52-2.854-.794-6.147-.794-9.717 0-5.236.555-11.186 1.785-17.613 1.785-9.4 4.96-20.036 9.32-31.18 4.405-11.15 10-22.77 16.62-34.277l-4.082-2.38-4.128-2.38c-6.865 11.9-12.656 23.92-17.22 35.505-4.56 11.582-7.893 22.73-9.836 32.885-1.31 6.98-1.986 13.485-1.986 19.396 0 7.26.95 13.645 2.934 18.96.99 2.66 2.26 5.08 3.85 7.18 1.585 2.103 3.49 3.89 5.75 5.157 1.587.915 3.293 1.55 5.078 1.986 1.786.43 3.65.63 5.555.63 3.014 0 6.11-.48 9.36-1.35 4.88-1.31 9.997-3.57 15.313-6.667 5.315-3.096 10.79-7.06 16.263-11.86 7.698-6.707 15.275-15.116 22.61-24.716 7.34-9.56 14.4-20.35 20.987-31.776 6.426-11.145 12.02-22.45 16.502-33.4 4.48-10.95 7.85-21.54 9.873-31.34 1.667-8.09 2.46-15.59 2.46-22.37 0-7.46-.95-14.044-2.974-19.56-.99-2.734-2.3-5.233-3.886-7.375-1.588-2.14-3.57-3.966-5.83-5.275a17.836 17.836 0 0 0-4.88-1.907 23.41 23.41 0 0 0-5.317-.597c-2.937 0-5.99.477-9.125 1.35-4.72 1.31-9.68 3.57-14.797 6.585-5.12 3.06-10.435 6.907-15.75 11.548-7.73 6.76-15.587 15.09-23.2 24.69-7.62 9.6-14.997 20.466-21.82 32.25l4.205 2.46zm.04 40.7l4.125-2.38c-6.585-11.346-12.1-22.81-16.423-33.72-4.324-10.948-7.498-21.38-9.322-30.743-1.35-6.862-1.984-13.17-1.984-18.684 0-6.347.83-11.662 2.26-15.55.71-1.944 1.54-3.53 2.46-4.72.91-1.23 1.86-2.063 2.81-2.62a9.934 9.934 0 0 1 2.46-.95c.95-.24 2.02-.358 3.25-.358 1.98 0 4.36.357 6.98 1.07 3.93 1.112 8.49 3.135 13.33 6.07 4.84 2.936 10.03 6.744 15.31 11.425 6.94 6.15 14.08 13.964 21.02 22.93 6.947 8.964 13.73 19.12 19.96 29.91 6.425 11.107 12.02 22.254 16.5 32.925 4.443 10.67 7.735 20.905 9.56 30.108 1.35 6.824 1.983 13.13 1.983 18.685 0 6.743-.953 12.456-2.5 16.62-.754 2.103-1.706 3.81-2.658 5.118-.99 1.31-2.024 2.222-3.055 2.817-.71.396-1.502.714-2.42.952-.95.238-2.02.357-3.21.357-1.863 0-4.01-.318-6.39-.952-3.61-.992-7.73-2.777-12.173-5.356-4.445-2.578-9.166-5.99-14.005-10.155-7.26-6.23-14.877-14.29-22.335-23.65-7.46-9.36-14.758-20.03-21.383-31.5l-4.165 2.34-4.128 2.38c6.864 11.86 14.4 22.93 22.177 32.64 7.774 9.76 15.747 18.21 23.562 24.953 6.98 5.99 13.843 10.63 20.39 13.803 3.252 1.587 6.425 2.816 9.52 3.65 3.054.833 6.03 1.31 8.925 1.31 1.864 0 3.69-.2 5.434-.636s3.41-1.07 4.96-1.98c2.3-1.347 4.28-3.17 5.91-5.354 1.23-1.628 2.26-3.453 3.133-5.476 1.31-2.974 2.3-6.346 2.935-10.035.635-3.69.992-7.698.992-11.98 0-6.27-.713-13.17-2.14-20.55-1.983-9.998-5.474-20.788-10.115-31.895-4.64-11.145-10.433-22.65-17.02-34.034-6.464-11.147-13.446-21.62-20.665-30.98-7.26-9.363-14.72-17.575-22.216-24.24-7.538-6.703-15.036-11.9-22.097-15.43-3.53-1.785-6.98-3.134-10.277-4.086-3.29-.953-6.503-1.43-9.56-1.47-1.862 0-3.73.2-5.47.636-1.746.438-3.45 1.073-5 1.985-2.22 1.31-4.124 3.058-5.71 5.16-1.19 1.586-2.14 3.33-2.976 5.235-1.23 2.856-2.143 6.03-2.74 9.48-.592 3.49-.87 7.26-.87 11.266 0 6.27.714 13.13 2.14 20.51 1.985 10.07 5.278 21.02 9.8 32.41 4.523 11.38 10.235 23.24 17.058 34.984l4.048-2.26z"/></g></svg>