<svg xmlns="http://www.w3.org/2000/svg" width="500" height="200" fill="none"><path fill="url(#a)" d="M70.402 153.445a5.464 5.464 0 0 0 6.316 0c1.655-1.181 40.559-29.267 40.401-64.334 0-24.018-19.541-43.561-43.56-43.561-24.017 0-43.558 19.543-43.558 43.54-.158 35.088 38.746 63.174 40.4 64.355Z"/><path fill="#00ADBB" fill-rule="evenodd" d="M93.8 72.775H56.627c-2.053 0-3.718 1.393-3.718 3.111v21.78l-8.922 9.957c-.919 1.025-.044 2.489 1.487 2.489h7.848l-3.345 3.734c-.92 1.025-.045 2.489 1.487 2.489h42.31c1.409 0 2.696-.666 3.326-1.72l6.407-10.726v-21.78c0-1.718-1.664-3.111-3.717-3.111h-2.272v-3.112c0-1.718-1.665-3.111-3.718-3.111Zm3.718 6.223H62.616c-2.053 0-3.718 1.393-3.718 3.111v21.78l-5.576 6.223h34.464c1.408 0 2.695-.666 3.325-1.72l6.407-10.726V78.998Z" clip-rule="evenodd" style="mix-blend-mode:multiply"/><path fill="#004E5E" fill-rule="evenodd" d="M97.518 78.998v18.669l-6.407 10.725c-.63 1.054-1.917 1.72-3.325 1.72H53.323l5.576-6.223v-21.78c0-1.718 1.664-3.111 3.717-3.111h34.902Z" clip-rule="evenodd"/><path fill="#004E5E" d="m157.44 118.377-7.187-12.524h-4.138v12.524h-8.712V80.262h15.246c3.63 0 6.715 1.27 9.256 3.811 2.541 2.541 3.812 5.627 3.812 9.257 0 2.323-.654 4.483-1.96 6.48-1.271 1.96-2.959 3.484-5.064 4.573l8.113 13.994h-9.366Zm-11.325-29.948v9.801h6.534c1.198 0 2.214-.472 3.049-1.415.871-.944 1.307-2.106 1.307-3.485 0-1.38-.436-2.541-1.307-3.485-.835-.944-1.851-1.416-3.049-1.416h-6.534Zm30.429 19.602c.944 2.541 3.122 3.812 6.534 3.812 2.214 0 3.956-.69 5.227-2.069l6.534 3.757c-2.686 3.739-6.643 5.608-11.87 5.608-4.574 0-8.24-1.361-10.999-4.084-2.722-2.722-4.084-6.153-4.084-10.291 0-4.102 1.343-7.514 4.03-10.236 2.722-2.76 6.207-4.139 10.454-4.139 3.957 0 7.242 1.38 9.855 4.139 2.65 2.722 3.975 6.134 3.975 10.236 0 1.162-.109 2.251-.326 3.267h-19.33Zm-.164-6.098h11.707c-.798-2.868-2.722-4.302-5.772-4.302-3.158 0-5.136 1.434-5.935 4.302Zm54.945-11.543c3.121 0 5.626 1.034 7.514 3.103 1.887 2.033 2.831 4.755 2.831 8.168v16.716h-8.167v-16.009c0-1.379-.345-2.468-1.035-3.266-.653-.8-1.615-1.198-2.886-1.198-1.343 0-2.396.453-3.158 1.36-.726.908-1.089 2.161-1.089 3.758v15.355h-8.167v-16.009c0-1.379-.345-2.468-1.035-3.266-.653-.8-1.615-1.198-2.886-1.198-1.343 0-2.396.453-3.158 1.36-.726.908-1.089 2.161-1.089 3.758v15.355h-8.167V91.152H209v2.504c1.488-2.178 3.921-3.267 7.296-3.267 3.159 0 5.536 1.198 7.133 3.594 1.67-2.396 4.302-3.594 7.896-3.594Zm39.233 24.611c-2.795 2.759-6.207 4.138-10.237 4.138-4.029 0-7.441-1.379-10.236-4.138-2.795-2.795-4.193-6.207-4.193-10.237 0-4.029 1.398-7.423 4.193-10.182 2.795-2.795 6.207-4.192 10.236-4.192 4.03 0 7.442 1.397 10.237 4.192 2.795 2.759 4.193 6.153 4.193 10.182 0 4.03-1.398 7.442-4.193 10.237Zm-14.702-5.608c1.198 1.197 2.687 1.796 4.465 1.796 1.779 0 3.267-.599 4.465-1.796 1.198-1.198 1.797-2.741 1.797-4.629 0-1.887-.599-3.43-1.797-4.628s-2.686-1.797-4.465-1.797c-1.778 0-3.267.6-4.465 1.797-1.197 1.198-1.796 2.741-1.796 4.628 0 1.888.599 3.431 1.796 4.629Zm38.936-10.4h-5.608v9.637c0 1.089.436 1.779 1.307 2.069.871.291 2.305.381 4.301.273v7.405c-5.19.544-8.784.054-10.781-1.47-1.996-1.561-2.994-4.32-2.994-8.277v-9.637h-4.356v-7.841h4.356v-5.173h8.167v5.173h5.608v7.84Zm11.389 9.038c.944 2.541 3.122 3.812 6.534 3.812 2.215 0 3.957-.69 5.228-2.069l6.534 3.757c-2.687 3.739-6.643 5.608-11.871 5.608-4.573 0-8.24-1.361-10.998-4.084-2.723-2.722-4.084-6.153-4.084-10.291 0-4.102 1.343-7.514 4.029-10.236 2.723-2.76 6.207-4.139 10.455-4.139 3.956 0 7.241 1.38 9.855 4.139 2.65 2.722 3.975 6.134 3.975 10.236 0 1.162-.109 2.251-.327 3.267h-19.33Zm-.163-6.098h11.707c-.799-2.868-2.723-4.302-5.772-4.302-3.158 0-5.136 1.434-5.935 4.302Zm37.001 17.206c-3.884 0-7.133-.835-9.746-2.505-2.578-1.706-4.411-4.011-5.5-6.915l7.514-4.356c1.525 3.521 4.193 5.282 8.005 5.282 3.448 0 5.172-1.035 5.172-3.104 0-1.125-.562-1.996-1.688-2.613-1.089-.654-3.158-1.398-6.207-2.233-1.597-.435-2.995-.925-4.193-1.47a19.06 19.06 0 0 1-3.539-2.123 9.214 9.214 0 0 1-2.613-3.376c-.581-1.344-.872-2.886-.872-4.629 0-3.52 1.253-6.334 3.757-8.44 2.541-2.105 5.554-3.157 9.039-3.157 3.122 0 5.881.744 8.276 2.232 2.396 1.452 4.284 3.576 5.663 6.37l-7.35 4.302c-.69-1.452-1.543-2.54-2.56-3.267-1.016-.762-2.359-1.143-4.029-1.143-1.307 0-2.323.29-3.049.87-.69.545-1.035 1.217-1.035 2.015 0 .944.436 1.761 1.307 2.45.908.69 2.759 1.453 5.554 2.288 1.525.472 2.704.853 3.539 1.143.835.29 1.888.78 3.158 1.47 1.307.654 2.287 1.361 2.941 2.124.689.726 1.288 1.706 1.797 2.94.544 1.198.816 2.577.816 4.138 0 3.63-1.307 6.498-3.92 8.603-2.614 2.069-6.026 3.104-10.237 3.104Zm32.104 0c-4.138 0-7.586-1.379-10.345-4.138-2.723-2.759-4.084-6.171-4.084-10.237 0-4.065 1.361-7.477 4.084-10.236 2.759-2.76 6.207-4.139 10.345-4.139 2.614 0 5.01.636 7.188 1.906 2.214 1.27 3.92 2.959 5.118 5.064l-7.133 4.138c-.98-2.032-2.74-3.049-5.281-3.049-1.779 0-3.249.599-4.411 1.797-1.161 1.162-1.742 2.668-1.742 4.519 0 1.852.581 3.376 1.742 4.574 1.162 1.162 2.632 1.742 4.411 1.742 2.577 0 4.337-1.016 5.281-3.049l7.133 4.084c-1.198 2.142-2.886 3.848-5.064 5.118-2.178 1.271-4.592 1.906-7.242 1.906Zm38.366-4.138c-2.795 2.759-6.207 4.138-10.237 4.138-4.029 0-7.441-1.379-10.236-4.138-2.795-2.795-4.193-6.207-4.193-10.237 0-4.029 1.398-7.423 4.193-10.182 2.795-2.795 6.207-4.192 10.236-4.192 4.03 0 7.442 1.397 10.237 4.192 2.795 2.759 4.193 6.153 4.193 10.182 0 4.03-1.398 7.442-4.193 10.237Zm-14.702-5.608c1.198 1.197 2.687 1.796 4.465 1.796 1.779 0 3.267-.599 4.465-1.796 1.198-1.198 1.797-2.741 1.797-4.629 0-1.887-.599-3.43-1.797-4.628s-2.686-1.797-4.465-1.797c-1.778 0-3.267.6-4.465 1.797-1.197 1.198-1.796 2.741-1.796 4.628 0 1.888.599 3.431 1.796 4.629Zm41.102-18.241h8.167v27.225h-8.167v-2.559c-1.634 2.214-4.229 3.321-7.787 3.321-2.904 0-5.336-.998-7.296-2.995-1.924-1.996-2.886-4.755-2.886-8.276V91.152h8.168v15.518c0 1.597.435 2.831 1.306 3.703.908.835 2.051 1.252 3.431 1.252 1.561 0 2.795-.472 3.702-1.416.908-.944 1.362-2.341 1.362-4.192V91.152ZM470 98.993h-5.608v9.637c0 1.089.435 1.779 1.306 2.069.872.291 2.305.381 4.302.273v7.405c-5.191.544-8.785.054-10.781-1.47-1.997-1.561-2.995-4.32-2.995-8.277v-9.637h-4.356v-7.841h4.356v-5.173h8.168v5.173H470v7.84Z"/><defs><linearGradient id="a" x1="73.56" x2="73.56" y1="45.55" y2="154.45" gradientUnits="userSpaceOnUse"><stop stop-color="#E0FDE1"/><stop offset="1" stop-color="#DAF9F7"/></linearGradient></defs></svg>