<svg version="1" xmlns="http://www.w3.org/2000/svg" width="500" height="200" viewBox="0 0 500.000000 200.000000"><g fill="#015697"><path d="M409 37c-28.8 7.7-47.2 30-48.7 59.1-1.4 24.9 10.4 46.3 32.7 59.6 7.4 4.4 19.8 7.5 30.5 7.6 18.7.2 33.1-5.7 46.2-18.8 6.6-6.5 9-9.9 12.3-16.6 9.5-20 9.2-39.2-1.1-59-4.8-9.1-12.9-18-21.8-23.8-13.8-8.9-34.6-12.3-50.1-8.1zm-7.5 45.2c.3 1.3.6 8.1.8 15.3l.2 13h21v-14l-8.9-.5c-7-.4-9.1-.9-10-2.3-.8-1.2-.8-2.2 0-3.5.9-1.4 2.9-1.7 11.9-2 15.5-.4 15.5-.4 15.5 14.8 0 16.5.6 16-18.8 16-20.5 0-19.2 1.4-19.2-20.4 0-9.5.3-17.6.7-17.9.3-.4 1.9-.7 3.4-.7 2.1 0 3 .6 3.4 2.2zm68.4 6.9c3.8 1.3 5.1 3.5 5.1 8.8 0 8.4-2.8 10.1-16.4 10.1-9.5 0-12.6-1.1-12.6-4.4 0-2.8 2.6-3.6 11.7-3.6 7.7 0 9.3-.3 9.3-1.5 0-1.3-1.7-1.5-11.2-1.3l-11.3.3v13l14.4.5c12.3.4 14.5.8 15.5 2.3.8 1.2.8 2.2 0 3.5-1 1.5-3.1 1.7-16 2-8.2.1-15.9 0-17.1-.3-3.7-.9-5.3-5.4-5.3-15.2 0-9.5 1.2-12.6 5.4-14.3 3.1-1.3 24.8-1.2 28.5.1zM94.7 56.7C90.4 57.8 90 61 90 96c0 36.4.3 38.6 5.9 41.4 4.5 2.4 62.6 2.4 65.9 0 3.1-2.1 3.1-8.5 0-11.4-2.1-1.9-3.4-2-27.1-2-15.2 0-25.6-.4-26.8-1-1.8-1-1.9-2.3-1.9-17.5V89h27.3c25.3 0 27.5-.1 29-1.8 1.9-2.1 2.2-6.4.7-9.2-1.8-3.4-6.5-4-32-4h-24.8l-.4-6.6c-.4-5.8-.8-7-3.2-9-2.6-2.3-4.2-2.7-7.9-1.7zM178.4 58.3l-2.9 2.5-.3 32.4c-.3 36.7.1 39.7 5.8 43.6 3.4 2.3 3.4 2.3 35.7 2l32.3-.3 3.2-3.3 3.3-3.2.3-23.8c.2-21.1.1-24.1-1.5-27.2-2.9-5.7-4.3-6-29.9-6-26 0-26.8.2-26.8 6.5 0 2.7.6 4.3 2.3 5.6 2.1 1.7 4.2 1.9 19.1 1.9 22.4 0 21.4-.8 21.8 17.3.5 18.9 2.2 17.7-25.1 17.7-19.5 0-21.5-.2-23-1.8s-1.7-5.3-1.7-31.4c0-26.7-.2-29.8-1.7-31.7-2.9-3.4-7.4-3.7-10.9-.8zM15.5 71.1C11.1 73.6 11 74 11 104.6c0 28 .1 29.2 2.1 31.8 2.7 3.4 8.6 3.7 11.5.5 1.7-1.9 2-4.3 2.4-23.7l.5-21.6 2.5-1.3c1.8-.9 8.7-1.3 24.1-1.3 24.7 0 25.4-.2 25.4-7 0-6.9-.5-7-27.6-7-22.2 0-23.8-.1-26.2-2-3.2-2.5-7.6-3.4-10.2-1.9zM278 75.1c-5.4 1.1-8.8 4.3-10 9.5-.5 2.1-1 14.3-1 27.1v23.1l3.1 2.6c4 3.4 6.4 3.3 10-.3l2.9-2.9v-21.4c0-15.3.3-21.7 1.2-22.6.9-.9 9-1.2 30.4-1.2 29.1 0 29.3 0 30.8-2.2 3.4-4.8 1.3-10.2-4.5-11.8-4.2-1.2-56.7-1.1-62.9.1z"/><path d="M298.9 104c-2.9 1.7-4.3 6.5-2.7 9.6 2 4.3 5.2 5.4 16 5.4 8.9 0 9.9-.2 12.7-2.6 3.9-3.3 4.1-7.4.6-10.9-2.3-2.4-3-2.5-13.7-2.5-6.2 0-12 .5-12.9 1z"/></g></svg>
