<svg xmlns="http://www.w3.org/2000/svg" width="803.787" height="302.701"><defs><clipPath id="a" clipPathUnits="userSpaceOnUse"><path d="m131.22 179.965-18.268-18.242a2.884 2.884 0 0 1 0-4.071l18.268-18.244a2.893 2.893 0 0 1 4.075 0l18.255 18.244a2.888 2.888 0 0 1 0 4.071l-18.255 18.242a2.876 2.876 0 0 1-2.037.839c-.739 0-1.477-.28-2.038-.839"/></clipPath><clipPath id="c" clipPathUnits="userSpaceOnUse"><path d="m131.22 88.86-18.268-18.242a2.884 2.884 0 0 1 0-4.071l18.268-18.24a2.893 2.893 0 0 1 4.075 0l18.255 18.24a2.888 2.888 0 0 1 0 4.071L135.295 88.86c-.56.56-1.299.84-2.037.84-.739 0-1.477-.28-2.038-.84"/></clipPath><clipPath id="e" clipPathUnits="userSpaceOnUse"><path d="m176.751 134.469-18.267-18.242a2.883 2.883 0 0 1 0-4.071l18.267-18.242a2.89 2.89 0 0 1 4.075 0l18.255 18.242a2.887 2.887 0 0 1 0 4.073l-18.255 18.24a2.874 2.874 0 0 1-2.037.839 2.88 2.88 0 0 1-2.038-.839"/></clipPath><clipPath id="g" clipPathUnits="userSpaceOnUse"><path d="m108.372 66.193-8.118-8.111c-1.12-1.119-.896-2.65.501-3.398l6.992-3.305c1.465-.607 2.661.191 2.661 1.773V65.35c0 .97-.342 1.487-.864 1.487-.332 0-.737-.209-1.172-.644"/></clipPath><clipPath id="i" clipPathUnits="userSpaceOnUse"><path d="M156.095 65.35V53.152c0-1.582 1.197-2.38 2.66-1.773l6.992 3.305c1.396.748 1.621 2.279.502 3.398l-8.118 8.111c-.435.435-.84.644-1.172.644-.522 0-.864-.517-.864-1.487"/></clipPath><clipPath id="k" clipPathUnits="userSpaceOnUse"><path d="M158.976 91.365a2.887 2.887 0 0 1-2.881-2.877V72.037a2.89 2.89 0 0 1 2.881-2.879h16.458a2.891 2.891 0 0 1 2.881 2.879v16.451a2.888 2.888 0 0 1-2.881 2.877z"/></clipPath><clipPath id="m" clipPathUnits="userSpaceOnUse"><path d="m189.401 147.164-8.117-8.113c-1.119-1.12-.74-2.035.844-2.035h12.207c1.584 0 2.382 1.195 1.778 2.659l-3.311 6.987c-.429.798-1.114 1.213-1.831 1.213-.536 0-1.091-.233-1.57-.711"/></clipPath><clipPath id="o" clipPathUnits="userSpaceOnUse"><path d="M156.095 175.228v-12.197c0-1.584.915-1.963 2.036-.844l8.118 8.114c1.119 1.119.894 2.648-.5 3.396l-6.994 3.307a2.48 2.48 0 0 1-.946.203c-.999 0-1.714-.755-1.714-1.979"/></clipPath><clipPath id="q" clipPathUnits="userSpaceOnUse"><path d="m73.7 146.662-3.308-6.988c-.608-1.463.191-2.658 1.775-2.658h12.209c1.585 0 1.965.915.844 2.035l-8.12 8.113c-.478.479-1.032.711-1.568.711-.717 0-1.402-.415-1.832-1.213"/></clipPath><clipPath id="s" clipPathUnits="userSpaceOnUse"><path d="M91.067 159.223a2.89 2.89 0 0 1-2.88-2.88v-16.449a2.887 2.887 0 0 1 2.88-2.878h16.46a2.887 2.887 0 0 1 2.881 2.878v16.449a2.89 2.89 0 0 1-2.881 2.88z"/></clipPath><clipPath id="u" clipPathUnits="userSpaceOnUse"><path d="m107.747 177.004-6.992-3.307c-1.397-.748-1.621-2.277-.501-3.396l8.118-8.114c1.12-1.119 2.036-.74 2.036.844v12.197c0 1.224-.714 1.979-1.715 1.979a2.48 2.48 0 0 1-.946-.203"/></clipPath><clipPath id="w" clipPathUnits="userSpaceOnUse"><path d="M182.128 91.365c-1.584 0-1.963-.916-.844-2.035l8.117-8.111c1.119-1.119 2.651-.893 3.401.502l3.311 6.986c.604 1.461-.194 2.658-1.778 2.658z"/></clipPath><clipPath id="y" clipPathUnits="userSpaceOnUse"><path d="M91.067 91.365a2.887 2.887 0 0 1-2.88-2.877V72.037a2.89 2.89 0 0 1 2.88-2.879h16.46a2.89 2.89 0 0 1 2.881 2.879v16.451a2.887 2.887 0 0 1-2.881 2.877z"/></clipPath><clipPath id="A" clipPathUnits="userSpaceOnUse"><path d="M72.167 91.365c-1.584 0-2.383-1.195-1.775-2.656l3.308-6.988c.75-1.395 2.282-1.621 3.4-.502l8.12 8.111c1.121 1.119.741 2.035-.844 2.035z"/></clipPath><clipPath id="C" clipPathUnits="userSpaceOnUse"><path d="M158.976 159.223a2.889 2.889 0 0 1-2.881-2.88v-16.449a2.886 2.886 0 0 1 2.881-2.878h16.458a2.888 2.888 0 0 1 2.881 2.878v16.449a2.89 2.89 0 0 1-2.881 2.88z"/></clipPath><clipPath id="E" clipPathUnits="userSpaceOnUse"><path d="m85.692 134.469-18.269-18.242a2.884 2.884 0 0 1 0-4.071l18.269-18.242a2.886 2.886 0 0 1 4.072 0l18.257 18.242a2.89 2.89 0 0 1 0 4.073l-18.257 18.24c-.56.559-1.298.839-2.036.839s-1.477-.28-2.036-.839"/></clipPath><clipPath id="G" clipPathUnits="userSpaceOnUse"><path d="M0 227.026h602.84V0H0z"/></clipPath><clipPath id="H" clipPathUnits="userSpaceOnUse"><path d="m131.719 179.645-18.267-18.243a2.882 2.882 0 0 1 0-4.069l18.267-18.244a2.892 2.892 0 0 1 4.076 0l18.254 18.244a2.882 2.882 0 0 1 0 4.069l-18.254 18.243a2.87 2.87 0 0 1-2.037.839 2.88 2.88 0 0 1-2.039-.839"/></clipPath><clipPath id="J" clipPathUnits="userSpaceOnUse"><path d="m131.719 88.539-18.267-18.241a2.884 2.884 0 0 1 0-4.071l18.267-18.24a2.894 2.894 0 0 1 4.076 0l18.254 18.24a2.884 2.884 0 0 1 0 4.071l-18.254 18.241a2.868 2.868 0 0 1-2.037.841c-.738 0-1.477-.28-2.039-.841"/></clipPath><clipPath id="L" clipPathUnits="userSpaceOnUse"><path d="m177.251 134.149-18.268-18.242a2.885 2.885 0 0 1 0-4.07l18.268-18.242a2.889 2.889 0 0 1 4.076 0l18.254 18.242a2.884 2.884 0 0 1 0 4.071l-18.254 18.241a2.878 2.878 0 0 1-2.038.839 2.88 2.88 0 0 1-2.038-.839"/></clipPath><clipPath id="N" clipPathUnits="userSpaceOnUse"><path d="m108.872 65.873-8.118-8.11c-1.12-1.12-.895-2.651.501-3.398l6.992-3.305c1.465-.608 2.661.191 2.661 1.773V65.03c0 .969-.342 1.487-.864 1.487-.332 0-.736-.209-1.172-.644"/></clipPath><clipPath id="P" clipPathUnits="userSpaceOnUse"><path d="M156.595 65.03V52.833c0-1.582 1.197-2.381 2.66-1.773l6.992 3.305c1.397.747 1.621 2.278.502 3.398l-8.118 8.11c-.435.435-.84.644-1.172.644-.522 0-.864-.518-.864-1.487"/></clipPath><clipPath id="R" clipPathUnits="userSpaceOnUse"><path d="M159.475 91.046a2.887 2.887 0 0 1-2.88-2.877V71.717a2.89 2.89 0 0 1 2.88-2.878h16.46a2.89 2.89 0 0 1 2.881 2.878v16.452a2.888 2.888 0 0 1-2.881 2.877z"/></clipPath><clipPath id="T" clipPathUnits="userSpaceOnUse"><path d="m189.902 146.844-8.118-8.113c-1.119-1.119-.74-2.035.844-2.035h12.207c1.584 0 2.383 1.195 1.777 2.66l-3.31 6.987c-.429.797-1.114 1.212-1.83 1.212-.537 0-1.091-.232-1.57-.711"/></clipPath><clipPath id="V" clipPathUnits="userSpaceOnUse"><path d="M156.595 174.909v-12.198c0-1.584.916-1.963 2.036-.843l8.118 8.113c1.119 1.119.895 2.648-.5 3.397l-6.994 3.306a2.463 2.463 0 0 1-.946.204c-1 0-1.714-.755-1.714-1.979"/></clipPath><clipPath id="X" clipPathUnits="userSpaceOnUse"><path d="m74.201 146.343-3.31-6.989c-.606-1.463.192-2.658 1.776-2.658h12.209c1.585 0 1.965.916.844 2.035l-8.119 8.113c-.479.479-1.034.712-1.57.712-.717 0-1.401-.416-1.83-1.213"/></clipPath><clipPath id="Z" clipPathUnits="userSpaceOnUse"><path d="M91.568 158.903a2.89 2.89 0 0 1-2.881-2.879v-16.449a2.888 2.888 0 0 1 2.881-2.879h16.459a2.888 2.888 0 0 1 2.881 2.879v16.449a2.89 2.89 0 0 1-2.881 2.879z"/></clipPath><clipPath id="ab" clipPathUnits="userSpaceOnUse"><path d="m108.247 176.684-6.992-3.306c-1.396-.749-1.621-2.278-.501-3.397l8.118-8.113c1.121-1.12 2.036-.741 2.036.843v12.198c0 1.224-.715 1.978-1.715 1.978a2.48 2.48 0 0 1-.946-.203"/></clipPath><clipPath id="ad" clipPathUnits="userSpaceOnUse"><path d="M182.628 91.046c-1.584 0-1.963-.916-.844-2.036l8.118-8.112c1.118-1.117 2.649-.892 3.4.503l3.31 6.986c.606 1.461-.193 2.659-1.777 2.659z"/></clipPath><clipPath id="af" clipPathUnits="userSpaceOnUse"><path d="M91.568 91.046a2.888 2.888 0 0 1-2.881-2.877V71.717a2.89 2.89 0 0 1 2.881-2.878h16.459a2.89 2.89 0 0 1 2.881 2.878v16.452a2.887 2.887 0 0 1-2.881 2.877z"/></clipPath><clipPath id="ah" clipPathUnits="userSpaceOnUse"><path d="M72.667 91.046c-1.584 0-2.382-1.196-1.776-2.657l3.31-6.988c.749-1.395 2.28-1.62 3.4-.503l8.119 8.112c1.121 1.12.741 2.036-.844 2.036z"/></clipPath><clipPath id="aj" clipPathUnits="userSpaceOnUse"><path d="M159.475 158.903a2.889 2.889 0 0 1-2.88-2.879v-16.449a2.888 2.888 0 0 1 2.88-2.879h16.46a2.888 2.888 0 0 1 2.881 2.879v16.449a2.89 2.89 0 0 1-2.881 2.879z"/></clipPath><clipPath id="al" clipPathUnits="userSpaceOnUse"><path d="m86.191 134.149-18.268-18.242a2.883 2.883 0 0 1 0-4.07l18.268-18.242a2.886 2.886 0 0 1 4.074 0l18.255 18.242a2.884 2.884 0 0 1 0 4.071l-18.255 18.241c-.561.559-1.299.839-2.037.839s-1.477-.28-2.037-.839"/></clipPath><clipPath id="an" clipPathUnits="userSpaceOnUse"><path d="M0 227.026h602.84V0H0z"/></clipPath><linearGradient id="b" x1="0" x2="1" y1="0" y2="0" gradientTransform="scale(128.80856 -128.80856) rotate(45 2.139 .327)" gradientUnits="userSpaceOnUse" spreadMethod="pad"><stop offset="0" stop-color="#00b388"/><stop offset=".737" stop-color="#00a3e0"/><stop offset="1" stop-color="#00a3e0"/></linearGradient><linearGradient id="d" x1="0" x2="1" y1="0" y2="0" gradientTransform="scale(128.80855 -128.80855) rotate(45 1.535 .077)" gradientUnits="userSpaceOnUse" spreadMethod="pad"><stop offset="0" stop-color="#00b388"/><stop offset=".737" stop-color="#00a3e0"/><stop offset="1" stop-color="#00a3e0"/></linearGradient><linearGradient id="f" x1="0" x2="1" y1="0" y2="0" gradientTransform="scale(128.80855 -128.80855) rotate(45 2.139 .327)" gradientUnits="userSpaceOnUse" spreadMethod="pad"><stop offset="0" stop-color="#00b388"/><stop offset=".737" stop-color="#00a3e0"/><stop offset="1" stop-color="#00a3e0"/></linearGradient><linearGradient id="h" x1="0" x2="1" y1="0" y2="0" gradientTransform="scale(128.81154 -128.81154) rotate(45 1.297 -.021)" gradientUnits="userSpaceOnUse" spreadMethod="pad"><stop offset="0" stop-color="#00b388"/><stop offset=".737" stop-color="#00a3e0"/><stop offset="1" stop-color="#00a3e0"/></linearGradient><linearGradient id="j" x1="0" x2="1" y1="0" y2="0" gradientTransform="scale(128.81206 -128.81206) rotate(45 1.63 .117)" gradientUnits="userSpaceOnUse" spreadMethod="pad"><stop offset="0" stop-color="#00b388"/><stop offset=".737" stop-color="#00a3e0"/><stop offset="1" stop-color="#00a3e0"/></linearGradient><linearGradient id="l" x1="0" x2="1" y1="0" y2="0" gradientTransform="scale(128.80803 -128.80803) rotate(45 1.837 .203)" gradientUnits="userSpaceOnUse" spreadMethod="pad"><stop offset="0" stop-color="#00b388"/><stop offset=".737" stop-color="#00a3e0"/><stop offset="1" stop-color="#00a3e0"/></linearGradient><linearGradient id="n" x1="0" x2="1" y1="0" y2="0" gradientTransform="scale(128.8 -128.8) rotate(45 2.377 .426)" gradientUnits="userSpaceOnUse" spreadMethod="pad"><stop offset="0" stop-color="#00b388"/><stop offset=".737" stop-color="#00a3e0"/><stop offset="1" stop-color="#00a3e0"/></linearGradient><linearGradient id="p" x1="0" x2="1" y1="0" y2="0" gradientTransform="scale(128.80756 -128.80756) rotate(45 2.377 .426)" gradientUnits="userSpaceOnUse" spreadMethod="pad"><stop offset="0" stop-color="#00b388"/><stop offset=".737" stop-color="#00a3e0"/><stop offset="1" stop-color="#00a3e0"/></linearGradient><linearGradient id="r" x1="0" x2="1" y1="0" y2="0" gradientTransform="scale(128.8062 -128.8062) rotate(45 1.63 .117)" gradientUnits="userSpaceOnUse" spreadMethod="pad"><stop offset="0" stop-color="#00b388"/><stop offset=".737" stop-color="#00a3e0"/><stop offset="1" stop-color="#00a3e0"/></linearGradient><linearGradient id="t" x1="0" x2="1" y1="0" y2="0" gradientTransform="scale(128.8111 -128.8111) rotate(45 1.837 .202)" gradientUnits="userSpaceOnUse" spreadMethod="pad"><stop offset="0" stop-color="#00b388"/><stop offset=".737" stop-color="#00a3e0"/><stop offset="1" stop-color="#00a3e0"/></linearGradient><linearGradient id="v" x1="0" x2="1" y1="0" y2="0" gradientTransform="scale(128.8133 -128.8133) rotate(45 2.043 .288)" gradientUnits="userSpaceOnUse" spreadMethod="pad"><stop offset="0" stop-color="#00b388"/><stop offset=".737" stop-color="#00a3e0"/><stop offset="1" stop-color="#00a3e0"/></linearGradient><linearGradient id="x" x1="0" x2="1" y1="0" y2="0" gradientTransform="scale(128.79081 -128.79081) rotate(45 2.044 .288)" gradientUnits="userSpaceOnUse" spreadMethod="pad"><stop offset="0" stop-color="#00b388"/><stop offset=".737" stop-color="#00a3e0"/><stop offset="1" stop-color="#00a3e0"/></linearGradient><linearGradient id="z" x1="0" x2="1" y1="0" y2="0" gradientTransform="scale(128.81014 -128.81014) rotate(45 1.387 .016)" gradientUnits="userSpaceOnUse" spreadMethod="pad"><stop offset="0" stop-color="#00b388"/><stop offset=".737" stop-color="#00a3e0"/><stop offset="1" stop-color="#00a3e0"/></linearGradient><linearGradient id="B" x1="0" x2="1" y1="0" y2="0" gradientTransform="scale(128.8078 -128.8078) rotate(45 1.297 -.021)" gradientUnits="userSpaceOnUse" spreadMethod="pad"><stop offset="0" stop-color="#00b388"/><stop offset=".737" stop-color="#00a3e0"/><stop offset="1" stop-color="#00a3e0"/></linearGradient><linearGradient id="D" x1="0" x2="1" y1="0" y2="0" gradientTransform="scale(128.80873 -128.80873) rotate(45 2.287 .389)" gradientUnits="userSpaceOnUse" spreadMethod="pad"><stop offset="0" stop-color="#00b388"/><stop offset=".737" stop-color="#00a3e0"/><stop offset="1" stop-color="#00a3e0"/></linearGradient><linearGradient id="F" x1="0" x2="1" y1="0" y2="0" gradientTransform="scale(128.80826 -128.80826) rotate(45 1.535 .078)" gradientUnits="userSpaceOnUse" spreadMethod="pad"><stop offset="0" stop-color="#00b388"/><stop offset=".737" stop-color="#00a3e0"/><stop offset="1" stop-color="#00a3e0"/></linearGradient><linearGradient id="I" x1="0" x2="1" y1="0" y2="0" gradientTransform="scale(128.80856 -128.80856) rotate(45 2.138 .333)" gradientUnits="userSpaceOnUse" spreadMethod="pad"><stop offset="0" stop-color="#00b381"/><stop offset=".737" stop-color="#28c2ec"/><stop offset="1" stop-color="#28c2ec"/></linearGradient><linearGradient id="K" x1="0" x2="1" y1="0" y2="0" gradientTransform="scale(128.80855 -128.80855) rotate(45 1.534 .083)" gradientUnits="userSpaceOnUse" spreadMethod="pad"><stop offset="0" stop-color="#00b381"/><stop offset=".737" stop-color="#28c2ec"/><stop offset="1" stop-color="#28c2ec"/></linearGradient><linearGradient id="M" x1="0" x2="1" y1="0" y2="0" gradientTransform="scale(128.80855 -128.80855) rotate(45 2.138 .333)" gradientUnits="userSpaceOnUse" spreadMethod="pad"><stop offset="0" stop-color="#00b381"/><stop offset=".737" stop-color="#28c2ec"/><stop offset="1" stop-color="#28c2ec"/></linearGradient><linearGradient id="O" x1="0" x2="1" y1="0" y2="0" gradientTransform="scale(128.81154 -128.81154) rotate(45 1.296 -.015)" gradientUnits="userSpaceOnUse" spreadMethod="pad"><stop offset="0" stop-color="#00b381"/><stop offset=".737" stop-color="#28c2ec"/><stop offset="1" stop-color="#28c2ec"/></linearGradient><linearGradient id="Q" x1="0" x2="1" y1="0" y2="0" gradientTransform="scale(128.81206 -128.81206) rotate(45 1.63 .123)" gradientUnits="userSpaceOnUse" spreadMethod="pad"><stop offset="0" stop-color="#00b381"/><stop offset=".737" stop-color="#28c2ec"/><stop offset="1" stop-color="#28c2ec"/></linearGradient><linearGradient id="S" x1="0" x2="1" y1="0" y2="0" gradientTransform="scale(128.80803 -128.80803) rotate(45 1.836 .209)" gradientUnits="userSpaceOnUse" spreadMethod="pad"><stop offset="0" stop-color="#00b381"/><stop offset=".737" stop-color="#28c2ec"/><stop offset="1" stop-color="#28c2ec"/></linearGradient><linearGradient id="U" x1="0" x2="1" y1="0" y2="0" gradientTransform="scale(128.8 -128.8) rotate(45 2.376 .432)" gradientUnits="userSpaceOnUse" spreadMethod="pad"><stop offset="0" stop-color="#00b381"/><stop offset=".737" stop-color="#28c2ec"/><stop offset="1" stop-color="#28c2ec"/></linearGradient><linearGradient id="W" x1="0" x2="1" y1="0" y2="0" gradientTransform="scale(128.80756 -128.80756) rotate(45 2.376 .432)" gradientUnits="userSpaceOnUse" spreadMethod="pad"><stop offset="0" stop-color="#00b381"/><stop offset=".737" stop-color="#28c2ec"/><stop offset="1" stop-color="#28c2ec"/></linearGradient><linearGradient id="Y" x1="0" x2="1" y1="0" y2="0" gradientTransform="scale(128.8062 -128.8062) rotate(45 1.63 .123)" gradientUnits="userSpaceOnUse" spreadMethod="pad"><stop offset="0" stop-color="#00b381"/><stop offset=".737" stop-color="#28c2ec"/><stop offset="1" stop-color="#28c2ec"/></linearGradient><linearGradient id="aa" x1="0" x2="1" y1="0" y2="0" gradientTransform="scale(128.8111 -128.8111) rotate(45 1.836 .208)" gradientUnits="userSpaceOnUse" spreadMethod="pad"><stop offset="0" stop-color="#00b381"/><stop offset=".737" stop-color="#28c2ec"/><stop offset="1" stop-color="#28c2ec"/></linearGradient><linearGradient id="ac" x1="0" x2="1" y1="0" y2="0" gradientTransform="scale(128.8133 -128.8133) rotate(45 2.042 .294)" gradientUnits="userSpaceOnUse" spreadMethod="pad"><stop offset="0" stop-color="#00b381"/><stop offset=".737" stop-color="#28c2ec"/><stop offset="1" stop-color="#28c2ec"/></linearGradient><linearGradient id="ae" x1="0" x2="1" y1="0" y2="0" gradientTransform="scale(128.79081 -128.79081) rotate(45 2.043 .294)" gradientUnits="userSpaceOnUse" spreadMethod="pad"><stop offset="0" stop-color="#00b381"/><stop offset=".737" stop-color="#28c2ec"/><stop offset="1" stop-color="#28c2ec"/></linearGradient><linearGradient id="ag" x1="0" x2="1" y1="0" y2="0" gradientTransform="scale(128.81014 -128.81014) rotate(45 1.386 .022)" gradientUnits="userSpaceOnUse" spreadMethod="pad"><stop offset="0" stop-color="#00b381"/><stop offset=".737" stop-color="#28c2ec"/><stop offset="1" stop-color="#28c2ec"/></linearGradient><linearGradient id="ai" x1="0" x2="1" y1="0" y2="0" gradientTransform="scale(128.8078 -128.8078) rotate(45 1.296 -.015)" gradientUnits="userSpaceOnUse" spreadMethod="pad"><stop offset="0" stop-color="#00b381"/><stop offset=".737" stop-color="#28c2ec"/><stop offset="1" stop-color="#28c2ec"/></linearGradient><linearGradient id="ak" x1="0" x2="1" y1="0" y2="0" gradientTransform="scale(128.80873 -128.80873) rotate(45 2.286 .395)" gradientUnits="userSpaceOnUse" spreadMethod="pad"><stop offset="0" stop-color="#00b381"/><stop offset=".737" stop-color="#28c2ec"/><stop offset="1" stop-color="#28c2ec"/></linearGradient><linearGradient id="am" x1="0" x2="1" y1="0" y2="0" gradientTransform="scale(128.80826 -128.80826) rotate(45 1.534 .083)" gradientUnits="userSpaceOnUse" spreadMethod="pad"><stop offset="0" stop-color="#00b381"/><stop offset=".737" stop-color="#28c2ec"/><stop offset="1" stop-color="#28c2ec"/></linearGradient></defs><g clip-path="url(#a)" transform="matrix(1.33333 0 0 -1.33333 0 302.701)"><path fill="url(#b)" d="m131.22 179.965-18.268-18.242a2.884 2.884 0 0 1 0-4.071l18.268-18.244a2.893 2.893 0 0 1 4.075 0l18.255 18.244a2.888 2.888 0 0 1 0 4.071l-18.255 18.242a2.876 2.876 0 0 1-2.037.839c-.739 0-1.477-.28-2.038-.839"/></g><g clip-path="url(#c)" transform="matrix(1.33333 0 0 -1.33333 0 302.701)"><path fill="url(#d)" d="m131.22 88.86-18.268-18.242a2.884 2.884 0 0 1 0-4.071l18.268-18.24a2.893 2.893 0 0 1 4.075 0l18.255 18.24a2.888 2.888 0 0 1 0 4.071L135.295 88.86c-.56.56-1.299.84-2.037.84-.739 0-1.477-.28-2.038-.84"/></g><g clip-path="url(#e)" transform="matrix(1.33333 0 0 -1.33333 0 302.701)"><path fill="url(#f)" d="m176.751 134.469-18.267-18.242a2.883 2.883 0 0 1 0-4.071l18.267-18.242a2.89 2.89 0 0 1 4.075 0l18.255 18.242a2.887 2.887 0 0 1 0 4.073l-18.255 18.24a2.874 2.874 0 0 1-2.037.839 2.88 2.88 0 0 1-2.038-.839"/></g><g clip-path="url(#g)" transform="matrix(1.33333 0 0 -1.33333 0 302.701)"><path fill="url(#h)" d="m108.372 66.193-8.118-8.111c-1.12-1.119-.896-2.65.501-3.398l6.992-3.305c1.465-.607 2.661.191 2.661 1.773V65.35c0 .97-.342 1.487-.864 1.487-.332 0-.737-.209-1.172-.644"/></g><g clip-path="url(#i)" transform="matrix(1.33333 0 0 -1.33333 0 302.701)"><path fill="url(#j)" d="M156.095 65.35V53.152c0-1.582 1.197-2.38 2.66-1.773l6.992 3.305c1.396.748 1.621 2.279.502 3.398l-8.118 8.111c-.435.435-.84.644-1.172.644-.522 0-.864-.517-.864-1.487"/></g><g clip-path="url(#k)" transform="matrix(1.33333 0 0 -1.33333 0 302.701)"><path fill="url(#l)" d="M158.976 91.365a2.887 2.887 0 0 1-2.881-2.877V72.037a2.89 2.89 0 0 1 2.881-2.879h16.458a2.891 2.891 0 0 1 2.881 2.879v16.451a2.888 2.888 0 0 1-2.881 2.877z"/></g><g clip-path="url(#m)" transform="matrix(1.33333 0 0 -1.33333 0 302.701)"><path fill="url(#n)" d="m189.401 147.164-8.117-8.113c-1.119-1.12-.74-2.035.844-2.035h12.207c1.584 0 2.382 1.195 1.778 2.659l-3.311 6.987c-.429.798-1.114 1.213-1.831 1.213-.536 0-1.091-.233-1.57-.711"/></g><g clip-path="url(#o)" transform="matrix(1.33333 0 0 -1.33333 0 302.701)"><path fill="url(#p)" d="M156.095 175.228v-12.197c0-1.584.915-1.963 2.036-.844l8.118 8.114c1.119 1.119.894 2.648-.5 3.396l-6.994 3.307a2.48 2.48 0 0 1-.946.203c-.999 0-1.714-.755-1.714-1.979"/></g><g clip-path="url(#q)" transform="matrix(1.33333 0 0 -1.33333 0 302.701)"><path fill="url(#r)" d="m73.7 146.662-3.308-6.988c-.608-1.463.191-2.658 1.775-2.658h12.209c1.585 0 1.965.915.844 2.035l-8.12 8.113c-.478.479-1.032.711-1.568.711-.717 0-1.402-.415-1.832-1.213"/></g><g clip-path="url(#s)" transform="matrix(1.33333 0 0 -1.33333 0 302.701)"><path fill="url(#t)" d="M91.067 159.223a2.89 2.89 0 0 1-2.88-2.88v-16.449a2.887 2.887 0 0 1 2.88-2.878h16.46a2.887 2.887 0 0 1 2.881 2.878v16.449a2.89 2.89 0 0 1-2.881 2.88z"/></g><g clip-path="url(#u)" transform="matrix(1.33333 0 0 -1.33333 0 302.701)"><path fill="url(#v)" d="m107.747 177.004-6.992-3.307c-1.397-.748-1.621-2.277-.501-3.396l8.118-8.114c1.12-1.119 2.036-.74 2.036.844v12.197c0 1.224-.714 1.979-1.715 1.979a2.48 2.48 0 0 1-.946-.203"/></g><g clip-path="url(#w)" transform="matrix(1.33333 0 0 -1.33333 0 302.701)"><path fill="url(#x)" d="M182.128 91.365c-1.584 0-1.963-.916-.844-2.035l8.117-8.111c1.119-1.119 2.651-.893 3.401.502l3.311 6.986c.604 1.461-.194 2.658-1.778 2.658z"/></g><g clip-path="url(#y)" transform="matrix(1.33333 0 0 -1.33333 0 302.701)"><path fill="url(#z)" d="M91.067 91.365a2.887 2.887 0 0 1-2.88-2.877V72.037a2.89 2.89 0 0 1 2.88-2.879h16.46a2.89 2.89 0 0 1 2.881 2.879v16.451a2.887 2.887 0 0 1-2.881 2.877z"/></g><g clip-path="url(#A)" transform="matrix(1.33333 0 0 -1.33333 0 302.701)"><path fill="url(#B)" d="M72.167 91.365c-1.584 0-2.383-1.195-1.775-2.656l3.308-6.988c.75-1.395 2.282-1.621 3.4-.502l8.12 8.111c1.121 1.119.741 2.035-.844 2.035z"/></g><g clip-path="url(#C)" transform="matrix(1.33333 0 0 -1.33333 0 302.701)"><path fill="url(#D)" d="M158.976 159.223a2.889 2.889 0 0 1-2.881-2.88v-16.449a2.886 2.886 0 0 1 2.881-2.878h16.458a2.888 2.888 0 0 1 2.881 2.878v16.449a2.89 2.89 0 0 1-2.881 2.88z"/></g><g clip-path="url(#E)" transform="matrix(1.33333 0 0 -1.33333 0 302.701)"><path fill="url(#F)" d="m85.692 134.469-18.269-18.242a2.884 2.884 0 0 1 0-4.071l18.269-18.242a2.886 2.886 0 0 1 4.072 0l18.257 18.242a2.89 2.89 0 0 1 0 4.073l-18.257 18.24c-.56.559-1.298.839-2.036.839s-1.477-.28-2.036-.839"/></g><g clip-path="url(#G)" transform="matrix(1.33333 0 0 -1.33333 0 302.701)"><path fill="#888b8d" d="M434.767 137.889c-5.387 0-7.812-1.482-12.795-7.41v2.56c0 3.098-.404 3.502-3.504 3.502h-2.556c-3.098 0-3.504-.404-3.504-3.502V84.145c0-3.098.406-3.502 3.504-3.502h2.556c3.1 0 3.504.404 3.504 3.502v25.996c0 6.736.674 10.775 2.156 13.469 2.043 3.716 6.498 5.582 10.619 5.008.96-.133 1.81-.458 2.725-.764.34-.113.733-.2 1.068-.051.344.15.616.422.844.715.545.7.9 1.547 1.315 2.328l.802 1.52c.54 1.078.946 1.884.946 2.289.132 1.752-3.504 3.234-7.68 3.234m-170.207 0c-5.387 0-7.812-1.482-12.795-7.41v2.56c0 3.098-.404 3.502-3.504 3.502h-2.558c-3.098 0-3.502-.404-3.502-3.502V84.145c0-3.098.404-3.502 3.502-3.502h2.558c3.1 0 3.504.404 3.504 3.502v25.996c0 6.736.672 10.775 2.154 13.469 2.043 3.716 6.5 5.582 10.62 5.008.96-.133 1.812-.458 2.726-.764.338-.113.73-.2 1.068-.051.342.15.616.422.842.715.547.7.903 1.547 1.315 2.328.265.504.533 1.006.804 1.52.539 1.078.944 1.884.944 2.289.134 1.752-3.502 3.234-7.678 3.234m27.703-33.944c0-5.252.539-8.082 1.75-10.508 1.885-3.502 6.062-5.656 10.91-5.656 4.715 0 8.889 2.154 10.776 5.656 1.212 2.426 1.75 5.256 1.75 10.508v29.094c0 3.097.406 3.502 3.503 3.502h2.559c3.1 0 3.502-.405 3.502-3.502v-30.172c0-8.217-1.346-12.662-5.117-16.836-4.041-4.58-10.104-7.004-16.973-7.004-7.006 0-13.064 2.424-17.105 7.004-3.772 4.174-5.12 8.62-5.12 16.836v30.172c0 3.097.405 3.502 3.503 3.502h2.558c3.1 0 3.504-.405 3.504-3.502zm59.326 4.715c0-12.393 7.68-20.879 18.725-20.879 10.64 0 18.318 8.891 18.318 21.15 0 11.311-7.947 20.067-18.453 20.067-10.91 0-18.59-8.352-18.59-20.338m.676 19.934c5.52 6.33 11.449 9.16 19.529 9.16 15.356 0 26.67-12.258 26.67-29.094 0-17.107-11.45-29.633-26.94-29.633-7.81 0-14.007 2.963-19.26 9.291v-4.174c0-3.097-.404-3.502-3.503-3.502h-2.557c-3.1 0-3.504.405-3.504 3.502v91.19c0 3.097.405 3.5 3.504 3.5h2.557c3.099 0 3.504-.403 3.504-3.5zm112.226-44.45c0-3.098-.404-3.502-3.504-3.502h-2.56c-3.096 0-3.5.405-3.5 3.503v48.895c0 3.097.404 3.5 3.5 3.5h2.56c3.1 0 3.504-.403 3.504-3.5zm2.154 73.543c0-3.772-3.097-6.869-6.869-6.869-3.77 0-6.869 3.097-6.869 7.004 0 3.636 3.098 6.734 6.87 6.734 3.771 0 6.868-3.098 6.868-6.869m43.838-22.763c1.615 1.617 1.615 1.617 3.906 1.617h4.176c2.424 0 3.367-.674 3.367-2.154 0-.54-.539-1.348-1.615-2.426l-19.264-19.262 24.38-27.476c.945-1.211 1.484-2.022 1.484-2.56 0-1.346-1.079-2.02-3.504-2.02h-4.174c-2.426 0-2.426 0-3.906 1.752L494.32 106.1l-2.424-2.424V84.145c0-3.098-.404-3.502-3.5-3.502h-2.56c-3.1 0-3.504.404-3.504 3.502v91.189c0 3.098.404 3.5 3.504 3.5h2.56c3.096 0 3.5-.402 3.5-3.5v-59.402z"/></g><g clip-path="url(#H)" transform="matrix(1.33333 0 0 -1.33333 0 302.701)"><path fill="url(#I)" d="m131.719 179.645-18.267-18.243a2.882 2.882 0 0 1 0-4.069l18.267-18.244a2.892 2.892 0 0 1 4.076 0l18.254 18.244a2.882 2.882 0 0 1 0 4.069l-18.254 18.243a2.87 2.87 0 0 1-2.037.839 2.88 2.88 0 0 1-2.039-.839"/></g><g clip-path="url(#J)" transform="matrix(1.33333 0 0 -1.33333 0 302.701)"><path fill="url(#K)" d="m131.719 88.539-18.267-18.241a2.884 2.884 0 0 1 0-4.071l18.267-18.24a2.894 2.894 0 0 1 4.076 0l18.254 18.24a2.884 2.884 0 0 1 0 4.071l-18.254 18.241a2.868 2.868 0 0 1-2.037.841c-.738 0-1.477-.28-2.039-.841"/></g><g clip-path="url(#L)" transform="matrix(1.33333 0 0 -1.33333 0 302.701)"><path fill="url(#M)" d="m177.251 134.149-18.268-18.242a2.885 2.885 0 0 1 0-4.07l18.268-18.242a2.889 2.889 0 0 1 4.076 0l18.254 18.242a2.884 2.884 0 0 1 0 4.071l-18.254 18.241a2.878 2.878 0 0 1-2.038.839 2.88 2.88 0 0 1-2.038-.839"/></g><g clip-path="url(#N)" transform="matrix(1.33333 0 0 -1.33333 0 302.701)"><path fill="url(#O)" d="m108.872 65.873-8.118-8.11c-1.12-1.12-.895-2.651.501-3.398l6.992-3.305c1.465-.608 2.661.191 2.661 1.773V65.03c0 .969-.342 1.487-.864 1.487-.332 0-.736-.209-1.172-.644"/></g><g clip-path="url(#P)" transform="matrix(1.33333 0 0 -1.33333 0 302.701)"><path fill="url(#Q)" d="M156.595 65.03V52.833c0-1.582 1.197-2.381 2.66-1.773l6.992 3.305c1.397.747 1.621 2.278.502 3.398l-8.118 8.11c-.435.435-.84.644-1.172.644-.522 0-.864-.518-.864-1.487"/></g><g clip-path="url(#R)" transform="matrix(1.33333 0 0 -1.33333 0 302.701)"><path fill="url(#S)" d="M159.475 91.046a2.887 2.887 0 0 1-2.88-2.877V71.717a2.89 2.89 0 0 1 2.88-2.878h16.46a2.89 2.89 0 0 1 2.881 2.878v16.452a2.888 2.888 0 0 1-2.881 2.877z"/></g><g clip-path="url(#T)" transform="matrix(1.33333 0 0 -1.33333 0 302.701)"><path fill="url(#U)" d="m189.902 146.844-8.118-8.113c-1.119-1.119-.74-2.035.844-2.035h12.207c1.584 0 2.383 1.195 1.777 2.66l-3.31 6.987c-.429.797-1.114 1.212-1.83 1.212-.537 0-1.091-.232-1.57-.711"/></g><g clip-path="url(#V)" transform="matrix(1.33333 0 0 -1.33333 0 302.701)"><path fill="url(#W)" d="M156.595 174.909v-12.198c0-1.584.916-1.963 2.036-.843l8.118 8.113c1.119 1.119.895 2.648-.5 3.397l-6.994 3.306a2.463 2.463 0 0 1-.946.204c-1 0-1.714-.755-1.714-1.979"/></g><g clip-path="url(#X)" transform="matrix(1.33333 0 0 -1.33333 0 302.701)"><path fill="url(#Y)" d="m74.201 146.343-3.31-6.989c-.606-1.463.192-2.658 1.776-2.658h12.209c1.585 0 1.965.916.844 2.035l-8.119 8.113c-.479.479-1.034.712-1.57.712-.717 0-1.401-.416-1.83-1.213"/></g><g clip-path="url(#Z)" transform="matrix(1.33333 0 0 -1.33333 0 302.701)"><path fill="url(#aa)" d="M91.568 158.903a2.89 2.89 0 0 1-2.881-2.879v-16.449a2.888 2.888 0 0 1 2.881-2.879h16.459a2.888 2.888 0 0 1 2.881 2.879v16.449a2.89 2.89 0 0 1-2.881 2.879z"/></g><g clip-path="url(#ab)" transform="matrix(1.33333 0 0 -1.33333 0 302.701)"><path fill="url(#ac)" d="m108.247 176.684-6.992-3.306c-1.396-.749-1.621-2.278-.501-3.397l8.118-8.113c1.121-1.12 2.036-.741 2.036.843v12.198c0 1.224-.715 1.978-1.715 1.978a2.48 2.48 0 0 1-.946-.203"/></g><g clip-path="url(#ad)" transform="matrix(1.33333 0 0 -1.33333 0 302.701)"><path fill="url(#ae)" d="M182.628 91.046c-1.584 0-1.963-.916-.844-2.036l8.118-8.112c1.118-1.117 2.649-.892 3.4.503l3.31 6.986c.606 1.461-.193 2.659-1.777 2.659z"/></g><g clip-path="url(#af)" transform="matrix(1.33333 0 0 -1.33333 0 302.701)"><path fill="url(#ag)" d="M91.568 91.046a2.888 2.888 0 0 1-2.881-2.877V71.717a2.89 2.89 0 0 1 2.881-2.878h16.459a2.89 2.89 0 0 1 2.881 2.878v16.452a2.887 2.887 0 0 1-2.881 2.877z"/></g><g clip-path="url(#ah)" transform="matrix(1.33333 0 0 -1.33333 0 302.701)"><path fill="url(#ai)" d="M72.667 91.046c-1.584 0-2.382-1.196-1.776-2.657l3.31-6.988c.749-1.395 2.28-1.62 3.4-.503l8.119 8.112c1.121 1.12.741 2.036-.844 2.036z"/></g><g clip-path="url(#aj)" transform="matrix(1.33333 0 0 -1.33333 0 302.701)"><path fill="url(#ak)" d="M159.475 158.903a2.889 2.889 0 0 1-2.88-2.879v-16.449a2.888 2.888 0 0 1 2.88-2.879h16.46a2.888 2.888 0 0 1 2.881 2.879v16.449a2.89 2.89 0 0 1-2.881 2.879z"/></g><g clip-path="url(#al)" transform="matrix(1.33333 0 0 -1.33333 0 302.701)"><path fill="url(#am)" d="m86.191 134.149-18.268-18.242a2.883 2.883 0 0 1 0-4.07l18.268-18.242a2.886 2.886 0 0 1 4.074 0l18.255 18.242a2.884 2.884 0 0 1 0 4.071l-18.255 18.241c-.561.559-1.299.839-2.037.839s-1.477-.28-2.037-.839"/></g><g clip-path="url(#an)" transform="matrix(1.33333 0 0 -1.33333 0 302.701)"><path fill="#888b8d" d="M527.53 133.855h.298c.348 0 .631.116.631.398 0 .249-.183.415-.58.415-.167 0-.284-.017-.35-.034zm-.018-1.544h-.63v2.722c.25.05.597.084 1.045.084.515 0 .748-.083.947-.2a.755.755 0 0 0 .265-.597c0-.3-.232-.531-.564-.631v-.033c.266-.1.415-.3.498-.664.083-.415.133-.581.2-.681h-.682c-.083.1-.132.349-.215.664-.05.299-.216.432-.565.432h-.299zm-1.676 1.427c0-1.212.896-2.175 2.125-2.175 1.195 0 2.075.963 2.075 2.158 0 1.212-.88 2.192-2.092 2.192-1.212 0-2.108-.98-2.108-2.175m4.897 0c0-1.544-1.212-2.756-2.789-2.756-1.56 0-2.806 1.212-2.806 2.756 0 1.511 1.245 2.722 2.806 2.722 1.577 0 2.79-1.21 2.79-2.722"/></g></svg>