<svg xmlns="http://www.w3.org/2000/svg" height="302.70132" width="803.78668">
  <defs>
    <clipPath id="a" clipPathUnits="userSpaceOnUse">
      <path d="M131.22 179.965l-18.268-18.242c-1.121-1.12-1.121-2.951 0-4.071l18.268-18.244c1.121-1.119 2.955-1.119 4.075 0l18.255 18.244c1.119 1.12 1.119 2.951 0 4.071l-18.255 18.242c-.56.559-1.299.839-2.037.839-.739 0-1.477-.28-2.038-.839"/>
    </clipPath>
    <clipPath id="c" clipPathUnits="userSpaceOnUse">
      <path d="M131.22 88.86l-18.268-18.242c-1.121-1.12-1.121-2.95 0-4.071l18.268-18.24c1.121-1.119 2.955-1.119 4.075 0l18.255 18.24c1.119 1.121 1.119 2.951 0 4.071L135.295 88.86c-.56.56-1.299.84-2.037.84-.739 0-1.477-.28-2.038-.84"/>
    </clipPath>
    <clipPath id="e" clipPathUnits="userSpaceOnUse">
      <path d="M176.751 134.469l-18.267-18.242c-1.122-1.122-1.122-2.951 0-4.071l18.267-18.242c1.122-1.121 2.955-1.121 4.075 0l18.255 18.242c1.121 1.12 1.121 2.951 0 4.073l-18.255 18.24c-.56.559-1.298.839-2.037.839-.738 0-1.477-.28-2.038-.839"/>
    </clipPath>
    <clipPath id="g" clipPathUnits="userSpaceOnUse">
      <path d="M108.372 66.193l-8.118-8.111c-1.12-1.119-.896-2.65.501-3.398l6.992-3.305c1.465-.607 2.661.191 2.661 1.773V65.35c0 .97-.342 1.487-.864 1.487-.332 0-.737-.209-1.172-.644"/>
    </clipPath>
    <clipPath id="i" clipPathUnits="userSpaceOnUse">
      <path d="M156.095 65.35V53.152c0-1.582 1.197-2.38 2.66-1.773l6.992 3.305c1.396.748 1.621 2.279.502 3.398l-8.118 8.111c-.435.435-.84.644-1.172.644-.522 0-.864-.517-.864-1.487"/>
    </clipPath>
    <clipPath id="k" clipPathUnits="userSpaceOnUse">
      <path d="M158.976 91.365c-1.586 0-2.881-1.295-2.881-2.877V72.037c0-1.58 1.295-2.879 2.881-2.879h16.458c1.584 0 2.881 1.299 2.881 2.879v16.451c0 1.582-1.297 2.877-2.881 2.877z"/>
    </clipPath>
    <clipPath id="m" clipPathUnits="userSpaceOnUse">
      <path d="M189.401 147.164l-8.117-8.113c-1.119-1.12-.74-2.035.844-2.035h12.207c1.584 0 2.382 1.195 1.778 2.659l-3.311 6.987c-.429.798-1.114 1.213-1.831 1.213-.536 0-1.091-.233-1.57-.711"/>
    </clipPath>
    <clipPath id="o" clipPathUnits="userSpaceOnUse">
      <path d="M156.095 175.228v-12.197c0-1.584.915-1.963 2.036-.844l8.118 8.114c1.119 1.119.894 2.648-.5 3.396l-6.994 3.307c-.333.138-.652.203-.946.203-.999 0-1.714-.755-1.714-1.979"/>
    </clipPath>
    <clipPath id="q" clipPathUnits="userSpaceOnUse">
      <path d="M73.7 146.662l-3.308-6.988c-.608-1.463.191-2.658 1.775-2.658h12.209c1.585 0 1.965.915.844 2.035l-8.12 8.113c-.478.479-1.032.711-1.568.711-.717 0-1.402-.415-1.832-1.213"/>
    </clipPath>
    <clipPath id="s" clipPathUnits="userSpaceOnUse">
      <path d="M91.067 159.223c-1.584 0-2.88-1.297-2.88-2.88v-16.449c0-1.584 1.296-2.878 2.88-2.878h16.46c1.585 0 2.881 1.294 2.881 2.878v16.449c0 1.583-1.296 2.88-2.881 2.88z"/>
    </clipPath>
    <clipPath id="u" clipPathUnits="userSpaceOnUse">
      <path d="M107.747 177.004l-6.992-3.307c-1.397-.748-1.621-2.277-.501-3.396l8.118-8.114c1.12-1.119 2.036-.74 2.036.844v12.197c0 1.224-.714 1.979-1.715 1.979-.294 0-.613-.065-.946-.203"/>
    </clipPath>
    <clipPath id="w" clipPathUnits="userSpaceOnUse">
      <path d="M182.128 91.365c-1.584 0-1.963-.916-.844-2.035l8.117-8.111c1.119-1.119 2.651-.893 3.401.502l3.311 6.986c.604 1.461-.194 2.658-1.778 2.658z"/>
    </clipPath>
    <clipPath id="y" clipPathUnits="userSpaceOnUse">
      <path d="M91.067 91.365c-1.584 0-2.88-1.295-2.88-2.877V72.037c0-1.58 1.296-2.879 2.88-2.879h16.46c1.585 0 2.881 1.299 2.881 2.879v16.451c0 1.582-1.296 2.877-2.881 2.877z"/>
    </clipPath>
    <clipPath id="A" clipPathUnits="userSpaceOnUse">
      <path d="M72.167 91.365c-1.584 0-2.383-1.195-1.775-2.656l3.308-6.988c.75-1.395 2.282-1.621 3.4-.502l8.12 8.111c1.121 1.119.741 2.035-.844 2.035z"/>
    </clipPath>
    <clipPath id="C" clipPathUnits="userSpaceOnUse">
      <path d="M158.976 159.223c-1.586 0-2.881-1.297-2.881-2.88v-16.449c0-1.584 1.295-2.878 2.881-2.878h16.458c1.584 0 2.881 1.294 2.881 2.878v16.449c0 1.583-1.297 2.88-2.881 2.88z"/>
    </clipPath>
    <clipPath id="E" clipPathUnits="userSpaceOnUse">
      <path d="M85.692 134.469l-18.269-18.242c-1.121-1.122-1.121-2.951 0-4.071l18.269-18.242c1.119-1.121 2.953-1.121 4.072 0l18.257 18.242c1.119 1.12 1.119 2.951 0 4.073l-18.257 18.24c-.56.559-1.298.839-2.036.839s-1.477-.28-2.036-.839"/>
    </clipPath>
    <clipPath id="G" clipPathUnits="userSpaceOnUse">
      <path d="M0 227.026h602.84V0H0z"/>
    </clipPath>
    <clipPath id="H" clipPathUnits="userSpaceOnUse">
      <path d="M131.719 179.645l-18.267-18.243c-1.121-1.118-1.121-2.951 0-4.069l18.267-18.244c1.123-1.12 2.956-1.12 4.076 0l18.254 18.244c1.121 1.118 1.121 2.951 0 4.069l-18.254 18.243c-.56.56-1.298.839-2.037.839-.738 0-1.477-.279-2.039-.839"/>
    </clipPath>
    <clipPath id="J" clipPathUnits="userSpaceOnUse">
      <path d="M131.719 88.539l-18.267-18.241c-1.121-1.12-1.121-2.95 0-4.071l18.267-18.24c1.123-1.119 2.956-1.119 4.076 0l18.254 18.24c1.121 1.121 1.121 2.951 0 4.071l-18.254 18.241c-.56.561-1.298.841-2.037.841-.738 0-1.477-.28-2.039-.841"/>
    </clipPath>
    <clipPath id="L" clipPathUnits="userSpaceOnUse">
      <path d="M177.251 134.149l-18.268-18.242c-1.12-1.121-1.12-2.952 0-4.07l18.268-18.242c1.122-1.122 2.955-1.122 4.076 0l18.254 18.242c1.121 1.118 1.121 2.951 0 4.071l-18.254 18.241c-.561.559-1.299.839-2.038.839-.738 0-1.477-.28-2.038-.839"/>
    </clipPath>
    <clipPath id="N" clipPathUnits="userSpaceOnUse">
      <path d="M108.872 65.873l-8.118-8.11c-1.12-1.12-.895-2.651.501-3.398l6.992-3.305c1.465-.608 2.661.191 2.661 1.773V65.03c0 .969-.342 1.487-.864 1.487-.332 0-.736-.209-1.172-.644"/>
    </clipPath>
    <clipPath id="P" clipPathUnits="userSpaceOnUse">
      <path d="M156.595 65.03V52.833c0-1.582 1.197-2.381 2.66-1.773l6.992 3.305c1.397.747 1.621 2.278.502 3.398l-8.118 8.11c-.435.435-.84.644-1.172.644-.522 0-.864-.518-.864-1.487"/>
    </clipPath>
    <clipPath id="R" clipPathUnits="userSpaceOnUse">
      <path d="M159.475 91.046c-1.584 0-2.88-1.295-2.88-2.877V71.717c0-1.579 1.296-2.878 2.88-2.878h16.46c1.584 0 2.881 1.299 2.881 2.878v16.452c0 1.582-1.297 2.877-2.881 2.877z"/>
    </clipPath>
    <clipPath id="T" clipPathUnits="userSpaceOnUse">
      <path d="M189.902 146.844l-8.118-8.113c-1.119-1.119-.74-2.035.844-2.035h12.207c1.584 0 2.383 1.195 1.777 2.66l-3.31 6.987c-.429.797-1.114 1.212-1.83 1.212-.537 0-1.091-.232-1.57-.711"/>
    </clipPath>
    <clipPath id="V" clipPathUnits="userSpaceOnUse">
      <path d="M156.595 174.909v-12.198c0-1.584.916-1.963 2.036-.843l8.118 8.113c1.119 1.119.895 2.648-.5 3.397l-6.994 3.306c-.333.139-.652.204-.946.204-1 0-1.714-.755-1.714-1.979"/>
    </clipPath>
    <clipPath id="X" clipPathUnits="userSpaceOnUse">
      <path d="M74.201 146.343l-3.31-6.989c-.606-1.463.192-2.658 1.776-2.658h12.209c1.585 0 1.965.916.844 2.035l-8.119 8.113c-.479.479-1.034.712-1.57.712-.717 0-1.401-.416-1.83-1.213"/>
    </clipPath>
    <clipPath id="Z" clipPathUnits="userSpaceOnUse">
      <path d="M91.568 158.903c-1.584 0-2.881-1.297-2.881-2.879v-16.449c0-1.584 1.297-2.879 2.881-2.879h16.459c1.585 0 2.881 1.295 2.881 2.879v16.449c0 1.582-1.296 2.879-2.881 2.879z"/>
    </clipPath>
    <clipPath id="ab" clipPathUnits="userSpaceOnUse">
      <path d="M108.247 176.684l-6.992-3.306c-1.396-.749-1.621-2.278-.501-3.397l8.118-8.113c1.121-1.12 2.036-.741 2.036.843v12.198c0 1.224-.715 1.978-1.715 1.978-.294 0-.613-.065-.946-.203"/>
    </clipPath>
    <clipPath id="ad" clipPathUnits="userSpaceOnUse">
      <path d="M182.628 91.046c-1.584 0-1.963-.916-.844-2.036l8.118-8.112c1.118-1.117 2.649-.892 3.4.503l3.31 6.986c.606 1.461-.193 2.659-1.777 2.659z"/>
    </clipPath>
    <clipPath id="af" clipPathUnits="userSpaceOnUse">
      <path d="M91.568 91.046c-1.584 0-2.881-1.295-2.881-2.877V71.717c0-1.579 1.297-2.878 2.881-2.878h16.459c1.585 0 2.881 1.299 2.881 2.878v16.452c0 1.582-1.296 2.877-2.881 2.877z"/>
    </clipPath>
    <clipPath id="ah" clipPathUnits="userSpaceOnUse">
      <path d="M72.667 91.046c-1.584 0-2.382-1.196-1.776-2.657l3.31-6.988c.749-1.395 2.28-1.62 3.4-.503l8.119 8.112c1.121 1.12.741 2.036-.844 2.036z"/>
    </clipPath>
    <clipPath id="aj" clipPathUnits="userSpaceOnUse">
      <path d="M159.475 158.903c-1.584 0-2.88-1.297-2.88-2.879v-16.449c0-1.584 1.296-2.879 2.88-2.879h16.46c1.584 0 2.881 1.295 2.881 2.879v16.449c0 1.582-1.297 2.879-2.881 2.879z"/>
    </clipPath>
    <clipPath id="al" clipPathUnits="userSpaceOnUse">
      <path d="M86.191 134.149l-18.268-18.242c-1.121-1.121-1.121-2.952 0-4.07l18.268-18.242c1.121-1.122 2.953-1.122 4.074 0l18.255 18.242c1.121 1.118 1.121 2.951 0 4.071l-18.255 18.241c-.561.559-1.299.839-2.037.839s-1.477-.28-2.037-.839"/>
    </clipPath>
    <clipPath id="an" clipPathUnits="userSpaceOnUse">
      <path d="M0 227.026h602.84V0H0z"/>
    </clipPath>
    <linearGradient id="b" spreadMethod="pad" gradientTransform="scale(128.80856 -128.80856) rotate(45 2.1386028 .3273976)" gradientUnits="userSpaceOnUse" y2="0" x2="1" y1="0" x1="0">
      <stop offset="0" stop-color="#00b388"/>
      <stop offset=".73696312" stop-color="#00a3e0"/>
      <stop offset="1" stop-color="#00a3e0"/>
    </linearGradient>
    <linearGradient id="d" spreadMethod="pad" gradientTransform="scale(128.80855 -128.80855) rotate(45 1.53488967 .07733362)" gradientUnits="userSpaceOnUse" y2="0" x2="1" y1="0" x1="0">
      <stop offset="0" stop-color="#00b388"/>
      <stop offset=".73696312" stop-color="#00a3e0"/>
      <stop offset="1" stop-color="#00a3e0"/>
    </linearGradient>
    <linearGradient id="f" spreadMethod="pad" gradientTransform="scale(128.80855 -128.80855) rotate(45 2.13884515 .3274911)" gradientUnits="userSpaceOnUse" y2="0" x2="1" y1="0" x1="0">
      <stop offset="0" stop-color="#00b388"/>
      <stop offset=".73696312" stop-color="#00a3e0"/>
      <stop offset="1" stop-color="#00a3e0"/>
    </linearGradient>
    <linearGradient id="h" spreadMethod="pad" gradientTransform="scale(128.81154 -128.81154) rotate(45 1.29722438 -.02112087)" gradientUnits="userSpaceOnUse" y2="0" x2="1" y1="0" x1="0">
      <stop offset="0" stop-color="#00b388"/>
      <stop offset=".73696312" stop-color="#00a3e0"/>
      <stop offset="1" stop-color="#00a3e0"/>
    </linearGradient>
    <linearGradient id="j" spreadMethod="pad" gradientTransform="scale(128.81206 -128.81206) rotate(45 1.63075573 .11702197)" gradientUnits="userSpaceOnUse" y2="0" x2="1" y1="0" x1="0">
      <stop offset="0" stop-color="#00b388"/>
      <stop offset=".73696312" stop-color="#00a3e0"/>
      <stop offset="1" stop-color="#00a3e0"/>
    </linearGradient>
    <linearGradient id="l" spreadMethod="pad" gradientTransform="scale(128.80803 -128.80803) rotate(45 1.83729224 .2025985)" gradientUnits="userSpaceOnUse" y2="0" x2="1" y1="0" x1="0">
      <stop offset="0" stop-color="#00b388"/>
      <stop offset=".73696312" stop-color="#00a3e0"/>
      <stop offset="1" stop-color="#00a3e0"/>
    </linearGradient>
    <linearGradient id="n" spreadMethod="pad" gradientTransform="matrix(91.08 -91.08 -91.08 -91.08 128.50079 200.43002)" gradientUnits="userSpaceOnUse" y2="0" x2="1" y1="0" x1="0">
      <stop offset="0" stop-color="#00b388"/>
      <stop offset=".73696312" stop-color="#00a3e0"/>
      <stop offset="1" stop-color="#00a3e0"/>
    </linearGradient>
    <linearGradient id="p" spreadMethod="pad" gradientTransform="scale(128.80756 -128.80756) rotate(45 2.37701093 .42615048)" gradientUnits="userSpaceOnUse" y2="0" x2="1" y1="0" x1="0">
      <stop offset="0" stop-color="#00b388"/>
      <stop offset=".73696312" stop-color="#00a3e0"/>
      <stop offset="1" stop-color="#00a3e0"/>
    </linearGradient>
    <linearGradient id="r" spreadMethod="pad" gradientTransform="scale(128.8062 -128.8062) rotate(45 1.6303919 .11689203)" gradientUnits="userSpaceOnUse" y2="0" x2="1" y1="0" x1="0">
      <stop offset="0" stop-color="#00b388"/>
      <stop offset=".73696312" stop-color="#00a3e0"/>
      <stop offset="1" stop-color="#00a3e0"/>
    </linearGradient>
    <linearGradient id="t" spreadMethod="pad" gradientTransform="scale(128.8111 -128.8111) rotate(45 1.83691097 .20244939)" gradientUnits="userSpaceOnUse" y2="0" x2="1" y1="0" x1="0">
      <stop offset="0" stop-color="#00b388"/>
      <stop offset=".73696312" stop-color="#00a3e0"/>
      <stop offset="1" stop-color="#00a3e0"/>
    </linearGradient>
    <linearGradient id="v" spreadMethod="pad" gradientTransform="scale(128.8133 -128.8133) rotate(45 2.04338195 .2879841)" gradientUnits="userSpaceOnUse" y2="0" x2="1" y1="0" x1="0">
      <stop offset="0" stop-color="#00b388"/>
      <stop offset=".73696312" stop-color="#00a3e0"/>
      <stop offset="1" stop-color="#00a3e0"/>
    </linearGradient>
    <linearGradient id="x" spreadMethod="pad" gradientTransform="scale(128.79081 -128.79081) rotate(45 2.04408764 .28835147)" gradientUnits="userSpaceOnUse" y2="0" x2="1" y1="0" x1="0">
      <stop offset="0" stop-color="#00b388"/>
      <stop offset=".73696312" stop-color="#00a3e0"/>
      <stop offset="1" stop-color="#00a3e0"/>
    </linearGradient>
    <linearGradient id="z" spreadMethod="pad" gradientTransform="scale(128.81014 -128.81014) rotate(45 1.38728217 .01619519)" gradientUnits="userSpaceOnUse" y2="0" x2="1" y1="0" x1="0">
      <stop offset="0" stop-color="#00b388"/>
      <stop offset=".73696312" stop-color="#00a3e0"/>
      <stop offset="1" stop-color="#00a3e0"/>
    </linearGradient>
    <linearGradient id="B" spreadMethod="pad" gradientTransform="scale(128.8078 -128.8078) rotate(45 1.29714368 -.02114016)" gradientUnits="userSpaceOnUse" y2="0" x2="1" y1="0" x1="0">
      <stop offset="0" stop-color="#00b388"/>
      <stop offset=".73696312" stop-color="#00a3e0"/>
      <stop offset="1" stop-color="#00a3e0"/>
    </linearGradient>
    <linearGradient id="D" spreadMethod="pad" gradientTransform="scale(128.80873 -128.80873) rotate(45 2.28693444 .3888439)" gradientUnits="userSpaceOnUse" y2="0" x2="1" y1="0" x1="0">
      <stop offset="0" stop-color="#00b388"/>
      <stop offset=".73696312" stop-color="#00a3e0"/>
      <stop offset="1" stop-color="#00a3e0"/>
    </linearGradient>
    <linearGradient id="F" spreadMethod="pad" gradientTransform="scale(128.80826 -128.80826) rotate(45 1.53542999 .07755714)" gradientUnits="userSpaceOnUse" y2="0" x2="1" y1="0" x1="0">
      <stop offset="0" stop-color="#00b388"/>
      <stop offset=".73696312" stop-color="#00a3e0"/>
      <stop offset="1" stop-color="#00a3e0"/>
    </linearGradient>
    <linearGradient id="I" spreadMethod="pad" gradientTransform="scale(128.80856 -128.80856) rotate(45 2.13754671 .33332464)" gradientUnits="userSpaceOnUse" y2="0" x2="1" y1="0" x1="0">
      <stop offset="0" stop-color="#00b381"/>
      <stop offset=".73696312" stop-color="#28c2ec"/>
      <stop offset="1" stop-color="#28c2ec"/>
    </linearGradient>
    <linearGradient id="K" spreadMethod="pad" gradientTransform="scale(128.80855 -128.80855) rotate(45 1.53383368 .08326062)" gradientUnits="userSpaceOnUse" y2="0" x2="1" y1="0" x1="0">
      <stop offset="0" stop-color="#00b381"/>
      <stop offset=".73696312" stop-color="#28c2ec"/>
      <stop offset="1" stop-color="#28c2ec"/>
    </linearGradient>
    <linearGradient id="M" spreadMethod="pad" gradientTransform="scale(128.80855 -128.80855) rotate(45 2.13778916 .3334181)" gradientUnits="userSpaceOnUse" y2="0" x2="1" y1="0" x1="0">
      <stop offset="0" stop-color="#00b381"/>
      <stop offset=".73696312" stop-color="#28c2ec"/>
      <stop offset="1" stop-color="#28c2ec"/>
    </linearGradient>
    <linearGradient id="O" spreadMethod="pad" gradientTransform="scale(128.81154 -128.81154) rotate(45 1.29616832 -.01519396)" gradientUnits="userSpaceOnUse" y2="0" x2="1" y1="0" x1="0">
      <stop offset="0" stop-color="#00b381"/>
      <stop offset=".73696312" stop-color="#28c2ec"/>
      <stop offset="1" stop-color="#28c2ec"/>
    </linearGradient>
    <linearGradient id="Q" spreadMethod="pad" gradientTransform="scale(128.81206 -128.81206) rotate(45 1.62969977 .12294881)" gradientUnits="userSpaceOnUse" y2="0" x2="1" y1="0" x1="0">
      <stop offset="0" stop-color="#00b381"/>
      <stop offset=".73696312" stop-color="#28c2ec"/>
      <stop offset="1" stop-color="#28c2ec"/>
    </linearGradient>
    <linearGradient id="S" spreadMethod="pad" gradientTransform="scale(128.80803 -128.80803) rotate(45 1.83623615 .20852556)" gradientUnits="userSpaceOnUse" y2="0" x2="1" y1="0" x1="0">
      <stop offset="0" stop-color="#00b381"/>
      <stop offset=".73696312" stop-color="#28c2ec"/>
      <stop offset="1" stop-color="#28c2ec"/>
    </linearGradient>
    <linearGradient id="U" spreadMethod="pad" gradientTransform="matrix(91.08 -91.08 -91.08 -91.08 129.00079 200.11023)" gradientUnits="userSpaceOnUse" y2="0" x2="1" y1="0" x1="0">
      <stop offset="0" stop-color="#00b381"/>
      <stop offset=".73696312" stop-color="#28c2ec"/>
      <stop offset="1" stop-color="#28c2ec"/>
    </linearGradient>
    <linearGradient id="W" spreadMethod="pad" gradientTransform="scale(128.80756 -128.80756) rotate(45 2.37595483 .43207757)" gradientUnits="userSpaceOnUse" y2="0" x2="1" y1="0" x1="0">
      <stop offset="0" stop-color="#00b381"/>
      <stop offset=".73696312" stop-color="#28c2ec"/>
      <stop offset="1" stop-color="#28c2ec"/>
    </linearGradient>
    <linearGradient id="Y" spreadMethod="pad" gradientTransform="scale(128.8062 -128.8062) rotate(45 1.62933588 .12281914)" gradientUnits="userSpaceOnUse" y2="0" x2="1" y1="0" x1="0">
      <stop offset="0" stop-color="#00b381"/>
      <stop offset=".73696312" stop-color="#28c2ec"/>
      <stop offset="1" stop-color="#28c2ec"/>
    </linearGradient>
    <linearGradient id="aa" spreadMethod="pad" gradientTransform="scale(128.8111 -128.8111) rotate(45 1.835855 .20837627)" gradientUnits="userSpaceOnUse" y2="0" x2="1" y1="0" x1="0">
      <stop offset="0" stop-color="#00b381"/>
      <stop offset=".73696312" stop-color="#28c2ec"/>
      <stop offset="1" stop-color="#28c2ec"/>
    </linearGradient>
    <linearGradient id="ac" spreadMethod="pad" gradientTransform="scale(128.8133 -128.8133) rotate(45 2.0423259 .29391092)" gradientUnits="userSpaceOnUse" y2="0" x2="1" y1="0" x1="0">
      <stop offset="0" stop-color="#00b381"/>
      <stop offset=".73696312" stop-color="#28c2ec"/>
      <stop offset="1" stop-color="#28c2ec"/>
    </linearGradient>
    <linearGradient id="ae" spreadMethod="pad" gradientTransform="scale(128.79081 -128.79081) rotate(45 2.0430315 .29427929)" gradientUnits="userSpaceOnUse" y2="0" x2="1" y1="0" x1="0">
      <stop offset="0" stop-color="#00b381"/>
      <stop offset=".73696312" stop-color="#28c2ec"/>
      <stop offset="1" stop-color="#28c2ec"/>
    </linearGradient>
    <linearGradient id="ag" spreadMethod="pad" gradientTransform="scale(128.81014 -128.81014) rotate(45 1.3862261 .02212215)" gradientUnits="userSpaceOnUse" y2="0" x2="1" y1="0" x1="0">
      <stop offset="0" stop-color="#00b381"/>
      <stop offset=".73696312" stop-color="#28c2ec"/>
      <stop offset="1" stop-color="#28c2ec"/>
    </linearGradient>
    <linearGradient id="ai" spreadMethod="pad" gradientTransform="scale(128.8078 -128.8078) rotate(45 1.29608768 -.01521312)" gradientUnits="userSpaceOnUse" y2="0" x2="1" y1="0" x1="0">
      <stop offset="0" stop-color="#00b381"/>
      <stop offset=".73696312" stop-color="#28c2ec"/>
      <stop offset="1" stop-color="#28c2ec"/>
    </linearGradient>
    <linearGradient id="ak" spreadMethod="pad" gradientTransform="scale(128.80873 -128.80873) rotate(45 2.28587836 .39477094)" gradientUnits="userSpaceOnUse" y2="0" x2="1" y1="0" x1="0">
      <stop offset="0" stop-color="#00b381"/>
      <stop offset=".73696312" stop-color="#28c2ec"/>
      <stop offset="1" stop-color="#28c2ec"/>
    </linearGradient>
    <linearGradient id="am" spreadMethod="pad" gradientTransform="scale(128.80826 -128.80826) rotate(45 1.5343738 .08348424)" gradientUnits="userSpaceOnUse" y2="0" x2="1" y1="0" x1="0">
      <stop offset="0" stop-color="#00b381"/>
      <stop offset=".73696312" stop-color="#28c2ec"/>
      <stop offset="1" stop-color="#28c2ec"/>
    </linearGradient>
  </defs>
  <g clip-path="url(#a)" transform="matrix(1.33333 0 0 -1.33333 0 302.70133)">
    <path d="M131.22 179.965l-18.268-18.242c-1.121-1.12-1.121-2.951 0-4.071l18.268-18.244c1.121-1.119 2.955-1.119 4.075 0l18.255 18.244c1.119 1.12 1.119 2.951 0 4.071l-18.255 18.242c-.56.559-1.299.839-2.037.839-.739 0-1.477-.28-2.038-.839" fill="url(#b)"/>
  </g>
  <g clip-path="url(#c)" transform="matrix(1.33333 0 0 -1.33333 0 302.70133)">
    <path d="M131.22 88.86l-18.268-18.242c-1.121-1.12-1.121-2.95 0-4.071l18.268-18.24c1.121-1.119 2.955-1.119 4.075 0l18.255 18.24c1.119 1.121 1.119 2.951 0 4.071L135.295 88.86c-.56.56-1.299.84-2.037.84-.739 0-1.477-.28-2.038-.84" fill="url(#d)"/>
  </g>
  <g clip-path="url(#e)" transform="matrix(1.33333 0 0 -1.33333 0 302.70133)">
    <path d="M176.751 134.469l-18.267-18.242c-1.122-1.122-1.122-2.951 0-4.071l18.267-18.242c1.122-1.121 2.955-1.121 4.075 0l18.255 18.242c1.121 1.12 1.121 2.951 0 4.073l-18.255 18.24c-.56.559-1.298.839-2.037.839-.738 0-1.477-.28-2.038-.839" fill="url(#f)"/>
  </g>
  <g clip-path="url(#g)" transform="matrix(1.33333 0 0 -1.33333 0 302.70133)">
    <path d="M108.372 66.193l-8.118-8.111c-1.12-1.119-.896-2.65.501-3.398l6.992-3.305c1.465-.607 2.661.191 2.661 1.773V65.35c0 .97-.342 1.487-.864 1.487-.332 0-.737-.209-1.172-.644" fill="url(#h)"/>
  </g>
  <g clip-path="url(#i)" transform="matrix(1.33333 0 0 -1.33333 0 302.70133)">
    <path d="M156.095 65.35V53.152c0-1.582 1.197-2.38 2.66-1.773l6.992 3.305c1.396.748 1.621 2.279.502 3.398l-8.118 8.111c-.435.435-.84.644-1.172.644-.522 0-.864-.517-.864-1.487" fill="url(#j)"/>
  </g>
  <g clip-path="url(#k)" transform="matrix(1.33333 0 0 -1.33333 0 302.70133)">
    <path d="M158.976 91.365c-1.586 0-2.881-1.295-2.881-2.877V72.037c0-1.58 1.295-2.879 2.881-2.879h16.458c1.584 0 2.881 1.299 2.881 2.879v16.451c0 1.582-1.297 2.877-2.881 2.877z" fill="url(#l)"/>
  </g>
  <g clip-path="url(#m)" transform="matrix(1.33333 0 0 -1.33333 0 302.70133)">
    <path d="M189.401 147.164l-8.117-8.113c-1.119-1.12-.74-2.035.844-2.035h12.207c1.584 0 2.382 1.195 1.778 2.659l-3.311 6.987c-.429.798-1.114 1.213-1.831 1.213-.536 0-1.091-.233-1.57-.711" fill="url(#n)"/>
  </g>
  <g clip-path="url(#o)" transform="matrix(1.33333 0 0 -1.33333 0 302.70133)">
    <path d="M156.095 175.228v-12.197c0-1.584.915-1.963 2.036-.844l8.118 8.114c1.119 1.119.894 2.648-.5 3.396l-6.994 3.307c-.333.138-.652.203-.946.203-.999 0-1.714-.755-1.714-1.979" fill="url(#p)"/>
  </g>
  <g clip-path="url(#q)" transform="matrix(1.33333 0 0 -1.33333 0 302.70133)">
    <path d="M73.7 146.662l-3.308-6.988c-.608-1.463.191-2.658 1.775-2.658h12.209c1.585 0 1.965.915.844 2.035l-8.12 8.113c-.478.479-1.032.711-1.568.711-.717 0-1.402-.415-1.832-1.213" fill="url(#r)"/>
  </g>
  <g clip-path="url(#s)" transform="matrix(1.33333 0 0 -1.33333 0 302.70133)">
    <path d="M91.067 159.223c-1.584 0-2.88-1.297-2.88-2.88v-16.449c0-1.584 1.296-2.878 2.88-2.878h16.46c1.585 0 2.881 1.294 2.881 2.878v16.449c0 1.583-1.296 2.88-2.881 2.88z" fill="url(#t)"/>
  </g>
  <g clip-path="url(#u)" transform="matrix(1.33333 0 0 -1.33333 0 302.70133)">
    <path d="M107.747 177.004l-6.992-3.307c-1.397-.748-1.621-2.277-.501-3.396l8.118-8.114c1.12-1.119 2.036-.74 2.036.844v12.197c0 1.224-.714 1.979-1.715 1.979-.294 0-.613-.065-.946-.203" fill="url(#v)"/>
  </g>
  <g clip-path="url(#w)" transform="matrix(1.33333 0 0 -1.33333 0 302.70133)">
    <path d="M182.128 91.365c-1.584 0-1.963-.916-.844-2.035l8.117-8.111c1.119-1.119 2.651-.893 3.401.502l3.311 6.986c.604 1.461-.194 2.658-1.778 2.658z" fill="url(#x)"/>
  </g>
  <g clip-path="url(#y)" transform="matrix(1.33333 0 0 -1.33333 0 302.70133)">
    <path d="M91.067 91.365c-1.584 0-2.88-1.295-2.88-2.877V72.037c0-1.58 1.296-2.879 2.88-2.879h16.46c1.585 0 2.881 1.299 2.881 2.879v16.451c0 1.582-1.296 2.877-2.881 2.877z" fill="url(#z)"/>
  </g>
  <g clip-path="url(#A)" transform="matrix(1.33333 0 0 -1.33333 0 302.70133)">
    <path d="M72.167 91.365c-1.584 0-2.383-1.195-1.775-2.656l3.308-6.988c.75-1.395 2.282-1.621 3.4-.502l8.12 8.111c1.121 1.119.741 2.035-.844 2.035z" fill="url(#B)"/>
  </g>
  <g clip-path="url(#C)" transform="matrix(1.33333 0 0 -1.33333 0 302.70133)">
    <path d="M158.976 159.223c-1.586 0-2.881-1.297-2.881-2.88v-16.449c0-1.584 1.295-2.878 2.881-2.878h16.458c1.584 0 2.881 1.294 2.881 2.878v16.449c0 1.583-1.297 2.88-2.881 2.88z" fill="url(#D)"/>
  </g>
  <g clip-path="url(#E)" transform="matrix(1.33333 0 0 -1.33333 0 302.70133)">
    <path d="M85.692 134.469l-18.269-18.242c-1.121-1.122-1.121-2.951 0-4.071l18.269-18.242c1.119-1.121 2.953-1.121 4.072 0l18.257 18.242c1.119 1.12 1.119 2.951 0 4.073l-18.257 18.24c-.56.559-1.298.839-2.036.839s-1.477-.28-2.036-.839" fill="url(#F)"/>
  </g>
  <g clip-path="url(#G)" transform="matrix(1.33333 0 0 -1.33333 0 302.70133)">
    <path d="M434.7666 137.8887c-5.387 0-7.812-1.482-12.795-7.41v2.56c0 3.098-.404 3.502-3.504 3.502h-2.556c-3.098 0-3.504-.404-3.504-3.502v-48.894c0-3.098.406-3.502 3.504-3.502h2.556c3.1 0 3.504.404 3.504 3.502v25.996c0 6.736.674 10.775 2.156 13.469 2.043 3.716 6.498 5.582 10.619 5.008.961-.133 1.811-.458 2.725-.764.34-.113.733-.199 1.068-.051.344.15.616.422.844.715.545.701.901 1.547 1.315 2.328.265.504.531 1.006.802 1.52.541 1.078.946 1.884.946 2.289.132 1.752-3.504 3.234-7.68 3.234M264.5596 137.8887c-5.387 0-7.812-1.482-12.795-7.41v2.56c0 3.098-.404 3.502-3.504 3.502h-2.558c-3.098 0-3.502-.404-3.502-3.502v-48.894c0-3.098.404-3.502 3.502-3.502h2.558c3.1 0 3.504.404 3.504 3.502v25.996c0 6.736.672 10.775 2.154 13.469 2.043 3.716 6.5 5.582 10.62 5.008.96-.133 1.812-.458 2.726-.764.338-.113.731-.199 1.068-.051.342.15.616.422.842.715.547.701.903 1.547 1.315 2.328.265.504.533 1.006.804 1.52.539 1.078.944 1.884.944 2.289.134 1.752-3.502 3.234-7.678 3.234M292.2627 103.9453c0-5.252.539-8.082 1.75-10.508 1.885-3.502 6.062-5.656 10.91-5.656 4.715 0 8.889 2.154 10.776 5.656 1.212 2.426 1.751 5.256 1.751 10.508v29.094c0 3.097.405 3.502 3.502 3.502h2.559c3.1 0 3.502-.405 3.502-3.502v-30.172c0-8.217-1.346-12.662-5.117-16.836-4.041-4.58-10.104-7.004-16.973-7.004-7.006 0-13.064 2.424-17.105 7.004-3.772 4.174-5.119 8.619-5.119 16.836v30.172c0 3.097.404 3.502 3.502 3.502h2.558c3.1 0 3.504-.405 3.504-3.502zM351.5889 108.6601c0-12.393 7.68-20.879 18.725-20.879 10.64 0 18.318 8.891 18.318 21.149 0 11.312-7.947 20.068-18.453 20.068-10.91 0-18.59-8.352-18.59-20.338m.676 19.934c5.521 6.33 11.449 9.16 19.529 9.16 15.356 0 26.67-12.258 26.67-29.094 0-17.107-11.449-29.633-26.939-29.633-7.811 0-14.008 2.963-19.26 9.291v-4.174c0-3.097-.405-3.502-3.504-3.502h-2.557c-3.099 0-3.504.405-3.504 3.502v91.19c0 3.097.405 3.5 3.504 3.5h2.557c3.099 0 3.504-.403 3.504-3.5zM464.4912 84.1445c0-3.098-.404-3.502-3.504-3.502h-2.56c-3.096 0-3.5.404-3.5 3.502v48.895c0 3.097.404 3.501 3.5 3.501h2.56c3.1 0 3.504-.404 3.504-3.501zm2.154 73.543c0-3.772-3.097-6.869-6.869-6.869-3.771 0-6.869 3.097-6.869 7.004 0 3.636 3.098 6.734 6.869 6.734 3.772 0 6.869-3.098 6.869-6.869M510.4834 134.9238c1.615 1.617 1.615 1.617 3.906 1.617h4.176c2.424 0 3.367-.674 3.367-2.154 0-.539-.539-1.348-1.615-2.426l-19.264-19.262 24.379-27.476c.946-1.211 1.485-2.022 1.485-2.559 0-1.347-1.079-2.021-3.504-2.021h-4.174c-2.426 0-2.426 0-3.906 1.752l-21.014 23.705-2.424-2.424v-19.531c0-3.098-.404-3.502-3.5-3.502h-2.56c-3.1 0-3.504.404-3.504 3.502v91.189c0 3.098.404 3.5 3.504 3.5h2.56c3.096 0 3.5-.402 3.5-3.5v-59.402z" fill="#888b8d"/>
  </g>
  <g clip-path="url(#H)" transform="matrix(1.33333 0 0 -1.33333 0 302.70133)">
    <path d="M131.719 179.645l-18.267-18.243c-1.121-1.118-1.121-2.951 0-4.069l18.267-18.244c1.123-1.12 2.956-1.12 4.076 0l18.254 18.244c1.121 1.118 1.121 2.951 0 4.069l-18.254 18.243c-.56.56-1.298.839-2.037.839-.738 0-1.477-.279-2.039-.839" fill="url(#I)"/>
  </g>
  <g clip-path="url(#J)" transform="matrix(1.33333 0 0 -1.33333 0 302.70133)">
    <path d="M131.719 88.539l-18.267-18.241c-1.121-1.12-1.121-2.95 0-4.071l18.267-18.24c1.123-1.119 2.956-1.119 4.076 0l18.254 18.24c1.121 1.121 1.121 2.951 0 4.071l-18.254 18.241c-.56.561-1.298.841-2.037.841-.738 0-1.477-.28-2.039-.841" fill="url(#K)"/>
  </g>
  <g clip-path="url(#L)" transform="matrix(1.33333 0 0 -1.33333 0 302.70133)">
    <path d="M177.251 134.149l-18.268-18.242c-1.12-1.121-1.12-2.952 0-4.07l18.268-18.242c1.122-1.122 2.955-1.122 4.076 0l18.254 18.242c1.121 1.118 1.121 2.951 0 4.071l-18.254 18.241c-.561.559-1.299.839-2.038.839-.738 0-1.477-.28-2.038-.839" fill="url(#M)"/>
  </g>
  <g clip-path="url(#N)" transform="matrix(1.33333 0 0 -1.33333 0 302.70133)">
    <path d="M108.872 65.873l-8.118-8.11c-1.12-1.12-.895-2.651.501-3.398l6.992-3.305c1.465-.608 2.661.191 2.661 1.773V65.03c0 .969-.342 1.487-.864 1.487-.332 0-.736-.209-1.172-.644" fill="url(#O)"/>
  </g>
  <g clip-path="url(#P)" transform="matrix(1.33333 0 0 -1.33333 0 302.70133)">
    <path d="M156.595 65.03V52.833c0-1.582 1.197-2.381 2.66-1.773l6.992 3.305c1.397.747 1.621 2.278.502 3.398l-8.118 8.11c-.435.435-.84.644-1.172.644-.522 0-.864-.518-.864-1.487" fill="url(#Q)"/>
  </g>
  <g clip-path="url(#R)" transform="matrix(1.33333 0 0 -1.33333 0 302.70133)">
    <path d="M159.475 91.046c-1.584 0-2.88-1.295-2.88-2.877V71.717c0-1.579 1.296-2.878 2.88-2.878h16.46c1.584 0 2.881 1.299 2.881 2.878v16.452c0 1.582-1.297 2.877-2.881 2.877z" fill="url(#S)"/>
  </g>
  <g clip-path="url(#T)" transform="matrix(1.33333 0 0 -1.33333 0 302.70133)">
    <path d="M189.902 146.844l-8.118-8.113c-1.119-1.119-.74-2.035.844-2.035h12.207c1.584 0 2.383 1.195 1.777 2.66l-3.31 6.987c-.429.797-1.114 1.212-1.83 1.212-.537 0-1.091-.232-1.57-.711" fill="url(#U)"/>
  </g>
  <g clip-path="url(#V)" transform="matrix(1.33333 0 0 -1.33333 0 302.70133)">
    <path d="M156.595 174.909v-12.198c0-1.584.916-1.963 2.036-.843l8.118 8.113c1.119 1.119.895 2.648-.5 3.397l-6.994 3.306c-.333.139-.652.204-.946.204-1 0-1.714-.755-1.714-1.979" fill="url(#W)"/>
  </g>
  <g clip-path="url(#X)" transform="matrix(1.33333 0 0 -1.33333 0 302.70133)">
    <path d="M74.201 146.343l-3.31-6.989c-.606-1.463.192-2.658 1.776-2.658h12.209c1.585 0 1.965.916.844 2.035l-8.119 8.113c-.479.479-1.034.712-1.57.712-.717 0-1.401-.416-1.83-1.213" fill="url(#Y)"/>
  </g>
  <g clip-path="url(#Z)" transform="matrix(1.33333 0 0 -1.33333 0 302.70133)">
    <path d="M91.568 158.903c-1.584 0-2.881-1.297-2.881-2.879v-16.449c0-1.584 1.297-2.879 2.881-2.879h16.459c1.585 0 2.881 1.295 2.881 2.879v16.449c0 1.582-1.296 2.879-2.881 2.879z" fill="url(#aa)"/>
  </g>
  <g clip-path="url(#ab)" transform="matrix(1.33333 0 0 -1.33333 0 302.70133)">
    <path d="M108.247 176.684l-6.992-3.306c-1.396-.749-1.621-2.278-.501-3.397l8.118-8.113c1.121-1.12 2.036-.741 2.036.843v12.198c0 1.224-.715 1.978-1.715 1.978-.294 0-.613-.065-.946-.203" fill="url(#ac)"/>
  </g>
  <g clip-path="url(#ad)" transform="matrix(1.33333 0 0 -1.33333 0 302.70133)">
    <path d="M182.628 91.046c-1.584 0-1.963-.916-.844-2.036l8.118-8.112c1.118-1.117 2.649-.892 3.4.503l3.31 6.986c.606 1.461-.193 2.659-1.777 2.659z" fill="url(#ae)"/>
  </g>
  <g clip-path="url(#af)" transform="matrix(1.33333 0 0 -1.33333 0 302.70133)">
    <path d="M91.568 91.046c-1.584 0-2.881-1.295-2.881-2.877V71.717c0-1.579 1.297-2.878 2.881-2.878h16.459c1.585 0 2.881 1.299 2.881 2.878v16.452c0 1.582-1.296 2.877-2.881 2.877z" fill="url(#ag)"/>
  </g>
  <g clip-path="url(#ah)" transform="matrix(1.33333 0 0 -1.33333 0 302.70133)">
    <path d="M72.667 91.046c-1.584 0-2.382-1.196-1.776-2.657l3.31-6.988c.749-1.395 2.28-1.62 3.4-.503l8.119 8.112c1.121 1.12.741 2.036-.844 2.036z" fill="url(#ai)"/>
  </g>
  <g clip-path="url(#aj)" transform="matrix(1.33333 0 0 -1.33333 0 302.70133)">
    <path d="M159.475 158.903c-1.584 0-2.88-1.297-2.88-2.879v-16.449c0-1.584 1.296-2.879 2.88-2.879h16.46c1.584 0 2.881 1.295 2.881 2.879v16.449c0 1.582-1.297 2.879-2.881 2.879z" fill="url(#ak)"/>
  </g>
  <g clip-path="url(#al)" transform="matrix(1.33333 0 0 -1.33333 0 302.70133)">
    <path d="M86.191 134.149l-18.268-18.242c-1.121-1.121-1.121-2.952 0-4.07l18.268-18.242c1.121-1.122 2.953-1.122 4.074 0l18.255 18.242c1.121 1.118 1.121 2.951 0 4.071l-18.255 18.241c-.561.559-1.299.839-2.037.839s-1.477-.28-2.037-.839" fill="url(#am)"/>
  </g>
  <g clip-path="url(#an)" transform="matrix(1.33333 0 0 -1.33333 0 302.70133)">
    <path d="M527.5293 133.8545h.299c.348 0 .631.116.631.398 0 .249-.183.415-.581.415-.166 0-.283-.016-.349-.033zm-.017-1.544h-.63v2.723c.249.05.597.083 1.045.083.515 0 .748-.083.947-.2.149-.116.265-.332.265-.597 0-.299-.232-.531-.564-.631v-.033c.266-.1.415-.299.498-.664.083-.415.133-.581.199-.681h-.681c-.083.1-.132.349-.215.664-.05.299-.216.432-.565.432h-.299zm-1.676 1.428c0-1.212.896-2.175 2.125-2.175 1.195 0 2.075.963 2.075 2.158 0 1.212-.88 2.192-2.092 2.192-1.212 0-2.108-.98-2.108-2.175m4.897 0c0-1.544-1.212-2.756-2.789-2.756-1.561 0-2.806 1.212-2.806 2.756 0 1.511 1.245 2.722 2.806 2.722 1.577 0 2.789-1.211 2.789-2.722" fill="#888b8d"/>
  </g>
</svg>
