<svg width="500" height="200" xmlns="http://www.w3.org/2000/svg"><path fill="none" d="M-1-1h502v202H-1z"/><path d="M254.834 134.9c-11.144 0-21.213-1.232-30.182-10.206l11.556-11.554c5.853 5.842 13.466 6.658 18.9 6.658 6.122 0 12.506-2.035 12.506-7.336 0-3.54-1.897-5.987-7.472-6.532l-11.15-1.085c-12.784-1.22-20.665-6.79-20.665-19.854 0-14.67 12.91-22.56 27.326-22.56 11.014 0 20.257 1.907 27.057 8.29l-10.873 11.01c-4.08-3.67-10.34-4.75-16.458-4.75-7.07 0-10.06 3.26-10.06 6.796 0 2.585 1.09 5.577 7.34 6.12l11.16 1.09c13.99 1.357 21.07 8.838 21.07 20.804-.024 15.63-13.358 23.112-30.085 23.112h.02zm53.97-30.736c0 9.112 5.577 15.774 15.505 15.774 7.74 0 11.55-2.175 16.03-6.662l10.744 10.466c-7.205 7.21-14.14 11.16-26.926 11.16-16.72 0-32.763-7.616-32.763-36.313 0-23.12 12.507-36.17 30.86-36.17 19.715 0 30.865 14.42 30.865 33.86v7.88h-44.33.006zm25.31-19.72c-1.912-4.207-5.856-7.337-11.836-7.337-5.99 0-9.926 3.128-11.83 7.336-1.09 2.59-1.49 4.496-1.63 7.627h26.928c-.14-3.133-.538-5.037-1.614-7.627h-.017zm44.45 19.72c0 9.112 5.58 15.774 15.5 15.774 7.75 0 11.56-2.175 16.046-6.662l10.742 10.466c-7.207 7.21-14.144 11.16-26.92 11.16-16.728 0-32.776-7.616-32.776-36.313 0-23.12 12.514-36.17 30.87-36.17 19.714 0 30.866 14.42 30.866 33.86v7.88h-44.33zm25.29-19.72c-1.91-4.207-5.855-7.337-11.83-7.337-5.99 0-9.935 3.128-11.837 7.336-1.09 2.59-1.497 4.496-1.63 7.627h26.926c-.117-3.133-.515-5.037-1.615-7.627h-.016zm73.15 49.643l-17.396-29.52-7.495 8.445v21.073h-17.67v-96.82h17.67v54.938l23.53-28.966H497l-25.297 28.557 27.19 42.293h-21.896.007z"/><circle cx="99.126" cy="100" stroke-width="0" r="98.02" fill="#0D3880"/><path d="M101.426 39.36c0-3.386 2.732-6.13 6.11-6.13a6.128 6.128 0 0 1 6.134 6.13c0 3.372-2.74 6.116-6.134 6.116a6.115 6.115 0 0 1-6.11-6.117zm19.05 20.585a6.754 6.754 0 0 1 13.506 0 6.754 6.754 0 0 1-13.507 0zm-19.05 0a6.11 6.11 0 0 1 6.11-6.12 6.12 6.12 0 0 1 6.134 6.12 6.132 6.132 0 0 1-6.134 6.127c-3.378 0-6.11-2.75-6.11-6.127zm39.334 20.657a7.579 7.579 0 0 1 7.59-7.587 7.568 7.568 0 0 1 7.574 7.587 7.57 7.57 0 0 1-7.575 7.582 7.58 7.58 0 0 1-7.59-7.582zm-20.285-.062a6.752 6.752 0 0 1 6.747-6.755 6.754 6.754 0 0 1 6.76 6.754c0 3.72-3.022 6.74-6.76 6.74a6.751 6.751 0 0 1-6.747-6.75zm-19.05 0c0-3.384 2.733-6.126 6.11-6.126 3.395 0 6.135 2.74 6.135 6.125s-2.74 6.12-6.134 6.12c-3.378 0-6.11-2.74-6.11-6.13zm-18.21 0a5.354 5.354 0 0 1 5.36-5.356c2.97 0 5.36 2.396 5.36 5.355s-2.39 5.35-5.36 5.35a5.36 5.36 0 0 1-5.36-5.36zm-15.177 0c0-2.54 2.054-4.6 4.592-4.6a4.594 4.594 0 0 1 4.588 4.6 4.593 4.593 0 0 1-4.588 4.593 4.593 4.593 0 0 1-4.592-4.594zm-14.47 0c0-2.12 1.71-3.83 3.826-3.83 2.124 0 3.83 1.71 3.83 3.83s-1.706 3.83-3.83 3.83a3.825 3.825 0 0 1-3.827-3.83zm-12.25 0a3.065 3.065 0 0 1 3.07-3.063 3.066 3.066 0 0 1 3.064 3.062c0 1.69-1.38 3.06-3.063 3.06-1.7 0-3.08-1.37-3.08-3.06zm-11.594 0c0-1.274 1.025-2.3 2.297-2.3 1.28 0 2.3 1.026 2.3 2.3a2.289 2.289 0 0 1-2.29 2.294 2.292 2.292 0 0 1-2.297-2.295zm-9.797 0c0-.85.69-1.53 1.54-1.53.837 0 1.517.682 1.517 1.53 0 .843-.68 1.533-1.518 1.533-.85 0-1.54-.69-1.54-1.534zm120.833 20.648a7.59 7.59 0 0 1 7.59-7.586c4.193 0 7.574 3.41 7.574 7.586a7.566 7.566 0 0 1-7.575 7.582 7.577 7.577 0 0 1-7.59-7.582zm-20.285-.063a6.748 6.748 0 0 1 6.747-6.746c3.738 0 6.76 3.01 6.76 6.74a6.76 6.76 0 0 1-6.76 6.76c-3.72 0-6.747-3.03-6.747-6.76zm-19.05 0a6.109 6.109 0 0 1 6.11-6.12 6.119 6.119 0 0 1 6.135 6.12 6.127 6.127 0 0 1-6.134 6.127c-3.378 0-6.11-2.744-6.11-6.127zm-18.21 0a5.353 5.353 0 0 1 5.36-5.355c2.97 0 5.36 2.394 5.36 5.355s-2.39 5.362-5.36 5.362a5.36 5.36 0 0 1-5.36-5.362zm-15.177 0a4.59 4.59 0 1 1 9.18 0 4.595 4.595 0 0 1-4.588 4.595 4.594 4.594 0 0 1-4.592-4.595zm-14.47 0c0-2.12 1.71-3.825 3.826-3.825 2.124 0 3.83 1.706 3.83 3.825s-1.706 3.834-3.83 3.834a3.832 3.832 0 0 1-3.827-3.84zm-12.25 0a3.065 3.065 0 0 1 3.07-3.062 3.066 3.066 0 0 1 3.064 3.062c0 1.694-1.38 3.06-3.063 3.06-1.7 0-3.08-1.366-3.08-3.06zm-11.594 0a2.293 2.293 0 0 1 2.297-2.292 2.29 2.29 0 0 1 2.3 2.292 2.284 2.284 0 0 1-2.29 2.293 2.289 2.289 0 0 1-2.297-2.293zm-9.797 0c0-.847.69-1.534 1.54-1.534.837 0 1.517.69 1.517 1.54s-.68 1.54-1.518 1.54c-.85.003-1.54-.69-1.54-1.537zm141.637.205c0-4.593 3.73-8.313 8.31-8.313 4.587 0 8.302 3.717 8.302 8.312 0 4.58-3.715 8.3-8.303 8.3-4.578 0-8.31-3.72-8.31-8.3zm-20.804 20.447a7.583 7.583 0 0 1 7.59-7.584c4.193 0 7.574 3.397 7.574 7.584a7.573 7.573 0 0 1-7.575 7.587 7.58 7.58 0 0 1-7.59-7.587zm-20.285-.054a6.754 6.754 0 0 1 13.507 0 6.754 6.754 0 0 1-13.507 0zm-19.05 0c0-3.385 2.733-6.13 6.11-6.13a6.126 6.126 0 1 1 .001 12.253 6.118 6.118 0 0 1-6.11-6.123zm-18.21 0a5.363 5.363 0 0 1 5.36-5.366c2.97 0 5.36 2.405 5.36 5.366a5.344 5.344 0 0 1-5.36 5.353c-2.96 0-5.36-2.39-5.36-5.353zm-15.177 0a4.585 4.585 0 0 1 4.592-4.592 4.588 4.588 0 0 1 4.588 4.6c0 2.54-2.056 4.59-4.588 4.59a4.588 4.588 0 0 1-4.592-4.59zm-14.47 0a3.817 3.817 0 0 1 3.826-3.827c2.124 0 3.83 1.7 3.83 3.827a3.822 3.822 0 0 1-3.83 3.823 3.825 3.825 0 0 1-3.827-3.823zm-12.25 0a3.073 3.073 0 0 1 3.07-3.067 3.075 3.075 0 0 1 3.064 3.067 3.069 3.069 0 0 1-3.063 3.065c-1.7 0-3.08-1.373-3.08-3.065zm-11.594 0a2.3 2.3 0 0 1 2.297-2.304c1.28 0 2.3 1.03 2.3 2.3 0 1.26-1.02 2.3-2.29 2.3a2.304 2.304 0 0 1-2.297-2.3zm-9.797 0c0-.846.69-1.54 1.54-1.54.837 0 1.517.694 1.517 1.54 0 .84-.68 1.52-1.518 1.52-.85 0-1.54-.682-1.54-1.52zm100.548 20.59c0-3.732 3.027-6.757 6.747-6.757 3.738 0 6.76 3.025 6.76 6.758s-3.022 6.754-6.76 6.754a6.752 6.752 0 0 1-6.747-6.754zm-19.05 0c0-3.38 2.733-6.137 6.11-6.137a6.137 6.137 0 0 1 6.135 6.138 6.128 6.128 0 0 1-6.134 6.123c-3.378 0-6.11-2.744-6.11-6.123zm0 20.587a6.11 6.11 0 0 1 6.11-6.114c3.395 0 6.135 2.737 6.135 6.113 0 3.38-2.74 6.13-6.134 6.13-3.378 0-6.11-2.75-6.11-6.13z" fill="#fff"/></svg>