<svg xmlns="http://www.w3.org/2000/svg" width="657" height="195" viewBox="0 0 438 130"><path data-name="sequence.work logo" d="M46.5 100.9c0-14.4-4.5-20.2-16.2-23.5l-5-1.4c-6.7-2-8-3.8-8-10.2 0-5.8 2-8.7 6.4-9.2 4.5-.5 6.6 2.4 6.8 8.5a1 1 0 0 0 1.3.9l12.8-3.3a1.4 1.4 0 0 0 1.1-1.5c-.6-13.4-7.6-20.4-22.5-18.8C8.2 44 .7 53 .7 68.4.7 82 5 88 17 91.4l5 1.4c6.4 1.9 8 4.3 8 11.8 0 7.8-2.2 10.4-6.8 10.9-4.9.5-7.1-2.4-7.4-10.2 0-.8-.5-1.1-1.3-1L1 108a1.3 1.3 0 0 0-1 1.5c.2 14.6 7.6 22 23 20.4 16.8-1.8 23.5-11.5 23.5-29zm12 22.8a1 1 0 0 0 1.2 1l37.1-3.8a1.3 1.3 0 0 0 1.3-1.4v-12.3a1 1 0 0 0-1.3-1l-21.2 2.1a.6.6 0 0 1-.8-.6V88.4a.7.7 0 0 1 .8-.8l18.3-2a1.3 1.3 0 0 0 1.3-1.3V72a1 1 0 0 0-1.3-1.1l-18.3 1.9a.6.6 0 0 1-.8-.7V53.6a.7.7 0 0 1 .8-.8l21.2-2.3a1.3 1.3 0 0 0 1.3-1.4V37a1 1 0 0 0-1.3-1.1l-37.1 3.9a1.3 1.3 0 0 0-1.2 1.3v82.7zm101.1-12.8a1.2 1.2 0 0 0 0-1.9l-6.6-5.8c2.4-4.9 3-10.7 3-31.1 0-22-.4-25.4-1.7-29.1-3.2-9-10.6-13.3-21.8-12.1s-18.6 7-21.7 16.7c-1.4 4-1.8 7.5-1.8 29.4s.4 25.4 1.8 29.1c3.1 9.1 10.6 13.3 21.7 12.1 5.4-.5 9.3-1.8 12.5-4.5l5.6 5.3a1.3 1.3 0 0 0 2-.1zm-25.2-7.5l-1 .1c-3.9.5-6.2-1.2-7-3.5-.6-2-.9-4-.9-24.7s.3-23 1-25a7 7 0 0 1 6.2-4.8c3.2-.3 5.5 1.2 6.2 3.5.6 2 1 4.1 1 24.8v20.1h-.2l-3-2.5a1.1 1.1 0 0 0-1.8.3l-5.1 6.2a1.2 1.2 0 0 0 0 1.7zm57.7 8.6c14.3-1.5 23-10.6 23-26.6V24.6a1 1 0 0 0-1.2-1.2l-14 1.5a1.3 1.3 0 0 0-1.2 1.4V89c0 4.5-2.3 7.7-6.6 8.1-4.1.4-6.5-2.2-6.5-6.7V27.7a1 1 0 0 0-1.2-1.2L170.5 28a1.3 1.3 0 0 0-1.2 1.4v60.8c0 16 8.7 23.3 22.8 21.8zm37.4-6.3a1 1 0 0 0 1.2 1l37.1-3.8a1.3 1.3 0 0 0 1.3-1.4V89.2a1 1 0 0 0-1.3-1l-21.2 2.1a.6.6 0 0 1-.8-.6V70.4a.7.7 0 0 1 .8-.8l18.3-2a1.3 1.3 0 0 0 1.3-1.3V54a1 1 0 0 0-1.3-1.1l-18.3 1.9a.6.6 0 0 1-.8-.7V35.6a.7.7 0 0 1 .8-.8l21.2-2.3a1.3 1.3 0 0 0 1.3-1.4V19a1 1 0 0 0-1.3-1.1l-37 3.9a1.3 1.3 0 0 0-1.3 1.3v82.7zm51.8-5.5a1 1 0 0 0 1.3 1.1l11.8-1.2a1.3 1.3 0 0 0 1.3-1.4V45.3l.6-.1L311 97a1.4 1.4 0 0 0 1.8 1l15-1.5a1.3 1.3 0 0 0 1.2-1.4V12.6a1 1 0 0 0-1.2-1.1l-11.9 1.2a1.3 1.3 0 0 0-1.2 1.4v53.4l-.7.1-14-52a1.4 1.4 0 0 0-1.8-1l-15.6 1.6a1.3 1.3 0 0 0-1.3 1.4v82.6zM344 81.8c3 8.9 9.9 13.2 21.1 12 13.7-1.5 21.6-9.6 22.4-24a1.1 1.1 0 0 0-1.1-1.3l-13.1-.9a1.2 1.2 0 0 0-1.4 1.3c-.3 6.8-2.4 9.6-6.5 10-3 .4-4.8-.7-5.6-3.2-.5-1.8-.8-3.3-.8-25s.3-23.2.8-25a6 6 0 0 1 5.6-4.6c4.1-.4 6.2 2 6.5 8.7a1 1 0 0 0 1.4 1l13-3.6a1.5 1.5 0 0 0 1.2-1.6C386.7 11.4 378.8 5 365 6.4c-11.2 1.2-18 7-21 16.4-1.2 3.7-1.7 7.6-1.7 29.7s.5 25.8 1.6 29.3zm54.4 6a1 1 0 0 0 1.2 1.2l37.1-3.9a1.3 1.3 0 0 0 1.3-1.4V71.5a1 1 0 0 0-1.3-1.2l-21.2 2.3a.6.6 0 0 1-.8-.7V52.6a.8.8 0 0 1 .8-.8l18.3-2a1.3 1.3 0 0 0 1.3-1.3V36.2a1 1 0 0 0-1.3-1.1l-18.3 2a.6.6 0 0 1-.8-.7V17.8a.8.8 0 0 1 .8-.8l21.2-2.2a1.3 1.3 0 0 0 1.3-1.4V1a1 1 0 0 0-1.3-1.1l-37 3.9a1.3 1.3 0 0 0-1.3 1.4v82.6z" fill-rule="evenodd"/></svg>