<svg xmlns="http://www.w3.org/2000/svg" width="1313.91" height="390" viewBox="0 0 437.97 130">
  <metadata><?xpacket begin="﻿" id="W5M0MpCehiHzreSzNTczkc9d"?>
<x:xmpmeta xmlns:x="adobe:ns:meta/" x:xmptk="Adobe XMP Core 5.6-c140 79.160451, 2017/05/06-01:08:21        ">
   <rdf:RDF xmlns:rdf="http://www.w3.org/1999/02/22-rdf-syntax-ns#">
      <rdf:Description rdf:about=""/>
   </rdf:RDF>
</x:xmpmeta>
                                                                                                    
                                                                                                    
                                                                                                    
                                                                                                    
                                                                                                    
                                                                                                    
                                                                                                    
                                                                                                    
                                                                                                    
                                                                                                    
                                                                                                    
                                                                                                    
                                                                                                    
                                                                                                    
                                                                                                    
                                                                                                    
                                                                                                    
                                                                                                    
                                                                                                    
                                                                                                    
                           
<?xpacket end="w"?></metadata>
<defs>
    <style>
      .cls-1 {
        fill: #000;
        fill-rule: evenodd;
      }
    </style>
  </defs>
  <path id="SEQUENCE_copy_3" data-name="SEQUENCE copy 3" class="cls-1" d="M1194.49,1111.89c0-14.4-4.5-20.18-16.12-23.47l-5.12-1.46c-6.62-1.93-8-3.79-8-10.17,0-5.76,2.13-8.74,6.5-9.2,4.5-.47,6.62,2.43,6.75,8.55a0.949,0.949,0,0,0,1.37.86l12.74-3.34a1.446,1.446,0,0,0,1.13-1.5c-0.63-13.33-7.62-20.35-22.49-18.79-15.11,1.59-22.48,10.63-22.48,26.03,0,13.64,4.12,19.59,16.11,22.96l5.12,1.46c6.37,1.84,7.87,4.31,7.87,11.82,0,7.76-2.12,10.36-6.74,10.85-4.88.51-7.12-2.38-7.37-10.24,0-.75-0.5-1.08-1.38-0.86l-13.37,3.54a1.32,1.32,0,0,0-.99,1.48c0.25,14.62,7.62,21.98,22.98,20.36C1187.87,1139,1194.49,1129.29,1194.49,1111.89Zm11.99,22.77a1.049,1.049,0,0,0,1.25,1.12l37.1-3.9a1.347,1.347,0,0,0,1.25-1.39v-12.26a1.045,1.045,0,0,0-1.25-1.12l-21.24,2.23a0.593,0.593,0,0,1-.75-0.67v-19.28a0.746,0.746,0,0,1,.75-0.83l18.37-1.93a1.338,1.338,0,0,0,1.25-1.38v-12.27a1.049,1.049,0,0,0-1.25-1.12l-18.37,1.93a0.593,0.593,0,0,1-.75-0.67v-18.53a0.746,0.746,0,0,1,.75-0.83l21.24-2.23a1.347,1.347,0,0,0,1.25-1.39v-12.26a1.049,1.049,0,0,0-1.25-1.12l-37.1,3.9a1.338,1.338,0,0,0-1.25,1.38v82.62Zm101.19-12.78a1.249,1.249,0,0,0,0-1.87l-6.63-5.82c2.38-4.88,3-10.7,3-31.1,0-21.91-.37-25.38-1.75-29.11-3.12-9.06-10.61-13.28-21.73-12.11s-18.62,6.97-21.74,16.68c-1.37,4.03-1.75,7.57-1.75,29.48s0.38,25.37,1.75,29.11c3.12,9.06,10.62,13.27,21.74,12.1,5.37-.56,9.24-1.85,12.49-4.57l5.62,5.3a1.257,1.257,0,0,0,1.88-.08Zm-25.24-7.48-1,.11c-3.87.53-6.24-1.22-6.99-3.52-0.63-1.94-.88-4.04-0.88-24.7s0.25-22.93.88-25a7.016,7.016,0,0,1,6.24-4.79c3.25-.34,5.5,1.18,6.25,3.48,0.62,1.93,1,4.15,1,24.8v20.15l-0.25.03-3-2.56a1.145,1.145,0,0,0-1.75.31l-5.12,6.17a1.207,1.207,0,0,0,0,1.75Zm57.71,8.57c14.25-1.5,22.99-10.55,22.99-26.57v-60.84a1.049,1.049,0,0,0-1.25-1.12l-13.87,1.46a1.337,1.337,0,0,0-1.24,1.38v62.84c0,4.51-2.38,7.64-6.63,8.08-4.12.44-6.49-2.19-6.49-6.7v-62.84a1.049,1.049,0,0,0-1.25-1.12l-13.87,1.46a1.338,1.338,0,0,0-1.25,1.38v60.84C1317.28,1117.24,1326.03,1124.46,1340.14,1122.97Zm37.35-6.31a1.056,1.056,0,0,0,1.25,1.13l37.11-3.91a1.338,1.338,0,0,0,1.25-1.38v-12.27a1.049,1.049,0,0,0-1.25-1.12l-21.24,2.23a0.59,0.59,0,0,1-.75-0.67V1081.4a0.741,0.741,0,0,1,.75-0.83l18.36-1.94a1.338,1.338,0,0,0,1.25-1.38v-12.27a1.049,1.049,0,0,0-1.25-1.12l-18.36,1.93a0.59,0.59,0,0,1-.75-0.67V1046.6a0.746,0.746,0,0,1,.75-0.83l21.24-2.24a1.338,1.338,0,0,0,1.25-1.38v-12.27a1.049,1.049,0,0,0-1.25-1.12l-37.11,3.9a1.347,1.347,0,0,0-1.25,1.39v82.61Zm51.85-5.45a1.049,1.049,0,0,0,1.25,1.12l11.86-1.25a1.338,1.338,0,0,0,1.25-1.38v-53.45l0.63-.07,14.74,51.9a1.39,1.39,0,0,0,1.75,1.07l14.99-1.58a1.338,1.338,0,0,0,1.25-1.38v-82.62a1.049,1.049,0,0,0-1.25-1.12l-11.87,1.25a1.338,1.338,0,0,0-1.25,1.38v53.45l-0.62.07-14.12-51.97a1.378,1.378,0,0,0-1.75-1.06l-15.61,1.64a1.338,1.338,0,0,0-1.25,1.38v82.62Zm62.71-18.37c3,8.83,9.87,13.11,21.11,11.93,13.62-1.44,21.61-9.54,22.36-23.89a1.144,1.144,0,0,0-1.12-1.38l-13.12-.87a1.2,1.2,0,0,0-1.37,1.27c-0.25,6.78-2.38,9.64-6.5,10.07-3,.32-4.75-0.75-5.62-3.29-0.5-1.82-.75-3.3-0.75-24.96s0.25-23.18.75-25.11a5.952,5.952,0,0,1,5.62-4.47c4.12-.44,6.25,1.97,6.5,8.7a0.971,0.971,0,0,0,1.37.99l13.12-3.64a1.462,1.462,0,0,0,1.12-1.62c-0.75-14.19-8.74-20.61-22.36-19.18-11.24,1.19-18.11,6.92-21.11,16.37-1.13,3.75-1.62,7.68-1.62,29.71S1490.92,1089.33,1492.05,1092.84Zm54.34,6.05a1.049,1.049,0,0,0,1.25,1.12l37.1-3.9a1.338,1.338,0,0,0,1.25-1.38v-12.27a1.049,1.049,0,0,0-1.25-1.12l-21.24,2.23a0.593,0.593,0,0,1-.75-0.67v-19.28a0.751,0.751,0,0,1,.75-0.83l18.37-1.93a1.338,1.338,0,0,0,1.25-1.38v-12.27a1.049,1.049,0,0,0-1.25-1.12l-18.37,1.93a0.593,0.593,0,0,1-.75-0.67v-18.53a0.751,0.751,0,0,1,.75-0.83l21.24-2.23a1.338,1.338,0,0,0,1.25-1.38v-12.27a1.049,1.049,0,0,0-1.25-1.12l-37.1,3.9a1.34,1.34,0,0,0-1.25,1.39v82.61Z" transform="translate(-1148.03 -1011)"/>
</svg>
