<svg xmlns="http://www.w3.org/2000/svg" id="Layer_1" data-name="Layer 1" viewBox="0 0 311.23 69"><defs><style>.cls-1{fill:#2f3133}.cls-4{fill:#0085c9}</style></defs><path d="M146.36 47.55a8.34 8.34 0 0 1-3.4 7.16q-3.4 2.49-9.74 2.49A23 23 0 0 1 123 55.27v-5.85A25.11 25.11 0 0 0 133.46 52q6.25 0 6.25-3.77a3 3 0 0 0-.69-2 8.2 8.2 0 0 0-2.28-1.67 39.16 39.16 0 0 0-4.41-2q-5.5-2.13-7.45-4.26a7.89 7.89 0 0 1-1.94-5.53 7.26 7.26 0 0 1 3.3-6.35q3.3-2.26 9-2.26a25.41 25.41 0 0 1 10.63 2.28l-2.19 5.1a23.65 23.65 0 0 0-8.68-2.11q-5.36 0-5.36 3.05A3.07 3.07 0 0 0 131 35a30.75 30.75 0 0 0 6.09 2.85 27.87 27.87 0 0 1 5.73 2.79 8.37 8.37 0 0 1 2.65 2.92 8.46 8.46 0 0 1 .89 3.99ZM180 57h-7V37.41a8.78 8.78 0 0 0-1.44-5.5 5.46 5.46 0 0 0-4.56-1.82q-4.13 0-6.07 2.55T159 41.18V57h-7V12h7v11.07a55.33 55.33 0 0 1-.34 5.93h.43a9.4 9.4 0 0 1 3.8-3.62 12 12 0 0 1 5.68-1.29q11.43 0 11.43 11.84ZM202.17 57.2q-7.43 0-11.62-4.34t-4.19-11.94q0-7.81 3.89-12.27t10.69-4.47q6.31 0 10 3.83c2.44 2.55 3.66 6.07 4.1 10.54V42h-21.71c.1 3.31.93 5.69 2.51 7.35a8.73 8.73 0 0 0 6.65 2.49 24.56 24.56 0 0 0 5.26-.53 28.31 28.31 0 0 0 5.25-1.77V55a21.35 21.35 0 0 1-5 1.67 30.68 30.68 0 0 1-5.83.53ZM200.93 29a6.8 6.8 0 0 0-5.17 2 9.75 9.75 0 0 0-2.32 6h14.46a8.82 8.82 0 0 0-1.9-6 6.5 6.5 0 0 0-5.07-2ZM228 57h-7V12h7ZM252 30h-8v27h-7V30h-5v-3.2l5-2.09v-2q0-5.81 2.73-8.62t8.34-2.8a22.25 22.25 0 0 1 7.24 1.22l-1.84 5.28a16.09 16.09 0 0 0-4.92-.83 4 4 0 0 0-3.46 1.47 7.4 7.4 0 0 0-1.08 4.4V25h8ZM252.61 53a4.44 4.44 0 0 1 1.09-3.23 4.23 4.23 0 0 1 3.17-1.12 4.17 4.17 0 0 1 3.2 1.17 4.47 4.47 0 0 1 1.09 3.18 4.58 4.58 0 0 1-1.11 3.24 4.84 4.84 0 0 1-6.35 0 4.61 4.61 0 0 1-1.09-3.24ZM267.9 16.32a3.75 3.75 0 0 1 1-2.79 3.87 3.87 0 0 1 2.84-1 3.79 3.79 0 0 1 2.78 1 3.75 3.75 0 0 1 1 2.79 3.67 3.67 0 0 1-1 2.72 3.75 3.75 0 0 1-2.78 1 3.84 3.84 0 0 1-2.84-1 3.67 3.67 0 0 1-1-2.72ZM275 57h-7V25h7ZM311.23 40.64q0 7.81-4 12.19t-11.15 4.37a15.27 15.27 0 0 1-7.89-2 13.31 13.31 0 0 1-5.27-5.79 19.72 19.72 0 0 1-1.84-8.76q0-7.75 4-12.1t11.21-4.35q6.91 0 10.95 4.45t3.99 11.99Zm-23.19 0q0 11 8.15 11t8.07-11q0-10.92-8.12-10.92-4.26 0-6.18 2.82t-1.96 8.1Z" class="cls-1"/><path d="M72.5-2.5h19v44h-19z" style="fill:#ff3033" transform="rotate(-90 72 19.5)"/><path d="M22.5 47.5h19v44h-19z" style="fill:#f93" transform="rotate(-90 22 69.5)"/><path d="M75 25v25H50v19h44V25H75z" class="cls-4"/><path d="M47.5 22.5h19v44h-19z" style="fill:#ff6630" transform="rotate(-90 47 44.5)"/><path d="M44 0H0v44h19V19h25V0z" class="cls-4"/></svg>