<svg id="Layer_1" data-name="Layer 1" xmlns="http://www.w3.org/2000/svg" viewBox="0 0 311.23 69"><defs><style>.cls-1{fill:#2f3133;}.cls-2{fill:#ff3033;}.cls-3{fill:#f93;}.cls-4{fill:#0085c9;}.cls-5{fill:#ff6630;}</style></defs><title>shelf_aligned</title><path class="cls-1" d="M156.36,57.55a8.34,8.34,0,0,1-3.4,7.16q-3.4,2.49-9.74,2.49A23,23,0,0,1,133,65.27V59.42A25.11,25.11,0,0,0,143.46,62q6.25,0,6.25-3.77a3,3,0,0,0-.69-2,8.2,8.2,0,0,0-2.28-1.67,39.16,39.16,0,0,0-4.41-2q-5.5-2.13-7.45-4.26a7.89,7.89,0,0,1-1.94-5.53,7.26,7.26,0,0,1,3.3-6.35q3.3-2.26,9-2.26a25.41,25.41,0,0,1,10.63,2.28l-2.19,5.1A23.65,23.65,0,0,0,145,39.43q-5.36,0-5.36,3.05A3.07,3.07,0,0,0,141,45a30.75,30.75,0,0,0,6.09,2.85,27.87,27.87,0,0,1,5.73,2.79,8.37,8.37,0,0,1,2.65,2.92A8.46,8.46,0,0,1,156.36,57.55Z" transform="translate(-10 -10)"/><path class="cls-1" d="M190,67h-7V47.41a8.78,8.78,0,0,0-1.44-5.5A5.46,5.46,0,0,0,177,40.09q-4.13,0-6.07,2.55T169,51.18V67h-7V22h7V33.07a55.33,55.33,0,0,1-.34,5.93h.43a9.4,9.4,0,0,1,3.8-3.62,12,12,0,0,1,5.68-1.29Q190,34.09,190,45.93Z" transform="translate(-10 -10)"/><path class="cls-1" d="M212.17,67.2q-7.43,0-11.62-4.34t-4.19-11.94q0-7.81,3.89-12.27t10.69-4.47q6.31,0,10,3.83c2.44,2.55,3.66,6.07,4.1,10.54V52H203.33c.1,3.31.93,5.69,2.51,7.35a8.73,8.73,0,0,0,6.65,2.49,24.56,24.56,0,0,0,5.26-.53A28.31,28.31,0,0,0,223,59.54V65a21.35,21.35,0,0,1-5,1.67A30.68,30.68,0,0,1,212.17,67.2ZM210.93,39a6.8,6.8,0,0,0-5.17,2,9.75,9.75,0,0,0-2.32,6H217.9a8.82,8.82,0,0,0-1.9-6A6.5,6.5,0,0,0,210.93,39Z" transform="translate(-10 -10)"/><path class="cls-1" d="M238,67h-7V22h7Z" transform="translate(-10 -10)"/><path class="cls-1" d="M262,40h-8V67h-7V40h-5V36.8l5-2.09v-2q0-5.81,2.73-8.62t8.34-2.8a22.25,22.25,0,0,1,7.24,1.22l-1.84,5.28a16.09,16.09,0,0,0-4.92-.83,4,4,0,0,0-3.46,1.47,7.4,7.4,0,0,0-1.08,4.4V35h8Z" transform="translate(-10 -10)"/><path class="cls-1" d="M262.61,63a4.44,4.44,0,0,1,1.09-3.23,4.23,4.23,0,0,1,3.17-1.12,4.17,4.17,0,0,1,3.2,1.17A4.47,4.47,0,0,1,271.16,63a4.58,4.58,0,0,1-1.11,3.24,4.84,4.84,0,0,1-6.35,0A4.61,4.61,0,0,1,262.61,63Z" transform="translate(-10 -10)"/><path class="cls-1" d="M277.9,26.32a3.75,3.75,0,0,1,1-2.79,3.87,3.87,0,0,1,2.84-1,3.79,3.79,0,0,1,2.78,1,3.75,3.75,0,0,1,1,2.79,3.67,3.67,0,0,1-1,2.72,3.75,3.75,0,0,1-2.78,1,3.84,3.84,0,0,1-2.84-1A3.67,3.67,0,0,1,277.9,26.32ZM285,67h-7V35h7Z" transform="translate(-10 -10)"/><path class="cls-1" d="M321.23,50.64q0,7.81-4,12.19T306.08,67.2a15.27,15.27,0,0,1-7.89-2,13.31,13.31,0,0,1-5.27-5.79,19.72,19.72,0,0,1-1.84-8.76q0-7.75,4-12.1t11.21-4.35q6.91,0,10.95,4.45T321.23,50.64Zm-23.19,0q0,11,8.15,11t8.07-11q0-10.92-8.12-10.92-4.26,0-6.18,2.82T298,50.64Z" transform="translate(-10 -10)"/><rect class="cls-2" x="72.5" y="-2.5" width="19" height="44" transform="translate(52.5 91.5) rotate(-90)"/><rect class="cls-3" x="22.5" y="47.5" width="19" height="44" transform="translate(-47.5 91.5) rotate(-90)"/><polygon class="cls-4" points="75 25 75 50 50 50 50 69 93.97 69 94 69 94 25 75 25"/><rect class="cls-5" x="47.5" y="22.5" width="19" height="44" transform="translate(2.5 91.5) rotate(-90)"/><polygon class="cls-4" points="44 0 0 0 0 44 19 44 19 19 44 19 44 0"/></svg>
