<svg xmlns="http://www.w3.org/2000/svg" width="500" height="200"><rect width="100%" height="100%" fill="none"/><desc>Shoes of Prey Logo</desc><g class="currentLayer"><g><path d="M92.17 97.045c0 .92-.127 1.84-.412 2.733-.284.887-.728 1.714-1.33 2.442-.855 1.08-2 1.906-3.43 2.476s-3.175.887-5.24.887c-1.588 0-3.078-.22-4.447-.695-1.395-.444-2.633-1.047-3.712-1.78V95.9c.827 2.635 2 4.508 3.527 5.62 1.523 1.11 3.27 1.68 5.208 1.68.794 0 1.556-.092 2.317-.317.76-.22 1.43-.537 2-.986.568-.41 1.045-.985 1.428-1.648.35-.67.542-1.463.542-2.383 0-1.397-.35-2.542-1.08-3.462-.727-.92-1.62-1.747-2.698-2.475-1.08-.728-2.257-1.396-3.522-2.032-1.27-.635-2.442-1.363-3.52-2.158-1.08-.794-1.967-1.747-2.7-2.858-.73-1.08-1.08-2.443-1.08-4.064 0-1.303.252-2.475.794-3.494.51-1.013 1.238-1.906 2.125-2.634.886-.728 1.938-1.27 3.077-1.65 1.144-.376 2.382-.568 3.685-.568 1.337 0 2.602.192 3.872.602 1.238.41 2.224.92 2.952 1.523v6.254c-.635-2.157-1.62-3.68-2.952-4.632-1.33-.92-2.826-1.397-4.447-1.397-.92 0-1.747.127-2.442.412-.7.285-1.304.668-1.807 1.178-.477.476-.855 1.046-1.145 1.653-.252.603-.41 1.27-.41 1.906 0 1.237.383 2.283 1.11 3.143.73.86 1.655 1.62 2.76 2.29 1.08.667 2.285 1.335 3.588 1.998 1.305.636 2.477 1.397 3.588 2.224 1.08.827 2 1.84 2.76 3.018.69 1.2 1.04 2.656 1.04 4.403zM131.918 100.44c0 .953.093 1.715.285 2.284.19.57.41 1.02.635 1.337.224.285.476.51.695.636.192.093.318.126.41.126h-7.967c.093 0 .224-.033.41-.126.252-.093.51-.285.73-.603.223-.284.442-.728.634-1.33.192-.57.285-1.364.285-2.35V89.87h-17.273v10.543c0 .953.093 1.714.285 2.284.19.57.41 1.02.635 1.336.225.285.476.51.728.635.192.066.318.126.41.126h-8.06c.093 0 .224-.032.41-.126.252-.093.51-.284.762-.602.252-.285.476-.728.668-1.336.19-.57.285-1.364.285-2.35v-22.7c0-.986-.094-1.747-.285-2.316s-.41-1.014-.696-1.33c-.252-.32-.542-.51-.794-.604-.192-.065-.317-.093-.41-.126h8.16c-.094.033-.225.066-.41.126-.226.093-.445.285-.697.603-.252.285-.476.728-.695 1.336-.192.57-.318 1.363-.318 2.348v9.842h17.273v-9.874c0-.986-.093-1.747-.285-2.317-.19-.57-.41-1.014-.668-1.332-.252-.317-.51-.51-.76-.602-.193-.066-.352-.093-.445-.126h8.095c-.094.033-.225.066-.41.126-.226.093-.445.285-.697.602-.224.318-.443.76-.635 1.336-.192.57-.285 1.337-.285 2.317v22.75zM177.734 88.693c0 2.383-.383 4.573-1.11 6.638s-1.81 3.845-3.178 5.368c-1.363 1.522-3.017 2.7-4.95 3.587-1.906.86-4.064 1.304-6.446 1.304-2.257 0-4.288-.412-6.13-1.24-1.84-.826-3.394-1.938-4.697-3.395-1.304-1.43-2.317-3.143-3.018-5.11s-1.08-4.13-1.08-6.478c0-2.415.384-4.633 1.18-6.698.76-2.065 1.84-3.84 3.235-5.368 1.364-1.522 3.018-2.7 4.95-3.554s4.065-1.27 6.414-1.27c2.223 0 4.255.41 6.063 1.237 1.84.827 3.395 1.94 4.666 3.396 1.27 1.43 2.283 3.144 2.984 5.143.767 1.966 1.117 4.124 1.117 6.44zm-3.84 1.08c0-2.126-.283-4.064-.826-5.844-.536-1.78-1.363-3.336-2.415-4.634s-2.316-2.35-3.78-3.078c-1.46-.73-3.142-1.112-4.95-1.112-1.62 0-3.11.318-4.446.92-1.337.603-2.508 1.495-3.46 2.634s-1.683 2.51-2.225 4.064c-.537 1.588-.794 3.335-.794 5.268 0 2.19.285 4.19.86 6.036.57 1.84 1.363 3.428 2.415 4.73 1.046 1.338 2.317 2.35 3.78 3.112 1.46.728 3.11 1.112 4.922 1.112 1.62 0 3.11-.318 4.447-.953 1.336-.637 2.508-1.524 3.428-2.7.953-1.173 1.682-2.575 2.224-4.158.53-1.648.82-3.428.82-5.4zM210.594 104.855H190.91c.094 0 .226-.033.412-.126.252-.094.51-.286.794-.604.252-.317.51-.76.695-1.363.193-.57.286-1.397.286-2.383V77.74c0-.985-.093-1.78-.318-2.35-.22-.57-.443-1.012-.728-1.33-.285-.285-.57-.51-.854-.602-.225-.093-.378-.16-.477-.192h18.92v5.11c-.032-.126-.092-.35-.224-.67-.093-.316-.317-.634-.668-.95-.318-.32-.827-.604-1.462-.828-.635-.225-1.523-.35-2.634-.35h-7.717v11.905h6.446c.762 0 1.365-.093 1.84-.252.445-.158.828-.35 1.08-.568.252-.22.41-.41.51-.636.065-.19.125-.35.158-.443v6.22c0-.06-.033-.19-.126-.41-.093-.19-.252-.41-.51-.668-.25-.224-.6-.443-1.078-.602-.444-.16-1.08-.252-1.84-.252h-6.506v12.608h7.968c.953 0 1.747-.033 2.443-.126.667-.093 1.27-.252 1.78-.51s.92-.602 1.27-1.013c.35-.41.695-.986 1.045-1.65l-.82 5.675zM241.996 97.045c0 .92-.126 1.84-.41 2.733-.285.887-.73 1.714-1.33 2.442-.856 1.08-2 1.906-3.43 2.476-1.43.57-3.176.887-5.235.887-1.588 0-3.077-.22-4.446-.695-1.397-.444-2.634-1.047-3.713-1.78V95.9c.828 2.635 2 4.508 3.528 5.62 1.522 1.11 3.27 1.68 5.208 1.68.794 0 1.555-.092 2.316-.317.762-.22 1.43-.537 2-.986.57-.41 1.045-.985 1.43-1.648.35-.67.54-1.463.54-2.383 0-1.397-.35-2.542-1.078-3.462-.728-.92-1.62-1.747-2.7-2.475s-2.256-1.396-3.527-2.032c-1.27-.635-2.442-1.363-3.527-2.158-1.08-.794-1.966-1.747-2.7-2.858-.728-1.08-1.08-2.443-1.08-4.064 0-1.303.253-2.475.795-3.494.51-1.013 1.238-1.906 2.13-2.634.888-.728 1.94-1.27 3.08-1.65 1.143-.376 2.38-.568 3.684-.568 1.336 0 2.6.192 3.87.602 1.24.41 2.225.92 2.953 1.523v6.254c-.635-2.157-1.62-3.68-2.952-4.632-1.33-.92-2.825-1.397-4.446-1.397-.92 0-1.747.127-2.442.412-.696.285-1.304.668-1.807 1.178-.477.476-.855 1.046-1.145 1.653-.252.603-.41 1.27-.41 1.906 0 1.237.383 2.283 1.11 3.143.73.86 1.655 1.62 2.76 2.29 1.08.667 2.285 1.335 3.588 1.998 1.304.636 2.476 1.397 3.587 2.224 1.08.827 2 1.84 2.76 3.018.658 1.2 1.04 2.656 1.04 4.403zM304.067 88.693c0 2.383-.378 4.573-1.112 6.638-.728 2.066-1.807 3.845-3.176 5.368-1.365 1.522-3.02 2.7-4.952 3.587-1.906.86-4.063 1.304-6.446 1.304-2.256 0-4.288-.412-6.128-1.24-1.84-.826-3.395-1.938-4.7-3.395-1.302-1.43-2.315-3.143-3.016-5.11s-1.08-4.13-1.08-6.478c0-2.415.384-4.633 1.178-6.698.76-2.065 1.84-3.84 3.237-5.368 1.364-1.522 3.05-2.7 4.95-3.554 1.94-.854 4.064-1.27 6.414-1.27 2.223 0 4.255.41 6.062 1.237 1.84.827 3.395 1.94 4.665 3.396 1.27 1.43 2.284 3.144 2.985 5.143.767 1.966 1.117 4.124 1.117 6.44zm-3.844 1.08c0-2.126-.285-4.064-.827-5.844-.537-1.78-1.364-3.336-2.41-4.634s-2.317-2.35-3.78-3.078c-1.46-.73-3.142-1.112-4.95-1.112-1.62 0-3.11.318-4.447.92s-2.51 1.495-3.462 2.634-1.68 2.51-2.223 4.064c-.537 1.588-.794 3.335-.794 5.268 0 2.19.285 4.19.86 6.036.57 1.84 1.364 3.428 2.416 4.73 1.046 1.338 2.316 2.35 3.778 3.112 1.463.728 3.11 1.112 4.924 1.112 1.62 0 3.11-.318 4.447-.953 1.336-.637 2.508-1.524 3.428-2.7.953-1.173 1.68-2.575 2.224-4.158.53-1.648.816-3.428.816-5.4zM335.754 77.362c-.158-.317-.443-.602-.827-.854-.383-.252-.92-.476-1.588-.635-.67-.16-1.523-.225-2.57-.225h-7.49v11.846h6.697c.76 0 1.363-.093 1.84-.252.443-.16.827-.35 1.08-.57.25-.218.41-.41.508-.635.066-.19.126-.35.16-.443v6.22c-.094-.317-.253-.634-.51-.952-.253-.252-.603-.476-1.08-.695-.443-.192-1.11-.318-1.905-.318h-6.73v10.634c0 .953.092 1.715.284 2.29.192.57.41 1.013.668 1.336s.476.51.695.602c.192.093.318.126.41.126h-8.093c.093 0 .224-.033.41-.126.253-.093.51-.285.795-.602.25-.285.508-.73.694-1.304s.285-1.363.285-2.382V77.757c0-.953-.094-1.714-.32-2.284-.218-.57-.442-1.013-.694-1.33-.252-.286-.537-.51-.794-.603s-.444-.192-.537-.225h19.047V78.3c-.153-.335-.28-.62-.438-.938zM389.19 82.44c0 1.27-.226 2.475-.697 3.62-.443 1.144-1.144 2.19-2.097 3.077-.92.887-2.065 1.62-3.428 2.158-1.364.542-2.952.794-4.732.794-.92 0-1.84-.067-2.76-.193-.92-.126-1.62-.252-2.065-.41v9.02c0 .952.094 1.713.286 2.283.19.57.41 1.02.668 1.303s.51.51.76.636c.193.064.32.125.412.125h-7.968c.093 0 .224-.033.41-.126.252-.094.51-.286.762-.604.25-.285.476-.728.668-1.303.19-.57.284-1.33.284-2.317V77.74c0-.985-.093-1.78-.317-2.35-.225-.57-.444-1.012-.696-1.33-.253-.285-.537-.51-.795-.602-.224-.093-.383-.16-.476-.192h11.653c1.68 0 3.143.252 4.414.76 1.27.51 2.316 1.18 3.143 2.033.827.86 1.463 1.84 1.906 2.95s.663 2.257.663 3.43zm-3.94.257c0-.953-.158-1.84-.475-2.733-.318-.855-.76-1.62-1.364-2.257s-1.363-1.144-2.283-1.522c-.92-.378-1.966-.57-3.143-.57h-4.606v13.462c.444.16 1.112.285 2 .383.886.093 1.812.126 2.76.126 1.144 0 2.157-.192 3.05-.537.887-.35 1.62-.855 2.223-1.463s1.047-1.336 1.365-2.19c.317-.8.476-1.72.476-2.7zM419.764 104.855l-6.637-11.112c-.635-1.112-1.27-1.84-1.873-2.19-.603-.35-1.364-.543-2.19-.543h-1.178v9.496c0 .953.093 1.714.285 2.284.192.57.41 1.02.636 1.336.224.318.476.51.728.603l.41.125h-7.967c.093 0 .224-.033.41-.126.252-.094.51-.286.762-.604.25-.285.475-.728.667-1.303.19-.57.284-1.33.284-2.317V77.773c0-.986-.092-1.747-.316-2.35-.22-.57-.444-1.045-.696-1.363s-.536-.51-.794-.602-.41-.16-.51-.192h11.113c1.555 0 2.952.225 4.222.668 1.27.444 2.35 1.046 3.236 1.84s1.588 1.714 2.097 2.76c.477 1.046.73 2.19.73 3.43 0 .952-.16 1.905-.51 2.89-.318.986-.855 1.873-1.556 2.7-.695.827-1.588 1.523-2.667 2.065-1.08.54-2.382.886-3.905 1.018.41.158.827.476 1.27.92.444.443.828.985 1.178 1.588l5.493 9.02c.635 1.013 1.304 1.68 2 2.03.667.32 1.237.544 1.746.67h-6.468zm-.51-22.635c0-.827-.158-1.62-.443-2.415s-.76-1.49-1.362-2.098-1.364-1.11-2.257-1.49c-.886-.382-1.937-.57-3.11-.57h-4.315v13.145h4.316c1.337 0 2.45-.192 3.336-.542s1.654-.855 2.19-1.43c.57-.602.986-1.303 1.238-2.064.285-.822.41-1.65.41-2.536zM457.897 104.855h-19.682c.093 0 .224-.033.41-.126.252-.094.51-.286.795-.604.252-.317.51-.76.695-1.363.192-.57.285-1.397.285-2.383V77.74c0-.985-.093-1.78-.318-2.35-.22-.57-.443-1.012-.728-1.33-.285-.285-.57-.51-.854-.602-.225-.093-.378-.16-.477-.192h18.922v5.11c-.033-.126-.094-.35-.22-.67-.093-.316-.317-.634-.668-.95-.317-.32-.827-.604-1.462-.828-.635-.225-1.522-.35-2.634-.35h-7.716v11.905h6.446c.762 0 1.364-.093 1.84-.252.444-.158.827-.35 1.08-.568.25-.22.41-.41.51-.636.064-.19.125-.35.157-.443v6.22c0-.06-.032-.19-.125-.41-.094-.19-.252-.41-.51-.668-.252-.224-.602-.443-1.08-.602-.442-.16-1.078-.252-1.84-.252h-6.505v12.608h7.968c.953 0 1.747-.033 2.448-.126.67-.093 1.27-.252 1.78-.51s.92-.602 1.27-1.013c.35-.41.696-.986 1.047-1.65l-.833 5.675zM491.994 74.788c0-.602-.158-.985-.476-1.17-.285-.16-.51-.253-.668-.32h7.174c-.093.034-.225.094-.41.193-.253.094-.57.285-.954.603-.378.318-.827.794-1.363 1.43-.51.635-1.08 1.462-1.682 2.508l-7.908 13.56v8.862c0 .952.093 1.714.285 2.283.192.57.41 1.02.635 1.337.225.284.477.51.73.635.19.066.316.126.41.126h-8.095c.093 0 .225-.033.41-.126.253-.093.51-.285.762-.603.252-.284.477-.728.668-1.33.192-.57.285-1.364.285-2.35v-8.828l-7.968-13.713c-.604-1.013-1.146-1.84-1.65-2.443s-.953-1.08-1.33-1.396c-.384-.318-.696-.51-.953-.603-.225-.092-.35-.158-.41-.19h8.57c-.066.032-.126.065-.192.098-.093.033-.225.093-.35.192-.127.093-.253.224-.35.41-.094.192-.127.444-.127.762 0 .35.093.76.318 1.27.19.477.542 1.112.985 1.873l6.256 10.762 5.936-10.258c.542-.92.92-1.65 1.178-2.19.19-.522.284-.998.284-1.382zM42.037 73.485V91.71l-36.42 36.48V73.485h36.42z"/></g></g></svg>