<svg width="50px" height="50px" viewBox="0 0 50 50" version="1.1" xmlns="http://www.w3.org/2000/svg" xmlns:xlink="http://www.w3.org/1999/xlink">
    <!-- Generator: Sketch 51.3 (57544) - http://www.bohemiancoding.com/sketch -->
    <desc>Created with Sketch.</desc>
    <defs></defs>
    <g id="overview" stroke="none" stroke-width="1" fill="none" fill-rule="evenodd">
        <g id="Artboard" transform="translate(-354.000000, -115.000000)" fill-rule="nonzero">
            <g id="item-copy" transform="translate(284.000000, 106.000000)">
                <g id="slack" transform="translate(69.000000, 0.000000)">
                    <g id="Group" transform="translate(1.000000, 9.000000)">
                        <path d="M4.32254296,26.4250725 C2.49534814,26.4393768 0.947520573,25.3243188 0.376813201,23.5839565 C0.355641381,23.5182294 0.335903392,23.4520269 0.317613951,23.3853986 C-0.304310749,21.1566449 0.901624526,18.8250362 3.06306229,18.0784855 L37.7312071,6.18442029 C38.1428446,6.06247098 38.5688378,5.99875959 38.9973394,5.99505797 C40.8730909,5.98007246 42.4634887,7.11965217 43.0481644,8.8967971 L43.1000469,9.06844928 C43.748578,11.3898406 42.1372276,13.4619275 40.2066004,14.126058 C40.2052701,14.1270797 39.8540656,14.2486667 5.73068691,26.1791739 C5.26939837,26.3399275 4.79613695,26.4209855 4.32287554,26.425413 L4.32254296,26.4250725 Z" id="Shape" fill="#70CADB"></path>
                        <path d="M10.1011214,43.8848913 C8.25962563,43.8985145 6.70647678,42.7994638 6.14242101,41.0839638 C6.1210094,41.0185906 6.10104946,40.9527283 6.0825566,40.8864275 C5.4523174,38.6311087 6.65658978,36.2749783 8.82534431,35.5274058 L43.4948194,23.5243551 C43.9424722,23.3710942 44.4054236,23.2927609 44.8703705,23.2883333 C46.716855,23.274029 48.3391805,24.4292754 48.9118833,26.1641884 L48.9650961,26.3446957 C49.3000043,27.5435362 49.1021191,28.8915507 48.4362939,29.9548406 C47.9400844,30.7460072 46.3749627,31.4421522 46.3749627,31.4421522 L11.5737859,43.6277536 C11.0991507,43.7922992 10.6021796,43.8793037 10.1011214,43.8855725 L10.1011214,43.8848913 Z" id="Shape" fill="#E01765"></path>
                        <path d="M38.9610881,43.9605 C37.1176054,43.9788926 35.4721893,42.7796666 34.8853196,40.9899638 L23.3148595,5.79445652 L23.2569906,5.59692029 C22.6300772,3.3525 23.8356799,1.01135507 25.9964525,0.265485507 C26.4288065,0.116652174 26.8757941,0.039 27.325775,0.0349130435 C27.9942609,0.0298043478 28.6411291,0.184086957 29.2504157,0.492311594 C30.2642739,1.00553668 31.0363651,1.91167276 31.3955571,3.00987681 L42.9650194,38.2019783 L42.9982774,38.3150507 C43.6481388,40.6452971 42.4451968,42.9878043 40.2844242,43.7336739 C39.8563936,43.8801232 39.4107364,43.9567536 38.9607556,43.9608406 L38.9610881,43.9605 Z" id="Shape" fill="#E8A723"></path>
                        <path d="M21.7623758,49.888971 C19.9178074,49.9069644 18.2716972,48.7066218 17.6849444,46.9157101 L6.11747751,11.7215652 C5.75550329,10.6249378 5.83440835,9.42589545 6.33678817,8.38891753 C6.83916798,7.35193961 7.72374817,6.56222184 8.7954121,6.19395652 C9.22284378,6.04757473 9.67006346,5.97080472 10.1207436,5.96644928 C11.9645257,5.94791608 13.610259,7.14731517 14.1971773,8.93732609 L25.7649768,44.1328333 C25.7865945,44.1941377 25.8062167,44.2622536 25.8238434,44.3269638 C26.451942,46.5695434 25.2443325,48.920962 23.0840489,49.6618043 C22.6543555,49.8082536 22.2100286,49.8852246 21.7613781,49.888971 L21.7623758,49.888971 Z" id="Shape" fill="#3EB890"></path>
                        <polygon id="Shape" fill="#CC2027" points="33.2570076 36.0348696 41.3247346 33.2101014 38.6873747 25.1894493 30.6103356 27.9849275"></polygon>
                        <polygon id="Shape" fill="#361238" points="16.0849017 42.0474638 24.1516309 39.2230362 21.4943163 31.1410797 13.4192726 33.9372391"></polygon>
                        <polygon id="Shape" fill="#65863A" points="27.5133501 18.5644928 35.5817422 15.743471 32.9753123 7.81647826 24.8919541 10.5898188"></polygon>
                        <polygon id="Shape" fill="#1A937D" points="10.3392487 24.568913 18.4076408 21.7478913 15.7692832 13.7197464 7.68592504 16.4927464 10.3392487 24.5685725"></polygon>
                    </g>
                </g>
            </g>
        </g>
    </g>
</svg>
