<svg xmlns="http://www.w3.org/2000/svg" viewBox="0 0 500 200"><path fill="#7AC143" d="M2.616 120.863c-1.446-.903-2.618-2.53-2.618-4.7 0-3.068 2.344-5.415 5.417-5.415.99 0 1.987.27 2.708.727 4.605 2.89 9.212 4.33 13.096 4.33 3.972 0 5.775-1.44 5.775-3.61v-.183c0-2.98-4.697-3.976-10.025-5.598-6.77-1.987-14.446-5.15-14.446-14.54v-.182c0-9.845 7.947-15.353 17.702-15.353 5.054 0 10.292 1.354 14.99 3.7 1.985.996 3.25 2.8 3.25 5.15 0 3.074-2.438 5.418-5.51 5.418-.992 0-1.625-.183-2.527-.636-3.887-1.893-7.59-3.07-10.476-3.07-3.345 0-5.063 1.45-5.063 3.344v.178c0 2.714 4.61 3.978 9.848 5.782 6.77 2.254 14.63 5.506 14.63 14.354v.184c0 10.746-8.04 15.62-18.512 15.62-5.966.003-12.37-1.71-18.242-5.503zM45.52 83.387c0-3.795 3.067-6.864 6.86-6.864s6.862 3.07 6.862 6.864v.63c3.344-4.512 7.95-7.855 15.085-7.855 11.285 0 22.034 8.847 22.034 25.01v.183c0 16.164-10.563 25.013-22.032 25.013-7.317 0-11.832-3.34-15.085-7.223v14.45c0 3.793-3.07 6.86-6.863 6.86a6.854 6.854 0 0 1-6.86-6.86V83.388zm37.112 17.97v-.185c0-8.03-5.415-13.362-11.827-13.362-6.413 0-11.738 5.332-11.738 13.362v.184c0 8.036 5.324 13.366 11.738 13.366 6.412 0 11.827-5.238 11.827-13.366zm52.97.18v-.18c0-13.908 11.195-25.194 26.278-25.194 14.987 0 26.095 11.107 26.095 25.01v.183c0 13.908-11.198 25.195-26.275 25.195-14.99 0-26.098-11.106-26.098-25.01zm38.833 0v-.18c0-7.136-5.15-13.363-12.735-13.363-7.856 0-12.553 6.047-12.553 13.178v.184c0 7.136 5.146 13.366 12.733 13.366 7.858 0 12.555-6.05 12.555-13.184zm64.023 17.61a6.857 6.857 0 0 1-6.862 6.86 6.859 6.859 0 0 1-6.867-6.86v-.54c-3.16 4.06-7.223 7.762-14.177 7.762-10.383 0-16.435-6.866-16.435-17.97V83.388a6.859 6.859 0 0 1 6.86-6.864c3.795 0 6.86 3.07 6.86 6.864v20.68c0 6.497 3.073 9.842 8.31 9.842 5.24 0 8.58-3.347 8.58-9.843v-20.68a6.86 6.86 0 0 1 6.866-6.865 6.86 6.86 0 0 1 6.862 6.864v35.76zm6.987-7.407V71.014a6.862 6.862 0 0 1 6.862-6.866 6.858 6.858 0 0 1 6.862 6.865v6.05h6.05a5.86 5.86 0 0 1 5.87 5.868c0 3.254-2.62 5.87-5.87 5.87h-6.05v20.683c0 3.157 1.353 4.697 4.424 4.697.45 0 1.355-.092 1.624-.092 3.07 0 5.69 2.528 5.69 5.687 0 2.44-1.628 4.425-3.52 5.15-2.534.998-4.878 1.35-7.86 1.35-8.397 0-14.085-3.335-14.085-14.538z"/><path fill="#535353" d="M299.572 126.37c-6.686 0-14.088-2.62-19.327-6.865l3.518-4.964c5.06 3.794 10.662 5.963 16.17 5.963 5.598 0 9.657-2.892 9.657-7.407v-.178c0-4.697-5.505-6.503-11.643-8.218-7.318-2.08-15.443-4.606-15.443-13.187v-.182c0-8.034 6.683-13.364 15.893-13.364 5.688 0 12.013 1.987 16.795 5.15l-3.16 5.24c-4.334-2.8-9.3-4.523-13.818-4.523-5.506 0-9.027 2.89-9.027 6.778v.18c0 4.423 5.78 6.142 12.007 8.04 7.226 2.164 14.994 4.966 14.994 13.367v.178c0 8.85-7.316 13.995-16.616 13.995zm46.313.18c-13.993 0-24.202-11.015-24.202-24.29s10.295-24.473 24.386-24.473c13.99 0 24.287 11.016 24.287 24.29 0 13.28-10.384 24.474-24.473 24.474zm0-42.626c-10.116 0-17.064 8.042-17.064 18.153 0 10.12 7.408 18.24 17.25 18.24 10.11 0 17.157-8.035 17.157-18.058 0-10.203-7.495-18.337-17.34-18.337zm53.54 42.626c-13.635 0-23.93-11.107-23.93-24.29 0-13.277 10.294-24.473 23.93-24.473 8.852 0 14.36 3.703 18.695 8.308l-4.608 4.875c-3.703-3.88-7.856-7.046-14.175-7.046-9.484 0-16.706 8.042-16.706 18.153 0 10.205 7.406 18.24 17.16 18.24 5.96 0 10.562-2.98 14.267-6.953l4.42 4.156c-4.692 5.238-10.29 9.03-19.052 9.03zm26.18-57.973V60.9h7.95v7.677h-7.95zm.445 56.892V78.776h6.96v46.69h-6.96zm21.31-37.75l-2.076-5.69c5.147-2.346 10.206-3.883 16.98-3.883 12.728 0 19.865 6.504 19.865 18.784v28.54h-6.686v-7.046c-3.252 4.244-8.667 8.036-16.883 8.036-8.672 0-17.43-4.876-17.43-14.63 0-9.932 8.13-15.17 19.955-15.17 5.962 0 10.21.808 14.36 1.99v-1.626c0-8.402-5.15-12.733-13.908-12.733-5.506 0-9.84 1.44-14.18 3.43zm.814 23.84c0 5.96 5.42 9.393 11.738 9.393 8.582 0 15.624-5.238 15.624-12.645v-4.513c-3.433-.992-8.04-1.983-13.73-1.983-8.754 0-13.632 3.79-13.632 9.747zm44.87 13.91V59.543h6.954v65.925h-6.955z"/><path fill="#7AC143" d="M140.517 72.46s-5.978 2.658-11.217 2.563c-5.06-.1-7.556 2.464-7.556 2.464l.008.02c-2.16 1.554-3.938 4.24-5.25 7.145v-1.264a6.861 6.861 0 0 0-6.866-6.864 6.857 6.857 0 0 0-6.86 6.864v35.76a6.854 6.854 0 0 0 6.86 6.86 6.858 6.858 0 0 0 6.866-6.86V102.17c.985-7.266 4.693-11.4 10.673-12.798.34-.077.667-.182.99-.295.007-.006.01-.006.018-.01.01-.005.03-.005.043-.01 13.833-4.02 12.29-16.596 12.29-16.596z"/></svg>