<svg width="500" height="200" xmlns="http://www.w3.org/2000/svg"><path fill="none" d="M-1-1h502v202H-1z"/><path d="M.454 105.41h19.52v1.113c0 2.85 1.035 5.213 3.11 7.09 2.074 1.878 4.676 2.816 7.808 2.816 3.373 0 6.213-.914 8.52-2.744 2.31-1.83 3.463-4.093 3.463-6.794 0-2.874-1.22-5.227-3.66-7.055-1.11-.828-2.31-1.524-3.598-2.09s-3.772-1.527-7.456-2.877c-9.237-3.44-16.02-7.25-20.35-11.432-4.33-4.183-6.492-9.693-6.492-16.533 0-8.232 2.752-14.87 8.255-19.915 5.504-5.046 12.7-7.568 21.584-7.568 8.6 0 15.545 2.446 20.84 7.337 5.295 4.89 8.294 11.694 9.002 20.413H43.007c-.355-3.538-1.498-6.17-3.43-7.897-1.93-1.728-4.738-2.592-8.42-2.592-3.33 0-6.027.822-8.09 2.467-2.065 1.646-3.095 3.785-3.095 6.42 0 3.543 1.864 6.333 5.592 8.364 2.042 1.08 5.593 2.53 10.652 4.345 4.99 1.784 8.844 3.42 11.56 4.9 2.717 1.48 5.01 3.156 6.877 5.03 4.585 4.443 6.877 10.19 6.877 17.246 0 8.462-2.828 15.283-8.485 20.464-5.658 5.182-13.118 7.772-22.38 7.772-9.393-.046-16.798-2.645-22.215-7.803C3.12 120.775.454 113.88.454 105.19v.218zM69.43 83.238v-14.54h7.168v-16.86h17.26v16.86h7.9v14.538h-7.9v30.023c0 1.5.375 2.557 1.128 3.173.752.618 2.014.926 3.784.926h2.987v14.537h-13.74c-4.072 0-6.994-.93-8.762-2.788-1.77-1.86-2.656-4.913-2.656-9.162v-36.71h-7.17zm40.894 17.922c0-9.913 3.003-18.122 9.01-24.628 6.008-6.505 13.617-9.76 22.83-9.76 4.24 0 7.95.798 11.13 2.39 3.18 1.595 6.293 4.206 9.34 7.835v-8.032h17.26V131.9h-17.26v-8.697c-2.915 3.762-6.14 6.516-9.672 8.265-3.534 1.748-7.598 2.622-12.19 2.622-8.86 0-16.148-3.087-21.868-9.26-5.72-6.177-8.58-14.065-8.58-23.67zm18.653-.264c0 5.49 1.59 10.08 4.77 13.775 3.18 3.697 7.112 5.544 11.795 5.544 4.813 0 8.91-1.947 12.29-5.842 3.38-3.894 5.07-8.564 5.07-14.008 0-5.577-1.602-10.145-4.804-13.708-3.203-3.562-7.343-5.345-12.424-5.345-4.902 0-8.91 1.827-12.025 5.478-3.116 3.653-4.673 8.354-4.673 14.108zm67.781 31.004V68.964h17.26v7.9c1.947-3.452 4.315-5.997 7.104-7.634 2.788-1.636 6.174-2.456 10.157-2.456 8.32 0 14.03 3.497 17.127 10.49 2.08-3.63 4.658-6.284 7.735-7.966 3.075-1.682 6.848-2.522 11.32-2.522 6.505 0 11.573 1.948 15.203 5.842 1.9 2.08 3.218 4.425 3.948 7.037s1.097 6.284 1.097 11.02V131.9h-17.26V93.992c0-8.453-3.21-12.68-9.627-12.68-3.187 0-5.665 1.107-7.436 3.32-1.77 2.213-2.655 5.333-2.655 9.36V131.9h-17.26V94.523c0-8.808-3.165-13.21-9.492-13.21-6.64 0-9.958 4.402-9.958 13.21V131.9h-17.264zm107.678 28.146v-91.08h17.26v7.766c2.61-3.452 5.543-5.975 8.796-7.567 3.254-1.594 7.203-2.39 11.85-2.39 6.533 0 12.42 1.726 17.665 5.178 9.557 6.504 14.333 16.064 14.333 28.678 0 10.048-2.878 18.135-8.633 24.265-5.757 6.13-13.39 9.195-22.9 9.195-8.897 0-15.934-2.987-21.11-8.962v34.92h-17.26v-.002zm17.26-58.885c0 5.71 1.528 10.314 4.58 13.81 3.055 3.496 7.105 5.244 12.15 5.244 5.046 0 9.183-1.803 12.415-5.41 3.23-3.606 4.847-8.198 4.847-13.775 0-5.753-1.572-10.48-4.714-14.174-3.142-3.696-7.15-5.543-12.016-5.543-5.09 0-9.24 1.847-12.447 5.543-3.21 3.695-4.813 8.463-4.813 14.305zm60.478 12.216h17.26c.396 2.375 1.244 4.11 2.544 5.2 1.3 1.092 3.206 1.64 5.718 1.64 2.026 0 3.68-.526 4.957-1.576 1.278-1.048 1.917-2.413 1.917-4.094 0-1.805-.794-3.255-2.38-4.346-1.586-1.092-4.67-2.31-9.25-3.655-7-1.93-12.142-4.42-15.432-7.465-3.292-3.046-4.937-6.92-4.937-11.625 0-6.182 2.293-11.174 6.88-14.976 4.585-3.802 10.622-5.704 18.113-5.704 7.147 0 12.76 1.792 16.838 5.377 4.08 3.585 6.227 8.586 6.446 15.003H414.77v-.912c0-1.636-.752-2.976-2.25-4.023-1.497-1.045-3.414-1.568-5.748-1.568-2.072 0-3.747.504-5.024 1.512-1.278 1.008-1.916 2.31-1.916 3.906 0 1.722.596 3.003 1.784 3.843.926.672 1.784 1.156 2.578 1.448.792.296 3.502 1.135 8.13 2.522 7.01 2.1 12.012 4.61 15.01 7.53 2.996 2.918 4.496 6.793 4.496 11.622 0 6.312-2.226 11.398-6.674 15.262-4.45 3.862-10.314 5.796-17.593 5.796-7.67 0-13.74-1.815-18.208-5.444-4.47-3.632-6.863-8.722-7.18-15.27zm53.176-44.412h18.323l12.813 37.375 14.67-37.375h18.39l-35.517 91.613h-18.456l11.816-30.206-22.04-61.407z" stroke="null"/></svg>