<svg xmlns="http://www.w3.org/2000/svg" id="Calque_1" viewBox="0 0 500 200"><style>.st0{fill:#14E3FF;} .st1{fill:#1D1D1B;}</style><path d="M119.5 128.5c-1.3-1.2-2.3-2.7-3-4.7-.7-2-1-4.1-1-6.3h1.7c0 2.6.4 4.6 1.1 6.2.7 1.6 1.6 2.8 2.7 3.7 1.1.9 2.3 1.5 3.6 1.8 1.3.3 2.5.4 3.6.4 1.4 0 2.8-.2 4.1-.6 1.4-.4 2.6-1 3.7-1.9 1.1-.9 2-2 2.6-3.5.7-1.4 1-3.2 1-5.3 0-2.4-.3-4.5-1-6.3-.7-1.8-1.6-3.4-2.8-4.8-1.1-1.4-2.4-2.6-3.9-3.7-1.4-1.1-2.9-2.2-4.4-3.2-1.4-1-2.8-2-4.1-3-1.3-1-2.5-2.1-3.6-3.3-2.3-2.8-3.5-6-3.5-9.4v-1.2c0-.7.1-1.5.3-2.4.2-.9.5-1.9.9-3s1.1-2.1 2-3c2.1-2.2 5-3.4 8.7-3.4 3.8 0 6.6 1.1 8.6 3.4.8 1 1.4 2 1.7 3.2.3 1.1.6 2.2.7 3.3.1 1 .1 1.9.1 2.6v1.2h-1.7c.1-1.3 0-2.4-.1-3.4s-.3-2-.6-3-.8-2-1.5-2.8c-.8-.9-1.8-1.6-3-2.1s-2.6-.7-4.2-.7c-3.3 0-5.7.9-7.4 2.8-.7.8-1.3 1.7-1.7 2.6-.4 1-.6 1.9-.8 2.7-.2.8-.2 1.8-.2 3 0 1.8.3 3.3.9 4.7.6 1.4 1.4 2.6 2.3 3.8 1 1.1 2.1 2.2 3.3 3.2 1.3 1 2.6 1.9 3.9 2.9 1.6 1.1 3.1 2.2 4.6 3.4 1.5 1.2 2.9 2.5 4.1 4 2.8 3.4 4.2 7.4 4.2 12 0 4.3-1.4 7.7-4.3 10.1-2.3 1.9-5.3 2.9-8.8 2.9-1.2 0-2.6-.2-4.2-.5-1.8-.4-3.3-1.2-4.6-2.4zm44.2-54.4h-13.3v-1.5h28v1.6l.1-.1h-13.1v56.5h-1.7V74.1zm40.7 31.4c-.6.1-1.2.2-1.8.2h-9.5v24.9h-1.7V72.4h9.2c2.9 0 5.3.5 7.2 1.4 1.9.9 3.5 2.2 4.5 3.8 1 1.6 1.8 3.4 2.4 5.4.6 2 .8 4 .8 6 0 2.1-.3 4.1-.8 6.1-.6 2-1.3 3.8-2.4 5.3-.7 1.2-1.6 2.2-2.6 3-1 .8-2.3 1.4-3.8 1.7l-1.5.4zm6.5-5.8c.9-1.4 1.6-3.1 2.2-4.9.5-1.8.8-3.7.8-5.7 0-1.9-.3-3.7-.8-5.6-.5-1.8-1.3-3.5-2.2-4.9-.9-1.4-2.2-2.5-3.9-3.2-1.7-.8-3.8-1.2-6.4-1.2h-7.5v29.9h7.5c3.1 0 5.4-.4 6.8-1.2 1.5-.8 2.6-1.9 3.5-3.2zm-5 5.5l11.1 25.4h-1.8l-11-25 1.7-.4zm47.3 23.9v1.5h-22.6V72.5h22.2V74h-20.6v30.2h16.1v1.5h-16.1v23.4h21zm37.2 1.5h-1.8l-3.6-17.5h-13.9l-3.8 17.5h-1.8l11.8-58.1h1.4l11.7 58.1zm-5.8-19.2l-6.5-34.5-6.7 34.5h13.2zm-6.8-38.9h.6-.6zm25.9 4.2v53.9H302V72.5h1.4l14.8 29 14.8-29h1.3v58.1h-1.6v-54l-13.8 27.6h-1.1l-14.1-27.5zm-.5-4.2h-.7.7zm29.9 0h.7-.7zm29.6 33c-.6.1-1.2.2-1.8.2h-9.5v24.9h-1.7V72.4h9.2c2.9 0 5.3.5 7.2 1.4 1.9.9 3.5 2.2 4.5 3.8 1 1.6 1.8 3.4 2.4 5.4.6 2 .8 4 .8 6 0 2.1-.3 4.1-.8 6.1-.6 2-1.3 3.8-2.4 5.3-.7 1.2-1.6 2.2-2.6 3-1 .8-2.3 1.4-3.8 1.7l-1.5.4zm6.6-5.8c.9-1.4 1.6-3.1 2.2-4.9.5-1.8.8-3.7.8-5.7 0-1.9-.3-3.7-.8-5.6-.5-1.8-1.3-3.5-2.2-4.9-.9-1.4-2.2-2.5-3.9-3.2-1.7-.8-3.8-1.2-6.4-1.2h-7.5v29.9h7.5c3.1 0 5.4-.4 6.8-1.2 1.4-.8 2.6-1.9 3.5-3.2zm-5 5.5l11.1 25.4h-1.8l-11-25 1.7-.4z"/><path d="M352.7 131.9h-4.2V71.2H359c3 0 5.7.5 7.8 1.5 2.2 1 3.8 2.4 5 4.3 1.1 1.7 1.9 3.6 2.5 5.7.6 2.1.9 4.2.9 6.4s-.3 4.4-.9 6.5c-.6 2.1-1.4 4-2.5 5.7-.8 1.3-1.8 2.4-2.9 3.3-.8.6-1.8 1.2-2.9 1.5l11.3 25.8h-4.5L361.9 107c-.3 0-.6.1-.9.1h-8.3v24.8zm0-29.1h6.3c2.9 0 5-.3 6.2-1 1.3-.7 2.3-1.6 3.1-2.8.8-1.3 1.5-2.9 2-4.6.5-1.7.8-3.5.8-5.3 0-1.7-.3-3.5-.8-5.2-.5-1.7-1.2-3.3-2-4.6-.8-1.2-1.9-2.1-3.4-2.8-1.5-.7-3.5-1.1-5.9-1.1h-6.3v27.4zm59.8 15.3v1.3c0 .7-.1 1.5-.3 2.5-.2 1-.5 2-1 3.2-.5 1.1-1.1 2.2-2 3.1-1.1 1.1-2.6 1.9-4.5 2.4-1.9.6-3.8.8-5.6.8-1.8 0-3.7-.3-5.6-.8-1.9-.6-3.4-1.4-4.4-2.4-.9-1-1.6-2-2-3.2-.5-1.2-.8-2.3-.9-3.3-.2-1-.2-1.9-.2-2.7V84.8c0-2.1.3-4 .9-5.7.6-1.7 1.6-3.1 2.9-4.3.5-.5 1.2-.9 2-1.3s1.6-.7 2.4-.9c.9-.2 1.7-.4 2.6-.6.9-.1 1.7-.2 2.4-.2s1.5.1 2.4.2c.9.1 1.8.3 2.6.5.9.2 1.7.5 2.5.9.8.3 1.4.8 2 1.2 2.7 2.4 4.1 5.8 4.1 10.2v33.3zm-1.7-33.3c0-1.9-.3-3.5-.8-4.8-.5-1.3-1.2-2.5-2-3.4-.5-.5-1.2-1-2-1.4-.8-.4-1.6-.7-2.4-1-.8-.3-1.7-.5-2.5-.6-.9-.1-1.6-.2-2.2-.2-1.2 0-2.5.1-3.9.4-1.4.3-2.6.9-3.7 1.7-1.1.8-2 2-2.8 3.4-.7 1.5-1.1 3.4-1.1 5.7v32.9c-.1 1.3 0 2.5.2 3.4.2 1 .4 2 .8 3 .4 1.1 1 2 1.8 2.9.9.9 2.1 1.6 3.8 2 1.7.5 3.3.7 4.9.7.8 0 1.6-.1 2.5-.2.9-.1 1.7-.3 2.5-.5s1.6-.5 2.3-.9c.7-.3 1.3-.8 1.7-1.2.8-.9 1.4-1.8 1.8-2.8.4-1 .6-2 .8-2.8.2-.9.2-1.9.2-3.2l.1-33.1z"/><path d="M399 132.7c-1.9 0-3.9-.3-5.9-.9-2.1-.6-3.8-1.6-5-2.8-1-1.1-1.8-2.3-2.3-3.6-.5-1.2-.8-2.5-1-3.6-.2-1.1-.3-2.1-.3-2.9V84.8c0-2.3.3-4.3 1-6.1.7-1.9 1.8-3.5 3.3-4.8.6-.5 1.4-1 2.2-1.5.8-.4 1.7-.7 2.6-1 .9-.3 1.8-.5 2.7-.6.9-.1 1.8-.2 2.6-.2.7 0 1.6.1 2.5.2.9.1 1.9.3 2.8.6l2.7.9c.9.4 1.7.9 2.3 1.5 3 2.6 4.5 6.4 4.5 11.1v34.5c0 .8-.1 1.7-.3 2.8-.2 1.1-.6 2.2-1.1 3.4-.5 1.3-1.3 2.4-2.3 3.5-1.2 1.2-2.9 2.2-5.1 2.8-2 .5-4 .8-5.9.8zm0-57.9c-1.1 0-2.3.1-3.6.4-1.2.3-2.3.7-3.2 1.5-1 .7-1.8 1.7-2.4 3-.6 1.3-1 3-1 5.2v32.9c-.1 1.3 0 2.4.1 3.2.1.9.4 1.8.7 2.8.3.9.8 1.7 1.5 2.4s1.8 1.3 3.2 1.7c1.6.4 3.1.6 4.6.6.8 0 1.5-.1 2.3-.2.8-.1 1.6-.3 2.3-.5.8-.2 1.4-.5 2.1-.8.5-.3 1-.6 1.3-1 .7-.7 1.2-1.5 1.5-2.4.3-.9.6-1.8.7-2.6.1-.8.2-1.8.2-2.9l.1-33.4c0-1.7-.2-3.2-.7-4.4-.4-1.2-1-2.2-1.7-2.9-.4-.4-1-.8-1.6-1.1-.7-.4-1.4-.7-2.2-.9-.7-.2-1.5-.4-2.3-.5-.7-.1-1.4-.1-1.9-.1zm50.1 43.3v1.3c0 .7-.1 1.5-.3 2.5-.2 1-.5 2-1 3.2-.5 1.1-1.1 2.2-2 3.1-1.1 1.1-2.6 1.9-4.5 2.4-1.9.6-3.8.8-5.6.8-1.8 0-3.7-.3-5.6-.8-1.9-.6-3.4-1.4-4.4-2.4-.9-1-1.6-2-2-3.2-.5-1.2-.8-2.3-.9-3.3-.2-1-.2-1.9-.2-2.7V84.8c0-2.1.3-4 .9-5.7.6-1.7 1.6-3.1 2.9-4.3.5-.5 1.2-.9 2-1.3s1.6-.7 2.4-.9c.9-.2 1.7-.4 2.6-.6.9-.1 1.7-.2 2.4-.2s1.5.1 2.4.2c.9.1 1.8.3 2.6.5.9.2 1.7.5 2.5.9.8.3 1.4.8 2 1.2 2.7 2.4 4.1 5.8 4.1 10.2v33.3zm-1.7-33.3c0-1.9-.3-3.5-.8-4.8-.5-1.3-1.2-2.5-2-3.4-.5-.5-1.2-1-2-1.4-.8-.4-1.6-.7-2.4-1-.8-.3-1.7-.5-2.5-.6-.9-.1-1.6-.2-2.2-.2-1.2 0-2.5.1-3.9.4-1.4.3-2.6.9-3.7 1.7-1.1.8-2 2-2.8 3.4-.7 1.5-1.1 3.4-1.1 5.7v32.9c-.1 1.3 0 2.5.2 3.4.2 1 .4 2 .8 3 .4 1.1 1 2 1.8 2.9.9.9 2.1 1.6 3.8 2 1.7.5 3.3.7 4.9.7.8 0 1.6-.1 2.5-.2.9-.1 1.7-.3 2.5-.5s1.6-.5 2.3-.9c.7-.3 1.3-.8 1.7-1.2.8-.9 1.4-1.8 1.8-2.8.4-1 .6-2 .8-2.8.2-.9.2-1.9.2-3.2l.1-33.1z"/><path d="M435.6 132.7c-1.9 0-3.9-.3-5.9-.9-2.1-.6-3.8-1.6-5-2.8-1-1.1-1.8-2.3-2.3-3.6-.5-1.2-.8-2.5-1-3.6-.2-1.1-.3-2.1-.3-2.9V84.8c0-2.3.3-4.3 1-6.1.7-1.9 1.8-3.5 3.3-4.8.6-.5 1.4-1 2.2-1.5.8-.4 1.7-.7 2.6-1 .9-.3 1.8-.5 2.7-.6.9-.1 1.8-.2 2.6-.2.7 0 1.6.1 2.5.2.9.1 1.9.3 2.8.6l2.7.9c.9.4 1.7.9 2.3 1.5 3 2.6 4.5 6.4 4.5 11.1v34.5c0 .8-.1 1.7-.3 2.8-.2 1.1-.6 2.2-1.1 3.4-.5 1.3-1.3 2.4-2.3 3.5-1.2 1.2-2.9 2.2-5.1 2.8-2 .5-4 .8-5.9.8zm0-57.9c-1.1 0-2.3.1-3.6.4-1.2.3-2.3.7-3.2 1.5-1 .7-1.8 1.7-2.4 3-.6 1.3-1 3-1 5.2v32.9c-.1 1.3 0 2.4.1 3.2.1.9.4 1.8.7 2.8.3.9.8 1.7 1.5 2.4s1.8 1.3 3.2 1.7c1.6.4 3.1.6 4.6.6.8 0 1.5-.1 2.3-.2.8-.1 1.6-.3 2.3-.5.8-.2 1.4-.5 2.1-.8.5-.3 1-.6 1.3-1 .7-.7 1.2-1.5 1.5-2.4.3-.9.6-1.8.7-2.6.1-.8.2-1.8.2-2.9l.1-33.4c0-1.7-.2-3.2-.7-4.4-.4-1.2-1-2.2-1.7-2.9-.4-.4-1-.8-1.6-1.1-.7-.4-1.4-.7-2.2-.9-.7-.2-1.5-.4-2.3-.5-.6-.1-1.3-.1-1.9-.1zm35.3-.7h-13.3v-1.5h28v1.6l.1-.1h-13.1v56.5h-1.7V74.1z"/><path d="M473.9 131.9h-4.2V75.3h-13.3v-4h30.5v4h-13z"/><path d="M77.6 61.1c-12.2-4.5-25.6 0-32.7 10.1-12.4-1.2-24.5 6-29 18.2-5.4 14.6 2 30.7 16.6 36.1 2.3.9 4.7 1.4 7 1.6 3 6.7 8.5 12.2 15.9 14.9 14.6 5.4 30.7-2 36.1-16.6 2.7-7.3 2.2-15.1-.9-21.7 1.4-2 2.6-4.2 3.5-6.6 5.5-14.4-2-30.6-16.5-36z" class="st0"/><path d="M81.7 102.5c-.4-1.4-1.8-2.2-3.2-1.8-.8.2-1.4.8-1.7 1.4l-8.2-.8v-.8c0-3.1-1.4-5.8-3.5-7.6l3.8-5.2 5.2 3.9c0 .1-.1.1-.1.2-.4 1.4.4 2.9 1.8 3.3 1.4.4 2.8-.4 3.2-1.8.3-1.3-.3-2.6-1.4-3.1l1.5-14.4c.9-.2 1.8-.9 2-1.9.4-1.4-.4-2.9-1.8-3.3-1.4-.4-2.8.4-3.2 1.8-.1.3-.1.7-.1 1l-13.2 5.8c-.3-.4-.8-.7-1.3-.9-1.4-.4-2.8.4-3.2 1.8-.4 1.4.4 2.9 1.8 3.3.8.2 1.7 0 2.3-.5l5.4 4-3.8 5.3c-1.6-1-3.4-1.6-5.4-1.6-1.3 0-2.6.3-3.8.7l-3.2-7c.8-.6 1.1-1.7.9-2.7-.4-1.4-1.8-2.2-3.2-1.8-1.4.4-2.2 1.8-1.9 3.2.3 1.3 1.6 2.1 3 1.9l3.2 7c-2.7 1.6-4.6 4.4-5 7.6l-6.6-.6.6-6.5h.2c1.4-.4 2.2-1.8 1.9-3.2-.4-1.4-1.8-2.2-3.2-1.8-1.3.3-2.1 1.6-1.9 2.8l-13.2 6.1c-.6-.7-1.6-1.1-2.6-.8-1.4.4-2.2 1.8-1.9 3.2.4 1.4 1.8 2.2 3.2 1.8.3-.1.7-.3.9-.5l11.7 8.4c-.2.5-.2 1.1-.1 1.6.4 1.4 1.8 2.2 3.2 1.8 1.4-.4 2.2-1.8 1.9-3.2-.2-.9-.8-1.5-1.6-1.8l.7-6.6 6.7.6c.1 3 1.5 5.7 3.7 7.5l-4.9 6.7c-.5-.2-1.1-.3-1.7-.1-1.4.4-2.2 1.8-1.9 3.2.4 1.4 1.8 2.2 3.2 1.8 1.4-.4 2.2-1.8 1.9-3.2-.1-.3-.2-.7-.5-.9l4.9-6.8c1.5.9 3.3 1.5 5.2 1.5 1.2 0 2.3-.2 3.4-.6l3 6.5-5.9 2.7-.2-.2c-1-1-2.7-1-3.7 0s-1 2.7 0 3.7c.9.9 2.4 1 3.4.3l11.8 8.4c-.3.9-.1 2 .6 2.7 1 1 2.7 1 3.7 0s1-2.7 0-3.7c-.3-.3-.5-.4-.9-.6l1.4-14.4c.5-.1 1-.3 1.4-.7 1-1 1-2.7 0-3.7s-2.7-1-3.7 0c-.6.6-.9 1.5-.7 2.3l-6.1 2.7-3-6.4c2.6-1.4 4.6-3.8 5.2-6.8l8.2.8c0 .1 0 .3.1.4.4 1.4 1.8 2.2 3.2 1.8 1.6-.3 2.4-1.7 2.1-3.2zm-4-26.9L76.3 90c-.5 0-1 .2-1.4.6l-5.2-3.8 8-11.2zm-14.5 6.3c0-.1.1-.2.1-.2.1-.4.1-.7.1-1.1l13.2-5.8v.1l-8 11-5.4-4zm-23.5 24.9h-.2c-.4.1-.7.3-1 .5L26.8 99v-.1l13.6 1.3-.7 6.6zm.9-8L27 97.5v-.1l13-6c.3.4.7.7 1.2.9l-.6 6.5zm32.2 15.7l.2.2c.3.3.6.5.9.6l-1.4 14.3h-.1l-5.7-12.4 6.1-2.7zm-1.7 15.7L59.3 122c.2-.5.3-1 .2-1.5l5.9-2.7 5.7 12.4zm-11.5-27.3l-4.3 2.5v-10l4.3 2.5 4.3 2.5-4.3 2.5z" class="st1"/></svg>