<svg xmlns="http://www.w3.org/2000/svg" width="1508pt" height="754pt" viewBox="0 0 1508 754"><g fill="#1a76d2"><path d="M0 377v377h1508V0H0zm208.5-230.9c30.9 2.8 75.6 13.6 89.1 21.4 7.6 4.5 11.8 12.2 11.8 21.9-.1 14.6-11.1 26.6-24.4 26.6-1.7 0-10.2-2.2-18.8-5-29-9.2-50.5-12.8-82.7-13.7-33.9-.9-55.6 3.1-77.6 14.3-21 10.8-32.3 25.7-35 46.1-2.3 16.9 2.7 32.2 13.8 42.3 17.3 15.8 32.3 21.9 89.8 36.5 75.9 19.2 98.3 28.4 121.1 49.8 19.5 18.1 28.8 39.5 30.1 68.7.7 15.5-.6 26.3-4.4 38.5-9.2 29-32 54.2-62.8 69-27.9 13.4-55.4 18.2-98 17.2-38.1-1-64.7-5.1-98-15.2-14.9-4.5-36.8-13-41.6-16.2-7.2-4.8-12-13.8-12.1-22.9-.1-12 7-21.8 18.1-25 7.3-2.2 12.4-1.3 26.7 4.5 40.4 16.5 75.7 23 118.7 21.8 40.4-1 64.5-8.4 80.8-24.6 11.4-11.4 16.3-23.8 16.3-41.6.1-17.3-3.9-25.4-17.8-35.7-14.7-11.1-31.4-17.4-82-31.3-84.1-23-104.2-31.9-130.2-57.9-9.9-9.9-11.6-12.2-15.7-20.6-7.5-15.4-9.2-24-9.1-46.5 0-17.2.3-19.9 2.6-28.6 3.7-13.5 8-23.3 15-34.1 19.4-29.4 55.9-51.1 98.2-58.3 20.3-3.4 50.1-3.9 78.1-1.4zm364 6.4c50 1.8 92.1 17.6 128.4 48 60.6 50.9 87 140.1 65.4 221.5-1.9 7.4-4.7 15.5-9.5 27.5-15.5 38.7-40.9 69.7-75.8 92.8-19.1 12.6-36.8 20.4-59.4 26.2-27 6.9-28.5 7-113.1 6.9-85.1-.1-82.4.1-89.9-7.2-2.2-2-5.1-6.2-6.5-9.2l-2.6-5.5v-73c-.1-40.2.2-125.7.5-190 .5-116 .5-117 2.6-121.5 4.3-9.2 12-15.4 21.1-16.9 4.8-.8 114.6-.5 138.8.4zm464.7 90.8c6.7 4 158.4 156.3 160.3 161 2.4 5.9 2.1 14.9-.7 20.2-1.5 3-27.4 29.6-79.3 81.6-61.6 61.7-78 77.6-82 79.5-16.3 7.8-34.9-4.1-34.7-22.3.1-10.8-1.2-9.3 71.5-82.1l67.2-67.2-68.2-68.3c-52.5-52.6-68.3-69-69.1-71.7-2.2-7.3-2.3-10-.8-15.2 2.1-7.4 6.7-13.1 12.9-16.3 4.5-2.3 6.1-2.6 11.9-2.2 4.8.3 7.9 1.1 11 3zm-140.8 23.2c17.3 4.5 27.8 20.1 26.3 38.8-1.1 12.9-8.8 24.1-20.5 29.5-5.1 2.4-6.8 2.7-17.2 2.7-10.3 0-12.1-.3-17-2.6-7.2-3.4-13.6-9.7-16.8-16.7-3.8-8-4.3-22.1-1.2-30.3 3.6-9.8 12.7-18.1 23.3-21.4 5.7-1.8 16.1-1.8 23.1 0zm2.7 241.8c15.6 6.5 23.6 19.2 22.7 36.2-.7 14.1-8.2 25.5-20.6 31.3-5.1 2.4-6.8 2.7-17.2 2.7-10.6 0-12-.2-17.2-2.8-7.3-3.6-15-11.9-17.7-19.2-2.9-7.6-2.9-20.3 0-27.9 2.4-6.5 9.5-14.8 15.3-17.9 6.8-3.6 10.7-4.5 20.1-4.6 7.2 0 10.1.4 14.6 2.2zm584 31.8c11.7 3.6 19.3 18.1 15.9 30.4-1.7 6.2-8.7 13.8-14.8 16.2-4.4 1.7-10.7 1.8-115.7 1.8-86.6 0-111.8-.3-114.5-1.3-4.4-1.5-10.5-7.3-13.3-12.6-3-5.7-2.9-15.5 0-21.2 2.9-5.5 8.3-10.5 13.5-12.6 4-1.6 13.3-1.7 114.7-1.7 79.9-.1 111.4.2 114.2 1z"/><path d="M466.7 244.7c-.4 21.9-.7 93.5-.7 159.1v119.4l54.3-.5c57.1-.4 60.3-.7 81.2-5.6 57.1-13.6 99.7-56.5 112-112.9 3-13.8 3.8-23.2 3.8-41.2-.1-37.1-7.8-64.2-26.4-92.1-7.1-10.5-21.8-25.8-32.4-33.7-14.9-11-36.2-21-55.4-25.8-21.1-5.4-24.9-5.7-82.2-6.1l-53.6-.5z"/></g></svg>