<svg height="754pt" preserveAspectRatio="xMidYMid meet" viewBox="0 0 1508 754" width="1508pt" xmlns="http://www.w3.org/2000/svg"><g fill="#1a76d2" transform="matrix(.1 0 0 -.1 0 754)"><path d="m0 3770v-3770h7540 7540v3770 3770h-7540-7540zm2085 2309c309-28 756-136 891-214 76-45 118-122 118-219-1-146-111-266-244-266-17 0-102 22-188 50-290 92-505 128-827 137-339 9-556-31-776-143-210-108-323-257-350-461-23-169 27-322 138-423 173-158 323-219 898-365 759-192 983-284 1211-498 195-181 288-395 301-687 7-155-6-263-44-385-92-290-320-542-628-690-279-134-554-182-980-172-381 10-647 51-980 152-149 45-368 130-416 162-72 48-120 138-121 229-1 120 70 218 181 250 73 22 124 13 267-45 404-165 757-230 1187-218 404 10 645 84 808 246 114 114 163 238 163 416 1 173-39 254-178 357-147 111-314 174-820 313-841 230-1042 319-1302 579-99 99-116 122-157 206-75 154-92 240-91 465 0 172 3 199 26 286 37 135 80 233 150 341 194 294 559 511 982 583 203 34 501 39 781 14zm3640-64c500-18 921-176 1284-480 606-509 870-1401 654-2215-19-74-47-155-95-275-155-387-409-697-758-928-191-126-368-204-594-262-270-69-285-70-1131-69-851 1-824-1-899 72-22 20-51 62-65 92l-26 55v730c-1 402 2 1257 5 1900 5 1160 5 1170 26 1215 43 92 120 154 211 169 48 8 1146 5 1388-4zm4647-908c67-40 1584-1563 1603-1610 24-59 21-149-7-202-15-30-274-296-793-816-616-617-780-776-820-795-163-78-349 41-347 223 1 108-12 93 715 821l672 672-682 683c-525 526-683 690-691 717-22 73-23 100-8 152 21 74 67 131 129 163 45 23 61 26 119 22 48-3 79-11 110-30zm-1408-232c173-45 278-201 263-388-11-129-88-241-205-295-51-24-68-27-172-27-103 0-121 3-170 26-72 34-136 97-168 167-38 80-43 221-12 303 36 98 127 181 233 214 57 18 161 18 231 0zm27-2418c156-65 236-192 227-362-7-141-82-255-206-313-51-24-68-27-172-27-106 0-120 2-172 28-73 36-150 119-177 192-29 76-29 203 0 279 24 65 95 148 153 179 68 36 107 45 201 46 72 0 101-4 146-22zm5840-318c117-36 193-181 159-304-17-62-87-138-148-162-44-17-107-18-1157-18-866 0-1118 3-1145 13-44 15-105 73-133 126-30 57-29 155 0 212 29 55 83 105 135 126 40 16 133 17 1147 17 799 1 1114-2 1142-10z"/><path d="m4667 5093c-4-219-7-935-7-1591v-1194l543 5c571 4 603 7 812 56 571 136 997 565 1120 1129 30 138 38 232 38 412-1 371-78 642-264 921-71 105-218 258-324 337-149 110-362 210-554 258-211 54-249 57-822 61l-536 5z"/></g></svg>