<svg xmlns="http://www.w3.org/2000/svg" viewBox="0 0 500 200"><title>Tanda Logo</title><path fill="#3FAFD7" d="M85.4 71.5H59.7c-1.9.7-3.2 2.3-3.5 4.3L50 150.2s.1 5.1-3.5 5.1H28.8s-3.6 0-2.9-4.9l6.5-74.1s.6-4.8-3.7-4.8H3.5s-3.9.3-3.5-4.9l1-9.8s-.1-4.2 4.8-4.2h80.6s4.2.2 4.4 2.1L90 67.9s-.5 3.4-4.6 3.6zm88 77.6s2.2 5.9-2.8 6.4h-16.5s-4 .1-5.1-4.5l-4.9-16.3s-1.1-2.2-4.7-2.3H106s-4-.1-5.5 3.3L93 152.3s-1.4 3.1-6 3.3H71.8s-3.6-.2-2.9-3.1l46.7-95.8s1.3-3.2 4.4-3.5h18.7c1.8.1 3.5 1.2 4.2 2.9l30.5 93zm-36.1-38.3l-8.1-26.9c-.9-2.6-2-2.3-2-2.3-1 0-1.9.6-2.3 1.5l-13.3 28.8c-1.2 3.5 2.3 4.1 2.3 4.1h20.2c4.8-.3 3.2-5.2 3.2-5.2zm359.4 44.8h-16.5s-4 .1-5.1-4.5l-5-16.3s-1.1-2.2-4.7-2.3h-33.3s-4-.1-5.5 3.3l-7.6 16.5s-1.4 3.1-6 3.3h-15.1s-3.6-.2-2.9-3.1l46.7-95.8s1.3-3.2 4.4-3.5h18.7c1.8.1 3.5 1.2 4.2 2.9l30.5 93.1c0-.1 2.2 5.8-2.8 6.4zm-33.3-44.8l-8.1-26.9c-.9-2.6-2-2.3-2-2.3-1 0-1.9.6-2.3 1.5l-13.4 28.8c-1.2 3.5 2.3 4.1 2.3 4.1h20.2c4.9-.3 3.3-5.2 3.3-5.2zm-276.1 41c-.1 1.9 1.3 3.5 3.2 3.7h15.4c1.8 0 3.4-1.3 3.7-3.1l4-50.3-20.2-33.4-6.1 83.1zm96.4-107.4h-14.3c-4.5 0-4.5 4.5-4.5 4.5l-4.3 64.7c0 1.3-.4 2.5-1 3.6-.3.4-.8.6-1.4.5-1.1-.5-2-1.3-2.6-2.3l-34.8-57.7c-2.4-4.8-5.3-4.5-5.3-4.5h-17.4c-1.1-.1-2.2.4-2.8 1.4l58.7 97.3c.9 1.6 2.3 2.8 3.9 3.4.5.2.9.3 1.4.3h16.6c4.3-.3 4.5-3.5 4.5-3.5l6.7-104.6c0-3-3.4-3.1-3.4-3.1zm108 85.7s-12.3 27-46.3 25.5h-43.7s-4.2.2-3.8-5.4l6.1-93.4s.1-3.8 4.4-3.8h44.4s24.4-.7 36.9 15.9c1.7 2.5 3.3 5.1 4.6 7.8 3.3 7.7 9.5 27.4-2.6 53.4zm-17.3-34.5c-.2-1.9-.5-3.7-.9-5.5-5.1-18.5-25.1-18.4-25.1-18.4h-15.9c-5.8.4-5.4 3.3-5.4 3.3l-3.5 56.4c-.6 5.2 4.3 5.2 4.3 5.2h18.9c1.7 0 6.7-.9 6.7-.9 22-5.6 21.5-31.9 20.9-40.1z"/></svg>