<svg xmlns="http://www.w3.org/2000/svg" width="160" height="44"><g fill="none" fill-rule="evenodd"><path d="M0 0h164v44H0z"/><path fill="#FFF" d="M21.69 2.095c.981 0 1.823.592 2.192 1.437.037.084.12.13.202.13a.207.207 0 0 0 .16-.074 2.398 2.398 0 0 1 2.455-.777 2.393 2.393 0 0 1 1.747 1.96.215.215 0 0 0 .335.142 2.405 2.405 0 0 1 1.378-.435 2.392 2.392 0 0 1 2.373 2.666.217.217 0 0 0 .286.224c.266-.097.545-.145.823-.145a2.393 2.393 0 0 1 2.223 3.27.216.216 0 0 0 .22.291 2.39 2.39 0 0 1 2.134 3.807.216.216 0 0 0 .135.338 2.392 2.392 0 0 1 1.075 4.23.216.216 0 0 0 .044.361 2.392 2.392 0 0 1-.051 4.362c-.145.064-.178.26-.057.362a2.392 2.392 0 0 1-1.182 4.202.216.216 0 0 0-.143.335 2.392 2.392 0 0 1-2.254 3.75.217.217 0 0 0-.2.287 2.391 2.391 0 0 1-3.126 3.047.205.205 0 0 0-.076-.015.218.218 0 0 0-.215.234 2.392 2.392 0 0 1-3.807 2.133.206.206 0 0 0-.124-.04.217.217 0 0 0-.214.176 2.392 2.392 0 0 1-4.23 1.075.209.209 0 0 0-.165-.078c-.08 0-.159.043-.196.122a2.393 2.393 0 0 1-4.362-.051.219.219 0 0 0-.201-.13.207.207 0 0 0-.16.073 2.398 2.398 0 0 1-2.455.778 2.393 2.393 0 0 1-1.747-1.96.215.215 0 0 0-.335-.143 2.405 2.405 0 0 1-1.379.436 2.393 2.393 0 0 1-2.373-2.666.216.216 0 0 0-.286-.225 2.4 2.4 0 0 1-2.513-.554 2.393 2.393 0 0 1-.533-2.571.216.216 0 0 0-.219-.29 2.39 2.39 0 0 1-2.134-3.807.216.216 0 0 0-.136-.339 2.392 2.392 0 0 1-1.075-4.23.216.216 0 0 0-.044-.36 2.392 2.392 0 0 1 .052-4.363c.144-.063.177-.26.056-.361a2.392 2.392 0 0 1 1.183-4.202.216.216 0 0 0 .142-.335 2.391 2.391 0 0 1 2.255-3.75.217.217 0 0 0 .2-.288 2.392 2.392 0 0 1 3.125-3.046.218.218 0 0 0 .29-.219 2.392 2.392 0 0 1 3.809-2.133.217.217 0 0 0 .338-.136 2.392 2.392 0 0 1 4.23-1.076.208.208 0 0 0 .164.079c.08 0 .16-.043.196-.123a2.392 2.392 0 0 1 2.17-1.385"/><g fill="#2F2F2F"><path d="M30.649 31.142c-2.186 0-2.014-3.085 0-3.085s2.186 3.085 0 3.085m-18.06 0c-2.186 0-2.015-3.085 0-3.085 2.014 0 2.185 3.085 0 3.085m24.663-11.399h-.74a3.264 3.264 0 0 1-2.979-1.93 3.264 3.264 0 0 1-5.957 0 3.264 3.264 0 0 1-5.957 0 3.264 3.264 0 0 1-5.958 0 3.264 3.264 0 0 1-5.956 0 3.264 3.264 0 0 1-2.98 1.93h-.731c-1.11 1.195-.406 2.204 2.336 2.204v6.136c0 5.767 6.64 8.65 13.281 8.65 6.641 0 13.282-2.883 13.282-8.65v-6.136c2.745 0 3.461-1.009 2.36-2.204"/><path d="M21.832.004a4.7 4.7 0 0 0-2.677.84 4.701 4.701 0 0 0-5.296 1.35 4.7 4.7 0 0 0-2.865.6 4.7 4.7 0 0 0-1.899 2.068 4.698 4.698 0 0 0-3.912 3.816 4.705 4.705 0 0 0-2.18 1.95 4.698 4.698 0 0 0-.61 2.741 4.693 4.693 0 0 0-1.48 5.257 4.694 4.694 0 0 0-.07 5.46 4.694 4.694 0 0 0 1.346 5.293 4.693 4.693 0 0 0 2.67 4.765c.15.97.6 1.889 1.323 2.612a4.666 4.666 0 0 0 2.492 1.303 4.694 4.694 0 0 0 4.695 2.789 4.693 4.693 0 0 0 3.666 1.758c.55 0 1.089-.096 1.594-.277.79.578 1.757.908 2.777.908a4.7 4.7 0 0 0 2.676-.84 4.696 4.696 0 0 0 2.927.159 4.699 4.699 0 0 0 2.37-1.508 4.7 4.7 0 0 0 2.865-.6 4.699 4.699 0 0 0 1.898-2.069 4.662 4.662 0 0 0 2.613-1.323 4.702 4.702 0 0 0 1.3-2.492 4.703 4.703 0 0 0 2.18-1.95 4.698 4.698 0 0 0 .61-2.742 4.693 4.693 0 0 0 1.48-5.257 4.695 4.695 0 0 0 .07-5.46 4.692 4.692 0 0 0-1.346-5.293 4.693 4.693 0 0 0-2.671-4.765 4.695 4.695 0 0 0-1.322-2.611 4.662 4.662 0 0 0-2.492-1.303 4.692 4.692 0 0 0-4.298-2.806c-.133 0-.266.005-.398.016A4.694 4.694 0 0 0 26.202.635c-.55 0-1.088.096-1.593.278a4.695 4.695 0 0 0-2.777-.909m0 2.317c.977 0 1.815.59 2.183 1.43.037.085.119.13.2.13a.206.206 0 0 0 .16-.073 2.389 2.389 0 0 1 2.445-.774 2.383 2.383 0 0 1 1.74 1.951.215.215 0 0 0 .333.142 2.396 2.396 0 0 1 1.373-.433 2.382 2.382 0 0 1 2.363 2.654.216.216 0 0 0 .285.224c.265-.096.542-.145.82-.145a2.382 2.382 0 0 1 2.214 3.257.215.215 0 0 0 .218.29 2.38 2.38 0 0 1 2.125 3.791.216.216 0 0 0 .135.336 2.382 2.382 0 0 1 1.071 4.212.215.215 0 0 0 .044.36 2.382 2.382 0 0 1-.051 4.344c-.145.063-.177.259-.057.36a2.381 2.381 0 0 1-1.178 4.184.215.215 0 0 0-.141.333 2.382 2.382 0 0 1-2.245 3.734.216.216 0 0 0-.2.287 2.381 2.381 0 0 1-3.113 3.034.204.204 0 0 0-.075-.015.217.217 0 0 0-.214.233 2.382 2.382 0 0 1-3.792 2.124.205.205 0 0 0-.123-.04.216.216 0 0 0-.213.175 2.382 2.382 0 0 1-4.213 1.071.208.208 0 0 0-.164-.078.213.213 0 0 0-.195.122 2.383 2.383 0 0 1-4.345-.051.218.218 0 0 0-.2-.13.206.206 0 0 0-.16.074 2.389 2.389 0 0 1-2.444.773 2.383 2.383 0 0 1-1.74-1.95.215.215 0 0 0-.334-.143 2.396 2.396 0 0 1-1.373.433 2.383 2.383 0 0 1-2.363-2.655.216.216 0 0 0-.285-.223 2.39 2.39 0 0 1-2.503-.552 2.383 2.383 0 0 1-.53-2.56.215.215 0 0 0-.218-.29 2.38 2.38 0 0 1-2.125-3.791.216.216 0 0 0-.136-.336 2.382 2.382 0 0 1-1.07-4.212.215.215 0 0 0-.044-.36 2.382 2.382 0 0 1 .051-4.344c.144-.063.177-.258.056-.36a2.382 2.382 0 0 1 1.178-4.184.215.215 0 0 0 .142-.333 2.381 2.381 0 0 1 2.245-3.734c.142 0 .25-.148.2-.287a2.382 2.382 0 0 1 3.112-3.033c.025.01.05.014.075.014a.217.217 0 0 0 .215-.232 2.382 2.382 0 0 1 3.791-2.125.216.216 0 0 0 .336-.136 2.382 2.382 0 0 1 4.213-1.07.207.207 0 0 0 .165.078c.079 0 .158-.042.195-.122a2.382 2.382 0 0 1 2.16-1.379"/></g><path fill="#000" d="M60.066 29.2c.336 0 .62.13.854.392.233.261.35.597.35 1.008 0 .41-.154.747-.462 1.008-.308.261-.705.392-1.19.392h-.504c-.915 0-1.75-.238-2.506-.714a4.974 4.974 0 0 1-1.778-1.946c-.43-.821-.644-1.745-.644-2.772v-6.916h-1.288c-.392 0-.71-.112-.952-.336a1.096 1.096 0 0 1-.364-.84c0-.373.121-.672.364-.896.243-.224.56-.336.952-.336h1.288v-4.032c0-.41.13-.747.392-1.008.261-.261.597-.392 1.008-.392.41 0 .747.13 1.008.392.261.261.392.597.392 1.008v4.032h2.38c.392 0 .71.112.952.336.243.224.364.523.364.896 0 .336-.121.616-.364.84-.243.224-.56.336-.952.336h-2.38v6.916c0 .747.205 1.372.616 1.876.41.504.915.756 1.512.756h.952Zm10.668-12.628c1.437 0 2.74.34 3.906 1.022a7.529 7.529 0 0 1 2.772 2.8c.681 1.185 1.022 2.506 1.022 3.962V30.6c0 .41-.135.751-.406 1.022-.27.27-.611.406-1.022.406-.41 0-.751-.135-1.022-.406-.27-.27-.406-.611-.406-1.022v-1.036a6.897 6.897 0 0 1-5.404 2.548c-1.344 0-2.562-.336-3.654-1.008-1.092-.672-1.95-1.6-2.576-2.786-.625-1.185-.938-2.506-.938-3.962 0-1.456.336-2.777 1.008-3.962a7.364 7.364 0 0 1 2.786-2.8c1.185-.681 2.497-1.022 3.934-1.022Zm0 13.02c.933 0 1.778-.229 2.534-.686a4.844 4.844 0 0 0 1.778-1.876c.43-.793.644-1.685.644-2.674 0-.99-.215-1.885-.644-2.688a4.818 4.818 0 0 0-1.778-1.89c-.756-.457-1.6-.686-2.534-.686-.933 0-1.778.229-2.534.686a4.92 4.92 0 0 0-1.792 1.89c-.439.803-.658 1.699-.658 2.688 0 .99.22 1.88.658 2.674a4.947 4.947 0 0 0 1.792 1.876c.756.457 1.6.686 2.534.686Zm16.548 2.52c-1.27 0-2.464-.196-3.584-.588-1.12-.392-1.997-.905-2.632-1.54a1.185 1.185 0 0 1-.364-.868c0-.448.187-.812.56-1.092.355-.261.681-.392.98-.392.373 0 .728.168 1.064.504.355.392.887.733 1.596 1.022.71.29 1.465.434 2.268.434 1.064 0 1.89-.177 2.478-.532.588-.355.882-.83.882-1.428 0-.579-.29-1.06-.868-1.442-.579-.383-1.559-.705-2.94-.966-3.584-.69-5.376-2.165-5.376-4.424 0-.915.27-1.69.812-2.324.541-.635 1.25-1.11 2.128-1.428a8.169 8.169 0 0 1 2.8-.476c1.213 0 2.3.196 3.262.588.961.392 1.722.933 2.282 1.624.243.299.364.597.364.896 0 .317-.159.607-.476.868-.205.15-.467.224-.784.224-.485 0-.924-.177-1.316-.532-.467-.43-.961-.733-1.484-.91-.523-.177-1.157-.266-1.904-.266-.859 0-1.563.145-2.114.434-.55.29-.826.695-.826 1.218 0 .373.093.686.28.938.187.252.541.485 1.064.7.523.215 1.279.425 2.268.63 2.035.41 3.477.98 4.326 1.708.85.728 1.274 1.67 1.274 2.828 0 .859-.233 1.638-.7 2.338-.467.7-1.153 1.25-2.058 1.652-.905.401-1.993.602-3.262.602Zm20.216-2.128c.205.224.308.504.308.84 0 .41-.168.756-.504 1.036-.28.224-.579.336-.896.336-.41 0-.747-.168-1.008-.504l-5.32-6.58-1.4 1.232v4.284c0 .41-.126.742-.378.994s-.583.378-.994.378c-.41 0-.742-.126-.994-.378s-.378-.583-.378-.994V11.504c0-.41.126-.742.378-.994s.583-.378.994-.378c.41 0 .742.126.994.378s.378.583.378.994V22.9l6.804-6.076c.243-.243.532-.364.868-.364.392 0 .71.15.952.448.243.243.364.532.364.868 0 .392-.15.71-.448.952l-5.152 4.592 5.432 6.664Zm8.932-13.412c1.437 0 2.74.34 3.906 1.022a7.529 7.529 0 0 1 2.772 2.8c.681 1.185 1.022 2.506 1.022 3.962V30.6c0 .41-.135.751-.406 1.022-.27.27-.611.406-1.022.406-.41 0-.751-.135-1.022-.406-.27-.27-.406-.611-.406-1.022v-1.036a6.897 6.897 0 0 1-5.404 2.548c-1.344 0-2.562-.336-3.654-1.008-1.092-.672-1.95-1.6-2.576-2.786-.625-1.185-.938-2.506-.938-3.962 0-1.456.336-2.777 1.008-3.962a7.364 7.364 0 0 1 2.786-2.8c1.185-.681 2.497-1.022 3.934-1.022Zm0 13.02c.933 0 1.778-.229 2.534-.686a4.844 4.844 0 0 0 1.778-1.876c.43-.793.644-1.685.644-2.674 0-.99-.215-1.885-.644-2.688a4.818 4.818 0 0 0-1.778-1.89c-.756-.457-1.6-.686-2.534-.686-.933 0-1.778.229-2.534.686a4.92 4.92 0 0 0-1.792 1.89c-.439.803-.658 1.699-.658 2.688 0 .99.22 1.88.658 2.674a4.947 4.947 0 0 0 1.792 1.876c.756.457 1.6.686 2.534.686Zm24.192-19.46c.43 0 .775.13 1.036.392.261.261.392.607.392 1.036v12.768c0 1.456-.34 2.777-1.022 3.962a7.529 7.529 0 0 1-2.772 2.8c-1.167.681-2.469 1.022-3.906 1.022-1.437 0-2.749-.34-3.934-1.022a7.364 7.364 0 0 1-2.786-2.8c-.672-1.185-1.008-2.506-1.008-3.962 0-1.456.313-2.777.938-3.962s1.484-2.114 2.576-2.786c1.092-.672 2.31-1.008 3.654-1.008a6.897 6.897 0 0 1 5.404 2.548v-7.56c0-.43.135-.775.406-1.036.27-.261.611-.392 1.022-.392Zm-6.272 19.46c.933 0 1.778-.229 2.534-.686a4.818 4.818 0 0 0 1.778-1.89c.43-.803.644-1.699.644-2.688 0-.99-.215-1.88-.644-2.674a4.844 4.844 0 0 0-1.778-1.876c-.756-.457-1.6-.686-2.534-.686-.933 0-1.778.229-2.534.686a4.947 4.947 0 0 0-1.792 1.876c-.439.793-.658 1.685-.658 2.674 0 .99.22 1.885.658 2.688a4.92 4.92 0 0 0 1.792 1.89c.756.457 1.6.686 2.534.686Zm25.508-5.488c0 .355-.121.649-.364.882-.243.233-.55.35-.924.35h-10.64c.205 1.307.798 2.361 1.778 3.164.98.803 2.18 1.204 3.598 1.204.56 0 1.143-.103 1.75-.308.607-.205 1.106-.457 1.498-.756.261-.205.57-.308.924-.308.355 0 .635.093.84.28.336.28.504.597.504.952 0 .336-.15.616-.448.84-.635.504-1.423.915-2.366 1.232-.943.317-1.843.476-2.702.476-1.53 0-2.903-.331-4.116-.994a7.214 7.214 0 0 1-2.842-2.758c-.681-1.176-1.022-2.51-1.022-4.004 0-1.493.322-2.833.966-4.018a6.984 6.984 0 0 1 2.688-2.772c1.148-.663 2.45-.994 3.906-.994 1.437 0 2.679.317 3.724.952 1.045.635 1.848 1.521 2.408 2.66.56 1.139.84 2.445.84 3.92Zm-6.972-5.124c-1.363 0-2.469.373-3.318 1.12-.85.747-1.386 1.745-1.61 2.996h9.324c-.168-1.25-.635-2.25-1.4-2.996-.765-.747-1.764-1.12-2.996-1.12Z"/></g></svg>