<?xml version="1.0" encoding="UTF-8"?>
<svg width="160px" height="44px" viewBox="0 0 160 44" version="1.1" xmlns="http://www.w3.org/2000/svg" xmlns:xlink="http://www.w3.org/1999/xlink">
    <!-- Generator: Sketch 49.3 (51167) - http://www.bohemiancoding.com/sketch -->
    <title>Group 23 Copy</title>
    <desc>Created with Sketch.</desc>
    <defs></defs>
    <g id="Page-1" stroke="none" stroke-width="1" fill="none" fill-rule="evenodd">
        <g id="Group-23-Copy">
            <rect id="Rectangle-11" x="0" y="0" width="164" height="44"></rect>
            <g id="logo-copy-2">
                <path d="M21.6898392,2.0952381 C22.6712564,2.0952381 23.5130528,2.68658992 23.8824659,3.53187688 C23.9194072,3.61623105 24.0014344,3.6624804 24.0837524,3.6624804 C24.1425094,3.6624804 24.2015574,3.63862854 24.2440253,3.58801603 C24.6940112,3.05047635 25.3656449,2.728767 26.0785831,2.728767 C26.2833601,2.728767 26.4916277,2.75552764 26.6987317,2.81079416 C27.6484433,3.06531105 28.3090237,3.856495 28.4457356,4.77071968 C28.4620247,4.88008922 28.5594683,4.95106307 28.6604025,4.95106307 C28.701416,4.95106307 28.7433022,4.93913714 28.7805344,4.91324914 C29.1851436,4.6296446 29.6679985,4.47809797 30.1592888,4.47809797 C30.5644797,4.47809797 30.9751972,4.58135911 31.3518822,4.79864382 C32.2032776,5.29022501 32.6366835,6.2253928 32.531968,7.14368975 C32.5171333,7.27342065 32.6253393,7.38075406 32.7469257,7.38075406 C32.7704867,7.38075406 32.7946294,7.37668179 32.8184813,7.36795549 C33.0837606,7.27138451 33.3627111,7.22280814 33.6413708,7.22280814 C34.2533748,7.22280814 34.8647971,7.45580018 35.3316538,7.92294776 C36.0268485,8.61814247 36.2034105,9.63359216 35.8648304,10.4934229 C35.8098547,10.6327528 35.9186425,10.785172 36.0646625,10.785172 C36.0710618,10.785172 36.0771702,10.7848811 36.0832786,10.7842994 C36.1533798,10.778191 36.2231901,10.7749913 36.2932914,10.7749913 C37.1202531,10.7749913 37.9242356,11.2028706 38.3675313,11.9707844 C38.8591125,12.8221798 38.7666138,13.8486828 38.2168573,14.5915812 C38.1243586,14.716949 38.1994047,14.9022373 38.3529875,14.9292888 C39.2413242,15.0854894 40.0031296,15.7376344 40.2521198,16.6664029 C40.5066367,17.6161146 40.1517675,18.5838605 39.4283577,19.1592141 C39.3064805,19.256076 39.3309141,19.4544537 39.4722801,19.5204827 C40.2899338,19.9012399 40.8571429,20.7284926 40.8571429,21.6898392 C40.8571429,22.6715472 40.2660819,23.5130528 39.420795,23.8824659 C39.2759385,23.945877 39.2433603,24.1425094 39.3643649,24.2440253 C40.05636,24.8234512 40.390577,25.7696723 40.1415868,26.6987317 C39.8870699,27.6484433 39.095886,28.3090237 38.1816613,28.4457356 C38.0274968,28.4687149 37.9498327,28.6528397 38.0391318,28.7805344 C38.5568919,29.5190697 38.6345559,30.519103 38.1537371,31.3518822 C37.7104414,32.1195052 36.9067498,32.5473845 36.0797881,32.5473845 C35.9896164,32.5473845 35.8988629,32.5421487 35.8086912,32.531968 C35.8008375,32.5310954 35.792693,32.5305136 35.7851302,32.5305136 C35.6417281,32.5305136 35.533813,32.6794424 35.5844255,32.8184813 C35.8933362,33.6658044 35.7095023,34.6518756 35.0294332,35.3316538 C34.5625765,35.7988014 33.9511542,36.0317934 33.339441,36.0317934 C33.04042,36.0317934 32.741399,35.9759452 32.458958,35.8648304 C32.4339426,35.8549406 32.4083455,35.8502865 32.3833301,35.8502865 C32.2640708,35.8502865 32.1567374,35.9550021 32.1680816,36.0835694 C32.2472,36.9817959 31.8143758,37.8867126 30.9815965,38.3675313 C30.6052024,38.584816 30.1944849,38.6880772 29.789294,38.6880772 C29.2779332,38.6880772 28.7752987,38.523732 28.3607997,38.2171482 C28.3229858,38.1892241 28.2799361,38.1764255 28.2374681,38.1764255 C28.1385701,38.1764255 28.0419991,38.2456541 28.0230922,38.3529875 C27.8668915,39.2413242 27.2147465,40.0034205 26.285978,40.2521198 C26.0785831,40.3076772 25.8706064,40.334147 25.6658294,40.334147 C24.9325299,40.334147 24.2431527,39.9938216 23.7931668,39.4283577 C23.7509897,39.3754182 23.6896148,39.350112 23.6282399,39.350112 C23.5485397,39.350112 23.4691305,39.3925799 23.4321892,39.4722801 C23.051141,40.2899338 22.2238884,40.8571429 21.2625417,40.8571429 C20.2808337,40.8571429 19.4393281,40.2660819 19.069915,39.420795 C19.0329737,39.3364408 18.9509466,39.2901914 18.8686285,39.2901914 C18.8098715,39.2901914 18.7508236,39.3137524 18.7083556,39.3643649 C18.2583698,39.9019046 17.586736,40.223614 16.8737979,40.223614 C16.6690208,40.223614 16.4607533,40.1971442 16.2536493,40.1415868 C15.3039377,39.8870699 14.6433572,39.095886 14.5066453,38.1819522 C14.4903562,38.0722917 14.3929126,38.0013179 14.2919785,38.0013179 C14.2509649,38.0013179 14.2090787,38.0132438 14.1718465,38.0394227 C13.7672374,38.3230272 13.2843825,38.4745739 12.7930921,38.4745739 C12.3879013,38.4745739 11.9771837,38.3713127 11.6004987,38.1537371 C10.7491033,37.6621559 10.3159883,36.7269882 10.420413,35.8086912 C10.4352477,35.6789603 10.3270416,35.5719178 10.2054553,35.5719178 C10.1818943,35.5719178 10.1577515,35.5756992 10.1338996,35.5844255 C9.86862033,35.6812873 9.58966981,35.7295728 9.31101017,35.7295728 C8.69900612,35.7295728 8.08758383,35.4965808 7.62072713,35.0297241 C6.92553241,34.3342385 6.74897041,33.3187888 7.0875506,32.458958 C7.14252624,32.3199191 7.03373845,32.1672089 6.88771847,32.1672089 C6.88131919,32.1672089 6.87521079,32.1674998 6.86910238,32.1680816 C6.79900116,32.17419 6.72919081,32.1773896 6.65908959,32.1773896 C5.83212784,32.1773896 5.02814533,31.7495104 4.58484963,30.9815965 C4.09326843,30.1302012 4.18576714,29.1036982 4.73552363,28.3607997 C4.82802234,28.235432 4.75297621,28.0501437 4.59939345,28.0230922 C3.71105677,27.8668915 2.94925135,27.2147465 2.70026111,26.285978 C2.44574422,25.3362664 2.80061348,24.3685205 3.52402321,23.7934577 C3.64590045,23.696305 3.62146682,23.4979272 3.48010087,23.4321892 C2.66244717,23.0514319 2.0952381,22.2241793 2.0952381,21.2625417 C2.0952381,20.2811246 2.68629904,19.4393281 3.53187688,19.069915 C3.67644247,19.006504 3.70902064,18.8098715 3.58801603,18.7086465 C2.89602096,18.1292206 2.56180392,17.1827086 2.81079416,16.2536493 C3.06531105,15.3039377 3.856495,14.6433572 4.77071968,14.5066453 C4.92488419,14.4836661 5.00254821,14.2995413 4.91324914,14.1718465 C4.39548906,13.4333112 4.31782504,12.433278 4.79864382,11.6007896 C5.24193952,10.8328758 6.04563115,10.4052874 6.8725929,10.4052874 C6.9627646,10.4052874 7.05322717,10.4102323 7.14368975,10.4207038 C7.15154341,10.4215765 7.15968795,10.4218673 7.16754162,10.4218673 C7.31065283,10.4218673 7.41856799,10.2729386 7.36795549,10.1341905 C7.0590447,9.28657655 7.24287862,8.30050539 7.92265688,7.62072713 C8.38980446,7.15357955 9.00122676,6.92087839 9.61293993,6.92087839 C9.91196092,6.92087839 10.2109819,6.97643579 10.4934229,7.08784147 C10.5184383,7.09773127 10.5440354,7.10209442 10.5690508,7.10209442 C10.6883102,7.10209442 10.7956436,6.9973789 10.7842994,6.86910238 C10.705181,5.97058503 11.1380052,5.0656684 11.9707844,4.58484963 C12.3471786,4.36756492 12.7578961,4.26430378 13.163087,4.26430378 C13.6744478,4.26430378 14.1773732,4.42864897 14.5915812,4.73552363 C14.6293952,4.76315689 14.6724449,4.77595545 14.7149128,4.77595545 C14.8138108,4.77595545 14.9103818,4.70701773 14.9292888,4.59939345 C15.0854894,3.71105677 15.7376344,2.94925135 16.6664029,2.70026111 C16.8737979,2.64470371 17.0817745,2.61823395 17.2865515,2.61823395 C18.0198511,2.61823395 18.7092283,2.9585594 19.1592141,3.52402321 C19.2013912,3.5772536 19.2627661,3.60255986 19.3241411,3.60255986 C19.4038412,3.60255986 19.4832505,3.55980102 19.5204827,3.48010087 C19.9012399,2.66244717 20.7284926,2.0952381 21.6898392,2.0952381" id="Fill-1-Copy" fill="#FFFFFF"></path>
                <g id="logo" fill="#2F2F2F">
                    <path d="M30.6489289,31.142444 C28.4632952,31.142444 28.6347856,28.0570691 30.6489289,28.0570691 C32.6630722,28.0570691 32.8345627,31.142444 30.6489289,31.142444 M12.5885551,31.142444 C10.4029213,31.142444 10.5744118,28.0570691 12.5885551,28.0570691 C14.6026984,28.0570691 14.7741888,31.142444 12.5885551,31.142444 M37.2521789,19.7431828 L36.5117574,19.7431828 C35.1838655,19.7431828 34.0433963,18.9495359 33.5329805,17.8120718 C33.0225648,18.9495359 31.8820956,19.7431828 30.5544933,19.7431828 C29.2266013,19.7431828 28.0864218,18.9495359 27.5760061,17.8120718 C27.0655904,18.9495359 25.9251212,19.7431828 24.5972292,19.7431828 C23.2696269,19.7431828 22.1291577,18.9495359 21.618742,17.8120718 C21.1083263,18.9495359 19.9678571,19.7431828 18.6402548,19.7431828 C17.3123628,19.7431828 16.1721833,18.9495359 15.6614779,17.8120718 C15.1510622,18.9495359 14.0108827,19.7431828 12.6829907,19.7431828 C11.3550987,19.7431828 10.2149192,18.9495359 9.70450345,17.8120718 C9.19408773,18.9495359 8.05361854,19.7431828 6.72572656,19.7431828 L5.99370582,19.7431828 C4.88307365,20.937998 5.58757481,21.9474358 8.33026271,21.9474358 L8.33026271,28.0831377 C8.33026271,33.8495331 14.9708814,36.7327308 21.6115,36.7327308 C28.2521187,36.7327308 34.8927373,33.8495331 34.8927373,28.0831377 L34.8927373,21.9474358 C37.6377426,21.9474358 38.3541207,20.937998 37.2521789,19.7431828" id="Fill-4"></path>
                    <path d="M21.8315118,0.00402472749 C20.8590568,0.00402472749 19.9283158,0.30873881 19.1554502,0.844595323 C18.6186736,0.635466457 18.0410522,0.524819328 17.4463397,0.524819328 C17.0364428,0.524819328 16.6268357,0.578984284 16.2288157,0.685576282 C15.2882255,0.937573669 14.4669834,1.47400949 13.8586559,2.19321582 C13.6865862,2.17380913 13.5133577,2.16396095 13.3398395,2.16396095 C12.5185974,2.16396095 11.7072044,2.38177939 10.9937232,2.79366477 C10.1507551,3.28028042 9.49665823,4.01049353 9.09516209,4.86207091 C8.10967158,5.01037282 7.20036683,5.46715429 6.48254041,6.18491237 C5.7931026,6.87399488 5.35018225,7.74990304 5.18332672,8.67765894 C4.28126397,9.07477206 3.50926743,9.75082023 3.00290722,10.6281766 C2.51595555,11.4713541 2.31462813,12.4309718 2.39313134,13.3694448 C1.62721807,13.9826384 1.05654896,14.8327675 0.791781668,15.8201918 C0.539760283,16.760982 0.593640717,17.7400064 0.912288445,18.626342 C0.331480541,19.4168028 8.69039257e-05,20.3859789 8.69039257e-05,21.4078718 C8.69039257e-05,22.3816824 0.305409363,23.3132038 0.842765304,24.0868647 C0.486169529,25.0007173 0.416936068,26.0223205 0.681413682,27.0100344 C0.933724746,27.950535 1.46992197,28.7711196 2.18890711,29.3793891 C2.08114625,30.3543583 2.27870784,31.3591617 2.7899926,32.2446284 C3.27549587,33.0857783 4.00519916,33.7421301 4.85946475,34.144457 C5.00807047,35.1136331 5.45881216,36.0329891 6.18156314,36.7556713 C6.87013192,37.4438848 7.7345363,37.8922664 8.67396773,38.0588164 C9.06851156,38.9550002 9.74114794,39.7243164 10.6249609,40.2346835 C11.3387318,40.6468585 12.1501248,40.864677 12.9713669,40.864677 C13.1049092,40.864677 13.2375826,40.8588839 13.3693868,40.8478771 C13.9823492,41.6119796 14.8316902,42.1814357 15.8177601,42.4455985 C16.2157801,42.5521905 16.6253873,42.6063555 17.0352841,42.6063555 C17.5856756,42.6063555 18.1239006,42.5104806 18.6288124,42.328579 C19.4184794,42.9070144 20.3860098,43.2372179 21.4059722,43.2372179 C22.3784271,43.2372179 23.3091682,42.9325038 24.0820338,42.3966473 C24.6188104,42.6060658 25.1967215,42.7164233 25.7911443,42.7164233 C26.2010412,42.7164233 26.6106483,42.662548 27.0086683,42.5556663 C27.9492585,42.3036689 28.7705006,41.7672331 29.3785384,41.0480268 C29.5508978,41.0674335 29.7241263,41.0772817 29.8976445,41.0772817 C30.7188866,41.0772817 31.5302796,40.8594632 32.2437608,40.4475778 C33.0870186,39.9609622 33.7408258,39.2307491 34.1423219,38.3791717 C35.1281021,38.2308698 36.0371172,37.7740883 36.7549436,37.0563302 C37.4440917,36.3672477 37.8870121,35.4913396 38.0541573,34.5635837 C38.95622,34.1667602 39.7282166,33.490712 40.2345768,32.6133556 C40.7215284,31.7701781 40.9228559,30.8105605 40.8443527,29.8720875 C41.6102659,29.2588938 42.180935,28.4087647 42.4457023,27.4210508 C42.6977237,26.4802606 42.6438433,25.5012362 42.3251956,24.6151903 C42.9060035,23.8244398 43.2373971,22.8555533 43.2373971,21.8333708 C43.2373971,20.8598499 42.931785,19.9280389 42.3947187,19.1546676 C42.7513145,18.240815 42.8205479,17.2189221 42.5557806,16.2312082 C42.3037592,15.2907076 41.767562,14.470123 41.0485769,13.8618535 C41.1563377,12.8868843 40.9587762,11.8820809 40.4474914,10.9966142 C39.9616984,10.1554643 39.2322848,9.49940214 38.3780192,9.09678563 C38.2294135,8.12760947 37.7786718,7.20854314 37.0559209,6.48586097 C36.3673521,5.79735777 35.5029477,5.34897621 34.5635163,5.18271586 C34.1692621,4.28653205 33.4966257,3.51692624 32.6125231,3.00655912 C31.8990419,2.59467373 31.0876489,2.3768553 30.2664068,2.3768553 C30.1328644,2.3768553 29.9999014,2.38235869 29.8680972,2.39336547 C29.2551348,1.6295527 28.4057938,1.05980688 27.4197239,0.795644106 C27.0217039,0.689052108 26.6120967,0.634887152 26.2024896,0.634887152 C25.6518084,0.634887152 25.1135834,0.73076202 24.6086716,0.912953235 C23.8190046,0.334228201 22.8514742,0.00402472749 21.8315118,0.00402472749 M21.8315118,2.32124208 C22.8088913,2.32124208 23.6472245,2.91010494 24.0151178,3.75183415 C24.0519071,3.83583328 24.1335968,3.88188797 24.2155761,3.88188797 C24.2740914,3.88188797 24.3328964,3.85813649 24.3751897,3.80773702 C24.8233243,3.27245981 25.4921948,2.95210451 26.2021999,2.95210451 C26.4061344,2.95210451 26.6135451,2.97875251 26.8197971,3.03378642 C27.7656015,3.28723207 28.4234642,4.07508597 28.5596137,4.98546274 C28.5758358,5.09437195 28.6728785,5.16504708 28.7733974,5.16504708 C28.8142422,5.16504708 28.8559561,5.15317134 28.8930351,5.1273923 C29.2959796,4.84498143 29.776848,4.69407265 30.2661171,4.69407265 C30.669641,4.69407265 31.0786688,4.79689917 31.4538041,5.01326934 C32.3016968,5.50278151 32.7333196,6.43401324 32.6290349,7.34844513 C32.6142612,7.47763 32.7220221,7.58451165 32.8431082,7.58451165 C32.8665723,7.58451165 32.8906157,7.58045652 32.9143694,7.57176696 C33.1785574,7.47560244 33.4563602,7.42723052 33.7338734,7.42723052 C34.3433596,7.42723052 34.9522665,7.65924191 35.4172025,8.1244233 C36.1095371,8.81669198 36.2853727,9.8278677 35.9481855,10.6840795 C35.893436,10.8228229 36.0017762,10.9746006 36.1471955,10.9746006 C36.1535684,10.9746006 36.1596517,10.974311 36.165735,10.9737317 C36.2355478,10.967649 36.3050709,10.9644628 36.3748838,10.9644628 C37.1984433,10.9644628 37.9991181,11.3905412 38.4405901,12.1552229 C38.9301489,13.0030348 38.8380307,14.0252173 38.290536,14.7649889 C38.1984178,14.889829 38.2731552,15.0743374 38.4261061,15.1012751 C39.310788,15.2568183 40.0694593,15.9062185 40.3174252,16.8310779 C40.570895,17.7767922 40.2174857,18.740465 39.4970521,19.3133969 C39.3756763,19.4098511 39.4000094,19.6073939 39.5407938,19.6731449 C40.3550836,20.0522996 40.9199591,20.8760704 40.9199591,21.8333708 C40.9199591,22.8109469 40.3313298,23.6489106 39.4895205,24.0167689 C39.3452599,24.079913 39.3128158,24.2757179 39.4333226,24.3768065 C40.1224707,24.9537936 40.4553127,25.8960321 40.2073469,26.8211812 C39.9538771,27.7668955 39.1659482,28.4246956 38.2554847,28.5608321 C38.1019544,28.5837146 38.0246099,28.7670645 38.1135416,28.8942218 C38.6291716,29.6296486 38.7065161,30.6254728 38.2276755,31.4547469 C37.7862035,32.219139 36.9858184,32.6452173 36.1622588,32.6452173 C36.0724581,32.6452173 35.982078,32.6400036 35.8922773,32.6298658 C35.8844559,32.6289968 35.8763449,32.6284175 35.8688132,32.6284175 C35.7260011,32.6284175 35.6185299,32.7767194 35.6689342,32.9151732 C35.9765741,33.7589299 35.7934965,34.7408508 35.1162252,35.4177679 C34.6512892,35.8829493 34.0423824,36.1149607 33.4331859,36.1149607 C33.1353951,36.1149607 32.8376043,36.0593475 32.5563253,35.9487003 C32.5314128,35.9388522 32.505921,35.9342177 32.4810085,35.9342177 C32.3622398,35.9342177 32.255348,36.0384925 32.2666455,36.1665188 C32.3454384,37.0609647 31.9143949,37.9620726 31.0850418,38.4408676 C30.7101962,38.6572378 30.3011684,38.7600643 29.8976445,38.7600643 C29.3883875,38.7600643 28.8878209,38.5964108 28.4750272,38.2911174 C28.4373689,38.2633108 28.3944962,38.2505661 28.352203,38.2505661 C28.2537119,38.2505661 28.1575382,38.3195033 28.138709,38.426385 C27.983151,39.3109827 27.333689,40.0698714 26.4087415,40.317524 C26.2021999,40.3728476 25.9950789,40.3992059 25.7911443,40.3992059 C25.0608617,40.3992059 24.3743206,40.0603129 23.9261861,39.4972291 C23.8841825,39.4445124 23.8230601,39.4193126 23.7619376,39.4193126 C23.6825654,39.4193126 23.6034828,39.4616018 23.5666935,39.5409665 C23.187213,40.3551788 22.3633638,40.9200005 21.4059722,40.9200005 C20.4283031,40.9200005 19.5902595,40.3314273 19.2223662,39.4896981 C19.1855769,39.405699 19.1038872,39.3596443 19.0219079,39.3596443 C18.9633925,39.3596443 18.9045876,39.3831061 18.8622943,39.4335056 C18.4141597,39.9687828 17.7452892,40.2891381 17.0352841,40.2891381 C16.8313496,40.2891381 16.6239389,40.2627798 16.4176869,40.2074562 C15.4718825,39.9540105 14.8140198,39.1661566 14.6778703,38.2560695 C14.6616482,38.1468707 14.5646055,38.0761955 14.4640866,38.0761955 C14.4232418,38.0761955 14.3815279,38.0880713 14.3444489,38.11414 C13.9415044,38.3965508 13.460636,38.5474596 12.9713669,38.5474596 C12.567843,38.5474596 12.1588152,38.4446331 11.7836799,38.2279733 C10.9357872,37.7384611 10.5044541,36.8072294 10.6084491,35.8927975 C10.6232228,35.7636126 10.5154619,35.6570206 10.3943758,35.6570206 C10.3709117,35.6570206 10.3468683,35.6607861 10.3231146,35.6694756 C10.0589266,35.7659298 9.78112375,35.8140121 9.50361055,35.8140121 C8.89412435,35.8140121 8.28521751,35.5820007 7.8202815,35.117109 C7.1279469,34.4245506 6.95211129,33.4133749 7.28929852,32.5571631 C7.34404799,32.4187094 7.23570776,32.266642 7.09028853,32.266642 C7.08391557,32.266642 7.0778323,32.2669316 7.07174902,32.2675109 C7.0019362,32.2735936 6.93241306,32.2767798 6.86260024,32.2767798 C6.03904071,32.2767798 5.23836587,31.8507014 4.79689393,31.0860197 C4.30733514,30.2382078 4.39945331,29.2160253 4.94694804,28.4762537 C5.0390662,28.3514136 4.96432882,28.1669052 4.81137791,28.1399675 C3.92669595,27.9844243 3.16802468,27.3350241 2.92005881,26.4101647 C2.66658903,25.4644504 3.01999832,24.5007776 3.74043187,23.9281353 C3.86180769,23.8313915 3.83747459,23.6338487 3.69669023,23.5683873 C2.88240044,23.1892326 2.31752492,22.3654619 2.31752492,21.4078718 C2.31752492,20.4305854 2.90615418,19.592332 3.74825322,19.2244737 C3.89222406,19.1613296 3.92466819,18.9655247 3.80416141,18.8647257 C3.11501328,18.2877386 2.78217125,17.3452105 3.03013712,16.4200614 C3.2836069,15.4743471 4.07153583,14.816547 4.98199929,14.6804105 C5.13552956,14.657528 5.21287405,14.4741782 5.12394237,14.3470209 C4.60831241,13.611594 4.53096791,12.6157698 5.00980854,11.7867853 C5.45128049,11.0221036 6.25166564,10.5963149 7.07522518,10.5963149 C7.1650259,10.5963149 7.25511631,10.601239 7.34520671,10.6116665 C7.35302806,10.6125354 7.3611391,10.6128251 7.36896045,10.6128251 C7.51148289,10.6128251 7.61895408,10.4645232 7.5685498,10.3263591 C7.2609099,9.48231267 7.44398751,8.50039181 8.12096909,7.82347469 C8.58619477,7.35829331 9.19510161,7.12657157 9.80429813,7.12657157 C10.1020889,7.12657157 10.3998797,7.18189514 10.6811587,7.29283192 C10.7060712,7.30268009 10.731563,7.30702487 10.7564755,7.30702487 C10.8752442,7.30702487 10.982136,7.20275009 10.9708385,7.07501349 C10.8920456,6.18027794 11.3230891,5.27917004 12.1524422,4.800375 C12.5272878,4.58400483 12.9363156,4.48117831 13.3398395,4.48117831 C13.8490965,4.48117831 14.3499528,4.64483179 14.7624568,4.95041482 C14.8001151,4.97793178 14.8429877,4.99067648 14.885281,4.99067648 C14.9837721,4.99067648 15.0799458,4.92202891 15.098775,4.81485761 C15.254333,3.93025988 15.903795,3.17166085 16.8287424,2.92371859 C17.0352841,2.86839503 17.2424051,2.84203668 17.4463397,2.84203668 C18.1766223,2.84203668 18.8631634,3.18092972 19.3112979,3.74401354 C19.3533015,3.79701989 19.4144239,3.82221962 19.4755463,3.82221962 C19.5549186,3.82221962 19.6340012,3.77964076 19.6710802,3.70027606 C20.050271,2.88606381 20.8741202,2.32124208 21.8315118,2.32124208" id="Fill-1"></path>
                </g>
            </g>
            <path d="M60.0660001,29.2 C60.4020017,29.2 60.6866656,29.3306654 60.9200001,29.592 C61.1533346,29.8533346 61.2700001,30.1893313 61.2700001,30.6 C61.2700001,31.0106687 61.1160016,31.3466654 60.8080001,31.608 C60.4999985,31.8693346 60.1033358,32 59.6180001,32 L59.1140001,32 C58.1993288,32 57.3640038,31.7620024 56.6080001,31.286 C55.8519963,30.8099976 55.2593355,30.1613374 54.8300001,29.34 C54.4006646,28.5186626 54.1860001,27.5946718 54.1860001,26.568 L54.1860001,19.652 L52.8980001,19.652 C52.5059981,19.652 52.1886679,19.5400011 51.9460001,19.316 C51.7033322,19.0919989 51.5820001,18.8120017 51.5820001,18.476 C51.5820001,18.1026648 51.7033322,17.8040011 51.9460001,17.58 C52.1886679,17.3559989 52.5059981,17.244 52.8980001,17.244 L54.1860001,17.244 L54.1860001,13.212 C54.1860001,12.8013313 54.3166654,12.4653346 54.5780001,12.204 C54.8393347,11.9426654 55.1753313,11.812 55.5860001,11.812 C55.9966688,11.812 56.3326654,11.9426654 56.5940001,12.204 C56.8553347,12.4653346 56.9860001,12.8013313 56.9860001,13.212 L56.9860001,17.244 L59.3660001,17.244 C59.758002,17.244 60.0753322,17.3559989 60.3180001,17.58 C60.5606679,17.8040011 60.6820001,18.1026648 60.6820001,18.476 C60.6820001,18.8120017 60.5606679,19.0919989 60.3180001,19.316 C60.0753322,19.5400011 59.758002,19.652 59.3660001,19.652 L56.9860001,19.652 L56.9860001,26.568 C56.9860001,27.3146704 57.1913313,27.9399975 57.6020001,28.444 C58.0126688,28.9480025 58.5166637,29.2 59.1140001,29.2 L60.0660001,29.2 Z M70.734,16.572 C72.1713406,16.572 73.4733275,16.9126633 74.64,17.594 C75.8066725,18.2753367 76.7306633,19.2086607 77.412,20.394 C78.0933368,21.5793393 78.434,22.8999927 78.434,24.356 L78.434,30.6 C78.434,31.0106687 78.2986681,31.351332 78.028,31.622 C77.757332,31.892668 77.4166688,32.028 77.006,32.028 C76.5953313,32.028 76.2546681,31.892668 75.984,31.622 C75.713332,31.351332 75.578,31.0106687 75.578,30.6 L75.578,29.564 C74.9246634,30.3666707 74.131338,30.9919978 73.198,31.44 C72.264662,31.8880022 71.2566721,32.112 70.174,32.112 C68.8299933,32.112 67.6120055,31.7760034 66.52,31.104 C65.4279946,30.4319966 64.5693365,29.5033393 63.944,28.318 C63.3186636,27.1326607 63.006,25.8120073 63.006,24.356 C63.006,22.8999927 63.3419967,21.5793393 64.014,20.394 C64.6860034,19.2086607 65.6146608,18.2753367 66.8,17.594 C67.9853393,16.9126633 69.2966595,16.572 70.734,16.572 Z M70.734,29.592 C71.667338,29.592 72.5119963,29.3633356 73.268,28.906 C74.0240038,28.4486644 74.6166646,27.8233373 75.046,27.03 C75.4753355,26.2366627 75.69,25.3453383 75.69,24.356 C75.69,23.3666617 75.4753355,22.4706707 75.046,21.668 C74.6166646,20.8653293 74.0240038,20.2353356 73.268,19.778 C72.5119963,19.3206644 71.667338,19.092 70.734,19.092 C69.800662,19.092 68.9560038,19.3206644 68.2,19.778 C67.4439963,20.2353356 66.8466689,20.8653293 66.408,21.668 C65.9693312,22.4706707 65.75,23.3666617 65.75,24.356 C65.75,25.3453383 65.9693312,26.2366627 66.408,27.03 C66.8466689,27.8233373 67.4439963,28.4486644 68.2,28.906 C68.9560038,29.3633356 69.800662,29.592 70.734,29.592 Z M87.282,32.112 C86.0126603,32.112 84.8180056,31.916002 83.698,31.524 C82.5779944,31.131998 81.7006699,30.6186698 81.066,29.984 C80.8233321,29.7413321 80.702,29.4520017 80.702,29.116 C80.702,28.6679978 80.8886648,28.3040014 81.262,28.024 C81.6166685,27.7626654 81.9433319,27.632 82.242,27.632 C82.6153352,27.632 82.9699983,27.7999983 83.306,28.136 C83.6606685,28.528002 84.1926631,28.8686652 84.902,29.158 C85.6113369,29.4473348 86.3673293,29.592 87.17,29.592 C88.2340053,29.592 89.0599971,29.4146684 89.648,29.06 C90.236003,28.7053316 90.53,28.2293363 90.53,27.632 C90.53,27.0533304 90.2406696,26.5726686 89.662,26.19 C89.0833305,25.8073314 88.1033403,25.4853346 86.722,25.224 C83.1379821,24.5333299 81.346,23.058678 81.346,20.8 C81.346,19.8853288 81.616664,19.1106698 82.158,18.476 C82.6993361,17.8413302 83.4086623,17.3653349 84.286,17.048 C85.1633377,16.7306651 86.0966617,16.572 87.086,16.572 C88.2993394,16.572 89.3866619,16.767998 90.348,17.16 C91.3093382,17.552002 92.0699972,18.0933299 92.63,18.784 C92.8726679,19.0826682 92.994,19.3813318 92.994,19.68 C92.994,19.9973349 92.8353349,20.2866654 92.518,20.548 C92.3126657,20.6973341 92.0513349,20.772 91.734,20.772 C91.2486643,20.772 90.810002,20.5946684 90.418,20.24 C89.951331,19.8106645 89.4566693,19.5073342 88.934,19.33 C88.4113307,19.1526658 87.7766704,19.064 87.03,19.064 C86.1713291,19.064 85.4666694,19.2086652 84.916,19.498 C84.3653306,19.7873348 84.09,20.1933307 84.09,20.716 C84.09,21.0893352 84.1833324,21.4019987 84.37,21.654 C84.5566676,21.9060013 84.9113307,22.1393323 85.434,22.354 C85.9566693,22.5686677 86.7126617,22.7786656 87.702,22.984 C89.7366769,23.3946687 91.1786624,23.9639964 92.028,24.692 C92.8773376,25.4200036 93.302,26.3626609 93.302,27.52 C93.302,28.378671 93.068669,29.1579965 92.602,29.858 C92.135331,30.5580035 91.4493379,31.1086647 90.544,31.51 C89.6386622,31.9113353 88.5513397,32.112 87.282,32.112 Z M107.498,29.984 C107.703334,30.2080011 107.806,30.4879983 107.806,30.824 C107.806,31.2346687 107.638002,31.5799986 107.302,31.86 C107.021999,32.0840011 106.723335,32.196 106.406,32.196 C105.995331,32.196 105.659335,32.0280017 105.398,31.692 L100.078,25.112 L98.678,26.344 L98.678,30.628 C98.678,31.0386687 98.5520013,31.3699987 98.3,31.622 C98.0479987,31.8740013 97.7166687,32 97.306,32 C96.8953313,32 96.5640013,31.8740013 96.312,31.622 C96.0599987,31.3699987 95.934,31.0386687 95.934,30.628 L95.934,11.504 C95.934,11.0933313 96.0599987,10.7620013 96.312,10.51 C96.5640013,10.2579987 96.8953313,10.132 97.306,10.132 C97.7166687,10.132 98.0479987,10.2579987 98.3,10.51 C98.5520013,10.7620013 98.678,11.0933313 98.678,11.504 L98.678,22.9 L105.482,16.824 C105.724668,16.5813321 106.013998,16.46 106.35,16.46 C106.742002,16.46 107.059332,16.6093318 107.302,16.908 C107.544668,17.1506679 107.666,17.4399983 107.666,17.776 C107.666,18.168002 107.516668,18.4853321 107.218,18.728 L102.066,23.32 L107.498,29.984 Z M116.43,16.572 C117.867341,16.572 119.169327,16.9126633 120.336,17.594 C121.502672,18.2753367 122.426663,19.2086607 123.108,20.394 C123.789337,21.5793393 124.13,22.8999927 124.13,24.356 L124.13,30.6 C124.13,31.0106687 123.994668,31.351332 123.724,31.622 C123.453332,31.892668 123.112669,32.028 122.702,32.028 C122.291331,32.028 121.950668,31.892668 121.68,31.622 C121.409332,31.351332 121.274,31.0106687 121.274,30.6 L121.274,29.564 C120.620663,30.3666707 119.827338,30.9919978 118.894,31.44 C117.960662,31.8880022 116.952672,32.112 115.87,32.112 C114.525993,32.112 113.308005,31.7760034 112.216,31.104 C111.123995,30.4319966 110.265336,29.5033393 109.64,28.318 C109.014664,27.1326607 108.702,25.8120073 108.702,24.356 C108.702,22.8999927 109.037997,21.5793393 109.71,20.394 C110.382003,19.2086607 111.310661,18.2753367 112.496,17.594 C113.681339,16.9126633 114.992659,16.572 116.43,16.572 Z M116.43,29.592 C117.363338,29.592 118.207996,29.3633356 118.964,28.906 C119.720004,28.4486644 120.312665,27.8233373 120.742,27.03 C121.171335,26.2366627 121.386,25.3453383 121.386,24.356 C121.386,23.3666617 121.171335,22.4706707 120.742,21.668 C120.312665,20.8653293 119.720004,20.2353356 118.964,19.778 C118.207996,19.3206644 117.363338,19.092 116.43,19.092 C115.496662,19.092 114.652004,19.3206644 113.896,19.778 C113.139996,20.2353356 112.542669,20.8653293 112.104,21.668 C111.665331,22.4706707 111.446,23.3666617 111.446,24.356 C111.446,25.3453383 111.665331,26.2366627 112.104,27.03 C112.542669,27.8233373 113.139996,28.4486644 113.896,28.906 C114.652004,29.3633356 115.496662,29.592 116.43,29.592 Z M140.622,10.132 C141.051335,10.132 141.396665,10.2626654 141.658,10.524 C141.919335,10.7853346 142.05,11.1306645 142.05,11.56 L142.05,24.328 C142.05,25.7840073 141.709337,27.1046607 141.028,28.29 C140.346663,29.4753393 139.422672,30.4086633 138.256,31.09 C137.089327,31.7713367 135.78734,32.112 134.35,32.112 C132.912659,32.112 131.601339,31.7713367 130.416,31.09 C129.230661,30.4086633 128.302003,29.4753393 127.63,28.29 C126.957997,27.1046607 126.622,25.7840073 126.622,24.328 C126.622,22.8719927 126.934664,21.5513393 127.56,20.366 C128.185336,19.1806607 129.043995,18.2520034 130.136,17.58 C131.228005,16.9079966 132.445993,16.572 133.79,16.572 C134.872672,16.572 135.880662,16.7959978 136.814,17.244 C137.747338,17.6920022 138.540663,18.3173293 139.194,19.12 L139.194,11.56 C139.194,11.1306645 139.329332,10.7853346 139.6,10.524 C139.870668,10.2626654 140.211331,10.132 140.622,10.132 Z M134.35,29.592 C135.283338,29.592 136.127996,29.3633356 136.884,28.906 C137.640004,28.4486644 138.232664,27.8186707 138.662,27.016 C139.091335,26.2133293 139.306,25.3173383 139.306,24.328 C139.306,23.3386617 139.091335,22.4473373 138.662,21.654 C138.232664,20.8606627 137.640004,20.2353356 136.884,19.778 C136.127996,19.3206644 135.283338,19.092 134.35,19.092 C133.416662,19.092 132.572004,19.3206644 131.816,19.778 C131.059996,20.2353356 130.462669,20.8606627 130.024,21.654 C129.585331,22.4473373 129.366,23.3386617 129.366,24.328 C129.366,25.3173383 129.585331,26.2133293 130.024,27.016 C130.462669,27.8186707 131.059996,28.4486644 131.816,28.906 C132.572004,29.3633356 133.416662,29.592 134.35,29.592 Z M159.858,24.104 C159.858,24.4586684 159.736668,24.7526655 159.494,24.986 C159.251332,25.2193345 158.943335,25.336 158.57,25.336 L147.93,25.336 C148.135334,26.6426732 148.727995,27.6973293 149.708,28.5 C150.688005,29.3026707 151.887326,29.704 153.306,29.704 C153.866003,29.704 154.44933,29.6013344 155.056,29.396 C155.66267,29.1906656 156.161998,28.9386682 156.554,28.64 C156.815335,28.4346656 157.123332,28.332 157.478,28.332 C157.832668,28.332 158.112666,28.4253324 158.318,28.612 C158.654002,28.8920014 158.822,29.2093316 158.822,29.564 C158.822,29.9000017 158.672668,30.1799989 158.374,30.404 C157.73933,30.9080025 156.950671,31.3186651 156.008,31.636 C155.065329,31.9533349 154.164671,32.112 153.306,32.112 C151.775326,32.112 150.403339,31.78067 149.19,31.118 C147.976661,30.45533 147.029337,29.5360059 146.348,28.36 C145.666663,27.1839941 145.326,25.8493408 145.326,24.356 C145.326,22.8626592 145.647997,21.5233393 146.292,20.338 C146.936003,19.1526607 147.831994,18.22867 148.98,17.566 C150.128006,16.90333 151.429993,16.572 152.886,16.572 C154.32334,16.572 155.564661,16.8893302 156.61,17.524 C157.655339,18.1586698 158.457997,19.0453276 159.018,20.184 C159.578003,21.3226724 159.858,22.629326 159.858,24.104 Z M152.886,18.98 C151.523326,18.98 150.417338,19.3533296 149.568,20.1 C148.718662,20.8466704 148.182001,21.8453271 147.958,23.096 L157.282,23.096 C157.113999,21.8453271 156.647337,20.8466704 155.882,20.1 C155.116663,19.3533296 154.118006,18.98 152.886,18.98 Z" id="taskade" fill="#000000"></path>
        </g>
    </g>
</svg>