<svg width="500" height="200" viewBox="0 0 234 121" xmlns="http://www.w3.org/2000/svg" xmlns:xlink="http://www.w3.org/1999/xlink"><defs><path id="a" d="M.9.8h232.8v119.5H.9z"/><path id="c" d="M.9.8h232.8v119.5H.9z"/><path id="e" d="M.9.8h232.8v119.5H.9z"/><path id="g" d="M.9.8h232.8v119.5H.9z"/><path id="i" d="M.9.8h232.8v119.5H.9z"/><path id="k" d="M.9.8h232.8v119.5H.9z"/></defs><g fill="none" fill-rule="evenodd"><mask id="b" fill="#fff"><use xlink:href="#a"/></mask><path d="M33.5 119.4c-13.5 0-24-5.5-24-18V34H.9v-2.4h5.3C22 31.6 40.9 18 40.9.7l2 .2v104.2c0 6 1.7 6.7 3.9 6.7 4.2 0 8.8-8.2 8.8-23.5h1.9c0 23.4-9.2 31.1-24 31.1" fill="#000" mask="url(#b)"/><mask id="d" fill="#fff"><use xlink:href="#c"/></mask><path d="M124.4 117.5c-2 .6-3.3.4-3.5-.1-.3-.8.5-1.3 1.2-1.4 5.9-1.2 11.1-4 11.1-7.1 0-.6-.3-.8-.9-.8h-1.6c-8.5 0-16.3-6.6-16.3-15.4 0-8.6 7.2-15.5 16.5-15.5s16.6 6.4 16.6 15.5c-.1 10.5-8.3 20.9-23.1 24.8z" fill="#00A651" mask="url(#d)"/><mask id="f" fill="#fff"><use xlink:href="#e"/></mask><path d="M233.7 88.8c0 18.8-14.7 31.5-34.4 31.5-13.8 0-23.4-7.4-31.2-7.4-6.7 0-8.5 3.5-8.9 4.7h-1.4V78.1h1.3c2 10.4 17.1 40.3 38.4 40.3 8.2 0 12.2-5 12.2-11.9 0-23.1-51.5-9.9-51.5-47.8 0-17.9 14.4-26.9 30.2-29.3 3.7-.6 4.7-.4 4.9.3.2.8-.7 1.3-2.1 1.7-1.3.4-2.5 1-3.7 1.9-2.7 1.9-4.4 4.7-4.4 8.2-.1 23.7 50.6 9.5 50.6 47.3z" fill="#000" mask="url(#f)"/><mask id="h" fill="#fff"><use xlink:href="#g"/></mask><path d="M202 31c-.8-.2-2.1-.5-3.4-.6-1.2-.1-1.8-.3-1.8-1s1.1-.8 3.2-.7c17.9.6 28.2 7.4 28.2 16.3 0 6.7-5.8 12.1-13.6 12.1-7.1 0-14-4.9-14-11.4 0-3.8 1.7-6.1 3.3-7.5 1.4-1.4 2.8-2.2 2.8-3.6 0-1.5-1.9-2.8-4.7-3.6z" fill="#005BAA" mask="url(#h)"/><mask id="j" fill="#fff"><use xlink:href="#i"/></mask><path d="M98.2 72.9c-.2 1.4-.2 2.8-.2 4.2 0 26.1 3.9 35.6 11.7 38.4 1.3.5 3 .8 4.2.9 1.2.1 1.6.3 1.6 1.1s-.7 1.1-2.3 1.3c-1.5.2-3.8.1-5.5 0-21.6-1.4-42.8-15.2-42.8-43 0-27.9 21.8-46.6 44.4-46.6 24.3 0 38 21.3 38 38.6v5H98.2v.1zm17.9-6.9c0-23.4-.5-34.7-7.5-34.7-6.9 0-9.9 14.4-10.4 39.2h17.9V66z" fill="#000" mask="url(#j)"/><mask id="l" fill="#fff"><use xlink:href="#k"/></mask><path d="M47.7 34c-.4 0-1.3-.3-1.3-1s.8-1.2 1-1.2c.2 0 1.7-.1 5.5-.1 5.1 0 8.1-1.8 8.1-3.1 0-.8-1-.6-2-.6-7.9 0-11.8-5.4-11.8-10.9S51.3 6 59.9 6c6.1 0 12.5 5.4 12.5 12.7 0 7.4-7.2 15.3-18.7 15.3h-6" fill="#ED1B34" mask="url(#l)"/></g></svg>