<svg xmlns="http://www.w3.org/2000/svg" width="500" height="200" viewBox="0 0 439.5 105.1"><path d="M53.1 67v-.3c0-22 15.7-40.2 38.2-40.2 25.3 0 37.6 20.7 37.6 40.8 0 1.7-.1 3.7-.3 5.8H74.9c2.1 9.9 9 16.2 18.8 16.2 7.3 0 12.7-2.3 18.7-7.9L125 92.5c-7.2 8.9-17.6 14.4-31.5 14.4-23.2 0-40.4-16.3-40.4-39.9zm54.5-7.7c-1.3-9.8-7.1-15.3-16.3-15.3-9.1 0-15 5.3-16.7 15.3h33zM366.1 0h21.4v54.6l25.6-26.7h25.4l-29.4 30.4 30.4 46.8h-24.2l-20.7-31.9-7.1 7.5V105h-21.4V0zM258.2 82.9v-.3c0-16.8 12.8-24.6 31.1-24.6 7.8 0 13.4 1.3 18.9 3.2v-1.3c0-9.1-5.6-14.1-16.6-14.1-8.4 0-14.3 1.6-21.3 4.2l-5.5-16.7c8.5-3.7 16.9-6.2 30-6.2 12 0 20.6 3.2 26.1 8.6 5.8 5.8 8.4 14.3 8.4 24.6v44.8h-21.2v-8.4c-5.3 5.9-12.7 9.8-23.3 9.8-14.6.1-26.6-8.3-26.6-23.6zm50.3-5V74c-3.7-1.7-8.6-2.9-14-2.9-9.4 0-15.1 3.7-15.1 10.7v.3c0 5.9 4.9 9.4 12 9.4 10.2-.1 17.1-5.7 17.1-13.6zm-94.8 5.3V46.7h-9.2V27.9h9.2V8.2h21.4v19.7h18.1v18.7h-18.1v33c0 5 2.2 7.5 7.1 7.5 4 0 7.6-1 10.8-2.7V102c-4.6 2.7-9.9 4.5-17.3 4.5-13.3-.1-22-5.4-22-23.3z"/><circle cx="347.8" cy="93.6" r="13"/><path d="M360.8 53c0 7.2-5.8 13-13 13s-13-5.8-13-13 5.8-13 13-13c7.1 0 13 5.8 13 13zm0-40.6c0 7.2-5.8 13-13 13s-13-5.8-13-13 5.8-13 13-13c7.1 0 13 5.8 13 13zm-158.6 92.7L175 65.7 201 28v-.1h-23.2l-14.4 22.4-14.2-22.4h-23.8L151.5 66l-27.1 39.1h23.2L163 81.3l15.4 23.8zM9.2 83.2V46.7H0V27.9h9.2V8.2h21.4v19.7h18.1v18.7h-18v33c0 5 2.2 7.5 7.1 7.5 4 0 7.6-1 10.8-2.7V102c-4.6 2.7-9.9 4.5-17.3 4.5-13.5-.1-22.1-5.4-22.1-23.3z"/></svg>