<svg width="500" height="200" fill="none" xmlns="http://www.w3.org/2000/svg"><path d="M197.804 56.075h-13.786v-3.587h31.719v3.587h-13.786v35.642h-4.147V56.075ZM260.751 52.488v39.229h-4.091V73.616h-24.546v18.101h-4.147V52.488h4.147v17.485h24.546V52.488h4.091ZM306.9 88.13v3.587h-27.741V52.488h26.9v3.587h-22.753v13.954h20.287v3.53h-20.287V88.13H306.9ZM204.865 108.529c5.007 0 8.93 1.196 11.769 3.587 2.84 2.391 4.259 5.679 4.259 9.863 0 4.185-1.419 7.472-4.259 9.864-2.839 2.353-6.762 3.53-11.769 3.53H194.33v12.385h-4.147v-39.229h14.682Zm-.112 23.201c3.886 0 6.856-.84 8.911-2.521 2.055-1.719 3.082-4.129 3.082-7.23 0-3.175-1.027-5.604-3.082-7.285-2.055-1.719-5.025-2.578-8.911-2.578H194.33v19.614h10.423ZM258.096 137.279H236.24l-4.707 10.479h-4.315l17.933-39.229h4.091l17.933 39.229h-4.371l-4.708-10.479Zm-1.513-3.363-9.415-21.071-9.415 21.071h18.83ZM279.269 108.529h15.971c4.147 0 7.809.841 10.984 2.522 3.176 1.644 5.642 3.96 7.398 6.949 1.756 2.952 2.634 6.333 2.634 10.144s-.878 7.21-2.634 10.199c-1.756 2.952-4.222 5.268-7.398 6.949-3.175 1.644-6.837 2.466-10.984 2.466h-15.971v-39.229Zm15.747 35.643c3.437 0 6.445-.673 9.023-2.018 2.578-1.382 4.577-3.269 5.996-5.66 1.42-2.429 2.13-5.212 2.13-8.35 0-3.139-.71-5.903-2.13-8.294-1.419-2.429-3.418-4.316-5.996-5.66-2.578-1.383-5.586-2.074-9.023-2.074h-11.6v32.056h11.6ZM331.172 108.529h15.972c4.147 0 7.809.841 10.984 2.522 3.176 1.644 5.642 3.96 7.398 6.949 1.756 2.952 2.634 6.333 2.634 10.144s-.878 7.21-2.634 10.199c-1.756 2.952-4.222 5.268-7.398 6.949-3.175 1.644-6.837 2.466-10.984 2.466h-15.972v-39.229Zm15.748 35.643c3.437 0 6.445-.673 9.023-2.018 2.578-1.382 4.576-3.269 5.996-5.66 1.42-2.429 2.13-5.212 2.13-8.35 0-3.139-.71-5.903-2.13-8.294-1.42-2.429-3.418-4.316-5.996-5.66-2.578-1.383-5.586-2.074-9.023-2.074h-11.601v32.056h11.601ZM383.076 108.529h4.147v39.229h-4.147v-39.229ZM438.375 108.529v39.229h-3.418l-25.219-31.831v31.831h-4.147v-39.229h3.419l25.274 31.832v-31.832h4.091ZM484.412 128.144h3.979v14.963c-1.831 1.606-3.998 2.839-6.501 3.699-2.503.859-5.137 1.289-7.902 1.289-3.922 0-7.453-.86-10.591-2.578-3.139-1.719-5.604-4.091-7.398-7.118-1.793-3.063-2.69-6.482-2.69-10.255 0-3.774.897-7.173 2.69-10.2 1.794-3.063 4.259-5.454 7.398-7.173 3.138-1.719 6.687-2.578 10.647-2.578 2.989 0 5.735.486 8.239 1.457 2.503.934 4.614 2.335 6.332 4.203l-2.578 2.634c-3.101-3.063-7.042-4.595-11.824-4.595-3.176 0-6.053.71-8.631 2.129a15.254 15.254 0 0 0-5.996 5.829c-1.457 2.465-2.186 5.23-2.186 8.294 0 3.063.729 5.828 2.186 8.294 1.457 2.466 3.456 4.408 5.996 5.828 2.541 1.42 5.399 2.13 8.575 2.13 4.035 0 7.453-1.009 10.255-3.026v-13.226Z" fill="#000"/><path d="M58.588 69.253h101.747V171H58.588V69.253Z" fill="#fff" stroke="#232B2B" stroke-width="8"/><path d="M130.088 24v122.201H11V24h119.088Z" fill="#232B2B"/><path fill-rule="evenodd" clip-rule="evenodd" d="M54.588 65.253h75.5v-6.227H48.361V146.2h6.227V65.253Z" fill="#fff"/></svg>