<svg width="500" height="200" xmlns="http://www.w3.org/2000/svg"><path fill="none" d="M-1-1h502v202H-1z"/><path fill="#C52D2F" d="M212.58 118.592h-8.253v-19.54c0-3.7-.57-6.356-1.708-7.968-1.14-1.613-3.13-2.467-5.89-2.467-3.32 0-5.88 1.233-7.685 3.605v26.37h-8.25V63.765h8.253v21.058c2.56-2.182 5.407-3.225 8.442-3.225 10.055 0 15.177 5.786 15.177 17.453v19.55h-.096zm5.975-18.118c0-2.656.38-5.122 1.328-7.4.854-2.275 2.087-4.267 3.7-5.974a16.594 16.594 0 0 1 5.786-3.984c2.27-.95 4.74-1.423 7.58-1.423 2.75 0 5.31.474 7.49 1.423a16.589 16.589 0 0 1 5.787 3.984c1.613 1.707 2.846 3.7 3.7 5.975a20.94 20.94 0 0 1 1.327 7.4c0 2.655-.38 5.122-1.233 7.398-.85 2.277-2.083 4.27-3.696 5.976a16.71 16.71 0 0 1-5.784 3.98c-2.276.95-4.742 1.42-7.59 1.42-2.843 0-5.405-.478-7.586-1.427-2.28-.95-4.177-2.277-5.695-3.984-1.61-1.708-2.846-3.7-3.7-5.977-1.04-2.276-1.42-4.743-1.42-7.4zm8.442 0c0 3.605.854 6.545 2.562 8.727 1.7 2.19 4.17 3.23 7.2 3.23s5.5-1.04 7.21-3.22c1.704-2.18 2.56-5.025 2.56-8.725s-.856-6.545-2.56-8.632c-1.71-2.085-4.177-3.224-7.21-3.224-3.038 0-5.5 1.043-7.21 3.224-1.71 2.088-2.56 4.934-2.56 8.633zm65.45 18.118h-7.587l-.38-2.75c-2.466 2.276-5.312 3.414-8.727 3.414-9.865 0-14.797-5.692-14.797-16.98V82.263h8.252v19.445c0 3.605.57 6.356 1.803 7.968 1.24 1.708 3.13 2.56 5.79 2.56 3.23 0 5.69-1.137 7.31-3.32V82.358h8.254v36.235h.095zm22.577 18.212c-2.846 0-5.312-.284-7.494-.854-2.18-.57-3.89-1.327-5.312-2.37-1.423-1.044-2.466-2.183-3.225-3.416-.76-1.328-1.138-2.656-1.138-4.173 0-3.6 2.087-6.26 6.166-8.15-2.27-1.23-3.41-2.94-3.41-5.024 0-2.182 1.24-3.89 3.8-5.123-3.89-2.656-5.785-6.64-5.785-11.762 0-2.085.38-3.982 1.043-5.69.665-1.8 1.614-3.32 2.94-4.552 1.235-1.232 2.847-2.276 4.65-3.035 1.8-.76 3.89-1.14 6.165-1.14 3.227 0 6.073.76 8.54 2.37 2.37-1.136 5.027-1.705 8.157-1.705h1.802l-.665 5.313h-2.75c-.855 0-1.804.094-2.75.19 1.705 2.37 2.56 5.12 2.56 8.156 0 1.99-.286 3.795-.95 5.5a14.13 14.13 0 0 1-2.845 4.555c-1.234 1.33-2.846 2.374-4.648 3.13-1.805.76-3.89 1.14-6.168 1.14-1.517 0-2.94-.19-4.27-.474-.756.38-1.136.853-1.136 1.422 0 .476.19.76.474 1.14.286.285.855.57 1.614.76.76.284 1.708.474 2.94.663 1.235.19 2.847.475 4.744.664 1.612.288 3.224.57 4.932.95 1.707.38 3.225.95 4.648 1.8s2.56 1.806 3.51 3.04c.948 1.234 1.422 2.94 1.517 4.933 0 3.51-1.52 6.355-4.65 8.442-3.036 2.274-7.4 3.32-12.996 3.32zm-1.613-48.946c-2.37 0-4.17.76-5.4 2.182-1.23 1.423-1.9 3.415-1.9 5.88 0 2.467.67 4.46 1.9 5.882 1.237 1.423 3.04 2.182 5.41 2.182 2.373 0 4.175-.76 5.408-2.182 1.235-1.517 1.9-3.51 1.9-5.976s-.665-4.458-1.898-5.88c-1.233-1.33-3.035-2.088-5.407-2.088zm2 32.82l-5.024-.758c-1.52.474-2.846 1.233-3.794 2.087-.95.948-1.423 1.992-1.423 3.32 0 1.612.853 2.94 2.56 3.984s4.08 1.52 7.21 1.52c3.034 0 5.5-.47 7.4-1.42 1.895-.95 2.843-2.27 2.843-3.79 0-1.42-.853-2.464-2.466-3.223-1.8-.664-4.172-1.233-7.303-1.707z"/><path fill="#393B44" d="M417.28 119.256c-3.795 0-6.926-1.233-9.677-3.605l-.284 2.85h-7.69V63.77h8.25v20.96c2.37-2.088 5.5-3.13 9.39-3.13 2.655 0 5.03.473 7.21 1.422 2.18.95 3.982 2.28 5.5 3.988 1.516 1.707 2.655 3.7 3.51 5.976.852 2.277 1.23 4.743 1.23 7.4 0 2.655-.38 5.122-1.23 7.398-.76 2.28-1.994 4.27-3.51 5.978a15.52 15.52 0 0 1-5.5 3.984c-2.09 1.045-4.46 1.52-7.21 1.52zm-.665-30.64c-2.846 0-5.028 1.045-6.64 3.132-1.613 2.086-2.37 5.027-2.37 8.726 0 3.795.757 6.735 2.37 8.822 1.612 2.087 3.794 3.13 6.64 3.13 2.94 0 5.217-1.138 7.02-3.32 1.707-2.18 2.56-5.122 2.56-8.632s-.853-6.355-2.56-8.537c-1.613-2.276-3.985-3.32-7.02-3.32z"/><path fill="#C52D2F" d="M368.143 118.592h-8.252v-19.54c0-3.7-.56-6.356-1.8-7.968-1.14-1.613-3.13-2.467-5.88-2.467-3.32 0-5.88 1.233-7.68 3.605v26.37h-8.25V63.765h8.25v21.058c2.56-2.182 5.41-3.225 8.44-3.225 10.06 0 15.18 5.786 15.18 17.453v19.55zm25.422-6.072l-.76 6.83h-6.26c-1.612 0-3.035-.284-4.268-.758-1.233-.474-2.277-1.138-3.035-1.992-.76-.854-1.423-1.802-1.803-2.94-.38-1.14-.57-2.372-.57-3.605V88.997h-5.51l.76-6.735h4.74V71.448l8.252-.853v11.667h8.44v6.735h-8.44v17.264c0 1.52.093 2.66.19 3.51.093.86.38 1.52.757 1.9.38.38 1.045.67 1.803.76.855.1 1.993.19 3.416.19h2.277v-.09z"/><path fill="#393B44" d="M439.19 100.474c0-2.656.38-5.122 1.33-7.4.852-2.275 2.085-4.267 3.698-5.974a16.603 16.603 0 0 1 5.786-3.984c2.277-.95 4.743-1.423 7.59-1.423 2.75 0 5.31.474 7.492 1.423 2.277.948 4.174 2.276 5.692 3.984s2.845 3.7 3.7 5.975a20.94 20.94 0 0 1 1.327 7.4 20.91 20.91 0 0 1-1.328 7.398c-.854 2.277-2.087 4.27-3.7 5.976a16.718 16.718 0 0 1-5.786 3.98c-2.27.95-4.74 1.42-7.58 1.42s-5.404-.478-7.59-1.427a16.655 16.655 0 0 1-5.782-3.984c-1.612-1.708-2.845-3.7-3.7-5.977-.76-2.276-1.137-4.743-1.137-7.4zm8.443 0c0 3.605.853 6.545 2.56 8.727 1.708 2.19 4.175 3.23 7.21 3.23s5.502-1.04 7.21-3.22c1.706-2.18 2.56-5.025 2.56-8.725s-.854-6.545-2.56-8.632c-1.708-2.085-4.175-3.224-7.21-3.224s-5.502 1.043-7.21 3.224c-1.706 2.088-2.56 4.934-2.56 8.633zm51.317 12.046l-.76 6.83h-6.26c-1.612 0-3.035-.284-4.268-.758-1.233-.474-2.276-1.138-3.035-1.992-.76-.854-1.423-1.802-1.803-2.94-.38-1.14-.57-2.372-.57-3.605V88.997h-5.5l.758-6.735h4.743V71.448l8.253-.853v11.667h8.442v6.735h-8.442v17.264c0 1.52.095 2.66.19 3.51.094.86.38 1.52.758 1.9.38.38 1.044.67 1.803.76.85.1 1.99.19 3.41.19h2.27v-.09z"/><path fill="#C52D2F" d="M174.826 112.52l-.758 6.83h-6.26c-1.613 0-3.036-.284-4.27-.758-1.233-.474-2.276-1.138-3.035-1.992-.854-.854-1.423-1.802-1.802-2.94a11.75 11.75 0 0 1-.56-3.605V88.997h-5.5l.76-6.735h4.743V71.448l8.25-.853v11.667h8.44v6.735h-8.44v17.264c0 1.52.095 2.66.19 3.51.095.86.38 1.52.76 1.9.378.38 1.04.67 1.8.76.855.1 1.993.19 3.416.19h2.276v-.09zM61.19 39.86C27.99 39.86 1.05 66.8 1.05 100s26.94 60.14 60.14 60.14c33.198 0 60.138-26.94 60.138-60.14s-26.94-60.14-60.14-60.14z"/><path fill="#fff" d="M45.632 103.984h-2.37v17.074a5.213 5.213 0 0 1 1.327 3.51c0 1.707-.76 3.225-2 4.173l-1.52-1.51c.852-.66 1.326-1.61 1.326-2.75 0-1.9-1.517-3.412-3.415-3.412a3.4 3.4 0 0 0-3.414 3.415c0 1.138.57 2.087 1.33 2.656l-1.517 1.517c-1.233-1.043-1.897-2.466-1.897-4.173 0-1.33.474-2.56 1.33-3.51V94.41c.093-1.044.85-1.803 1.895-1.803h48.76c1.045 0 1.804.857 1.9 1.805v26.655a5.213 5.213 0 0 1 1.326 3.51c0 1.706-.76 3.224-1.992 4.172l-1.518-1.52c.854-.665 1.328-1.61 1.328-2.657a3.4 3.4 0 0 0-3.414-3.415 3.4 3.4 0 0 0-3.415 3.415c0 1.138.57 2.087 1.328 2.75l-1.514 1.518c-1.234-1.042-1.993-2.56-1.993-4.172a5.21 5.21 0 0 1 1.33-3.51v-17.08H76.37v36.046l1.61.95v2.94H61.95v-2.94l1.61-.95V129.22h-4.84v10.907l1.614.95v2.94H44.02v-2.94l1.612-.95v-36.14zm15.558-39.08c3.414 0 6.45 1.232 8.346 3.035l1.518-2.09c-2.372-2.09-5.88-3.51-9.865-3.51-3.99 0-7.5 1.33-9.87 3.51l1.51 2.08c1.9-1.805 4.934-3.038 8.35-3.038zm.094-5.408c3.7 0 7.114 1.044 9.77 3.036.474.38.948.854 1.423 1.233l1.517-2.182c-2.94-2.845-7.493-4.743-12.615-4.743-5.22 0-9.96 1.898-12.81 4.933l1.52 2.182c.47-.57 1.04-1.044 1.61-1.518 2.37-1.897 5.88-2.94 9.58-2.94zm-.094-5.216c5.88 0 11.097 2.18 14.132 5.406L76.84 57.6c-3.604-3.51-9.296-5.882-15.65-5.882-6.357 0-12.048 2.277-15.652 5.88l1.517 2.088c3.036-3.32 8.253-5.407 14.134-5.407zm-4.744 25.136c0 .854-.76 1.613-1.613 1.613s-1.612-.76-1.612-1.62c0-.857.76-1.61 1.62-1.61.95 0 1.616.66 1.616 1.61zm11.098 3.13c-1.707 0-3.13-1.422-3.13-3.13 0-1.707 1.423-3.13 3.13-3.13 1.708 0 3.13 1.423 3.13 3.13 0 1.708-1.422 3.13-3.13 3.13zm-12.71 0c-1.708 0-3.13-1.422-3.13-3.13 0-1.707 1.422-3.13 3.13-3.13 1.707 0 3.13 1.423 3.13 3.13.095 1.708-1.328 3.13-3.13 3.13zm18.78-11.857h-24.85c-1.045 0-1.898.85-1.898 1.8v16.12c0 1.04.853 1.8 1.897 1.8h24.852a1.803 1.803 0 0 0 1.802-1.805V72.49c0-.95-.853-1.803-1.802-1.803zm-4.457 8.72c0 .852-.76 1.61-1.613 1.61-.854 0-1.612-.76-1.612-1.615 0-.853.758-1.61 1.612-1.61.854 0 1.613.662 1.613 1.61z"/></svg>