<svg width="500" height="200" xmlns="http://www.w3.org/2000/svg"><path fill="none" d="M-1-1h502v202H-1z"/><path d="M296.4 123.856c8.782 0 11.504-6.06 13.346-13.348h-4.125c-5.7 0-15.19.967-15.19 8.605 0 3.16 2.99 4.743 5.97 4.743zm11.504.613h-.176c-4.04 5.09-8.078 7.99-14.576 7.99-8.162 0-13.957-4.57-13.957-12.91 0-14.93 16.68-16.07 27.744-16.07h4.12c.35-1.23.35-2.55.35-3.87 0-4.563-4.918-5.88-9.04-5.88-5.187 0-10.19 1.317-14.84 3.51l1.662-9.394c5.006-1.754 10.1-2.72 15.37-2.72 9.04 0 17.56 3.336 17.56 13.96 0 6.06-4.48 23.796-5.534 32.314h-9.92l1.23-6.94M2.88 86.145h8.52l2.018-9.306 12.645-4.13-2.898 13.436h10.537l-1.844 8.607H21.32l-4.3 19.756a18.57 18.57 0 0 0-.528 4.387c0 2.723 1.843 4.39 4.48 4.39 2.106 0 4.213-.437 5.706-1.053l-2.02 9.133c-2.02.438-4.304 1.054-6.323 1.054-7.99 0-13.61-3.16-13.61-11.855 0-3.508.704-6.933 1.493-10.533l3.337-15.27H1.038l1.842-8.61m39.958-19.5H54.6l-2.456 11.243H40.378l2.458-11.242zm-4.303 19.495H50.3l-9.66 45.22H28.875l9.66-45.22M85.833 96.51c-2.286-1.494-5.357-2.285-8.606-2.285-9.396 0-14.665 8.782-14.665 17.3 0 5.88 1.932 11.764 10.01 11.764 2.9 0 6.5-.79 9.57-2.283l-1.315 9.31c-3.6 1.753-7.464 2.105-11.326 2.105-11.68 0-19.23-7.813-19.23-19.492 0-15.805 10.45-27.834 26.7-27.834 4.39 0 8.606.79 11.77 1.754l-2.9 9.66m12.9-30.998h11.77l-7.817 37.056h.178l16.42-16.42h15.28l-21.69 20.632 13.61 24.586h-13.26l-11.68-23.97h-.175l-5.09 23.97h-11.51l13.96-65.855m78.24 20.635h8.517l2.02-9.307 12.643-4.128-2.897 13.435h10.533l-1.844 8.607h-10.54l-4.3 19.756a18.475 18.475 0 0 0-.53 4.388c0 2.723 1.843 4.39 4.48 4.39 2.11 0 4.213-.437 5.704-1.053l-2.02 9.133c-2.02.438-4.3 1.054-6.32 1.054-7.99 0-13.61-3.16-13.61-11.856 0-3.508.7-6.933 1.49-10.533l3.337-15.27h-8.52l1.846-8.607m-3.934 16.156c0-11.506-7.377-17.21-18.526-17.21-14.84 0-25.73 13.523-25.73 27.57 0 13.436 8.78 19.756 21.78 19.756 4.827 0 9.832-1.14 14.4-2.544l1.493-9.31c-4.394 2.02-9.047 3.25-13.876 3.25-7.522 0-11.92-2.673-12.485-9.783h-.01c-.02-.414-.06-.817-.06-1.25 0-.084.005-.168.005-.25l-.002-.134h.007c.056-3.098.735-6.154 1.915-8.97 2.26-5.758 5.46-9.734 12.39-9.734 4.92 0 7.466 2.72 7.466 7.55 0 1.053-.09 2.02-.262 3.073h-16.1c-1.045 3.552-1.228 5.935-1.25 8.076h27.71c.7-3.337 1.14-6.674 1.14-10.1m39.832-11.15c.35-1.752.702-3.6.966-5.002h10.973l-1.057 6.06h.175c3.16-4.654 8.34-7.11 13.872-7.11 5.355 0 10.888 3.16 11.5 8.603h.178c2.985-5.882 9.57-8.603 15.893-8.603 6.764 0 12.56 5.53 12.56 12.38 0 4.038-1.05 8.606-2.018 12.293l-4.745 21.6h-11.76l4.743-22.044c.613-2.72 1.493-6.937 1.493-9.657 0-3.34-2.546-5.448-5.532-5.448-8.166 0-10.185 9.483-11.68 15.632l-4.65 21.51h-11.77l4.742-22.04c.613-2.72 1.494-6.937 1.494-9.657 0-3.338-2.544-5.447-5.53-5.447-7.99 0-10.187 9.574-11.68 15.633l-4.653 21.51H204.62l8.252-40.214M357.08 95.35c-1.265-.687-4.514-1.654-7.85-1.654-3.51 0-7.902.966-7.902 4.563 0 5.71 15.278 7.82 15.278 18.88 0 11.767-10.272 15.28-20.37 15.28-4.74 0-9.484-.7-13.788-2.72l2.548-9.394c3.337 1.843 6.674 3.51 11.24 3.51 3.952 0 8.08-1.318 8.08-5.003 0-7.29-15.28-7.994-15.28-19.32 0-10.623 10.272-14.398 19.58-14.398 4.302 0 8.693.79 11.012 1.39l-2.548 8.868m7.515-9.207h8.52l2.018-9.307 12.645-4.13-2.898 13.437h10.536l-1.844 8.607h-10.538l-4.3 19.756a18.65 18.65 0 0 0-.527 4.39c0 2.722 1.845 4.39 4.477 4.39 2.108 0 4.215-.438 5.707-1.054l-2.01 9.133c-2.02.436-4.3 1.052-6.32 1.052-7.992 0-13.61-3.16-13.61-11.854 0-3.51.7-6.934 1.49-10.534l3.338-15.275h-8.516l1.84-8.607m79.77 6.06c.35-1.933.705-3.952 1.056-6.06h11.24l-1.58 8.52h.176c2.107-4.92 7.9-9.572 13.344-9.572 1.494 0 3.075.086 4.48.44l-2.46 11.503c-1.317-.44-2.985-.704-4.476-.704-8.343 0-12.383 7.463-13.875 14.752l-4.213 20.28h-11.77l8.08-39.16m-8.166 10.098c0-11.504-7.377-17.21-18.528-17.21-14.838 0-25.727 13.525-25.727 27.573 0 13.434 8.77 19.754 21.77 19.754 4.83 0 9.836-1.14 14.4-2.544l1.494-9.31c-4.392 2.02-9.044 3.25-13.872 3.25-7.53 0-11.924-2.674-12.49-9.784h-.01c-.02-.415-.06-.818-.06-1.25 0-.085.006-.17.008-.25 0-.047-.004-.088-.004-.135h.007c.05-3.098.73-6.154 1.91-8.97 2.26-5.758 5.458-9.734 12.392-9.734 4.915 0 7.463 2.72 7.463 7.55 0 1.05-.085 2.02-.26 3.07h-16.1c-1.044 3.554-1.23 5.937-1.25 8.078h27.71c.7-3.338 1.14-6.675 1.14-10.1m51.588-9.53h2.305c1.495 0 2.46-.31 2.46-1.86 0-1.35-1.212-1.746-2.46-1.746h-2.303v3.606zm-1.942-5.13h4.56c2.738 0 4.085 1.105 4.085 3.36 0 1.915-1.21 3.295-3.077 3.295l3.39 5.27h-2.06l-3.325-5.27h-1.626v5.27h-1.943v-11.92zm3.918 14.624c4.67 0 8.197-3.777 8.197-8.645 0-4.876-3.526-8.65-8.195-8.65-4.73 0-8.262 3.774-8.262 8.65 0 4.866 3.533 8.643 8.264 8.643zm-.03-18.818c5.6 0 10.17 4.56 10.17 10.173 0 5.6-4.57 10.155-10.17 10.155s-10.173-4.558-10.173-10.157c0-5.615 4.57-10.175 10.172-10.175" fill="#100f0d"/></svg>