<svg xmlns="http://www.w3.org/2000/svg" viewBox="0 0 500 200" height="200" width="500"><path d="M48.913 85.655c0-5.89 4.775-10.664 10.665-10.664 5.89 0 10.666 4.776 10.666 10.665 0 1.24-.222 2.423-.61 3.53l24.965 28.81a11.2 11.2 0 0 1 3.905-.714c.957 0 1.88.135 2.768.36l37.532-40.72c-6.784-8.017-16.733-13.27-27.924-13.813-7.87-10.804-20.612-17.829-35-17.829-22.58 0-41.114 17.29-43.107 39.35a30.6 30.6 0 0 0-2.513-.11C13.547 84.52 0 98.064 0 114.775c0 5.377 1.41 10.423 3.868 14.8l45.186-42.27c-.084-.54-.14-1.088-.14-1.65zm99.136 16.397a39.11 39.11 0 0 0-1.64-11.133l-37.162 34.358a11.18 11.18 0 0 1 .476 3.222c0 6.197-5.023 11.22-11.22 11.22-6.194 0-11.217-5.023-11.217-11.22 0-1.31.237-2.564.65-3.734L63.1 95.714a10.66 10.66 0 0 1-3.522.606c-1.06 0-2.084-.16-3.05-.45l-48.85 39.04A30.143 30.143 0 0 0 30.258 145h109.846c.718 0 1.308-.012 1.757-.01 12.102 0 21.914-9.812 21.914-21.915 0-9.952-6.636-18.35-15.725-21.02" fill="#3bb3e4"/><path d="M491.55 80.36l-2.186 17.683a1165.37 1165.37 0 0 0-1.72 15.767h-.096c-.53-5.832-1.328-10.8-2.122-15.833l-2.982-17.617h-7.02l-3.182 17.746c-.927 5.368-1.92 10.206-2.515 15.704h-.196c-.532-5.43-.93-10.53-1.527-15.637l-2.185-17.813h-9.014l7.622 44.64h8.61l2.978-14.567c.928-4.372 1.656-9.34 2.454-14.707h.092c.598 5.432 1.255 10.53 1.992 14.642l2.64 14.632h8.948l7.88-44.64h-8.475zm-47.887 25.04h10.194v-7.227h-10.194v-10.26h10.726V80.36h-19.405V125h20.203v-7.544h-11.525V105.4zM419.877 125h8.68V80.36h-8.68V125zm-16.352-25.56c-.8 5.03-1.525 10.396-2.123 15.69h-.09c-.597-5.227-1.526-10.725-2.32-15.497l-3.18-19.273h-9.607L396.207 125h9.736l10.204-44.64h-9.54l-3.047 19.08zm-32.064 7.616h3.984v10.79c-.337.093-.932.206-1.73.206-4.04 0-8.215-3.843-8.215-14.578 0-11.654 4.706-15.693 10.6-15.693 2.188 0 3.844.328 5.1.99l1.524-7.48c-1.394-.662-3.906-1.33-7.28-1.33-9.48 0-18.754 6.762-18.95 22.984-.095 7.685 1.924 14.307 5.767 18.02 2.978 2.975 6.82 4.436 11.917 4.436 3.246 0 7.358-.79 9.276-1.592v-23.84H371.46v7.088zM344.71 90.23c0 8.213.595 15.96.855 20.668h-.093c-1.258-3.842-3.444-9.61-4.767-13.052l-6.89-17.486h-7.95V125h7.616v-10.065c0-8.94-.33-15.834-.53-20.334h.094c.996 4.037 3.05 9.675 4.51 13.442L344.377 125h7.95V80.36h-7.617v9.87zM310.728 125h8.68V80.36h-8.68V125zm-22.326-6.754c-.464 0-1.125 0-1.515-.093v-30.8c.52-.2 1.126-.2 1.72-.2 5.23 0 7.61 5.567 7.61 14.704 0 12.32-3.637 16.427-7.815 16.427zm-1.386-38.085c-3.45 0-6.623.33-8.808.862v43.848c1.72.194 4.438.463 7.152.463 6.223 0 10.662-1.394 13.637-4.306 3.916-3.442 6.233-9.868 6.233-18.872 0-8.68-1.99-14.577-5.832-18.02-2.848-2.65-6.754-3.974-12.382-3.974zm-31.2 27.882l1.656-9.265c.467-2.586 1.128-7.228 1.592-10.204h.195c.4 2.976.995 7.423 1.46 10.14l1.46 9.33h-6.364zm-1.59-27.682L244.554 125h8.418l1.982-10.195h8.02L264.886 125h8.418l-8.68-44.64h-10.398zm-27.29 20.14h-1.518V87.177c.466-.194 1.322-.26 2.046-.26 3.918.094 5.434 2.846 5.434 6.622 0 3.905-2.186 6.96-5.962 6.96zm7.822 3.57v-.093c4.567-2.12 6.884-6.426 6.884-11.195 0-3.84-.792-6.822-3.51-9.274-2.92-2.65-7.15-3.31-11.923-3.31-3.313 0-6.755.332-9.47.864v43.976h8.678v-17.822h1.257c2.912 0 4.307 1.59 5.096 7.156.662 4.9 1.657 9.404 2.187 10.663h9.08c-.8-1.656-1.99-7.155-2.857-12.123-.855-4.767-2.38-7.616-5.422-8.81zm-47.096-15.69h7.878V125h8.68V88.38h7.953v-8.02h-24.51v8.02" fill="#444a4c"/></svg>