<svg width="500" height="200" xmlns="http://www.w3.org/2000/svg"><path fill="none" d="M-1-1h502v202H-1z"/><path d="M42.25 73.904V87.64h-9.44v-4.22h-5.37v33.16h4.146v9.513H11.17v-9.514h4.144V83.42h-5.37v4.22H.423V73.905H42.25zm35.22 0c11.204 0 17.88 5.91 17.88 16.58 0 6.907-3.377 12.434-9.13 14.503l9.13 11.592h3.3v9.513H77.465v-9.514h2.455l-7.137-9.598h-5.757v9.597h4.143v9.513H50.68v-9.514h4.146V83.42H50.68v-9.516h26.79zM67.027 97.542h8.983c3.758 0 6.83-2.072 6.83-7.062 0-4.987-2.993-7.06-6.68-7.06h-9.132v14.12zm85.756-23.638v9.517h-4.067v24.256c0 13.734-8.675 19.187-21.03 19.187-12.36 0-21.03-5.45-21.03-19.187V83.42h-4.144v-9.516h20.492v9.517h-4.146v24.256c0 5.447 1.995 9.667 8.903 9.667 6.68 0 8.75-4.22 8.75-9.667V83.42h-4.145v-9.516h20.418zm59.083 0v9.517h-4.07v42.676h-12.51L176.33 95.93h-.153v20.65h4.453v9.513h-19.802v-9.514h4.146V83.42h-4.146v-9.516h16.042l19.57 31.85h.155V83.42h-4.45v-9.516h19.72zm29.118 0v9.517h-4.143v14.892l14.273-14.89h-3.223v-9.518h22.106v9.517h-4.3l-13.05 12.894 14.43 20.267h3.682v9.516h-22.79v-9.515h3.682l-8.213-11.743-6.6 6.368v5.376h4.145v9.516H220.49v-9.515h4.14V83.42h-4.14v-9.516h20.494zm102.098 36.916v13.048c-7.366 2.225-12.816 2.992-19.187 2.992-18.574 0-23.718-12.282-23.718-27.244 0-14.89 5.144-26.48 23.718-26.48 6.37 0 11.818.768 19.187 2.993v13.046h-9.514v-5.68c-3.686-.69-6.065-.845-8.673-.845-8.523 0-11.822 6.983-11.822 16.964 0 10.744 3.3 17.724 11.822 17.724 2.608 0 4.987-.077 8.673-.84v-5.682h9.514v.003zm49.684 1.536v13.737H352.63v-9.514h4.142V83.42h-4.143v-9.516h20.49v9.517h-4.145v33.16h14.277v-4.22h9.514v-.004zm52.984-38.452v9.517h-4.07v24.256c0 13.734-8.67 19.187-21.026 19.187-12.36 0-21.03-5.45-21.03-19.187V83.42h-4.145v-9.516h20.49v9.517h-4.142v24.256c0 5.447 1.994 9.667 8.903 9.667 6.68 0 8.748-4.22 8.748-9.667V83.42h-4.144v-9.516h20.416zm44.696 25.173c5.295 1.688 9.13 5.757 9.13 12.586 0 9.056-5.984 14.43-17.192 14.43H454.14v-9.514h4.146V83.42h-4.146v-9.516h26.71c11.205 0 17.195 4.76 17.195 13.354 0 5.524-3.072 9.824-7.6 11.668v.15zM479.47 83.42h-8.98v11.13h8.98c3.758 0 5.677-2.226 5.677-5.602.002-3.225-1.916-5.53-5.678-5.53zm-8.978 20.647v12.512h9.9c3.683 0 6.295-1.922 6.295-6.298 0-4.223-2.61-6.215-6.522-6.215h-9.673z" stroke="null"/></svg>