<svg xmlns="http://www.w3.org/2000/svg" viewBox="0 0 375 150" height="150" width="375"><path d="M182.838 86.044h-.022l-.514-.007c-16.315 0-29.612-3.997-39.36-10.1 9.75-6.116 23.06-10.122 39.394-10.122l.512-.005h.02l.514.005c16.316 0 29.61 3.998 39.36 10.1-9.75 6.116-23.06 10.122-39.393 10.122l-.51.006zm79.2-10.124c27.547-12.118 45.53-30.313 46.508-50.502 0 0-7.267-5.606-30.743-14.238-20.628-7.586-36.35-9.326-36.35-9.326l.07 44.984c0 6.72-2.696 13.584-7.79 19.656-15.585-3.768-32.807-5.874-50.87-5.88h-.01c-18.084.006-35.324 2.117-50.923 5.892-5.1-6.074-7.8-12.943-7.8-19.668l.068-44.984s-15.722 1.74-36.35 9.326c-23.478 8.632-30.74 14.238-30.74 14.238.974 20.195 18.972 38.397 46.54 50.517-27.55 12.115-45.534 30.312-46.51 50.5 0 0 7.263 5.604 30.74 14.24C108.506 148.26 124.23 150 124.23 150l-.07-44.986c0-6.72 2.697-13.583 7.788-19.656 15.587 3.77 32.807 5.874 50.868 5.88h.014c18.08-.006 35.322-2.117 50.923-5.892 5.1 6.074 7.8 12.944 7.8 19.668l-.07 44.986s15.723-1.74 36.35-9.326c23.48-8.635 30.742-14.24 30.742-14.24-.977-20.194-18.973-38.397-46.54-50.514m48.783 44.875c0-1.943 1.748-3.493 3.524-3.493 2 0 3.55 1.55 3.55 3.493-.002 1.944-1.607 3.606-3.637 3.606-1.942 0-3.437-1.66-3.437-3.604zm3.524 2.732c1.575 0 2.704-1.184 2.704-2.732 0-1.522-1.155-2.647-2.79-2.647-1.38 0-2.676 1.238-2.676 2.647 0 1.548 1.21 2.732 2.762 2.732zm-1.38-1.044l-.002-3.04c0-.45.057-.562.48-.562h1.548c.733 0 1.127.59 1.127 1.186 0 .62-.28 1.098-.9 1.098.197.366.478.9.675 1.237.28.51-.478.62-.59.51-.45-.65-.734-1.21-1.044-1.663h-.534v1.352c0 .367-.31.395-.48.395-.28 0-.28-.283-.28-.51zm.73-2.11h.987c.505 0 .593-.14.593-.365v-.058c0-.28-.088-.45-.593-.45h-.985v.874" fill="#0a0a09"/></svg>