<svg xmlns="http://www.w3.org/2000/svg" viewBox="0 0 471 94.73"><path fill="#4da4df" stroke="#4da4df" d="M251.81 48.37v44.41h-5V48.37c0-10-2.78-18-13.23-18-6.46 0-12 2.81-15.91 5.34a43.42 43.42 0 0 1 1.69 12.66v44.41h-5V48.37c0-10-2.79-18-13.43-18a28.47 28.47 0 0 0-14 4.22v58.18h-5V30.56c3.56-2.51 11-7.17 19.66-7.17a14.86 14.86 0 0 1 13.23 7c4.18-3.09 10.94-7 19.09-7 11.24 0 17.9 8.43 17.9 25zm47.69 3.68v20.8c0 18.55-13.43 20.94-19.49 20.94-6.27 0-20.09-2.81-20.09-21.23 0-21.23 18.6-22.06 23.07-22.06a40.66 40.66 0 0 1 11.51 1.41c0-14.32-5-21.54-15.92-21.54a35 35 0 0 0-13.72 3.09v-6.71a33.55 33.55 0 0 1 14-3.24c14.32 0 20.59 10 20.59 28.54zm-4.87 6.18a55.31 55.31 0 0 0-12.23-1.27c-6.07 0-17.6 2-17.6 15.6 0 12.51 9.25 14.9 15.21 14.9s14.62-2.25 14.62-14.61zm52.7-9.86v44.41h-5V48.37c0-10-3-18-14.22-18a32.38 32.38 0 0 0-15.32 4.36v58h-4.87V30.7c3.38-2.53 11.34-7.33 20.69-7.33 11.84 0 18.69 8.43 18.69 25z"/><path fill="#2c3e50" stroke="#2c3e50" d="M133.82 67.8V23.37h5v44.41c0 10 3 18 14.22 18a32.41 32.41 0 0 0 15.32-4.35v-58h4.87v62.14c-3.38 2.53-11.34 7.31-20.69 7.31-11.86-.07-18.72-8.51-18.72-25.08z"/><path fill="#2c3e50" d="M363.86 93.74V1.68h2.78v92.05zm20.6-83h3v4h-3zm.1 16.7h2.78v66.34h-2.78zm25.94-8.47v8.4h15.1v3.38h-15.1v63h-2.7v-63h-7v-3.38h7v-8.26C407.8.28 417.14 0 420.52 0a16.61 16.61 0 0 1 5.57 1.13v3.51a14.88 14.88 0 0 0-5.17-1.13c-3.48 0-10.42.28-10.42 15.46zm60.51 41.32c-.1 1.69-.1 2.11-.1 2.39h-38.34c0 1.27 0 1.95.11 3.09.7 18.69 9.54 25.16 19.7 25.16 5.74 0 11.37-1.54 15.29-4.35v4.07a31.26 31.26 0 0 1-15.49 4.08c-11.16 0-22.53-7.31-22.53-33.31 0-13.35 3.62-35 21.22-35 19.1 0 20.11 27.69 20.11 33.87zm-38.41-1.13h35.5v-1.54c-.2-7.31-2.21-27.55-17.3-27.55-13 0-17.92 13.21-18.22 29.09z"/><path fill="#1abc9c" d="M84.87 20.37c-3.84-3.52-18.38 4-27 22.23s-8 40.06-4.2 43.7c3.82 3.49 18.37-4.08 26.94-22.25s8.01-40 4.26-43.68zm-6 42c-7.85 16.63-20.65 24-23.89 21.05s-3.27-22.65 4.58-39.26 20.64-24 23.89-21.06c3.18 3.13 3.26 22.67-4.58 39.28zM46.08 42.55C37.5 24.37 22.95 16.8 19.14 20.29s-4.38 25.53 4.2 43.7S46.5 89.74 50.28 86.25s4.38-25.53-4.2-43.7zm3 40.82c-3.24 3-16-4.43-23.9-21.06s-7.84-36.13-4.68-39.26c3.31-3 16.11 4.43 24 21s7.71 36.22 4.53 39.32z"/><path d="M52.02 2.19c-4.52.09-13.67 18.68-13.67 41.6s9.15 41.49 13.67 41.58c4.54-.09 13.67-18.67 13.67-41.59S56.57 2.29 52.02 2.19zm1.83 76.67l-.53 4.51-1.5 1-1.32-4.92c-3.65-3.36-9-18-9-35.66 0-20.06 7-36.32 10.41-36.42 3.46.08 10.42 16.34 10.42 36.4.01 16.8-4.83 30.89-8.48 35.09z"/><path fill="#4da4df" d="M103.78 55.37c-1.83-5.88-16.92-10.87-31.16-2.36S50.39 80.28 52.1 86.24s16.93 10.87 31.16 2.36 22.24-27.23 20.52-33.23zM81.95 84.23c-12.46 7.45-25.27 4.42-26.67-.06s6.1-19.63 18.56-27.07 25.27-4.42 26.67.06-6.1 19.63-18.56 27.07zM31.4 53.13C17.16 44.62 2.07 49.61.24 55.5S6.5 80.27 20.75 88.78s29.34 3.51 31.16-2.37-6.27-24.77-20.51-33.28zm17.33 31.24c-1.39 4.48-14.2 7.5-26.67.06S2.2 61.89 3.5 57.37s14.21-7.5 26.67-.06 19.86 22.47 18.56 27.06z"/><path fill="#1abc9c" d="M84.65 43.17a72.94 72.94 0 0 1-4.49 16.29l2.42.08a76.35 76.35 0 0 0 4.28-17.23zM24.35 60.6a72 72 0 0 1-4.79-16.15l-2.23-.65a75.1 75.1 0 0 0 4.72 17.31z"/></svg>
