<svg id="UNCOVERTRUTH" data-name="UNCOVERTRUTH" xmlns="http://www.w3.org/2000/svg" viewBox="0 0 297.36 24.9"><defs><style>.cls-1{fill:#cacccd;}.cls-2{fill:#241714;}.cls-3{fill:#b4b4b5;}.cls-4{fill:#5a5757;}.cls-5{fill:#dbdcdc;}.cls-6{fill:#888;}</style></defs><title>ut-logo500x200</title><path class="cls-1" d="M138.88,91c.41,0,1.92.1,3.23.1s2.33-.1,2.93-.1c.1.1.1.4,0,.4a4.22,4.22,0,0,0-1.31.3c-.51.2-.71.4-.71,1.7-.1,2.4-.1,7.9,0,9.5.1,2.2.51,3.2,1.21,4a6.07,6.07,0,0,0,4.75,1.9c2.93,0,5.26-1.1,5.46-5.9.1-2.3.2-5.8.1-9,0-1.9-.61-2.1-1.31-2.2-.41-.1-.71-.1-1.32-.2-.1-.1,0-.4,0-.4.41,0,1.42.1,3.13.1,1.22,0,2.13-.1,2.63-.1.1.1.1.4,0,.4-.4.1-.81.1-1.11.2-.71.2-1,.7-1,2.4,0,7.9,0,8.9-.41,10.8-.8,3.9-3.93,5-6.86,5q-6.37,0-7-5.4c-.21-1.8-.11-9.6-.21-11.1,0-.8,0-1.4-.7-1.6-.31-.1-1.11-.2-1.52-.3A.45.45,0,0,1,138.88,91Zm22.33,0c.4,0,1.81.1,2.72.1h1.32a13.49,13.49,0,0,0,1.21,1.6c3.53,4.2,10.61,12.8,11.72,14a.1.1,0,0,0,.1-.1c0-4,.1-11.2-.1-13.3-.1-.8-.21-1.3-1-1.6-.51-.1-1.11-.2-1.82-.3-.1-.1,0-.4,0-.4.71,0,2,.1,3.43.1.81,0,2.43-.1,2.73-.1.1.1.1.4,0,.4-.5.1-.81.1-1.21.2-.71.2-.91.8-1,1.5-.1,2.2-.1,8.4-.2,12.4,0,1.3,0,3,.1,3.9h-1.52c-1.51-2.2-11-13.7-12.42-15.4h-.1v12.6c.1,1.5.5,1.8,1.11,2,.4.1,1,.2,1.61.3.1,0,0,.4,0,.4-.6,0-1.82-.1-3.43-.1-1.31,0-2.33.1-2.93.1-.1-.1-.1-.4,0-.4.6-.1.81-.1,1.21-.2.71-.2,1.21-.5,1.21-2.1.1-1.4.21-6.9.21-13.1a2.16,2.16,0,0,0-.51-1.3c-.61-.7-1.31-.8-2.53-.9C161.1,91.4,161.1,91.1,161.21,91Zm37.07,1a8.21,8.21,0,0,0-3.84-.7c-4.75,0-7.58,3.3-7.58,8.6,0,5.7,3.34,9.2,8.59,9.2a5.27,5.27,0,0,0,3.64-1.2,9.32,9.32,0,0,0,1.92-2.7c.1,0,.4.1.4.2-.4,1.5-1.62,3.6-2.22,3.9a14.46,14.46,0,0,1-4.35.6c-6.36,0-10.2-3.6-10.2-9.8a8.86,8.86,0,0,1,4.65-8.1,12.16,12.16,0,0,1,6.16-1.4,52.48,52.48,0,0,1,5.56.6,24.38,24.38,0,0,0-.51,4.2c-.1.1-.5.2-.5.1C199.59,93,199.19,92.4,198.28,92Zm9.29,15.1A10.16,10.16,0,0,1,205,100a9.16,9.16,0,0,1,1.71-5.5,10.6,10.6,0,0,1,8.08-4c6.07,0,9.1,4.5,9.1,9.3a10,10,0,0,1-1.82,6.1,9.49,9.49,0,0,1-7.88,4A8.87,8.87,0,0,1,207.57,107.1Zm11.42.7c2.12-1.6,2.83-4.1,2.83-7,0-3.1-1.12-6.3-3.74-8.1a7.69,7.69,0,0,0-4.35-1.3,6.77,6.77,0,0,0-3,.7c-2.42,1.3-3.43,4.2-3.43,7.3s1.21,6.6,4,8.4a7.73,7.73,0,0,0,4.14,1.1A4.71,4.71,0,0,0,219,107.8ZM225.76,91c.6,0,2,.1,3.23.1,1.72,0,2.52-.1,3.13-.1.1.1.1.4,0,.4a8.47,8.47,0,0,0-1.31.3c-.41.1-.61.4-.41.8,1,2.8,4.85,12.7,5.36,14h.1c.4-.8,4.34-10.6,5.25-13.1.3-1,.3-1.5-.61-1.7-.5-.1-.8-.1-1.41-.2,0-.1,0-.4.1-.4.71,0,1.72.1,3,.1s2.32-.1,2.83-.1v.4a5.1,5.1,0,0,0-1.21.2c-.91.2-1.11.7-2,2.8s-3.44,8.1-4.85,11.7a24.07,24.07,0,0,0-1.11,3.3,2.08,2.08,0,0,0-1.11,0,37.72,37.72,0,0,0-1.32-4.1c-1.51-4-3.73-9.8-4.64-12.1-.51-1.3-.91-1.6-1.62-1.8-.4-.1-.91-.1-1.31-.2C225.65,91.4,225.65,91.1,225.76,91Zm22.93,0c.7,0,1.61.1,3.33.1h6.16a27.81,27.81,0,0,0,3.23-.1l.11.1a23.85,23.85,0,0,0-.61,3.8.47.47,0,0,1-.51,0,16.45,16.45,0,0,0-.3-1.8c-.2-.7-.4-1.2-1.82-1.3-.81,0-4.34-.1-4.85,0-.2,0-.3.3-.3.4-.1,1.1-.1,6.7-.1,7,0,.1,0,.2.1.2.81.1,4.14,0,5.15,0s1.22-.5,1.42-1c.1-.3.2-.7.3-1.1.1-.1.51,0,.51,0a16.19,16.19,0,0,0-.21,2.7c0,1.3.1,1.9.1,2.4-.1.1-.5.1-.5,0-.1-.4-.1-.7-.2-1s-.2-1-1.32-1a44.24,44.24,0,0,0-5.15,0c-.1,0-.1.2-.1.2,0,.5,0,4.9.1,6.7a1,1,0,0,0,.81,1.1,27.74,27.74,0,0,0,4,.2c1.92,0,2.32-.4,2.73-.8a8,8,0,0,0,1.72-2.7.76.76,0,0,1,.4.2,14.43,14.43,0,0,1-1.31,3.7c-.21.3-.31.3-1.92.3s-2.63-.1-7.58-.1c-2.12,0-2.93.1-4.14.1-.1-.1-.1-.4,0-.4.81-.1,1.41-.1,2-.2.81-.2,1-.5,1.11-1.7,0-.4.1-4,.1-7.5,0-3,0-5.8-.1-6.3-.1-1.2-.2-1.5-1-1.6a5.5,5.5,0,0,0-1.51-.2S248.59,91.1,248.69,91Zm18.89,0c.7,0,2.22.1,3,.1,2,0,3.53-.1,4.64-.1,3.54,0,6.06,2.1,6.06,4.5,0,2.6-2.62,4-4.44,4.8-.1.1-.1.1,0,.1a54.3,54.3,0,0,0,5.25,6.9c1.52,1.4,2,1.6,3.54,1.7,0,.1,0,.4-.1.4a11.83,11.83,0,0,1-4.25-.5,4.27,4.27,0,0,1-1.41-1.1c-1.21-1.2-3.33-4.7-4.65-6.3a.79.79,0,0,0-.7-.5h-2.43c-.1,0-.1.1-.1.2,0,1.6,0,4.7.1,5.8,0,1.3.31,1.5.81,1.6l1.62.3c.1.1.1.4,0,.4-.41,0-2.12-.1-3.44-.1-1.92,0-3,.1-3.53.1-.1,0-.1-.4,0-.4.6-.1,1.21-.1,1.51-.2.71-.2.91-.6,1-1.7,0-.8.1-5.1.1-6.6,0-1.7,0-6.4-.1-7.5,0-.7-.2-1.2-1-1.3-.4-.1-1-.1-1.51-.2C267.48,91.4,267.48,91.1,267.58,91Zm4.64.8c-.1,0-.2.2-.2.4-.1,1-.1,5.9-.1,7.8a.1.1,0,0,0,.1.1,12.2,12.2,0,0,0,3.84-.1c1.11-.4,3.33-1.4,3.33-4,0-2.8-2.52-4.4-6-4.4C272.93,91.7,272.53,91.7,272.22,91.8Zm36.37,17.7c-.91,0-2.63-.1-3.64-.1-1.61,0-3.23.1-4.14.1-.1-.1-.1-.4,0-.4a14.77,14.77,0,0,0,2-.3c.91-.1,1-.8,1.11-2.1,0-.9.1-9.7.1-14.5a.22.22,0,0,0-.2-.2H299.4a1.51,1.51,0,0,0-1.11.7,12.68,12.68,0,0,0-1.12,2.6c-.1.1-.4,0-.5-.1a34.41,34.41,0,0,0,.5-4.5s.11-.1.11,0a6.73,6.73,0,0,0,2.22.4h11.21a5.4,5.4,0,0,0,2.53-.4.1.1,0,0,1,.1.1,22.5,22.5,0,0,0-.61,4.4c0,.1-.5.1-.5,0a17.13,17.13,0,0,0-.41-2.4,1.09,1.09,0,0,0-1.11-.8,35.84,35.84,0,0,0-4.65,0c-.1,0-.1.2-.1.3,0,4.3.1,13,.1,14.4.11,1.9.41,2,1.12,2.2a5.44,5.44,0,0,0,1.51.2S308.69,109.5,308.59,109.5ZM316.87,91c.71,0,2.23.1,3,.1,2,0,3.54-.1,4.65-.1,3.54,0,6.06,2.1,6.06,4.5,0,2.6-2.63,4-4.44,4.8-.1.1-.1.1,0,.1a54.3,54.3,0,0,0,5.25,6.9c1.51,1.4,2,1.6,3.53,1.7,0,.1,0,.4-.1.4a11.78,11.78,0,0,1-4.24-.5,4.17,4.17,0,0,1-1.41-1.1c-1.22-1.2-3.34-4.7-4.65-6.3a.79.79,0,0,0-.71-.5h-2.42c-.1,0-.1.1-.1.2,0,1.6,0,4.7.1,5.8,0,1.3.3,1.5.81,1.6l1.61.3c.1.1.1.4,0,.4-.4,0-2.12-.1-3.43-.1-1.92,0-3,.1-3.54.1-.1,0-.1-.4,0-.4.61-.1,1.22-.1,1.52-.2.71-.2.91-.6,1-1.7,0-.8.1-5.1.1-6.6,0-1.7,0-6.4-.1-7.5,0-.7-.2-1.2-1-1.3-.41-.1-1-.1-1.52-.2C316.77,91.4,316.77,91.1,316.87,91Zm4.65.8c-.1,0-.2.2-.2.4-.1,1-.1,5.9-.1,7.8a.1.1,0,0,0,.1.1,12.2,12.2,0,0,0,3.84-.1c1.11-.4,3.33-1.4,3.33-4,0-2.8-2.53-4.4-6-4.4C322.23,91.7,321.82,91.7,321.52,91.8Zm14.34-.8c.41,0,1.92.1,3.24.1s2.32-.1,2.93-.1c.1.1.1.4,0,.4a4.29,4.29,0,0,0-1.32.3c-.5.2-.7.4-.7,1.7-.11,2.4-.11,7.9,0,9.5.1,2.2.5,3.2,1.21,4a6.06,6.06,0,0,0,4.75,1.9c2.93,0,5.25-1.1,5.45-5.9.1-2.3.2-5.8.1-9,0-1.9-.6-2.1-1.31-2.2-.41-.1-.71-.1-1.31-.2-.11-.1,0-.4,0-.4.4,0,1.41.1,3.13.1,1.21,0,2.12-.1,2.62-.1.1.1.1.4,0,.4-.4.1-.8.1-1.11.2-.71.2-1,.7-1,2.4-.1,7.9-.1,8.9-.5,10.8-.81,3.9-3.94,5-6.87,5q-6.37,0-7-5.4c-.2-1.8-.1-9.6-.2-11.1,0-.8,0-1.4-.71-1.6-.3-.1-1.11-.2-1.52-.3C335.76,91.4,335.76,91.1,335.86,91Zm34.65,18.5c-.91,0-2.62-.1-3.63-.1-1.62,0-3.24.1-4.15.1-.1-.1-.1-.4,0-.4a14.77,14.77,0,0,0,2-.3c.91-.1,1-.8,1.12-2.1,0-.9.1-9.7.1-14.5a.22.22,0,0,0-.2-.2h-4.45a1.53,1.53,0,0,0-1.11.7,12.69,12.69,0,0,0-1.11,2.6c-.1.1-.41,0-.51-.1a34.44,34.44,0,0,0,.51-4.5s.1-.1.1,0a6.73,6.73,0,0,0,2.22.4h11.21a5.4,5.4,0,0,0,2.53-.4.1.1,0,0,1,.1.1,24.14,24.14,0,0,0-.61,4.4c0,.1-.5.1-.5,0a17.16,17.16,0,0,0-.4-2.4,1.11,1.11,0,0,0-1.12-.8A35.68,35.68,0,0,0,368,92c-.1,0-.1.2-.1.3,0,4.3.1,13,.1,14.4.1,1.9.4,2,1.11,2.2a5.5,5.5,0,0,0,1.51.2S370.61,109.5,370.51,109.5ZM379.4,91c1,0,2.53.1,3.44.1,1.61,0,2.32-.1,3.13-.1.1.1.1.4,0,.4a4.31,4.31,0,0,0-1.21.2c-.71.3-.91.4-.91,1.4-.1,1.2-.1,3.2-.1,6.3a.35.35,0,0,0,.1.2c.1,0,.5.1,5.55.1h5a.1.1,0,0,0,.1-.1c0-1.5,0-5.7-.1-6.6,0-.6-.2-.9-.6-1l-1.52-.3c-.1-.1-.1-.4,0-.4.61,0,1.82.1,3.23.1,1.22,0,2.73-.1,3.24-.1.1.1.1.4,0,.4a4.29,4.29,0,0,0-1.32.3c-.6.2-.91.4-.91,1.7,0,.8-.1,3.4-.1,6.8,0,2.6,0,6.3.1,7.2s.21,1.1.81,1.3a12,12,0,0,0,1.62.3c.1.1.1.4-.1.4-1.21,0-1.92-.1-3.34-.1s-2.62.1-3.33.1c-.1-.1-.1-.4,0-.4.51-.1.91-.1,1.52-.2s.8-.4.8-1.5V101a.35.35,0,0,0-.1-.2h-10.6c-.1,0-.1.1-.1.2,0,1.5,0,5.7.1,6.1.1,1,0,1.6.7,1.8a9.46,9.46,0,0,0,1.62.3c.1.1,0,.4-.1.4-.91,0-2.12-.1-3.23-.1s-2.83.1-3.54.1c-.1-.1-.1-.4,0-.4a13.51,13.51,0,0,0,1.52-.3c.9-.3.9-1,.9-2.3V100c0-2.9,0-6.3-.1-6.8-.1-.9-.3-1.2-.8-1.3s-.91-.1-1.62-.3C379.3,91.4,379.3,91.1,379.4,91Z" transform="translate(-101.61 -87.8)"/><rect class="cls-2" x="6.57" width="5.76" height="5.7"/><rect class="cls-3" x="13.13" width="5.76" height="5.7"/><rect class="cls-4" x="19.7" width="5.76" height="5.7"/><rect class="cls-5" y="6.4" width="5.76" height="5.7"/><rect class="cls-6" x="13.13" y="6.4" width="5.76" height="5.7"/><rect class="cls-6" y="12.8" width="5.76" height="5.7"/><rect class="cls-3" x="13.13" y="12.8" width="5.76" height="5.7"/><rect class="cls-5" x="19.7" y="12.8" width="5.76" height="5.7"/><rect class="cls-6" x="6.57" y="19.2" width="5.76" height="5.7"/><rect class="cls-4" x="19.7" y="19.2" width="5.76" height="5.7"/></svg>
