<svg fill="none" height="200" viewBox="0 0 500 200" width="500" xmlns="http://www.w3.org/2000/svg" xmlns:xlink="http://www.w3.org/1999/xlink"><radialGradient id="a" cx="0" cy="0" gradientTransform="matrix(-79.05112219 47.09401165 -54.22961995 -91.02882007 516.819 100)" gradientUnits="userSpaceOnUse" r="1"><stop offset="0" stop-color="#ffc700"/><stop offset="1" stop-color="#ffedab"/></radialGradient><clipPath id="b"><path d="m0 0h500v200h-500z"/></clipPath><g clip-path="url(#b)"><g fill="#000"><path d="m6.36289 107.021v-34.1907h-6.36289v34.1907c0 12.718 6.36289 20.574 20.2456 20.574 13.5211 0 20.2456-7.856 20.2456-20.574v-34.1907h-6.363v34.1907c0 10.474-4.6998 14.738-13.8826 14.738s-13.88271-4.264-13.88271-14.738z"/><path clip-rule="evenodd" d="m57.3384 94.5267v-5.2371h-5.6399v52.3704h5.7845v-19.826h.723c2.1692 3.217 6.0014 5.761 11.9305 5.761 8.6767 0 16.8472-7.033 16.8472-19.602 0-12.5686-8.1705-19.6012-16.8472-19.6012-6.146 0-9.9782 2.7682-12.0751 6.1349zm23.7162 13.4663c0 8.978-4.8444 14.215-11.9304 14.215-7.0859 0-11.9304-5.237-11.9304-14.215 0-8.9774 4.8445-14.2145 11.9304-14.2145 7.086 0 11.9304 5.2371 11.9304 14.2145z" fill-rule="evenodd"/><path d="m101.083 72.8303v53.8667h-5.7842v-53.8667z"/><path clip-rule="evenodd" d="m145.117 107.993c0-11.596-7.013-19.6012-17.859-19.6012s-17.86 8.0052-17.86 19.6012c0 11.597 7.014 19.602 17.86 19.602s17.859-8.005 17.859-19.602zm-5.929 0c0 8.978-4.699 14.215-11.93 14.215s-11.93-5.237-11.93-14.215c0-8.9774 4.699-14.2145 11.93-14.2145s11.93 5.2371 11.93 14.2145z" fill-rule="evenodd"/><path clip-rule="evenodd" d="m167.749 88.3918c5.929 0 9.761 2.5437 11.93 5.7608h.724l1.446-4.863h4.338v37.4074h-5.64v-5.237h-.723c-2.097 3.367-5.929 6.135-12.075 6.135-8.677 0-16.847-7.033-16.847-19.602 0-12.5686 8.17-19.6012 16.847-19.6012zm1.012 33.8162c7.086 0 11.931-5.237 11.931-14.215 0-8.9774-4.845-14.2145-11.931-14.2145s-11.93 5.2371-11.93 14.2145c0 8.978 4.844 14.215 11.93 14.215z" fill-rule="evenodd"/><path clip-rule="evenodd" d="m223.28 94.1526c-2.169-3.217-6.001-5.7608-11.931-5.7608-8.676 0-16.847 7.0327-16.847 19.6012 0 12.569 8.171 19.602 16.847 19.602 6.146 0 9.979-2.768 12.075-6.135h.724v5.237h5.639v-53.8667h-5.784v21.3223zm1.012 13.8404c0 8.978-4.844 14.215-11.93 14.215s-11.931-5.237-11.931-14.215c0-8.9774 4.845-14.2145 11.931-14.2145s11.93 5.2371 11.93 14.2145z" fill-rule="evenodd"/><path d="m256.396 88.3918c10.267 0 14.75 6.06 15.979 12.1202v1.122h-5.929c-.795-3.8903-2.892-7.7059-10.122-7.7059-7.593 0-12.292 5.0875-12.292 14.0649 0 8.978 4.699 14.066 12.292 14.066 7.23 0 9.689-3.891 10.556-8.08h5.929v1.122c-1.301 6.135-5.64 12.494-16.485 12.494-11.208 0-18.221-8.005-18.221-19.602 0-11.596 7.013-19.6012 18.293-19.6012z"/><path clip-rule="evenodd" d="m306.287 94.1526c-2.169-3.2171-6.002-5.7608-11.931-5.7608-8.676 0-16.847 7.0326-16.847 19.6012 0 12.569 8.171 19.602 16.847 19.602 6.146 0 9.979-2.768 12.075-6.135h.723v5.237h5.64v-37.4074h-4.338l-1.446 4.863zm1.012 13.8404c0 8.978-4.844 14.215-11.93 14.215s-11.931-5.237-11.931-14.215c0-8.9774 4.845-14.2145 11.931-14.2145s11.93 5.2371 11.93 14.2145z" fill-rule="evenodd"/><path d="m329.28 89.2897v5.6111h.723c1.157-3.3667 3.977-5.7608 9.544-5.7608h3.254v5.5363h-3.181c-8.677 0-10.195 5.1623-10.195 11.8957v20.125h-5.785v-37.4073z"/><path clip-rule="evenodd" d="m380.762 106.497c0-10.1-5.785-18.1052-16.992-18.1052-10.991 0-17.715 8.0052-17.715 19.6012 0 11.522 6.724 19.602 18.004 19.602 9.327 0 14.823-5.536 16.341-12.12v-1.122h-5.784c-1.013 4.264-4.194 7.855-10.702 7.855-7.23 0-11.496-5.312-11.641-12.569h28.489zm-16.992-12.8681c7.086 0 10.773 4.863 10.918 10.9231h-22.415c.289-6.2846 4.266-10.9231 11.497-10.9231z" fill-rule="evenodd"/></g><path d="m500 100c0 26.009-21.085 47.094-47.094 47.094-26.01 0-47.094-21.085-47.094-47.094 0-26.0094 21.084-47.0942 47.094-47.0942 26.009 0 47.094 21.0848 47.094 47.0942z" fill="url(#a)"/></g></svg>