<svg xmlns="http://www.w3.org/2000/svg" width="500" height="200" fill="none"><radialGradient id="b" cx="0" cy="0" r="1" gradientTransform="matrix(-79.05112 47.09401 -54.22962 -91.02882 516.819 100)" gradientUnits="userSpaceOnUse"><stop offset="0" stop-color="#ffc700"/><stop offset="1" stop-color="#ffedab"/></radialGradient><clipPath id="a"><path d="M0 0h500v200H0z"/></clipPath><g clip-path="url(#a)"><g fill="#000"><path d="M6.363 107.021v-34.19H0v34.19c0 12.718 6.363 20.574 20.246 20.574 13.52 0 20.245-7.856 20.245-20.574v-34.19h-6.363v34.19c0 10.474-4.7 14.738-13.882 14.738s-13.883-4.264-13.883-14.738z"/><path fill-rule="evenodd" d="M57.338 94.527V89.29h-5.64v52.37h5.785v-19.826h.723c2.17 3.217 6.001 5.761 11.93 5.761 8.677 0 16.848-7.033 16.848-19.602 0-12.569-8.17-19.601-16.847-19.601-6.147 0-9.979 2.768-12.076 6.135zm23.717 13.466c0 8.978-4.845 14.215-11.93 14.215-7.087 0-11.931-5.237-11.931-14.215 0-8.977 4.844-14.214 11.93-14.214 7.086 0 11.93 5.237 11.93 14.214z" clip-rule="evenodd"/><path d="M101.083 72.83v53.867h-5.784V72.83z"/><path fill-rule="evenodd" d="M145.117 107.993c0-11.596-7.013-19.601-17.859-19.601s-17.86 8.005-17.86 19.601c0 11.597 7.014 19.602 17.86 19.602s17.859-8.005 17.859-19.602zm-5.929 0c0 8.978-4.699 14.215-11.93 14.215s-11.93-5.237-11.93-14.215c0-8.977 4.699-14.214 11.93-14.214s11.93 5.237 11.93 14.214zM167.749 88.392c5.929 0 9.761 2.544 11.93 5.76h.724l1.446-4.862h4.338v37.407h-5.64v-5.237h-.723c-2.097 3.367-5.929 6.135-12.075 6.135-8.677 0-16.847-7.033-16.847-19.602 0-12.569 8.17-19.601 16.847-19.601zm1.012 33.816c7.086 0 11.931-5.237 11.931-14.215 0-8.977-4.845-14.214-11.931-14.214s-11.93 5.237-11.93 14.214c0 8.978 4.844 14.215 11.93 14.215zM223.28 94.153c-2.169-3.217-6.001-5.761-11.931-5.761-8.676 0-16.847 7.033-16.847 19.601 0 12.569 8.171 19.602 16.847 19.602 6.146 0 9.979-2.768 12.075-6.135h.724v5.237h5.639V72.83h-5.784v21.323zm1.012 13.84c0 8.978-4.844 14.215-11.93 14.215s-11.931-5.237-11.931-14.215c0-8.977 4.845-14.214 11.931-14.214s11.93 5.237 11.93 14.214z" clip-rule="evenodd"/><path d="M256.396 88.392c10.267 0 14.75 6.06 15.979 12.12v1.122h-5.929c-.795-3.89-2.892-7.706-10.122-7.706-7.593 0-12.292 5.088-12.292 14.065 0 8.978 4.699 14.066 12.292 14.066 7.23 0 9.689-3.891 10.556-8.08h5.929v1.122c-1.301 6.135-5.64 12.494-16.485 12.494-11.208 0-18.221-8.005-18.221-19.602 0-11.596 7.013-19.601 18.293-19.601z"/><path fill-rule="evenodd" d="M306.287 94.153c-2.169-3.217-6.002-5.761-11.931-5.761-8.676 0-16.847 7.032-16.847 19.601 0 12.569 8.171 19.602 16.847 19.602 6.146 0 9.979-2.768 12.075-6.135h.723v5.237h5.64V89.29h-4.338l-1.446 4.863zm1.012 13.84c0 8.978-4.844 14.215-11.93 14.215s-11.931-5.237-11.931-14.215c0-8.977 4.845-14.214 11.931-14.214s11.93 5.237 11.93 14.214z" clip-rule="evenodd"/><path d="M329.28 89.29v5.61h.723c1.157-3.366 3.977-5.76 9.544-5.76h3.254v5.536h-3.181c-8.677 0-10.195 5.163-10.195 11.896v20.125h-5.785V89.29z"/><path fill-rule="evenodd" d="M380.762 106.497c0-10.1-5.785-18.105-16.992-18.105-10.991 0-17.715 8.005-17.715 19.601 0 11.522 6.724 19.602 18.004 19.602 9.327 0 14.823-5.536 16.341-12.12v-1.122h-5.784c-1.013 4.264-4.194 7.855-10.702 7.855-7.23 0-11.496-5.312-11.641-12.569h28.489zM363.77 93.629c7.086 0 10.773 4.863 10.918 10.923h-22.415c.289-6.285 4.266-10.923 11.497-10.923z" clip-rule="evenodd"/></g><path fill="url(#b)" d="M500 100c0 26.009-21.085 47.094-47.094 47.094-26.01 0-47.094-21.085-47.094-47.094 0-26.01 21.084-47.094 47.094-47.094C478.915 52.906 500 73.99 500 100z"/></g></svg>