<svg id="logo" xmlns="http://www.w3.org/2000/svg" viewBox="27.5 297 500 200"><style>.st0{fill:#00698f}</style><path class="st0" d="M191.1 339.7c84.2-36.9 153.4-44.1 200.2-29.4 36.4 11.5 30.4 33.9 15.5 49-44.1 44.5-120.5 53.3-126.2 53.8-7.3.7-4.9-1.5-2.7-2 31-7.4 79.7-15.1 109.4-47.5 36.6-39.9-48-71.8-190.9-21.9-37.2 12.8-15.1 2.2-5.3-2"/><path class="st0" d="M385.8 347.5c.8 1-1.6 5.9-7.4 11-19.9 17.4-85.9 64.8-219.9 33.6-4.6-1-5.7-3.8 1.3-2.9 44.5 5.2 147.4 14.1 215.1-33.6 8.2-6.1 9.8-9.4 10.9-8.1m-159.9 66.8c2.2 3.4 5.5 6.6 14.4 7.6 5 .6 8.3.8 17.2 1.3 3.5.2 5.2-1.5 6.4-2.8 2.1-2.4 2.9-3.6 4.4-6.3.6-1.2.8-1.7-1.1-1.4-7.8 1.7-25.7 2.2-40 .1-1.8 0-2.4-.1-1.3 1.5m-45.4-49.6c-.3 1.9-1 4.7-4.1 5.3-3.4.8-26.7 3.2-37 3.3-4.8 0-3.2-.5 0-1.3 3.2-.7 37.4-8.5 39.3-8.9 2-.4 2.1-.2 1.8 1.6M137.3 480c2.8-1.5 4.8-4.4 4.8-7.9 0-5-3.9-9-9.2-9h-14.5c-1.5 0-1.5.1-1.5 1.4v25.9h7V481h6.1l5.1 9.4h8l-5.8-10.4zm-5.7-4.4H124v-6.9h7.6c1.9 0 3.5 1.4 3.5 3.4s-1.7 3.5-3.5 3.5m74.2 14.8l-1.9-5h-9.8l-1.9 5h-6.9l10.1-26.8c.5-.9.9-.9 3.6-.9 2.9 0 3.2 0 3.7 1.1s9.9 26.6 9.9 26.6h-6.8zM199 472l-3 8.1h6l-3-8.1zm93 18.4l-1.9-5h-9.9l-1.9 5h-6.9l10.1-26.8c.5-.9.9-.9 3.6-.9 2.9 0 3.2 0 3.7 1.1s9.9 26.6 9.9 26.6H292zm-6.8-18.4l-3 8.1h6l-3-8.1zm22.7-9h7.1v27.3h-7.1zm105.8 27.4v-10.5h-11.4v10.5h-7V463h7v10.6h11.4V463h7v27.4zm19.7-27.4h7.1v27.3h-7.1zm-85.8 17c2.8-1.5 4.8-4.4 4.8-7.9 0-5-3.9-9-9.2-9h-14.5c-1.5 0-1.5.1-1.5 1.4v25.9h7V481h6.1l5.1 9.4h8l-5.8-10.4zm-5.8-4.4h-7.6v-6.9h7.6c1.8 0 3.5 1.4 3.5 3.4s-1.6 3.5-3.5 3.5M468.1 463h-13.4c-1.5 0-1.5.1-1.5 1.4v25.9h7.1v-8.7h7.8c5.5 0 9.4-4.3 9.4-9.4-.1-5-3.9-9.2-9.4-9.2m-1.3 12.9h-6.6v-7.3h6.6c1.9 0 3.5 1.5 3.5 3.6s-1.6 3.7-3.5 3.7M241.1 463v15.6c-5.7-6.7-9.2-10.6-12.7-14.7-.8-1-1.7-1.3-2.7-1.3h-2.1c-1.5 0-1.5.1-1.5 1.4v26.2h6.9V475l12.7 14.3c.8.8 1.7 1.2 2.7 1.1h2.1c1.5 0 1.5-.1 1.5-1.4v-26.2h-7v.2zm-67.8 12.7c1.8-1.7 2.7-3.4 2.7-5.3 0-4.6-3.8-7.3-9.8-7.3h-11c-1.5 0-1.5.1-1.5 1.4V489c0 1.3 0 1.4 1.5 1.4h12.9c5.2 0 9.6-3.4 9.6-8.3 0-2.8-1.8-5.2-4.4-6.4m-7.5-7c1.7 0 2.9 1.1 2.9 2.5 0 1.5-.9 2.8-3.1 2.8h-5v-5.3h5.2zm1.7 16.1h-6.8v-5.5h6.7c1.7 0 3.1 1 3.1 2.7s-1.4 2.8-3 2.8m206.5 6c-4.8 0-9.6-1.5-13.4-4.4l4.1-4.3c2.9 2 5.8 3.4 9.4 3.4 2.9 0 4.5-1 4.5-2.6v-.1c0-1.5-1-2.3-6.4-3.5-6.4-1.4-10.4-2.9-10.4-8.4v-.1c0-5 4.6-8.3 11-8.3 4.6 0 8.5 1.3 11.7 3.5l-3.6 4.5c-2.8-1.7-5.5-2.7-8.2-2.7s-4.1 1-4.1 2.4v.1c0 1.8 1.3 2.4 6.8 3.6 6.4 1.5 10 3.4 10 8.3v.1c.1 5.5-4.6 8.5-11.4 8.5M102.3 463h-5.2v9.7c0 7.2 0 8.7-1.4 10-1.5 1.5-3.4 1.5-4.7 1.5-3.6 0-6.4-2.7-6.4-6.6v-14.8h-7.1v15.7c0 7.5 5.6 12.2 13.1 12.2 2.7 0 4.8-.8 6.5-2l1.7 1.6h5.2V463h-1.7z"/></svg>