<svg xmlns="http://www.w3.org/2000/svg" width="500" height="200" viewBox="0 0 630 144"><g fill="none" fill-rule="evenodd"><path fill="#203640" d="m531.262 25.378-32.506 85.34c-3.112 8.308-7.172 9.484-13.174 9.484-5.988 0-10.06-1.176-13.158-9.484l-32.306-85.34h18.568l27.106 71.984 26.866-71.984h18.604M390.952 102.68c-16.598 0-30.036-13.904-30.036-31.048 0-17.14 13.438-31.038 30.036-31.038 16.584 0 30.034 13.898 30.034 31.038 0 17.144-13.45 31.048-30.034 31.048Zm47.57-30.666c0-.05-.024-.096-.024-.16v-.074c-.126-27.078-21.374-48.984-47.606-48.984-26.29 0-47.606 22.044-47.606 49.218 0 27.166 21.316 49.192 47.606 49.192 11.64 0 22.296-4.32 30.56-11.48v11.394h17.046V72.156c0-.048.024-.106.024-.142ZM581.724 39.69c10.44 0 15.272 3.102 21.076 8.914l-51.088 28.478c-.234-1.7-.402-3.442-.402-5.25 0-18.974 12.798-32.142 30.414-32.142Zm30.318 38.77c-3.802 15.138-11.646 25.48-30.318 25.48-10.482 0-19.226-4.682-24.604-12.432l69.482-38.65c-8.704-17.996-23.222-29.41-44.878-29.41-25.754 0-48.216 19.738-48.216 48.384 0 28.628 22.462 48.37 48.216 48.37 26.17 0 45.604-17.878 48.174-41.742h-17.856ZM324.644 25.406l-26.888 71.98-27.1-71.98h-18.574l.02.054h-.02l-26.89 71.976-27.086-71.976h-18.578l32.314 85.328c3.104 8.32 7.166 9.476 13.172 9.476 5.99 0 10.046-1.156 13.144-9.476l23.212-60.89 23.022 60.832c3.104 8.328 7.158 9.496 13.162 9.496 5.998 0 10.066-1.168 13.168-9.496l32.508-85.324h-18.586"/><path fill="#008A94" d="M110.99 125.09a45.827 45.827 0 0 1-18.668-3.966c-16.584-7.356-28.154-24.214-28.154-43.832 0-10.542 3.342-20.304 9.022-28.218a45.984 45.984 0 0 0-18.676-3.942c-20.688 0-41.462 15.528-45.464 35.734-4.312 21.778 7.004 40.328 25.454 52.012 4.784 3.036 10.192 5.782 15.588 7.606 2.856.96 5.8 1.734 8.814 2.312.69.126 1.378.266 2.074.368.052.012.104.016.156.026a72.33 72.33 0 0 0 10.64.81c13.354-.06 24.756-3.152 35.862-9.438.452-.258 1.704-.988 1.882-1.094a72.569 72.569 0 0 0 11.862-9.082c-3.312.586-8.77.704-10.392.704"/><path fill="#37DCD6" d="M86.628 1.488c-.08-.012-.158-.032-.234-.048a77.645 77.645 0 0 0-3-.534c-.41-.066-.828-.122-1.242-.18-.78-.11-1.562-.212-2.348-.296a58.486 58.486 0 0 0-2.138-.184c-.562-.048-1.118-.098-1.678-.13A75.266 75.266 0 0 0 72.002 0C32.236.004 0 32.238 0 72.004c0 3 .206 5.952.562 8.854.56-2.242 1.06-4.108 1.588-5.796C8.67 52.64 29.354 36.246 53.88 36.246c9.652 0 18.698 2.55 26.532 6.992 9.468 4.952 16.316 12.582 20.742 21.03a53.636 53.636 0 0 1 6.606 25.856c0 9.008-2.482 17.692-6.388 25.152 3.048.75 7.164 1.172 11.546 1.172 3.622 0 10.276-.28 18.168-3.25.066-.098.306-.484.374-.586 2.38-3.57 4.428-7.19 6.144-10.932.162-.36.33-.72.486-1.082.174-.392.336-.794.504-1.192.316-.766.624-1.54.916-2.32.06-.16.12-.318.178-.478a72.09 72.09 0 0 0 1.948-6.238c.122-.476.238-.956.35-1.438.1-.414.192-.824.286-1.234.938-4.332 1.506-8.902 1.686-13.808.01-.316.022-.632.024-.95.01-.366.016-.738.02-1.112-.082-34.676-24.674-63.59-57.374-70.34"/></g></svg>