<svg width="500" height="200" xmlns="http://www.w3.org/2000/svg"><path fill="none" d="M-1-1h502v202H-1z"/><path fill="#255486" d="M90.867 46.873L56.253 81.487l14.85 14.852 19.764-19.765 37.536 37.535 14.852-14.852-52.388-52.385"/><path fill="#83bfe2" d="M50.384 81.46L15.797 46.873.945 61.723l34.588 34.588 14.85-14.85"/><path fill="#255486" d="M128.407 114.105l52.383-52.38-14.852-14.852-52.382 52.382 14.85 14.85"/><path fill="#4089d0" d="M110.614 102.196l-19.747 19.747L53.327 84.4 38.473 99.253l52.393 52.392 34.6-34.6-14.853-14.85"/><path fill="#255486" d="M205.973 75.237c.976 0 1.237.585 1.43 1.366l7.288 39.556 7.873-39.623c.065-.715.586-1.3 1.3-1.3h5.14c.78 0 1.237.585 1.43 1.3l7.874 39.622 7.222-39.557c.194-.78.584-1.366 1.43-1.366h4.033c.976 0 1.366.52 1.236 1.496l-8.134 44.11c-.064.78-.584 1.366-1.366 1.366h-7.806c-.78 0-1.236-.457-1.3-1.302l-7.158-36.303-7.156 36.303c-.13.845-.586 1.3-1.366 1.3h-7.742c-.78 0-1.236-.585-1.432-1.365l-8.132-44.175c-.13-.976.26-1.43 1.237-1.43h4.098m58.553 30.449l10.995-.91c2.016-.196 3.122-1.497 3.122-3.32v-3.447c0-2.017-1.366-3.383-3.253-3.383h-7.417c-2.017 0-3.448 1.302-3.448 3.448v7.612zm-6.7-9.108c0-4.425 2.926-7.222 7.155-7.222h12.75c4.23 0 7.158 2.797 7.158 7.222v5.53c0 4.164-2.993 7.025-6.962 7.025h-13.4v3.515c0 2.407 1.624 3.97 3.967 3.97h12.62c.977 0 1.498.453 1.498 1.43v2.667c0 .976-.52 1.497-1.496 1.497h-15.94c-4.423 0-7.35-2.93-7.35-7.418V96.576m41.959-1.626v21.86h10.736c2.146 0 3.512-1.368 3.512-3.514V98.462c0-2.082-1.366-3.513-3.512-3.513h-10.736zm-1.495-24.397c.975 0 1.494.52 1.494 1.496v18.54l10.865-1.04c1.236-.196 2.537-.196 2.992-.196 4.36 0 7.092 2.797 7.092 7.157v18.737c0 4.228-2.863 7.156-7.092 7.156-.52 0-2.08-.194-3.383-.26l-10.476-1.04-.845 1.106h-4.36c-.975 0-1.496-.522-1.496-1.563V72.05c0-.977.52-1.497 1.497-1.497h3.71M336.28 94.95v21.86h10.736c2.147 0 3.513-1.368 3.513-3.514V98.462c0-2.082-1.367-3.513-3.514-3.513H336.28zm-1.494-24.397c.976 0 1.495.52 1.495 1.496v18.54l10.867-1.04c1.235-.196 2.536-.196 2.99-.196 4.36 0 7.093 2.797 7.093 7.157v18.737c0 4.228-2.863 7.156-7.092 7.156-.52 0-2.08-.194-3.382-.26l-10.475-1.04-.844 1.106h-4.36c-.974 0-1.495-.522-1.495-1.563V72.05c0-.977.522-1.497 1.496-1.497h3.71m34.669 18.801c.716 0 1.108.326 1.304 1.04l7.74 26.87 7.808-26.804c.196-.585.78-1.106 1.368-1.106h3.968c.844 0 1.624.65 1.3 1.627l-12.816 44.11c-.132.845-.588 1.236-1.3 1.236h-3.84c-.848 0-1.628-.78-1.432-1.756l3.708-12.36h-3.188c-.716 0-1.172-.393-1.3-1.108l-8.652-30.056c-.196-.976.324-1.692 1.364-1.692h3.968"/><path fill="#4089d0" d="M414.222 115.702c0 .457.456.912.908.912h17.892c.976 0 1.496.52 1.496 1.495v2.602c0 .976-.52 1.497-1.496 1.497h-24.004c-.976 0-1.5-.522-1.5-1.498V76.73c0-.975.524-1.495 1.5-1.495h3.708c.976 0 1.496.52 1.496 1.496v38.97m35.584-8.586c-2.016 0-3.38 1.3-3.38 3.384v3.38c0 2.083 1.364 3.45 3.38 3.45h10.736v-10.215h-10.736zm10.02-17.76c4.424 0 7.416 2.992 7.416 7.48v23.812c0 1.04-.52 1.562-1.496 1.562h-4.36l-.844-1.108-9.956 1.04c-1.496.196-2.86.26-3.316.26-4.228 0-7.092-2.927-7.092-7.155v-5.855c0-4.23 2.864-7.156 7.092-7.156.456 0 1.756.065 2.992.26l10.28 1.04v-4.75c0-2.535-1.56-3.837-4.1-3.837h-13.14c-.976 0-1.496-.522-1.496-1.497V90.85c0-.975.52-1.496 1.496-1.496h16.524m22.964 5.596v21.86h10.736c2.148 0 3.512-1.368 3.512-3.514V98.462c0-2.082-1.364-3.513-3.512-3.513H482.79zm-1.496-24.397c.976 0 1.496.52 1.496 1.496v18.54l10.864-1.04c1.236-.196 2.54-.196 2.996-.196 4.356 0 7.088 2.797 7.088 7.157v18.737c0 4.228-2.86 7.156-7.088 7.156-.524 0-2.084-.194-3.384-.26l-10.476-1.04-.844 1.106h-4.36c-.976 0-1.496-.522-1.496-1.563V72.05c0-.977.52-1.497 1.496-1.497h3.708"/></svg>