<svg xmlns="http://www.w3.org/2000/svg" width="500" height="200"><defs><clipPath id="a"><path d="M0 858.898h612.288V0H0z"/></clipPath></defs><path d="M101.47 81.842h17.104l9.82 46.44 10.057-46.44h17.57l-18.696 64.485h-17.33l-10.117-46.974-10.235 46.974H82.127l-18.1-64.485h18.1l10.055 46.265z" fill="#e18f42"/><g clip-path="url(#a)" transform="matrix(.83333 0 0 -.83333 -3.035 468.402)"><path d="M222.17 444.827c-2.857-2.947-4.657-6.938-5.39-11.978h34.86c-.367 5.37-2.166 9.447-5.389 12.229-3.232 2.78-7.225 4.172-12.006 4.172-5.192 0-9.21-1.475-12.076-4.423m30.268 17.48c5.398-2.42 9.857-6.235 13.375-11.45 3.17-4.598 5.228-9.93 6.168-15.996.537-3.557.761-8.675.662-15.358h-56.355c.313-7.764 3.008-13.205 8.084-16.33 3.098-1.94 6.813-2.911 11.164-2.911 4.601 0 8.353 1.184 11.226 3.55 1.576 1.28 2.963 3.053 4.172 5.326h20.653c-.546-4.592-3.044-9.254-7.502-13.988-6.929-7.524-16.634-11.286-29.113-11.286-10.296 0-19.382 3.173-27.25 9.52-7.879 6.348-11.814 16.677-11.814 30.983 0 13.4 3.55 23.683 10.658 30.836 7.108 7.153 16.338 10.729 27.672 10.729 6.741 0 12.802-1.208 18.2-3.625M332.032 407.433c2.918 4.212 4.37 9.749 4.37 16.613 0 5.49-.717 10.034-2.15 13.63-2.712 6.816-7.725 10.224-15.03 10.224-7.396 0-12.47-3.337-15.247-10.011-1.432-3.55-2.148-8.14-2.148-13.773 0-6.625 1.486-12.115 4.44-16.47 2.963-4.353 7.466-6.531 13.527-6.531 5.255 0 9.33 2.106 12.238 6.318m16.92 47.14c5.783-7.338 8.675-16.8 8.675-28.398 0-12.021-2.856-21.983-8.559-29.888-5.71-7.904-13.679-11.855-23.902-11.855-6.428 0-11.585 1.278-15.488 3.834-2.337 1.513-4.852 4.163-7.565 7.95v-9.725h-19.946V500.16H302.4v-46.367c2.57 3.595 5.407 6.34 8.496 8.234 3.67 2.368 8.343 3.55 14.01 3.55 10.241 0 18.254-3.67 24.046-11.003M392.345 386.491h-20.232v113.812h20.232zM412.371 463.873h20.51v-77.382h-20.51zm20.51 9.23h-20.51v14.086h20.51zM500.82 407.14c3.178 4.205 4.763 10.183 4.763 17.936 0 7.75-1.585 13.717-4.763 17.898-3.169 4.183-7.708 6.276-13.625 6.276-5.918 0-10.475-2.093-13.67-6.276-3.197-4.181-4.79-10.147-4.79-17.898 0-7.753 1.593-13.731 4.79-17.936 3.195-4.205 7.752-6.31 13.67-6.31 5.917 0 10.456 2.105 13.625 6.31m16.195-11.184c-6.535-8.062-16.454-12.093-29.749-12.093-13.303 0-23.213 4.03-29.748 12.093-6.527 8.062-9.794 17.77-9.794 29.12 0 11.159 3.267 20.83 9.794 29.01 6.535 8.18 16.445 12.272 29.748 12.272 13.295 0 23.214-4.092 29.75-12.272 6.526-8.18 9.794-17.851 9.794-29.01 0-11.35-3.268-21.058-9.794-29.12" fill="#2a2a2a"/></g></svg>