<svg width="500" height="200" xmlns="http://www.w3.org/2000/svg"><path fill="none" d="M-1-1h502v202H-1z"/><g stroke="null"><path d="M164.204 133.376l-13.18-51.956h7.092l6.167 26.284c1.538 6.477 2.928 12.952 3.853 17.96h.154c.846-5.163 2.465-11.33 4.237-18.036l6.94-26.21h7.013l6.322 26.363c1.464 6.17 2.852 12.333 3.624 17.807h.154c1.077-5.705 2.544-11.485 4.163-17.96l6.86-26.21h6.86l-14.725 51.956h-7.015l-6.55-27.055c-1.618-6.63-2.7-11.718-3.392-16.96h-.154c-.926 5.165-2.08 10.253-4.007 16.96l-7.403 27.055h-7.013v.003zm57.721-17.423c.155 9.174 6.014 12.952 12.797 12.952 4.854 0 7.782-.85 10.325-1.927l1.16 4.854c-2.39 1.08-6.478 2.314-12.41 2.314-11.486 0-18.35-7.557-18.35-18.81 0-11.252 6.632-20.12 17.5-20.12 12.18 0 15.416 10.716 15.416 17.575 0 1.39-.155 2.47-.23 3.162h-26.208zm19.886-4.854c.08-4.316-1.77-11.025-9.402-11.025-6.86 0-9.866 6.32-10.404 11.024h19.807zm14.639 22.277c.154-2.544.308-6.322.308-9.637V78.645h6.706v23.433h.155c2.388-4.165 6.708-6.863 12.717-6.863 9.253 0 15.804 7.708 15.725 19.043 0 13.332-8.402 19.962-16.726 19.962-5.395 0-9.71-2.08-12.486-7.015h-.233l-.31 6.167h-5.858v.002zm7.014-14.954c0 .846.155 1.694.308 2.465 1.314 4.703 5.242 7.94 10.175 7.94 7.093 0 11.334-5.78 11.334-14.338 0-7.478-3.856-13.875-11.1-13.875-4.624 0-8.94 3.16-10.33 8.324-.154.77-.386 1.696-.386 2.776v6.706zm36.986 2.852c3.16 1.617 8.02 3.236 13.028 3.236 5.396 0 8.25-2.235 8.25-5.625 0-3.24-2.466-5.087-8.712-7.322-8.63-3.007-14.258-7.786-14.258-15.343 0-8.864 7.4-15.647 19.654-15.647 5.86 0 10.175 1.234 13.26 2.62l-2.622 9.483c-2.08-1.002-5.78-2.47-10.867-2.47-5.088 0-7.557 2.315-7.557 5.01 0 3.317 2.93 4.78 9.637 7.325 9.174 3.392 13.49 8.17 13.49 15.494 0 8.71-6.71 16.113-20.967 16.113-5.935 0-11.794-1.543-14.725-3.16l2.39-9.713zm53.566-36.384v10.79h8.402v8.634h-8.402v13.645c0 4.544 1.08 6.63 4.624 6.63 1.464 0 2.62-.156 3.47-.31l.075 8.862c-1.54.617-4.316 1.005-7.63 1.005-3.775 0-6.937-1.313-8.788-3.24-2.16-2.236-3.236-5.86-3.236-11.176v-15.416h-5.012V95.68h5.013v-8.17l11.486-2.62zm52.026 29.216c0 13.795-9.792 20.117-19.888 20.117-11.024 0-19.503-7.244-19.503-19.424s8.016-19.966 20.118-19.966c11.564 0 19.274 7.938 19.274 19.272zm-27.29.383c0 6.476 2.7 11.33 7.708 11.33 4.55 0 7.477-4.546 7.477-11.33 0-5.626-2.156-11.33-7.477-11.33-5.627 0-7.707 5.78-7.707 11.33zm34.528-6.396c0-5.55-.156-9.174-.31-12.412h10.096l.384 6.938h.31c1.93-5.47 6.554-7.783 10.173-7.783 1.08 0 1.622 0 2.47.155v11.024a16.718 16.718 0 0 0-3.16-.31c-4.317 0-7.25 2.31-8.016 5.936-.155.77-.234 1.698-.234 2.623v19.116H413.28v-25.287zm29.282-.389c0-4.7-.155-8.708-.308-12.024h9.866l.538 5.09h.23c1.62-2.39 4.933-5.938 11.41-5.938 4.856 0 8.71 2.467 10.328 6.4h.155c1.39-1.927 3.082-3.472 4.86-4.55 2.08-1.234 4.39-1.85 7.167-1.85 7.243 0 12.715 5.09 12.715 16.34v22.202h-11.405V112.87c0-5.47-1.772-8.632-5.55-8.632-2.7 0-4.624 1.85-5.396 4.083-.307.85-.462 2.08-.462 3.007v22.047H465.3v-21.122c0-4.78-1.693-8.015-5.392-8.015-3.007 0-4.78 2.31-5.474 4.237-.385.926-.464 2.006-.464 2.93v21.97h-11.404v-25.67h-.002zM64.297 143.08c1.11-1.392 2.42-2.912 3.97-4.7l.774-.893c.967-1.116 1.77-1.978 2.54-2.814 1.536-1.654 2.863-3.082 5.288-6.383 2.38-3.24 3.916-5.68 3.665-9.86-.122-2.153-.208-3.63-1.612-5.363-.842-1.04-2.408-2.55-4.068-4.15-1.797-1.733-3.36-3.382-5.477-5.59-2.12-2.197-4.86-7.82-4.86-7.82-.816-1.86-2.34-5.725-2.764-9.318L55.526 54.26h-17.74l-8.68 40.265L21.42 54.26H.477l18.892 91.476h17.64l8.818-39.597 7.8 39.598h8.187l2.482-2.658z" fill="#2788B5"/><path d="M101.218 59.736c1.852-2.148 3.38-3.89 4.632-5.47H77.714c-1.675 2.14-5.073 6.26-7.014 9.915-2.564 4.84-4.673 8.47-4.883 17.38l.095 2.868c0 4.247 3.037 10.483 3.037 10.483.473 1.107 2.08 3.447 3.11 4.87h-.027c.338.45.562.74.562.74 3.033 3.475 7.62 7.358 9.647 9.85 2.37 2.923 2.432 5.668 2.56 7.8.342 5.768-1.99 9.244-4.486 12.65-3.774 5.145-5.133 6.1-8.038 9.463-1.852 2.145-3.378 3.883-4.633 5.455h29.072c1.705-2.188 4.132-6.228 6.08-9.906 2.564-4.84 4.677-8.47 4.883-17.37l-.095-2.872c0-4.254-3.037-10.49-3.037-10.49-.474-1.107-2.083-3.432-3.112-4.87h.025c-.328-.442-.558-.738-.558-.738-3.032-3.477-7.624-7.354-9.647-9.85-2.368-2.93-2.432-5.67-2.56-7.802-.342-5.76 1.99-9.242 4.49-12.648 3.77-5.133 5.13-6.097 8.033-9.456z" fill="#FA930D"/></g></svg>