<svg xmlns="http://www.w3.org/2000/svg" width="500" height="200"><g fill="#ef3d39"><path d="M67.84 2.63c2.55 9.11 5.06 18.17 7.82 27.25 4.68 16.26 5.52 18.89 8.16 35.23 2.54-16.67 3.13-19.61 7-36.79 1.81-8.59 3.74-17.2 5.53-25.69h21L95.84 87H74c-2.65-9.32-5.18-18.63-7.93-27.85-4.57-15.53-4.8-16.15-7.34-28-2.17 10.39-2.4 11.24-7.21 27.37L43.34 87H21.51L0 2.63h21.12c9.15 40 10.1 44.46 12.64 62.75 3.12-16.74 4-20 8.4-36.7l7-26zm89.87 86.77c-26.92 0-42.16-20.55-42.16-45 0-22.76 14.53-44.4 41.8-44.4a46.87 46.87 0 0 1 15.49 2.52c25.94 9 27.62 37 27.62 42.78 0 14.58-6.72 27.73-16.08 35.23-8.31 6.82-17.92 8.88-26.67 8.88zm14.64-65.62a20.72 20.72 0 0 0-14.9-6.22c-12.84 0-21 11.23-21 26.53 0 20.08 11.28 27.5 21.29 27.5s20.9-7.17 21.48-24.86c.35-8.83-2.06-17.8-6.87-22.94zm33.86-21.15h38.17c8.87.13 19.94.24 27.74 8.62A28.2 28.2 0 0 1 278.85 30c0 17-11.65 21.16-17.42 23.3L281 87h-23.37l-16.79-30.09h-13.4V87h-21.23zm21.23 15.79v22.82H245c3-.13 12.76-.35 12.76-11.6 0-10.75-7.83-11.11-12.29-11.22zm59.8-15.91h20.19v34.43l31.68-34.42h25.47l-30 31.33 32.43 53h-23.92l-22.75-38.19-12.91 13.5v24.73h-20.19zM58.57 161.9s1.39 0 2.86-7h15.52c0 6.69-3.21 11.47-8.39 20.1 1.69 1.89 3.47 3.94 9.12 3.94 1.19 0 2.4-.15 3.62-.15v13.41H66.38c-2 0-5.18-1.47-9.54-5.59A41.93 41.93 0 0 1 34.28 193c-19.6 0-29.1-12.89-29.1-26.06A27.47 27.47 0 0 1 7 157.37c4.35-10.49 13.1-14.45 19-17.07-3.15-5.27-5.53-9.44-5.53-14.45 0-10.41 7.44-18.53 21.74-18.53 13.45 0 20.68 8.6 20.68 18.17 0 10.28-8.31 16.63-15.87 19.73m-13.59 7.41c-3.71 2.39-9.84 6.31-9.84 13.6 0 4.67 3.47 12.56 12.64 12.56 4.54 0 8.27-2 11.74-3.93zm14.31-27.38c0-3-2.3-5.14-5.87-5.14-3.13 0-6 1.92-6 5 0 2.52 1.32 4.67 4.07 9.08 4.13-2.18 7.85-4.92 7.85-9zm148.63 69.27c-26.91 0-42.17-20.55-42.17-44.94 0-22.81 14.55-44.47 41.84-44.47a47.35 47.35 0 0 1 15.5 2.52c25.95 9 27.63 37 27.63 42.78 0 14.57-6.71 27.75-16.08 35.23-8.36 6.87-17.96 8.87-26.74 8.87zM211 128.9a20.65 20.65 0 0 0-14.9-6.22c-12.84 0-21 11.23-21 26.51 0 20.12 11.29 27.5 21.29 27.5s20.92-7.16 21.51-24.87c.31-8.82-2.12-17.78-6.91-22.92z"/><path d="M126.25 177.69c-9.84 0-21-7.39-21-27.5 0-15.28 8.07-26.51 20.79-26.51a20.28 20.28 0 0 1 14.72 6.22 21 21 0 0 1 2.87 4.1l11-17.35a37.29 37.29 0 0 0-13.37-8 46.44 46.44 0 0 0-15.31-2.52c-27 0-41.35 21.65-41.35 44.47-.05 24.38 15 44.93 41.67 44.93 8.68 0 18.19-2 26.42-8.85.64-.52 1.31-1.12 2-1.72l-11-17.3a19.82 19.82 0 0 1-17.44 10.03z"/></g></svg>
