<svg xmlns="http://www.w3.org/2000/svg" height="200" width="500"><path d="M430.42 133.101a19.793 19.793 0 0 0 .321-16.335 19.806 19.806 0 0 0-12.073-11.019l-.645-.21s9.051-1.91 13.093-10.755c2.37-5.189 2.533-11.12.262-16.357a65.151 65.151 0 0 0-16.808-23.123 19.855 19.855 0 0 0-13.074-4.944h-.096c-11.655 0-16.711 9.295-16.711 9.295V27.375c0-10.915-8.715-19.737-19.775-19.8h-.115c-4.695 0-13.349 1.563-19.086 3.1a98.047 98.047 0 0 0-16.797 6.188 19.833 19.833 0 0 0-10.368 11.985 19.869 19.869 0 0 0 1.762 15.78l16.139 27.953s-3.88-2.306-9.288-2.306a19.77 19.77 0 0 0-18.765 13.476c-.2.594-.39 1.188-.572 1.785-2.574-2.478-5.688-4.704-9.48-6.505a39.19 39.19 0 0 0-16.712-3.748c-4.407 0-8.716.748-12.724 2.189a21.267 21.267 0 0 0-9.938-2.448 21.191 21.191 0 0 0-13.359 4.727v-3.899c0-11.742-9.553-21.294-21.295-21.294s-21.294 9.552-21.294 21.294v11.754c-8.025-8.404-18.72-11.854-28.377-11.854-7.24 0-16.868 2.355-24.966 9.019a21.328 21.328 0 0 0-11.1-7.992 21.498 21.498 0 0 0-6.36-.963 21.396 21.396 0 0 0-20.535 15.147l-.906 2.925-2.927-5.997c-2.934-6.405-10.429-12.126-19.278-12.127-3.042 0-6.243.675-9.475 2.233-5.175 2.492-9.033 6.897-10.9 12.327a21.36 21.36 0 0 0 1.007 16.425l20.382 41.765c-6.036 2.358-10.522 7.215-12.399 13.798-1.804 6.333-.661 12.926 3.138 18.085 2.982 4.052 8.861 8.94 19.92 9.208.402.009.798.015 1.191.015 15.518-.004 26.87-7.675 31.148-21.05 1.761-5.505 3.8-11.98 5.892-18.672.382.85.784 1.689 1.213 2.503 6.72 12.735 18.99 19.752 34.554 19.752 14.67 0 24.962-4.951 31.326-11.393 3.603 6.664 10.653 11.2 18.746 11.2 5.055 0 9.702-1.773 13.357-4.726v3.897c0 11.745 9.555 21.297 21.297 21.297 11.556 0 20.991-9.252 21.288-20.738.014 0 .35.018.944.018 3.68 0 17.322-.7 26.754-10.757 1.13-1.204 3.14-3.284 5.194-6.75a18.18 18.18 0 0 0 8.793 2.255c2.583 0 5.037-.54 7.263-1.504a19.763 19.763 0 0 0 4.362 4.102 66.475 66.475 0 0 0 26.444 10.7 19.87 19.87 0 0 0 3.29.274 19.722 19.722 0 0 0 19.781-19.11l.024-.684.363.579a19.69 19.69 0 0 0 16.797 9.309c4.584 0 9.06-1.611 12.6-4.533a66.477 66.477 0 0 0 17.553-22.486" fill="#fff"/><path d="M400.268 160.12c-6.878 0-13.158-3.48-16.797-9.308l-.363-.58-.024.683a19.722 19.722 0 0 1-19.782 19.11c-1.095 0-2.204-.09-3.29-.273a66.475 66.475 0 0 1-26.445-10.7 19.763 19.763 0 0 1-4.36-4.102 18.2 18.2 0 0 1-7.263 1.505 18.18 18.18 0 0 1-8.793-2.255c-2.055 3.465-4.065 5.546-5.195 6.75-9.432 10.056-23.074 10.755-26.754 10.755-.594 0-.93-.016-.945-.016-.295 11.485-9.73 20.737-21.286 20.737-11.742 0-21.297-9.552-21.297-21.297v-3.897a21.184 21.184 0 0 1-13.358 4.725c-8.092 0-15.142-4.534-18.745-11.199-6.365 6.443-16.658 11.394-31.326 11.394-15.564 0-27.836-7.015-34.554-19.752a44.106 44.106 0 0 1-1.214-2.505 3112.749 3112.749 0 0 1-5.892 18.674c-4.278 13.375-15.63 21.046-31.147 21.049-.393 0-.79-.006-1.191-.015-11.06-.267-16.938-5.155-19.92-9.207-3.8-5.16-4.943-11.752-3.138-18.085 1.875-6.585 6.363-11.441 12.399-13.8l-20.382-41.763a21.36 21.36 0 0 1-1.008-16.425c1.867-5.43 5.725-9.836 10.9-12.327 3.233-1.557 6.435-2.234 9.476-2.234 8.85 0 16.344 5.723 19.278 12.128l2.925 5.997.906-2.925a21.396 21.396 0 0 1 20.535-15.147c2.155 0 4.296.324 6.361.963a21.328 21.328 0 0 1 11.1 7.992c8.099-6.663 17.726-9.02 24.966-9.02 9.656 0 20.352 3.45 28.377 11.855V75.85c0-11.742 9.552-21.294 21.294-21.294s21.296 9.552 21.296 21.294v3.9a21.189 21.189 0 0 1 13.359-4.728c3.565 0 6.955.876 9.937 2.448a37.632 37.632 0 0 1 12.725-2.189c5.772 0 11.55 1.296 16.711 3.747 3.792 1.802 6.906 4.028 9.48 6.506.182-.597.372-1.191.572-1.785a19.77 19.77 0 0 1 18.765-13.476c5.409 0 9.288 2.305 9.288 2.305L320.31 44.626a19.869 19.869 0 0 1-1.762-15.78 19.833 19.833 0 0 1 10.368-11.985 98.047 98.047 0 0 1 16.797-6.187c5.737-1.538 14.39-3.1 19.086-3.1h.115c11.06.062 19.775 8.884 19.775 19.8v32.28s5.055-9.296 16.711-9.296h.096c4.815.02 9.46 1.755 13.074 4.944a65.151 65.151 0 0 1 16.808 23.122c2.27 5.238 2.109 11.17-.261 16.358-4.043 8.845-13.092 10.755-13.092 10.755l.643.21a19.806 19.806 0 0 1 12.075 11.019 19.793 19.793 0 0 1-.322 16.335 66.477 66.477 0 0 1-17.553 22.486 19.843 19.843 0 0 1-12.6 4.533zm20.812-54.529c3.158-1.315 8.162-4.269 10.958-10.387 2.518-5.51 2.616-11.772.273-17.181a66.16 66.16 0 0 0-17.07-23.483 20.883 20.883 0 0 0-13.74-5.197h-.101c-8.145 0-13.194 4.257-15.696 7.171v-29.14c0-5.56-2.145-10.776-6.036-14.685-3.901-3.923-9.14-6.1-14.75-6.131h-.12c-4.788 0-13.599 1.595-19.348 3.135a99.369 99.369 0 0 0-16.973 6.254 20.844 20.844 0 0 0-10.899 12.6 20.877 20.877 0 0 0 1.854 16.585l14.595 25.286a21.354 21.354 0 0 0-6.867-1.159 20.782 20.782 0 0 0-19.822 14.452 37.056 37.056 0 0 0-8.558-5.599 40.21 40.21 0 0 0-17.148-3.845 38.55 38.55 0 0 0-12.648 2.1 22.44 22.44 0 0 0-10.014-2.36c-4.389 0-8.7 1.317-12.342 3.74V75.85c0-12.301-10.01-22.31-22.312-22.31s-22.31 10.009-22.31 22.31v9.337c-7.26-6.67-17.094-10.453-27.361-10.453-4.203 0-14.865.854-24.783 8.588a22.268 22.268 0 0 0-10.983-7.514 22.509 22.509 0 0 0-6.66-1.009c-9.929 0-18.57 6.375-21.507 15.862l-.147.476-1.803-3.693c-2.795-6.104-10.311-12.696-20.189-12.697-3.364 0-6.7.785-9.915 2.333-5.395 2.599-9.451 7.186-11.42 12.913a22.362 22.362 0 0 0 1.055 17.2l19.911 40.8c-5.916 2.644-10.155 7.59-11.992 14.04-1.892 6.637-.69 13.55 3.295 18.965 3.119 4.236 9.243 9.342 20.715 9.62.408.01.813.014 1.215.014 15.989 0 27.693-7.929 32.115-21.755 1.433-4.482 3.153-9.93 5.126-16.224l.114.22c6.903 13.087 19.494 20.295 35.452 20.295 15.972 0 25.632-5.656 31.101-10.774a22.305 22.305 0 0 0 18.971 10.58c4.387 0 8.7-1.316 12.342-3.741v1.896c0 12.303 10.01 22.312 22.312 22.312 5.847 0 11.38-2.256 15.576-6.35a22.185 22.185 0 0 0 6.678-14.37c4.041-.004 17.85-.818 27.471-11.077l.153-.16c1.082-1.152 2.832-3.015 4.676-5.948a19.313 19.313 0 0 0 15.37.64 20.77 20.77 0 0 0 4.1 3.713 67.506 67.506 0 0 0 26.85 10.865 21.06 21.06 0 0 0 3.457.288 20.724 20.724 0 0 0 20.601-17.849c3.926 5.01 9.894 7.943 16.365 7.943 4.821 0 9.525-1.692 13.247-4.764a67.469 67.469 0 0 0 17.821-22.835 20.811 20.811 0 0 0-10.255-27.945" fill="#ccc"/><path d="M231.834 150.665a7.518 7.518 0 0 1-15.034 0V75.85a7.517 7.517 0 1 1 15.034 0v74.814" fill="#050505" fill-rule="evenodd"/><path d="M163.485 116.297c.501-10.385 8.367-12.093 11.904-12.093 3.555 0 11.451 1.729 11.872 12.27 0 .557-.3.886-.63.886h-22.494c-.363 0-.69-.366-.654-1.063zm3.268 13.437l27.006.028c.188 0 .374-.015.56-.027 3.747-.285 7.299-3.393 7.313-8.371l.002-.029c-.004-.13-.018-.252-.027-.381-1.339-27.45-18.967-31.425-26.962-31.425-8.315 0-27.141 4.905-27.141 35.43.144 11.478 2.603 33.416 26.74 33.416 20.85 0 25.518-12.042 25.518-15.114 0-4.532-3.774-8.376-8.035-6.93-3.46 1.174-8.205 8.064-15.848 8.064-10.938 0-12.354-10.002-12.354-12.132 0-1.757.917-2.442 3.228-2.53m-61.678 19.099l-23.487-48.128a7.722 7.722 0 0 1 3.552-10.326 7.72 7.72 0 0 1 10.327 3.552l18.186 37.265 11.19-36.161a7.723 7.723 0 1 1 14.756 4.568s-12.578 41.134-20.138 64.77c-2.5 7.82-9.054 11.7-18.877 11.457-9.716-.234-11.222-5.964-10.146-9.743 1.185-4.155 4.653-5.41 8.047-5.392 8.777.045 9.896-5.271 6.591-11.862m215.978-10.154h.833c.674 0 1.304-.034 1.304-.798 0-.673-.573-.753-1.095-.753h-1.042zm-.678-2.158h1.78c1.158 0 1.706.427 1.706 1.395 0 .865-.555 1.234-1.283 1.314l1.398 2.142h-.732l-1.323-2.088h-.868v2.088h-.678zm1.566 5.97c1.968 0 3.544-1.545 3.544-3.596 0-2.01-1.576-3.555-3.544-3.555s-3.545 1.545-3.545 3.599a3.512 3.512 0 0 0 3.545 3.55zm0-7.757c2.295 0 4.218 1.799 4.218 4.161 0 2.403-1.925 4.203-4.218 4.203-2.295 0-4.215-1.8-4.215-4.16 0-2.405 1.92-4.204 4.215-4.204m-30.728-8.245c0 5.941 0 16.609-10.804 16.609-10.836 0-10.805-10.668-10.805-16.61v-5.428c0-5.941 0-16.61 10.805-16.61 10.834 0 10.804 10.669 10.804 16.61zm14.89-5.71c0-9.865-1.213-23.384-13.67-29.302-7.028-3.337-15.684-3.279-22.34.569a39.389 39.389 0 0 0-3.826 2.499 7.517 7.517 0 0 0-7.298-5.744 7.518 7.518 0 0 0-7.518 7.518v74.811a7.518 7.518 0 1 0 15.036 0v-19.633s5.05 6.192 13.09 6.402c28.552.744 26.681-30.311 26.525-37.12" fill="#050505"/><path d="M329.798 84.665l26.253 12.802c5.049 2.462 4.267 9.888-1.182 11.247l-28.339 7.065c-3.537.883-7.026-1.557-7.443-5.175a51.789 51.789 0 0 1 2.369-22.464c1.155-3.436 5.082-5.066 8.341-3.476m10.511 54.041l19.54-21.702c3.758-4.176 10.682-1.38 10.485 4.236l-1.02 29.198a6.022 6.022 0 0 1-7.02 5.727 52.282 52.282 0 0 1-20.925-8.468 6.022 6.022 0 0 1-1.06-8.991m46.328-28.88l27.773 9.026a6.022 6.022 0 0 1 3.576 8.316 52.281 52.281 0 0 1-13.887 17.795 6.024 6.024 0 0 1-8.944-1.45l-15.482-24.775c-2.976-4.765 1.62-10.65 6.963-8.911m28.246-17.718l-28.077 8.049c-5.4 1.549-9.788-4.491-6.645-9.15l16.333-24.213c2.028-3.006 6.242-3.56 8.963-1.161a51.818 51.818 0 0 1 13.28 18.27c1.45 3.343-.353 7.2-3.854 8.205m-65.603-68.126a84.01 84.01 0 0 0-14.43 5.316c-3.165 1.51-4.357 5.405-2.606 8.438l27.44 47.529c3.078 5.33 11.228 3.148 11.228-3.01v-54.88c0-3.504-2.982-6.28-6.476-6.006a84.159 84.159 0 0 0-15.156 2.612" fill="#d32323" fill-rule="evenodd"/></svg>