<svg width="500" height="200" xmlns="http://www.w3.org/2000/svg"><g fill="#00707E" fill-rule="nonzero"><path d="M47.57 18.5v18.49l1.89 1.32a35.32 35.32 0 0 1 6.73 6.5c.52.72.93 1.4.93 1.48 0 .11-.8-.27-1.78-.83-2.6-1.5-7.9-4.09-11.03-5.4-4.26-1.77-9.6-3.43-11.12-3.43h-.61v23.62l-7.32-.07c-7.23-.07-7.36-.07-8.38-.6-2.91-1.49-6.04-5.92-8.9-12.64-.68-1.6-.96-1.77-1.57-1.05-1 1.19-3.52 7.86-4.76 12.56C.1 64.4-.33 70.99.61 75.2c1.45 6.68 5.23 11.06 11.8 13.73l2.03.84 7.74.06c6.47.05 7.99 0 9.23-.29 3.23-.76 6.67-3.06 8.99-6 1.89-2.4 3.67-6.72 3.7-9.06.01-.6.04-.62.25-.24.42.76.07 6.42-.56 8.94-1 4.05-3.17 7.78-5.82 10.05-1.33 1.12-4.48 2.94-5.1 2.94-.27 0-.29 2.54-.22 18.25.06 17.84.08 18.31.54 20.38 2.7 11.9 10.06 22.67 20.5 29.95 2.04 1.4 6.48 3.91 6.48 3.67 0-.1-.18-.43-.42-.74a32.2 32.2 0 0 1-2.84-6.34c-2.17-6.88-2.4-16.86-.63-27.62.39-2.36.6-2.38.63-.02.02 7.93 2.34 17.62 6.19 25.73 9.12 19.26 27.58 32.13 53.75 37.5 8.41 1.73 16.08 2.57 27.48 2.97 3.67.13 4.3.09 4.1-.16-3.99-5.19-8.8-12.85-11.33-18.09-4.91-10.1-6.87-20.1-5.35-27.1.4-1.73.74-2 .74-.54 0 1.44.57 4.56 1.22 6.7 1.5 4.9 4.26 8.58 7.8 10.43l1.52.78.1-37.48.12-37.48h2.6c2.26-.03 2.85-.12 4.45-.66 7.74-2.65 11.65-6.94 12.62-13.88.66-4.65-.6-11.24-3.4-17.8-1.4-3.21-2.9-5.98-3.24-5.98-.18 0-.65.74-1.07 1.71-1.95 4.34-4.71 8.04-7.4 9.89-1.11.76-3.74 1.6-4.3 1.37-.29-.11-.35-1.3-.44-7.62-.09-7.12-.1-7.6-.65-9.96a44.6 44.6 0 0 0-3.43-9.77 51.92 51.92 0 0 0-10.19-14.38c-5.82-6.05-11.97-10.45-20.96-15.06a100.1 100.1 0 0 0-16.33-6.85L88.6 7v5.73l1.36 1.1a40.7 40.7 0 0 1 5.99 6.05c1.6 1.98 4.17 5.8 4.17 6.2 0 .11-.87-.56-1.91-1.5C87.2 14.82 69.2 5.81 50.93.88 49.5.53 48.15.14 47.96.1c-.37-.11-.4.88-.4 18.4zm30.28 27.3a70 70 0 0 0 12.35 9.35 51.6 51.6 0 0 0 16.88 6.56c2.95.56 9.01.56 11.51 0 3.72-.83 7.3-2.52 8.95-4.23.48-.5.98-.83 1.13-.78.15.06.35.56.44 1.1.08.51.54 1.8 1 2.8 1.08 2.3 2.5 3.78 4.69 4.95l1.6.85v23.53c0 12.97-.02 23.55-.06 23.55l-3.09-.45a159.39 159.39 0 0 0-24.1-1.82c-2.98-.02-7.48-.1-9.98-.18l-4.53-.13-2.79-3.91c-1.52-2.14-3.19-4.43-3.73-5.06-.87-1.05-.98-1.12-1.35-.8-.43.35-3.67 4.65-6.51 8.6-.96 1.33-1.87 2.4-2.02 2.4-.18 0-3.44.32-7.28.68-3.82.38-7.04.6-7.15.5-.08-.1-.15-12.46-.13-27.44l.07-27.26 2.04-.54c2.76-.72 5.39-2.07 6.73-3.46 1.92-1.98 3.04-5.22 3.07-8.68 0-1.44.08-1.89.39-1.89.06 0 .89.8 1.87 1.76z"/><path d="M85.64 70.34c-.37.22-.8.63-.9.87-.16.27-.25 2.34-.25 5.46 0 4.18.07 5.1.35 5.53 1.1 1.64 4.13 1.53 4.97-.18.48-.96.48-9.82 0-10.78-.65-1.33-2.78-1.78-4.17-.9zM126.22 72.83c-.4.1-.98.43-1.3.74l-.57.59v4.36c0 4.31 0 4.38.52 4.94a2.88 2.88 0 0 0 4.17 0c.52-.56.52-.63.52-4.94v-4.36l-.56-.56a2.98 2.98 0 0 0-2.78-.77zM480 16.18c-7.2.88-12.93 5.82-14.45 12.47a20.3 20.3 0 0 0 .46 8.92c2.15 6.43 8.1 10.72 15.42 11.13 9.6.51 17.1-5.49 18.16-14.54.39-3.4-.37-7.17-2.02-10.07-1-1.78-3.5-4.3-5.32-5.4a19.88 19.88 0 0 0-7.35-2.51c-2.17-.25-2.8-.25-4.9 0zM414.86 37.84l-14.23 2.97-.07 8.7-.04 8.7h-11.51V80.9l5.71.04 5.7.07.12 17.53c.09 14.94.18 17.84.48 19.73 1.76 10.72 5.93 17.48 13.1 21.28 9.38 4.99 25.41 4.36 36.51-1.4l1.78-.94.22-1.12c.13-.63 1.02-5.96 1.97-11.82.96-5.87 1.8-10.94 1.87-11.3.15-.81-.3-.81-1.5.04a34.77 34.77 0 0 1-7.42 3.75c-2.2.77-2.63.86-5.43.95-2.29.07-3.41 0-4.52-.27-3.91-.95-6.43-3.42-7.47-7.35-.35-1.3-.4-2.74-.4-15.26V81.01l13.1-.07 13.08-.04V58.2h-26.28V46.52c0-9.22-.07-11.69-.26-11.67-.16.03-6.7 1.35-14.51 3zM340.9 56.09l-2.7.34a40.49 40.49 0 0 0-16.28 5.93c-10.21 6.54-16.86 17.26-18.84 30.36-.43 2.97-.5 9.77-.1 12.9a44.63 44.63 0 0 0 4.27 14.8c5.74 11.85 16.38 19.29 31.09 21.74 2.93.47 11.27.67 15.42.33a63.69 63.69 0 0 0 20.4-5l1.54-.66 3.58-11.4c1.98-6.26 3.54-11.47 3.43-11.56-.09-.1-.93.13-1.87.53-8.95 3.69-16.22 5.51-24.26 6.05-10.7.7-18.61-2-23.07-7.91-1.17-1.55-2.54-4.14-2.82-5.42l-.15-.6h53.21l.18-1.76c.26-2.51.2-9.23-.11-11.84-1.8-15.55-8.8-26.88-20.27-32.76a41.6 41.6 0 0 0-14.4-3.98c-2.23-.2-6.8-.25-8.25-.09zm6.08 20.43c3.98.87 7.19 3.8 8.97 8.13.61 1.46 1.35 4.63 1.35 5.73v.86h-26.72l.13-.97a27.7 27.7 0 0 1 2.09-6.56c1.21-2.43 3.8-5.15 5.88-6.16a12.23 12.23 0 0 1 8.3-1.03zM208.73 58.34c0 .09 7.5 18.02 16.64 39.88L242 137.96l-.46.67a20.36 20.36 0 0 1-4.6 4.13c-2.78 1.69-5.96 2.43-10.63 2.43-4.69 0-8.86-.9-12.2-2.63-.59-.31-1.07-.45-1.15-.31-.18.29 5.32 26.56 5.62 26.9.33.38 4.8 1.52 7.76 2 5.12.83 12.27.42 17.35-.95 13.08-3.53 22.63-13.66 29.7-31.44 1.43-3.6 30.03-80.13 30.03-80.36 0-.1-7.01-.2-15.57-.2h-15.6l-7.38 23.06a1463.67 1463.67 0 0 1-7.5 23.12c-.06.02-3.86-10.34-8.47-23.05l-8.36-23.13h-15.9c-8.75 0-15.92.07-15.92.14zM467.64 99.66v41.46h29.54V58.2h-29.54z"/></g></svg>
