<svg width="500" height="200" xmlns="http://www.w3.org/2000/svg"><defs><clipPath id="a"><path d="M0-80.475h1437v332.598H0V-80.475z"/></clipPath></defs><path fill="none" d="M-1-1h502v202H-1z"/><g clip-path="url(#a)" fill="#6aa82f" transform="matrix(.346 0 0 -.346 1.268 116.703)"><path d="M285.45 63.02c-14.158-7.943-29.568-11.72-44.728-11.72-9.88 0-19.66 1.637-27.926 4.93-15.102-13.625-31.344-23.164-39.53-27.598C185.116 9.84 203.96-4.614 227.24-10.415a88.847 88.847 0 0 1 21.525-2.636c15.918 0 31.238 4.35 44.257 11.36a91.11 91.11 0 0 1 2.883 22.815c0 14.22-3.394 28.59-10.457 41.89m-15.218 111.98c-1.066.276-2.07.737-3.156.975l-.02-.12c1.106-.194 2.09-.62 3.176-.854m-3.234.14c-2.68-17.875-10.414-33.777-21.258-45.605.57-3.15.96-6.58.96-10.182-.042-20.914-10.84-39.1-24.32-53.746 3.86-.477 7.755-.743 11.614-.743 19.215 0 38.586 6.16 54.977 18.925 18.92 14.85 30.32 35.806 33.61 57.166-12.75 16.773-31.49 28.805-52.35 34.047-1.09.234-2.07.66-3.18.855l-.06-.715m-14.22 15.294c0 24.08-9.49 45.903-24.32 61.7h-1.3c-21.297 0-39.953-7.567-56.875-22.875 16.166-17.19 21.983-38.99 21.983-60.782 0-1.755-.067-3.494-.11-5.193a44.584 44.584 0 0 0 10.95 1.365h.96c13.91-.274 27.93-7.196 35.965-20.208 8.06 13.46 12.744 29.16 12.744 45.996M92.06 250.54c-1.327 0-2.596 0-3.065.262-14.55-15.98-23.286-37.094-23.286-60.094 0-.32 0-.61-.128-.786 1.007 0 2.03.035 3.07.035 24.51 0 46.937-9.76 62.83-25.47 13.345-.944 26.99-8.022 34.185-22.07 3.85 7.548 9.582 13.067 15.636 15.888 0 1 .04 2.047.04 3.08 0 24.63-10.19 49.18-30.01 66.737-17.044 15.1-38.2 22.423-59.275 22.423m27.762-87.776h-.016v-.02c0 .02.017.02.017.02m-2.76.452c-13.394 7.814-28.78 12.19-44.925 12.19a88.134 88.134 0 0 1-15.673-1.392C32.737 169.75 12.89 156.54 0 139.19c3.5-21.48 14.852-41.7 33.184-55.997 13.382 17.957 32.144 29.56 51.54 33.285 0 .902-.048 1.926-.048 2.887-.032 24.324 15.086 39.402 32.39 43.848M38.543 62.81C31.445 49.47 28.07 35.205 28.07 21.1c0-8.438 1.192-16.77 3.028-24.192A89.114 89.114 0 0 1 73.96-14.05c7.17 0 14.442.872 21.767 2.657-2.247 8.105-3.332 16.203-3.332 24.23 0 19.098 6.058 37.43 16.793 52.61-10.344 11.172-19.13 24.39-22.743 39.344-19.895-7.37-37.222-21.78-47.902-41.98m75.52-83h-.02l-.96-.45h.04l.94.45m48.324-46.04c20.03 8.67 36.95 24.568 46.34 45.87-22.832 9.46-39.707 27.226-48.243 47.722-7.3 3.767-26.148 14.317-43.312 30.114a89.471 89.471 0 0 1-9.945-40.952c0-12.13 2.414-24.472 7.777-36.27 9.836-22.05 27.496-38.084 47.383-46.475m-47.383 46.47l-.96-.438h.018l.942.438m335.324 62.2l-77.93-92.074h67.41c7.243 0 13.16-5.94 13.16-13.175 0-7.21-5.917-13.44-13.16-13.44h-97.996c-6.914 0-13.46 6.57-13.46 13.77 0 3.324 1.29 6.914 3.578 9.875l77.64 92.11h-67.758c-7.265 0-13.46 6.26-13.46 13.488 0 7.227 6.195 13.15 13.46 13.15h96.364c9.226 0 15.445-6.89 15.445-14.79 0-3.3-.98-6.25-3.29-8.9m95.71.974c-22.034 0-37.112-14.44-40.425-35.514h80.89c-2.93 20.066-18.765 35.515-40.47 35.515zm60.544-58.18H504.95c1.645-22.05 19.383-38.486 43.074-38.486 16.758 0 31.215 6.896 42.758 18.107 2.29 2.26 4.937 2.933 7.92 2.933 3.947 0 7.88-1.974 10.497-5.274 1.65-2.284 2.62-4.95 2.62-7.566 0-3.593-1.64-7.57-4.61-10.53-13.77-14.755-37.17-24.67-60.177-24.67-41.777 0-75.305 33.567-75.305 75.345 0 41.78 32.53 75.33 74.306 75.33 41.45 0 72.366-32.27 72.366-74.676 0-6.244-5.59-10.52-11.824-10.52M882.87 41.8c-26.292 0-43.077-21.038-43.077-46.686 0-25.642 16.784-46.724 43.077-46.724 26.348 0 43.078 20.094 43.078 46.727 0 26.642-16.73 46.685-43.077 46.685zm59.2-120.69c-8.855 0-16.12 7.226-16.12 16.094v7.58c-9.176-15.8-26.578-25.01-47.01-25.01-41.8 0-71.38 32.257-71.38 75.343 0 43.063 28.6 75.33 71.38 75.33 21.04 0 38.83-10.22 47.014-25.337v84.824c0 8.88 7.266 15.81 16.12 15.81 8.896 0 16.115-6.933 16.115-15.812V-62.8c0-8.867-7.22-16.093-16.115-16.093M1061.3 43.43c-22.05 0-37.18-14.44-40.45-35.515h80.9c-2.97 20.067-18.78 35.516-40.45 35.516zm60.53-58.182h-101.68c1.68-22.05 19.44-38.485 43.12-38.485 16.74 0 31.23 6.895 42.77 18.106 2.3 2.26 4.95 2.93 7.86 2.93 3.93 0 7.93-1.975 10.54-5.275 1.63-2.285 2.64-4.95 2.64-7.567 0-3.593-1.68-7.57-4.62-10.53-13.82-14.755-37.18-24.67-60.17-24.67-41.78 0-75.325 33.567-75.325 75.345 0 41.78 32.535 75.33 74.335 75.33 41.4 0 72.37-32.27 72.37-74.675 0-6.24-5.61-10.52-11.84-10.52m92.04-65.48c-16.13 0-37.12 5.27-52.6 14.5-4.94 2.937-7.93 7.566-7.93 12.5 0 1.62.66 3.29 1.33 4.93 1.99 4.6 5.61 7.57 10.23 7.57 1.98 0 4.61-.665 6.54-1.997 12.18-7.214 26.3-11.5 40.49-11.5 16.1 0 33.54 4.61 33.54 17.43 0 9.895-8.87 13.497-42.46 25-27.58 9.524-42.07 22.03-42.07 42.427 0 24.345 24.32 39.814 56.25 39.814 21.71 0 35.54-4.627 49.34-11.19 5.58-2.624 8.88-6.92 8.88-12.175 0-1.66-.33-2.966-1.01-4.626-1.98-5.255-6.93-8.536-12.49-8.536-1.65 0-3.27.354-4.58 1.003-11.86 5.573-24.35 8.86-37.54 8.86-17.43 0-28.25-3.97-28.25-14.46 0-10.52 8.53-12.84 33.19-20.702 29.95-9.915 50.99-20.103 50.99-44.76 0-24.01-22.02-44.093-61.85-44.093m209.37 1.666c-4.3-.322-8.59 1.643-11.53 4.944l-54.27 61.823-16.43-12.853V-62.8c0-8.867-6.94-16.093-15.83-16.093-8.83 0-15.77 7.226-15.77 16.094v192.44c0 8.855 6.94 16.11 15.77 16.11 8.89 0 15.83-7.254 15.83-16.106V12.864l68.4 52.95c2.63 1.988 5.59 3.273 8.89 3.273 4.58 0 8.53-2.292 11.51-5.562 1.96-2.648 3.61-5.61 3.61-9.203 0-4.61-2.32-8.554-5.93-11.55l-46.38-36.477 52.68-60.527c2.25-2.63 3.58-6.262 3.58-9.875 0-7.88-6.27-14.13-14.13-14.46M713.926 71.088c-37.32 0-68.13-29.105-68.13-68.144v-67.39c0-9.005 7.04-16.028 16.06-16.028 9.003 0 16.328 7.023 16.328 16.027V1.935c0 22.37 12.36 39.535 35.742 39.985 23.418-.45 35.754-17.614 35.754-39.985v-66.383c0-9.004 7.367-16.027 16.37-16.027 9.012 0 15.997 7.023 15.997 16.027v67.39c0 39.04-30.742 68.145-68.12 68.145m707.353 62.43c0 1.235-.83 1.97-2.63 1.97h-3.2c-.24 0-.24-.08-.24-.325v-3.278c0-.25 0-.332.24-.332h3.2c1.8 0 2.63.57 2.63 1.965zm-10.01-10.164v13.613c0 1.15.73 1.89 1.97 1.89h5.66c3.93 0 6.15-2.054 6.15-5.34 0-2.374-1.15-3.932-2.96-4.835l2.47-4.5c.24-.413.32-.82.32-1.233 0-.902-.82-1.723-1.8-1.723-.9 0-1.57.575-1.89 1.395l-3.03 5.5h-2.71c-.24 0-.24-.167-.24-.327v-4.43c0-1.316-.83-2.137-1.97-2.137-1.24 0-1.97.82-1.97 2.138zm18.79 6.723c0 7.14-5.34 12.472-12.32 12.472-6.97 0-12.3-5.332-12.3-12.472 0-7.223 5.33-12.547 12.3-12.547 6.98 0 12.32 5.32 12.32 12.54zm-27.98 0c0 8.78 6.81 15.664 15.66 15.664 8.87 0 15.68-6.883 15.68-15.664 0-8.86-6.81-15.75-15.68-15.75-8.85 0-15.66 6.89-15.66 15.75"/></g></svg>