<svg xmlns="http://www.w3.org/2000/svg" id="Layer_1" viewBox="0 0 500 200"><style>.st0{fill:url(#SVGID_1_);} .st1{fill:url(#SVGID_2_);} .st2{fill:url(#SVGID_3_);} .st3{fill:url(#SVGID_4_);} .st4{fill:url(#SVGID_5_);} .st5{fill:url(#SVGID_6_);} .st6{fill:url(#SVGID_7_);} .st7{fill:url(#SVGID_8_);} .st8{fill:url(#SVGID_9_);} .st9{fill:url(#SVGID_10_);} .st10{fill:url(#SVGID_11_);} .st11{fill:#4A4A4F;}</style><linearGradient id="SVGID_1_" x1="305.131" x2="305.131" y1="145.579" y2="61.438" gradientUnits="userSpaceOnUse" gradientTransform="matrix(1 0 0 -1 0 200.77)"><stop offset="0" stop-color="#DBE067"/><stop offset="1" stop-color="#90CDC6"/></linearGradient><path d="M292.3 102.5c-2.3 0-4.1-1.8-4.1-4.1 0-1.1.4-2.2 1.2-2.9L315 69.8c1.6-1.6 4.2-1.6 5.8 0 1.6 1.6 1.6 4.2 0 5.8l-25.6 25.6c-.7.8-1.8 1.3-2.9 1.3z" class="st0"/><linearGradient id="SVGID_2_" x1="317.333" x2="317.333" y1="145.579" y2="61.438" gradientUnits="userSpaceOnUse" gradientTransform="matrix(1 0 0 -1 0 200.77)"><stop offset="0" stop-color="#DBE067"/><stop offset="1" stop-color="#90CDC6"/></linearGradient><path d="M305.2 112.5c-2.3 0-4.1-1.8-4.1-4.1 0-1.1.4-2.1 1.2-2.9l24.2-24.2c1.6-1.6 4.2-1.6 5.8-.1 1.6 1.6 1.6 4.2.1 5.8l-.1.1-24.2 24.2c-.7.8-1.8 1.2-2.9 1.2z" class="st1"/><linearGradient id="SVGID_3_" x1="320.57" x2="320.57" y1="145.579" y2="61.438" gradientUnits="userSpaceOnUse" gradientTransform="matrix(1 0 0 -1 0 200.77)"><stop offset="0" stop-color="#DBE067"/><stop offset="1" stop-color="#90CDC6"/></linearGradient><path d="M311 126.4c-6.8 0-12.2-5.5-12.2-12.2 0-3.2 1.3-6.3 3.6-8.6 1.7-1.5 4.3-1.4 5.8.3 1.4 1.6 1.4 4 0 5.5-1.6 1.6-1.6 4.1 0 5.7 1.6 1.6 4.1 1.6 5.7 0l21.5-21.5c1.6-1.6 4.2-1.6 5.8 0 1.6 1.6 1.6 4.2 0 5.8l-21.5 21.5c-2.4 2.2-5.5 3.5-8.7 3.5z" class="st2"/><linearGradient id="SVGID_4_" x1="324.885" x2="324.885" y1="145.579" y2="61.451" gradientUnits="userSpaceOnUse" gradientTransform="matrix(1 0 0 -1 0 200.77)"><stop offset="0" stop-color="#DBE067"/><stop offset="1" stop-color="#90CDC6"/></linearGradient><path d="M329.4 88.3c-2.3 0-4.1-1.8-4.1-4.1 0-1.1.4-2.1 1.2-2.9.8-.7 1.2-1.8 1.2-2.8 0-2.2-1.8-4-4-4-1.1 0-2.1.4-2.8 1.2-1.6 1.6-4.2 1.6-5.8-.1-1.6-1.6-1.6-4.2 0-5.8 4.8-4.7 12.6-4.7 17.3.2 4.7 4.8 4.7 12.4 0 17.1-.8.8-1.9 1.2-3 1.2z" class="st3"/><linearGradient id="SVGID_5_" x1="355.378" x2="355.378" y1="145.579" y2="61.451" gradientUnits="userSpaceOnUse" gradientTransform="matrix(1 0 0 -1 0 200.77)"><stop offset="0" stop-color="#DBE067"/><stop offset="1" stop-color="#90CDC6"/></linearGradient><path d="M338.2 102.5c-2.3 0-4.1-1.8-4.1-4.1 0-1.1.4-2.2 1.2-2.9L369.7 61c1.6-1.6 4.2-1.6 5.8-.1 1.6 1.6 1.6 4.2.1 5.8l-.1.1-34.4 34.4c-.8.8-1.8 1.3-2.9 1.3z" class="st4"/><linearGradient id="SVGID_6_" x1="361.117" x2="361.117" y1="145.579" y2="61.438" gradientUnits="userSpaceOnUse" gradientTransform="matrix(1 0 0 -1 0 200.77)"><stop offset="0" stop-color="#DBE067"/><stop offset="1" stop-color="#90CDC6"/></linearGradient><path d="M338.2 125.4c-2.3 0-4.1-1.8-4.1-4.1 0-1.1.4-2.1 1.2-2.9l45.9-45.9c1.6-1.6 4.2-1.6 5.8 0 1.6 1.6 1.6 4.2 0 5.8l-45.9 45.9c-.8.8-1.8 1.2-2.9 1.2z" class="st5"/><linearGradient id="SVGID_7_" x1="359.999" x2="359.999" y1="145.579" y2="61.438" gradientUnits="userSpaceOnUse" gradientTransform="matrix(1 0 0 -1 0 200.77)"><stop offset="0" stop-color="#DBE067"/><stop offset="1" stop-color="#90CDC6"/></linearGradient><path d="M344 139.3c-6.8 0-12.2-5.5-12.2-12.2 0-3.3 1.3-6.4 3.6-8.7 1.6-1.6 4.2-1.6 5.8-.1 1.6 1.6 1.6 4.2.1 5.8l-.1.1c-1.6 1.6-1.6 4.1 0 5.7 1.6 1.6 4.1 1.6 5.7 0l34.4-34.4c1.6-1.6 4.2-1.6 5.8 0 1.6 1.6 1.6 4.2 0 5.8l-34.4 34.4c-2.4 2.3-5.5 3.6-8.7 3.6z" class="st6"/><linearGradient id="SVGID_8_" x1="379.611" x2="379.611" y1="145.579" y2="61.451" gradientUnits="userSpaceOnUse" gradientTransform="matrix(1 0 0 -1 0 200.77)"><stop offset="0" stop-color="#DBE067"/><stop offset="1" stop-color="#90CDC6"/></linearGradient><path d="M384.1 79.5c-2.3 0-4.1-1.8-4.1-4.1 0-1.1.4-2.1 1.2-2.9.8-.7 1.2-1.8 1.2-2.8 0-2.2-1.8-4-4-4-1.1 0-2.1.4-2.9 1.2-1.6 1.6-4.2 1.6-5.8-.1-1.6-1.6-1.6-4.2 0-5.8 4.8-4.8 12.5-4.8 17.3 0 2.3 2.3 3.6 5.4 3.6 8.6 0 3.2-1.3 6.4-3.6 8.7-.7.8-1.8 1.2-2.9 1.2z" class="st7"/><linearGradient id="SVGID_9_" x1="404.283" x2="404.283" y1="145.579" y2="61.451" gradientUnits="userSpaceOnUse" gradientTransform="matrix(1 0 0 -1 0 200.77)"><stop offset="0" stop-color="#DBE067"/><stop offset="1" stop-color="#90CDC6"/></linearGradient><path d="M384.1 102.5c-2.3 0-4.1-1.8-4.1-4.1 0-1.1.4-2.2 1.2-2.9l40.3-40.3c1.6-1.6 4.2-1.6 5.8-.1 1.6 1.6 1.6 4.2.1 5.8l-.1.1-40.3 40.3c-.7.7-1.8 1.1-2.9 1.2z" class="st8"/><linearGradient id="SVGID_10_" x1="421.507" x2="421.507" y1="145.579" y2="61.438" gradientUnits="userSpaceOnUse" gradientTransform="matrix(1 0 0 -1 0 200.77)"><stop offset="0" stop-color="#DBE067"/><stop offset="1" stop-color="#90CDC6"/></linearGradient><path d="M407.1 102.5c-2.3 0-4.1-1.8-4.1-4.1 0-1.1.4-2.1 1.2-2.9L433 66.6c1.6-1.6 4.2-1.6 5.8 0 1.6 1.6 1.6 4.2 0 5.8L410 101.3c-.7.7-1.8 1.2-2.9 1.2z" class="st9"/><linearGradient id="SVGID_11_" x1="431.29" x2="431.29" y1="145.579" y2="61.438" gradientUnits="userSpaceOnUse" gradientTransform="matrix(1 0 0 -1 0 200.77)"><stop offset="0" stop-color="#DBE067"/><stop offset="1" stop-color="#90CDC6"/></linearGradient><path d="M435.9 73.7c-2.3 0-4.1-1.8-4.1-4.1 0-1.1.4-2.1 1.2-2.9.7-.8 1.2-1.8 1.2-2.8 0-1.1-.5-2.1-1.2-2.8-1.6-1.6-4.1-1.6-5.7 0-1.6 1.6-4.2 1.6-5.8 0-1.6-1.6-1.6-4.2 0-5.8 4.8-4.8 12.5-4.8 17.3 0 2.3 2.3 3.6 5.4 3.6 8.7 0 3.2-1.3 6.4-3.6 8.7-.8.5-1.8 1-2.9 1z" class="st10"/><path d="M100.7 70.5H70.2c-2.4 0-4.4 2-4.4 4.4 0 2.4 2 4.4 4.4 4.4H88v.3l-30.3 43-.2 1.4c-.3 1.2.5 2.4 1.7 2.6H90c2.4 0 4.4-2 4.4-4.4s-2-4.4-4.4-4.4H72.5v-.1l29.8-43.4c1.3-1.8.3-3.8-1.6-3.8zM199.8 69.1c-10 0-19.6 8.9-20.4 9.4-2.5-5.8-8.3-9.6-14.6-9.4-7.7 0-13.6 4.3-16.1 6.3v-.3c0-2.7-2.1-4.9-4.7-4.9-2.4 0-4.5 1.7-4.9 4.1v.4l-2.9 20.8-3.7 26v.7c-.1 2.7 2.1 4.9 4.7 4.9 2.3 0 4.3-1.5 4.8-3.7.1-.2.1-.3.1-.5l3.7-27 1.2-9.2c.3 0 6.5-8 15-8 7.4 0 10.8 5.2 9.3 15.9l-.5 3.5-3.3 23.6v.7c0 2.7 2.1 4.9 4.8 4.9 2.2 0 4.2-1.5 4.7-3.6.1-.2.1-.3.1-.5l3.7-27 .2-1.2c.4-2.7.6-5.5.7-8.2 1.7-1.8 7.6-7.9 15.7-7.9 7.2 0 10.3 5.3 8.8 15.9l-3.5 24.9v.1l-.3 2.3v.7c0 2.7 2.2 4.8 4.8 4.8 2.2 0 4.1-1.5 4.7-3.6.1-.2.1-.4.1-.5l.8-5.8 3.3-22.7c2.1-15.2-2.8-25.9-16.3-25.9zM258.5 69.1c-5.3-.1-10.6 1.6-14.7 5-.5-2.6-3.1-4.3-5.7-3.8-2 .4-3.5 2-3.8 4v.1l-6.3 44.5-2.6 18.5-.9 6.2-.2 1.3v.6c0 2.7 2.2 4.8 4.8 4.8 2.2 0 4.1-1.5 4.7-3.6.1-.2.1-.4.1-.5l1.6-11.3 1.8-11.4c3.5 2.9 7.9 4.6 12.5 4.6 16.7 0 29-15 29-33.9 0-13.3-8.5-25.1-20.3-25.1zm-8.7 50.2c-4.2-.1-8.2-1.9-11.1-4.9l4.1-29s5.5-6.9 13.3-6.9c8.4 0 12.8 8 12.8 17 .1 13.4-8.6 23.8-19.1 23.8zM118.1 70.6c-2.2 0-4.1 1.5-4.7 3.6-.1.2-.1.4-.1.5l-3.6 26-2.9 20.7v.7c0 2.7 2.2 4.8 4.8 4.8 2.2 0 4.1-1.5 4.7-3.6.1-.2.1-.3.1-.5l3.6-26 2.9-20.7v-.5-.2c0-2.6-2.1-4.8-4.8-4.8z" class="st11"/><circle cx="120.4" cy="55.3" r="5.7" class="st11"/></svg>