<svg xmlns="http://www.w3.org/2000/svg" width="225px" height="90px" viewBox="0 0 160 64"><style>.st3{fill:#fff}</style><linearGradient id="SVGID_1_" gradientUnits="userSpaceOnUse" y1="32" x2="160" y2="32"><stop offset="0" stop-color="#03a9f4"/><stop offset="1" stop-color="#4dd0e1"/></linearGradient><path fill="url(#SVGID_1_)" d="M0 0h160v64H0z"/><path class="st3" d="M33.2 29.4h-1.5c-.7 0-1.2-.6-1.2-1.2V28c0-.7.6-1.2 1.2-1.2h4.9c.7 0 1.2.6 1.2 1.2v8.8c0 .7.6 1.2 1.2 1.2h1.5c.7 0 1.2.6 1.2 1.2v.1c0 .7-.6 1.2-1.2 1.2h-9.4c-.7 0-1.2-.6-1.2-1.2v-.1c0-.7.6-1.2 1.2-1.2H33c.7 0 1.2-.6 1.2-1.2v-6.2c.2-.7-.3-1.2-1-1.2zm4.9-6.4c0 .3-.1.6-.2.8-.1.3-.3.5-.5.7-.2.2-.4.4-.7.5-.3.1-.6.2-.9.2-.3 0-.6-.1-.9-.2-.3-.1-.5-.3-.7-.5-.2-.2-.3-.4-.5-.7-.1-.3-.2-.5-.2-.8s.1-.6.2-.8c.1-.3.3-.5.5-.7.2-.2.4-.4.7-.5.3-.1.6-.2.9-.2.3 0 .6.1.9.2.3.1.5.3.7.5.2.2.3.4.5.7.1.2.2.5.2.8zM55.1 36.6c0 .8-.2 1.5-.5 2-.4.6-.8 1-1.4 1.4-.6.4-1.2.6-2 .8-.7.2-1.5.2-2.2.2-1 0-1.9 0-2.8-.1-.5-.1-.9-.1-1.3-.2-.6-.1-1-.6-1-1.2v-.3c0-.8.8-1.4 1.6-1.2.3.1.7.2 1 .2.9.2 1.7.2 2.4.2.9 0 1.5-.1 2-.4.4-.3.6-.6.6-1.1 0-.2 0-.4-.1-.6-.1-.2-.3-.3-.5-.5-.3-.2-.6-.3-1.1-.5-.5-.2-1.1-.4-1.8-.6-.7-.2-1.3-.4-1.8-.6-.5-.2-.9-.5-1.3-.9-.3-.3-.6-.7-.8-1.1-.2-.4-.3-.9-.3-1.5s.1-1.1.4-1.6c.3-.5.6-.9 1.1-1.3.5-.4 1.1-.7 1.9-.9.8-.2 1.6-.3 2.7-.3.9 0 1.6 0 2.3.1.3 0 .5.1.8.1.6.1 1 .6 1 1.2v.1c0 .8-.7 1.4-1.5 1.2-.2-.1-.5-.1-.7-.1-.7-.1-1.4-.1-2.1-.1s-1.2.1-1.6.4c-.4.2-.6.6-.6 1 0 .2 0 .4.1.6s.2.3.5.5c.2.2.6.3 1 .5s1 .4 1.7.6c.8.2 1.5.5 2 .7s1 .6 1.3.9c.3.3.6.7.7 1.1.2.3.3.8.3 1.3zM68.5 36.6c0 .8-.2 1.5-.5 2s-.8 1-1.4 1.4c-.6.4-1.2.6-2 .8s-1.5.2-2.3.2c-1 0-1.9 0-2.8-.1-.5-.1-.9-.1-1.3-.2-.6-.1-1-.6-1-1.2v-.3c0-.8.8-1.4 1.6-1.2.3.1.7.2 1 .2.9.2 1.7.2 2.4.2.9 0 1.5-.1 2-.4.4-.3.6-.6.6-1.1 0-.2 0-.4-.1-.6-.1-.2-.3-.3-.5-.5-.3-.2-.6-.3-1.1-.5-.5-.2-1.1-.4-1.8-.6-.7-.2-1.3-.4-1.8-.6-.5-.2-.9-.5-1.3-.9-.3-.3-.6-.7-.8-1.1-.2-.4-.3-.9-.3-1.5s.1-1.1.4-1.6c.3-.5.6-.9 1.1-1.3.5-.4 1.1-.7 1.9-.9.8-.2 1.6-.3 2.7-.3.9 0 1.6 0 2.3.1.3 0 .5.1.8.1.6.1 1 .6 1 1.2v.1c0 .8-.7 1.4-1.5 1.2-.2-.1-.5-.1-.7-.1-.6-.1-1.3-.1-2-.1s-1.2.1-1.6.4c-.4.2-.6.6-.6 1 0 .2 0 .4.1.6s.2.3.5.5c.2.2.6.3 1 .5s1 .4 1.7.6c.8.2 1.5.5 2 .7s1 .6 1.3.9.6.7.7 1.1c.2.3.3.8.3 1.3zM72.8 26.8c.7 0 1.2.6 1.2 1.2v7.8c0 .8.1 1.3.4 1.7.3.4.7.6 1.3.6.6 0 1.1-.2 1.6-.7.4-.4.9-.9 1.4-1.5.2-.2.3-.5.3-.8V28c0-.7.6-1.2 1.2-1.2h.8c.7 0 1.2.6 1.2 1.2v11.4c0 .7-.6 1.2-1.2 1.2h-.5c-.7 0-1.2-.5-1.2-1.2v-.9c-.3.4-.6.7-.9 1-.3.3-.6.5-1 .7-.4.2-.7.4-1.1.5-.4.1-.9.2-1.4.2-.7 0-1.3-.1-1.9-.3s-1-.6-1.3-1c-.4-.4-.6-.9-.8-1.5-.2-.6-.3-1.3-.3-2V28c0-.7.6-1.2 1.2-1.2h1zM97 32.7v.9c0 .4 0 .7-.1 1h-9.1c0 .6.1 1.1.3 1.6s.5.9.8 1.2.8.6 1.2.7 1 .2 1.6.2c.7 0 1.4-.1 2.2-.2.3 0 .6-.1.9-.2.8-.2 1.5.4 1.5 1.2v1.1c-.4.1-.7.2-1.2.3s-.8.2-1.3.2-.9.1-1.3.1h-1.3c-1.1 0-2-.2-2.8-.5s-1.5-.7-2.1-1.3-1-1.3-1.3-2.2c-.3-.9-.5-1.9-.5-3s.2-2.2.5-3.1c.3-.9.7-1.7 1.3-2.4.6-.7 1.3-1.2 2.1-1.5.8-.4 1.7-.5 2.7-.5 1 0 1.9.2 2.6.5.8.3 1.4.7 1.9 1.3s.9 1.2 1.2 2c0 .8.2 1.7.2 2.6zm-3.4-.5c0-.5-.1-1-.2-1.4-.1-.4-.3-.7-.6-1-.3-.3-.5-.5-.9-.6-.3-.2-.7-.2-1.1-.2-.8 0-1.5.3-2.1.8-.1.2-.3.3-.4.5-.5.8.1 1.9 1.1 1.9h4.2zM102.6 35.6c.4 0 .7.1 1.1.2.3.1.6.3.9.6.2.2.4.5.6.9s.2.7.2 1.1c0 .4-.1.7-.2 1-.1.3-.3.6-.6.8-.2.2-.5.4-.9.6-.3.1-.7.2-1.1.2-.4 0-.7-.1-1-.2-.3-.1-.6-.3-.8-.6-.2-.2-.4-.5-.6-.8-.1-.3-.2-.7-.2-1 0-.4.1-.7.2-1.1s.3-.6.6-.9c.2-.2.5-.4.8-.6.3-.1.6-.2 1-.2zM118.9 36.6c0 .8-.2 1.5-.5 2-.4.6-.8 1-1.4 1.4-.6.4-1.2.6-2 .8-.7.2-1.5.2-2.2.2-1 0-1.9 0-2.8-.1-.5-.1-.9-.1-1.3-.2-.6-.1-1-.6-1-1.2v-.3c0-.8.8-1.4 1.6-1.2.3.1.7.2 1 .2.9.2 1.7.2 2.4.2.9 0 1.5-.1 2-.4.4-.3.6-.6.6-1.1 0-.2 0-.4-.1-.6-.1-.2-.3-.3-.5-.5-.3-.2-.6-.3-1.1-.5-.5-.2-1.1-.4-1.8-.6-.7-.2-1.3-.4-1.8-.6-.5-.2-.9-.5-1.3-.9-.3-.3-.6-.7-.8-1.1-.2-.4-.3-.9-.3-1.5s.1-1.1.4-1.6c.3-.5.6-.9 1.1-1.3.5-.4 1.1-.7 1.9-.9.8-.2 1.6-.3 2.7-.3.9 0 1.6 0 2.3.1.3 0 .5.1.8.1.6.1 1 .6 1 1.2v.1c0 .8-.7 1.4-1.5 1.2-.2-.1-.5-.1-.7-.1-.7-.1-1.4-.2-2.1-.2s-1.2.1-1.6.4c-.4.2-.6.6-.6 1 0 .2 0 .4.1.6s.2.3.5.5c.2.2.6.3 1 .5s1 .4 1.7.6c.8.2 1.5.5 2 .7s1 .6 1.3.9c.3.3.6.7.7 1.1.3.4.3.9.3 1.4zM130.7 40.7c-.7 0-1.2-.6-1.2-1.2v-7.8c0-1.5-.6-2.3-1.7-2.3-.6 0-1.1.2-1.6.7-.4.4-.9.9-1.4 1.5-.2.2-.3.5-.3.8v7.1c0 .7-.6 1.2-1.2 1.2h-.9c-.7 0-1.2-.6-1.2-1.2V22.6c0-.7.6-1.2 1.2-1.2h.9c.7 0 1.2.6 1.2 1.2v3.6l-.2 2.5.9-.9c.3-.3.6-.5.9-.7.3-.2.7-.3 1.1-.4.4-.1.8-.1 1.3-.1.7 0 1.3.1 1.9.3.5.2 1 .6 1.3 1s.6.9.8 1.5c.2.6.3 1.3.3 2v8.1c0 .7-.6 1.2-1.2 1.2h-.9z"/></svg>