<svg width="175" height="60" xmlns="http://www.w3.org/2000/svg"><path d="M92.938 34.265h7.07l-2.38-7.015c-.153-.445-.334-.97-.54-1.574a36.194 36.194 0 0 1-.615-1.96 33.957 33.957 0 0 1-.585 1.988c-.202.61-.392 1.136-.57 1.58l-2.38 6.98zm16.632 9.794h-4.656c-.522 0-.95-.122-1.29-.362a1.866 1.866 0 0 1-.7-.923l-1.528-4.465h-9.844l-1.53 4.465c-.116.328-.348.625-.69.888-.344.264-.765.396-1.263.396h-4.692L93.4 18.44h6.147l10.023 25.62zm20.992-10.323c.22.48.43.975.63 1.48.202-.518.415-1.02.64-1.505.225-.487.456-.96.693-1.416l6.645-12.954c.12-.224.24-.397.365-.52.124-.123.264-.214.417-.273.154-.06.33-.088.524-.088h5.27v25.6h-5.295V29.324c0-.714.035-1.49.106-2.32l-6.858 13.168c-.213.41-.5.72-.862.932-.362.21-.773.316-1.235.316h-.816c-.462 0-.873-.104-1.235-.315-.363-.21-.65-.52-.864-.932l-6.893-13.187a21.443 21.443 0 0 1 .141 2.339V44.06h-5.295v-25.6h5.269c.194 0 .37.028.523.087.154.06.293.15.417.274.125.123.246.296.365.52l6.663 13.006c.237.446.464.91.684 1.39m30.429-2.724h3.127c1.563 0 2.688-.37 3.376-1.108.687-.738 1.03-1.77 1.03-3.094 0-.585-.088-1.12-.266-1.6a3.286 3.286 0 0 0-.808-1.24c-.363-.344-.82-.612-1.37-.8-.55-.187-1.206-.28-1.963-.28h-3.127v8.123zm0 4.483v8.562h-6.006V18.442h9.133c1.824 0 3.39.214 4.7.64 1.308.43 2.387 1.018 3.233 1.77a6.88 6.88 0 0 1 1.875 2.653c.403 1.02.604 2.122.604 3.306 0 1.278-.208 2.45-.622 3.518a7.09 7.09 0 0 1-1.902 2.742c-.853.762-1.934 1.357-3.243 1.784-1.308.43-2.857.642-4.646.642h-3.127zM40.674 27.253L27.968 48.196h-2.302l2.276-13.647-7.048.01h-.1c-.633 0-1.148-.51-1.148-1.137 0-.27.254-.727.254-.727l12.664-20.92 2.34.01-2.332 13.668 7.084-.008.112-.002c.635 0 1.15.51 1.15 1.14 0 .254-.1.478-.245.668zM30.288 0C13.56 0 0 13.432 0 30c0 16.57 13.56 30 30.288 30 16.73 0 30.29-13.431 30.29-30 0-16.568-13.56-30-30.29-30z" fill="#0379C4" fill-rule="evenodd"/></svg>