<svg width="135" height="137" xmlns="http://www.w3.org/2000/svg"><g fill="none" fill-rule="evenodd"><path d="M109.574 67.374c0 8.247-2.405 16.15-6.528 22.677l16.836 16.836c8.246-10.995 13.4-24.738 13.4-39.513 0-14.774-5.154-28.518-13.4-39.512l-16.836 16.835c4.123 6.529 6.528 14.088 6.528 22.677z" stroke="#7FAFF5" stroke-width="3"/><path d="M70.337 112.95c-22.217 0-40.456-18.5-40.456-41.038 0-22.537 18.239-41.038 40.456-41.038 8.29 0 15.586 2.354 21.886 6.727l16.25-16.482C97.86 13.046 84.595 8 70.336 8 35.518 8 7 36.592 7 72.249c0 35.656 28.518 63.912 63.337 63.912 14.591 0 27.855-5.046 38.467-13.12L92.555 106.56c-6.3 4.037-13.927 6.392-22.218 6.392z" fill="#DDEAF9"/><path d="M67.656 109.292c-23.02 0-41.918-18.897-41.918-41.918 0-23.02 18.898-41.918 41.918-41.918 8.59 0 16.15 2.406 22.677 6.872l16.836-16.836c-10.995-8.246-24.738-13.4-39.513-13.4-36.077 0-65.625 29.205-65.625 65.626C2.03 104.138 31.579 133 67.656 133c15.118 0 28.862-5.154 39.857-13.4l-16.836-16.836c-6.528 4.123-14.43 6.528-23.02 6.528z" stroke="#7FAFF5" stroke-width="3"/></g></svg>