<?xml version="1.0" encoding="utf-8"?>
<svg version="1.1" id="Layer_1" xmlns="http://www.w3.org/2000/svg" xmlns:xlink="http://www.w3.org/1999/xlink" x="0px" y="0px"
	 viewBox="0 0 420.9 204.6" enable-background="new 0 0 420.9 204.6" xml:space="preserve">
<path d="M227.6,43.4l-1.7-0.1c0,0.2-0.1,0.4-0.3,0.4c-0.3,0.1-0.7,0-1.3-0.1l-0.8,0.5c-8.8,1.9-15.4,3.2-19.6,3.9
	c-1.3,0.2-2.6,0.6-4,1.2c-0.4-0.2-1.4-0.2-3,0.1l-1.6,0.3l-1.4-0.6l-0.4,0.1c-0.5,0.1-0.7,0.4-0.7,0.9c-10.9,2.2-18.8,3.9-23.7,5
	c-0.6-0.1-1-0.2-1.3-0.1c-1.3,0.5-7.2,1.8-17.9,4l-0.9-0.3c-0.4,0.4-1,0.6-1.6,0.7l-25.9,4.6c-4.3,0.8-6.9,1.6-7.6,2.6l1.1,1.1
	c0.7-0.1,4.4-1,10.9-2.7l3.3-0.6l2.1,0c0-0.2,0.3-0.4,1.2-0.6l1.2-0.2l4.2-0.4l0.1,0.4l-1.2,0.2c-0.6,0.1-1.2,0.1-1.7-0.2
	c-0.4,0.4-1,0.6-1.6,0.7l-5.8,1l0.2,0.9c0.1,0.5,0.8,0.7,2.2,0.4l0.1,0.8c-6,1.1-12.2,2.7-18.6,5l0.2,1.2c4.3,0.2,6.6,1.4,6.9,3.5
	l0.1,0.8c-2.7,0.8-4.7,1.3-6.1,1.5l-2.1,0.4c-0.4,0.1-0.6,0.4-0.7,0.9l0.6,0.8c22.4-4.8,37.6-8.2,45.6-10.2l0.9,0.3l15.4-3.6
	c1.5,0.1,2.2,0.4,2.3,0.9c-2.3,6.1-3.3,10-3,11.5c-7.5,28-11.2,42.4-11.1,43c-1.8,7-5.8,23-11.8,48.2c0.3,1.1,0.8,1.6,1.5,1.4
	l-0.9,4.4l0.7,2l-0.5,1.7l-0.9-0.2l0.3,1.6l0.9-0.2l2-0.7c0.1,0.5,0.4,0.7,1,0.6l0.4-0.1c1.4-1.4,2.9-5.6,4.5-12.6
	c0.6,0.1,1,0.2,1.3,0.1l0.2,1.3l-3.4,9.4c0.1,0.5,0.4,0.7,1,0.6l0.4-0.1c0.6-0.2,1-1,1.3-2.3l4.5-17.3l0.9,0.3l0.4-0.1
	c-0.4-2.2-0.3-3.4,0.2-3.5l-0.3-1.7l0.4-0.1l0.2,0.9l0.4-0.1c0.1-4,0.5-6.4,1.3-7l-0.5-0.8c2.3-4.4,3.3-7.4,3-8.9
	c1.5-5.9,2.2-9,2.2-9.3c8.6-33.1,13.8-51.7,15.6-55.6c1.2-7.3,3-11.1,5.2-11.5l0.9,0.2c0.4-0.3,1-0.5,1.6-0.7l9-1.6l2.8-0.9
	c0.1,0.3,0.2,0.4,0.4,0.4l2.4-0.9l0.8-0.1c0.9-0.2,1.6-0.1,2.1,0.1c0.3-0.1,0.7-0.3,1.1-0.6c14.4-2.8,24.4-4.9,29.9-6.1
	c0,0.2,0.2,0.3,0.4,0.3c0.4-0.3,1-0.5,1.6-0.7l3.7-0.6c1.6-0.3,3.7-0.8,6.5-1.6l0.9,0.3c1.8-0.6,3.3-1,4.4-1.2l9.4-1.7l-0.1-0.8
	L269,48l-5,0.4c0.1,0.3-0.1,0.5-0.4,0.5c-0.1-0.5-1.1-0.6-3-0.4l-4.9,0.9c-0.4,0.1-0.7-0.1-0.9-0.7l0.8-0.1c5.7-1,9.7-2.1,12.1-3.4
	l6.6-1.2l0.7-0.6c0.1,0.3,0.2,0.4,0.5,0.4l0.4-0.1l-0.2-1.2l-0.9,0.2c-0.1-0.4,1.3-1.4,4.2-2.9l2.9-0.5l-0.1-0.8l-3.5-0.3
	c-0.1-0.5,0.6-1.3,2.1-2.5l14.4-2.5l-0.1-0.8l-2.1-0.1l-2,0.4l-2.4,0.9c-0.5-0.2-1.2-0.2-2.1-0.1l-2.1,0.4l-0.7,0.6l-0.1-0.4
	c-0.3,0.1-0.7,0.3-1.1,0.6c-0.5-0.2-1.1-0.3-1.7-0.1l-0.4,0.1c-1.8,0.3-3.5,0.8-5.3,1.4l-1.7-0.1c-1.4,0.5-2.7,0.9-4,1.2l-2.5,0
	l-0.8,0.6c-2.8,0.2-5.1,0.4-6.6,0.7l-11,1.9c-0.1-0.8-0.5-1.2-1.1-1.1l-0.8,0.1c-1.7,0.3-3.8,0.8-6.1,1.5l-1.7-0.1
	C234.1,42,230.6,42.9,227.6,43.4L227.6,43.4z M140,62.3l0.1,0.4c-0.3,0.1-0.7,0.3-1.1,0.6l-0.1-0.8L140,62.3z M179,55.8l-0.2,0.9
	c-15.4,3.6-25.9,5.8-31.4,6.8l-2,0.8l-0.6-0.8l4.1-0.7l0.8-0.5l0.1,0.4c3.8-1.2,8.8-2.5,14.9-3.9c0.1,0.3,0.2,0.4,0.5,0.4
	c0.4-0.4,1-0.6,1.6-0.7l7.4-1.3L179,55.8z M120,71.3l2.5-0.4l0.1,0.4c-1,0.2-2.5,0.9-4.7,2.2l-0.1-0.4c-0.3,0.1-0.7,0.3-1.1,0.6
	c-0.6-0.2-1-0.3-1.3-0.2C115.1,72.7,116.7,72,120,71.3L120,71.3z M252.8,49.6l0.1,0.4l-3.7,0.6l-0.1-0.4L252.8,49.6z M163.7,67.4
	c0.1,0.3,0.2,0.4,0.5,0.4c0.5-0.4,0.9-0.6,1.1-0.6c1-0.2,2.2-0.2,3.8-0.2c0.4-0.4,1-0.6,1.6-0.7l1.7,0.2l0.1,0.4
	c-1.5,0.3-3.4,0.7-5.6,1.4l-3,0.1c-0.5,0.4-0.9,0.6-1.1,0.6c-0.1-0.3-0.2-0.4-0.5-0.4l-0.7,0.6c-0.6,0.1-1.2,0.1-1.7-0.1
	c-0.4,0.4-2.5,1-6.4,2l-3,0.1c-5.3,1.3-9.1,2.4-11.3,3.2l-1.7-0.1c-4,1-7.4,1.8-10.2,2.2l-1.2,0.2c-0.5,0.1-0.8-0.1-0.9-0.7
	c9-2.4,14.4-3.8,16.2-4.1l20.6-3.6L163.7,67.4z M187.4,67c-0.4,3.7-1,5.7-1.9,5.8l-0.1-0.8c0.5-1.1,0.9-2.8,1.2-4.9L187.4,67z
	 M185.3,74.6l0.1,0.4c-0.2,0.6-0.3,1-0.2,1.3l-0.4,0.1l-0.1-0.4c0.1-0.6,0.2-1,0.1-1.3L185.3,74.6z M184.5,77.3l0.4-0.1
	c-0.2,0.5-0.3,1.1-0.1,1.7l-0.8,0.1l-0.2-0.9C183.7,77.8,184,77.4,184.5,77.3L184.5,77.3z M181.6,87.5l0.3,1.7l-0.8,0.1
	c0.2-0.5,0.3-1.1,0.1-1.7L181.6,87.5z M179.1,99.4c0.1,0.5-0.1,0.8-0.7,0.9l-0.4,0.1c0.2-0.5,0.2-1.1,0.1-1.7
	C178.6,98.6,179,98.8,179.1,99.4L179.1,99.4z M175.7,111.4l0.1,0.4c0.1,0.5-0.1,0.8-0.7,0.9l-0.2-1.2L175.7,111.4z M174.5,114.6
	l0.1,0.4c0.1,0.8,0,1.3-0.6,1.4l0.1-1.7L174.5,114.6z M160.1,164.5c0,1.7-0.3,2.6-0.8,2.7l0-2.5L160.1,164.5z M162.5,168.7l0.8-0.1
	l0.1-2.2l-0.8,0.1L162.5,168.7z"/>
<path d="M217.4,74.2c-12.3,11.4-20.2,19.9-23.8,25.5c-11.1,15.9-15.2,32.2-12.2,48.9c2.6,14.7,10.2,22.6,22.7,23.8
	c4.9-0.9,9.8-2.7,14.7-5.4c11.4-5.6,19.9-14.8,25.7-27.7c6.6-20.4,8.9-36.5,6.8-48.4c-1.8-4.6-3.1-6.8-4-6.7l-0.8,0.6
	c0.1,0.6,0.5,1.4,1.3,2.5c0.4,4.2,0.4,8.1-0.3,11.6l-0.4,0.1l-0.1-0.4c-0.3-3.4-0.3-5.2-0.1-5.6c-0.3,0.1-0.5-0.1-0.5-0.4
	c-0.8,0.1-0.9,4.3-0.5,12.6c-0.7,8.8-1.8,14-3.2,15.8c0.5-6,0.5-10.2,0.1-12.5c-0.3-1.7-1-4.8-2.1-9.3l-0.9,0.2l0.2,1.3
	c0.2,1.3,0.6,2.4,1.1,3.5c0.2,4.6-0.2,7-1.1,7.1l-0.6-8.7l-0.9,0.2c0.2,8-0.1,15-0.9,21c-4.4,13.6-12.7,24.1-25,31.7
	c-0.9,0.2-1.9,0.2-3.2,0.1c-7.1-2-11.3-6.2-12.4-12.6c-1.1-6.3,0.6-15.8,5.1-28.6c3-7.9,8.7-16.8,17-26.7c-0.4-2.5,8.9-8.2,28-17
	l-0.2-0.9l-0.4,0.1l-6.5,2.6l-0.2-0.9c2.9-1.1,4.3-1.7,4.2-2.1l23.6-7.9c0.1,0.3,0.2,0.4,0.5,0.4l1.8-0.3l-0.2-0.9l-0.9,0.2
	c-4,0.7-10.3,2.1-18.7,4.2l-0.4,0.1l-0.1-0.4c5.6-3.5,10.4-5.5,14.2-6.2l4-0.7c-2.4-2.4-4.7-3.3-7-2.9C246,57.5,231.5,64,217.4,74.2
	L217.4,74.2z M248.7,62.7l0.2,0.9c-0.5,0.1-1.9,1-4.2,2.6c-0.2-0.3-1.6-0.2-4.1,0.3l-0.1-0.4L248.7,62.7z M191.1,108.9
	c5.5-10.2,11-17.7,16.4-22.3c0.2,1.4-1.2,3.5-4.5,6.3c-3.1,5-7.5,11.1-13,18.5C190,110.6,190.3,109.8,191.1,108.9L191.1,108.9z
	 M199.8,113.4c0.2-4.6,4.6-11.6,13.4-20.9l0.1,0.4c-8.4,12.4-13.5,22.6-15.4,30.5c-1.5,7.1-2.4,10.6-2.7,10.7
	C196.1,123.8,197.6,116.9,199.8,113.4L199.8,113.4z M195.4,107.2c0.2,1.3-2.1,7.1-7.1,17.4l-0.4,0.1l-0.1-0.4
	C189.2,117.3,191.8,111.6,195.4,107.2L195.4,107.2z M249.4,98.6c0.5,2.8-0.1,9.2-1.7,19.3l-0.5,0.1l-0.1-0.4
	C247.3,108.6,248.1,102.3,249.4,98.6L249.4,98.6z M189.4,112.5l0.1,0.4c0.1,0.6-0.2,0.9-0.8,1l-0.1-0.4
	C188.5,113,188.8,112.7,189.4,112.5L189.4,112.5z M186.5,119.4l0.1,0.4c-0.9,5.4-1.4,10.1-1.7,14.2l0.6,0.8
	c0.1,6.1,0.6,11.6,1.5,16.4c0.8,4.4,1.8,7.4,3,9.2l0.2,0.9l-0.4,0.1c-2-2.5-4.1-8.4-6.4-17.8c-0.8-4.8,0.1-12.8,2.7-24.1
	L186.5,119.4z M195.1,136.4l0.1,0.4c0.1,0.6-0.2,0.9-0.8,1l-0.1-0.4C194.2,137,194.5,136.7,195.1,136.4L195.1,136.4z M240.9,128.8
	c0.1,0.4-0.3,1.7-1.2,3.9l-0.4,0.1l-0.1-0.5C239.6,130.3,240.2,129.1,240.9,128.8L240.9,128.8z M190.2,138.2l0.1,0.4
	c0.1,0.3,0.2,2.9,0.5,7.8c0.1,0.3,0.3,0.8,0.7,1.3c-0.2,0.6-0.2,1.2-0.1,1.9c0.1,0.7,0.4,1.2,0.8,1.7l-0.3,0.9
	c0.2,1.1,1.1,3.6,2.6,7.4l0.2,0.9l-0.4,0.1c-1.7-2.6-3.4-6.9-5-12.9c0-3.4,0.2-6.6,0.6-9.4L190.2,138.2z M233.8,138.4l0.4-0.1
	l0.1,0.4c-4.2,7.2-6.7,10.9-7.7,11.1l-0.1-0.4C226.4,148.7,228.8,145,233.8,138.4L233.8,138.4z M239.3,143.4l0.1,0.4l-0.4,0.1
	c-1.3,2.4-3.6,5.8-7,10l-0.4,0.1c4.7-6.6,7-10.1,6.9-10.4L239.3,143.4z M203.6,161.3l0.1,0.5l-1.4,0.2c-2.4,0.4-4.2-0.8-5.3-3.8
	l-0.1-0.4L203.6,161.3z M208,162.4l6.7-1.2l0.1,0.4l-2.1,0.9l-5.4,1C207.1,162.9,207.3,162.6,208,162.4L208,162.4z M204.4,165.8
	l0.1,0.4l-0.9,0.2c-1.5,0.3-3-0.2-4.4-1.5l-0.1-0.5C202.2,165.4,204,165.9,204.4,165.8L204.4,165.8z"/>
<path d="M388.2,4.8c-30.5,6.5-49,10.3-55.6,11.5c-2.8,0.5-5.1,1.4-6.8,2.8l-1.8-0.5c-1.4,0.2-3.3,1.9-5.6,5
	c-4.6,7.8-7.9,11.9-10,12.3c0.6,3.3-5,13.2-16.6,29.7c-6.1,13.7-14.6,26.9-25.6,39.4l-4.4,11.3l1,1.4c5.4-2.6,8.7-4,9.8-4.2l3.9-0.7
	c0.3,1.6,0.9,2.3,2,2.1l1.6-0.3c1.1-1.3,2.1-2,2.9-2.1c-0.6-3.3,7.9-7.3,25.5-11.8c-0.1,1.6-2.1,2.7-5.9,3.4l-1.6,0.3l0.3,1.6
	l0.8-0.1l1.4-1.1c0.1,0.6,0.4,0.8,0.9,0.7c10.4-3.5,16.8-5.4,19.3-5.9c12.1-2.1,18.8,0.7,20.2,8.6l0.3,1.6c0.5,2.6,0.2,4-0.8,4.2
	c1.2,6.6-5.4,13.9-19.7,22.1c-11.6,4.9-17.3,7.8-17.1,8.7l0.1,0.8c1.6-1.3,5.4-2.8,11.4-4.4l1.6-0.3l0.1,0.8l-0.8,0.1
	c-3.3,3.8-15.2,10-35.7,18.4c-8.4,1.5-12.4,3.5-11.9,6.1c-14.7,7.5-28.2,12.3-40.5,14.4l-0.8,0.1c-1.7-0.5-2.6-1.2-2.7-1.9
	c-0.9,0.2-1.4,0.8-1.3,1.8l0.1,0.8c0.2,1.1,0.8,1.5,1.9,1.3l5.5-1c7.4-1.3,16.4-4.2,26.9-8.8l5.5-1l1.4-1c0.1,0.5,0.4,0.7,1,0.6
	c0.3,1.5-0.4,2.4-2,2.7c-10,3.6-17,6.4-21.2,8.7c-1-0.4-2.1-0.4-3.3-0.2l-1.6,0.3l1.5,3.8c-6.9,2.8-11.2,4.4-13,4.7l-1.5,0.3
	l0.3,1.6c3.4-0.6,7.1-0.7,11.3-0.4c1.1-0.2,1.5-0.8,1.3-1.8l-0.1-0.8l-2.4,0.4c-0.2-0.9,0.3-1.6,1.3-1.9l7.2-1.3l0.3,1.6l-4.8,0.8
	l0.3,1.5c3.9-0.2,8.7-0.7,14.3-1.7l0.1,0.8c-7.1,2.8-11.7,4.4-13.7,4.8l-1.5,0.3l0.3,1.6l0.8-0.1c9.1-1.6,30.5-11.1,64-28.3
	c20.3-8.7,36.3-19.4,47.9-32c10.3-14.9,14.7-27,13-36.3l-1-5.5l-1.1-1.5c0.5-0.1,0.7-0.4,0.6-0.9L365,90c-1.3-5.2-3.3-7.5-6.1-7
	c-3.1-4.3-13.7-5.7-31.6-4.2c0.1,0.5-0.1,0.8-0.6,0.9l-0.1-0.8c-5.6,1-13,2-22.2,3.1l-0.8,0.1c7.8-12.5,17-26.6,27.5-42.2
	c-0.2-1.4,19.4-6.5,59-15.2l0.8-0.1l-0.3-1.5c-1.6,0.3-2.5-0.1-2.7-1.2l7.9-1.4c8.2-2.3,12.1-4.6,11.7-6.9c-0.2-1.1-1.6-1.4-4.2-0.9
	c-2.4,0.4-5.7,1.3-10.1,2.6c-2.2-0.1-4.1-0.1-5.7,0.2l-0.1-0.8c1.8-0.3,7.3-1.6,16.4-3.7l3.3,0.2c-0.1-0.5,0.1-0.8,0.6-0.9l0.1,0.8
	c0.7-0.1,2.6-1.3,5.9-3.5c1.6-3,4-5,7.1-6.1L419.8,0c-1.8,0.3-7.3,1-16.6,2.1c-0.6,0.1-1.3,0.5-2.2,1.2c-4.7,0.3-8.5,0.4-11.3,0.4
	L388.2,4.8z M322,44l0.1,0.8l-0.5,1.8L298.9,83l-2.4,0.4C296.2,81.3,304.7,68.2,322,44L322,44z M304.1,61.8l0.8-0.1l0.1,0.8
	c-5.4,8.9-10.2,16.6-14.7,22.9l-1.5,0.3l-0.1-0.8L304.1,61.8z M286.4,90.1l0.8-0.1c0.2,1.1-0.2,1.7-1.3,1.9L285,92
	C284.9,91.1,285.3,90.5,286.4,90.1L286.4,90.1z M321.1,84.8l13.4-2.4l0.1,0.8c-1.7,0.3-3,0.8-3.8,1.5l-1.8-0.5
	c-0.8,0.1-10.3,2.6-28.7,7.5l-0.1-0.8C306.2,88.2,313.2,86.2,321.1,84.8L321.1,84.8z M352.4,82.6c5.6,1.5,9.1,3.3,10.7,5.4l0.3,1.5
	c-0.6,0.1-1.4,0-2.5-0.3c-0.7-2-4.3-3.6-10.6-4.6c-1.2,0.2-2.2,0.7-3,1.3c-2.1-0.2-4-0.1-5.6,0.2l-0.1-0.8
	C346.3,84.4,350,83.5,352.4,82.6L352.4,82.6z M350.1,87.8l0.3,1.5l-3.3-0.2l-0.3-1.5C347.8,88,348.9,88,350.1,87.8L350.1,87.8z
	 M353.9,91.2c2.9,0.9,4.5,2.7,5,5.6l0.1,0.8c-2.4-0.3-4.9-2-7.4-5.2l-0.1-0.8L353.9,91.2z M344.9,100.1c0.9-0.2,1.9,1.3,3.2,4.3
	l-1.5,1.1l-2.5-5.3L344.9,100.1z M308.6,160.9l2.3-0.4l0.1,0.8l-9.7,5l-3.2,0.6l-0.1-0.8C303.7,163.9,307.2,162.2,308.6,160.9
	L308.6,160.9z M273.7,170.3c0.9-0.7,1.7-1.2,2.2-1.3l4.7-0.8l0.1,0.8c-4.9,1.9-7.7,2.9-8.3,3.1l-1.8-0.5l0.6-1.8
	C271.7,169.8,272.6,169.9,273.7,170.3L273.7,170.3z M280.1,174l3.9-0.7l0.3,1.5c-2.8,0.5-7.6,2.2-14.5,5l-3.2,0.6l-0.1-0.8
	L280.1,174z M234.3,199.9l4.7-0.8l-0.3-1.5l-4.7,0.8L234.3,199.9z"/>
<path d="M57.7,76.5C37.4,93.2,20.3,116.4,6.5,146c-5.7,13.1-7.7,25-5.8,35.7c0.9,5.1,3.9,9.3,9.1,12.8c1.5,8.8,9.9,11.8,25,9.2
	l0.7-0.1l3.6-1.3c0.2,1,2.7,1,7.6,0.2c9.7-1.7,20.9-6.5,33.7-14.3l1.5-0.3l0.1,0.8c-4.8,4.3-8.9,6.8-12.3,7.4l0.3,1.5l2.9-0.5
	c2.4-0.4,10.2-6.1,23.4-16.9c16.9-24,24.2-42.7,21.9-56c-3-8.9-4.6-13.6-4.7-14.2C105.4,99.1,94.2,95,79.5,97.6
	c-4.6,0.8-8.4,2.2-11.3,4.3c-4.5,0.8-13.1,7.8-25.7,21.1l0.1,0.8l2.2-0.4c6.2-7.6,12.9-12.1,20.3-13.4l0.7-0.1l0.1,0.8
	c-2.3,0.4-8.1,6.2-17.3,17.3l1,1.3c4.1-5.2,6.3-7.9,6.8-8l2.2-0.4l0.3,1.5c7.3-4.8,12.4-7.5,15.2-8l8.8-1.5
	c4.4-0.8,9.5,2.6,15.4,10.1l0.3,1.5c2.4,13.6-3.8,27.1-18.6,40.2c-14.1,10.6-28.3,17.1-42.5,19.6c-1.9,0.3-3,0-3.2-0.9
	c-6.9,1.2-11.5-5-13.9-18.7c-1.6-9.1,6.4-25.3,23.9-48.7c9.3-10.9,19.9-21.8,31.9-32.8l-3.6,0.6l-3.2,3.6l-0.7,0.1
	c5.5-6.5,16.2-15.7,32.1-27.6l18.8-13.1c15.7-9.9,25.4-15.1,29-15.7c0.3-2.5,0.9-3.9,1.6-4l3.6-0.6l-0.1-0.8l-1-1.3
	c-6.1,1.9-13.5,5.2-22.4,10c-0.3-1.4-1.1-2-2.5-1.8l-0.1-0.8c15.8-7.4,23.5-12,23.2-13.8l-0.3-1.5c-13.2,5.8-23.6,10.9-31.3,15.3
	l-0.3-1.5c10.8-6.4,17.7-10.1,20.6-11.2l-1-1.3C117,25.5,90.1,45.1,57.7,76.5L57.7,76.5z M128,34.7l0.7-0.1l0.1,0.8l-17,10.5
	l-0.7,0.1C116.9,41.1,122.5,37.4,128,34.7L128,34.7z M86,100.3c5-0.2,7.6,0.3,7.8,1.6c-4.9-0.1-10.6,0.1-17.2,0.8l-0.1-0.8L86,100.3
	z M35.6,110l0.8-0.1l0.1,0.7c-0.8,2.2-1.6,3.3-2.4,3.4l-0.8,0.1l-0.1-0.7C34,111.2,34.9,110.1,35.6,110L35.6,110z M81,106.5l1.6,0.4
	l-0.5,1.6l-3.7-0.1c-0.8,1.6-5.2,3.9-13.2,6.8l-1-1.3C70,110.9,75.6,108.4,81,106.5L81,106.5z M89.1,105l3.7,0.1l0.1,0.8l-0.7,0.1
	l-3.8-0.1l-0.1-0.7L89.1,105z M102.3,145.7l0.1,0.8c-1.7,3.8-2.9,5.7-3.5,5.9C98.7,150.6,99.8,148.4,102.3,145.7L102.3,145.7z
	 M19.1,170.2c0.1,0.5,0.4,1.2,1.1,2l-0.7,0.1c1.5,3,2.3,4.6,2.4,4.9l0.1,0.7c-1.1,0.2-2.2-1.9-3.4-6.1l-0.3-1.5L19.1,170.2z
	 M9.3,183.2l0.4,2.2l-0.8,0.1c-0.8,0.1-1.4-0.3-1.7-1.2l-0.5-2.9C8.3,182,9.2,182.5,9.3,183.2L9.3,183.2z M99.3,171.1l0.1,0.8
	c0.2,0.9-1.9,3.5-6.2,7.8l-0.3-1.5L99.3,171.1z M15.1,198.8c1.6,0.5,2.4,1.1,2.5,1.8l-2.2,0.4c-0.1-0.5-0.5-1.2-1.1-2L15.1,198.8z"
	/>
</svg>
