<?xml version="1.0" encoding="utf-8"?>
<!-- Generator: Adobe Illustrator 18.0.0, SVG Export Plug-In . SVG Version: 6.00 Build 0)  -->
<!DOCTYPE svg PUBLIC "-//W3C//DTD SVG 1.1//EN" "http://www.w3.org/Graphics/SVG/1.1/DTD/svg11.dtd">
<svg version="1.1" id="Layer_1" xmlns="http://www.w3.org/2000/svg" xmlns:xlink="http://www.w3.org/1999/xlink" x="0px" y="0px"
	 viewBox="0 294.3 612 235.9" enable-background="new 0 294.3 612 235.9" xml:space="preserve">
<path d="M543.2,301.3c-1.6,7.3-4.2,12.7-7.7,16.3L533,316c2.7-6.9,4-10.9,3.9-11.9l-0.7-1.1c-0.9,0.1-2.1,2.5-3.6,7.3l-1.3,0.1
	c-0.1-0.9-0.3-1.6-0.7-2.3l-0.6,0.1c-11.8,32.9-17.1,48.2-28,73.5c-2,6.5-3.7,10.1-5.2,10.8c0.1,0.7,0.5,1.1,1.3,1
	c0.3,3.2-0.5,6.3-2.2,9.4c-5.1,14.5-8.4,22.5-10.1,23.9l1.1,6.9c0.1,0.7-0.3,1.2-1.1,1.2l-1.2,0.1c-0.2-1.9-0.9-2.8-2.1-2.7
	l-0.6,0.1c-1.5,2.4-2.7,5.2-3.5,8.4l1.2-0.1c1.6-1,2.3-2.2,2.2-3.7l2.4-0.2l1.3,0.5c-1.1,1.7-1.6,3.1-1.5,4.1l0.6,1.1l-1.5,3.6
	l0.1,0.6c1.4-0.1,2.9,0.3,4.5,1.3c1.1-0.1,2.3-0.6,3.6-1.4c1.4-0.1,6.4-0.2,15.2-0.2l4.4-1.5c5.4-0.1,6.2,0.1,10.9-0.3l1.9-0.2
	l1-0.7l0.1,0.6c4.8-0.4,5.2-0.1,9,0.4l0.1,0.6l-2.7,0.2l0.1,1.1c0.8-0.1,1.5-0.3,2.1-0.8c0.7-0.1,1.1,0.3,1.2,1.1
	c-1.1,0.1-2.3,0.4-3.7,0.8l-1.2-0.4c-1.9,0.5-1.5,0.6-2.7,0.7l-1.9-0.4c0,0.3-0.1,0.5-0.4,0.6c0.1,0.7,0.4,1.1,1.1,1l2.3-0.2l-1-0.4
	c0,0.3,0.2,0.5,0.6,0.5l9.9-0.9l3.8-0.8c0,0.3,0.2,0.5,0.5,0.5l1.8-0.7l3.4-0.3c2.7-0.2,2.6-0.4,8.3-1.3c0-0.3,0.1-0.5,0.4-0.5
	l0,0.5c10.9-1.8,9.9-1.7,12.2-2.5l-0.5-1.2c-3.1,0.7-3,0.3-4.6,0.5l-8.3,0.4l-0.1-0.6l4.6-0.6l1.7-0.1l0.9-0.7l0.1,0.6
	c6.5-0.6,8.8,1.1,39.1-5.3c1.6-0.1,1.5-1.5,2.5-4.3c-0.6,0-1.1-0.1-1.6-0.4c-2.5,1-3.8,0.5-8.6,1.3c-0.4,0-0.7-0.3-0.9-1.1l0-0.5
	l4.6,0.2c0.8-0.1,2.6-0.2,5-1.6c0.5,0.3-0.4,0.6,0.1,0.5l0.8-0.1c0.5,0,0.7-0.4,0.7-1.2l-0.5-1.1c-3.1,0.3-4.6,0.4-7.1,1.8l-0.1-0.6
	l-3.8,0.4c-0.1-1.2-0.4-1.7-0.9-1.7l-2,0.2c-2.3,0.2-3.4,0.1-4.5,1c0-0.4-0.2-0.6-0.4-0.6l-2.2,0.2l-1.3,0.7c0-0.4-0.2-0.6-0.4-0.6
	l-0.8,0.7l-0.1-0.6l-3-0.2l-0.7,0.1l0.1,1.1l1.6,0.4l1.4-0.1c0.5,0.3,1.1,0.4,1.7,0.4l1.3-0.6l0,0.5c-7.1,1.8-7.1,1.4-12,2.3
	c-0.6-0.4-1-0.5-1.2-0.5c-0.5,0.5,0.6,0.1,0.3,0.1c-0.8,0.1-1.2-0.3-1.3-1l2.5-0.3c0.2,0,0.3,0.2,1.7,0.5c2-1,2.1-1.4,3.2-1.5
	l-0.1-1.1c-7,1.4-4.2,0.5-13,1.2l-0.4,0l-0.1-1.1c11.3-1.4,7.5-0.6,11.3-1.7c0,0.4,0.2,0.6,0.4,0.6c0.4-0.4,1-0.7,1.6-0.7l0.8-0.1
	c3.9-0.3,5.3,0.5,13.1-1.7l0,0.5l1.3-0.6l1.2-0.1c-0.1-1.2,1.7-1.3,2.2-1.4l-0.1-1.2c-13.7,2.8-17.3,2-21.1,3.1l0-0.5
	c-3.6,0.7-3.7,0.3-4.6,0.4c-0.3,0-0.7,0.3-1.1,0.7c0-0.4-0.2-0.6-0.5-0.6c-0.6,0-0.3,0.2-0.8,0.7l0.8-0.7l-11.9,1.9
	c0-0.3-0.2-0.5-0.5-0.5c-6,1.3-4.4,1.5-12.5,2.2c-0.4,0-0.9,0.2-1.5,0.6c0-0.3-0.2-0.5-0.6-0.5l-5,0.4l-3.3,0.8
	c0-0.3-0.2-0.5-0.6-0.5c-1.9,0.5-3.5,0.8-4.8,0.9l-0.1,0c-0.8,0.1,0.4-0.2-0.2-0.5l-1,0.6c-1.5,0.1-0.7-0.1-5.7,0
	c-8.8,1.1-7.8,1.2-8.8,1.3l-3.3-0.2c0,0.3-0.1,0.5-0.5,0.6c-3.7-0.5-5.6-1.1-5.7-1.8c0.5-3.5,1.3-5.3,2.6-5.5l0.6-0.1l-0.6,1.2
	l0.6-0.1c1.2-0.6,1.7-1.2,1.7-1.8l-0.1-1.2l-1.2,0.1l-0.1-1.1c-0.1-0.9,0-1.6,0.3-2.3l2.7-4.3l0.1,1.1l1.3-0.1l-0.1-1.1l-0.7-1.1
	c0.9-0.8,1.7-1.3,2.3-1.3l-0.1-0.6l-1.7,0.1l-0.1-1.7c3.4-7.2,5.1-11.4,5-12.5l1.2,0.5c0.8-0.1,1.2-0.5,1.1-1.3l-1.2,0.1l0-0.5
	c-0.1-0.9,0.1-1.7,0.4-2.4c1.9-1.9,2.7-3.9,2.5-6c0.4,0,0.6,0.2,0.6,0.6c1.6-0.9,2.8-3.3,3.7-7.3c2.8-5.1,6.8-15.3,12-30.5
	c10-26.9,9.6-29.8,11-36.1l-1.2,0.1c0.1,0.8-0.1,1.6-0.5,2.3c-0.8-0.3-1.5-0.5-1.9-0.5l0-0.5c-0.2-2.3,0.8-5.1,3-8.4l0.5,0l1,3.9
	l1.2-0.1c0-0.3,0.3-1.8,0.9-4.7c-0.1-0.6-0.5-0.9-1.4-1l-1.1,0.7c-0.1-0.8,0-2.9,0.1-6.4L543.2,301.3z M528.8,318.6l0.6-0.1
	c-0.9,1.6-1.6,2.5-2.3,2.6l-0.1-1.7C527.5,319.3,528.1,319.1,528.8,318.6L528.8,318.6z M523.8,330.6c1.2-4.9,2.4-7.7,3.5-8.4
	l0.1,0.6c-0.6,4.6-1.6,6.9-3,7.1l0.2,2.9c-1.1,1.5-1.6,2.7-1.5,3.6l-0.6,0.1l-0.3-4C522.8,332.4,523.4,331.8,523.8,330.6
	L523.8,330.6z M521.9,337.1c0.1,0.7-0.4,2.3-1.3,4.7l-0.6,0.1l-0.1-1.7C520.6,338.2,521.3,337.2,521.9,337.1L521.9,337.1z
	 M489,409.8l0.6,1.1c0.9-0.1,1.3-0.5,1.2-1.2l-0.1-0.6l-0.6,0.1L489,409.8z M504.8,422.9l0,0.5c0.9-0.1,1.8-1.7,2.6-4.8l-1.2-0.4
	C505.2,420.9,504.8,422.4,504.8,422.9L504.8,422.9z M606,426.4l0,0.5l-1,1.2l1.9-0.7l0.2,0l-0.1-1.1l-0.4,0l-0.7,0.6
	c0-0.3,2.1-0.9,0.5-1.2C606.1,426.2,606.9,426.3,606,426.4L606,426.4z M609.9,430l2.7-0.2c-0.1-0.7-1.8-0.9-2.4-0.9l-0.4,0
	L609.9,430z M562.1,431l0.8,1c0-0.3,0.1-0.5,0.4-0.5l0.6,1.1l-2.5-0.3C561.2,431.5,561.5,431.1,562.1,431L562.1,431z M553.9,431.9
	c0.9-0.1,1.5,0.5,1.5,1.3l-2.8,0l0-0.5C552.9,432.6,553.4,432.4,553.9,431.9L553.9,431.9z M560.3,431.6l0.1,0.6l-2.3,0.2l-0.1-0.6
	L560.3,431.6z M537.1,434c0,0.3,0.2,0.5,0.6,0.5c3.7-0.7,3.3-0.8,5.1-1c0.6-0.1,0.9,0.3,1,1l-10.3,0.9l1,0.5l-0.1-0.6l-3.9,0.3
	l-0.1-0.6l3.5-0.3L537.1,434z M547.7,433.1l0,0.5c-0.3,0,1,0.1,0.4,0.6c-2.2-0.2-2.3-0.4-3.9-0.3l0-0.5L547.7,433.1z M550.3,432.8
	l0,0.5l-1.9,0.2l0-0.5L550.3,432.8z M486.3,443l0.1,1.7c-0.6,0.1-1.1-0.3-1.3-1.1l0-0.5L486.3,443z M571.9,441.5l0.1,1.1l2-0.2
	l-0.8-0.5l0.1,0.6l2-0.8c13.7-1.5,15.3-0.9,15.1-2.5l0-0.5C576.6,441.8,574.8,441.2,571.9,441.5L571.9,441.5z M593.3,439.6l2,0.4
	l-0.1-1.1l-2-0.4L593.3,439.6z M534.1,443.5c0.6,0.3-0.7,0.6,0.1,0.5l7-0.6l0.1,0.6c-2,0.2-3.3,0.5-3.7,0.9c0-0.4-0.2-0.6-0.6-0.6
	l-3,0.3l-0.1-0.6C534.7,443.9,533.5,443.9,534.1,443.5L534.1,443.5z M566.5,442.7l0.6,1.1c2.3-0.5,1-0.4,1.6-0.9
	c0,0.4,0.2,0.6,0.4,0.6l1.6-0.1l-0.1-1.2l-4.2-0.1L566.5,442.7z M526.9,447l-0.4,0l-0.1-1.1l0.4,0L526.9,447z M495.6,450.8l0.1,0.6
	l18.4-1.5l-0.1-1.1l-14.7,1.2l-3.1-0.4L495.6,450.8z M516.1,449.7l0.2,0l-0.1-1.1l-0.2,0L516.1,449.7z"/>
<path d="M236.1,353.1c-13,15.5-19.7,24-20.2,25.7c-5.3,5.5-7.9,8.8-7.6,9.9c-1.4,0.9-2,1.8-1.8,2.8c-0.4,0.1-0.7-0.1-0.8-0.5
	c-2.3,3.7-5.6,6-10.1,7.1l-4.7,1.1c-0.6,0.1-0.9,0.6-0.9,1.4l0.1,0.6l1.8-0.4l0.1,0.5l-4,1.5l-7.1,1.6l-3.7,0.2
	c-0.5,0.5,2.9-0.1,1.6,0.3l-4.6,1.1c-2.8,0.7-4.4,0.4-4.6-0.7l-0.5,0.1c0.3,1.1,0,1.8-0.8,2l0.9-0.2l-0.4-1.7l-8.4,2l0.9,0.4
	c-0.1-0.4-0.5-0.5-1.3-0.3l-1.1,0.9l-1.3-0.3c-1.2,0.7-2,1.1-2.2,1.1l-1.3-0.3c-3.5,2-0.9,2-1.1,2l0.3,1.1l2-0.5l3.1-0.2l-0.3,1.3
	c-11.4,3-3.1,1.3-6.2,2l-0.6,0.1l0.3,1.1l1.8-0.4l0.1,0.6c-2.3,0.5-3.6,1-4,1.5l-0.1-0.6c-3,0.7-6,3-9,6.8c0.5,2.2-6,4.9,24.6-2.2
	c2.1-0.1,3.3-0.1,3.6-0.2c-0.1-0.4,0.1-0.6,0.5-0.7c3.4-0.4,1.8,0.2,3.9-0.3l6.6-1.5l-1.4,0.8c-0.1-0.3,0.1-0.5,0.4-0.6
	c0.8,0.2,1.6,0.1,2.5-0.1l0.4,1.7l-26.1,41.4l-5.8,7.2l-2.8,9.5l0.5-0.1l2.8-1.2l-0.9,3.7l0.3,1.1l0.8,1c-0.4,0.1-0.5,0.3-0.4,0.7
	l0.1,0.6l1.2-0.3c1.7-1.5,2.4-2.9,2.2-4.1c1.9,0.3,3.1,0.4,3.7,0.3l0.1,0.6c-1.1,0.3-1.7,1.2-1.8,2.7l0.1,0.6l0.6-0.1
	c9.5-10.3,32.6-45.6,51.2-69.6c-0.6-2.6,9.1-6.2,29.1-10.8l0.6-0.1c0.7,3.1-0.8,10.7-4.6,22.8c-2.5,7.3-3.6,11.3-3.5,11.9
	c-3.2,9.7-4.7,14.9-4.5,15.7l-7.1,23.2c-4.6,11.9-8.1,24.4-10.5,37.6c0.4-0.1,1.1,0,1.9,0.2l1-0.9c0.1,0.4,0.3,0.5,0.8,0.5l-0.4-1.7
	l3.1-0.1c0.9-0.2,1.7-1.4,2.3-3.5c-0.1-3.1,0.5-4.8,1.9-5.2c1.9-7.4,3.1-11.2,3.5-11.3c1.8-7.4,3.1-11.6,4-12.7
	c2.7-9.6,4.6-14.6,5.9-14.9l0.3,1.2l-1.9,5.1c-3.4,15.1-6.9,27.1-10.4,35.9l1,4.4l0.6-0.1c8.5-18.2,20.6-54.2,36.5-108
	c0.5-4.7,2.7-8.4,6.8-11l-0.9-0.9l-0.1-0.5c1.8-0.4,3.1-1.1,3.8-2.1c-0.1-0.4-1.7-1-4.8-1.8l9.4-40.2c2.8-12,4.7-22.5,5.7-31.7
	l-0.1-0.6c-1.9-1.2-3.8-2.9-5.5-5.1c0-1.4,0-2.2,0-2.4l-0.1-0.5l-0.5,0.1C264.8,316,253.2,331.3,236.1,353.1L236.1,353.1z
	 M249.4,362.2c0.5,2.1-0.3,6-2.3,11.7c-0.6,7.2-3.2,11.3-7.7,12.4l-0.1-0.6l-4,1.5l-1.8,0.4c-0.9,0.2-1.7,0.2-2.5-0.1l-0.4-1.6
	c-0.1-0.6,5.6-8.6,17.4-23.9L249.4,362.2z M240.2,387.2l1.3-0.3l0.3,1.1c-6.3,1.9-9.8,2.9-10.5,3.1c-0.4,0.1-1,0.4-1.7,1
	c-0.1-0.4-0.9-0.4-2.5-0.1C226.8,390.9,231.2,389.3,240.2,387.2L240.2,387.2z M178.1,404l1.4-0.3l-0.3-1.2l-1.4,0.3L178.1,404z
	 M196.4,399.2l0.3,1.1l-3,0.2l-0.1-0.6L196.4,399.2z M161.4,410.7l0.1,0.6l-1.9,0.4l-0.1-0.6L161.4,410.7z M157.9,418l0.1,0.5
	l-2.3,0.5l-0.3-1.1L157.9,418z M163.4,416.8l0.1,0.5l-4.2,1l-0.1-0.5L163.4,416.8z M170.7,415.6l0.1,0.6l-11,2.5l-0.3-1.1
	C165.9,416.5,165.2,416.9,170.7,415.6L170.7,415.6z M225.8,402.8l0.9,1c-1.3,0.3-2.3,0.7-2.8,1.2l-1.3-0.2c-2,0.8-3.8,1.4-5.2,1.7
	l-1.2,0.3c-0.7,0.2-1.2-0.1-1.5-0.8l8.3-1.9L225.8,402.8z M231.7,401.5l5.9-1.4l0.1,0.6c-3.2,0.7-5.7,1.5-7.5,2.4l-0.1-0.6
	C230.6,402.4,231.1,402,231.7,401.5L231.7,401.5z M169.7,418.3l2.8-0.6l0.3,1.1c-1.2,0.3-0.3,0.3-1.8,1c-2.9,0.3-2.3-0.1-6.9,1
	l-0.1-0.6L169.7,418.3z M177.3,417c0.8-0.2,1.3,0.1,1.4,0.9l-1.7,0.4c-0.7,0.2-1.2-0.1-1.5-0.9L177.3,417z M146,480.2l0.1,0.6
	c0.8-0.2,1.1-0.6,0.9-1.4l-0.1-0.6C146.2,479,145.9,479.4,146,480.2L146,480.2z M148.4,490.2c0.2,0.7,0.6,1,1.4,0.8
	c0.8-0.2,1.1-0.6,0.9-1.4l-0.1-0.6l-1.2,0.3L148.4,490.2z M212.2,507.4c0.8-0.2,1.2,0.1,1.4,0.8l0.1,0.6l-2.3,0.5
	c0.2-0.8,0.2-1.4,0.1-1.8L212.2,507.4z"/>
<path d="M304.8,322.4c-5.2,3.7-11.1,7.5-17.7,11.2l0.1,1.1c0.4,0,1-0.3,1.8-0.8c0.8-0.1,1.2,0.3,1.3,1l1.1-0.6l0.5,0l0,0.5
	c0.1,0.6-4.1,3.8-12.3,9.6l0.6,1.2l-0.5,0l-1.3-0.5c0,0.4-0.5,0.7-1.7,0.8l0,0.5l1.3,1.6c-0.4,0-1.1-0.1-1.9-0.5
	c-2.7,0.2-5.3,2.2-7.9,5.8l0.6,1.1c2.3-2.1,3.6-3.2,4-3.2l0.1,1.7c-0.4,0-1,0.3-1.8,0.8l1.5,2.1c2.7-3,5.7-5.5,8.9-7.6
	c1.6,0.5,2.5,1,2.5,1.5l1.2-0.1c9-6.6,17.8-11.3,26.5-14.2l0.1,1.1c-1.6,2.4-2.7,3.6-3.3,3.7c0.1,0.8,0.3,1.5,0.7,2.2
	c0.1,1.5-3.8,11.5-11.8,30c-18.3,42.9-33.6,74.7-46,95.3c0,0.4,0.3,1,0.8,1.7c3.1-0.7,5-1.5,5.8-2.2l0.5,0l0.1,1.1l1.3-0.1l1.1-0.6
	c0,0.3,0.4,0.5,1.2,0.4l0.1,1.2c0.1,1.1-0.6,2.8-1.9,5.2c-1.3,1.4-2.7,4.4-4.1,8.9l0.1,0.6l1.2-0.1c5-5.6,8.7-11,11.3-16.4
	c14.5-4.3,25.5-8.4,33.2-12.5c7.8-0.7,13.6-2.7,17.6-6l-0.1-0.6l-3,0.9l-0.6,0.1l-0.1-0.6c5.7-0.8,9.6-2.1,11.7-3.8
	c11-8.5,19.3-14.5,25-18c17.4-12.8,25.6-25,24.6-36.8c-0.1-1.2-3.9-6-11.5-14.4c-0.1-1.6,2.5-3.9,7.8-6.9l15.2-13.2
	c3.4-4.3,5.4-11.3,6-21l-0.2-2.2c-0.6-6.7-5.5-12.1-14.7-16.3c-5.5-3.7-15.3-5.7-29.4-6.1C339,310.8,323.7,315,304.8,322.4
	L304.8,322.4z M386.2,323.2l-0.6,1.2l-16.8-7.1C380.1,317.8,385.9,319.7,386.2,323.2L386.2,323.2z M318,370
	c1.2-6.3,2.5-9.8,3.9-10.6l12.7-28.4c-0.1-1.7,2.5-3.1,8-4.1l1.8-0.2l0.1,1.7c5.4-0.9,8.7-1.4,10.1-1.5c10-0.9,15.2,1.2,15.6,6
	l1.2-0.1l-0.2-2.7l1.2-0.1c2.9,1.6,4.4,3.5,4.6,5.8c0.1,1.6-0.7,3.6-2.4,6c-0.8,0.1-1.2-0.5-1.3-1.6l-1.2,0.1l-0.4,3.4
	c-5.1,7.7-8.7,11.6-11,11.8c-2,2.8-3.3,4.2-3.9,4.2c-1.6,1.9-5.9,5.2-13,9.7c-2.4,0.2-11.1,3.6-26.2,10.2c-0.7-0.3-1.6-0.4-2.4-0.3
	l-0.1-1.1C314.9,376.1,315.9,373.4,318,370L318,370z M387.8,335l0.1,1.2c-0.6,0-1.7-1.8-3.5-5.4l-0.1-1.1
	C385.4,329.6,386.6,331.4,387.8,335L387.8,335z M277,348.6l0.1,0.6c-0.4,0-1,0.3-1.8,0.7l-0.5,0l-0.1-1.1L277,348.6z M313.7,347.7
	l0.1,1.7c-0.6,0-1.3,0.9-2.2,2.4l-0.1-1.1c1-1.3,1.5-2.3,1.5-3L313.7,347.7z M308,359.5l0.2,2.2l-0.6,0.1l-0.2-2.2L308,359.5z
	 M306.6,363.6c-0.1,1.9-0.6,2.9-1.5,3l-0.6,0.1c0.7-1.3,1-2.3,0.9-3L306.6,363.6z M304,369.5l0.1,0.6l-1,1.8l-1.2,0.1l-0.1-0.6
	c1.2-0.1,1.8-0.7,1.7-1.9L304,369.5z M301.5,374.8l-0.4,2.9l-0.5,0l-0.2-2.9L301.5,374.8z M363.1,376.9l2.5,1.5
	c0.1,0.7-0.3,1.2-1.1,1.2c-1.1-0.7-1.9-1-2.5-0.9L362,377L363.1,376.9z M314.9,383.3l0.1,1.1l-2.4,0.2l-0.1-1.1L314.9,383.3z
	 M353.8,387.4c1.7,0.8,2.5,1.5,2.6,2.1l0,0.5c-1.6,0.1-3.1-0.7-4.5-2.5L353.8,387.4z M303.7,399.7c6.8-0.6,17.5-3.8,32.2-9.6
	l3.7-0.3c7.4-0.6,12.9,0.8,16.6,4.3l0.2,2.2c-2.7,7.8-5.7,12.4-9,13.8l-15.1,12.2c-11.3,7.4-17.4,11.1-18.4,11.2
	c-18,9.9-29.2,15-33.6,15.4l-0.6,0.1C280.1,446.9,288.1,430.5,303.7,399.7L303.7,399.7z M320,393.2l0.1,0.6l-2.4,0.2l-0.1-0.6
	L320,393.2z M374.5,390.7l0.4,4.6c-0.6,1.1-1.1,1.7-1.7,1.8l-0.7-7.8C373.8,389.7,374.5,390.2,374.5,390.7L374.5,390.7z
	 M282.2,429.9c-0.8,3.8-1.6,5.8-2.4,5.8l0-0.5C279.5,433.4,280.3,431.6,282.2,429.9L282.2,429.9z M297.3,451.3
	c4.4-0.8,16.5-7.1,36.3-19l0.1,1.1c0,0.5-1.6,2-5.1,4.4c-10,5-16,8.3-17.8,10c-10.9,3.8-16.3,6.2-16.2,7.1c-9.7,3.8-16,6.6-19.1,8.4
	c-0.7,0.1-1.8-0.2-3.1-0.9c-0.2-2,0.7-3.5,2.6-4.7c1.7-0.1,3.3,0.1,4.8,0.7c1.8-0.9,4.9-1.9,9.4-3.1l-0.1-1.1l-3.7,0.3
	c0.4-0.7,3.9-2.3,10.4-4.9l1.8-0.2l0,0.5c-3.1,0.3-4.8,1.2-5.2,2.8c0.1,0.7,0.5,1.1,1.3,1C296.2,452.5,297.3,451.6,297.3,451.3
	L297.3,451.3z M278.6,437.6l0,0.5c0.1,0.8-0.3,1.3-1.1,1.3l-0.1-0.6C277.4,438.3,277.8,437.8,278.6,437.6L278.6,437.6z M307,445.4
	c-1.4,0.1-4.1,1.3-8.1,3.5l-0.6,0.1l-0.1-1.1c2.9-0.3,5.5-1.4,7.5-3.4C306.5,444.4,306.9,444.7,307,445.4L307,445.4z M277.6,453.6
	l1.8-0.2l0.1,0.6c-0.4,0-1,0.3-1.8,0.7l-1.2,0.1C276.4,454.2,276.8,453.8,277.6,453.6L277.6,453.6z M265.5,460.3l1.2,0.5
	c-0.4,3.5-1.5,5.3-3.1,5.4c-1.4-0.6-2.6-0.9-3.7-0.8l-0.1-1.7c-0.1-0.6,0.3-1,1.1-1.2c0.8-0.1,1.2,0.5,1.3,1.6
	C264.2,461.6,265.3,460.3,265.5,460.3L265.5,460.3z"/>
<path d="M69.4,317.4c-6.8,5-14.6,9.9-23.3,14.7l0.1,1.5c0.6,0,1.3-0.4,2.3-0.9c1-0.1,1.6,0.3,1.6,1.3l1.6-0.9l0.8-0.1l0.1,0.7
	c0.1,0.7-5.4,5-16.3,12.7l0.9,1.4l-0.8,0.1l-1.7-0.6c0,0.5-0.7,0.8-2.3,0.9l0.1,0.8l1.8,2c-0.6,0-1.4-0.1-2.4-0.5
	c-3.5,0.3-7,2.9-10.4,7.7l0.9,1.4c3-2.7,4.7-4.1,5.2-4.1l0.2,2.2c-0.5,0-1.3,0.4-2.3,0.9l1.9,2.8c3.6-3.9,7.5-7.2,11.9-9.9
	c2.2,0.6,3.3,1.2,3.3,2l1.6-0.1c11.7-8.7,23.3-14.9,34.8-18.8l0.1,1.5c-2.1,3.2-3.6,4.8-4.4,4.9c0.1,1.1,0.5,2,1.1,2.9
	c0.2,2-5,15.1-15.6,39.5C36,440,15.8,481.8-0.5,509c0,0.5,0.4,1.3,0.9,2.2c4-1,6.6-1.9,7.7-2.9l0.9-0.1l0.1,1.5l1.5-0.1l1.6-0.9
	c0,0.5,0.6,0.7,1.6,0.6l0.1,1.5c0.1,1.5-0.7,3.8-2.6,6.9c-1.7,1.9-3.4,5.8-5.3,11.7l0.1,0.7l1.5-0.1c6.5-7.3,11.5-14.5,14.9-21.5
	c19.1-5.6,33.6-11.1,43.7-16.5c10.1-0.9,17.9-3.5,23.1-7.9l-0.1-0.8l-3.8,1.1l-0.9,0.1l-0.1-0.8c7.4-1.1,12.6-2.8,15.4-5
	c14.5-11.2,25.4-19.1,32.8-23.8c22.9-16.8,33.7-33,32.4-48.4c-0.1-1.6-5.2-7.9-15.1-18.9c-0.2-2.1,3.3-5.1,10.3-9.1l19.9-17.5
	c4.4-5.7,7.1-14.9,8-27.6l-0.3-3c-0.8-8.9-7.2-16.1-19.4-21.6c-7.2-4.9-20.1-7.5-38.7-7.8C114.4,302.4,94.2,307.8,69.4,317.4
	L69.4,317.4z M176.6,318.7l-0.6,1.5l-22.2-9.3C168.6,311.5,176.2,314.1,176.6,318.7L176.6,318.7z M86.8,380.3
	c1.5-8.2,3.2-12.9,5.1-14l16.6-37.3c-0.2-2.3,3.3-4.1,10.6-5.3l2.4-0.2l0.2,2.1c7.2-1.1,11.6-1.7,13.3-1.9c13.2-1.1,20,1.5,20.6,8
	l1.5-0.1l-0.3-3.8l1.6-0.1c3.9,2.1,6,4.7,6.2,7.8c0.2,2.1-0.9,4.7-3.4,7.8c-1,0.1-1.6-0.6-1.7-2.1l-1.6,0.1l-0.4,4.5
	c-6.7,10-11.5,15.1-14.5,15.4c-2.7,3.7-4.4,5.6-5.1,5.7c-2.1,2.5-7.8,6.8-17.2,12.8c-3.1,0.3-14.6,4.7-34.5,13.4
	c-1-0.5-2-0.6-3.2-0.5l-0.1-1.4C82.7,388.3,83.9,384.7,86.8,380.3L86.8,380.3z M178.7,334.3l0.1,1.4c-0.8,0.1-2.3-2.3-4.5-7.1
	l-0.1-1.4C175.6,327,177.1,329.4,178.7,334.3L178.7,334.3z M32.7,352.1l0.1,0.7c-0.5,0-1.3,0.4-2.3,0.9l-0.8,0.1l-0.1-1.4
	L32.7,352.1z M81,350.9l0.2,2.2c-0.7,0.1-1.7,1.1-2.9,3.2l-0.1-1.5c1.4-1.7,2.1-3,2.1-3.9L81,350.9z M73.6,366.5l0.3,3l-0.8,0.1
	l-0.3-3L73.6,366.5z M71.7,371.9c-0.2,2.5-0.8,3.8-2.1,3.9l-0.8,0.1c0.9-1.7,1.4-2.9,1.3-3.8L71.7,371.9z M68.4,379.7l0.1,0.7
	l-1.4,2.4l-1.5,0.1l-0.1-0.7c1.5-0.1,2.2-0.9,2.1-2.4L68.4,379.7z M65,386.7l-0.4,3.7l-0.8,0.1l-0.3-3.7L65,386.7z M146.1,389.4
	l3.3,2c0.1,1-0.4,1.6-1.4,1.7c-1.4-0.9-2.5-1.3-3.3-1.3l-0.2-2.2L146.1,389.4z M82.6,397.9l0.1,1.4l-3.1,0.3l-0.1-1.4L82.6,397.9z
	 M133.8,403.1c2.2,1,3.3,2,3.4,2.8l0.1,0.7c-2.1,0.2-4-0.9-5.8-3.3L133.8,403.1z M67.8,419.3c9-0.8,23.2-5,42.5-12.6l4.7-0.4
	c9.8-0.8,17.1,1,21.9,5.6l0.3,3c-3.6,10.4-7.6,16.4-11.9,18.3l-20,15.9c-14.9,9.8-22.9,14.7-24.1,14.8
	c-23.7,13.1-38.5,19.8-44.2,20.3l-0.9,0.1C36.9,481.5,47.4,459.9,67.8,419.3L67.8,419.3z M89.4,410.8l0.1,0.7l-3.2,0.3l-0.1-0.7
	L89.4,410.8z M161.2,407.6l0.5,5.9c-0.7,1.6-1.4,2.4-2.2,2.4l-0.9-10.4C160.3,406.2,161.1,406.9,161.2,407.6L161.2,407.6z
	 M39.5,459.2c-1,5.1-2.1,7.7-3.2,7.8l-0.1-0.7C36,463.7,37.1,461.4,39.5,459.2L39.5,459.2z M59.5,487.4c5.8-1.1,21.7-9.5,47.8-25
	l0.1,1.4c0.1,0.6-2.2,2.5-6.7,5.8c-13.3,6.5-21.1,11-23.4,13.3c-14.4,5-21.5,8.1-21.4,9.3c-12.8,5.1-21.2,8.8-25.2,11.1
	c-0.9,0.1-2.3-0.3-4.1-1.1c-0.2-2.6,0.9-4.7,3.5-6.4c2.2-0.2,4.4,0.1,6.4,1c2.4-1.2,6.5-2.6,12.4-4l-0.1-1.5l-4.7,0.4
	c0.6-0.8,5.1-2.9,13.7-6.4l2.4-0.2l0.1,0.7c-4,0.3-6.3,1.6-6.8,3.7c0.1,0.9,0.6,1.4,1.6,1.3C58,488.8,59.5,487.7,59.5,487.4
	L59.5,487.4z M34.9,469.3l0.1,0.7c0.1,1-0.4,1.6-1.4,1.7l-0.1-0.7C33.4,470.1,33.9,469.5,34.9,469.3L34.9,469.3z M72.3,479.5
	c-1.9,0.2-5.4,1.7-10.7,4.7l-0.8,0.1l-0.1-1.5c3.8-0.3,7.1-1.8,9.8-4.5C71.6,478.1,72.2,478.6,72.3,479.5L72.3,479.5z M33.5,490.3
	l2.4-0.2l0.1,0.8c-0.6,0-1.3,0.4-2.3,0.9l-1.5,0.1C32.1,491.2,32.5,490.6,33.5,490.3L33.5,490.3z M17.6,499.2l1.7,0.7
	c-0.6,4.5-1.9,6.8-4.2,7c-1.8-0.8-3.4-1.1-4.9-1l-0.2-2.2c-0.1-0.9,0.4-1.4,1.5-1.7c1-0.1,1.6,0.6,1.7,2.1
	C15.9,500.8,17.4,499.2,17.6,499.2L17.6,499.2z"/>
<path d="M461.2,302.7l-1.3-0.5l-21.3,3.3c-0.8-0.4-1.8-0.6-2.9-0.5c-1.2,0.1-3,0.5-5.7,1.2l-10.3,4.3l0.8,1.3c0.5,0,1.2-0.3,2.1-0.8
	l3.6,0.3l-0.5,3.4c-3.3,1.5-5.3,3.7-5.8,6.6c-5,2.2-7.5,3.8-7.5,4.8l0.1,0.6l0.8-0.1l1.4-0.7l1.6,1.9l0.2,2.6
	c0.1,0.8-8.4,18.7-25.4,53.6c-14.7,33.6-22.4,52-23.2,55.3c-5,1.4-8,3.5-8.8,6.2c0.1,0.9,1.6,1.4,4.5,1.7l0.1,1.3l-1.3,2.2l0.2,2.6
	c0.1,1.4,3.8,2.4,11,3.2c0-0.5,0.2-0.7,0.7-0.8c0.1,1.6-0.3,4.8-1.4,9.6l0.8-0.1c3-4.1,4.4-6.9,4.3-8.5l0.6-0.1
	c0.7-0.1,1.5,0.8,2.4,2.6c-0.9,0.4-4.1,7.6-9.5,21.7l0.8,1.3l0.8-0.1c6.7-16.9,10.9-26.3,12.6-28.1c8.8-0.8,23.9-2.3,45.5-4.6
	l1.3-0.8c0,0.5,0.3,0.7,0.8,0.6l1.4-0.1l1.3-0.8c0,0.5,0.3,0.7,0.8,0.6l16.3-1.4c4.3-0.4,6.4-1.7,6.2-3.9c-0.1-0.6,2.5-1.3,7.7-2
	c0.5,0,1.2,0.1,2.2,0.4c0-0.4,2.5-0.8,7.7-1.3c0.1-2.7,1-4.2,2.6-4.3l-0.1-1.3c-1.4,0.1-3.1,0.5-5,1.1c-3.4-0.2-5.6-0.4-6.5-0.8
	c-0.9,0.5-1.6,0.8-2.1,0.8l-11.4,0.4l-1.4,0.7c0-0.4-0.3-0.6-0.8-0.5l-0.6,0.1l-1.5,0.7c0-0.4-1.2-0.7-3.6-1l-1.4,0.8l-2.8,0.2
	l-0.1-0.7c14.6-1.6,21.9-3.6,21.7-6c0.9-0.1,1.4,0.4,1.5,1.3l4.3-1.1l-0.1-1.3l-35,1c0,0.5-0.2,0.7-0.7,0.8l-4.3-0.4
	c-1.1,0.1-2,0.4-2.7,1l-1.6-0.6c-4.4,0.4-7.7,0.9-9.9,1.6c-3-0.2-6.3-0.2-10,0.1l-7.9,0.7l-3.6-0.4c-0.2-2.3,4.3-13.7,13.6-34.2
	c2.7-6.9,5.2-11.2,7.5-12.8c0.5,0,1.2,0.1,2.2,0.5l5.6-1.9l2.9,0.5c4.8-0.4,10.4-1.8,16.8-4.1c1.6-0.1,2.8,0,3.6,0.3l4.3-1l12.7-1.1
	c5.4-0.5,11.3-1.7,17.6-3.6l-0.1-1.3c-2.4,0.2-3.6-0.2-3.7-1.1c-0.2-1.8-1.9-2.5-5.2-2.2l-0.1-1.3l3.5-1l9.2-0.8l-0.1-1.3
	c-0.4,0-2.2,0-5.7-0.1l-0.1-1.4l3.6-0.3c0.9-0.1,1.4-0.6,1.3-1.4c-4.8,0.1-7.2-0.1-7.2-0.7c-33.3,1.6-49.9,1.9-50,0.9
	c-0.5,0-1.2,0.3-2.1,0.9l-0.9-1.4c8.8-18.7,14-28.2,15.5-28.3c0.1,0.7-0.3,1.9-1.1,3.5l0.1,0.6l1.4-0.1c3.5-8.4,6.4-12.7,8.9-12.9
	c10.4-0.9-1.5-1.6,20.9-5.1c0.9,0.4,1.6,0.6,2,0.5c8.8-1.8,21-3.6,36.7-5.5l-0.1-1.3l-8.4,0.8l-0.1-1.3c1-0.1,1.8-0.4,2.5-1l0.1,0.7
	c0.5,0,1.1-0.3,1.9-0.9c1.4-0.1,2.5,0,3.3,0.4c2.9-0.8,5.2-1.2,7-1.4l5.2-0.5c1.3-0.8,1.9-1.5,1.8-2.2l0-0.6c-1.3,0.1-2.8,0-4.6-0.3
	c-0.1-0.7,0.3-1.2,1.2-1.4l9.7-0.9l4.5-1.1c0,0.5,0.3,0.7,0.6,0.7c0.5,0,1.1-0.3,1.9-0.9c2.3,0.3,3.7,0.4,4,0.3
	c1.8-1.7,3.9-3.1,6.2-4c-1-1-1.5-1.8-1.6-2.5l-6.5,0.6c0-0.5-0.3-1.1-0.7-2c0-0.6,1.4-1.2,4.4-1.8l1.3,0.5l1.2-0.7
	c0,0.4,0.3,0.6,0.7,0.5l1.2-0.7c0,0.4,0.3,0.6,0.7,0.5l0.6-0.1l-0.1-1.3c-0.9,0.1-3.3,0.1-7.1,0l-1.2,0.8l-0.1-0.7
	c-30.5,2.5-47.8,3.9-51.9,4.3c-0.5,0-2.7,0-6.4-0.1c0,0.5-0.4,0.8-1.3,0.8l-1.3-0.6l-4.5,1.1c-1,0.1-2.8,0-5.3-0.2
	c-0.7,0.5-1.5,0.9-2.5,1c-1,0.1,24.2-1.4,23.4-1.8l-3.9,1.1l-0.6,0.1c-1.6,0.1-3.6,0.1-6-0.2c-0.7,0.5-1.7,0.9-3.2,1
	c-1,0.1-1.9-0.1-2.6-0.5C469.8,300.9,466.6,301.7,461.2,302.7L461.2,302.7z M462.8,306.7c0,0.5,0.5,0.7,1.3,0.6l0.1,1.3l-1.3,0.1
	c-1,0.1-1.9-0.1-2.6-0.5c-0.7,0.6-1.6,0.9-2.5,1l0.4,0l-3.6-0.4l-0.1-0.6C458.9,307.9,460.3,307.4,462.8,306.7L462.8,306.7z
	 M466.1,306.4l0.7-0.1l0.1,1.3l-2,0.2C464.9,307.1,465.2,306.6,466.1,306.4L466.1,306.4z M473.8,305.6l0.1,0.7
	c-1.5,0.1-3.4,0.5-5.7,1.2l-0.7,0.1l0.6-1.4L473.8,305.6z M417,312.1l2.2-0.2l-0.1-1.3l-2.2,0.2L417,312.1z M432.7,310.7l0.8-0.1
	l1.5,0.6c0.1,0.9-0.4,1.4-1.3,1.4l-2.2,0.2l-0.1-0.7C431.3,311.4,431.8,311,432.7,310.7L432.7,310.7z M483,313.6l0,0.6l-4.5,0.4
	l0-0.6L483,313.6z M470.1,315.5l0.1,0.7l-2.6,0.2l-0.1-0.7L470.1,315.5z M482.5,316.5l9-1.5l4.6,0.2l0.1,0.7
	c-2.2,0.2-4.1,0.6-5.7,1.2c0-0.5-0.9-0.9-2.7-1.1l-7.1,2c-1.4-0.8-2.1-1.4-2.1-1.8L482.5,316.5z M473.6,318.5
	c0.9-0.1,1.3,0.3,1.4,1.2l-3.8,0.4l-0.1-1.3L473.6,318.5z M465.7,318.1l0.1,0.7l23.4-1.1l-0.1-0.7L465.7,318.1z M467.1,319.9l0,0.6
	L462,321l0-0.6L467.1,319.9z M433.6,346.4l0.1,0.7l1.5-0.1c0-0.5,0.1-1.2,0.5-2.1l-0.1-1.3C434.8,343.7,434.1,344.6,433.6,346.4
	L433.6,346.4z M382.1,421.2l0.1,0.6c0.1,0.9-0.4,1.4-1.4,1.5l-0.1-0.6C380.6,421.9,381.1,421.5,382.1,421.2L382.1,421.2z M380.8,424
	c0.1,1.3-0.8,4.5-2.6,9.7l-2.2,0.2c-0.1-0.9,1.1-4.1,3.4-9.7L380.8,424z M404.9,444.9c0.1,0.7-1.1,1.5-3.4,2.3l-4.4-0.3l-1.4,0.1
	l-0.1-1.3L404.9,444.9z M409.2,445.3l0.1,0.6l-3.6,0.3l-0.1-0.6L409.2,445.3z"/>
</svg>
