<?xml version="1.0"?>
<svg width="500" height="200" xmlns="http://www.w3.org/2000/svg">

 <g>
  <title>background</title>
  <rect fill="none" id="canvas_background" height="202" width="502" y="-1" x="-1"/>
 </g>
 <g>
  <title>Layer 1</title>
  <g id="svg_1">
   <path id="svg_2" d="m83.947975,133.361801c0,4.60762 -3.737335,8.34169 -8.341675,8.34169l-66.720334,0c-4.607629,-0.039413 -8.344966,-3.651947 -8.344966,-8.34169l0,-66.723602c0,-4.604351 3.737337,-8.34169 8.344966,-8.34169l66.720334,0c4.60434,0 8.210312,3.612541 8.210312,8.34169l0,66.723602l0.131363,0z" fill="#FF5C3E"/>
   <polygon id="svg_3" points="65.8951 94.3727 48.1608 94.3727 48.1608 76.6384 36.338 76.6384 36.338 94.3727 18.6037 94.3727 18.6037 106.195 36.338 106.195 36.338 123.93 48.1608 123.93 48.1608 106.195 65.8951 106.195" fill="#FFFFFF"/>
   <path id="svg_4" d="m482.749359,105.20369c-2.693024,-0.61412 -5.399109,-1.110031 -7.812897,-1.691322c-5.116699,-1.221687 -8.988647,-2.814484 -8.988647,-6.614227c0,-4.49926 6.098572,-5.300583 9.395813,-5.300583c4.998474,0 9.523987,1.642067 10.509216,6.899956l11.898376,0c-1.405548,-11.497742 -11.008331,-15.901749 -21.609528,-15.901749c-9.395874,0 -21.602966,3.500885 -21.602966,14.80484c0,3.284134 0.985229,5.911438 2.298859,8.108521c3.034576,4.269363 8.538696,5.91143 14.121765,7.225075c8.305542,1.970474 16.749023,2.627296 16.749023,8.604416c0.298889,5.898293 -7.205353,6.794868 -11.504242,6.794868c-6.098663,0 -11.106934,-2.39743 -11.701385,-8.99852l-11.405792,0c0.200348,12.15126 9.852386,18.062698 22.988892,18.003586c10.702972,0 23.107178,-4.499252 23.107178,-16.804871c0.265991,-10.19722 -8.003479,-13.152939 -16.542175,-15.123413" fill="#323232"/>
   <path id="svg_5" d="m147.650177,64.290039l-13.303986,0l-10.863892,28.309174l-16.545433,43.110733l12.903336,0l6.706184,-18.903427l28.506226,0l6.702911,18.903427l13.402496,0l-14.049484,-36.476791l-13.458359,-34.943115zm-17.708008,43.015495l4.433578,-12.601196l6.367935,-18.108665l0.302124,0l7.16597,20.56192l3.540283,10.144669l-21.809891,0l0,0.003273z" fill="#323232"/>
   <path id="svg_6" d="m216.669388,90.697716l-0.197037,0c-3.504181,-5.701256 -10.702972,-8.105232 -17.208832,-8.105232c-9.556808,0 -18.946121,5.895012 -21.622681,19.047943c-0.489334,2.394127 -0.781616,5.005005 -0.781616,7.891747c0,15.435402 7.881897,27.586678 24.302536,27.606377c6.505859,0 13.005127,-2.502502 16.006821,-8.407364l0.203629,0l0,7.005035l10.801498,0l0,-28.5522l0,-42.893982l-11.504318,0l0,26.407677zm0.400681,19.103752c0,9.005081 -4.3022,18.302444 -14.505997,18.302444c-9.901642,0 -14.299088,-8.798172 -14.299088,-17.704727c0,-2.486076 0.279144,-4.978745 0.883423,-7.307175c1.651917,-6.384354 5.776779,-11.497742 13.619278,-11.497742c7.812943,0 13.13652,5.254608 14.121735,14.450165c0.101822,1.136307 0.075546,2.449951 0.075546,3.763596" fill="#323232"/>
   <path id="svg_7" d="m277.787018,90.697716l-0.200348,0c-3.500854,-5.701256 -10.702972,-8.101952 -17.202271,-8.101952c-10.985382,0 -21.744202,7.770248 -22.351746,25.287781c-0.016434,0.512329 -0.055862,1.008224 -0.055862,1.54026c0,15.435394 7.881927,27.586662 24.302567,27.606377c6.499298,0 12.998596,-2.502502 16.00354,-8.407379l0.200348,0l0,7.005051l10.804779,0l0,-24.893684l0,-46.44413l-11.501007,0l0,26.407677zm0.384247,19.694908c-0.183899,8.81459 -4.502563,17.714569 -14.483032,17.714569c-9.908188,0 -14.305634,-8.798172 -14.305634,-17.704727c0,-0.535301 0.013123,-1.073914 0.039383,-1.605942c0.423676,-8.762039 4.377747,-17.195671 14.469925,-17.195671c8.801453,0 14.450104,6.89666 14.450104,18.062691c-0.151093,0.472916 -0.292267,0.472916 -0.292267,0.801331" fill="#323232"/>
   <polygon id="svg_8" points="307.278 74.9963 329.939 74.9963 329.939 111.45 329.939 135.753 342.419 135.753 342.419 111.45 342.419 74.9963 365.079 74.9963 365.079 64.1587 307.278 64.1587" fill="#323232"/>
   <path id="svg_9" d="m401.381836,82.595764c-6.798157,0 -12.699707,3.500885 -15.504333,8.200462l-0.200348,0l0,-26.506187l-11.402496,0l0,46.654312l0,24.765594l11.405762,0l0,-25.172821l0,-5.333435c0,-7.602753 4.899933,-13.606133 12.505981,-13.606133c6.702881,0 9.852356,3.612541 10.180756,11.602821l0,6.213577l0,26.29599l11.405792,0l0,-27.028366l0,-8.479607c-0.085388,-11.740761 -7.074005,-17.652184 -18.240021,-17.652184" fill="#323232"/>
   <rect id="svg_10" height="10.837619" width="11.494444" fill="#323232" y="64.158677" x="432.403699"/>
   <polygon id="svg_11" points="432.404 107.838 432.404 135.753 443.898 135.753 443.898 106.852 443.898 83.8634 432.404 83.8634" fill="#323232"/>
  </g>
 </g>
</svg>