<?xml version="1.0"?>
<svg width="500" height="200" xmlns="http://www.w3.org/2000/svg">

 <g>
  <title>background</title>
  <rect fill="none" id="canvas_background" height="202" width="502" y="-1" x="-1"/>
 </g>
 <g>
  <title>Layer 1</title>
  <path stroke="null" id="svg_2" d="m263.550049,61.221989c0,5.564953 -4.504944,10.06992 -10.069901,10.06992c-5.564972,0 -10.069931,-4.504967 -10.069931,-10.06992s4.416656,-10.06992 10.069931,-10.06992c5.564957,0 10.069901,4.504963 10.069901,10.06992zm-41.869614,20.404842c0,0.971657 0,2.561638 0,2.561638s-4.858322,-6.271614 -15.193237,-6.271614c-17.048187,0 -30.209732,12.984894 -30.209732,30.916412c0,17.754852 13.161545,30.916428 30.209732,30.916428c10.423264,0 15.193237,-6.35994 15.193237,-6.35994l0,2.649963c0,1.236649 0.971649,2.208328 2.208298,2.208328l12.719894,0l0,-58.829529c0,0 -11.483261,0 -12.719894,0c-1.324997,0 -2.208298,1.059982 -2.208298,2.208313zm0,37.541351c-2.38501,3.356644 -7.06662,6.359947 -12.71991,6.359947c-9.981598,0 -17.666534,-6.271614 -17.666534,-16.871513c0,-10.599915 7.684937,-16.871536 17.666534,-16.871536c5.476624,0 10.423233,3.179977 12.71991,6.35994l0,21.023163zm24.20311,-39.749664l14.928192,0l0,58.74118l-14.928192,0l0,-58.74118zm223.746552,-1.501663c-10.33493,0 -15.193237,6.271614 -15.193237,6.271614l0,-33.0364l-14.928192,0l0,87.007629c0,0 11.483276,0 12.71991,0c1.324982,0 2.208282,-1.059982 2.208282,-2.208313l0,-2.649994l0,0c0,0 4.769989,6.359955 15.193237,6.359955c17.048187,0 30.209747,-13.073227 30.209747,-30.91642c-0.088348,-17.754845 -13.249908,-30.828072 -30.209747,-30.828072zm-2.473297,47.611275c-5.741638,0 -10.334961,-2.91497 -12.71994,-6.359947l0,-21.023163c2.296692,-3.179962 7.331635,-6.35994 12.71994,-6.35994c9.981567,0 17.666504,6.271622 17.666504,16.871536c0,10.599899 -7.684937,16.871513 -17.666504,16.871513zm-35.421417,-22.259819l0,34.891388l-14.928253,0l0,-33.124725c0,-9.716599 -3.091644,-13.514893 -11.571564,-13.514893c-4.504913,0 -9.274902,2.384979 -12.101563,5.829941l0,40.898026l-15.01651,0l0,-58.829529l11.836548,0c1.325012,0 2.208344,1.059982 2.208344,2.208313l0,2.561638c4.416626,-4.504959 10.158234,-6.271614 15.899872,-6.271614c6.53656,0 12.013214,1.943314 16.341492,5.564964c5.299988,4.416634 7.331635,9.981575 7.331635,19.786491zm-90.010956,-25.351456c-10.3349,0 -15.193207,6.271614 -15.193207,6.271614l0,-33.0364l-14.928192,0l0,87.007629c0,0 11.483215,0 12.719879,0c1.324982,0 2.208313,-1.059982 2.208313,-2.208313l0,-2.649994l0,0c0,0 4.769958,6.359955 15.193207,6.359955c17.048187,0 30.209747,-13.073227 30.209747,-30.91642c0.000031,-17.754845 -13.249847,-30.828072 -30.209747,-30.828072zm-2.473297,47.611275c-5.741608,0 -10.3349,-2.91497 -12.719879,-6.359947l0,-21.023163c2.296661,-3.179962 7.331573,-6.35994 12.719879,-6.35994c9.981598,0 17.666534,6.271622 17.666534,16.871536c0,10.599899 -7.684937,16.871513 -17.666534,16.871513zm-40.721344,-47.611275c4.593323,0 6.801636,0.706665 6.801636,0.706665l0,13.868225c0,0 -12.454895,-4.151627 -20.316467,4.681633l0,40.98632l-15.016571,0l0,-58.74118c0,0 11.483215,0 12.719879,0c1.324982,0 2.208313,1.059982 2.208313,2.208313l0,2.561638c2.82663,-3.356628 8.9216,-6.271614 13.60321,-6.271614zm-155.553741,54.854538c-0.70665,-1.943298 -1.501648,-3.886627 -2.296646,-5.65329c-1.236649,-2.738297 -2.473312,-5.388275 -3.621628,-8.038254l-0.088348,-0.176659c-10.776566,-23.40815 -22.348145,-47.169624 -34.449715,-70.577774l-0.529999,-0.971657c-1.236641,-2.384975 -2.473297,-4.858295 -3.798286,-7.331608c-1.501671,-2.826645 -3.179985,-5.829952 -5.564964,-8.656595c-5.123299,-6.00662 -12.278229,-9.363256 -19.963173,-9.363256c-7.77327,0 -14.839882,3.356636 -19.963161,9.363256c-2.384979,2.826643 -4.063309,5.82995 -5.564964,8.656595c-1.324993,2.473312 -2.561638,4.946632 -3.798298,7.331608l-0.441666,0.883324c-12.013233,23.40815 -23.673145,47.169624 -34.449721,70.577766l-0.176668,0.353317c-1.14832,2.561661 -2.384978,5.211639 -3.621636,7.949936c-0.794995,1.766663 -1.589983,3.621658 -2.296647,5.65329c-2.031653,5.741638 -2.649979,11.218246 -1.854984,16.783218c1.678321,11.659882 9.451588,21.553146 20.316501,25.969772c4.063299,1.678329 8.303268,2.473312 12.7199,2.473312c1.324989,0 2.738312,-0.088333 4.063301,-0.264999c5.211624,-0.618332 10.511581,-2.384964 15.634869,-5.299957c6.359943,-3.53331 12.543228,-8.744934 19.344856,-16.253204c6.801605,7.419952 13.073212,12.631577 19.344833,16.253204c5.211624,2.914993 10.423248,4.681625 15.634872,5.299957c1.324989,0.176666 2.738312,0.264999 4.063309,0.264999c4.416626,0 8.744926,-0.794983 12.719887,-2.473312c10.864906,-4.416626 18.638176,-14.398209 20.31649,-25.969772c0.97168,-5.476624 0.353348,-10.953247 -1.678314,-16.783218zm-70.401077,8.126633c-8.479927,-10.688263 -13.868225,-20.66983 -15.723213,-29.061447c-0.794987,-3.53331 -0.971653,-6.713272 -0.529987,-9.539917c0.353321,-2.473312 1.236652,-4.681625 2.473316,-6.536621c2.914967,-4.23996 8.038269,-6.801605 13.779884,-6.801605c5.741615,0 10.864914,2.561646 13.779884,6.801605c1.324997,1.854996 2.11998,4.063309 2.47332,6.536621c0.441666,2.826645 0.264992,6.09494 -0.529999,9.539917c-1.854996,8.391602 -7.331612,18.373184 -15.723206,29.061447zm62.362823,7.331573c-1.148331,8.126617 -6.624954,15.104874 -14.221558,18.196518c-3.709961,1.501678 -7.773262,2.031647 -11.924889,1.589981c-3.974976,-0.441666 -7.86161,-1.766647 -11.924904,-4.063293c-5.65329,-3.179977 -11.306587,-8.038254 -17.75486,-15.193207c10.246582,-12.631546 16.606522,-24.203125 18.903183,-34.53804c1.059982,-4.769981 1.324982,-9.186584 0.706657,-13.338226c-0.618324,-3.974976 -2.031654,-7.50827 -4.151627,-10.688248c-4.769974,-6.978287 -12.984901,-11.129913 -21.994827,-11.129913c-9.00993,0 -17.224865,4.151627 -21.99482,11.129913c-2.119984,3.091644 -3.533306,6.713272 -4.151638,10.688248c-0.618328,4.063309 -0.441662,8.568245 0.706661,13.338226c2.384987,10.334915 8.74493,21.994812 18.903175,34.626389c-6.448277,7.154938 -12.101559,12.013245 -17.754852,15.193222c-4.063301,2.296631 -7.94994,3.621628 -11.924904,4.063293c-4.15163,0.44165 -8.21493,-0.088348 -11.924906,-1.589996c-7.596603,-3.091644 -13.073223,-10.069916 -14.221549,-18.196518c-0.529995,-3.97496 -0.088331,-7.773285 1.41332,-12.101563c0.530002,-1.589981 1.236659,-3.091644 2.031653,-4.946625c1.148326,-2.561646 2.384976,-5.211632 3.533303,-7.773277l0.176662,-0.353325c10.776587,-23.319809 22.25983,-46.904617 34.27306,-70.136112l0.441666,-0.883324c1.236649,-2.384983 2.473312,-4.858295 3.798302,-7.154938c1.324993,-2.47332 2.649979,-4.858295 4.41663,-6.88995c3.268307,-3.798306 7.596603,-5.829952 12.454887,-5.829952c4.858299,0 9.186607,2.031647 12.45491,5.829952c1.766647,2.031654 3.091644,4.41663 4.416641,6.88995c1.236641,2.384975 2.473305,4.769955 3.709961,7.154938l0.529999,0.971657c12.013222,23.23148 23.496468,46.904621 34.273056,70.136112l0.088318,0.176666c1.236664,2.561638 2.384979,5.299957 3.621643,7.861603c0.794983,1.85498 1.501648,3.356644 2.031662,4.946625c1.148315,4.151627 1.589966,8.038254 1.059982,12.013214z" fill="#FF5A5F"/>
 </g>
</svg>