<svg width="500" height="200" xmlns="http://www.w3.org/2000/svg"><path fill="none" d="M-1-1h502v202H-1z"/><g fill="none"><path fill="#EE0788" d="M125.784 64.116l25.18 30.237.813-.902a281.3 281.3 0 0 0 7.7-8.637c2.42-2.813 8.615-9.512 10.85-12.39l9.9 17.883c-1.694 2.4-3.914 5.19-6.666 8.37-2.74 3.183-6.017 6.84-9.826 10.975l25.914 31.773h-26.27l-13.952-17.008c-12.808 13.142-26.12 19.71-39.944 19.71-12.39 0-22.897-3.925-31.53-11.795-8.456-7.915-12.682-17.695-12.682-29.334 0-13.86 6.7-25.38 20.11-34.56l9.15-6.21c.122-.057.332-.21.63-.455l1.268-.98c-9.237-9.789-13.859-19.413-13.859-28.9 0-9.36 3.084-16.98 9.24-22.857 6.283-5.88 14.38-8.823 24.278-8.823 9.61 0 17.545 2.847 23.825 8.548 6.28 5.71 9.422 12.9 9.422 21.6 0 5.998-1.72 11.434-5.165 16.29-3.382 4.867-9.513 10.682-18.387 17.463zm-16.76 11.79l-1.18.81c-8.636 5.943-14.526 10.71-17.663 14.302-3.08 3.605-4.617 7.42-4.617 11.435 0 5.762 2.324 11.043 6.972 15.836 4.827 4.62 10.142 6.93 15.948 6.93 8.148 0 17.545-5.307 28.167-15.924l-27.627-33.39zm4.532-26.55l1.72-1.263c2.96-2.208 5.405-4.15 7.337-5.798 1.93-1.65 3.325-3.047 4.17-4.19 1.81-2.212 2.716-4.95 2.716-8.183 0-3.662-1.24-6.63-3.714-8.916-2.478-2.277-5.803-3.42-9.97-3.42-3.802 0-7 1.172-9.6 3.51-2.594 2.224-3.9 5.07-3.9 8.552 0 4.082 1.634 8.1 4.897 12.062l5.25 6.298c.183.298.546.754 1.093 1.35z"/><path fill="#00B0E9" d="M159.562 46.84c4.946.495 9.53.78 13.73.86 4.212.09 8.88.127 13.995.127 4.936 0 9.973-.037 15.09-.128 5.115-.08 10.15-.365 15.094-.86v2.95c-3.624.33-7.084 1.4-10.39 3.198-3.292 1.806-4.944 4.76-4.944 8.85 0 3.282 1.064 7.67 3.217 13.155 2.138 5.5 4.648 11.397 7.543 17.703a3305.67 3305.67 0 0 0 8.907 19.306c3.05 6.56 5.486 12.622 7.298 18.196.832-1.64 2.11-4.344 3.842-8.117 1.734-3.772 3.713-8.075 5.937-12.904a522.097 522.097 0 0 0 6.68-15.117 1752.107 1752.107 0 0 0 6.2-14.757c1.888-4.595 3.454-8.6 4.69-12.045 1.25-3.448 1.866-5.74 1.866-6.89 0-1.965-.456-3.525-1.362-4.67a11.15 11.15 0 0 0-3.346-2.836c-1.324-.725-2.886-1.3-4.706-1.718a70.654 70.654 0 0 1-5.192-1.353v-2.948c3.786.495 7.59.78 11.38.86 3.794.09 7.672.127 11.637.127 3.784 0 7.513-.038 11.14-.13 3.618-.08 7.335-.363 11.132-.858v2.95c-4.62.66-9.118 3.484-13.49 8.478-4.37 5.007-8.4 10.706-12.116 17.1-3.722 6.39-6.99 12.66-9.79 18.8-2.8 6.15-4.946 10.703-6.435 13.658-6.918 14.252-13.2 26.467-18.81 36.63-5.612 10.166-10.69 18.652-15.22 25.447-4.54 6.81-8.67 12.18-12.374 16.11-3.71 3.944-7.263 6.925-10.648 8.973-3.38 2.052-6.68 3.357-9.89 3.94-3.215.57-6.56.858-10.033.858-2.97 0-5.892-.416-8.78-1.23-2.886-.82-5.45-2.09-7.668-3.807-2.236-1.726-4.055-3.902-5.462-6.52-1.39-2.636-2.094-5.736-2.094-9.345 0-3.28 1.195-6.226 3.578-8.848 2.402-2.624 5.243-3.94 8.554-3.94 3.792 0 6.835.944 9.153 2.833 2.31 1.877 3.458 4.79 3.458 8.73 0 2.778-.663 5.118-1.98 7.005-1.314 1.88-1.974 3.235-1.974 4.056 0 .987 1.194 1.6 3.59 1.85 2.39.24 4.736.363 7.056.363 4.94 0 9.814-2.01 14.592-6.025 4.785-4.01 9.032-8.602 12.743-13.76 3.724-5.167 6.732-10.092 9.046-14.755 2.316-4.67 3.46-7.67 3.46-8.98 0-.493-.575-2.177-1.724-5.04-1.166-2.865-2.728-6.553-4.7-11.073-1.99-4.502-4.217-9.53-6.69-15.112a3187.18 3187.18 0 0 0-7.415-16.6 717.237 717.237 0 0 0-7.443-15.983c-2.466-5.16-4.61-9.55-6.43-13.152-1.646-3.76-3.052-6.804-4.206-9.103-1.157-2.293-2.56-4.137-4.2-5.53-1.65-1.392-3.638-2.497-5.943-3.32-2.315-.817-5.37-1.717-9.157-2.706v-2.952l.004-.002zm135.716 39.83c0 8.53 1.12 15.575 3.327 21.157 2.248 5.567 5.045 9.997 8.442 13.27 3.372 3.286 6.995 5.58 10.878 6.884 3.88 1.316 23.976.866 29.57-1.345 5.617-2.21 10.814-5.7 15.606-10.45l4.202 3.933c-6.76 7.213-13.695 12.704-20.788 16.472-7.096 3.768-15.594 5.658-25.494 5.658-7.104 0-13.45-1.396-19.062-4.185-5.61-2.778-10.392-6.472-14.354-11.067-3.955-4.584-6.963-9.837-9.03-15.735a54.534 54.534 0 0 1-3.093-18.196 54.565 54.565 0 0 1 3.094-18.19c2.067-5.902 5.075-11.148 9.03-15.736 3.962-4.592 8.743-8.28 14.354-11.07 5.614-2.78 11.958-4.182 19.062-4.182 13.03 0 23.518 3.524 31.446 10.575 7.91 7.056 12.767 17.793 14.59 32.21h-71.779zm48.275-7.37c-.51-4.426-1.168-8.398-1.993-11.927-.822-3.526-2.143-6.47-3.948-8.848-1.836-2.378-4.228-4.18-7.18-5.408-2.982-1.234-6.77-1.853-11.39-1.853-3.456 0-6.645.872-9.53 2.588-2.894 1.716-5.36 3.93-7.424 6.636-2.066 2.707-3.64 5.737-4.712 9.1-1.072 3.362-1.6 6.6-1.6 9.714h47.777zm16.667-23.853v-3.935c5.276-.16 9.81-1.47 13.622-3.932 3.798-2.46 7.08-5.575 9.89-9.345 2.812-3.77 5.153-7.95 7.055-12.54a259.376 259.376 0 0 0 5.08-13.276h3.45v35.65h33.917v7.377H399.32v57.288c0 2.136.136 4.224.383 6.275.242 2.05.74 3.896 1.48 5.53.742 1.64 1.812 2.956 3.217 3.934 1.405.988 3.347 1.48 5.82 1.48 4.955 0 9.08-1.067 12.37-3.193 3.31-2.136 6.6-4.834 9.916-8.122l2.224 2.46a229.337 229.337 0 0 0-8.166 7.494 72.456 72.456 0 0 1-8.284 6.894 39.336 39.336 0 0 1-9.415 4.91c-3.396 1.233-7.052 1.854-11.022 1.854-6.933 0-11.63-2.094-14.105-6.273-2.48-4.183-3.718-9.142-3.718-14.88v-65.65h-19.8z"/></g></svg>