<svg xmlns="http://www.w3.org/2000/svg" width="500" height="200" viewBox="250 400 500 200"><path fill="#5795AA" d="M402.562 493.514s-16.895-46.425-55.002-33.693c-17.077 5.707-25.487 27.592-45.203 30.23-21.51 2.878-47.732-20.242-52.357-27.627 0 0 3.18 5.42 8.29 12.87 25.02 38.95 41.17 63.66 68.09 66.777 33.763 3.91 51.67-28.8 56.206-41.896 3.758-10.856 11.008-10.44 15.664-8.8l4.312 2.14zm81.868 21.12h6.187v-30.612H431.47v30.613h6.186l4.644 16.26h-17.424v7.625h72.337v-7.625H479.79l4.642-16.26h-.002zm-42.493-7.622v-15.285h38.22v15.285h-38.22zm27.418 23.885H452.74l-4.636-16.262h25.92l-4.648 16.26-.02.002zm27.462-61.732h-71.54v7.712h71.54v-7.712zm32.903 41.413l-5.127.673v-8.038h6.577v-7.37h-3.462l1.27-14.832h1.46v-7.38h-6.147v-5.44h-7.657v5.44h-6.79v7.376h1.34l1.274 14.833h-3.585v7.368h7.335v8.262c0 .23-.015.538-.02.877l-7.243.95.885 7.827 5.774-1.154c-.67 5.692-2.025 12.743-4.683 17.18l7.578 3.276c3.885-6.462 5.285-15.866 5.79-22.193l4.853-.962.56-6.676.02-.016zm-7.88-14.736h-3.513l-.78-14.833h5.07l-.775 14.832zm58.587-14.835h2.577v-7.377h-7.237v-5.442h-7.99v5.442h-7.617l-4.712-5.78-23.405 4.95v1.2h-.02v25.192c0 15.74-.287 24.645-6.384 39.397l6.378 1.836c6.558-15.847 6.706-25.097 6.706-41.232V478.21l3.308-.5v53.55l-6.394.164 1.294 8.05 16.083-2.558-1.173-5.91-3.942.1v-54.29l3.64-.552v22.924c0 7.496-.18 24.905 5.04 40.703l6.713-1.368c-5.052-15.327-5.052-32.136-5.052-39.328V475.25l1.636-.25v6.004h2.73l1.27 14.833h-4.008v7.37h7.718v9.134h-6.75v7.37h6.75v19.79h8.327v-19.787h6.58v-7.37h-6.59v-9.134h7.635v-7.37h-4.414l1.277-14.835.027.002zm-7.138 14.835h-3.52l-.773-14.833h5.077l-.78 14.832h-.005zM624 477.912h31.093v51.185c0 2.377-2.04 2.377-2.98 2.377h-3.74l1.333 7.893h6.525c1.962 0 7.943 0 7.943-7.254V470.33h-40.194v7.577l.02.006zM596.27 540.35h9.087v-56.606h-9.09v56.602l.003.004zm22.866-60.06l-7.75-13.943-9.12 4.327 9.442 12.385 7.423-2.78.006.01zm30.482 41.694s-2.73 1.658-6.93 2.956c-1.405.433-2.597-.02-2.597-1.894v-10.23h7.9v-21.43h-8.953l5.623-8.672-6.29-3.725-8.038 12.398h-7.216l4.173-2.72-4.565-7.557-6.762 3.687 5.01 6.59h-9.23v21.425h6.345c.077 7.762-1.096 12.12-8.27 16.166l4.76 7.077c9.8-5.823 11.922-13.227 12.246-23.245h5.616v10.443c-.054 8.674 5.94 11.54 10.52 9.424 2.206-1.02 7.664-3.077 7.664-3.077l-1-7.635-.006.02zm-10.846-16.174h-17.814v-7.33h17.818v7.326l-.004.004zm100.772-3.87l7.74 1.243 1.826-10.272v-7.446h-21.345v-6.25H747.4v-7.45h-19.635v-4.192h-8.093v4.192H699.88v7.45h19.8v6.246h-21.507v7.446h42.996l-1.632 9.03.006.003zm9.183 30.87l-19.847-12.27h19.75v-7.46h-17.846c.846-3.763.97-6.805.97-8.2v-8.413h-8.203l-.014 8.414c0 1.726-.22 4.75-1.215 8.2h-7.526l1.73-5.274-14.057-4.616-1.523 5.24 9.623 4.642h-11.57v7.45h19.98c-3.262 5.135-8.818 9.97-18.24 12.135l1.703 7.646c10.77-2.423 17.583-7.544 21.897-13.193l20.924 13.347.24.154 4.5-7.01-1.288-.8.015.007zm-56.425-44.868H675.84v7.79h8.366v34.115l-2.514 2.135 3.744 8.085 12.154-11.885v-9.808l-5.3 4.53v-34.96l.012-.002zm3.654-9.346l-12.508-10.558-5.994 4.208 11.193 12.564 7.296-6.217.013.004zm22.462 27.212l2.327-7.033-14.064-4.606-1.524 5.242 13.264 6.39-.002.006z"/></svg>