<?xml version="1.0" encoding="utf-8"?>
<!-- Generator: Adobe Illustrator 18.1.0, SVG Export Plug-In . SVG Version: 6.00 Build 0)  -->
<!DOCTYPE svg PUBLIC "-//W3C//DTD SVG 1.1//EN" "http://www.w3.org/Graphics/SVG/1.1/DTD/svg11.dtd">
<svg version="1.1" id="Layer_1" xmlns="http://www.w3.org/2000/svg" xmlns:xlink="http://www.w3.org/1999/xlink" x="0px" y="0px"
	 viewBox="0 0 1920 1080" enable-background="new 0 0 1920 1080" xml:space="preserve">
<g>
	<path fill="#000222" d="M570.4,646.6c0-5.3,0-11.4,0-18.3V488.2c0-47.2-16.8-83.8-48.7-109.7c-32-25.1-74.6-38.1-126.4-38.1
		c-31.2,0-60.9,4.6-86.8,14.5c-26.7,9.1-50.3,21.3-70.8,35l-1.5,0.8l-0.8,96h89.1l7.6-45.7c6.1-3.8,12.9-6.9,22.1-9.1
		c9.9-3,20.6-4.6,33.5-4.6c21.3,0,38.1,5.3,48.7,16c10.7,10.7,16,25.1,16,44.2v38.1h-54.1c-60.2,0-107.4,10.7-138.6,32
		c-32,21.3-48,52.6-48,92.2c0,38.8,12.2,69.3,36.6,92.2c24.4,22.1,57.1,33.5,98.2,33.5c25.1,0,47.2-4.6,66.3-14.5
		c17.5-8.4,32.7-19.8,45.7-33.5c1.5,5.3,2.3,11.4,4.6,16.8c2.3,7.6,5.3,14.5,8.4,21.3l0.8,1.5h133.3v-96l-34.3-4.6
		C571.2,661.1,570.4,652,570.4,646.6z M346.5,607c11.4-10.7,28.9-16,51.8-16h54.1v59.4c-7.6,9.9-17.5,19-30.5,25.9
		S393.7,687,377,687c-15.2,0-27.4-3.8-35.8-11.4c-8.4-7.6-12.9-17.5-12.9-30.5C329,629.9,335.1,617.7,346.5,607z"/>
	<path fill="#000222" d="M1072.3,683.2c-5.3,0.8-12.2,0.8-19.8,0.8c-8.4,0-16.8-3.8-25.1-12.2c-6.1-6.1-9.1-17.5-9.1-32.7V431.9
		h72.4v-83.8h-72.4V246.8H901.7v101.3H764.6V246.8H648.1v101.3h-80l32,83.8h48v208.7c0,46.5,10.7,80.7,32,102.8
		c21.3,21.3,51.8,32.7,90.6,32.7c14.5,0,28.2-0.8,40.4-3c12.2-2.3,25.1-4.6,37.3-8.4l2.3-0.8l0.8-89.9l-13.7,4.6
		c-6.9,1.5-13.7,2.3-19,3c-5.3,0.8-12.2,0.8-19.8,0.8c-10.7,0-18.3-3-25.1-9.1c-6.1-6.1-9.1-17.5-9.1-32.7V431.9h137.1v208.7
		c0,46.5,10.7,80.7,32,102.8c21.3,21.3,51.8,32.7,90.6,32.7c14.5,0,28.2-0.8,40.4-3c7.6-1.5,12.2-3,16.8-4.6c3-1.5,6.1-2.3,10.7-3.8
		l2.3-0.8v-84.5l-3,0.8C1084.5,681.7,1078.4,682.4,1072.3,683.2z"/>
	<path fill="#000222" d="M1530.1,505.7c0-56.4-12.2-99-35.8-125.7c-23.6-26.7-57.9-40.4-99.8-40.4c-25.1,0-48.7,6.1-69.3,18.3
		c-18.3,10.7-34.3,25.1-47.2,43.4l-4.6-54.1h-146.2v84.5l37.3,11.4v222.4l-31.2,11.4V767H1316v-89.9l-34.3-11.4V465.4
		c7.6-9.9,16.8-18.3,28.2-23.6c11.4-6.1,24.4-8.4,38.8-8.4c22.1,0,38.1,5.3,48.7,16.8c10.7,10.7,16,30.5,16,57.1v159.9l-36.6,11.4
		v89.9h184.3v-91.4l-31.2-11.4V505.7z"/>
	<path fill="#000222" d="M1686.9,541.5c41.9,0,76.2-34.3,76.2-76.2s-34.3-76.2-76.2-76.2c-41.9,0-76.2,34.3-76.2,76.2
		S1644.3,541.5,1686.9,541.5z"/>
	<path fill="#000222" d="M1686.9,622.3c-41.9,0-76.2,34.3-76.2,76.2s34.3,76.2,76.2,76.2c41.9,0,76.2-34.3,76.2-76.2
		S1728.8,622.3,1686.9,622.3z"/>
</g>
</svg>
