<?xml version="1.0"?>
<svg width="500" height="200" xmlns="http://www.w3.org/2000/svg">

 <g>
  <title>background</title>
  <rect fill="none" id="canvas_background" height="202" width="502" y="-1" x="-1"/>
 </g>
 <g>
  <title>Layer 1</title>
  <path stroke="null" id="svg_1" d="m181.704132,200.353012l32.366104,0l10.618103,-33.976273l49.869705,0l10.506134,33.976273l32.366119,0l-68.504913,-200.334254l-67.225723,200.334254l0.004471,0zm68.23317,-112.061951l17.085464,54.439255l-34.912399,0l17.191803,-54.439255l0.634491,0l0.000641,0zm132.535721,74.092758l-4.189636,-13.092575l-69.389465,-6.545639l8.117584,23.566208l65.456421,-3.926712l0.005096,-0.001282zm-192.200714,-19.640121l-69.389519,6.548843l-4.18959,13.091278l65.462791,3.927994l8.114441,-23.566864l0.001877,-0.001251z" fill="#DD3735"/>
 </g>
</svg>