<?xml version="1.0" encoding="utf-8"?>
<!-- Generator: Adobe Illustrator 16.0.0, SVG Export Plug-In . SVG Version: 6.00 Build 0)  -->
<!DOCTYPE svg PUBLIC "-//W3C//DTD SVG 1.1//EN" "http://www.w3.org/Graphics/SVG/1.1/DTD/svg11.dtd">
<svg version="1.1" id="Layer_1" xmlns="http://www.w3.org/2000/svg" xmlns:xlink="http://www.w3.org/1999/xlink" x="0px" y="0px"
	 width="123.667px" height="29.833px" viewBox="0 0 123.667 29.833" enable-background="new 0 0 123.667 29.833"
	 xml:space="preserve">
<g>
	<g>
		<path fill="#323232" d="M113.034,20.873c-5.48,0-9.94-4.459-9.94-9.939V0.994h19.879v9.939
			C122.973,16.414,118.514,20.873,113.034,20.873z M104.902,2.801v8.132c0,4.483,3.646,8.132,8.132,8.132
			c4.483,0,8.132-3.648,8.132-8.132V2.801H104.902z"/>
	</g>
	<polygon fill="#323232" points="117.55,7.018 108.515,7.018 108.515,8.825 109.75,8.825 109.125,13.833 110.946,13.833 
		111.572,8.825 114.495,8.825 115.121,13.833 116.942,13.833 116.316,8.825 117.55,8.825 	"/>
</g>
<g>
	<path fill="#323232" d="M12.913,3.523c5.421,0,8.313,2.53,8.313,6.144c0,2.893-2.168,5.062-5.06,5.855v0.072
		c4.518,1.12,6.144,3.759,6.144,6.541c0,3.977-2.891,6.687-8.312,6.687H2.071v-0.722c2.168,0,2.168,0,2.168-2.351V6.596
		c0-2.35,0-2.35-2.168-2.35V3.523H12.913z M10.745,15.45c3.253,0,4.518-2.168,4.518-5.602c0-3.072-1.265-5.603-3.434-5.603h-1.807
		V15.45H10.745z M10.022,16.173v11.928h2.53c2.891,0,3.795-2.893,3.795-6.145c0-3.253-1.627-5.783-4.879-5.783H10.022z"/>
	<path fill="#323232" d="M23.973,19.968c0-6.144,5.06-9.576,9.578-9.576c4.156,0,7.915,1.807,6.83,7.95H29.684
		c0,4.879,2.783,6.686,5.493,6.686c3.253,0,4.699-1.807,5.421-3.071h0.361c-0.722,3.614-3.252,7.228-7.77,7.228
		C27.226,29.184,23.973,24.847,23.973,19.968z M29.684,17.618h5.312c0.615-2.456,1.121-6.505-1.626-6.505
		C31.31,11.113,29.828,13.029,29.684,17.618z"/>
	<path fill="#323232" d="M55.778,15.45c0-1.626-1.084-2.168-2.168-2.168c-1.121,0-2.35,0.542-3.614,1.627V25.75
		c0,2.351,0,2.351,2.168,2.351v0.722h-10.12v-0.722c2.168,0,2.168,0,2.168-2.351V14.366c0-1.807,0-1.807-1.807-1.807v-0.543
		l7.41-1.625h0.289l-0.108,3.794h0.073c1.373-2.35,3.975-3.794,6.614-3.794c2.421,0,4.879,1.444,4.879,5.419v9.939
		c0,2.351,0,2.351,2.168,2.351v0.722h-9.396v-0.722c1.445,0,1.445,0,1.445-2.351V15.45z"/>
	<path fill="#323232" d="M75.042,25.027c3.253,0,4.699-1.807,5.422-3.071h0.361c-0.723,3.614-3.253,7.228-7.771,7.228
		c-5.963,0-9.216-4.337-9.216-9.216c0-6.144,5.06-9.576,9.578-9.576c4.517,0,6.902,2.204,6.902,4.518
		c0,1.264-0.578,2.529-2.747,2.529c-1.807,0-2.205-1.12-2.168-1.88c0.18-2.638,0-4.445-2.169-4.445c-2.53,0-3.686,3.361-3.686,7.554
		C69.549,23.4,72.333,25.027,75.042,25.027z"/>
	<path fill="#323232" d="M94.849,15.45c0-1.626-1.084-2.168-2.168-2.168c-1.121,0-2.35,0.542-3.615,1.627V25.75
		c0,2.351,0,2.351,2.168,2.351v0.722h-10.12v-0.722c2.168,0,2.168,0,2.168-2.351V4.97c0-1.807,0-1.807-1.807-1.807V2.62l7.301-1.626
		h0.289v13.191h0.072c1.373-2.35,3.976-3.794,6.614-3.794c2.422,0,4.879,1.444,4.879,5.419v9.939c0,2.351,0,2.351,2.168,2.351v0.722
		h-9.397v-0.722c1.446,0,1.446,0,1.446-2.351V15.45z"/>
</g>
</svg>
