<?xml version="1.0" encoding="UTF-8" standalone="no"?>
<svg width="311px" height="200px" viewBox="0 0 311 200" version="1.1" xmlns="http://www.w3.org/2000/svg" xmlns:xlink="http://www.w3.org/1999/xlink" xmlns:sketch="http://www.bohemiancoding.com/sketch/ns">
    <!-- Generator: Sketch Beta 3.5 (25218) - http://www.bohemiancoding.com/sketch -->
    <title>logo 2</title>
    <desc>Created with Sketch Beta.</desc>
    <defs></defs>
    <g id="Page-1" stroke="none" stroke-width="1" fill="none" fill-rule="evenodd" sketch:type="MSPage">
        <path d="M177.680211,63.9236364 C180.323944,64.096 183.996643,63.568 184.607911,67.12 C185.202441,70.5709091 181.132418,72.4210909 178.287113,72.9098182 C171.790939,74.0283636 165.377723,71.9970909 159.720587,68.8952727 L158.107277,68.024 L153.301549,91.1069091 C162.684507,93.9854545 174.204718,94.7192727 183.950798,93.0414545 C200.600563,90.1752727 215.592629,78.296 212.446784,60.0290909 C210.20838,47.04 200.597653,42.2152727 188.365023,41.6036364 L181.826643,41.2669091 C179.606432,41.1265455 176.084366,41.3141818 175.594624,38.4734545 C175.053216,35.328 178.44939,33.8029091 180.885728,33.3825455 C186.976573,32.3345455 192.694108,33.9629091 198.024507,36.3883636 L202.052324,16.0778182 L205.299319,34.9272727 L220.506784,31.5789091 L229.52662,83.9432727 L257.34439,79.1549091 L248.323826,26.7905455 L263.776526,24.8632727 L259.494014,0 L201.015352,10.0647273 L201.939531,15.4261818 C193.828592,12.3076364 185.49716,11.4814545 176.746573,12.9883636 C160.09608,15.8538182 145.295399,28.8509091 148.423779,47.0152727 C150.471526,58.8887273 160.625845,63.8290909 171.921197,63.8698182 L177.680211,63.9236364 Z M149.278826,76.2305455 L125.014413,80.4065455 L123.721291,72.8974545 L145.142582,69.2101818 L141.716573,49.32 L120.294554,53.0065455 L119.035634,45.6996364 L142.487934,41.664 L138.886549,20.7585455 L87.4134507,29.6181818 L100.558615,105.925818 L74.504061,110.410182 C86.2884272,107.245818 96.8451643,99.5309091 94.4219249,85.4632727 C92.8311737,76.2276364 86.6217136,71.1316364 77.6877465,69.6392727 L77.5829577,69.0305455 C84.017277,65.728 86.1479812,58.6741818 84.9771127,51.8756364 C81.9353286,34.2181818 66.2970657,33.2530909 51.3734038,35.8203636 L18.9871362,41.3949091 L32.1315728,117.701818 L0,123.232727 L13.1815493,199.749818 L39.9841784,195.135273 L36.0153052,172.100364 L50.2287324,169.653818 C65.7622066,166.980364 73.830939,155.560727 71.1384507,139.933091 C68.1526995,122.594909 55.5634977,115.376 39.7855164,116.601455 L67.8543427,111.768727 L80.999507,188.077091 L108.208192,183.394909 L103.978075,158.836364 L120.898545,181.209455 L151.96331,175.862545 L179.780352,171.075636 L166.600258,94.5592727 L152.843826,96.9265455 L149.278826,76.2305455 Z M44.3823944,143.597091 C45.4484742,149.787636 40.3087324,151.509091 35.4360563,152.346909 L32.6940845,152.818182 L30.4040141,139.524364 L33.044108,139.070545 C37.6126056,138.284364 43.3505164,137.610182 44.3823944,143.597091 L44.3823944,143.597091 Z M49.8437793,66.3869091 L47.9561268,55.4269091 L49.8845305,55.0945455 L53.031831,54.5534545 C56.1791315,54.0116364 59.3155164,54.6210909 60.0323005,58.7818182 C60.9419249,64.0581818 56.4425587,65.2509091 52.3819953,65.9498182 L49.8437793,66.3869091 L49.8437793,66.3869091 Z M57.955446,94.6654545 L54.8081455,95.2072727 L52.6228638,82.5221818 L55.364108,82.0501818 C59.8314554,81.2814545 66.9207042,79.9563636 68.0224413,86.3505455 C69.1059859,92.6414545 62.4220657,93.896 57.955446,94.6654545 L57.955446,94.6654545 Z M102.794836,140.439273 L100.866432,140.771636 L98.6287559,127.783273 L100.760915,127.416 C105.634319,126.577455 109.800399,126.487273 110.831549,132.474909 C111.809577,138.157818 107.364061,139.654545 102.794836,140.439273 L102.794836,140.439273 Z M132.047629,153.690182 C130.122864,151.618909 128.305798,150.781818 126.59061,149.928 L126.485822,149.318545 C136.12784,144.002182 139.89223,138.547636 137.882324,126.877818 C134.880563,109.453818 121.707019,103.850909 106.385305,105.138182 L138.818873,99.5556364 L151.702066,174.343273 L132.047629,153.690182 L132.047629,153.690182 Z M205.273122,127.296727 C203.838099,118.973818 209.503967,111.207273 217.829577,109.774545 C224.225329,108.673455 230.319812,111.281455 235.503216,114.673455 L229.673615,85.688 C223.335352,84.6901818 216.847911,84.6567273 210.45216,85.7578182 C188.015,89.6196364 173.526502,110.502545 177.373122,132.828364 C181.13169,154.646545 201.107042,168.659636 222.935117,164.903273 C227.910399,164.045818 238.226995,161.434909 242.206784,158.450909 L238.090188,129.692364 C234.376737,134.824727 229.872277,138.421818 223.374648,139.539636 C215.050493,140.973091 206.721972,135.718545 205.273122,127.296727 Z M238.130211,106.552 L237.007371,118.237818 L245.128498,116.84 L245.40939,118.463273 L245.724484,120.289455 L240.647324,121.164364 L239.525211,132.850182 L249.779225,131.086545 C257.884343,145.365091 273.60993,153.524364 290.970657,150.536 C295.945939,149.68 306.263263,147.069091 310.243779,144.084364 L307.615329,124.579636 C299.114343,128.026909 288.69223,130.030545 281.250775,125.668364 L301.352019,122.209455 L302.475587,110.522182 L273.844977,115.449455 C273.673239,115.061818 273.60338,114.655273 273.534249,114.249455 L273.307207,112.930182 L273.148568,112.016727 L298.835634,107.595636 L299.958474,95.9090909 L275.998239,100.032 C281.60007,93.112 292.836479,90.9701818 302.062981,90.5309091 L297.709883,71.3229091 C291.369437,70.3250909 284.882723,70.2916364 278.486244,71.3927273 C260.619765,74.4676364 247.67108,88.504 245.236925,105.327273 L238.130211,106.552 Z M235.809577,175.541818 C232.828192,175.541818 229.723826,177.462545 229.723826,180.728 C229.723826,183.953455 232.82892,185.789091 235.809577,185.789091 C238.790235,185.789091 241.893873,183.953455 241.893873,180.728 C241.894601,177.461818 238.790235,175.541818 235.809577,175.541818 L235.809577,175.541818 Z M258.841995,174.44 L263.905329,174.44 C263.375563,176.277091 261.129155,177.135273 259.373216,177.135273 C255.739085,177.135273 253.614202,173.950545 253.614202,170.562182 C253.614202,166.848 255.819859,163.419636 259.822207,163.419636 C261.620352,163.419636 263.212559,164.194909 264.069789,165.786909 L274.52392,161.949818 C272.115235,156.683636 264.764014,154.029091 259.413239,154.029091 C249.734108,154.029091 242.342864,160.112 242.342864,170.114182 C242.342864,179.992 249.939319,185.789091 259.332465,185.789091 C264.069789,185.789091 269.13385,183.911273 272.401221,180.319273 C276.035352,176.36 275.995329,172.236364 276.117582,167.175273 L258.842723,167.175273 L258.842723,174.44 L258.841995,174.44 Z M297.067324,173.461091 L297.067324,173.215273 C301.191197,171.786909 303.029366,169.909091 303.029366,165.215273 C303.029366,157.458909 297.190305,154.519273 290.206573,154.519273 L276.688099,154.519273 L276.688099,185.299636 L287.631972,185.299636 L287.631972,175.420364 L287.837183,175.420364 L292.737512,185.299636 L305.642535,185.299636 L298.944061,175.298182 C298.332793,174.359273 297.680047,173.910545 297.067324,173.461091 L297.067324,173.461091 Z M288.409155,168.154182 L287.6327,168.154182 L287.6327,162.928727 L288.491385,162.928727 C290.45108,162.928727 292.084765,163.173818 292.084765,165.581818 C292.084038,167.868364 290.247324,168.154182 288.409155,168.154182 L288.409155,168.154182 Z" id="logo-2" fill="#D81F26" sketch:type="MSShapeGroup"></path>
    </g>
</svg>