<svg width="500" height="200" viewBox="0 0 500 200" xmlns="http://www.w3.org/2000/svg"><path d="M273.113 64.004c2.65.172 6.332-.356 6.945 3.2.596 3.455-3.484 5.308-6.336 5.797-6.512 1.12-12.94-.913-18.612-4.018l-1.617-.873-4.818 23.11c9.406 2.883 20.954 3.618 30.724 1.938 16.69-2.87 31.718-14.764 28.565-33.054-2.244-13.005-11.878-17.836-24.14-18.448l-6.555-.337c-2.226-.142-5.756.046-6.247-2.798-.543-3.15 2.86-4.677 5.304-5.098 6.105-1.05 11.837.58 17.18 3.01l4.038-20.336L300.8 34.97l15.244-3.352 9.042 52.43 27.886-4.794-9.043-52.43 15.49-1.93L355.126 0l-58.622 10.077.927 5.37c-8.13-3.124-16.483-3.95-25.255-2.442-16.69 2.87-31.527 15.882-28.39 34.07 2.05 11.887 12.23 16.834 23.553 16.875l5.773.054zm-28.47 12.322l-24.324 4.18-1.297-7.517 21.473-3.693-3.434-19.915-21.474 3.69-1.262-7.315 23.51-4.04-3.61-20.932-51.6 8.87 13.178 76.403-26.118 4.49c11.813-3.168 22.395-10.892 19.966-24.978-1.595-9.247-7.82-14.35-16.775-15.844l-.105-.61c6.45-3.306 8.586-10.368 7.412-17.175-3.05-17.68-18.725-18.645-33.685-16.075l-32.467 5.582 13.177 76.402L95 123.386 108.214 200l26.868-4.62-3.98-23.064 14.25-2.45c15.57-2.676 23.66-14.11 20.96-29.758-2.993-17.36-15.613-24.587-31.43-23.36l28.138-4.84 13.177 76.405 27.275-4.688-4.24-24.59 16.96 22.4 31.142-5.352 27.885-4.793-13.214-76.612-13.79 2.37-3.573-20.722zm-105.152 67.45c1.07 6.2-4.083 7.923-8.968 8.762l-2.748.472-2.296-13.31 2.647-.455c4.58-.787 10.33-1.462 11.366 4.532zm5.475-77.306l-1.892-10.974 1.933-.332 3.155-.542c3.156-.543 6.3.068 7.02 4.233.91 5.283-3.6 6.478-7.67 7.177l-2.545.438zm8.132 28.314l-3.155.543-2.19-12.7 2.747-.474c4.477-.77 11.584-2.096 12.688 4.306 1.086 6.297-5.614 7.554-10.09 8.324zm44.948 45.83l-1.933.334-2.243-13.005 2.137-.367c4.885-.84 9.06-.93 10.095 5.065.98 5.69-3.476 7.19-8.057 7.975zm29.324 13.27c-1.93-2.075-3.75-2.913-5.47-3.768l-.106-.61c9.666-5.323 13.44-10.785 11.424-22.47-3.01-17.445-16.214-23.055-31.573-21.766l32.512-5.59 12.915 74.882-19.703-20.68zm73.403-26.428c-1.438-8.333 4.242-16.11 12.588-17.544 6.412-1.102 12.52 1.51 17.717 4.905l-5.844-29.022c-6.353-1-12.857-1.032-19.268.07-22.492 3.867-37.016 24.776-33.16 47.13 3.768 21.845 23.792 35.876 45.674 32.115 4.986-.86 15.328-3.473 19.317-6.46l-4.126-28.795c-3.722 5.14-8.237 8.74-14.75 9.86-8.345 1.435-16.694-3.826-18.147-12.26zm32.938-20.77l-1.125 11.7 8.14-1.4.283 1.626.315 1.828-5.09.876-1.124 11.7 10.278-1.765c8.125 14.297 23.89 22.467 41.292 19.475 4.987-.858 15.33-3.472 19.32-6.46l-2.635-19.53c-8.522 3.452-18.97 5.458-26.43 1.09l20.152-3.462 1.126-11.702-28.7 4.934c-.173-.388-.243-.795-.312-1.2l-.227-1.322-.16-.915 25.75-4.427 1.127-11.7-24.02 4.127c5.616-6.928 16.88-9.073 26.13-9.513l-4.364-19.232c-6.356-1-12.86-1.032-19.27.07-17.91 3.08-30.89 17.133-33.33 33.977l-7.125 1.225zm-2.326 69.076c-2.988 0-6.1 1.923-6.1 5.192 0 3.23 3.112 5.068 6.1 5.068 2.988 0 6.1-1.838 6.1-5.068 0-3.27-3.112-5.192-6.1-5.192zm23.09-1.104h5.075c-.532 1.84-2.784 2.7-4.545 2.7-3.643 0-5.773-3.19-5.773-6.582 0-3.72 2.21-7.152 6.224-7.152 1.802 0 3.398.777 4.257 2.37l10.48-3.84c-2.414-5.274-9.784-7.932-15.147-7.932-9.703 0-17.112 6.09-17.112 16.105 0 9.89 7.615 15.695 17.03 15.695 4.75 0 9.826-1.88 13.1-5.477 3.644-3.964 3.604-8.093 3.727-13.16h-17.316v7.273zm38.317-.98v-.246c4.135-1.43 5.978-3.31 5.978-8.01 0-7.766-5.853-10.71-12.854-10.71h-13.55v30.82h10.97v-9.892h.205l4.91 9.892h12.938l-6.715-10.014c-.613-.94-1.267-1.39-1.882-1.84zm-8.678-5.313h-.778v-5.232h.86c1.965 0 3.603.245 3.603 2.656 0 2.29-1.842 2.575-3.685 2.575z" fill="#D81F26" fill-rule="evenodd"/></svg>