<svg width="715" height="317" viewBox="0 0 715 317" xmlns="http://www.w3.org/2000/svg"><title>bevry-2013-outlines</title><g fill="none" fill-rule="evenodd"><path d="M21.888 215.424c8.352 1.152 21.6 2.304 38.88 2.304 31.68 0 53.568-5.76 67.104-18.144 9.792-9.504 16.416-22.176 16.416-38.88 0-28.8-21.6-44.064-40.032-48.672v-.576c20.448-7.488 32.832-23.904 32.832-42.624 0-15.264-6.048-26.784-16.128-34.272-12.096-9.792-28.224-14.112-53.28-14.112-17.568 0-34.848 1.728-45.792 4.032v190.944zM46.944 41.472c4.032-.864 10.656-1.728 22.176-1.728 25.344 0 42.624 8.928 42.624 31.68 0 18.72-15.552 32.544-42.048 32.544H46.944V41.472zm0 81.504H67.68c27.36 0 50.112 10.944 50.112 37.44 0 28.224-23.904 37.728-49.824 37.728-8.928 0-16.128-.288-21.024-1.152v-74.016zm247.36 27.936c.288-2.592.864-6.624.864-11.808 0-25.632-12.096-65.664-57.6-65.664-40.608 0-65.376 33.12-65.376 75.168 0 42.048 25.632 70.272 68.544 70.272 22.176 0 37.44-4.608 46.368-8.64l-4.32-18.144c-9.504 4.032-20.448 7.2-38.592 7.2-25.344 0-47.232-14.112-47.808-48.384h97.92zm-97.632-18.144c2.016-17.568 13.248-41.184 38.88-41.184 28.512 0 35.424 25.056 35.136 41.184h-74.016zm116.608-56.16L366.272 216h24.192l54.72-139.392h-26.496l-27.072 78.336c-4.608 12.672-8.64 24.192-11.808 35.712h-.864c-2.88-11.52-6.624-23.04-11.232-35.712l-27.36-78.336H313.28zM473.088 216h25.056v-74.304c0-4.32.576-8.352 1.152-11.808 3.456-19.008 16.128-32.544 33.984-32.544 3.456 0 6.048.288 8.64.864V74.304c-2.304-.576-4.32-.864-7.2-.864-16.992 0-32.256 11.808-38.592 30.528h-1.152l-.864-27.36h-22.176c.864 12.96 1.152 27.072 1.152 43.488V216zm86.944-139.392l51.552 128.448c1.152 3.168 1.728 5.184 1.728 6.624 0 1.44-.864 3.456-2.016 6.048-5.76 12.96-14.4 22.752-21.312 28.224-7.488 6.336-15.84 10.368-22.176 12.384l6.336 21.312c6.336-1.152 18.72-5.472 31.104-16.416 17.28-14.976 29.664-39.456 47.808-87.264l38.016-99.36h-26.784L636.64 158.4c-3.456 10.08-6.336 20.736-8.928 29.088h-.576c-2.304-8.352-5.76-19.296-8.928-28.512L587.68 76.608h-27.648z" fill="#000"/><path d="M36.792 252.32c-8.576 0-15.36 6.08-15.36 16.448 0 9.792 6.464 15.936 14.848 15.936 7.488 0 15.424-4.992 15.424-16.448 0-9.472-6.016-15.936-14.912-15.936zm-.128 4.224c6.656 0 9.28 6.656 9.28 11.904 0 6.976-4.032 12.032-9.408 12.032-5.504 0-9.408-5.12-9.408-11.904 0-5.888 2.88-12.032 9.536-12.032zm22.144 40.128h5.568V279.84h.128c1.856 3.072 5.44 4.864 9.536 4.864 7.296 0 14.08-5.504 14.08-16.64 0-9.408-5.632-15.744-13.12-15.744-5.056 0-8.704 2.24-11.008 6.016h-.128l-.256-5.312h-5.056c.128 2.944.256 6.144.256 10.112v33.536zm5.568-30.592c0-.768.192-1.6.384-2.304 1.088-4.224 4.672-6.976 8.512-6.976 5.952 0 9.216 5.312 9.216 11.52 0 7.104-3.456 11.968-9.408 11.968-4.032 0-7.424-2.688-8.448-6.592-.128-.704-.256-1.472-.256-2.304v-5.312zm55.744 3.456c.064-.576.192-1.472.192-2.624 0-5.696-2.688-14.592-12.8-14.592-9.024 0-14.528 7.36-14.528 16.704 0 9.344 5.696 15.616 15.232 15.616 4.928 0 8.32-1.024 10.304-1.92l-.96-4.032c-2.112.896-4.544 1.6-8.576 1.6-5.632 0-10.496-3.136-10.624-10.752h21.76zm-21.696-4.032c.448-3.904 2.944-9.152 8.64-9.152 6.336 0 7.872 5.568 7.808 9.152H98.424zM127.288 284h5.632v-18.624c0-.96.128-1.92.384-2.624.96-3.136 3.84-5.76 7.552-5.76 5.312 0 7.168 4.16 7.168 9.152V284h5.632v-18.496c0-10.624-6.656-13.184-10.944-13.184-5.12 0-8.704 2.88-10.24 5.824h-.128l-.32-5.12h-4.992c.192 2.56.256 5.184.256 8.384V284zm32.768-19.392v4.16h15.808v-4.16h-15.808zm44.672 14.016c-1.6.704-3.712 1.536-6.912 1.536-6.144 0-10.752-4.416-10.752-11.584 0-6.464 3.84-11.712 10.944-11.712 3.072 0 5.184.704 6.528 1.472l1.28-4.352c-1.536-.768-4.48-1.6-7.808-1.6-10.112 0-16.64 6.912-16.64 16.448 0 9.472 6.08 15.808 15.424 15.808 4.16 0 7.424-1.024 8.896-1.792l-.96-4.224zm20.288-26.304c-8.576 0-15.36 6.08-15.36 16.448 0 9.792 6.464 15.936 14.848 15.936 7.488 0 15.424-4.992 15.424-16.448 0-9.472-6.016-15.936-14.912-15.936zm-.128 4.224c6.656 0 9.28 6.656 9.28 11.904 0 6.976-4.032 12.032-9.408 12.032-5.504 0-9.408-5.12-9.408-11.904 0-5.888 2.88-12.032 9.536-12.032zM247.032 284h5.632v-45.44h-5.632V284zm15.104 0h5.632v-45.44h-5.632V284zm37.376 0c-.384-2.112-.512-4.736-.512-7.424v-11.584c0-6.208-2.304-12.672-11.776-12.672-3.904 0-7.616 1.088-10.176 2.752l1.28 3.712c2.176-1.408 5.184-2.304 8.064-2.304 6.336 0 7.04 4.608 7.04 7.168v.64c-11.968-.064-18.624 4.032-18.624 11.52 0 4.48 3.2 8.896 9.472 8.896 4.416 0 7.744-2.176 9.472-4.608h.192l.448 3.904h5.12zm-5.952-10.432c0 .576-.128 1.216-.32 1.792-.896 2.624-3.456 5.184-7.488 5.184-2.88 0-5.312-1.728-5.312-5.376 0-6.016 6.976-7.104 13.12-6.976v5.376zM312.696 284l.256-5.12h.192c2.304 4.096 5.888 5.824 10.368 5.824 6.912 0 13.888-5.504 13.888-16.576.064-9.408-5.376-15.808-13.056-15.808-4.992 0-8.576 2.24-10.56 5.696h-.128V238.56h-5.568V276c0 2.752-.128 5.888-.256 8h4.864zm.96-17.984c0-.896.192-1.664.32-2.304 1.152-4.288 4.736-6.912 8.576-6.912 6.016 0 9.216 5.312 9.216 11.52 0 7.104-3.52 11.904-9.408 11.904-4.096 0-7.36-2.688-8.448-6.592-.128-.64-.256-1.344-.256-2.048v-5.568zm43.968-13.696c-8.576 0-15.36 6.08-15.36 16.448 0 9.792 6.464 15.936 14.848 15.936 7.488 0 15.424-4.992 15.424-16.448 0-9.472-6.016-15.936-14.912-15.936zm-.128 4.224c6.656 0 9.28 6.656 9.28 11.904 0 6.976-4.032 12.032-9.408 12.032-5.504 0-9.408-5.12-9.408-11.904 0-5.888 2.88-12.032 9.536-12.032zM379.64 284h5.568v-16.512c0-.96.128-1.856.256-2.624.768-4.224 3.584-7.232 7.552-7.232.768 0 1.344.064 1.92.192v-5.312c-.512-.128-.96-.192-1.6-.192-3.776 0-7.168 2.624-8.576 6.784h-.256l-.192-6.08h-4.928c.192 2.88.256 6.016.256 9.664V284zm42.88 0c-.384-2.112-.512-4.736-.512-7.424v-11.584c0-6.208-2.304-12.672-11.776-12.672-3.904 0-7.616 1.088-10.176 2.752l1.28 3.712c2.176-1.408 5.184-2.304 8.064-2.304 6.336 0 7.04 4.608 7.04 7.168v.64c-11.968-.064-18.624 4.032-18.624 11.52 0 4.48 3.2 8.896 9.472 8.896 4.416 0 7.744-2.176 9.472-4.608h.192L417.4 284h5.12zm-5.952-10.432c0 .576-.128 1.216-.32 1.792-.896 2.624-3.456 5.184-7.488 5.184-2.88 0-5.312-1.728-5.312-5.376 0-6.016 6.976-7.104 13.12-6.976v5.376zM432.12 245.6v7.424h-4.8v4.288h4.8v16.896c0 3.648.576 6.4 2.176 8.064 1.344 1.536 3.456 2.368 6.08 2.368 2.176 0 3.904-.32 4.992-.768l-.256-4.224c-.704.192-1.792.384-3.264.384-3.136 0-4.224-2.176-4.224-6.016v-16.704h8.064v-4.288h-8.064v-8.896l-5.504 1.472zm25.536 38.4v-30.976h-5.632V284h5.632zm-2.816-43.2c-2.048 0-3.52 1.536-3.52 3.52 0 1.92 1.408 3.456 3.392 3.456 2.24 0 3.648-1.536 3.584-3.456 0-1.984-1.344-3.52-3.456-3.52zm25.28 11.52c-8.576 0-15.36 6.08-15.36 16.448 0 9.792 6.464 15.936 14.848 15.936 7.488 0 15.424-4.992 15.424-16.448 0-9.472-6.016-15.936-14.912-15.936zm-.128 4.224c6.656 0 9.28 6.656 9.28 11.904 0 6.976-4.032 12.032-9.408 12.032-5.504 0-9.408-5.12-9.408-11.904 0-5.888 2.88-12.032 9.536-12.032zM502.136 284h5.632v-18.624c0-.96.128-1.92.384-2.624.96-3.136 3.84-5.76 7.552-5.76 5.312 0 7.168 4.16 7.168 9.152V284h5.632v-18.496c0-10.624-6.656-13.184-10.944-13.184-5.12 0-8.704 2.88-10.24 5.824h-.128l-.32-5.12h-4.992c.192 2.56.256 5.184.256 8.384V284z" fill="#666"/></g></svg>
