<svg width="500" height="200" viewBox="0 0 500 200" xmlns="http://www.w3.org/2000/svg"><title>Untitled</title><g fill="none" fill-rule="evenodd"><path d="M8.64 141.1c6.03.832 15.597 1.664 28.073 1.664 22.874 0 38.678-4.16 48.45-13.1 7.07-6.863 11.854-16.012 11.854-28.073 0-20.793-15.596-31.814-28.904-35.14v-.417c14.764-5.406 23.705-17.26 23.705-30.775 0-11.02-4.367-19.34-11.645-24.745C71.44 3.443 59.795.323 41.703.323 29.02.323 16.544 1.57 8.642 3.235V141.1zM26.733 15.503c2.91-.624 7.694-1.247 16.012-1.247 18.3 0 30.775 6.446 30.775 22.873 0 13.515-11.23 23.497-30.36 23.497H26.732V15.503zm0 58.848h14.972c19.754 0 36.182 7.903 36.182 27.033 0 20.38-17.26 27.24-35.974 27.24-6.446 0-11.645-.207-15.18-.83V74.35zm178.6 20.17c.207-1.87.623-4.78.623-8.524 0-18.507-8.733-47.41-41.588-47.41-29.32 0-47.203 23.912-47.203 54.272s18.507 50.738 49.49 50.738c16.012 0 27.033-3.327 33.48-6.24l-3.12-13.1c-6.862 2.912-14.764 5.2-27.865 5.2-18.3 0-34.103-10.19-34.52-34.935h70.7zm-70.493-13.1c1.455-12.684 9.564-29.735 28.07-29.735 20.587 0 25.578 18.09 25.37 29.736h-53.44zm84.192-40.548l38.262 100.644h17.467l39.51-100.644h-19.13l-19.547 56.56c-3.327 9.15-6.238 17.468-8.526 25.785h-.624c-2.08-8.317-4.782-16.635-8.11-25.785l-19.754-56.56H219.03zm115.385 100.644h18.09v-53.65c0-3.118.417-6.03.833-8.524 2.495-13.725 11.645-23.498 24.537-23.498 2.496 0 4.367.208 6.24.624v-17.26c-1.665-.415-3.12-.623-5.2-.623-12.27 0-23.29 8.525-27.864 22.042h-.832l-.623-19.755h-16.01c.622 9.358.83 19.547.83 31.4v69.244zm62.776-100.644l37.22 92.742c.833 2.288 1.25 3.743 1.25 4.783 0 1.04-.625 2.495-1.457 4.367-4.158 9.357-10.397 16.427-15.387 20.378-5.408 4.575-11.438 7.486-16.013 8.942l4.575 15.387c4.575-.83 13.516-3.95 22.458-11.85 12.476-10.814 21.418-28.49 34.518-63.008l27.448-71.74h-19.338l-19.963 59.056c-2.495 7.278-4.574 14.972-6.446 21.002h-.417c-1.663-6.03-4.16-13.932-6.446-20.586l-22.042-59.472h-19.962z" fill="#000"/><path d="M19.402 167.74c-6.192 0-11.09 4.39-11.09 11.876 0 7.07 4.667 11.506 10.72 11.506 5.407 0 11.137-3.604 11.137-11.876 0-6.84-4.345-11.506-10.768-11.506zm-.092 3.05c4.806 0 6.7 4.806 6.7 8.595 0 5.037-2.91 8.687-6.793 8.687-3.974 0-6.792-3.697-6.792-8.595 0-4.25 2.08-8.687 6.885-8.687zm15.988 28.973h4.02V187.61h.093c1.34 2.218 3.93 3.512 6.886 3.512 5.268 0 10.166-3.974 10.166-12.014 0-6.793-4.066-11.368-9.473-11.368-3.65 0-6.285 1.617-7.95 4.344h-.09l-.186-3.836h-3.65c.092 2.126.184 4.436.184 7.3v24.215zm4.02-22.088c0-.554.14-1.155.278-1.663.785-3.05 3.373-5.037 6.146-5.037 4.297 0 6.654 3.835 6.654 8.317 0 5.13-2.496 8.642-6.793 8.642-2.91 0-5.36-1.94-6.1-4.76-.092-.508-.185-1.063-.185-1.664v-3.835zm40.25 2.495c.045-.415.137-1.062.137-1.894 0-4.113-1.94-10.536-9.24-10.536-6.517 0-10.49 5.314-10.49 12.06 0 6.747 4.112 11.276 10.997 11.276 3.558 0 6.007-.74 7.44-1.386l-.694-2.912c-1.524.647-3.28 1.156-6.192 1.156-4.066 0-7.578-2.265-7.67-7.764h15.71zM63.9 177.26c.323-2.82 2.125-6.61 6.238-6.61 4.575 0 5.684 4.02 5.638 6.61H63.902zm20.84 13.354h4.067v-13.447c0-.693.09-1.386.276-1.895.693-2.264 2.772-4.16 5.453-4.16 3.834 0 5.174 3.005 5.174 6.61v12.892h4.067V177.26c0-7.672-4.805-9.52-7.9-9.52-3.698 0-6.286 2.08-7.395 4.205h-.092l-.23-3.697h-3.606c.14 1.85.185 3.743.185 6.054v16.312zm23.66-14.002v3.004h11.413v-3.004H108.4zm32.254 10.12c-1.156.508-2.68 1.11-4.99 1.11-4.437 0-7.764-3.19-7.764-8.365 0-4.667 2.772-8.456 7.902-8.456 2.218 0 3.743.51 4.713 1.064l.924-3.142c-1.108-.555-3.234-1.156-5.636-1.156-7.3 0-12.015 4.99-12.015 11.876 0 6.84 4.39 11.414 11.136 11.414 3.003 0 5.36-.74 6.423-1.294l-.694-3.05zm14.648-18.992c-6.192 0-11.09 4.39-11.09 11.876 0 7.07 4.667 11.506 10.72 11.506 5.407 0 11.137-3.604 11.137-11.876 0-6.84-4.343-11.506-10.766-11.506zm-.092 3.05c4.805 0 6.7 4.806 6.7 8.595 0 5.037-2.91 8.687-6.793 8.687-3.975 0-6.794-3.697-6.794-8.595 0-4.25 2.08-8.687 6.886-8.687zm15.988 19.824h4.066v-32.81H171.2v32.81zm10.905 0h4.067v-32.81h-4.067v32.81zm26.987 0c-.278-1.525-.37-3.42-.37-5.36v-8.364c0-4.483-1.664-9.15-8.503-9.15-2.82 0-5.5.786-7.348 1.987l.924 2.68c1.572-1.016 3.743-1.663 5.823-1.663 4.574 0 5.082 3.327 5.082 5.175v.46c-8.64-.045-13.447 2.912-13.447 8.32 0 3.234 2.31 6.422 6.84 6.422 3.187 0 5.59-1.57 6.838-3.327h.138l.325 2.82h3.697zm-4.298-7.532c0 .415-.092.878-.23 1.293-.648 1.895-2.496 3.743-5.407 3.743-2.08 0-3.836-1.247-3.836-3.88 0-4.345 5.038-5.13 9.474-5.038v3.882zm13.817 7.532l.186-3.697h.138c1.664 2.957 4.252 4.205 7.486 4.205 4.99 0 10.028-3.974 10.028-11.968.046-6.793-3.882-11.414-9.427-11.414-3.603 0-6.19 1.617-7.624 4.113h-.092v-14.048h-4.02v27.033c0 1.987-.093 4.25-.185 5.776h3.51zm.694-12.985c0-.648.14-1.203.23-1.665.833-3.096 3.42-4.99 6.193-4.99 4.344 0 6.654 3.835 6.654 8.317 0 5.13-2.54 8.595-6.792 8.595-2.957 0-5.314-1.94-6.1-4.76-.092-.46-.184-.97-.184-1.478v-4.02zm31.746-9.89c-6.192 0-11.09 4.39-11.09 11.876 0 7.07 4.667 11.506 10.72 11.506 5.407 0 11.137-3.604 11.137-11.876 0-6.84-4.344-11.506-10.767-11.506zm-.093 3.05c4.806 0 6.7 4.806 6.7 8.595 0 5.037-2.91 8.687-6.792 8.687-3.974 0-6.793-3.697-6.793-8.595 0-4.25 2.08-8.687 6.885-8.687zm15.99 19.824h4.02v-11.922c0-.693.09-1.34.184-1.895.555-3.05 2.59-5.222 5.454-5.222.554 0 .97.047 1.386.14v-3.836c-.37-.094-.693-.14-1.155-.14-2.727 0-5.176 1.895-6.192 4.898h-.185l-.14-4.39h-3.557c.14 2.08.186 4.344.186 6.978v15.388zm30.96 0c-.278-1.525-.37-3.42-.37-5.36v-8.364c0-4.483-1.664-9.15-8.503-9.15-2.82 0-5.5.786-7.347 1.987l.924 2.68c1.572-1.016 3.744-1.663 5.823-1.663 4.575 0 5.083 3.327 5.083 5.175v.46c-8.64-.045-13.447 2.912-13.447 8.32 0 3.234 2.31 6.422 6.838 6.422 3.19 0 5.592-1.57 6.84-3.327h.138l.323 2.82h3.696zm-4.298-7.532c0 .415-.094.878-.232 1.293-.647 1.895-2.496 3.743-5.407 3.743-2.078 0-3.834-1.247-3.834-3.88 0-4.345 5.037-5.13 9.473-5.038v3.882zm11.228-20.194v5.36h-3.466v3.096h3.466v12.2c0 2.634.415 4.62 1.57 5.822.97 1.11 2.496 1.71 4.39 1.71 1.572 0 2.82-.23 3.605-.555l-.185-3.05c-.508.14-1.294.28-2.357.28-2.263 0-3.048-1.572-3.048-4.345v-12.06h5.822v-3.097h-5.822v-6.423l-3.974 1.063zm18.437 27.726v-22.366h-4.066v22.366h4.065zm-2.033-31.192c-1.48 0-2.542 1.11-2.542 2.542 0 1.386 1.017 2.495 2.45 2.495 1.617 0 2.633-1.11 2.587-2.496 0-1.433-.97-2.542-2.495-2.542zm18.253 8.318c-6.192 0-11.09 4.39-11.09 11.876 0 7.07 4.666 11.506 10.72 11.506 5.406 0 11.136-3.604 11.136-11.876 0-6.84-4.342-11.506-10.765-11.506zm-.093 3.05c4.806 0 6.7 4.806 6.7 8.595 0 5.037-2.91 8.687-6.792 8.687-3.974 0-6.793-3.697-6.793-8.595 0-4.25 2.08-8.687 6.885-8.687zm15.99 19.824h4.065v-13.447c0-.693.092-1.386.277-1.895.693-2.264 2.773-4.16 5.453-4.16 3.835 0 5.175 3.005 5.175 6.61v12.892h4.067V177.26c0-7.672-4.807-9.52-7.903-9.52-3.697 0-6.284 2.08-7.393 4.205h-.093l-.23-3.697h-3.604c.138 1.85.185 3.743.185 6.054v16.312z" fill="#666"/></g></svg>
