<svg width="500" height="200" xmlns="http://www.w3.org/2000/svg"><path fill="none" d="M-1-1h502v202H-1z"/><g stroke="null"><path d="M54.061 117.819s.456-17.122-8.944-25.049c0 0 8.488-7.609 7.681-24.655 0 0 .316-22.116-24.412-23.92H.714v100.152h30.41c0-.001 24.095 1.356 22.937-26.528zm-34.4-57.043c14.437 0 14.732 10.487 14.732 10.487 0 14.873-14.732 12.031-14.732 12.031V60.776zm15.994 54.926c-.316 14.206-15.994 11.575-15.994 11.575v-25.149c18.046 0 15.994 13.574 15.994 13.574zm72.851 11.767l-.01-42.597s-.069-17.677-23.85-17.677c-23.779 0-23.857 16.35-23.857 16.35v43.206s.077 19.068 23.648 19.068c23.991 0 24.069-18.35 24.069-18.35zM91.254 86.977l-.004 38.09s-.24 5.367-6.66 5.367c-7.049 0-6.657-5.366-6.657-5.366V86.977s-.181-4.525 6.657-4.525c6.42 0 6.664 4.525 6.664 4.525zm72.271 40.492l-.028-42.597s.336-17.677-23.446-17.677c-23.779 0-23.66 16.35-23.66 16.35v43.206s-.12 19.068 23.45 19.068c23.992 0 23.684-18.35 23.684-18.35zm-17.062-40.492l-.005 38.09s-.043 5.367-6.463 5.367c-7.049 0-6.46-5.366-6.46-5.366V86.977s-.378-4.525 6.46-4.525c6.42 0 6.468 4.525 6.468 4.525z" fill="#F4831F"/><path d="M335.305 127.469l-.316-42.597s.148-17.677-23.633-17.677c-23.778 0-23.946 16.35-23.946 16.35v43.206s.168 19.068 23.737 19.068c23.99 0 24.158-18.35 24.158-18.35zm-17.253-40.492l-.005 38.09s-.329 5.367-6.749 5.367c-7.048 0-6.746-5.366-6.746-5.366V86.977s-.092-4.525 6.746-4.525c6.42 0 6.754 4.525 6.754 4.525z" fill="#3C81C3"/><path d="M171.918 69.208v75.139h16.24v-54.94s13.535-11.679 13.535-.946v55.886h15.338V89.723s11.73-12.468 11.73-1.262v55.886h17.143v-65.83s.16-10.417-11.559-10.417c0 0-9.882-1.08-17.276 6.313 0 0-9.963-14.678-28.008-.947v-4.262l-17.143.004z" fill="#F4831F"/><path fill="#3C81C3" d="M239.548 60.434v-16.24h54.138v16.24h-17.143v83.912h-18.948V60.434zm99.819 9.023l14.447 74.889h14.448l5.504-34.53 6.421 34.53h15.593l13.071-74.889h-16.74l-5.274 33.941-5.963-33.94h-13.3l-5.847 34.456-5.62-34.457zm76.205 0v74.889h18.046V89.848s11.73-12.088 11.73-1.4v55.899h17.143V79.529s.056-11.523-12.863-11.523c0 0-9.694-.202-16.912 6.535v-5.084h-17.144zm59.851-27.317l3.943 80.703 10.268-2.412 3.233-78.31zm23.863 102.192l-9.394-13.813-10.461 2.407-10.503 11.391 1.61 1.129 2.658-.297.01 6.013 10.94 6.716 12.424-4.265v-8.12z"/></g></svg>