<?xml version="1.0"?>
<svg width="500" height="200" xmlns="http://www.w3.org/2000/svg">

 <g>
  <title>background</title>
  <rect fill="none" id="canvas_background" height="202" width="502" y="-1" x="-1"/>
 </g>
 <g>
  <title>Layer 1</title>
  <g stroke="null" id="svg_1">
   <path stroke="null" id="svg_2" d="m54.061432,117.819031c0,0 0.455654,-17.122482 -8.944252,-25.048973c0,0 8.487701,-7.608887 7.681068,-24.654671c0,0 0.315796,-22.116577 -24.411961,-23.921127l-27.672787,0l0,100.152557l30.410286,0c0,-0.0009 24.095264,1.356125 22.937645,-26.527786zm-34.400148,-57.042751c14.436403,0 14.731451,10.48624 14.731451,10.48624c0,14.873108 -14.731451,12.031845 -14.731451,12.031845l0,-22.518085zm15.993734,54.926014c-0.315796,14.205421 -15.993734,11.574379 -15.993734,11.574379l0,-25.148224c18.045507,0 15.993734,13.573845 15.993734,13.573845z" fill="#F4831F"/>
   <path stroke="null" id="svg_3" d="m108.50563,127.468864l-0.009026,-42.596428c0,0 -0.069481,-17.677368 -23.850746,-17.677368c-23.778564,0 -23.857059,16.349236 -23.857059,16.349236l0,43.20636c0,0 0.077591,19.068687 23.647732,19.068687c23.991501,-0.000015 24.069099,-18.350487 24.069099,-18.350487zm-17.251503,-40.49231l-0.004517,38.091354c0,0 -0.240005,5.365822 -6.659691,5.365822c-7.048576,0 -6.65699,-5.365822 -6.65699,-5.365822l0,-38.091354c0,0 -0.181351,-4.52491 6.65699,-4.52491c6.419685,0.0009 6.664207,4.52491 6.664207,4.52491z" fill="#F4831F"/>
   <path stroke="null" id="svg_4" d="m163.525482,127.468864l-0.027985,-42.596428c0,0 0.335663,-17.677368 -23.446518,-17.677368c-23.778572,0 -23.660378,16.349236 -23.660378,16.349236l0,43.20636c0,0 -0.119095,19.068687 23.451057,19.068687c23.991501,-0.000015 23.683823,-18.350487 23.683823,-18.350487zm-17.062943,-40.49231l-0.004501,38.091354c0,0 -0.04332,5.365822 -6.462997,5.365822c-7.048584,0 -6.460297,-5.365822 -6.460297,-5.365822l0,-38.091354c0,0 -0.378067,-4.52491 6.460297,-4.52491c6.419678,0.0009 6.467499,4.52491 6.467499,4.52491z" fill="#F4831F"/>
   <path stroke="null" id="svg_5" d="m335.305176,127.468864l-0.315826,-42.596428c0,0 0.14798,-17.677368 -23.63327,-17.677368c-23.778564,0 -23.946411,16.349236 -23.946411,16.349236l0,43.20636c0,0 0.167847,19.068687 23.737061,19.068687c23.990601,-0.000015 24.158447,-18.350487 24.158447,-18.350487zm-17.253296,-40.49231l-0.004547,38.091354c0,0 -0.329285,5.365822 -6.748993,5.365822c-7.048584,0 -6.746338,-5.365822 -6.746338,-5.365822l0,-38.091354c0,0 -0.09201,-4.52491 6.746338,-4.52491c6.419678,0.0009 6.75354,4.52491 6.75354,4.52491z" fill="#3C81C3"/>
   <path stroke="null" id="svg_6" d="m171.917526,69.208038l0,75.138779l16.240967,0l0,-54.939537c0,0 13.534134,-11.679054 13.534134,-0.946487l0,55.886024l15.338669,0l0,-54.623749c0,0 11.729584,-12.468536 11.729584,-1.262276s0,55.886024 0,55.886024l17.143204,0l0,-65.830002c0,0 0.160614,-10.416763 -11.559006,-10.416763c0,0 -9.881744,-1.080933 -17.275894,6.313217c0,0 -9.962906,-14.678219 -28.008408,-0.947395l0,-4.261436l-17.14325,0.003601z" fill="#F4831F"/>
   <polygon stroke="null" id="svg_7" points="239.54849243164062,60.4343147277832 239.54849243164062,44.193359375 293.6859436035156,44.193359375 293.6859436035156,60.4343147277832 276.5426940917969,60.4343147277832 276.5426940917969,144.34591674804688 257.59490966796875,144.34591674804688 257.59490966796875,60.4343147277832 " fill="#3C81C3"/>
   <polygon stroke="null" id="svg_8" points="339.3672180175781,69.45706939697266 353.81353759765625,144.34591674804688 368.2616882324219,144.34591674804688 373.7655334472656,109.81584167480469 380.1870422363281,144.34591674804688 395.7801818847656,144.34591674804688 408.8514099121094,69.45706939697266 392.1115417480469,69.45706939697266 386.8368225097656,103.39796447753906 380.8736572265625,69.45706939697266 367.5732116699219,69.45706939697266 361.72650146484375,103.91405487060547 356.10711669921875,69.45706939697266 " fill="#3C81C3"/>
   <path stroke="null" id="svg_9" d="m415.572479,69.457069l0,74.888847l18.045502,0l0,-54.497429c0,0 11.729584,-12.088676 11.729584,-1.400322l0,55.898651l17.14325,0l0,-64.81765c0,0 0.055939,-11.522957 -12.862885,-11.522957c0,0 -9.694,-0.20211 -16.912201,6.535179l0,-5.08432l-17.14325,0z" fill="#3C81C3"/>
   <polygon stroke="null" id="svg_10" points="475.423095703125,42.140682220458984 479.36602783203125,122.8428955078125 489.6339416503906,120.43111419677734 492.8668212890625,42.121734619140625 " fill="#3C81C3"/>
   <polygon stroke="null" id="svg_11" points="499.2864990234375,144.3323974609375 489.8919982910156,130.51944732666016 479.4310302734375,132.92581939697266 468.9276428222656,144.31704711914062 470.53729248046875,145.44580078125 473.1962890625,145.14894104003906 473.20623779296875,151.16171264648438 484.1453857421875,157.87826538085938 496.56976318359375,153.61318969726562 496.56976318359375,145.49270629882812 " fill="#3C81C3"/>
  </g>
 </g>
</svg>
