<svg width="250" height="137" viewBox="0 0 250 137" xmlns="http://www.w3.org/2000/svg"><g fill="#9221C7"><path d="M26.75 87.22c2.037-1.294 6.967-5.61 5.734-13.915-1.114-7.507-7.396-12.494-15.47-12.1-3.604.178-15.436 2.58-15.436 2.58v56.227s14.63-2.85 17.31-3.362c9.324-1.78 15.72-7.892 15.562-16.61-.143-7.84-4.288-11.507-7.7-12.82zm-2.412 11.417c.424 4.953-2.594 7.377-5.79 8.304-2.672.775-7.168 1.476-7.168 1.476V93.484s4.63-.97 6.6-.862c2.78.152 5.97 1.484 6.358 6.015zm-7.02-14.22c-.812.184-5.938 1.12-5.938 1.12v-14.01c1.692-.348 4.097-.936 6.384-.864 2.928.092 5.417 2.165 5.502 6.184.09 4.257-2.412 6.76-5.95 7.57z"/><path d="M72.69 92.508c.658-8.52-2.358-11.035-7.164-11.436 3.122-1.47 8.262-6.26 7.128-14.75-.965-7.23-6.52-13.623-17.123-12.81-4.02.307-15.288 2.688-15.288 2.688v56.208l9.935-1.94V87.543s4.855-1.103 7.256-1.35c3.698-.376 6.027.982 5.565 9.182-.427 7.58 1.836 11.25 6.248 12.52 4.15 1.192 7.374-.828 7.374-.828v-5.393c-3.593.843-4.523-1.477-3.93-9.167zm-9.737-23.07c.264 4.54-2.216 7.318-6.31 8.41-2.792.745-6.466 1.264-6.466 1.264v-15.36s4.032-.948 6.628-.804c3.886.216 5.934 2.812 6.148 6.49z"/><path d="M82.73 47.92v56.182l10.018-1.97v-56.19l-10.017 1.98"/><path d="M117.82 68.43v8.148l7.162-1.384s.112 3.69-.002 5.18c-.438 5.765-2.63 8.302-6.316 8.66-3.433.334-6.778-1.965-6.778-8.438V58.51c0-5.296 2.336-8.024 6.134-8.558 2.685-.378 5.004.863 5.897 3.99.486 1.7.59 5.448.59 5.448l9.95-1.995s-.263-5.088-1.585-8.648c-1.812-4.878-6.467-9.68-14.648-8.54-5.078.706-8.748 2.363-11.472 5.3-2.76 2.975-4.882 7.838-4.882 17.138v19.2c0 11.27 7.437 16.785 12.972 16.785 4.67 0 10.084-1.49 13.15-7.526l.856 3.883 5.458-1.025V65.214L117.82 68.43"/><path d="M162.278 32.248l-9.714 1.915L139.42 92.91l9.785-1.914 3.082-15.55 10.948-2.293 3.13 14.463 9.415-1.852-13.502-53.516zm-4.542 15.614l3.716 17.174-7.378 1.465 3.662-18.638z"/><path d="M180.854 28.596V84.76s14.496-2.86 16.41-3.24c11.165-2.202 16.312-7.373 16.312-16.07V42.995c0-10.398-4.764-17.636-14.09-17.528-5.842.067-18.632 3.13-18.632 3.13zm22.706 14.237v17.26c0 7.258-.883 10.348-7.857 11.92-.68.155-2.433.48-4.914.952V36.452s3.764-.765 6.168-.99c4.453-.42 6.602 2.3 6.602 7.37z"/><path d="M221.02 20.68v56.172l27.596-5.418v-9.806l-17.578 3.452.014-13.738 12.68-2.496v-9.813l-12.694 2.51v-13.02l16.685-3.237v-9.85l-26.702 5.245"/><path d="M249.83 3.59V.035L.184 49.146v3.552L249.83 3.588"/><path d="M.185 133.31v3.554l249.644-49.11v-3.552L.184 133.312"/></g></svg>
