<?xml version="1.0"?>
<svg width="500" height="200" xmlns="http://www.w3.org/2000/svg" stroke="null" style="vector-effect: non-scaling-stroke;">

 <g stroke="null">
  <title stroke="null">background</title>
  <rect stroke="null" fill="none" id="canvas_background" height="202" width="502" y="-1" x="-1"/>
 </g>
 <g stroke="null">
  <title stroke="null">Layer 1</title>
  <g stroke="null" id="svg_1">
   <g stroke="null" id="svg_2">
    <path stroke="null" id="svg_3" d="m79.974548,137.995499l0,-75.297001l13.879616,0c7.286812,0 12.838669,1.387959 15.961578,4.510891c3.469902,3.122917 4.857872,7.980782 4.857872,14.573593c0,4.85788 -0.693985,9.021767 -2.428932,11.797691c-1.734962,2.775925 -4.163895,4.51088 -7.633797,5.898849c3.816895,1.04097 6.939812,2.775925 8.674759,5.551842c1.734955,2.775932 2.775932,6.592827 2.775932,11.797676c0,7.286812 -1.734947,12.838654 -5.204865,16.308578c-3.469894,3.469894 -8.674767,5.204865 -15.961578,5.204865l-14.920586,0l0,-0.346985zm10.062729,-43.026855l3.816887,0c3.81691,0 6.592827,-1.04097 8.327782,-2.775932c1.734955,-1.734947 2.775932,-4.857864 2.775932,-9.021751c0,-4.163895 -0.693985,-7.286804 -2.42894,-9.021759c-1.734947,-1.734955 -4.51088,-2.428947 -8.674774,-2.428947l-3.816887,0l0,23.24839zm0,33.311096l3.469902,0c4.51088,0 7.980789,-1.04097 9.715744,-2.775909c1.734955,-1.734955 2.775925,-4.857872 2.775925,-9.368752c0,-4.510887 -1.04097,-7.980789 -2.775925,-9.715752c-1.734955,-2.08194 -4.85788,-3.122902 -9.368759,-3.122902l-3.469902,0l0,24.983315l-0.346985,0z" fill="#0093CF"/>
    <path stroke="null" id="svg_4" d="m143.126846,101.214478l0,36.781021l-10.062729,0l0,-75.297001l12.144669,0c7.980804,0 13.879654,1.387959 17.349548,4.510891c3.469894,3.122917 5.204849,7.980782 5.204849,15.267593c0,5.551842 -1.04097,10.062714 -3.469894,13.185631c-2.428925,3.122925 -5.898834,4.85788 -10.756729,5.551865l18.043533,36.781021l-10.756714,0l-17.696533,-36.781021l0,0zm0,-5.898842l3.12294,0c4.163864,0 6.939804,-1.040977 8.674744,-2.77594c1.734955,-2.081932 2.428955,-5.204849 2.428955,-10.062714c0,-4.163887 -0.694,-6.939827 -2.428955,-8.327782c-1.73494,-1.734955 -4.857864,-2.428947 -9.021744,-2.428947l-2.77594,0l0,23.595383z" fill="#0093CF"/>
    <path stroke="null" id="svg_5" d="m183.030777,100.173515c0,-13.879639 1.734955,-23.595375 4.85788,-29.841209c3.46991,-5.898849 8.674759,-9.021763 16.308548,-9.021763c7.633804,0 12.838669,3.122913 16.308563,9.021763c3.469925,5.898834 4.85788,15.961571 4.85788,29.841209c0,13.879616 -1.73494,23.59536 -4.85788,29.494179c-3.469894,5.898849 -8.674759,9.021759 -16.308563,9.021759c-7.633789,0 -13.185623,-3.12291 -16.308548,-9.021759c-3.469925,-5.551842 -4.85788,-15.614563 -4.85788,-29.494179zm10.062744,0c0,10.756706 0.69397,18.043495 2.428925,22.554375c1.734955,4.51088 4.510864,6.592819 8.674759,6.592819c4.163895,0 6.939819,-2.08194 8.327805,-6.245827c1.734924,-4.163887 2.428909,-11.797691 2.428909,-22.901367c0,-10.756721 -0.693985,-18.390533 -2.428909,-22.554405c-1.73497,-4.163887 -4.510895,-6.245834 -8.674789,-6.245834c-4.163879,0 -6.939804,2.081947 -8.674759,6.592819c-1.04097,3.816887 -2.08194,11.450699 -2.08194,22.20742z" fill="#0093CF"/>
    <path stroke="null" id="svg_6" d="m236.814331,137.995499l17.696503,-75.297001l9.368744,0l17.696594,75.297001l-10.409729,0l-3.46991,-14.920616l-17.349564,0l-3.46991,14.920616l-10.062729,0zm22.207428,-55.865509l-6.93985,32.617119l13.532654,0l-6.592804,-32.617119z" fill="#0093CF"/>
    <path stroke="null" id="svg_7" d="m296.496735,137.995499l0,-75.297001l13.532684,0c10.409729,0 17.349487,2.775936 21.513367,8.327778c4.16391,5.551865 6.24585,15.267601 6.24585,29.14724c0,13.879616 -2.08194,23.595345 -6.24585,29.147194c-4.163879,5.551849 -11.450684,8.327789 -21.513367,8.327789l-13.532684,0l0,0.347zm10.062775,-9.715759l5.204834,0c5.551819,0 9.715698,-2.08194 12.144653,-6.245834c2.428955,-4.163879 3.46991,-11.450676 3.46991,-21.86039c0,-10.409744 -1.040955,-17.696533 -3.46991,-21.86042c-2.08197,-4.163895 -6.24585,-6.245842 -11.797699,-6.245842l-5.204865,0l0,56.212486l-0.346924,0z" fill="#0093CF"/>
    <path stroke="null" id="svg_8" d="m355.138123,137.995499l0,-75.297001l10.062744,0l0,65.928226l21.860413,0l0,9.368774l-31.923157,0z" fill="#0093CF"/>
    <path stroke="null" id="svg_9" d="m416.208496,106.072334l0,31.923164l-10.409729,0l0,-31.923164l-14.226563,-43.373837l10.409668,0l6.24585,21.166447c0.347015,1.387955 0.694,3.12291 1.387939,5.204857c0.347046,2.081932 1.041077,4.510872 1.387939,6.939804c0.347046,-2.081932 0.694031,-4.163887 1.041016,-6.245834c0.347015,-2.081947 1.041046,-3.816887 1.388,-5.898827l6.245819,-21.166447l10.409729,0l-13.879669,43.373837z" fill="#0093CF"/>
   </g>
   <polygon stroke="null" id="svg_10" points="24.80302619934082,132.79061889648438 0.166687011716931,100.86748504638672 24.80302619934082,68.59735107421875 " fill="#0093CF"/>
   <polygon stroke="null" id="svg_11" points="475.1969451904297,68.59735107421875 499.8332977294922,100.86748504638672 475.1969451904297,132.79061889648438 " fill="#0093CF"/>
  </g>
 </g>
</svg>