<svg xmlns="http://www.w3.org/2000/svg" width="500" height="200" viewBox="0 0 500 200"><linearGradient id="a" gradientUnits="userSpaceOnUse" x1="194.628" y1="27.372" x2="194.628" y2="56.148"><stop offset="0" stop-color="#ac6a00"/><stop offset=".101" stop-color="#bb7900"/><stop offset=".349" stop-color="#dc9a00"/><stop offset=".555" stop-color="#f1ae00"/><stop offset=".693" stop-color="#f8b500"/></linearGradient><path fill="url(#a)" d="M193.443 29.167h-12.969l-.006 56.628h13.55c8.158 0 14.77-6.607 14.77-14.767V36.826c0-4.124-4.39-7.659-15.345-7.659z"/><path fill="#4D4E7D" d="M67.215 170.742l-28.314.001v-28.314h28.314V114.11H25.35c-8.154 0-14.765 6.612-14.765 14.77v55.412c0 8.153 6.611 14.767 14.765 14.767h55.41c8.157 0 14.767-6.613 14.767-14.767v-13.55H67.215z"/><path d="M123.843 85.799h28.313v28.312h-28.313zm28.313-28.317h23.467v28.316h-23.467zm0-23.474h-28.313v23.474h28.313v-.003z" fill="#F8B500"/><g fill="#ED6C00"><path d="M67.215 142.429h28.311v28.314H67.215zm28.317-56.63h28.311V57.482H81.981c-8.154 0-14.766 6.612-14.766 14.769v41.86h28.311V85.799h.006z"/><path d="M123.843 114.11H95.526v28.318h41.866c8.153 0 14.764-6.613 14.764-14.77V114.11h-28.313z"/></g><path fill="#6A2414" d="M67.215 114.11h28.311v28.318H67.215z"/><path fill="#F8B500" d="M194.018.852h-55.409c-8.154 0-14.765 6.614-14.765 14.769v13.546h69.599c10.956 0 15.345 3.534 15.345 7.659V15.621c0-8.155-6.612-14.769-14.77-14.769z"/><path fill="#E8410B" d="M123.843 57.482h28.313v28.313h-28.313z"/><g fill="#4D4E7D"><path d="M387.498 81.955h-27.503v-5.426h-8.041v5.426h-27.302c-4.677 0-7.146 2.367-7.146 6.83V99.96h8.047l.003-10.411v-.056c.042-.002.095-.01.167-.01h60.718c.069 0 .115.008.143.01.003.011.003.036.003.036l.006 10.431h8.043V88.784c0-4.463-2.471-6.829-7.138-6.829z"/><path d="M328.841 92.417h54.246v7.522h-54.246zm.006 23.11h.043c.337 3.585 2.511 5.568 6.363 5.797l40.739.032c4.273-.018 6.694-2.03 7.043-5.829h.052l-.006-5.953c-.027-4.419-2.495-6.756-7.143-6.756h-39.804l-.754.012v.012c-4.248.199-6.505 2.521-6.54 6.818l.007 5.867zm8.049-5.1v-.06c.036-.002.087-.01.159-.01l34.88-.014h2.955c.066 0 .111 0 .143.023v3.397c0 .024 0 .042-.003.06-.034.006-.089.01-.164.01h-32.623l.037-.014h-5.244a.669.669 0 0 1-.14-.01v-3.382zm54.426 19.486c-.332-3.872-2.772-5.905-7.125-5.905l-56.622.008v.022c-3.854.218-6.037 2.204-6.377 5.811h-.046v17.375c.019 4.019 2.067 6.322 5.941 6.707l57.124.076c4.676 0 7.14-2.362 7.14-6.83l-.003-17.264h-.032zm-39.84 16.558h-22.138a.985.985 0 0 1-.14-.007v-.048l-.009-3.866h22.286v3.921zm0-11.45h-22.286l.009-3.407v-.059a1.3 1.3 0 0 1 .162-.01l22.115-.017v3.493zm31.827 11.407v.036a.104.104 0 0 1-.039.007h-23.745v-3.921h23.796l-.012 3.878zm-23.785-11.407v-3.492h18.25l-.013.008h5.407c.064 0 .111.003.14.015v.016l.012 3.454h-23.796zM233.548 88.673s0-.015.003-.032c.036-.001.088-.007.162-.007l13.603-.009-.021.009h3.681c.06 0 .11.006.144.024v.026l.003 47.445h8.049V87.936c0-4.194-2.184-6.53-6.322-6.8l-20.192-.036-.757.01v.018c-3.84.221-6.024 2.213-6.358 5.809l-.042 49.194h8.042l.005-47.458z"/><path d="M261.867 147.824c-.153-.081-15.228-8.159-15.228-18.537l-.026-36.87h-8.044v36.87c0 10.37-15.071 18.456-15.22 18.537l-.784.412 4.361 5.823.552-.256c6.301-2.866 11.63-7.319 15.125-12.625 3.502 5.306 8.83 9.759 15.133 12.625l.551.256 4.354-5.823-.774-.412z"/><path d="M296.569 76.529h-8.043v15.888h-26.285v7.522h18.432c-4.998 22.509-21.275 39.27-21.443 39.442l-.601.615 6.219 4.684.455-.557c18.829-22.785 22.187-38.013 23.224-43.913v44.711c0 1.071-.539 1.549-1.745 1.549h-10.507l1.977 7.522h9.428v-.018c6.223-.241 8.891-3.047 8.891-9.281V99.939h10.596v-7.522h-10.596V76.529zm129.216 19.938l-8.613-16.536h-9.151l8.607 16.536zm-23.131 57.54h9.07s10.583-34.794 11.13-36.314c.798-2.241.623-3.254-.271-4.976l-6.855-13.15h-9.156l.579 1.107c.062.119 6.559 12.476 7.033 13.496.39.851.456 1.338.039 2.397l-11.569 37.44zm27.598 0s8.258-20.45 8.258-44.176V89.325c0-.53.279-.652.62-.708.344-.054 41.387-4.006 41.387-4.006v-7.457s-45.425 4.327-47.577 4.511c-1.696.149-2.479 1.673-2.479 3.419v24.747c0 23.726-9.1 44.176-9.1 44.176h8.891z"/><path d="M485.177 108.564h-9.153l-5.076 13.875c-4.693-11.628-6.466-18.865-6.912-20.906l2.778-.217 13.703-1.083v-7.462s-32.12 2.441-33.666 2.56c-1.548.115-1.977 1.029-1.977 2.068v47.296l.017.754h.017c.215 5.708 2.913 8.3 8.878 8.527l7.295.018 2.727-7.522h-9.127c-1.203 0-1.74-.478-1.74-1.549l-.017-42.055c0-.373.142-.468.398-.485l2.211-.17c.583 2.674 2.332 9.67 6.894 21.796 6.023 15.99 16.266 30.037 16.266 30.037h9.988s-10.696-15.343-16.621-28.949h7.072l6.045-16.533zM250.019 189.92c-.89.774-1.829 1.354-2.75 1.844-1.305.688-2.901 1.035-4.785 1.035-1.413 0-2.707-.275-3.886-.822a9.112 9.112 0 0 1-3.016-2.241c-.836-.941-1.484-2.042-1.959-3.296a11.36 11.36 0 0 1-.704-4.01v-.093c0-1.416.234-2.737.704-3.976a10.335 10.335 0 0 1 1.982-3.279 9.12 9.12 0 0 1 3.04-2.216c1.179-.537 2.456-.804 3.839-.804 1.665 0 3.167.335 4.502.988.962.479 1.875 1.132 2.849 1.817.645.46 1.306.643 1.995-.126.684-.775 3.71-4.275 3.71-4.275a19.496 19.496 0 0 0-2.452-2.08 15.068 15.068 0 0 0-2.876-1.597 17.47 17.47 0 0 0-3.46-1.043c-1.272-.246-2.685-.375-4.221-.375-2.543 0-4.87.448-6.97 1.345-2.109.896-3.912 2.12-5.424 3.675a17.03 17.03 0 0 0-3.531 5.421c-.845 2.055-1.271 4.261-1.271 6.617v.097c0 2.357.426 4.571 1.271 6.646.847 2.07 2.027 3.869 3.531 5.391 1.513 1.528 3.3 2.728 5.375 3.609 2.074.876 4.317 1.318 6.741 1.318 1.6 0 3.045-.134 4.333-.4a15.411 15.411 0 0 0 3.555-1.178 15.788 15.788 0 0 0 2.996-1.865 23.495 23.495 0 0 0 2.637-2.445s-3.03-3.062-3.61-3.657c-.59-.589-1.503-.583-2.145-.025zm78.209-21.503v30.512h5.679c1.266 0 1.583-.547 1.583-1.539v-11.233h13.524c1.727 0 2.212-.688 2.212-1.932v-4.618H335.49v-7.123h17.855v-6.543h-22.741c-1.528-.001-2.376.991-2.376 2.476zm52.479-.235v16.655c0 2.635-.624 4.618-1.881 5.938-1.256 1.315-3.002 1.981-5.23 1.981-2.229 0-3.975-.69-5.23-2.056-1.254-1.362-1.88-3.396-1.88-6.101v-16.301c0-1.566-.542-2.358-2.046-2.358h-5.217v18.847c0 4.873 1.274 8.529 3.814 10.979 2.546 2.455 6.036 3.675 10.464 3.675 2.196 0 4.199-.303 5.987-.914 1.786-.615 3.314-1.543 4.571-2.781 1.256-1.243 2.219-2.789 2.896-4.642.673-1.856 1.011-4.037 1.011-6.555V165.94h-5.011c-1.382 0-2.248.733-2.248 2.242zm55.336 9.161c0-1.697-.289-3.242-.873-4.643a10.175 10.175 0 0 0-2.496-3.608c-1.085-1.001-2.406-1.781-3.956-2.332-1.557-.545-3.323-.819-5.302-.819h-12.3c-.853 0-1.181.521-1.181 1.293v31.695h5.526c.9 0 1.737-.757 1.737-1.717v-8.185h5.507c1.856 0 3.59-.242 5.205-.727 1.619-.485 3.034-1.217 4.242-2.191 1.212-.973 2.158-2.184 2.857-3.625.688-1.449 1.032-3.133 1.032-5.047v-.094zm-7.351.232c0 1.415-.506 2.603-1.504 3.562-1.008.959-2.42 1.436-4.246 1.436h-5.743v-10.09h5.602c1.819 0 3.259.43 4.308 1.276 1.06.853 1.584 2.093 1.584 3.724v.092zm26.106-11.87h-3.455c-.855 0-1.66.354-2.115 1.422-.46 1.067-13.539 31.802-13.539 31.802h5.201c1.868 0 2.343-.459 2.897-1.713.558-1.26 2.316-5.688 2.316-5.688h13.95l2.46 6.025c.407 1.009 1.213 1.376 2.417 1.376h5.729s-12.972-30.484-13.529-31.797c-.564-1.306-1.112-1.427-2.332-1.427zm-6.103 19.419l4.382-10.706 4.384 10.706h-8.766zm-170.804-19.419h-3.449c-.854 0-1.663.354-2.126 1.422l-13.527 31.802h5.196c1.861 0 2.347-.459 2.898-1.713.558-1.26 2.318-5.688 2.318-5.688h13.952s2.038 5.017 2.456 6.025c.411 1.009 1.217 1.376 2.42 1.376h5.723s-12.968-30.484-13.525-31.797c-.557-1.306-1.114-1.427-2.336-1.427zm-6.092 19.419l4.377-10.706 4.386 10.706h-8.763zm210.763-19.184h-5.54v31.235c0 1.159.417 1.753 1.773 1.753h5.486v-31.153c.001-1.219-.795-1.835-1.719-1.835zm-177.846 0h-5.54v31.235c0 1.159.421 1.753 1.773 1.753h5.483v-31.153c.001-1.219-.791-1.835-1.716-1.835z"/></g></svg>