<svg width="500" height="200" xmlns="http://www.w3.org/2000/svg"><path fill="none" d="M-1-1h502v202H-1z"/><path d="M376.78 72.927c-7.322 0-13.73 3.66-17.85 9.154v21.52c3.662 5.5 10.07 9.16 17.393 9.16 10.985 0 19.223-8.24 19.223-19.68 0-10.53-7.323-20.14-18.765-20.14zm-88.334 0c-11.442 0-19.223 9.154-19.223 19.68 0 10.985 7.78 19.68 19.223 19.68 11.442 0 19.223-8.695 19.223-19.68-.46-10.526-8.24-19.68-19.23-19.68zm-173.466 0c-11.442 0-18.765 9.61-18.765 19.68 0 11.443 8.24 19.68 19.223 19.68 7.324 0 13.73-3.66 17.393-9.152V81.623c-3.66-5.035-10.06-8.696-17.85-8.696z" fill="none"/><path d="M39.462 112.746c-11.9 0-20.14-8.238-20.14-19.68 0-10.985 8.24-19.68 19.682-19.68 6.865 0 12.815 3.66 16.934 8.695l13.73-11.9c-6.864-8.69-17.85-14.64-30.664-14.64C17.034 55.54.1 72.47.1 93.53s16.477 37.53 38.904 37.53c13.73 0 24.258-5.034 32.954-16.476L56.854 103.6c-3.204 4.12-9.154 9.153-17.392 9.153zm248.984-57.67c-21.97 0-38.446 16.936-38.446 37.99 0 21.053 16.477 37.53 38.446 37.53s38.446-16.934 38.446-37.53c0-21.054-16.477-37.99-38.446-37.99zm0 57.67c-11.442 0-19.223-8.696-19.223-19.68 0-10.985 7.78-19.68 19.223-19.68 11.442 0 19.223 9.152 19.223 19.68-.46 10.526-8.24 19.68-19.23 19.68z" fill="#4DAD4D"/><path d="M114.98 72.927c-11.442 0-18.765 9.61-18.765 19.68 0 11.443 8.24 19.68 19.223 19.68 7.324 0 13.73-3.66 17.393-9.152V81.623c-3.66-5.035-10.06-8.696-17.85-8.696z" fill="none"/><path d="M136.035 56.45c-1.373 0-2.29.915-2.29 2.288V62.4c-5.49-4.577-12.814-7.323-21.053-7.323-19.68 0-35.7 16.477-35.7 37.988 0 10.07 3.662 18.766 9.154 25.63 6.408 7.324 16.477 12.36 27.462 12.36 7.323 0 14.188-2.29 20.138-7.324v3.67c0 1.38.916 2.29 2.29 2.29h16.476V56.45h-16.477zm-2.747 47.142c-3.66 5.493-10.07 9.154-17.392 9.154-10.984 0-19.223-8.238-19.223-19.68 0-10.528 7.323-19.68 18.765-19.68 7.324 0 13.73 3.66 17.85 9.152v21.054zm97.947-37.072c-5.95-6.866-15.104-11.443-25.173-11.443-8.24 0-15.104 2.746-20.597 7.323v-3.662c0-1.373-.915-2.288-2.288-2.288H166.7v72.315h19.223V82.08c2.746-3.66 9.612-9.153 17.85-9.153 4.577 0 8.24 1.373 10.985 4.12 2.746 2.745 4.12 6.407 4.12 13.73v38.446H238.1V92.15c.458-12.358-2.288-19.68-6.865-25.63zm200.01 95.2zm19.225 1.83zm28.834-107.1l-19.68 43.48-21.055-43.48h-21.52l32.49 64.992-18.77 40.277v.91c0 1.37.91 2.29 2.29 2.29h15.56c.91 0 1.37-.46 1.83-1.38v-.46L499.9 55.99h-20.597v.46z" fill="#4DAD4D"/><path d="M376.78 72.927c-7.322 0-13.73 3.66-17.85 9.154v21.52c3.662 5.5 10.07 9.16 17.393 9.16 10.985 0 19.223-8.24 19.223-19.68 0-10.53-7.323-20.14-18.765-20.14z" fill="none"/><path d="M376.78 72.927c-7.322 0-13.73 3.66-17.85 9.154v21.52c3.662 5.5 10.07 9.16 17.393 9.16 10.985 0 19.223-8.24 19.223-19.68 0-10.53-7.323-20.14-18.765-20.14z" fill="none"/><path d="M358.93 162.635zm20.597-107.558c-8.24 0-15.562 2.746-21.054 7.323v-3.662c0-1.373-.915-2.288-2.288-2.288h-16.477v106.185c0 .915.457 1.83 1.373 1.83h16.02c1.38 0 2.29-.915 2.29-2.288v-38.905c5.95 4.577 11.9 6.408 19.23 6.408 10.99 0 21.06-4.576 27.46-12.357 5.5-6.408 9.16-15.56 9.16-25.63 0-20.14-16.02-36.616-35.7-36.616zm-3.204 57.67c-7.323 0-13.73-3.662-17.392-9.155v-21.51c4.12-5.494 10.53-9.155 17.85-9.155 11.45 0 18.77 9.61 18.77 19.68 0 11.443-8.24 20.14-19.22 20.14z" fill="#4DAD4D"/></svg>