<?xml version="1.0" encoding="UTF-8" standalone="no"?>
<svg width="500px" height="200px" viewBox="0 0 500 200" version="1.1" xmlns="http://www.w3.org/2000/svg" xmlns:xlink="http://www.w3.org/1999/xlink" xmlns:sketch="http://www.bohemiancoding.com/sketch/ns">
    <!-- Generator: Sketch 3.3.1 (12005) - http://www.bohemiancoding.com/sketch -->
    <title>logo-grape-short-cg-white-fontrender</title>
    <desc>Created with Sketch.</desc>
    <defs></defs>
    <g id="Page-1" stroke="none" stroke-width="1" fill="none" fill-rule="evenodd" sketch:type="MSPage">
        <g id="logo-grape-short-cg-white-fontrender" sketch:type="MSLayerGroup" transform="translate(0.000000, 20.000000)">
            <g id="Page-1" sketch:type="MSShapeGroup">
                <g id="logo-grape-short-cg-white-fontrender">
                    <g id="logo-grape-short-cg-white">
                        <g id="Page-1">
                            <g id="logo-grape-short">
                                <g id="Group" transform="translate(0.406236, 0.209029)">
                                    <path d="M53.7325079,28.7264921 C83.2098497,28.7264921 107.106176,52.6306583 107.106176,82.117047 C107.106176,111.604641 83.2098497,135.508204 53.7325079,135.508204 C46.4109675,142.353302 30.0110787,148.285318 19.9744167,148.740652 C32.4035458,143.799517 35.2971826,137.418801 37.1191245,132.870882 C15.7756882,125.88466 0.358839915,105.802291 0.358839915,82.117047 C0.358839915,52.6306583 24.2551659,28.7264921 53.7325079,28.7264921 L53.7325079,28.7264921 L53.7325079,28.7264921 Z" id="Shape" fill="#542F59"></path>
                                    <path d="M72.8891318,46.3379932 C79.4712806,58.0259219 53.1312249,51.4220613 37.4267016,60.6379147 C21.7215751,69.8537679 22.6002806,91.39924 16.0181313,79.7113113 C9.43658511,68.0227798 16.832909,51.0770925 32.5374323,41.8606361 C48.2419556,32.6447828 66.3081884,34.6494615 72.8891318,46.3379932 L72.8891318,46.3379932 L72.8891318,46.3379932 Z" id="Shape-path" fill="#7B477B"></path>
                                    <path d="M35.1180642,28.2958842 C28.4731934,21.6588536 27.7090754,11.6607895 27.7090754,11.6607895 C27.7090754,11.6607895 37.7192013,12.4237012 44.362866,19.0607319 C51.00834,25.6977626 51.7718548,35.6958266 51.7718548,35.6958266 C51.7718548,35.6958266 41.7629351,34.9323118 35.1180642,28.2958842 L35.1180642,28.2958842 L35.1180642,28.2958842 Z" id="Shape" fill="#A0D468"></path>
                                    <path d="M66.096503,12.7650515 C79.1498326,5.22519163 94.9695463,8.1924057 94.9695463,8.1924057 C94.9695463,8.1924057 89.627958,23.3836975 76.5752315,30.9241605 C63.521902,38.4640203 47.702188,35.4974093 47.702188,35.4974093 C47.702188,35.4974093 53.0437765,20.3049113 66.096503,12.7650515 L66.096503,12.7650515 L66.096503,12.7650515 Z" id="Shape" fill="#6D8F52"></path>
                                    <path d="M64.8215659,8.56210128 C77.8893697,-0.804525121 94.9990983,0.690540676 94.9990983,0.690540676 C94.9990983,0.690540676 90.9179722,17.3714704 77.8489623,26.7380968 C64.7805556,36.1047232 47.6720334,34.6096574 47.6720334,34.6096574 C47.6720334,34.6096574 51.753159,17.9287277 64.8215659,8.56210128 L64.8215659,8.56210128 L64.8215659,8.56210128 Z" id="Shape" fill="#A0D468"></path>
                                </g>
                                <path d="M168.904623,92.3703618 L168.98322,92.606156 C169.088019,98.7630285 167.208235,103.642604 163.343816,107.245029 C159.479395,110.847455 154.115137,112.64864 147.250879,112.64864 C140.360422,112.64864 134.766922,110.43482 130.470211,106.007111 C126.1735,101.579403 124.025177,95.8811068 124.025177,88.9120513 L124.025177,77.5546432 C124.025177,70.6117868 126.121102,64.9134903 130.313015,60.4595825 C134.504928,56.0056748 139.954333,53.7787543 146.661395,53.7787543 C153.735248,53.7787543 159.263251,55.5930395 163.245568,59.2216644 C167.227885,62.8502892 169.166616,67.7953626 169.061818,74.0570328 L168.98322,74.2928269 L157.822308,74.2928269 C157.822308,70.520105 156.918439,67.6316582 155.110677,65.6273996 C153.302915,63.6231412 150.486515,62.621027 146.661395,62.621027 C143.229266,62.621027 140.504563,64.0161271 138.487204,66.8063694 C136.469846,69.5966115 135.461182,73.1531346 135.461182,77.4760449 L135.461182,88.9120513 C135.461182,93.2873604 136.522244,96.8700826 138.6444,99.6603248 C140.766556,102.450567 143.635354,103.845667 147.250879,103.845667 C150.840205,103.845667 153.49286,102.882851 155.208925,100.957191 C156.924989,99.0315313 157.783009,96.1692835 157.783009,92.3703618 L168.904623,92.3703618 L168.904623,92.3703618 Z M192.32682,70.1467835 C194.26558,69.059506 196.413903,68.5158754 198.771855,68.5158754 C203.199563,68.5158754 206.677489,69.9895728 209.205736,72.9370114 C211.733984,75.8844509 212.998088,80.4365377 212.998088,86.5934103 L212.998088,112.199997 L201.522783,112.199997 L201.522783,86.5148127 C201.522783,83.2136809 200.939855,80.8754145 199.773979,79.499943 C198.608103,78.1244715 196.872415,77.4367457 194.566863,77.4367457 C192.994895,77.4367457 191.606345,77.718386 190.40117,78.2816745 C189.195994,78.844963 188.20043,79.6374843 187.414447,80.6592628 L187.414447,112.199997 L175.939142,112.199997 L175.939142,54.5999985 L187.414447,54.5999985 L187.414447,74.685817 C188.750619,72.747057 190.388061,71.2340613 192.32682,70.1467835 Z M246.598724,111.823362 C246.179533,110.853982 245.819296,109.832219 245.518002,108.758041 C245.216709,107.683863 245.000566,106.583502 244.869569,105.456925 C243.690593,107.526682 242.138299,109.242722 240.212639,110.605093 C238.286979,111.967465 235.988011,112.64864 233.315666,112.64864 C228.861759,112.64864 225.429681,111.502432 223.019331,109.209979 C220.608981,106.917526 219.403824,103.793288 219.403824,99.8371702 C219.403824,95.6714566 221.008516,92.4424217 224.21795,90.1499694 C227.427384,87.8575164 232.110467,86.7113077 238.267339,86.7113077 L244.673074,86.7113077 L244.673074,83.3315947 C244.673074,81.288037 244.135994,79.7029936 243.061816,78.5764167 C241.987638,77.4498397 240.402595,76.8865598 238.306638,76.8865598 C236.446476,76.8865598 235.012078,77.3384943 234.003398,78.2423754 C232.994719,79.1462564 232.490387,80.3972621 232.490387,81.9954288 L221.408073,81.9561296 L221.368774,81.7203362 C221.185377,78.13101 222.744222,75.0329708 226.045353,72.4261246 C229.346485,69.8192788 233.68243,68.5158754 239.053318,68.5158754 C244.136014,68.5158754 248.262366,69.8061793 251.4325,72.3868262 C254.602635,74.9674722 256.187678,78.641891 256.187678,83.4101923 L256.187678,100.97684 C256.187678,102.967999 256.338323,104.841233 256.639616,106.596596 C256.94091,108.35196 257.419043,110.094197 258.07403,111.823362 L246.598724,111.823362 L246.598724,111.823362 Z M236.105895,104.160059 C238.123253,104.160059 239.917889,103.662276 241.489856,102.666697 C243.061823,101.671118 244.122885,100.518359 244.673074,99.208386 L244.673074,93.195641 L238.267339,93.195641 C235.830789,93.195641 233.983755,93.8047692 232.726182,95.0230442 C231.468608,96.2413184 230.83983,97.7150157 230.83983,99.4441802 C230.83983,100.858951 231.311413,101.99861 232.254593,102.863192 C233.197774,103.727774 234.481528,104.160059 236.105895,104.160059 L236.105895,104.160059 L236.105895,104.160059 Z M278.509504,57.887623 L278.509504,69.3018552 L285.66192,69.3018552 L285.66192,77.3581481 L278.509504,77.3581481 L278.509504,99.011891 C278.509504,100.662457 278.850092,101.841415 279.531278,102.548801 C280.212464,103.256186 281.129431,103.609873 282.282207,103.609873 C282.884795,103.609873 283.402226,103.577124 283.834517,103.511625 C284.266808,103.446127 284.77114,103.334781 285.347528,103.177584 L286.330003,111.469671 C285.177227,111.862663 284.050667,112.157402 282.95029,112.353898 C281.849912,112.550394 280.657855,112.64864 279.374082,112.64864 C275.417964,112.64864 272.372323,111.56138 270.237067,109.386825 C268.101811,107.212269 267.034199,103.767093 267.034199,99.0511902 L267.034199,77.3581481 L260.824959,77.3581481 L260.824959,69.3018552 L267.034199,69.3018552 L267.034199,58.887623 L278.509504,58.887623 L278.509504,57.887623 Z M337.850978,104.002863 C336.148014,106.256016 333.495358,108.260245 329.892933,110.015608 C326.290507,111.770972 321.73842,112.64864 316.236534,112.64864 C309.241279,112.64864 303.529883,110.474118 299.102175,106.125009 C294.674467,101.775898 292.460645,96.13 292.460645,89.1871439 L292.460645,77.2402507 C292.460645,70.3235943 294.589319,64.6842457 298.846731,60.3220361 C303.104143,55.9598264 308.586297,53.7787543 315.293358,53.7787543 C322.262414,53.7787543 327.600473,55.4751437 331.307697,58.8679735 C335.01492,62.2608032 336.907802,66.7211939 336.9864,72.2492792 L336.907803,72.4850734 L326.10058,72.4850734 C325.890985,69.4459363 324.92162,67.0421722 323.192455,65.2737088 C321.463291,63.5052454 318.935081,62.621027 315.60775,62.621027 C312.097023,62.621027 309.267524,63.9768286 307.119168,66.6884724 C304.970813,69.4001162 303.896651,72.8911417 303.896651,77.1616531 L303.896651,89.1871439 C303.896651,93.5362536 305.010112,97.0665776 307.237066,99.7782215 C309.464019,102.489865 312.463812,103.845667 316.236534,103.845667 C318.908879,103.845667 321.057202,103.570577 322.681568,103.020388 C324.305934,102.470199 325.537291,101.789024 326.375673,100.97684 L326.375673,90.3661132 L316.236534,90.3661132 L316.236534,82.4277179 L337.850978,82.4277179 L337.850978,104.002863 L337.850978,104.002863 Z M369.132974,79.1659017 L364.927982,79.0480043 C363.225017,79.0480043 361.823368,79.4016923 360.72299,80.1090776 C359.622613,80.816463 358.784243,81.8120271 358.207855,83.0958006 L358.207855,111.823362 L346.771849,111.823362 L346.771849,69.3018552 L357.421875,69.3018552 L357.932762,75.5896937 C358.928341,73.3627393 360.218645,71.6270513 361.803712,70.3825774 C363.388779,69.1381032 365.216165,68.5158754 367.285922,68.5158754 C367.862309,68.5158754 368.39284,68.5617238 368.877531,68.6534219 C369.36222,68.7451199 369.853453,68.856466 370.351243,68.9874632 L369.132974,79.1659017 L369.132974,79.1659017 Z M399.904083,111.823362 C399.484891,110.853982 399.124654,109.832219 398.82336,108.758041 C398.522067,107.683863 398.305925,106.583502 398.174927,105.456925 C396.995952,107.526682 395.443657,109.242722 393.517997,110.605093 C391.592337,111.967465 389.293369,112.64864 386.621024,112.64864 C382.167116,112.64864 378.735039,111.502432 376.324689,109.209979 C373.914339,106.917526 372.709182,103.793288 372.709182,99.8371702 C372.709182,95.6714566 374.313875,92.4424217 377.523308,90.1499694 C380.732741,87.8575164 385.415824,86.7113077 391.572697,86.7113077 L397.978432,86.7113077 L397.978432,83.3315947 C397.978432,81.288037 397.441351,79.7029936 396.367174,78.5764167 C395.292996,77.4498397 393.707952,76.8865598 391.611996,76.8865598 C389.751834,76.8865598 388.317436,77.3384943 387.308756,78.2423754 C386.300078,79.1462564 385.795746,80.3972621 385.795746,81.9954288 L374.71343,81.9561296 L374.674131,81.7203362 C374.490735,78.13101 376.04958,75.0329708 379.350711,72.4261246 C382.651843,69.8192788 386.987788,68.5158754 392.358677,68.5158754 C397.441371,68.5158754 401.567724,69.8061793 404.737858,72.3868262 C407.907993,74.9674722 409.493036,78.641891 409.493036,83.4101923 L409.493036,100.97684 C409.493036,102.967999 409.643681,104.841233 409.944974,106.596596 C410.246269,108.35196 410.724401,110.094197 411.379387,111.823362 L399.904083,111.823362 L399.904083,111.823362 Z M389.411252,104.160059 C391.42861,104.160059 393.223246,103.662276 394.795214,102.666697 C396.367182,101.671118 397.428244,100.518359 397.978432,99.208386 L397.978432,93.195641 L391.572697,93.195641 C389.136147,93.195641 387.289113,93.8047692 386.031539,95.0230442 C384.773965,96.2413184 384.145188,97.7150157 384.145188,99.4441802 C384.145188,100.858951 384.616771,101.99861 385.559952,102.863192 C386.503132,103.727774 387.786886,104.160059 389.411252,104.160059 L389.411252,104.160059 L389.411252,104.160059 Z M456.533927,91.7415783 C456.533927,98.029448 455.079878,103.085868 452.171739,106.910988 C449.263599,110.736109 445.202744,112.64864 439.989052,112.64864 C437.762098,112.64864 435.784068,112.236005 434.054905,111.410722 C432.32574,110.585439 430.845493,109.373733 429.614119,107.775566 L429.614119,128.171741 L418.178113,128.171741 L418.178113,69.3018552 L428.513747,69.3018552 L429.18183,74.3321261 C430.439404,72.4719644 431.9524,71.0375656 433.720863,70.0288865 C435.489326,69.0202074 437.552503,68.5158754 439.910454,68.5158754 C445.176545,68.5158754 449.263599,70.5725019 452.171739,74.685817 C455.079878,78.7991318 456.533927,84.2092386 456.533927,90.9162991 L456.533927,91.7415783 L456.533927,91.7415783 Z M445.058622,90.9162991 C445.058622,86.9077828 444.390546,83.6590983 443.054373,81.1701503 C441.718201,78.6812016 439.674674,77.4367457 436.923731,77.4367457 C435.194566,77.4367457 433.720869,77.790433 432.502595,78.4978191 C431.28432,79.2052044 430.321504,80.2138682 429.614119,81.5238412 L429.614119,100.151562 C430.321504,101.356737 431.28432,102.273704 432.502595,102.902491 C433.720869,103.531278 435.220766,103.845667 437.002329,103.845667 C439.779472,103.845667 441.816449,102.758406 443.113322,100.583851 C444.410194,98.4092956 445.058622,95.461901 445.058622,91.7415783 L445.058622,90.9162991 L445.058622,90.9162991 Z M482.431961,112.64864 C476.301288,112.64864 471.402063,110.683711 467.734138,106.753792 C464.066214,102.823874 462.23228,97.8329516 462.23228,91.7808775 L462.23228,90.2089174 C462.23228,83.8948483 463.967968,78.694334 467.439396,74.6072187 C470.910824,70.5201034 475.567708,68.4896759 481.410187,68.5158754 C487.147868,68.5158754 491.601709,70.2450137 494.771843,73.7033419 C497.941978,77.1616702 499.527021,81.8382037 499.527021,87.7330812 L499.527021,93.9816204 L474.139874,93.9816204 L474.061276,94.2174145 C474.270872,97.0207564 475.207488,99.3262742 476.871154,101.134037 C478.534819,102.941799 480.794489,103.845667 483.650229,103.845667 C486.191577,103.845667 488.300601,103.590226 489.977367,103.079337 C491.654132,102.568447 493.488066,101.762826 495.479225,100.662449 L498.583845,107.736267 C496.854681,109.151038 494.588462,110.323446 491.78512,111.253526 C488.981778,112.183608 485.86409,112.64864 482.431961,112.64864 L482.431961,112.64864 L482.431961,112.64864 Z M481.410187,77.3581481 C479.288031,77.3581481 477.611291,78.1703191 476.379916,79.7946852 C475.148542,81.419052 474.388769,83.5542756 474.100575,86.2004209 L474.218472,86.396916 L488.28751,86.396916 L488.28751,85.3751417 C488.28751,82.9385926 487.71768,80.993312 486.578004,79.5392422 C485.438328,78.0851724 483.715739,77.3581481 481.410187,77.3581481 L481.410187,77.3581481 L481.410187,77.3581481 Z" id="ChatGrape-Copy" fill="#111111"></path>
                            </g>
                        </g>
                    </g>
                </g>
            </g>
        </g>
    </g>
</svg>