<svg id="Layer_1" xmlns="http://www.w3.org/2000/svg" viewBox="0 0 500 200"><style>.st0{fill:#fce01a}.st0,.st1,.st2,.st3,.st4,.st5{fill-rule:evenodd;clip-rule:evenodd}.st1{fill:#31acff}.st2{fill:#fefefe}.st3{fill:#3edd46}.st4{fill:#027fd3}.st5{fill:#0194c1}.st6{fill:#333}</style><circle class="st0" cx="58.4" cy="100.1" r="48.5"/><path class="st1" d="M61.2 148.5h-6.1c-.1-.2-.3-.1-.4-.1-1.9-.1-3.8-.4-5.7-.8-8.3-1.7-15.6-5.3-22-10.9-3.3-2.9-6.2-6.2-8.5-9.9h15c.5 0 .4-.3.4-.6v-7.6c0-.5-.1-.7-.7-.7H18.6c-.5 0-.7-.1-.7-.7V82.5c0-.6.2-.7.7-.7h11.7c.4 0 .6-.1.6-.6.3-3.5 1.9-6.2 4.9-8.1 6.3-3.8 14.6.1 15.2 8 0 .5.2.7.7.7h14.5c.5 0 .7.1.7.7v34.7c0 .6-.2.7-.7.7H51.7c-.5 0-.7.2-.6.7v7.5c0 .5.1.6.7.6H70v8.5c.1.8.1 1.5 0 2.3v9.5c-1.8.5-3.7.8-5.5 1.1-1.2.2-2.2.2-3.3.4zm-19.6-41.9H30.2c-1 0-1.7.7-1.8 1.6-.1 1 .5 1.8 1.5 2 .2 0 .5.1.7.2 1.3.5 2.5.9 3.8 1.3 4 1.1 8 1.5 12.2.7 2.5-.5 4.8-1.5 7.2-2.3.8-.3 1.2-1.2 1-2-.2-.9-.9-1.4-1.8-1.4-3.8-.1-7.6-.1-11.4-.1zM41 82h7.9c.8 0 .8 0 .7-.8V81c-.6-4.4-4-7.5-8.4-7.7-4.5-.2-8.6 3.5-8.8 7.9 0 .6.1.8.7.7 2.6.1 5.3.1 7.9.1zm12.3 18.9c2.4 0 4.4-1.9 4.4-4.3 0-2.5-1.9-4.4-4.4-4.4-2.4 0-4.4 1.9-4.4 4.4 0 2.3 2 4.3 4.4 4.3zM36 96.6c0-2.4-1.9-4.4-4.4-4.4-2.4 0-4.4 1.9-4.4 4.4 0 2.4 1.9 4.4 4.4 4.4 2.4-.1 4.4-2 4.4-4.4z"/><path class="st2" d="M41.6 106.6H53c.9 0 1.6.6 1.8 1.4.2.8-.3 1.7-1 2-2.4.8-4.7 1.8-7.2 2.3-4.1.9-8.2.5-12.2-.7-1.3-.4-2.6-.8-3.8-1.3-.2-.1-.4-.2-.7-.2-1-.2-1.6-1-1.5-2 .1-.9.8-1.6 1.8-1.6 3.7.1 7.6.1 11.4.1z"/><path class="st3" d="M41 82h-8c-.6 0-.7-.2-.7-.7.3-4.4 4.4-8.1 8.8-7.9 4.4.2 7.8 3.3 8.4 7.7v.2c.1.8.1.8-.7.8-2.5-.1-5.1-.1-7.8-.1z"/><path class="st4" d="M69.9 126.8c.7-.7 1.3-1.5 2-2.2.2.1.4.3.6.4 2.4 1.7 4.8 3.3 7.2 5-2.3 2.8-4.8 5.3-7.8 7.3-.6-.7-1.3-1.3-1.9-2v-7.7c-.1-.3-.1-.5-.1-.8z"/><path class="st2" d="M53.3 100.9c-2.4 0-4.4-1.9-4.4-4.4 0-2.5 1.9-4.4 4.4-4.4 2.5 0 4.4 1.9 4.4 4.4 0 2.4-2 4.3-4.4 4.4zM36 96.6c0 2.4-2 4.4-4.4 4.4-2.4 0-4.4-2-4.4-4.4 0-2.4 2-4.4 4.4-4.4 2.4 0 4.4 1.9 4.4 4.4zm33.9 38.7c.6.7 1.3 1.3 1.9 2-.5.3-.9.6-1.4.9-.1-.3-.3-.5-.5-.6.1-.8.1-1.5 0-2.3z"/><path class="st5" d="M69.9 137.6c.2.2.4.4.5.6-.2.1-.4.2-.5.3v-.9z"/><path class="st1" d="M83.2 97c-.5-.3-1-.7-1.5-1-2.7-2.1-4.2-4.9-5.2-8.2-.5-1.7-.7-3.4-.8-5.2 0-.5.1-.6.6-.6h4.6c.4 0 .5.1.5.5 0 2.3.4 4.4 1.4 6.5.5.9 1.1 1.7 1.9 2.4 1.8 1.4 4.2 1.2 5.7-.6 1.3-1.6 1.9-3.5 2.2-5.4.2-.9.3-1.8.3-2.7 0-.3.1-.4.5-.4h4.9c.2 0 .5 0 .5.3-.3 5-1.7 9.6-5.5 13.1-.5.4-1 .8-1.5 1.1-.2.1-.4.2-.4.4-.2 0-.5.1-.7.2-1.8.8-3.6 1-5.5.5-.7-.4-1.3-.7-2-.9z"/><path class="st4" d="M72.9 123.4c1.8-2.3 3.3-4.8 4.7-7.3 1.1.5 2.2 1 3.4 1.5 1.7.8 3.4 1.6 5.1 2.3-.3 1-.9 1.9-1.4 2.7-1.2 2.1-2.5 4.2-4 6.1-2.6-1.7-5.2-3.5-7.8-5.3zm17.2-14.6c-.4 2.3-1.2 4.4-2 6.6-.4 1.1-.8 2.1-1.3 3.1-1.5-.7-3.1-1.5-4.6-2.2-1.3-.6-2.5-1.2-3.8-1.7 0-.1 0-.2.1-.3 1.2-2.5 2.2-5.1 3-7.7 0-.1.1-.1.1-.2 2.8.8 5.6 1.6 8.5 2.4zM83.2 97c.7.2 1.3.5 2 .7 1.9.5 3.8.3 5.5-.5.2-.1.4-.2.7-.2.1 1.4 0 2.9-.1 4.3-.2 2-.4 4-.9 6-2.8-.8-5.7-1.6-8.5-2.4.6-2.6 1.1-5.2 1.3-7.9z"/><path class="st2" d="M72.9 123.4l7.8 5.4c-.3.4-.7.8-1 1.3-2.4-1.7-4.8-3.3-7.2-5-.2-.1-.4-.3-.6-.4.3-.5.7-.9 1-1.3zm5.5-8.8c1.3.5 2.5 1.1 3.8 1.7 1.6.7 3.1 1.4 4.6 2.2-.2.5-.5 1-.7 1.5-1.8-.7-3.4-1.6-5.1-2.3-1.1-.5-2.2-1-3.4-1.5.3-.6.5-1.1.8-1.6zm3.5-9.7c2.8.8 5.7 1.6 8.5 2.4l-.3 1.5c-2.9-.8-5.7-1.6-8.6-2.4.1-.5.3-1 .4-1.5z"/><path class="st6" d="M164.9 99.4c-1.2-7.3-5.2-11.7-13-11.7-11.4 0-15.1 10.9-15.1 20.7 0 9.4 2.3 21.1 15 21.1 6.2 0 11.5-4.6 13.1-13h8.9c-.9 8.7-6.3 21-22.3 21-15.4 0-24.5-11.6-24.5-27.5 0-17 8.2-30.5 26.3-30.5 14.4 0 19.8 10.5 20.6 20h-9zm27.6 36.5h-9.2V60.5h9.2v75.4zm57.7-17.3c-.3 2.6-2.8 10.4-9.8 15-2.5 1.7-6.1 3.8-14.9 3.8-15.4 0-24.5-11.6-24.5-27.5 0-17 8.2-30.5 26.3-30.5 15.8 0 23.6 12.6 23.6 32h-40.1c0 11.4 5.3 18 15.9 18 8.7 0 13.8-6.7 14.2-10.8h9.3zm-8.8-14.5c-.5-8.5-4.1-16.4-15.3-16.4-8.5 0-15.2 7.9-15.2 16.4h30.5zm18.9-6.4c.4-13.1 9.1-18.3 22.7-18.3 4.4 0 20.4 1.3 20.4 15.3v31.6c0 2.3 1.2 3.3 3 3.3.8 0 2-.2 3-.4v6.7c-1.6.4-2.9 1-5 1-8.2 0-9.4-4.2-9.8-8.4-3.6 3.9-9.1 8.9-19.8 8.9-10.1 0-17.2-6.4-17.2-15.8 0-4.6 1.4-15.3 16.7-17.2l15.2-1.9c2.2-.2 4.8-1 4.8-6.5 0-5.8-4.2-8.9-12.9-8.9-10.5 0-12 6.4-12.6 10.6h-8.5zm33.7 10.1c-1.5 1.2-3.8 2-15.2 3.5-4.5.6-11.8 2-11.8 8.9 0 6 3 9.5 10 9.5 8.6 0 17-5.6 17-12.9v-9zm31.3 28.1h-9.2V81h8.7v9.1h.2c3.7-6.4 8.5-10.7 15.4-10.7 1.2 0 1.7.1 2.4.3v9.5h-3.5c-8.6 0-14.1 6.7-14.1 14.7v32z"/><path class="st6" d="M370.8 135.9H355v-62h-22.8V60.5h61.3v13.3h-22.8v62.1z"/><path class="st6" d="M430.1 124.9c0 6.6 1.5 8.1 3.3 8.7v2.2h-15.8c-.8-2.6-1-3.5-1.4-6.6-3.4 3.5-8.1 8.1-18 8.1-8.4 0-17-4.7-17-16.3 0-10.9 6.9-16.5 16.3-17.8l13.2-2c2.3-.3 5.1-1.3 5.1-4.4 0-6.2-5.9-6.5-9.7-6.5-7.3 0-8.6 4.5-9 7.8h-14.2c1.7-17.1 13.5-19.5 25-19.5 7.9 0 22.2 2.4 22.2 16.2v30.1zm-14.4-16.2c-1.5 1.2-3.9 2.1-10 3-5.5.9-10 2.3-10 8.4 0 5.1 4 6.7 6.8 6.7 6.5 0 13.1-4.2 13.1-11v-7.1zm74.7 27.2h-18.2l-9.7-16.8-9.7 16.8h-17.7l19-28.4L435.9 80h17.8l9.4 16.3 9.2-16.3h17.3l-18.4 27.4 19.2 28.5z"/></svg>