<?xml version="1.0" encoding="utf-8"?>
<!-- Generator: Adobe Illustrator 20.1.0, SVG Export Plug-In . SVG Version: 6.00 Build 0)  -->
<svg version="1.1" id="Layer_1" xmlns="http://www.w3.org/2000/svg" xmlns:xlink="http://www.w3.org/1999/xlink" x="0px" y="0px"
	 viewBox="0 0 500 200" style="enable-background:new 0 0 500 200;" xml:space="preserve">
<style type="text/css">
	.st0{fill-rule:evenodd;clip-rule:evenodd;fill:#FCE01A;}
	.st1{fill-rule:evenodd;clip-rule:evenodd;fill:#31ACFF;}
	.st2{fill-rule:evenodd;clip-rule:evenodd;fill:#FEFEFE;}
	.st3{fill-rule:evenodd;clip-rule:evenodd;fill:#3EDD46;}
	.st4{fill-rule:evenodd;clip-rule:evenodd;fill:#027FD3;}
	.st5{fill-rule:evenodd;clip-rule:evenodd;fill:#0194C1;}
	.st6{fill:#333333;}
</style>
<g>
	<g>
		<circle class="st0" cx="58.4" cy="100.1" r="48.5"/>
	</g>
	<g>
		<path class="st1" d="M61.2,148.5c-2,0-4.1,0-6.1,0c-0.1-0.2-0.3-0.1-0.4-0.1c-1.9-0.1-3.8-0.4-5.7-0.8c-8.3-1.7-15.6-5.3-22-10.9
			c-3.3-2.9-6.2-6.2-8.5-9.9c1.1,0,2.2,0,3.3,0c3.9,0,7.8,0,11.7,0c0.5,0,0.4-0.3,0.4-0.6c0-2.5,0-5,0-7.6c0-0.5-0.1-0.7-0.7-0.7
			c-4.9,0-9.7,0-14.6,0c-0.5,0-0.7-0.1-0.7-0.7c0-11.6,0-23.1,0-34.7c0-0.6,0.2-0.7,0.7-0.7c3.9,0,7.8,0,11.7,0
			c0.4,0,0.6-0.1,0.6-0.6c0.3-3.5,1.9-6.2,4.9-8.1c6.3-3.8,14.6,0.1,15.2,8c0,0.5,0.2,0.7,0.7,0.7c4.8,0,9.7,0,14.5,0
			c0.5,0,0.7,0.1,0.7,0.7c0,11.6,0,23.1,0,34.7c0,0.6-0.2,0.7-0.7,0.7c-4.8,0-9.7,0-14.5,0c-0.5,0-0.7,0.2-0.6,0.7c0,2.5,0,5,0,7.5
			c0,0.5,0.1,0.6,0.7,0.6c5.8,0,11.7,0,17.5,0c0.2,0,0.4,0,0.7,0c0,0.3,0,0.6,0,0.8c0,2.6,0,5.1,0,7.7c0.1,0.8,0.1,1.5,0,2.3
			c0,0.3,0,0.7,0,1c0,1.9,0,3.7,0,5.6c0,1,0,1.9,0,2.9c-1.8,0.5-3.7,0.8-5.5,1.1C63.3,148.3,62.3,148.3,61.2,148.5z M41.6,106.6
			c-3.8,0-7.6,0-11.4,0c-1,0-1.7,0.7-1.8,1.6c-0.1,1,0.5,1.8,1.5,2c0.2,0,0.5,0.1,0.7,0.2c1.3,0.5,2.5,0.9,3.8,1.3
			c4,1.1,8,1.5,12.2,0.7c2.5-0.5,4.8-1.5,7.2-2.3c0.8-0.3,1.2-1.2,1-2c-0.2-0.9-0.9-1.4-1.8-1.4C49.2,106.6,45.4,106.6,41.6,106.6z
			 M41,82c2.6,0,5.3,0,7.9,0c0.8,0,0.8,0,0.7-0.8c0-0.1,0-0.1,0-0.2c-0.6-4.4-4-7.5-8.4-7.7c-4.5-0.2-8.6,3.5-8.8,7.9
			c0,0.6,0.1,0.8,0.7,0.7C35.7,82,38.4,82,41,82z M53.3,100.9c2.4,0,4.4-1.9,4.4-4.3c0-2.5-1.9-4.4-4.4-4.4c-2.4,0-4.4,1.9-4.4,4.4
			C48.9,98.9,50.9,100.9,53.3,100.9z M36,96.6c0-2.4-1.9-4.4-4.4-4.4c-2.4,0-4.4,1.9-4.4,4.4c0,2.4,1.9,4.4,4.4,4.4
			C34,100.9,36,99,36,96.6z"/>
		<path class="st2" d="M41.6,106.6c3.8,0,7.6,0,11.4,0c0.9,0,1.6,0.6,1.8,1.4c0.2,0.8-0.3,1.7-1,2c-2.4,0.8-4.7,1.8-7.2,2.3
			c-4.1,0.9-8.2,0.5-12.2-0.7c-1.3-0.4-2.6-0.8-3.8-1.3c-0.2-0.1-0.4-0.2-0.7-0.2c-1-0.2-1.6-1-1.5-2c0.1-0.9,0.8-1.6,1.8-1.6
			C33.9,106.6,37.8,106.6,41.6,106.6z"/>
		<path class="st3" d="M41,82c-2.7,0-5.3,0-8,0c-0.6,0-0.7-0.2-0.7-0.7c0.3-4.4,4.4-8.1,8.8-7.9c4.4,0.2,7.8,3.3,8.4,7.7
			c0,0.1,0,0.1,0,0.2c0.1,0.8,0.1,0.8-0.7,0.8C46.3,82,43.7,82,41,82z"/>
		<path class="st4" d="M69.9,126.8c0.7-0.7,1.3-1.5,2-2.2c0.2,0.1,0.4,0.3,0.6,0.4c2.4,1.7,4.8,3.3,7.2,5c-2.3,2.8-4.8,5.3-7.8,7.3
			c-0.6-0.7-1.3-1.3-1.9-2c0-2.6,0-5.1,0-7.7C69.9,127.3,69.9,127.1,69.9,126.8z"/>
		<path class="st2" d="M53.3,100.9c-2.4,0-4.4-1.9-4.4-4.4c0-2.5,1.9-4.4,4.4-4.4c2.5,0,4.4,1.9,4.4,4.4
			C57.7,98.9,55.7,100.8,53.3,100.9z"/>
		<path class="st2" d="M36,96.6c0,2.4-2,4.4-4.4,4.4c-2.4,0-4.4-2-4.4-4.4c0-2.4,2-4.4,4.4-4.4C34,92.2,36,94.1,36,96.6z"/>
		<path class="st2" d="M69.9,135.3c0.6,0.7,1.3,1.3,1.9,2c-0.5,0.3-0.9,0.6-1.4,0.9c-0.1-0.3-0.3-0.5-0.5-0.6
			C70,136.8,70,136.1,69.9,135.3z"/>
		<path class="st5" d="M69.9,137.6c0.2,0.2,0.4,0.4,0.5,0.6c-0.2,0.1-0.4,0.2-0.5,0.3C69.9,138.3,69.9,137.9,69.9,137.6z"/>
		<path class="st1" d="M83.2,97c-0.5-0.3-1-0.7-1.5-1c-2.7-2.1-4.2-4.9-5.2-8.2c-0.5-1.7-0.7-3.4-0.8-5.2c0-0.5,0.1-0.6,0.6-0.6
			c1.5,0,3.1,0,4.6,0c0.4,0,0.5,0.1,0.5,0.5c0,2.3,0.4,4.4,1.4,6.5c0.5,0.9,1.1,1.7,1.9,2.4c1.8,1.4,4.2,1.2,5.7-0.6
			c1.3-1.6,1.9-3.5,2.2-5.4c0.2-0.9,0.3-1.8,0.3-2.7c0-0.3,0.1-0.4,0.5-0.4c1.6,0,3.3,0,4.9,0c0.2,0,0.5,0,0.5,0.3
			c-0.3,5-1.7,9.6-5.5,13.1c-0.5,0.4-1,0.8-1.5,1.1c-0.2,0.1-0.4,0.2-0.4,0.4c-0.2,0-0.5,0.1-0.7,0.2c-1.8,0.8-3.6,1-5.5,0.5
			C84.5,97.5,83.9,97.2,83.2,97z"/>
		<path class="st4" d="M72.9,123.4c1.8-2.3,3.3-4.8,4.7-7.3c1.1,0.5,2.2,1,3.4,1.5c1.7,0.8,3.4,1.6,5.1,2.3c-0.3,1-0.9,1.9-1.4,2.7
			c-1.2,2.1-2.5,4.2-4,6.1C78.1,127,75.5,125.2,72.9,123.4z"/>
		<path class="st4" d="M90.1,108.8c-0.4,2.3-1.2,4.4-2,6.6c-0.4,1.1-0.8,2.1-1.3,3.1c-1.5-0.7-3.1-1.5-4.6-2.2
			c-1.3-0.6-2.5-1.2-3.8-1.7c0-0.1,0-0.2,0.1-0.3c1.2-2.5,2.2-5.1,3-7.7c0-0.1,0.1-0.1,0.1-0.2C84.4,107.2,87.2,108,90.1,108.8z"/>
		<path class="st4" d="M83.2,97c0.7,0.2,1.3,0.5,2,0.7c1.9,0.5,3.8,0.3,5.5-0.5c0.2-0.1,0.4-0.2,0.7-0.2c0.1,1.4,0,2.9-0.1,4.3
			c-0.2,2-0.4,4-0.9,6c-2.8-0.8-5.7-1.6-8.5-2.4C82.5,102.3,83,99.7,83.2,97z"/>
		<path class="st2" d="M72.9,123.4c2.6,1.8,5.2,3.6,7.8,5.4c-0.3,0.4-0.7,0.8-1,1.3c-2.4-1.7-4.8-3.3-7.2-5
			c-0.2-0.1-0.4-0.3-0.6-0.4C72.2,124.2,72.6,123.8,72.9,123.4z"/>
		<path class="st2" d="M78.4,114.6c1.3,0.5,2.5,1.1,3.8,1.7c1.6,0.7,3.1,1.4,4.6,2.2c-0.2,0.5-0.5,1-0.7,1.5
			c-1.8-0.7-3.4-1.6-5.1-2.3c-1.1-0.5-2.2-1-3.4-1.5C77.9,115.6,78.1,115.1,78.4,114.6z"/>
		<path class="st2" d="M81.9,104.9c2.8,0.8,5.7,1.6,8.5,2.4c-0.1,0.5-0.2,1-0.3,1.5c-2.9-0.8-5.7-1.6-8.6-2.4
			C81.6,105.9,81.8,105.4,81.9,104.9z"/>
	</g>
	<g>
		<path class="st6" d="M164.9,99.4c-1.2-7.3-5.2-11.7-13-11.7c-11.4,0-15.1,10.9-15.1,20.7c0,9.4,2.3,21.1,15,21.1
			c6.2,0,11.5-4.6,13.1-13h8.9c-0.9,8.7-6.3,21-22.3,21c-15.4,0-24.5-11.6-24.5-27.5c0-17,8.2-30.5,26.3-30.5
			c14.4,0,19.8,10.5,20.6,20H164.9z"/>
		<path class="st6" d="M192.5,135.9h-9.2V60.5h9.2V135.9z"/>
		<path class="st6" d="M250.2,118.6c-0.3,2.6-2.8,10.4-9.8,15c-2.5,1.7-6.1,3.8-14.9,3.8c-15.4,0-24.5-11.6-24.5-27.5
			c0-17,8.2-30.5,26.3-30.5c15.8,0,23.6,12.6,23.6,32h-40.1c0,11.4,5.3,18,15.9,18c8.7,0,13.8-6.7,14.2-10.8H250.2z M241.4,104.1
			c-0.5-8.5-4.1-16.4-15.3-16.4c-8.5,0-15.2,7.9-15.2,16.4H241.4z"/>
		<path class="st6" d="M260.3,97.7c0.4-13.1,9.1-18.3,22.7-18.3c4.4,0,20.4,1.3,20.4,15.3v31.6c0,2.3,1.2,3.3,3,3.3
			c0.8,0,2-0.2,3-0.4v6.7c-1.6,0.4-2.9,1-5,1c-8.2,0-9.4-4.2-9.8-8.4c-3.6,3.9-9.1,8.9-19.8,8.9c-10.1,0-17.2-6.4-17.2-15.8
			c0-4.6,1.4-15.3,16.7-17.2l15.2-1.9c2.2-0.2,4.8-1,4.8-6.5c0-5.8-4.2-8.9-12.9-8.9c-10.5,0-12,6.4-12.6,10.6H260.3z M294,107.8
			c-1.5,1.2-3.8,2-15.2,3.5c-4.5,0.6-11.8,2-11.8,8.9c0,6,3,9.5,10,9.5c8.6,0,17-5.6,17-12.9V107.8z"/>
		<path class="st6" d="M325.3,135.9h-9.2V81h8.7v9.1h0.2c3.7-6.4,8.5-10.7,15.4-10.7c1.2,0,1.7,0.1,2.4,0.3v9.5h-3.5
			c-8.6,0-14.1,6.7-14.1,14.7V135.9z"/>
		<path class="st6" d="M370.8,135.9H355v-62h-22.8V60.5h61.3v13.3h-22.8V135.9z"/>
		<path class="st6" d="M430.1,124.9c0,6.6,1.5,8.1,3.3,8.7v2.2h-15.8c-0.8-2.6-1-3.5-1.4-6.6c-3.4,3.5-8.1,8.1-18,8.1
			c-8.4,0-17-4.7-17-16.3c0-10.9,6.9-16.5,16.3-17.8l13.2-2c2.3-0.3,5.1-1.3,5.1-4.4c0-6.2-5.9-6.5-9.7-6.5c-7.3,0-8.6,4.5-9,7.8
			h-14.2c1.7-17.1,13.5-19.5,25-19.5c7.9,0,22.2,2.4,22.2,16.2V124.9z M415.7,108.7c-1.5,1.2-3.9,2.1-10,3c-5.5,0.9-10,2.3-10,8.4
			c0,5.1,4,6.7,6.8,6.7c6.5,0,13.1-4.2,13.1-11V108.7z"/>
		<path class="st6" d="M490.4,135.9h-18.2l-9.7-16.8l-9.7,16.8h-17.7l19-28.4L435.9,80h17.8l9.4,16.3l9.2-16.3h17.3l-18.4,27.4
			L490.4,135.9z"/>
	</g>
</g>
</svg>
