<?xml version="1.0"?>
<svg width="500" height="200" xmlns="http://www.w3.org/2000/svg">

 <g>
  <title>background</title>
  <rect fill="none" id="canvas_background" height="202" width="502" y="-1" x="-1"/>
 </g>
 <g>
  <title>Layer 1</title>
  <g stroke="null" id="svg_3">
   <path stroke="null" id="svg_4" d="m20.820881,119.846466c-0.898943,-2.724854 -1.3442,-6.165268 -1.3442,-10.79007c0,-4.626465 0.445257,-8.071938 1.3442,-10.79174c2.509508,-7.798851 9.159298,-12.059685 17.864361,-12.059685c6.465305,0 11.585266,2.630646 14.999325,6.801773c0.263561,0.360573 0.353859,0.903397 -0.090839,1.265106l-5.655518,4.988174c-0.450882,0.365082 -0.89782,0.273682 -1.258968,-0.178871c-2.15847,-2.446724 -4.401592,-3.809975 -7.993999,-3.809975c-3.858753,0 -6.820805,1.905563 -8.079773,5.713837c-0.713326,2.179779 -0.895578,4.717323 -0.895578,8.071945c0,3.355156 0.182253,5.983017 0.895578,8.160538c1.258968,3.714081 4.22102,5.618515 8.079773,5.618515c3.592407,0 5.835529,-1.360474 7.993999,-3.803238c0.361149,-0.458748 0.808086,-0.458748 1.258968,-0.094803l5.655518,4.988205c0.444698,0.361145 0.354401,0.81427 0.090839,1.270164c-3.414059,4.080849 -8.534039,6.708672 -14.999325,6.708672c-8.705063,-0.001678 -15.354282,-4.264206 -17.864361,-12.058548" fill="#204056"/>
   <path stroke="null" id="svg_5" d="m217.000854,119.846466c-0.898987,-2.724854 -1.344162,-6.165268 -1.344162,-10.79007c0,-4.626465 0.445801,-8.071938 1.344162,-10.79174c2.515121,-7.798851 9.157654,-12.059685 17.863235,-12.059685c6.466431,0 11.589188,2.630646 14.998764,6.801773c0.267517,0.360573 0.360016,0.903397 -0.093079,1.265106l-5.656082,4.988174c-0.449188,0.365082 -0.895615,0.273682 -1.255066,-0.178871c-2.153381,-2.446724 -4.398773,-3.809975 -7.994537,-3.809975c-3.856491,0 -6.821396,1.905563 -8.076416,5.713837c-0.720001,2.179779 -0.894989,4.717323 -0.894989,8.071945c0,3.355156 0.174988,5.983017 0.894989,8.160538c1.25502,3.714081 4.219925,5.618515 8.076416,5.618515c3.595764,0 5.841156,-1.360474 7.994537,-3.803238c0.360031,-0.458748 0.806412,-0.458748 1.255066,-0.094803l5.656082,4.988205c0.453094,0.361145 0.360596,0.81427 0.093079,1.270164c-3.409576,4.080849 -8.532333,6.708672 -14.998764,6.708672c-8.705032,-0.001678 -15.347534,-4.264206 -17.863235,-12.058548" fill="#204056"/>
   <path stroke="null" id="svg_6" d="m443.743652,130.908493c-0.537811,0 -0.896118,-0.361115 -0.896118,-0.908447l0,-25.20507c0,-5.623512 -2.78653,-9.523796 -8.175201,-9.523796c-5.20578,0 -8.258057,3.900284 -8.258057,9.523796l0,25.20507c0,0.547882 -0.361176,0.908447 -0.896179,0.908447l-8.263184,0c-0.537201,0 -0.898895,-0.361115 -0.898895,-0.908447l0,-25.20507c0,-5.623512 -2.782043,-9.523796 -8.162781,-9.523796c-5.210785,0 -8.265961,3.900284 -8.265961,9.523796l0,25.20507c0,0.547882 -0.358917,0.908447 -0.898407,0.908447l-8.259827,0c-0.540558,0 -0.895508,-0.361115 -0.895508,-0.908447l0,-41.891769c0,-0.54509 0.35495,-0.908478 0.895508,-0.908478l8.259827,0c0.53949,0 0.898407,0.363388 0.898407,0.908478l0,3.173485l0.09137,0c1.885925,-2.722061 5.656128,-5.07679 11.401947,-5.07679c5.117676,0 9.248383,2.082191 11.849365,5.801872l0.091339,0c3.320496,-3.623207 7.632324,-5.801872 13.829041,-5.801872c10.052094,0 15.713715,6.89035 15.713715,16.230804l0,27.563721c0,0.547852 -0.361176,0.908432 -0.901733,0.908432l-8.258667,0l0,0.000565z" fill="#204056"/>
   <path stroke="null" id="svg_7" d="m465.374756,147.229019c-0.536621,0 -0.894989,-0.362244 -0.894989,-0.909592l0,-7.252075c0,-0.542267 0.358368,-0.909027 0.894989,-0.909027l1.61731,0c3.411865,0 5.122253,-1.535416 6.4664,-5.165375l1.257904,-3.717453l-15.805237,-41.168365c-0.179932,-0.544518 0.180634,-0.907883 0.72345,-0.907883l8.88562,0c0.536713,0 0.897858,0.363365 1.074524,0.907883l9.789581,28.563599l0.176636,0l9.339905,-28.563599c0.178284,-0.544518 0.53949,-0.907883 1.072784,-0.907883l8.527832,0c0.542847,0 0.903503,0.363365 0.72171,0.907883l-16.518402,45.521194c-3.768585,10.337509 -7.364807,13.600693 -14.546295,13.600693l-2.783722,0z" fill="#204056"/>
   <path stroke="null" id="svg_8" d="m61.946613,119.84816c-0.987,-3.086563 -1.435619,-5.986954 -1.435619,-10.791763c0,-4.797516 0.44862,-7.700134 1.435619,-10.777176c2.424831,-7.617676 9.062847,-12.061348 17.859303,-12.061348c8.70507,0 15.345901,4.443672 17.771851,12.061348c0.983055,3.076477 1.435043,5.97966 1.435043,10.777176c0,4.80481 -0.451988,7.7052 -1.435043,10.791763c-2.425949,7.613182 -9.06678,12.055176 -17.771851,12.055176c-8.796455,0 -15.434471,-4.441994 -17.859303,-12.055176m25.936855,-2.718155c0.71949,-2.264999 0.897842,-4.353371 0.897842,-8.073044c0,-3.710152 -0.178352,-5.705986 -0.897842,-8.061844c-1.256142,-3.623245 -4.038773,-5.713272 -8.07753,-5.713272c-4.034859,0 -6.912804,2.090027 -8.166168,5.713272c-0.714424,2.355858 -0.896675,4.351692 -0.896675,8.061844c0,3.720253 0.182251,5.808044 0.896675,8.073044c1.253365,3.628876 4.13131,5.706009 8.166168,5.706009c4.038757,-0.000565 6.821388,-2.077713 8.07753,-5.706009" fill="#204056"/>
   <path stroke="null" id="svg_9" d="m273.922791,86.204971c-7.095612,0 -11.851044,1.72216 -15.354828,4.261414c-0.357239,0.27533 -0.446991,0.723404 -0.176086,1.175415l3.315948,5.988602c0.277557,0.455368 0.808014,0.546776 1.26059,0.181122c2.066498,-1.629074 5.025787,-2.994583 9.877716,-2.994583c7.07312,0 9.475555,2.146133 9.598358,6.863464l0.001648,-0.001144l0,0.057205c0.002319,0.111603 0.003937,0.223206 0.003937,0.338181l0,14.147476c0,4.984787 -3.411194,7.430939 -9.603943,7.430939c-4.851929,0 -7.451752,-1.81076 -7.451752,-5.436234c0,-4.083076 2.873444,-5.899483 9.335999,-5.899483l1.965515,0.002251c0.536621,0 0.898926,-0.361694 0.898926,-0.901192l0,-5.813637c0,-0.542297 -0.362305,-0.903976 -0.898926,-0.903976l-0.432373,0l-3.147675,-0.00058c-10.682922,0 -17.332748,4.357315 -17.332748,13.873817c0,9.160988 6.649826,13.330437 14.547928,13.330437c6.099609,0 10.142883,-2.085007 12.208801,-5.077347l0.088562,0l0,3.174026c0,0.547913 0.362274,0.908463 0.898376,0.908463l7.541443,0c0.538361,0 0.898438,-0.361115 0.898438,-0.908463l0,-28.56189c0.000549,-10.69754 -4.847443,-15.234283 -18.043854,-15.234283" fill="#204056"/>
   <path stroke="null" id="svg_10" d="m166.654709,104.697983c-0.233856,0 -0.388077,0.156448 -0.388077,0.38974l0,0.259628l0,0.758209l0,4.80423l0,0.644333l0,0.37236c0,0.233292 0.154221,0.39032 0.388077,0.39032l0.224869,0l22.009705,0c0.629196,0 0.989777,-0.361145 0.989777,-0.900085c0,-7.078201 -0.451981,-10.071686 -1.436752,-13.152641c-2.427078,-7.435417 -8.889557,-12.059685 -17.778534,-12.059685c-8.619278,0 -15.26178,4.441986 -17.687744,12.059685c-0.892776,2.810661 -1.437271,6.257805 -1.437271,10.791756c0,4.531693 0.629166,7.886322 1.532639,10.699783c2.422012,7.614334 8.882813,12.14772 18.041534,12.14772c7.988403,0 14.099289,-3.083206 17.776352,-7.43602c0.355545,-0.449745 0.355545,-0.902306 -0.091965,-1.267929l-5.292145,-4.715073c-0.452545,-0.363388 -0.899506,-0.268608 -1.350937,0.180008c-2.152298,2.359802 -5.294373,4.171097 -10.142334,4.171097c-4.84465,0 -8.259247,-2.354706 -9.695404,-6.613869c-0.216461,-0.596687 -0.396484,-1.22419 -0.509766,-1.902199l-0.001678,0.000565c-0.326935,-1.8461 -0.520432,-3.644531 -0.520432,-6.283035c0.069534,-2.486526 0.21312,-4.07634 0.566422,-6.093491c0.003906,-0.028046 0.008972,-0.054398 0.014008,-0.080757c0.003372,-0.019058 0.007828,-0.03701 0.010651,-0.056633l0.000565,0.001694c0.086349,-0.476685 0.202423,-0.922501 0.348801,-1.368896c1.167007,-3.536865 4.398254,-5.621857 8.532333,-5.621857c4.042145,0 7.267792,2.085579 8.434769,5.621857c0.36058,1.093536 0.538361,2.17643 0.538361,3.719688c0,0.362839 -0.17778,0.540611 -0.538361,0.540611l-11.796661,0l0.002228,-0.001686l-0.743027,0l0,0.000572z" fill="#204056"/>
   <path stroke="null" id="svg_11" d="m143.193695,69.25132l-8.246887,0c-0.542847,0 -0.901749,0.360603 -0.901749,0.899498l0,21.185333l-0.000565,0l0,17.521164c0,0.047668 0.000565,0.093658 0.000565,0.140755c0,0.047691 -0.000565,0.093117 -0.000565,0.139648l0,2.325569l-0.043747,0c-0.095886,2.498856 -0.367874,4.143646 -0.847885,5.682449c-1.166992,3.618744 -3.949615,5.610092 -8.069145,5.610092c-4.034294,0 -6.811295,-1.991348 -7.982773,-5.610092c-0.625267,-1.99472 -0.892212,-4.164948 -0.892212,-8.147667c0,-3.983803 0.266945,-6.159645 0.892212,-8.146507c1.147919,-3.549789 3.837463,-5.554008 7.738274,-5.63311l3.520599,0c0.171051,-0.04203 0.282639,-0.175507 0.282639,-0.371788l0.044861,-8.278305c0,-0.210297 -0.131775,-0.35273 -0.327499,-0.377975l-2.811226,-0.011765l-3.303558,0.000565l0,0.002235c-7.228539,0.07682 -12.518402,3.601349 -14.734077,10.497337c-1.076714,3.354599 -1.523674,6.435013 -1.523674,12.319313c0,5.882652 0.44696,8.961922 1.523674,12.308678c2.239761,6.975037 7.620506,10.504059 14.970154,10.504059c5.831589,0 9.418365,-2.169113 11.475342,-5.161453l0.088608,0l0,3.260391c0,0.547333 0.358902,0.906815 0.901749,0.906815l8.246887,0c0.537796,0 0.898376,-0.360046 0.898376,-0.906815l0,-59.758926c0,-0.539482 -0.36058,-0.899498 -0.898376,-0.899498" fill="#204056"/>
   <path stroke="null" id="svg_12" d="m359.378052,104.697983c-0.231049,0 -0.386414,0.156448 -0.386414,0.38974l0,0.259628l0,0.758209l0,4.80423l0,0.644333l0,0.37236c0,0.233292 0.155365,0.39032 0.386414,0.39032l0.227112,0l22.010254,0c0.628021,0 0.988129,-0.361145 0.988129,-0.900085c0,-7.078201 -0.450409,-10.071686 -1.435638,-13.152641c-2.427704,-7.435417 -8.890167,-12.059685 -17.778015,-12.059685c-8.619751,0 -15.262878,4.441986 -17.688873,12.059685c-0.89386,2.810661 -1.436737,6.257805 -1.436737,10.791756c0,4.531693 0.629272,7.886322 1.532684,10.699783c2.42038,7.614334 8.883942,12.14772 18.041504,12.14772c7.988434,0 14.099884,-3.083206 17.776947,-7.43602c0.356659,-0.449745 0.356659,-0.902306 -0.09198,-1.267929l-5.293854,-4.715073c-0.450287,-0.363388 -0.898346,-0.268608 -1.349213,0.180008c-2.152283,2.359802 -5.294312,4.171097 -10.143463,4.171097c-4.845764,0 -8.257568,-2.354706 -9.696014,-6.613869c-0.215302,-0.596687 -0.395386,-1.22419 -0.507507,-1.902199l-0.002228,0.000565c-0.326324,-1.8461 -0.519867,-3.644531 -0.519867,-6.283035c0.067291,-2.486526 0.210907,-4.07634 0.564789,-6.093491c0.006134,-0.028046 0.01123,-0.054398 0.014557,-0.080757c0.002808,-0.019058 0.006134,-0.03701 0.01062,-0.056633l0,0.001694c0.087494,-0.476685 0.203033,-0.922501 0.348816,-1.368896c1.166962,-3.536865 4.398773,-5.621857 8.532349,-5.621857c4.043213,0 7.268921,2.085579 8.437042,5.621857c0.359436,1.093536 0.53833,2.17643 0.53833,3.719688c0,0.362839 -0.178894,0.540611 -0.53833,0.540611l-11.797241,0l0,-0.001686l-0.744171,0l0,0.000572z" fill="#204056"/>
   <path stroke="null" id="svg_13" d="m336.346588,69.25132l-8.260345,0c-0.541168,0 -0.900665,0.362282 -0.900665,0.901741l0,21.21505l0,17.548103l0,0.139633l0,0.140739l0,2.329514l-0.04425,0c-0.098145,2.503365 -0.370117,4.149254 -0.850769,5.689728c-1.16745,3.624901 -3.956268,5.619621 -8.080322,5.619621c-4.037659,0 -6.821411,-1.99472 -7.993988,-5.619621c-0.625275,-1.99752 -0.896667,-4.170013 -0.896667,-8.16053c0,-3.988327 0.270844,-6.168098 0.896667,-8.157196c1.149078,-3.555389 3.842468,-5.543915 7.748383,-5.622437l3.525635,0.002243c0.538879,0 0.898987,-0.362244 0.898987,-0.902298l0,-7.265533c0,-0.541718 -0.360107,-0.902855 -0.898987,-0.902855l-0.431793,0l-5.329132,-0.001686c-0.043152,0 -0.082428,-0.001144 -0.125061,-0.001144c-0.040344,0 -0.076782,0.001144 -0.116669,0.001144l-0.121643,0l0,0.002243c-7.236389,0.076263 -12.535217,3.607521 -14.754822,10.512466c-1.078979,3.35968 -1.526489,6.44397 -1.526489,12.335602s0.44751,8.976486 1.526489,12.329407c2.243134,6.982895 7.632874,10.518082 14.992554,10.518082c5.838379,0 9.429077,-2.17189 11.493256,-5.168732l0.086945,0l0,3.264313c0,0.549011 0.360016,0.908478 0.900696,0.908478l8.260345,0c0.53833,0 0.898895,-0.360016 0.898895,-0.908478l0,-59.845856c0.001068,-0.540031 -0.358948,-0.901741 -0.897247,-0.901741" fill="#204056"/>
   <path stroke="null" id="svg_14" d="m216.326813,143.272705l0,8.259781c0,0.542297 0.360596,0.903442 0.901169,0.903442l30.614365,0c0.547348,0 0.907928,-0.361694 0.907928,-0.903442l0,-8.259781c0,-0.537796 -0.36116,-0.898376 -0.907928,-0.898376l-30.614365,0c-0.540573,-0.000015 -0.901169,0.36058 -0.901169,0.898376" fill="#204056"/>
   <path stroke="null" id="svg_15" d="m208.553757,47.855686c-0.013458,-0.013474 -0.021881,-0.030846 -0.03479,-0.043739c-0.002197,-0.001129 -0.003326,-0.002251 -0.004486,-0.002251c-0.156433,-0.155342 -0.379623,-0.245621 -0.645981,-0.245621l-0.010132,0l-206.361576,0c-0.067857,0 -0.132352,0.006737 -0.195146,0.017944c-0.018515,0.0028 -0.033648,0.009529 -0.052724,0.013458c-0.040935,0.010086 -0.083551,0.019066 -0.121133,0.034203c-0.007286,0.002243 -0.012891,0.00618 -0.017936,0.00898c-0.319091,0.13121 -0.514806,0.429558 -0.514806,0.824898l0,0.004509l0,103.055462l0,0.005035c0,0.315155 0.122254,0.56192 0.32974,0.720032c0.015143,0.014023 0.029165,0.02861 0.049912,0.04039l0,0.000565c0.142441,0.091949 0.31852,0.141907 0.522093,0.141907l206.360996,0l0.010117,0c0.303406,0 0.55014,-0.118347 0.70549,-0.317444c0.122787,-0.151962 0.194046,-0.348251 0.194046,-0.585449l0,-0.005035l0,-103.055462l0,-0.004478c0,-0.246185 -0.079681,-0.453125 -0.213684,-0.607903m-197.006011,94.51527c-0.064493,-0.001099 -0.127297,-0.005615 -0.184496,-0.015152c-0.017945,-0.003922 -0.03645,-0.0112 -0.054396,-0.015701c-0.041505,-0.009521 -0.084122,-0.018509 -0.121694,-0.033096c-0.006726,-0.002792 -0.011209,-0.007263 -0.017385,-0.009521c-0.31741,-0.129547 -0.512005,-0.425598 -0.513676,-0.817078l0,-74.699348l0,-8.258114c0,-0.396492 0.196266,-0.692574 0.513676,-0.824364c0.007847,-0.002243 0.013461,-0.006729 0.019066,-0.008965c0.037572,-0.014587 0.156463,-0.044861 0.174959,-0.049347c0.05945,-0.009529 0.123374,-0.015137 0.186748,-0.015137l186.259693,0c0.065598,0 0.126709,0.006157 0.186737,0.015137c0.019058,0.004486 0.035904,0.011215 0.053314,0.016266c0.042007,0.008965 0.084076,0.017937 0.121674,0.033081c0.008392,0.002235 0.012283,0.006721 0.019058,0.008965c0.319046,0.131233 0.513687,0.427872 0.513687,0.824364l0,82.957462c-0.001724,0.391479 -0.197998,0.687531 -0.513153,0.817078c-0.007309,0.002258 -0.0112,0.006729 -0.019089,0.009521c-0.035873,0.014053 -0.08017,0.023575 -0.121643,0.033096c-0.017944,0.005081 -0.033676,0.01178 -0.053848,0.015701c-0.058868,0.010101 -0.117783,0.014053 -0.182785,0.015152l-186.266448,0z" fill="#204056"/>
  </g>
 </g>
</svg>