<svg width="500" height="200" viewBox="0 0 500 200" xmlns="http://www.w3.org/2000/svg"><title>Slice 1</title><g fill="none" fill-rule="evenodd"><path d="M92.357 124.412c-5.93 0-10.736-4.804-10.736-10.735 0-5.926 4.807-10.732 10.737-10.732 5.927 0 10.733 4.806 10.733 10.732 0 5.93-4.806 10.735-10.733 10.735zm-33.542-1.154c4.306-.008 8.784-1.533 10.31-2.093.744-.27 1.06.41 1.06.41 3 6.382 6.99 9.327 7.914 10.612.468.652-.41 1.12-.41 1.12-4.822 2.944-12.53 4.547-18.86 4.593-22.143.162-39.368-17.14-39.368-37.562 0-22.258 17.51-38.493 38.63-37.752 8.647 0 16.71 3.067 22.32 6.69 1.48.954 1.452 1.416 1.137 1.854-1.243 1.728-4.63 6.738-6.335 10.253 0 0-.456.912-1.382.305-3.62-2.37-8.51-4.674-16.596-4.674-12.493 0-22.004 9.768-22.004 23.058 0 13.297 11.09 23.208 23.582 23.186zm63.088-75.342c0-3.62-2.936-6.557-6.557-6.557H7.578c-3.62 0-6.556 2.935-6.556 6.556V153.15c0 3.622 2.935 6.558 6.556 6.558h107.768c3.62 0 6.557-2.936 6.557-6.558V47.916zM143.364 100.25c0-16.396 12.4-27.58 28.375-27.58 11.757 0 18.543 6.394 22.303 13.037l-9.75 4.78c-2.243-4.315-7.033-7.747-12.554-7.747-9.678 0-16.703 7.43-16.703 17.51 0 10.06 7.025 17.5 16.702 17.5 5.52 0 10.31-3.357 12.554-7.76l9.75 4.723c-3.833 6.632-10.547 13.1-22.305 13.1-15.977 0-28.376-11.188-28.376-27.563M242.912 100.25c0-9.988-6.392-17.51-16.223-17.51-9.833 0-16.153 7.522-16.153 17.51 0 9.898 6.32 17.5 16.152 17.5 9.83 0 16.222-7.602 16.222-17.5m-44.05 0c0-16.077 11.765-27.58 27.827-27.58 16.146 0 27.89 11.503 27.89 27.58 0 16.05-11.744 27.562-27.89 27.562-16.063 0-27.827-11.51-27.827-27.562M300.92 126.867l-25.43-34.77v34.77h-11.344V73.54h11.674l24.7 33.498V73.54h11.35v53.327h-10.95M321.42 100.25c0-16.396 12.393-27.58 28.363-27.58 11.768 0 18.553 6.394 22.313 13.037l-9.758 4.78c-2.238-4.315-7.036-7.747-12.555-7.747-9.66 0-16.696 7.43-16.696 17.51 0 10.06 7.037 17.5 16.696 17.5 5.52 0 10.317-3.357 12.555-7.76l9.758 4.723c-3.833 6.632-10.545 13.1-22.313 13.1-15.97 0-28.362-11.188-28.362-27.563M379.563 105.59V73.54h11.53v31.665c0 7.428 4.293 12.546 12.538 12.546 8.237 0 12.476-5.117 12.476-12.545V73.54h11.598v31.983c0 13.257-7.85 22.29-24.073 22.29-16.224 0-24.067-9.1-24.067-22.223M470.13 90.73c0-4.484-3.422-7.198-7.99-7.198h-11.904V97.93h11.904c4.568 0 7.99-2.73 7.99-7.2m-1.11 36.136l-10.472-18.946h-8.312v18.946h-11.358V73.54h24.943c11.108 0 17.9 7.27 17.9 17.19 0 9.43-5.912 14.475-11.664 15.824l11.99 20.312H469.02" fill="#006CA8"/><path d="M492.9 120.92h.722c.848 0 1.53-.283 1.53-.967 0-.605-.44-1.007-1.408-1.007-.403 0-.686.04-.845.08v1.893zm-.042 3.745h-1.53v-6.606c.604-.12 1.45-.202 2.536-.202 1.25 0 1.814.2 2.296.483.363.284.644.807.644 1.452 0 .725-.564 1.29-1.367 1.53v.08c.642.242 1.006.725 1.206 1.612.203 1.007.323 1.41.484 1.65h-1.65c-.2-.24-.324-.845-.524-1.61-.122-.725-.525-1.047-1.37-1.047h-.725v2.658zm-4.07-3.464c0 2.94 2.177 5.277 5.157 5.277 2.9 0 5.035-2.336 5.035-5.236 0-2.94-2.134-5.315-5.074-5.315s-5.117 2.376-5.117 5.276zm11.885 0c0 3.747-2.94 6.687-6.767 6.687-3.786 0-6.807-2.94-6.807-6.686 0-3.664 3.02-6.604 6.806-6.604 3.826 0 6.767 2.94 6.767 6.605z" fill="#57524C"/><path d="M.998.855v199.213h500v-200"/></g></svg>