<?xml version="1.0" encoding="utf-8"?>
<svg xmlns="http://www.w3.org/2000/svg" viewBox="-229 181 500 200">
  <path fill="#707BF0" d="M-128.3 305.1s19.7-15.3 35.6-15.3c15.6 0 35.6 20.7 35.6 20.7s10.5-20.7 36.3-20.7S20 310.6 20 310.6s11.5-20.7 38.5-20.7 39.8 20.7 39.8 20.7 15.6-20.7 35.6-20.7c19.7 0 36.3 15.3 36.3 15.3S140.3 181 20 181c-120.6 0-142.5 95.8-148.3 124.1zm59.5 45.4c-4.4-4.7-10.7-6.1-15-6.1-8.9 0-17 5.3-17 15.2s8.3 15.1 16.9 15.1c5 0 11.1-1.9 15.5-6.4v8.4c-5.2 3.2-10.7 4.2-15.3 4.2-14.9-.1-25.6-9.1-25.6-21.3 0-12.4 10.9-21.6 25.6-21.6 7.6 0 12.6 2.5 14.9 3.9v8.6zm23.7 12.9c0 2.7 0 6 2.3 8.4 1.3 1.3 3.8 3 8.4 3s7.2-1.7 8.4-3c2.3-2.4 2.3-5.7 2.3-8.4v-23h8.3v23.7c0 4.8-.6 8.4-4.4 11.9-4.3 3.7-9.9 4.9-14.7 4.9-4.7 0-10.4-1.2-14.7-4.9-3.8-3.4-4.4-7-4.4-11.9v-23.7h8.3l.2 23zm50.8-23.3L20 364.7l14.3-24.6h9.3L20.1 379l-23.6-38.9h9.2zm54.6 0l14.3 24.6 14.3-24.6h9.3L74.6 379 51 340.1h9.3zm84.5-1h8.3v40.7h-8.3v-5.7c-2.8 3-8 6.9-16.4 6.9-12.1 0-23.3-7.3-23.3-21.6 0-14 11.1-21.3 23.3-21.3 9.3 0 14.2 4.3 16.4 6.8v-5.8zm-31.2 20.3c0 8.7 5.8 15.3 15.7 15.3 10.2 0 15.9-7.2 15.9-15.2 0-10.5-8.5-15.1-15.9-15.1-8.2 0-15.7 5.1-15.7 15z" />
</svg>
