<svg xmlns="http://www.w3.org/2000/svg" width="500px" height="200px" viewBox="0 0 500 200" version="1.1"><g id="Page-1" stroke="none" stroke-width="1" fill="none" fill-rule="evenodd"><g id="Artboard-1" fill="#7289DA"><g id="Discord-Logo+Wordmark-Color" transform="translate(18.000000, 36.000000)"><g id="Layer_1"><g id="Group"><path d="M68.3108666 53.824C64.6650619 53.824 61.786795 56.96 61.786795 60.864 61.786795 64.768 64.7290234 67.904 68.3108666 67.904 71.9566713 67.904 74.8349381 64.768 74.8349381 60.864 74.8349381 56.96 71.8927098 53.824 68.3108666 53.824L68.3108666 53.824ZM44.9649243 53.824C41.3191197 53.824 38.4408528 56.96 38.4408528 60.864 38.4408528 64.768 41.3830812 67.904 44.9649243 67.904 48.610729 67.904 51.4889959 64.768 51.4889959 60.864 51.5529574 56.96 48.610729 53.824 44.9649243 53.824L44.9649243 53.824ZM99.3961486 0.576L13.6877579 0.576C6.46011004 0.576 0.57565337 6.464 0.57565337 13.696L0.57565337 99.456C0.57565337 106.688 6.46011004 112.576 13.6877579 112.576L86.2200825 112.576 82.8301238 100.864 91.0171939 108.416 98.7565337 115.52 112.572215 127.488 112.572215 99.456 112.572215 93.056 112.572215 13.696C112.508253 6.464 106.623796 0.576 99.3961486 0.576L99.3961486 0.576ZM74.7070151 83.456C74.7070151 83.456 72.4044017 80.704 70.4855571 78.336 78.8645117 75.968 82.062586 70.784 82.062586 70.784 79.4401651 72.512 76.9456671 73.728 74.7070151 74.56 71.5089409 75.904 68.4387895 76.736 65.4325997 77.312 59.2922971 78.464 53.6636864 78.144 48.866575 77.248 45.2207703 76.544 42.0866575 75.584 39.4642366 74.496 37.9931224 73.92 36.3940853 73.216 34.7950481 72.32 34.6031637 72.192 34.4112792 72.128 34.2193948 72 34.0914718 71.936 34.0275103 71.872 33.9635488 71.872 32.8122421 71.232 32.1726272 70.784 32.1726272 70.784 32.1726272 70.784 35.2427785 75.84 43.3658872 78.272 41.4470426 80.704 39.0804677 83.52 39.0804677 83.52 24.9449794 83.072 19.5722146 73.856 19.5722146 73.856 19.5722146 53.44 28.7826685 36.864 28.7826685 36.864 37.9931224 30.016 46.6918845 30.208 46.6918845 30.208L47.3314993 30.976C35.8184319 34.24 30.5735901 39.296 30.5735901 39.296 30.5735901 39.296 31.9807428 38.528 34.3473177 37.504 41.1911967 34.496 46.627923 33.728 48.866575 33.472 49.2503439 33.408 49.5701513 33.344 49.9539202 33.344 53.8555708 32.832 58.2689133 32.704 62.8741403 33.216 68.9504814 33.92 75.474553 35.712 82.1265475 39.296 82.1265475 39.296 77.0735901 34.496 66.2001376 31.232L67.0955983 30.208C67.0955983 30.208 75.8583219 30.016 85.0048143 36.864 85.0048143 36.864 94.2152682 53.44 94.2152682 73.856 94.2152682 73.792 88.8425034 83.008 74.7070151 83.456L74.7070151 83.456Z" id="Shape"/></g><path d="M171.288858 27.968L150.053645 27.968 150.053645 51.84 164.189133 64.576 164.189133 41.408 171.736589 41.408C176.5337 41.408 178.900275 43.712 178.900275 47.424L178.900275 65.152C178.900275 68.864 176.661623 71.36 171.736589 71.36L149.989684 71.36 149.989684 84.864 171.224897 84.864C182.610041 84.928 193.291609 79.232 193.291609 66.176L193.291609 47.104C193.355571 33.792 182.674003 27.968 171.288858 27.968L171.288858 27.968ZM282.581843 66.176L282.581843 46.592C282.581843 39.552 295.246217 37.952 299.083906 44.992L310.788858 40.256C306.183631 30.144 297.804677 27.2 290.832875 27.2 279.44773 27.2 268.190509 33.792 268.190509 46.592L268.190509 66.176C268.190509 79.104 279.44773 85.568 290.577029 85.568 297.740715 85.568 306.311554 82.048 311.044704 72.832L298.508253 67.072C295.438102 74.944 282.581843 73.024 282.581843 66.176L282.581843 66.176ZM243.885144 49.28C239.471802 48.32 236.529574 46.72 236.337689 43.968 236.593535 37.376 246.763411 37.12 252.711829 43.456L262.114168 36.224C256.229711 29.056 249.577717 27.136 242.733838 27.136 232.308116 27.136 222.202201 33.024 222.202201 44.16 222.202201 54.976 230.517194 60.8 239.663686 62.208 244.332875 62.848 249.513755 64.704 249.385832 67.904 249.002063 73.984 236.465612 73.664 230.77304 66.752L221.690509 75.264C226.999312 82.112 234.22696 85.568 241.006878 85.568 251.4326 85.568 263.009629 79.552 263.457359 68.544 264.096974 54.656 253.991059 51.136 243.885144 49.28L243.885144 49.28ZM201.030949 84.8L215.358322 84.8 215.358322 27.968 201.030949 27.968 201.030949 84.8 201.030949 84.8ZM442.61348 27.968L421.378267 27.968 421.378267 51.84 435.513755 64.576 435.513755 41.408 443.06121 41.408C447.858322 41.408 450.224897 43.712 450.224897 47.424L450.224897 65.152C450.224897 68.864 447.986245 71.36 443.06121 71.36L421.314305 71.36 421.314305 84.864 442.61348 84.864C453.998624 84.928 464.680193 79.232 464.680193 66.176L464.680193 47.104C464.680193 33.792 453.998624 27.968 442.61348 27.968L442.61348 27.968ZM338.42022 27.2C326.651307 27.2 314.946355 33.6 314.946355 46.72L314.946355 66.112C314.946355 79.104 326.715268 85.632 338.548143 85.632 350.317056 85.632 362.022008 79.104 362.022008 66.112L362.022008 46.72C362.022008 33.664 350.189133 27.2 338.42022 27.2L338.42022 27.2ZM347.630674 66.112C347.630674 70.208 343.025447 72.32 338.484182 72.32 333.878955 72.32 329.273728 70.336 329.273728 66.112L329.273728 46.72C329.273728 42.56 333.751032 40.32 338.228336 40.32 342.897524 40.32 347.630674 42.304 347.630674 46.72L347.630674 66.112 347.630674 66.112ZM413.447043 46.72C413.127235 33.408 404.044704 28.032 392.339752 28.032L369.633425 28.032 369.633425 84.864 384.152682 84.864 384.152682 66.816 386.711142 66.816 399.887208 84.864 417.796424 84.864 402.317744 65.344C409.161623 63.168 413.447043 57.216 413.447043 46.72L413.447043 46.72ZM392.595598 54.4L384.152682 54.4 384.152682 41.408 392.595598 41.408C401.614168 41.408 401.614168 54.4 392.595598 54.4L392.595598 54.4Z" id="Shape"/></g></g></g></g></svg>
