<svg width="500" height="200" viewBox="0 0 500 200" xmlns="http://www.w3.org/2000/svg"><title>Slice</title><path d="M33.484 55.83H.002v86.802h32.985c31.252 0 49.478-18.6 49.478-43.65v-.25c.002-25.046-17.98-42.903-48.98-42.903zm24.304 43.524c0 14.01-9.547 21.95-23.93 21.95H24.06V77.158h9.797c14.384 0 23.932 8.058 23.932 21.945v.25h-.002zm40.673 43.273h24.182V55.83h-24.18v86.797zm79.984-54.062c-12.03-2.73-15.006-4.466-15.006-8.43v-.253c0-3.1 2.854-5.58 8.68-5.58 7.687 0 16.368 2.974 24.307 8.558l12.027-16.992c-9.426-7.563-20.957-11.534-35.712-11.534-20.834 0-33.605 11.656-33.605 27.777v.25c0 17.858 14.26 23.067 32.735 27.278 11.78 2.728 14.632 4.71 14.632 8.31v.247c0 3.72-3.472 5.95-9.92 5.95-10.043 0-19.592-3.595-28.147-10.414l-13.393 15.998c10.665 9.55 25.297 14.388 40.674 14.388 21.08 0 35.093-10.54 35.093-28.274v-.247c0-16.245-12.404-22.692-32.366-27.032v.002zm137.64 10.664v-.25c0-24.924-19.84-44.89-46.625-44.89-26.784 0-46.873 20.215-46.873 45.14v.246c0 24.925 19.84 44.89 46.626 44.89 9.92 0 18.973-2.853 26.413-7.69l9.546 8.556 12.152-13.516-8.927-7.56c4.958-7.07 7.687-15.754 7.687-24.927zm-24.426.494c0 2.976-.497 5.827-1.49 8.43L278.39 97.49l-12.15 13.64 12.028 10.295c-2.603.993-5.58 1.612-8.8 1.612-13.27 0-22.198-11.035-22.198-23.562v-.246c0-12.526 8.804-23.44 21.947-23.44 13.393 0 22.447 11.038 22.447 23.686v.247h-.004zm95.358 4.96c0 12.15-6.328 17.854-16 17.854-9.67 0-15.995-5.95-15.995-18.476V55.83h-24.426v48.732c0 27.157 15.5 39.683 40.177 39.683 24.68 0 40.674-12.276 40.674-40.302V55.83h-24.427v48.855zm78.616-16.12c-12.028-2.73-15.005-4.465-15.005-8.43v-.252c0-3.1 2.854-5.58 8.684-5.58 7.683 0 16.368 2.974 24.304 8.558l12.028-16.988c-9.424-7.563-20.955-11.533-35.71-11.533-20.834 0-33.608 11.654-33.608 27.775v.248c0 17.858 14.262 23.065 32.737 27.28 11.78 2.727 14.633 4.713 14.633 8.31v.246c0 3.717-3.474 5.95-9.92 5.95-10.046 0-19.595-3.597-28.15-10.416l-13.39 15.993c10.667 9.553 25.298 14.387 40.67 14.387 21.083 0 35.095-10.54 35.095-28.272v-.25c-.003-16.242-12.404-22.69-32.368-27.03l.002.003z" fill="#229CFF" fill-rule="evenodd"/></svg>