<svg width="500" height="200" xmlns="http://www.w3.org/2000/svg"><defs><style>.fil0{fill:#696969}.fil1{fill:#6fb536}</style></defs><path fill="none" id="canvas_background" d="M-1-1h502v202H-1z"/><g id="Layer_x0020_1"><path id="svg_1" d="M77.68 96.672c-1.707-.085-3.33 0-4.78.256.428-3.413 1.793-7.594 6.742-7.423 5.546.256 6.314 5.46 6.314 8.96-2.304-1.025-5.205-1.707-8.277-1.793zm23.55-37.032c-.94-4.95-3.84-7.34-6.485-8.277-2.9-1.024-8.704-2.133-15.956-2.987-5.89-.682-12.8-.682-16.982-.512-.512-3.413-2.9-6.57-5.546-7.68-3.925-1.535-9.045-2.047-13.31-2.047-3.5 0-6.486.34-7.766.683-2.304.682-4.78 1.962-6.144 3.925-.94 1.365-1.536 3.07-1.536 5.46v7.34c.085 2.815.085 5.375.085 5.375 0 2.474-2.046 4.522-4.52 4.522H11.463c-2.474 0-4.437.427-5.887 1.11-1.45.682-2.475 1.535-3.243 2.56C.884 71.158.542 73.633.542 76.19v.257c0 .17.086 2.303.512 6.228.427 3.243 3.925 25.684 7.253 32.51 1.28 2.646 2.133 3.755 4.608 4.864 5.632 2.39 18.43 5.12 24.49 5.888 5.972.768 9.727 2.39 11.945-2.304 0-.085.512-1.195 1.11-2.9 1.962-5.89 2.218-11.18 2.218-14.934 0-.34.512-.426.512 0 0 2.646-.512 12.117 6.656 14.677 2.815 1.023 8.703 1.876 14.676 2.56 5.376.68 9.216 2.73 9.216 16.552 0 8.448-1.707 9.557-10.922 9.557-7.51 0-10.325.17-10.325-5.718 0-4.778 4.694-4.352 8.278-4.352 1.536 0 .426-1.11.426-4.095 0-2.902 1.792-4.608.086-4.693-12.202-.342-19.37 0-19.37 15.188 0 13.823 5.29 16.383 22.612 16.383 13.482 0 18.26-.427 23.892-17.748 1.11-3.413 3.755-13.91 5.376-31.4 1.024-11.094-.94-44.628-2.56-53.075zm-90.363 2.474h11.605c.682 0 1.194-.512 1.194-1.194 0 0-.085-9.984-.085-12.714v-.086c0-2.218.428-4.266 1.28-5.887l.428-.768c-.086 0-.086.085-.17.085L2.59 63.906c-.085.085-.085.085-.085.17.427-.255 1.11-.597 1.195-.597 1.962-.854 4.35-1.366 7.167-1.366z" class="fil0"/><path id="svg_2" d="M494.68 79.436h.938c.768 0 .938-.256.938-.683 0-.34-.34-.512-.938-.512h-.94v1.196zm-.77-1.877h1.708c1.11 0 1.706.34 1.706 1.28 0 .767-.512 1.108-1.194 1.278l1.194 1.878h-.853l-1.108-1.878h-.683v1.878h-.77V77.56zm1.708 5.374c1.706 0 3.072-1.365 3.072-3.157s-1.366-3.242-3.072-3.242c-1.792 0-3.157 1.45-3.157 3.242s1.366 3.157 3.158 3.157zm0-6.997c2.133 0 3.84 1.707 3.84 3.84s-1.707 3.84-3.84 3.84-3.925-1.707-3.925-3.84 1.792-3.84 3.925-3.84z" class="fil1"/><path id="svg_3" class="fil1" d="M119.832 115.53h5.205l.256-33.193h-5.46v-6.4h34.47l.428 12.885h-6.74l-.597-6.485h-13.056l-.085 12.97h13.226v6.4h-13.31v13.823h13.054l.853-7.424h7.338l-.853 13.823h-34.728z"/><path id="svg_4" class="fil1" d="M209.597 82.337h-4.352l-16.383 39.592h-9.386l-16.383-39.593h-4.608v-6.4h19.626v6.4h-4.607l11.263 31.145h.17L196.2 82.337h-5.546v-6.4h18.943z"/><path id="svg_5" class="fil1" d="M214.12 115.53h5.204l.256-33.193h-5.46v-6.4h34.472l.427 12.885h-6.742l-.598-6.485h-13.055l-.085 12.97h13.226v6.4h-13.31l-.087 13.823h13.14l.853-7.424h7.338l-.852 13.823h-34.73z"/><path id="svg_6" d="M272.825 95.99h3.67c4.95 0 8.276-2.73 8.276-6.997 0-4.18-2.132-6.656-6.313-6.656h-5.546l-.085 13.653zm-14.505 19.54h5.205l.256-33.193h-5.46v-6.4h21.246c10.666 0 14.08 6.144 14.08 12.032 0 5.29-2.56 10.067-10.837 12.2v.17c4.265 1.196 5.374 2.22 9.64 9.643 2.902 4.78 3.926 5.547 5.462 5.547.683 0 1.365-.17 1.962-.256v6.655h-4.693c-6.228 0-6.996-.77-11.86-10.41-4.35-8.62-5.375-9.216-8.703-9.216h-1.877l-.085 13.226h5.46v6.4H258.32v-6.4z" class="fil1"/><path id="svg_7" class="fil1" d="M342.027 82.337h-5.46v-6.4h18.088v6.4h-5.205l-.256 39.592h-6.91l-24.576-32.767h-.17l-.257 26.367h5.462v6.4h-18.004v-6.4h5.205l.256-33.193h-5.462v-6.4h13.567l23.295 31.145h.17z"/><path id="svg_8" d="M380.766 115.444c8.533 0 13.396-7.338 13.396-16.64 0-10.494-5.717-16.382-13.396-16.382-8.618 0-13.482 7.253-13.482 16.725 0 10.324 5.717 16.297 13.482 16.297zm0-40.445c15.786 0 22.782 10.494 22.782 23.208 0 14.506-8.618 24.575-22.782 24.575-15.87 0-22.868-10.496-22.868-23.295 0-14.42 8.618-24.49 22.868-24.49z" class="fil1"/><path id="svg_9" class="fil1" d="M417.97 115.53h5.204l.256-33.193h-9.215l-.342 6.485h-6.997l.512-12.885h41.214l.512 12.885h-6.997l-.34-6.485h-9.217l-.256 33.193h5.46v6.4H417.97z"/><path id="svg_10" class="fil1" d="M454.234 115.53h5.205l.17-33.193h-5.376v-6.4h34.472l.427 12.885h-6.826l-.598-6.485h-12.97l-.086 12.97h13.14v6.4H468.57l-.087 13.823h13.056l.852-7.424h7.338l-.768 13.823h-34.728z"/></g></svg>