<?xml version="1.0"?>
<svg width="500" height="200" xmlns="http://www.w3.org/2000/svg">
 <g>
  <title>background</title>
  <rect x="-1" y="-1" width="502" height="202" id="canvas_background" fill="none"/>
 </g>

 <g>
  <title>Layer 1</title>
  <g stroke="null" id="svg_16">
   <g stroke="null" id="svg_1">
    <path stroke="null" d="m139.35936,62.076008l42.567963,0l0,12.669033l-27.365112,0l0,18.243423l27.365112,0l0,12.669029l-27.365112,0l0,32.939476l-15.20285,0l0,-76.520962z" id="svg_2"/>
    <path stroke="null" d="m186.48819,62.076008l14.696075,0l0,76.520962l-14.696075,0l0,-76.520962z" id="svg_3"/>
    <path stroke="null" d="m206.885315,62.076008l14.696106,0l0,12.752155l-14.696106,0l0,-12.752155zm0,17.819759l14.696106,0l0,58.784332l-14.696106,0l0,-58.784332z" id="svg_4"/>
    <path stroke="null" d="m227.535873,79.812653l13.682541,0l0,7.094673l0.676025,0c3.201721,-5.067619 7.256821,-7.524406 13.019714,-7.524406c12.058899,0 17.607941,8.88353 17.607941,30.22731c0,21.343765 -5.549042,30.221237 -17.607941,30.221237c-5.549042,0 -9.284882,-1.741241 -12.379181,-6.808838l-0.809784,0l0,24.324524l-14.189316,0l0,-77.5345zm22.576202,48.712936c6.403427,0 7.683517,-6.403412 7.683517,-18.888992c0,-12.486603 -1.281067,-18.88903 -7.683517,-18.88903c-6.509872,0 -7.789948,6.403435 -7.789948,18.88903c0.000015,12.48558 1.28009,18.888992 7.789948,18.888992z" id="svg_5"/>
    <path stroke="null" d="m276.691742,62.076008l14.696014,0l0,24.324551l0.450012,0c3.09436,-4.560852 6.8302,-6.898041 12.379211,-6.898041c12.058868,0 17.607941,8.823738 17.607941,30.167511c0,21.343765 -5.549072,30.311401 -17.607941,30.311401c-5.762878,0 -9.817963,-1.891205 -13.019714,-7.465576l-0.316254,0l0,6.081116l-14.18927,0l0,-76.520962zm22.723175,66.449581c6.403442,0 7.683533,-6.403412 7.683533,-18.888992c0,-12.486603 -1.281128,-18.889023 -7.683533,-18.889023c-6.509857,0 -7.789917,6.403427 -7.789917,18.889023c0,12.48558 1.28006,18.888992 7.789917,18.888992z" id="svg_6"/>
    <path stroke="null" d="m348.341705,79.435623c17.715363,-0.320267 22.62381,10.24469 22.62381,30.200958c0,19.636002 -5.762878,30.200958 -22.62381,30.200958c-17.715332,0.320267 -22.623871,-10.244705 -22.623871,-30.200958c-0.001007,-19.635986 5.761902,-30.200958 22.623871,-30.200958zm0,50.371063c5.975739,0 7.897369,-5.869301 7.897369,-20.169083c0,-14.299789 -1.920654,-20.17012 -7.897369,-20.17012c-7.256836,0 -7.8974,8.430481 -7.8974,20.17012c0,11.737587 0.640564,20.169083 7.8974,20.169083z" id="svg_7"/>
    <path stroke="null" d="m376.016937,98.562828l0,-1.412849c0,-13.232552 9.10553,-17.715363 20.203552,-17.715363c17.501556,0 20.844116,7.256821 20.844116,17.607941l0,30.200935c0,5.33622 0.443939,8.311928 1.937866,11.352486l-14.086945,0c-0.960815,-1.520309 -1.387512,-4.054123 -1.814178,-6.081161l-0.213898,0c-3.41449,6.081161 -7.577026,7.395691 -14.620026,7.395691c-10.24472,0 -13.873138,-8.788254 -13.873138,-16.471779c0,-10.778816 4.375397,-15.172432 14.513641,-17.947464l8.324127,-2.250008c4.375305,-1.173676 5.869293,-2.885498 5.869293,-6.727768c0,-4.375397 -2.045349,-7.046005 -6.954834,-7.046005c-4.48175,0 -6.954773,2.985832 -6.954773,7.467636l0,1.625687l-13.174805,0l0,0.002022zm26.858398,11.073753c-2.027039,1.493935 -4.369324,2.454758 -6.182495,2.881447c-5.975769,1.281082 -8.267303,4.162529 -8.267303,9.284874c0,4.375374 1.516235,8.003784 5.463867,8.003784c3.9487,0 8.985931,-2.561157 8.985931,-8.85717l0,-11.312935z" id="svg_8"/>
    <path stroke="null" d="m422.639008,79.812653l13.682587,0l0,9.121712l0.81076,0c2.987854,-5.574379 7.156494,-9.3386 13.238678,-9.3386c0.853363,0 1.660095,-0.053726 2.673676,0.052696l0,14.08696c-1.520325,-0.106422 -3.212891,-0.21386 -4.706848,-0.21386c-5.122314,0 -11.002777,2.667603 -11.002777,10.351105l0,34.723312l-14.696075,0l0,-58.783325z" id="svg_9"/>
    <path stroke="null" d="m485.477448,132.515854l0.092224,0c-3.201721,5.574371 -7.256836,7.449371 -13.019745,7.449371c-12.058899,0 -17.60788,-8.921021 -17.60788,-30.264801c0,-21.343773 5.548981,-30.165482 17.60788,-30.165482c5.549042,0 9.284912,2.304764 12.379181,6.865616l0.041565,0l0,-24.324551l14.696045,0l0,76.520962l-14.18927,0l0,-6.081116zm-8.125458,-3.990265c6.509888,0 7.790009,-6.403412 7.790009,-18.888992c0,-12.486603 -1.280121,-18.88903 -7.790009,-18.88903c-6.403381,0 -7.683502,6.403435 -7.683502,18.88903c0,12.48558 1.281097,18.888992 7.683502,18.888992z" id="svg_10"/>
   </g>
   <g stroke="null" id="svg_11">
    <rect stroke="null" x="-0.000015" y="36.654827" fill="#E12828" width="126.690354" height="126.690354" id="svg_12"/>
    <polygon stroke="null" fill="#FFFFFF" points="76.27973937988281,61.992897033691406 50.94673538208008,61.992897033691406 25.338054656982422,61.992897033691406 25.338054656982422,87.29245376586914 25.338054656982422,112.62443923950195 25.338054656982422,138.00709915161133 50.676124572753906,138.00709915161133 50.676124572753906,112.66903305053711 76.01419067382812,112.66903305053711 76.01419067382812,87.33096694946289 101.35226440429688,87.33096694946289 101.35226440429688,61.992897033691406 " id="svg_13"/>
    <rect stroke="null" x="50.676126" y="87.330969" fill="#FAD4D4" width="25.338071" height="25.338071" id="svg_14"/>
    <polygon stroke="null" fill="#FAEAEA" points="76.27973937988281,61.992897033691406 50.676124572753906,61.992897033691406 50.676124572753906,87.33096694946289 76.27973937988281,87.33096694946289 101.35226440429688,87.33096694946289 101.35226440429688,61.992897033691406 " id="svg_15"/>
   </g>
  </g>
 </g>
</svg>