<svg width="500" height="200" xmlns="http://www.w3.org/2000/svg"><path fill="none" d="M-1-1h502v202H-1z"/><g stroke="null"><path d="M139.36 62.076h42.567v12.67h-27.365v18.242h27.365v12.67h-27.365v32.94H139.36V62.075zm47.128 0h14.696v76.52h-14.696v-76.52zm20.397 0h14.696v12.752h-14.695V62.076zm0 17.82h14.696v58.784h-14.695V79.896zm20.651-.083h13.682v7.094h.676c3.202-5.067 7.257-7.524 13.02-7.524 12.06 0 17.608 8.883 17.608 30.227s-5.55 30.22-17.608 30.22c-5.55 0-9.285-1.74-12.38-6.807h-.81v24.324h-14.188V79.813zm22.576 48.713c6.404 0 7.684-6.404 7.684-18.89s-1.28-18.888-7.684-18.888c-6.51 0-7.79 6.403-7.79 18.89 0 12.484 1.28 18.888 7.79 18.888zm26.58-66.45h14.696V86.4h.45c3.094-4.56 6.83-6.897 12.38-6.897 12.058 0 17.607 8.823 17.607 30.167s-5.55 30.31-17.608 30.31c-5.763 0-9.818-1.89-13.02-7.464h-.316v6.08h-14.188v-76.52zm22.723 66.45c6.403 0 7.683-6.404 7.683-18.89s-1.28-18.888-7.683-18.888c-6.51 0-7.79 6.403-7.79 18.89 0 12.484 1.28 18.888 7.79 18.888zm48.927-49.09c17.715-.32 22.624 10.244 22.624 30.2 0 19.637-5.763 30.202-22.624 30.202-17.716.32-22.624-10.245-22.624-30.2 0-19.637 5.762-30.202 22.624-30.202zm0 50.37c5.975 0 7.897-5.87 7.897-20.168 0-14.3-1.922-20.17-7.898-20.17-7.257 0-7.898 8.43-7.898 20.17 0 11.737.64 20.17 7.898 20.17zm27.675-31.243V97.15c0-13.233 9.105-17.715 20.203-17.715 17.502 0 20.845 7.256 20.845 17.608v30.2c0 5.337.444 8.312 1.937 11.353h-14.086c-.96-1.52-1.388-4.054-1.815-6.08h-.213c-3.414 6.08-7.577 7.395-14.62 7.395-10.244 0-13.873-8.788-13.873-16.47 0-10.78 4.376-15.174 14.514-17.95l8.324-2.25c4.375-1.172 5.87-2.884 5.87-6.727 0-4.375-2.046-7.046-6.955-7.046-4.482 0-6.955 2.986-6.955 7.468v1.626h-13.175v.003zm26.858 11.074c-2.027 1.494-4.37 2.454-6.182 2.88-5.976 1.282-8.267 4.164-8.267 9.286 0 4.375 1.516 8.004 5.463 8.004 3.948 0 8.985-2.56 8.985-8.857v-11.313zm19.765-29.824h13.682v9.12h.81c2.988-5.573 7.157-9.337 13.24-9.337.852 0 1.66-.054 2.673.052v14.087c-1.52-.106-3.213-.213-4.707-.213-5.122 0-11.003 2.667-11.003 10.35v34.724H422.64V79.813zm62.837 52.703h.093c-3.202 5.574-7.257 7.45-13.02 7.45-12.06 0-17.608-8.922-17.608-30.266 0-21.343 5.55-30.165 17.608-30.165 5.55 0 9.285 2.305 12.38 6.866h.04V62.077h14.697v76.52h-14.19v-6.08zm-8.125-3.99c6.51 0 7.79-6.404 7.79-18.89s-1.28-18.888-7.79-18.888c-6.403 0-7.684 6.403-7.684 18.89 0 12.484 1.282 18.888 7.684 18.888z"/><path fill="#E12828" d="M0 36.655h126.69v126.69H0z"/><path fill="#fff" d="M76.28 61.993H25.337v76.014h25.34V112.67h25.337V87.33h25.338V61.994z"/><path fill="#FAD4D4" d="M50.676 87.33h25.338v25.34H50.676z"/><path fill="#FAEAEA" d="M76.28 61.993H50.676V87.33h50.676V61.994z"/></g></svg>