<?xml version="1.0"?>
<svg width="500" height="200" xmlns="http://www.w3.org/2000/svg">
 <g>
  <g stroke="null" id="svg_9">
   <title transform="translate(0,10) translate(0,-10) translate(0,-10) translate(0,45.48188400268555) translate(0.1999664306640625,0) translate(0,2) scale(0.732981264591217) translate(0,-2) " stroke="null">Layer 1</title>
   <path stroke="null" fill="#666" d="m7.529779,140.392456l0,-42.586212l-7.329812,0l0,-1.97905l7.329812,0l0,-7.989494c0,-6.157051 1.17277,-10.921425 3.51831,-14.366432s5.643956,-5.130875 9.82195,-5.130875c1.90575,0 3.664906,0.293198 5.350761,0.952881c1.685858,0.58638 3.005222,1.392662 3.884802,2.418831l-1.539261,1.172775c-0.80628,-0.806274 -1.832453,-1.392662 -3.225119,-1.905746c-1.392662,-0.513092 -2.858625,-0.732986 -4.324589,-0.732986c-3.664906,0 -6.523533,1.539261 -8.502583,4.544479c-1.979049,3.005226 -2.931925,7.403114 -2.931925,13.120369l0,7.989487l15.099415,0l0,1.97905l-15.246011,0l0,42.659515l-1.905752,0l0,-0.146606l0,0.000015zm50.355811,-48.37677c-4.837677,0.219894 -8.942368,1.759163 -12.387383,4.691086c-3.445011,2.931923 -5.86385,6.890015 -7.256512,11.947594l0,31.884682l-1.97905,0l0,-50.649002l1.97905,0l0,13.047073c1.759151,-3.591614 4.104694,-6.523544 7.036617,-8.795776c2.931927,-2.272255 6.083748,-3.664909 9.382164,-4.031403c0.659672,-0.073303 1.246067,-0.146599 1.832455,-0.146599s1.026161,-0.073296 1.392654,-0.073296l0,1.97905l0,0.146591l0.000004,0zm27.560104,49.476242c-3.298416,0 -6.450233,-0.732986 -9.308861,-2.125641c-2.931923,-1.39267 -5.49736,-3.298416 -7.623001,-5.643967c-2.198944,-2.345535 -3.884804,-5.130859 -5.130871,-8.355988c-1.246071,-3.15181 -1.90575,-6.523529 -1.90575,-10.04184c0,-3.591599 0.659679,-6.890015 1.90575,-10.04184c1.246067,-3.151825 3.00523,-5.937149 5.204174,-8.35598c2.198936,-2.418839 4.764374,-4.324593 7.696297,-5.717262c2.931931,-1.39267 6.010452,-2.125641 9.235565,-2.125641s6.303642,0.732971 9.235565,2.125641s5.49736,3.298416 7.623001,5.717262c2.198944,2.418831 3.884804,5.204163 5.20417,8.35598c1.319366,3.151825 1.979057,6.523529 1.979057,10.04184c0,3.518311 -0.659676,6.816727 -1.905746,10.04184c-1.246078,3.151825 -3.005234,5.937149 -5.130867,8.355988c-2.198944,2.345551 -4.691086,4.251297 -7.623009,5.643967c-3.005234,1.465958 -6.157043,2.125641 -9.45546,2.125641l-0.000015,0zm-22.062744,-25.874252c0,3.225128 0.586388,6.30365 1.759155,9.235565c1.172768,2.931931 2.712036,5.49736 4.691078,7.623016c1.97905,2.198944 4.324593,3.884796 6.963326,5.130875c2.638733,1.246063 5.49736,1.905746 8.575882,1.905746c3.005211,0 5.79055,-0.659683 8.502586,-1.979065c2.712036,-1.319351 5.057564,-3.078506 7.109924,-5.277451c2.052338,-2.198944 3.664909,-4.764374 4.837685,-7.696304c1.17276,-2.931931 1.759148,-6.010452 1.759148,-9.308868c0,-3.225113 -0.586388,-6.303635 -1.759148,-9.235565c-1.172775,-2.931923 -2.785332,-5.49736 -4.764381,-7.696304s-4.397888,-3.958099 -7.036629,-5.277451c-2.712029,-1.319374 -5.49736,-1.979057 -8.502586,-1.979057s-5.79055,0.659683 -8.502586,1.979057c-2.712029,1.319359 -5.057571,3.078506 -7.036621,5.277451c-1.97905,2.272247 -3.591606,4.837677 -4.764381,7.769615c-1.246063,3.078514 -1.832451,6.230339 -1.832451,9.528748l0.000011,0l-0.000011,-0.000008zm97.999588,24.921371l-1.97905,0l0,-28.293068c0,-7.403114 -1.026184,-12.753883 -3.078522,-16.125595c-2.052338,-3.371712 -5.350754,-5.057571 -9.895248,-5.057571c-2.492126,0 -4.91098,0.439789 -7.256516,1.319374c-2.345535,0.87957 -4.544479,2.125641 -6.596832,3.664902c-1.979034,1.539261 -3.738205,3.371712 -5.277458,5.570663c-1.465965,2.125641 -2.56543,4.471184 -3.298416,6.890015l0,31.884674l-1.979042,0l0,-50.502396l1.979042,0l0,13.047073c1.026161,-1.979057 2.345543,-3.884804 3.958084,-5.570671s3.371727,-3.151825 5.350761,-4.397888c1.97905,-1.172775 4.031403,-2.125633 6.230347,-2.85862c2.198944,-0.659683 4.471207,-1.026169 6.743423,-1.026169c5.204178,0 9.015671,1.832443 11.361206,5.570656c2.418839,3.738197 3.591629,9.602051 3.591629,17.591553l0,28.146477l0.146591,0.146591zm35.036499,-2.345535c-0.952866,0.659683 -1.832458,1.099472 -2.712021,1.465958c-0.806274,0.293198 -1.759171,0.659683 -2.858643,0.952881s-2.345505,0.439789 -3.664886,0.439789c-2.345535,0 -4.397888,-0.732986 -6.157028,-2.125656c-1.759171,-1.392639 -2.638748,-3.298416 -2.638748,-5.643951l0,-41.413437l-7.329803,0l0,-1.97905l7.329803,0l0,-17.591553l1.97905,0l0,17.591553l12.167511,0l0,1.97905l-12.167511,0l0,41.266846c0,1.905762 0.732986,3.298416 2.125671,4.324585c1.392639,1.026184 3.005203,1.539261 4.691055,1.539261c1.099457,0 2.125671,-0.146591 3.078537,-0.366486c0.952866,-0.219894 1.832458,-0.513092 2.56543,-0.80629c0.732986,-0.293182 1.319366,-0.58638 1.759155,-0.806274c0.439789,-0.293198 0.659653,-0.439789 0.732986,-0.513077l1.099472,1.539246l0,0.146606l-0.000031,0zm28.293076,3.298416c-3.298416,0 -6.450226,-0.732986 -9.382141,-2.125641s-5.49736,-3.298416 -7.769608,-5.717255c-2.198944,-2.418839 -3.958099,-5.277466 -5.277481,-8.502579c-1.319351,-3.225113 -1.979034,-6.596832 -1.979034,-10.261734c0,-3.591614 0.58638,-6.89003 1.832458,-10.041855c1.246048,-3.078522 2.931931,-5.863846 5.130859,-8.209381c2.198944,-2.345551 4.691086,-4.177994 7.623001,-5.49736c2.858627,-1.319374 6.010437,-1.97905 9.308853,-1.97905c3.371719,0 6.52356,0.659676 9.455475,2.052345s5.49736,3.225105 7.696304,5.570656s3.884796,5.057579 5.204147,8.282692c1.319382,3.151817 1.979065,6.596832 1.979065,10.188438l0,1.09948l-46.251129,0c0.293198,3.225105 1.026169,6.303627 2.272247,9.088951s2.931931,5.277466 4.91098,7.329819s4.324585,3.738205 6.963333,4.910965c2.638718,1.172775 5.424057,1.832458 8.355972,1.832458c1.979034,0 3.811493,-0.293198 5.717255,-0.806274c1.832443,-0.513092 3.591599,-1.246078 5.204163,-2.198944c1.612579,-0.952881 3.078537,-2.052353 4.251282,-3.371719c1.246078,-1.319366 2.198944,-2.712036 2.931931,-4.251297l1.832458,0.513092c-0.732986,1.759155 -1.759155,3.371719 -3.078506,4.837677c-1.319382,1.465958 -2.858627,2.712021 -4.691086,3.811493c-1.759171,1.099472 -3.738205,1.905762 -5.863846,2.565445c-1.979065,0.58638 -4.178009,0.879578 -6.376953,0.879578zm21.769562,-27.047005c-0.21991,-3.371712 -0.879593,-6.450233 -2.125671,-9.308868c-1.246033,-2.85862 -2.858597,-5.277458 -4.837646,-7.329803c-1.979065,-2.052353 -4.251312,-3.664909 -6.890045,-4.837685c-2.565445,-1.172775 -5.350754,-1.759148 -8.355957,-1.759148c-3.005249,0 -5.790558,0.586388 -8.355988,1.759148c-2.56543,1.172775 -4.91098,2.785324 -6.890015,4.837685s-3.518326,4.544487 -4.691086,7.403114c-1.172775,2.85862 -1.832443,5.937134 -2.052353,9.235558l44.198776,0l-0.000015,0zm52.847946,26.094139l-1.979004,0l0,-28.293083c0,-7.403114 -1.026184,-12.753868 -3.078583,-16.125587c-2.052307,-3.371719 -5.350708,-5.057571 -9.895203,-5.057571c-2.492126,0 -4.91098,0.439789 -7.256531,1.319366c-2.34552,0.879578 -4.544495,2.125648 -6.596832,3.664902c-1.979034,1.539261 -3.73822,3.371719 -5.277466,5.570663c-1.465973,2.125648 -2.56546,4.471191 -3.298401,6.89003l0,31.884674l-1.979034,0l0,-50.502411l1.979034,0l0,13.047081c1.026184,-1.97905 2.345551,-3.884811 3.958099,-5.570671s3.371704,-3.151825 5.350769,-4.397888c1.979065,-1.172775 4.031403,-2.125641 6.230347,-2.85862c2.198914,-0.659683 4.471191,-1.026176 6.743439,-1.026176c5.204132,0 9.015656,1.832458 11.361176,5.570656c2.418823,3.738213 3.591614,9.602058 3.591614,17.591553l0,28.146477l0.146576,0.146591l0,0.000015zm36.429138,0.952866c-3.51825,0 -6.743408,-0.732971 -9.748596,-2.272232c-3.00528,-1.465958 -5.570709,-3.445007 -7.769653,-5.937149c-2.198914,-2.492142 -3.884796,-5.277466 -5.057526,-8.355988c-1.172791,-3.078522 -1.832458,-6.303635 -1.832458,-9.528748c0,-3.518318 0.586365,-6.816727 1.759155,-9.968552c1.172729,-3.151825 2.785278,-5.937149 4.91095,-8.355988c2.125671,-2.418839 4.617798,-4.324593 7.47644,-5.717247c2.858582,-1.392662 5.937103,-2.125648 9.308838,-2.125648c2.34552,0 4.544495,0.366493 6.596863,1.026169c2.052338,0.659683 3.958069,1.612564 5.717224,2.712036c1.759155,1.099472 3.298431,2.492134 4.69104,3.958099c1.3927,1.539261 2.638794,3.151817 3.664917,4.837677l0,-32.251175l1.979065,0l0,67.141068c0,1.319366 0.513062,1.979065 1.539307,1.979065l0,1.979034c-0.586426,0 -1.026245,-0.073288 -1.246094,-0.219894c-0.732971,-0.293182 -1.246094,-0.806274 -1.685852,-1.539246c-0.366516,-0.659698 -0.586426,-1.39267 -0.586426,-2.198944l0,-6.596832c-1.099426,1.685852 -2.418793,3.225113 -3.811462,4.617783c-1.465973,1.392654 -3.078552,2.638718 -4.764374,3.664902s-3.518341,1.832458 -5.424103,2.418839c-1.832428,0.513092 -3.811462,0.732971 -5.717255,0.732971zm0,-1.905746c1.979095,0 4.031403,-0.439789 6.303711,-1.246063c2.272247,-0.806274 4.397858,-1.97905 6.303619,-3.371719c1.979034,-1.392654 3.591614,-3.005234 4.91098,-4.91098c1.319366,-1.905762 2.052368,-3.884796 2.198944,-5.937149l0,-18.397835c-0.732971,-1.979042 -1.832458,-3.884789 -3.298431,-5.717247c-1.465973,-1.759155 -3.151794,-3.371719 -5.057587,-4.691086c-1.905762,-1.319366 -3.884796,-2.418839 -6.010437,-3.151817c-2.125671,-0.806274 -4.251282,-1.172768 -6.230347,-1.172768c-3.298431,0 -6.303619,0.732979 -8.869049,2.125641c-2.638763,1.39267 -4.91098,3.225121 -6.743439,5.497368c-1.905762,2.27224 -3.298401,4.837669 -4.324554,7.7696c-1.026215,2.931915 -1.539276,5.863853 -1.539276,8.869064c0,3.151825 0.586365,6.230347 1.759125,9.088974c1.172791,2.858627 2.78537,5.424057 4.764374,7.696304c1.979065,2.272247 4.397919,4.031403 7.109955,5.350769c2.712006,1.392654 5.570618,2.052338 8.722412,2.052338l0,0.146606l0,0z" id="svg_1"/>
   <path stroke="null" fill="#5DC4C6" d="m379.444519,140.758942l0,-73.444717c0,-0.439789 0.146606,-0.806282 0.513092,-1.172775c0.366486,-0.29319 0.732971,-0.513084 1.246033,-0.513084l15.172699,0c0.439819,0 0.806274,0.146591 1.172791,0.513084c0.293152,0.293198 0.513123,0.732986 0.513123,1.172775c0,0.439789 -0.146606,0.879578 -0.513123,1.246063c-0.293213,0.366493 -0.732971,0.513092 -1.172791,0.513092l-13.413574,0l0,69.99971l13.413574,0c0.439819,0 0.806274,0.146591 1.172791,0.513092c0.293152,0.366486 0.513123,0.732971 0.513123,1.246078s-0.146606,0.806274 -0.513123,1.172775c-0.293213,0.293182 -0.732971,0.513077 -1.172791,0.513077l-15.172699,0c-0.439789,0 -0.879547,-0.146591 -1.246033,-0.513077c-0.366486,-0.366501 -0.513092,-0.732986 -0.513092,-1.246078l0,-0.000015z" id="svg_2"/>
   <path stroke="null" fill="#666" d="m427.967834,138.046906c-0.952881,0.659698 -1.832458,1.099472 -2.712036,1.465973c-0.806305,0.293198 -1.759125,0.659683 -2.858612,0.952881s-2.345551,0.439789 -3.664948,0.439789c-2.34549,0 -4.397888,-0.732986 -6.157043,-2.125656c-1.759155,-1.392654 -2.638672,-3.298416 -2.638672,-5.643951l0,-41.266846l-7.329834,0l0,-1.97905l7.329834,0l0,-17.591553l1.979004,0l0,17.591553l12.16748,0l0,1.97905l-12.16748,0l0,41.266846c0,1.905762 0.732971,3.298416 2.125671,4.324585c1.392639,1.026184 3.005157,1.539261 4.69104,1.539261c1.099518,0 2.125671,-0.146591 3.078491,-0.366486c0.952942,-0.219894 1.832489,-0.513092 2.56543,-0.80629c0.733032,-0.293182 1.319458,-0.58638 1.759216,-0.806274c0.439758,-0.293198 0.659668,-0.439789 0.732971,-0.513077l1.099487,1.539246zm25.141235,2.345551l-21.989441,-50.502411l2.125671,0l20.743378,47.717072l20.743317,-47.717072l2.125671,0l-21.989441,50.502411l-1.759155,0z" id="svg_3"/>
   <path stroke="null" fill="#5DC4C6" d="m481.695404,141.931717c-0.293243,-0.293198 -0.513123,-0.732986 -0.513123,-1.172775s0.146606,-0.879578 0.513123,-1.246063c0.293182,-0.366501 0.732941,-0.513107 1.172699,-0.513107l13.413635,0l0,-69.926407l-13.413635,0c-0.439758,0 -0.879517,-0.146591 -1.172699,-0.513084c-0.293243,-0.366493 -0.513123,-0.732979 -0.513123,-1.246071c0,-0.439781 0.146606,-0.806274 0.513123,-1.17276c0.293182,-0.293198 0.732941,-0.513092 1.172699,-0.513092l15.172729,0c0.439819,0 0.879608,0.146599 1.246124,0.513092c0.366486,0.29319 0.513062,0.732979 0.513062,1.17276l0,73.444717c0,0.439789 -0.146576,0.80629 -0.513062,1.172775c-0.366516,0.293182 -0.733032,0.513092 -1.246124,0.513092l-15.172729,0c-0.439758,0 -0.806244,-0.146606 -1.172699,-0.513092l0,0.000015zm-40.827087,-76.523247c-0.586395,0.659683 -2.052338,0.219894 -3.225128,-0.879578l-15.539185,-14.95282c-1.172791,-1.099468 -1.612549,-2.565434 -1.026184,-3.151817c0.586365,-0.659683 2.052307,-0.219894 3.225159,0.879578l15.539124,14.95282c1.172791,1.026169 1.61261,2.492134 1.026215,3.151817z" id="svg_4"/>
   <circle stroke="#5DC4C6" fill="none" stroke-width="4" stroke-miterlimit="10" cx="417.706095" cy="43.199138" r="5.717245" id="svg_5"/>
   <path stroke="null" fill="#5DC4C6" d="m439.475647,65.40847c0.586334,0.659683 2.052307,0.219894 3.225098,-0.879578l15.539185,-14.95282c1.172791,-1.099468 1.612549,-2.565434 1.026184,-3.151817c-0.586395,-0.659683 -2.052307,-0.219894 -3.225098,0.879578l-15.539185,14.95282c-1.172791,1.026169 -1.612549,2.492134 -1.026184,3.151817z" id="svg_6"/>
   <circle stroke="#5DC4C6" fill="none" stroke-width="4" stroke-miterlimit="10" cx="462.637846" cy="43.199138" r="5.717245" id="svg_7"/>
  </g>
 </g>

</svg>