<svg width="500" height="200" viewBox="0 0 500 200" xmlns="http://www.w3.org/2000/svg"><path d="M25.214 72.398v3.22H44.67v12.29c0 5.164-2.146 7.07-8.084 7.07H22.83c-4.527 0-8.087-1.905-8.087-7.068V62.82c0-5.166 3.558-7.074 8.084-7.074h28.326v-3.21h-36.41C9.563 52.535 0 54.43 0 63.238V87.49c0 8.814 9.563 10.7 14.743 10.7h31.59c5.184 0 10.575-1.886 10.575-10.7V72.398H25.21h.004zm271.62-19.863h-42.423v45.658h14.74v-18.24h27.683c5.18 0 12.768.01 12.768-8.144V60.687c0-8.16-7.586-8.153-12.767-8.153h.002zm-.268 18.262c0 5.162-3.043 5.94-7.57 5.94h-19.842v-20.99h19.843c4.526 0 7.57.78 7.57 5.95v9.1zm135.625-1.23V63.24c0-8.81-9.562-10.703-14.742-10.703H379.78V98.19h14.746V78.368h13.453L420.23 98.19h14.744l-12.378-20.022c4.688-.504 9.592-2.29 9.592-8.602zm-37.664-13.82h16.54c4.53 0 8.084 1.91 8.084 7.074v6.553c0 4.54-3.554 5.786-8.083 5.786h-16.544V55.745l.003.002zM67.486 63.24v24.25c0 8.816 9.566 10.7 14.745 10.7h37.666v-3.21H90.31c-4.527 0-8.08-1.907-8.08-7.07V75.618h33.865v-3.22h-33.87V62.82c0-5.164 3.558-7.072 8.084-7.072h29.586v-3.21H82.23c-5.18 0-14.748 1.892-14.748 10.702h.003zm61.184 0v24.25c0 8.816 9.562 10.7 14.743 10.7h37.667v-3.21h-29.588c-4.523 0-8.08-1.907-8.08-7.07V75.618h33.87v-3.22h-33.87V62.82c0-5.164 3.557-7.072 8.082-7.072h29.587v-3.21h-37.67c-5.18 0-14.743 1.892-14.743 10.702h.003zm205.14-10.705l-22.263 45.658h13.575l4.14-8.496h23.834l4.14 8.494h13.576l-22.257-45.656H333.81zm-2.935 33.853l10.305-21.13 10.306 21.13h-20.61zm-86.696-33.86H228.99l-15.937 15.574c-2.515 2.46-4.974 3.747-7.945 4.13V52.528h-14.746v45.657h14.748v-22.54h6.006l17.873 22.54h15.19L223.887 72.48c.404-.352 20.29-19.954 20.29-19.954v.003zm255.346 0H484.34L468.4 68.103c-2.516 2.462-4.973 3.747-7.947 4.13V52.528H445.71v45.657h14.743v-22.54h6.01l17.876 22.543h15.188l-20.293-25.707c.4-.352 20.29-19.954 20.29-19.954zM127.18 133.167c.476-.502 1.115-1.326 1.814-2.722.703-1.404 1.092-2.447 1.27-3.112l.825-2.887h-2.237l-2.22.092v-4.12l2.095.077h2.538v-3.446l-.107-3.633h4.158l-.122 3.667v3.41h1.85l2.095-.074v4.114l-2.094-.09h-1.85v3.59c.376-.207 1.01-.652 1.902-1.33.413.593.8 1.17 1.165 1.732.364.562 1.167 2.01 2.41 4.342-.488.383-1.038.808-1.635 1.27-.6.46-1.217.998-1.85 1.6-.48-1.442-.862-2.43-1.147-2.96l-.84-1.595v12.36l.123 4.334h-4.16l.105-4.388v-8.934c-1.117 1.854-2.4 3.493-3.858 4.912-.493-1.84-.846-3.01-1.055-3.502l-.673-1.538c.46-.28 1.012-.658 1.498-1.17zm33.02 10.712c-.29.482-.58.972-.86 1.472-.285.5-.747 1.472-1.392 2.917-1.41-.74-2.6-1.43-3.563-2.065-.963-.638-1.59-1.096-1.885-1.38l-1.356-1.242c-2.29 2.048-4.61 3.63-6.96 4.743-.765-1.346-1.42-2.324-1.973-2.928l-.722-.796a33.43 33.43 0 0 0 2.943-1.13c1.082-.472 2.474-1.5 4.176-3.078a38.995 38.995 0 0 1-.887-1.574c-.23-.433-.573-1.178-1.026-2.23-.45-1.055-.723-1.827-.818-2.31l-.67-2.705a93.297 93.297 0 0 1-.775 5.948c-.34 2.113-1.048 3.995-2.124 5.642-1.074 1.648-2.37 3.265-3.884 4.847-1.14-1.434-1.914-2.336-2.324-2.706l-.775-.704c.764-.556 1.36-1.048 1.795-1.472.434-.428.978-1.197 1.63-2.31a15.38 15.38 0 0 0 1.507-3.455c.352-1.19.594-2.315.725-3.368.127-1.06.25-2.408.367-4.052.12-1.642.193-3.003.223-4.083.028-1.085 0-2.68-.08-4.79l-.088-2.075h-.58l-2.906.092v-4.17l2.853.13h13.374l1.09 1.185-1.552 8.747h4.212l.846 1.37c-.388 1.804-.688 3.124-.908 3.966a79.99 79.99 0 0 1-.795 2.833 45.932 45.932 0 0 1-.976 2.96c-.34.92-.656 1.627-.95 2.12l-1.216 2.13c.42.447 1.034 1.01 1.832 1.687.798.68 2.29 1.29 4.476 1.835l-.002-.003zm-11.928-18.36c.01.887.046 1.628.098 2.223.054.593.18 1.373.378 2.343s.458 1.98.775 3.038c.318 1.055.566 1.737.74 2.046l.97 1.87c.383-.75.686-1.373.898-1.87.213-.493.498-1.35.858-2.564.356-1.218.57-2 .642-2.345l.264-1.37h-3.053l-1.85.075c.178-.8.313-1.453.41-1.945.09-.492.254-1.46.482-2.9.23-1.437.367-2.348.413-2.732l.3-2.39h-5.02a247.637 247.637 0 0 0-.072 3.502l-.052 3.15c.292.012 1.232-.03 2.818-.13h.004zm63.015 4.9c-.775-.766-1.238-1.258-1.38-1.472l-.994-1.284c-.945.93-2.037 1.88-3.27 2.85a21.04 21.04 0 0 0-.978-1.012c-.2-.18-.99-.852-2.38-2.01.694-.38 1.366-.772 2.01-1.182.648-.41 1.56-1.154 2.74-2.24 1.182-1.082 2.064-2.072 2.652-2.968l.718-1.076h-5.75v2.495l.093 1.985h-4.568l.092-2.04v-3.968l-.092-2.532 4.35.13h9.235c-.646-.757-1.462-1.586-2.444-2.494a34.472 34.472 0 0 0 3.778-2.155c.43.443.97.982 1.616 1.62.645.634 1.27 1.28 1.87 1.935-.457.38-.882.743-1.277 1.096h9.366l4.186-.13-.108 2.7v4.083l.107 1.85h-4.56l.07-1.816v-2.76h-12.51c.432.276.892.523 1.383.737l-1.078 1.23h9.578l1.904 2.967a96.733 96.733 0 0 1-2.217 2.4c-.81.842-2.21 1.938-4.198 3.285 1.52.566 2.866.98 4.034 1.24 1.168.256 2.508.45 4.026.574 1.517.127 3.277.072 5.275-.17-.657 1.79-1.05 3.06-1.165 3.82l-.2 1.152a72.073 72.073 0 0 1-4.87-.51v7.767l.09 3.08h-4.35v-.55h-12.56v.415h-4.42l.09-3.116v-7.595c-1.03.278-2.648.63-4.852 1.06-.397-1.386-.712-2.34-.954-2.856l-.68-1.49c1.7-.126 3.02-.265 3.954-.417.933-.153 2.293-.47 4.072-.954 1.778-.483 3.302-1.04 4.572-1.67l-.007-.004zm12.474 5.84c-2.91-.642-5.797-1.682-8.66-3.12-2.407 1.137-4.24 1.892-5.502 2.268l-2.71.85h16.873v.002zm-14.25 6.988h12.562v-3.15h-12.56v3.154-.004zm2.803-17.704c.407.517.79.967 1.143 1.35.35.386.978.93 1.874 1.637 1.413-.908 2.343-1.556 2.786-1.947l1.205-1.04h-7.007zm61.31 7.367c-1.16-1.63-2.017-2.69-2.57-3.185l-.883-.795c1.402-.592 2.844-1.62 4.33-3.077a31.918 31.918 0 0 0 3.954-4.685c1.152-1.666 2.034-3.37 2.645-5.114l.385-1.074c1.446.927 2.908 1.636 4.388 2.13a371.133 371.133 0 0 1-3.364 5.836c-.93 1.57-2.27 3.293-4.018 5.17-1.752 1.875-3.374 3.474-4.867 4.795zm3.096 7.032c.555-.477 1.248-1.2 2.078-2.177a47.53 47.53 0 0 0 2.493-3.233 27.678 27.678 0 0 0 2.29-3.926c.697-1.438 1.116-2.38 1.272-2.83l.316-.943a32.536 32.536 0 0 0 4.56 2.89l-1.02 1.465-1.778 2.615a79.746 79.746 0 0 1-2.66 3.584c-.906 1.142-2.07 2.446-3.49 3.917 4.452-.137 8.822-.306 13.11-.5-1.044-1.643-1.75-2.695-2.113-3.15l-1.464-1.854c1.682-.716 2.75-1.266 3.207-1.65l.722-.572c3.15 4.47 5.652 8.145 7.507 11.024-1.985 1.545-3.002 2.34-3.048 2.386l-.968.93a30.85 30.85 0 0 0-.6-1.346c-.19-.39-.587-1.1-1.198-2.14-2.182.125-5.297.37-9.337.742-4.042.372-6.524.618-7.447.742-.922.122-1.97.34-3.145.648-.27-1.275-.566-2.232-1.25-3.498l-.738-1.265c1.238-.763 2.14-1.383 2.702-1.86l-.003.002zm12.112-25.52c1.468.223 3.043.298 4.722.223-.036.517-.05.986-.043 1.4.005.412.054.93.15 1.553.094.627.412 1.693.96 3.205.547 1.514 1.397 2.695 2.345 3.743 1.468 1.62 3.718 2.928 4.21 3.173.83.415 1.768.837 2.72.985 0 0-.38.382-1.05 1.526-.643 1.102-1.61 3.22-1.61 3.22-1.905-.93-3.593-2.04-5.076-3.33-1.478-1.288-2.64-2.583-3.478-3.89a21.27 21.27 0 0 1-2.025-3.955c-.513-1.335-.87-2.442-1.076-3.324-.207-.88-.458-2.392-.748-4.528zm82.162.26l2.855-.076-.093 3.282v24.458l.092 5.09h-4.038v-.76h-21.39v.633h-4.033l.104-4.486v-24.55l-.106-3.668 2.905.076h23.704zm-22.606 28.272h21.425V118.59h-21.425v24.364zm3.204-12.523l-2.165.093v-3.91l2.272.13h15.4l1.905-.092v3.836l-1.78-.056h-3.594v6.39c0 .556.075.964.228 1.224.156.26.436.352.845.28.34-.05.612-.183.803-.4.194-.215.303-.69.327-1.416l.03-1.147c.51.195.89.33 1.148.405l1.657.443 1.04.3c-.08.666-.205 1.56-.37 2.668-.164 1.11-.56 1.888-1.18 2.332-.623.446-1.463.68-2.52.703-1.973.065-3.438-.042-4.395-.312-.956-.27-1.435-.948-1.435-2.02v-9.448h-1.972a83.811 83.811 0 0 1-.275 3.98 9.3 9.3 0 0 1-1.462 4.264c-.84 1.31-2.398 2.618-4.68 3.93-.328-.532-.55-.878-.67-1.04-.117-.16-.75-.97-1.9-2.426 1.808-.332 3.15-1.227 4.025-2.685.876-1.46 1.318-2.94 1.33-4.445l.036-1.575h-2.647v-.002zm-1.107-9.765l3.12.115 11.768.018 2.36-.092v3.666l-2.024-.107h-12.23l-2.997.09v-3.69h.002zM0 131.878h96.422v1.582H0m403.356-1.582h96.422v1.582h-96.422" fill-rule="evenodd"/></svg>