<?xml version="1.0"?>
<svg width="500" height="200" xmlns="http://www.w3.org/2000/svg">
 <g>
  <title>background</title>
  <rect x="-1" y="-1" width="502" height="202" id="canvas_background" fill="none"/>
 </g>

 <g>
  <title>Layer 1</title>
  <g stroke="null" id="Logo">
   <g stroke="null" id="svg_2">
    <g stroke="null" opacity="0.7" id="svg_3">
     <rect stroke="null" x="0.959733" y="124.990748" fill="#3D515B" width="34.025406" height="17.01324" id="svg_4"/>
     <rect stroke="null" x="51.996233" y="124.990748" fill="#3D515B" width="34.003941" height="17.01324" id="svg_5"/>
     <rect stroke="null" x="0.933975" y="90.965342" fill="#3D515B" width="85.076932" height="17.01324" id="svg_6"/>
     <rect stroke="null" x="0.959733" y="56.942082" fill="#3D515B" width="51.042939" height="17.012167" id="svg_7"/>
     <rect stroke="null" x="69.009473" y="56.942082" fill="#3D515B" width="17.012167" height="17.012167" id="svg_8"/>
    </g>
    <g stroke="null" id="svg_9">
     <path stroke="null" fill="#404041" d="m333.001251,56.844414c-27.322937,0 -41.434052,19.321808 -41.434052,43.15667c0,23.835915 13.763367,43.159851 41.434052,43.159851s41.434082,-19.323936 41.434082,-43.159851c0.001099,-23.834862 -14.112213,-43.15667 -41.434082,-43.15667zm20.670868,43.233932l0,0c-0.019287,15.327179 -5.183807,27.741516 -20.670898,27.741516s-20.652618,-12.413292 -20.668732,-27.741516l0,0c0,-0.012871 0,-0.024658 0,-0.037567s0,-0.024666 0,-0.038635l0,0c0.016113,-15.32608 5.182739,-27.739349 20.66983,-27.739349c15.485992,0 20.650513,12.413269 20.6698,27.739349l0,0c0,0.013954 0,0.025764 0,0.038635s0,0.024696 0,0.037567z" id="svg_10"/>
     <path stroke="null" fill="#404041" d="m210.659821,142.002914l0,-119.322357c0,0 15.73822,-2.235592 16.958496,-2.399799c1.382355,-0.186741 3.217621,0.797432 3.217621,2.74324c0,2.130413 0,44.233135 0,44.233135c3.2659,-3.104935 6.862396,-5.607765 10.781937,-7.514923c3.922745,-1.905029 8.52269,-2.859154 13.807419,-2.859154c4.575317,0 8.628998,0.775963 12.16861,2.328957c3.541718,1.549789 6.496368,3.730637 8.865051,6.532906c2.368652,2.806557 4.166412,6.155121 5.392029,10.048882c1.224609,3.893791 1.837433,8.18251 1.837433,12.866196l0,53.341835l-20.177185,0l0,-53.341835c0,-5.118347 -1.184875,-9.080818 -3.553528,-11.887367c-2.369781,-2.803345 -5.92334,-4.206093 -10.662811,-4.206093c-3.484879,0 -6.750793,0.789925 -9.798859,2.370819c-3.051254,1.579834 -5.937225,3.728493 -8.660095,6.453491l0,60.612083l-20.176117,0l0,-0.000015z" id="svg_11"/>
     <path stroke="null" fill="#404041" d="m480.026489,143.152374c-13.884705,0 -22.586609,-8.080536 -22.586609,-23.155479l0,-44.677467l-15.648071,0c0,0 3.325989,-11.503143 3.588928,-12.408974c0.264069,-0.904755 0.952026,-1.877129 2.333282,-2.069237s9.706512,-1.353378 9.706512,-1.353378l3.84549,-24.463776c0,0 11.298126,-1.592712 13.089386,-1.859955c1.691467,-0.253269 3.225159,0.964859 3.225159,2.80764c0,1.84063 0,23.51609 0,23.51609l19.790833,0l0,15.831604l-19.790833,0l0,44.075348c0,6.017754 3.664093,8.317726 7.175751,8.317726c2.146515,0 5.086151,-1.139801 7.279938,-2.157242c1.355469,-0.62677 3.455811,-0.162048 3.998962,1.730087c0.479675,1.67646 3.030823,10.574806 3.030823,10.574806c-2.201233,1.42099 -9.15918,5.292221 -19.039551,5.292221l0,-0.000015z" id="svg_12"/>
     <path stroke="null" fill="#404041" d="m430.703979,75.583443c-3.932404,-1.277161 -11.323914,-3.321716 -18.354828,-3.321716c-7.163971,0 -12.80072,2.474922 -12.80072,8.431488c0,7.439819 12.148193,9.605637 20.463776,12.638657c5.559448,2.027374 20.468079,5.980179 20.468079,22.014603c0,19.47744 -16.175049,27.804832 -33.429779,27.804832c-17.256897,0 -27.451721,-6.418076 -27.451721,-6.418076s2.676697,-9.455391 3.218658,-11.321785c0.490509,-1.679642 2.442749,-2.26886 3.686646,-1.791275c4.441132,1.711853 12.46051,4.091263 21.525238,4.091263c9.177399,0 13.617462,-2.802277 13.617462,-8.776001c0,-7.950684 -12.392883,-10.380524 -20.589325,-12.966003c-5.646423,-1.779449 -20.591492,-5.929733 -20.591492,-23.564384c0,-17.371704 15.25415,-25.522007 31.556885,-25.522007c13.799957,0 20.56897,2.885983 25.625092,5.461803c0,0 -2.817261,9.819214 -3.23584,11.282051c-0.493713,1.738678 -1.920044,2.53611 -3.70813,1.956543l0,0.000008z" id="svg_13"/>
     <path stroke="null" fill="#404041" d="m202.783188,59.759377c0,-1.879265 -1.605591,-2.954681 -3.137131,-2.779732c-6.771149,0.775963 -11.601883,3.962456 -14.727234,6.92894c-6.136841,-4.808189 -14.655243,-7.103882 -24.21582,-7.103882c-19.168335,0 -34.144501,9.251457 -34.144501,29.42437c0,11.580414 4.929443,19.560066 12.757721,24.257698c-5.813828,2.751839 -9.686066,8.591415 -9.686066,14.332253c0,9.603493 7.586823,12.610756 7.586823,12.610756s-13.265434,6.438446 -13.265434,19.319672c0,16.489487 15.174767,23.156525 33.717369,23.156525c26.728363,0 45.117493,-11.03949 45.117493,-31.310059c0,-12.47551 -9.5466,-19.362579 -30.350586,-20.181488c-12.345642,-0.487251 -20.342438,-0.931587 -22.3237,-1.587334c-2.617661,-0.869339 -3.90448,-2.965393 -3.90448,-5.279358c0,-2.554337 2.098175,-4.986336 5.405975,-6.656319c2.884918,0.510864 5.929718,0.763084 9.091553,0.763084c19.184418,0 34.145599,-9.224632 34.145599,-29.424362c0,-4.898331 -0.884369,-9.150558 -2.492096,-12.783539c2.818359,-1.503632 6.286057,-2.561867 10.426666,-2.561867c-0.002151,0 -0.002151,-9.411362 -0.002151,-11.125359zm-52.824524,82.347649c0,0 10.066055,0.380997 20.124588,0.846802c11.300308,0.522675 14.821655,2.957886 14.821655,8.809265c0,7.148956 -9.820236,14.10257 -23.543976,14.10257c-13.027161,0 -19.534302,-4.532349 -19.534302,-12.0784c0,-4.329529 2.286026,-9.173126 8.13205,-11.680267l-0.000015,0.000031zm10.780838,-40.53363c-9.080811,0 -16.165359,-4.823212 -16.165359,-15.344322c0,-10.522194 7.091019,-15.345406 16.165359,-15.345406c9.075439,0 16.165359,4.810333 16.165359,15.345406s-7.081314,15.344322 -16.165359,15.344322z" id="svg_14"/>
    </g>
   </g>
  </g>
 </g>
</svg>