<svg xmlns="http://www.w3.org/2000/svg" viewBox="0 0 391.2 92"><path d="M119.1 67.8c-1.4-.6-2.4-1.7-2.4-3.3 0-1.9 1.6-3.4 3.4-3.4.6 0 1 .1 1.4.3 2.4 1.1 5 1.8 8.2 1.8 5.8 0 8.5-2.8 8.5-8.1v-1.4c-2.5 3-5.2 4.8-9.7 4.8-6.9 0-13.2-5-13.2-13.8v-.1c0-8.9 6.4-13.8 13.2-13.8 4.6 0 7.3 1.9 9.6 4.4V35c0-2.3 1.9-4.2 4.2-4.2 2.3 0 4.2 1.9 4.2 4.2v19.1c0 5.3-1.3 9.2-3.8 11.7-2.8 2.8-7 4-12.8 4-3.9.1-7.3-.6-10.8-2zm19.1-23.2v-.1c0-4-3.2-6.9-7.3-6.9s-7.2 2.8-7.2 6.9v.1c0 4.1 3.1 6.9 7.2 6.9s7.3-2.9 7.3-6.9zm13-9.5c0-2.3 1.9-4.2 4.2-4.2 2.3 0 4.2 1.9 4.2 4.2v1.3c1.2-2.9 3.2-5.5 5.7-5.5 2.6 0 4.1 1.7 4.1 4.1 0 2.2-1.4 3.5-3.2 3.9-4.3 1-6.6 4.3-6.6 10.2V57c0 2.3-1.9 4.2-4.2 4.2-2.3 0-4.2-1.9-4.2-4.2V35.1zm17.3 17.2v-.1c0-6.5 4.9-9.5 12-9.5 3 0 5.2.5 7.3 1.2v-.5c0-3.5-2.2-5.4-6.4-5.4-2.3 0-4.2.3-5.8.8-.5.2-.8.2-1.2.2-1.9 0-3.5-1.5-3.5-3.4 0-1.5.9-2.8 2.3-3.3 2.7-1 5.5-1.6 9.5-1.6 4.6 0 7.9 1.2 10 3.3 2.2 2.2 3.2 5.5 3.2 9.5V57c0 2.3-1.8 4-4.1 4-2.4 0-4-1.7-4-3.5v-.1c-2 2.3-4.9 3.8-9 3.8-5.7.2-10.3-3-10.3-8.9zm19.3-1.9v-1.5c-1.4-.7-3.3-1.1-5.4-1.1-3.6 0-5.8 1.4-5.8 4.1v.1c0 2.3 1.9 3.6 4.6 3.6 3.9 0 6.6-2.1 6.6-5.2zm12.5-15.3c0-2.3 1.9-4.2 4.2-4.2 2.3 0 4.2 1.9 4.2 4.2v.3c1.9-2.5 4.5-4.8 8.8-4.8 3.9 0 6.8 1.7 8.4 4.7 2.6-3 5.7-4.7 9.7-4.7 6.3 0 10 3.8 10 10.9V57c0 2.3-1.9 4.2-4.2 4.2-2.3 0-4.2-1.9-4.2-4.2V44.3c0-4-1.8-6-4.9-6-3.2 0-5.1 2.1-5.1 6V57c0 2.3-1.9 4.2-4.2 4.2-2.3 0-4.2-1.9-4.2-4.2V44.3c0-4-1.8-6-4.9-6-3.2 0-5.1 2.1-5.1 6V57c0 2.3-1.9 4.2-4.2 4.2-2.3 0-4.2-1.9-4.2-4.2V35.1zm49.8 0c0-2.3 1.9-4.2 4.2-4.2 2.3 0 4.2 1.9 4.2 4.2v.3c1.9-2.5 4.5-4.8 8.8-4.8 3.9 0 6.8 1.7 8.4 4.7 2.6-3 5.7-4.7 9.7-4.7 6.3 0 10 3.8 10 10.9V57c0 2.3-1.9 4.2-4.2 4.2-2.3 0-4.2-1.9-4.2-4.2V44.3c0-4-1.8-6-4.9-6-3.2 0-5.1 2.1-5.1 6V57c0 2.3-1.9 4.2-4.2 4.2-2.3 0-4.2-1.9-4.2-4.2V44.3c0-4-1.8-6-4.9-6-3.2 0-5.1 2.1-5.1 6V57c0 2.3-1.9 4.2-4.2 4.2-2.3 0-4.2-1.9-4.2-4.2V35.1zm48.1 17.2v-.1c0-6.5 4.9-9.5 12-9.5 3 0 5.2.5 7.3 1.2v-.5c0-3.5-2.2-5.4-6.4-5.4-2.3 0-4.2.3-5.8.8-.5.2-.8.2-1.2.2-1.9 0-3.5-1.5-3.5-3.4 0-1.5.9-2.8 2.3-3.3 2.7-1 5.5-1.6 9.5-1.6 4.6 0 7.9 1.2 10 3.3 2.2 2.2 3.2 5.5 3.2 9.5V57c0 2.3-1.8 4-4.1 4-2.4 0-4-1.7-4-3.5v-.1c-2.1 2.3-4.9 3.8-9 3.8-5.7.2-10.3-3-10.3-8.9zm19.3-1.9v-1.5c-1.4-.7-3.3-1.1-5.4-1.1-3.6 0-5.8 1.4-5.8 4.1v.1c0 2.3 1.9 3.6 4.6 3.6 4 0 6.6-2.1 6.6-5.2zM330 35.1c0-2.3 1.9-4.2 4.2-4.2 2.3 0 4.2 1.9 4.2 4.2v1.3c1.2-2.9 3.2-5.5 5.7-5.5 2.6 0 4.1 1.7 4.1 4.1 0 2.2-1.4 3.5-3.2 3.9-4.3 1-6.6 4.3-6.6 10.2V57c0 2.3-1.9 4.2-4.2 4.2-2.3 0-4.2-1.9-4.2-4.2V35.1zm20.8-10.8c0-2.3 1.9-4.2 4.2-4.2 2.3 0 4.2 1.9 4.2 4.2V57c0 2.3-1.9 4.2-4.2 4.2-2.3 0-4.2-1.9-4.2-4.2V24.3zm15.1 44.8c-1.2-.4-2.7-1.4-2.7-3.5s1.6-3.4 3.3-3.4c.7 0 1.1.1 1.4.2.7.2 1.2.3 1.8.3 1.5 0 2.2-.3 3-1.8l.3-.7-10.1-23.5c-.2-.6-.4-1.4-.4-1.9 0-2.4 1.8-4 4.2-4 2.1 0 3.3 1.2 4 3.2l6.4 17.3 6.2-17.2c.7-1.8 1.9-3.2 4-3.2 2.2 0 4 1.7 4 3.9 0 .7-.2 1.6-.4 2l-10.4 24.9c-2.5 6-5 8.3-10 8.3-1.9-.1-3.2-.4-4.6-.9z" fill="#4C4C4C"/><circle fill="#2BB673" cx="46" cy="46" r="46"/><path fill="#FFF" d="M55.1 52.2c-1.9 0-3.4 1.7-3.1 3.7.3 1.5 1.7 2.5 3.2 2.5H60l2.8-.4c-4.5 6.6-12.2 9.6-20.7 8.2-6.9-1.1-12.8-5.8-15.3-12.3-5.7-14.8 5.1-29 19.2-29 7.3 0 13.8 4.3 17.5 9.5v.1c1 1.4 2.9 1.8 4.3.8 1.3-.9 1.7-2.7.9-4.1-5.1-8-14.3-13.1-24.6-12.4C30.7 19.9 19.8 30.9 19 44.4c-.9 15.7 11.5 28.4 27 28.4 8.1 0 15.4-3.5 20.3-9.3l-.6 3.3v3c0 1.5 1 2.9 2.5 3.2 2 .4 3.7-1.2 3.7-3.1V52.2H55.1z"/></svg>