<svg width="500" height="200" xmlns="http://www.w3.org/2000/svg"><path fill="none" d="M-1-1h502v202H-1z"/><path d="M140.653 127.694c-12.696 0-22.987-13.36-22.987-29.84s10.29-29.84 22.987-29.84c14.56 0 23.08 6.48 23.08 11.588 0 1.475.008 26.312.008 35.204 0 4.69-15.16 12.888-23.08 12.888zm36.718-51.037c0-9.882-11.27-20.712-35.6-20.712-4.48 0-8.98.96-13.5 2.88-4.525 1.925-8.37 4.613-11.53 8.067-3.41 3.7-6.096 8.09-8.067 13.174-1.97 5.086-2.956 11.13-2.956 18.14 0 12.797 2.86 22.71 8.578 29.74 5.718 7.033 13.44 10.548 23.174 10.548 5.84 0 10.642-.814 14.414-2.445 3.16-1.37 6.45-3.33 9.87-5.87.66-.49 1.99-2.18 1.99 1.26v4.64c0 3.31-.364 6.3-1.095 8.973-.73 2.677-1.947 4.964-3.65 6.862-1.704 1.994-4.09 3.55-7.153 4.67-3.065 1.12-6.934 1.68-11.605 1.68-4.866 0-9.732-.647-14.596-1.935-4.865-1.29-7.28-2.064-9.53-2.725-3.025-.89-6.452 1.422-6.72 5.204-.266 3.78 1.693 6.584 6.81 8.765 2.403.935 6.096 1.5 10.21 2.11 4.11.608 8.33.91 12.663.91 13.04 0 22.7-3.234 28.973-9.705 6.277-6.47 9.417-16.614 9.417-30.433 0 0-.084-51.49-.084-53.806zm62.42-7.103c-1.957-.24-4.275-.335-6.95-.335-4.313 0-8.476.95-12.49 2.86-3.255 1.54-11.597 6.55-11.597 10.79v48.112c0 3.18-2.77 7.482-7.002 7.482-4.23 0-6.972-3.447-6.972-7.483v-70.2c0-2.734 3.71-5.387 7.328-5.387s6.65 3.108 6.65 5.386v4.6c0 .89-.014.77.794.16 5.81-4.42 16.982-10.15 26.86-10.15 2.43 0 4.197 0 5.277.182 3.336.576 4.446 4.085 4.093 7.552-.363 3.544-2.62 6.83-5.988 6.42m179.626-7.734c-.634 1.82-26.992 66.87-28.038 69.4-1.39 3.364-3.49 7.605-9.637 7.605-5.42 0-9.012-3.88-10.483-7.6-1-2.533-27.043-66.952-27.86-69.354-1.13-3.303 2.53-6.466 6.135-6.466 5.648 0 7.7 3.157 8.99 6.463l22.766 58.5c.46 1.074.38 1.613 1.035-.037 3.3-8.61 21.254-55.427 22.568-58.503 1.446-3.387 3.885-6.423 9.575-6.423 4.27 0 5.827 3.915 4.954 6.422M486.65 86.59c-.325-6.12-2.07-10.926-5.238-14.415-3.48-3.838-8.772-5.755-15.874-5.755-7.15 0-12.847 2.107-17.08 6.32-4.07 4.046-6.45 9.025-7.136 14.944-.03.25-.137.75.735.75h43.64c1.28 0 .98-1.245.95-1.848zm7.847 12.077h-51.92c-1.55 0-1.313 0-1.313 1.177 0 4.39.838 8.245 2.188 11.574 1.47 3.62 3.48 6.596 6.04 8.915 2.46 2.274 5.386 3.977 8.77 5.113 3.388 1.138 7.117 1.707 11.19 1.707 5.397 0 10.867-.99 16.3-3.234 4.424-1.83 10.834-3.37 12.318 1.39 1.29 4.14-.375 6.66-3.074 8.08-2.304 1.21-5.94 2.21-10.63 3.49-4.687 1.28-9.61 1.915-14.77 1.915-13.165 0-23.44-3.563-30.826-10.69-7.388-7.126-11.08-17.248-11.08-30.366 0-12.97 3.537-23.27 10.616-30.89 7.08-7.624 16.395-11.436 27.95-11.436 10.7 0 18.95 3.125 24.75 9.375 5.8 6.25 8.7 15.13 8.7 26.635 0 0 .09 3.323-1.07 5.134-1.16 1.81-3.57 2.11-4.134 2.11zM293.1 125.697c-15.9 0-28.788-12.89-28.788-28.79S277.2 68.12 293.1 68.12c15.89 0 28.78 12.89 28.78 28.79s-12.89 28.79-28.79 28.79zm0-70.285c-22.92 0-41.497 18.58-41.497 41.5S270.18 138.41 293.1 138.41c22.91 0 41.49-18.58 41.49-41.497 0-22.916-18.58-41.496-41.496-41.496zm-217.403.114L9.472 55.5c-5.006 0-9.255 2.655-9.255 8.136v67.788c0 4.175 3.63 7.452 8.065 7.452l31.562-.053c4.436 0 8.066-3.294 8.066-7.47v-15.457c.12-.074 10.21-5.934 10.21-5.934 2.1-1.556 2.43-4.95.875-7.05-1.555-2.1-4.3-2.43-6.675-1.183l-4.42 2.55.01-2.31v-3.19c3.482-1.71 5.888-5.28 5.888-9.42 0-5.798-4.7-10.497-10.495-10.497-5.796 0-10.494 4.7-10.494 10.494 0 3.813 2.04 7.14 5.08 8.98v12.596l-4.64-2.64c-2.24-1.348-5.41-.363-6.757 1.876-1.348 2.24-.34 5.54 1.896 6.89l9.492 5.522v4.39l-25.86.07V67.02l60.19.04-.08 59.94s-7.887-.03-10.07-.03c-.554 0-1.06.07-1.527.185-2.83.43-5.003 2.208-5.003 6.14 0 3.894 3.41 5.544 5.44 5.544 1.584 0 14.716-.02 14.716-.02 4.434 0 8.063-3.034 8.063-7.21v-68.5c0-4.175-3.627-7.59-8.062-7.59" fill="#E87D31" fill-rule="evenodd"/></svg>