<svg width="500" height="200" xmlns="http://www.w3.org/2000/svg"><g stroke="null"><path d="M90.783 68.233a1.63 1.63 0 0 1 .303-.6c.181-.203.385-.406.606-.588.245-.173.508-.326.772-.427.283-.113.546-.173.79-.173l11.675-.026c.508-.002.955.17 1.32.482.386.312.649.597.813.838l1.161 2.603 24.077 61.671c.226.608.186 1.095-.139 1.5-.341.367-.907.571-1.74.573l-13.076.03c-.708 0-1.235-.139-1.622-.402-.386-.24-.691-.688-.895-1.296a225.147 225.147 0 0 1-1.772-4.617c-.591-1.537-1.163-3.077-1.755-4.616l-24.225.051a400.681 400.681 0 0 1-1.732 4.624c-.584 1.543-1.169 3.074-1.755 4.627-.382 1.135-1.152 1.707-2.305 1.707l-13.439.03c-.587.004-1.076-.16-1.46-.462-.367-.301-.45-.748-.207-1.378l24.605-64.151zm8.355 19.503c-.584 1.55-1.147 3.213-1.752 5.01-.583 1.797-1.147 3.61-1.732 5.428a706.184 706.184 0 0 1-1.75 5.406 159.639 159.639 0 0 1-1.732 5l14.007-.033-7.04-20.811zm36.71-19.279c-.002-.64.16-1.157.482-1.533.344-.375.85-.58 1.499-.58l29.474-.066c3.124-.006 6.063.575 8.802 1.743 2.739 1.169 5.114 2.745 7.166 4.747 2.052 2.003 3.639 4.35 4.82 7.035 1.182 2.683 1.755 5.55 1.761 8.59.005 2.067-.253 4.033-.794 5.909-.586 1.87-1.352 3.624-2.362 5.246a21.336 21.336 0 0 1-3.578 4.428 23.003 23.003 0 0 1-4.533 3.416l11.789 22.03c.222.422.485.93.833 1.507.325.586.489 1.072.49 1.499 0 .485-.16.872-.462 1.118-.325.263-.772.407-1.318.408l-15.629.033a2.304 2.304 0 0 1-1.4-.463 2.059 2.059 0 0 1-.793-1.234l-11.114-20.813-7.4.017.046 20.556c.001 1.32-.684 1.988-2.085 1.99l-13.56.033c-.59 0-1.075-.16-1.441-.482s-.55-.81-.55-1.5l-.143-63.634zm35.743 20.158c-.001-.91-.187-1.823-.513-2.734a8.197 8.197 0 0 0-1.424-2.502 8.129 8.129 0 0 0-2.193-1.91 7.453 7.453 0 0 0-2.82-.997c-.851-.059-1.663-.117-2.392-.156a36.41 36.41 0 0 0-2.432-.065l-6.306.016.037 16.731 8.394-.02c.547 0 1.033-.012 1.458-.043.425-.04.912-.083 1.418-.145a7.33 7.33 0 0 0 2.878-.939 7.571 7.571 0 0 0 2.124-1.879c.585-.74 1.009-1.574 1.312-2.507.3-.923.46-1.877.46-2.85zm30.664-20.401c.038-.547.26-1.013.606-1.42.385-.394.89-.6 1.558-.601l15.772-.034c1.135-.003 1.868.583 2.215 1.738l12.479 41.366L247.28 67.84c.439-1.156 1.189-1.746 2.324-1.747l15.588-.036c.567 0 1.056.2 1.481.574.448.374.711.86.755 1.438 1.1 10.692 2.22 21.313 3.334 31.837a4523.166 4523.166 0 0 1 3.334 31.828v.244c.003 1.176-.664 1.785-2.003 1.788l-12.892.03c-1.42.004-2.13-.683-2.196-2.023l-4.048-35.222-10.18 35.497c-.058.286-.282.65-.645 1.096-.407.407-.769.631-1.134.631l-11.98.028c-.386 0-.75-.203-1.176-.608-.409-.422-.631-.788-.653-1.113l-10.336-35.357-3.895 35.148c-.06 1.338-.806 2.029-2.224 2.032l-12.89.028c-1.337.003-1.97-.682-1.972-2.021l6.382-63.699zm73.634 31.75c-.008-3.232.391-6.315 1.215-9.284a34.642 34.642 0 0 1 3.489-8.35 35.94 35.94 0 0 1 5.439-7.108 33.394 33.394 0 0 1 7.043-5.459 35.752 35.752 0 0 1 8.323-3.535c2.937-.838 6.059-1.26 9.261-1.268a34.587 34.587 0 0 1 9.286 1.225 36.235 36.235 0 0 1 8.359 3.498 33.928 33.928 0 0 1 7.067 5.426 34.539 34.539 0 0 1 5.466 7.083 36.117 36.117 0 0 1 3.548 8.335c.838 2.966 1.252 6.048 1.257 9.28.008 3.222-.393 6.306-1.216 9.278a35.604 35.604 0 0 1-3.508 8.309 34.124 34.124 0 0 1-5.44 7.025 35.079 35.079 0 0 1-7.044 5.47 34.192 34.192 0 0 1-8.345 3.525 35.283 35.283 0 0 1-9.28 1.256 34.98 34.98 0 0 1-9.266-1.214 33.736 33.736 0 0 1-8.34-3.49 34.318 34.318 0 0 1-7.066-5.439 35.39 35.39 0 0 1-5.467-6.999 33.818 33.818 0 0 1-3.527-8.291c-.835-2.968-1.245-6.05-1.254-9.273zm17.657-.09c.006 2.526.436 4.875 1.27 7.074.876 2.177 2.057 4.08 3.58 5.7 1.545 1.638 3.373 2.9 5.462 3.818 2.11.93 4.422 1.387 6.917 1.384 2.533-.006 4.845-.478 6.947-1.415 2.106-.93 3.93-2.197 5.466-3.843a17.65 17.65 0 0 0 3.552-5.712c.85-2.204 1.268-4.554 1.262-7.08-.004-2.483-.436-4.833-1.293-7.042-.858-2.196-2.055-4.12-3.581-5.76-1.543-1.64-3.37-2.923-5.479-3.87-2.11-.927-4.424-1.397-6.956-1.39-2.494.004-4.804.485-6.909 1.423-2.087.958-3.91 2.249-5.446 3.894-1.514 1.646-2.686 3.574-3.552 5.774-.824 2.21-1.245 4.562-1.24 7.046zm57.173-31.994a2.2 2.2 0 0 1 .504-1.42c.345-.394.849-.6 1.515-.6l14.901-.024c.424 0 .87.1 1.338.312.447.212.852.585 1.178 1.092a3642.933 3642.933 0 0 0 11.516 18.399 4088.722 4088.722 0 0 1 11.595 18.392l-.084-36.52c.121-.557.36-.973.729-1.276.362-.307.788-.46 1.274-.461l12.993-.03c.628-.001 1.157.17 1.603.525.426.343.628.84.631 1.478l.144 63.923c.002.61-.16 1.056-.522 1.34-.386.285-.871.448-1.52.45l-14.532.033c-.407 0-.75-.16-1.076-.423a6.678 6.678 0 0 1-.933-1.09c-4.073-6.67-8.1-13.272-12.046-19.8a6210.249 6210.249 0 0 0-12.084-19.81l.085 39.152c.003.69-.159 1.178-.439 1.501-.323.368-.85.53-1.662.532l-12.933.031c-.71 0-1.214-.2-1.518-.564a2.184 2.184 0 0 1-.514-1.42l-.143-63.722zm67.442-.152a2.19 2.19 0 0 1 .483-1.42c.363-.395.85-.59 1.517-.591l13.4-.031c.466 0 .952.18 1.459.546.529.363.772.848.775 1.456l.142 63.682c.003 1.338-.725 2.029-2.224 2.032l-13.398.03c-1.337.002-2.008-.681-2.011-2.023l-.143-63.68zm79.183 2.742c.55.292.916.698 1.158 1.183.248.476.187 1.064-.137 1.723l-7.68 10.964c-.321.518-.686.812-1.07.895-.385.071-.852-.059-1.4-.393a17.402 17.402 0 0 0-4.93-2.584c-1.785-.603-3.672-.901-5.677-.898-2.516.006-4.805.485-6.89 1.423-2.087.957-3.904 2.248-5.404 3.896-1.537 1.644-2.708 3.562-3.552 5.755-.848 2.18-1.27 4.534-1.26 7.025.006 2.482.434 4.814 1.292 6.991.855 2.177 2.032 4.07 3.579 5.69 1.504 1.627 3.327 2.911 5.42 3.839 2.092.937 4.382 1.396 6.896 1.393 2.008-.006 3.911-.314 5.735-.946a17.374 17.374 0 0 0 4.96-2.626c.548-.325 1.013-.469 1.38-.408.363.06.73.321 1.096.818l7.81 11.19c.346.667.387 1.235.146 1.682-.243.468-.628.843-1.132 1.147a36.292 36.292 0 0 1-9.233 4.479c-3.303 1.043-6.769 1.579-10.414 1.585a35.254 35.254 0 0 1-9.289-1.214 34.283 34.283 0 0 1-8.318-3.489c-2.58-1.514-4.956-3.321-7.048-5.437a35.491 35.491 0 0 1-5.47-7c-1.526-2.57-2.683-5.334-3.522-8.294-.84-2.966-1.255-6.046-1.26-9.272-.008-3.232.395-6.315 1.218-9.284.824-2.963 1.971-5.742 3.487-8.35a35.845 35.845 0 0 1 5.44-7.107c2.083-2.134 4.45-3.952 7.02-5.458a36.377 36.377 0 0 1 8.303-3.537c2.977-.838 6.059-1.259 9.283-1.266 3.647-.008 7.094.49 10.341 1.507a35.409 35.409 0 0 1 9.122 4.378zM72.649 141.83l-6.334.014-.004-1.16 14.02-.031.003 1.16-6.334.014.036 15.73-1.353.003-.034-15.73zm14.209-1.214l.017 7.2c.998-1.718 2.724-2.374 4.45-2.403 3.455-.006 5.187 2.14 5.195 5.256l.016 6.838-1.202.003-.015-6.838c-.005-2.465-1.211-4.129-3.99-4.124-2.604.006-4.403 1.944-4.396 4.432l.015 6.547-1.226.002-.039-16.915 1.175.002zm15.189 10.911c-.008-3.575 2.79-6.167 6.269-6.173 3.48-.008 6.59 2.038 6.125 6.704l-11.141.024c.256 2.802 2.488 4.415 5.04 4.412 1.63-.004 3.53-.635 4.453-1.823l.878.676c-1.198 1.525-3.35 2.302-5.327 2.307-3.478.005-6.29-2.333-6.297-6.127zm11.29-.505c-.032-2.948-2.038-4.589-5.018-4.58-2.553.004-4.752 1.675-5.021 4.601l10.04-.021zm18.403-5.524l.004 2.126c.948-1.645 2.674-2.326 4.4-2.353 3.305-.007 5.588 1.946 5.596 5.256l.015 6.886-1.226.001-.016-6.863c-.006-2.706-1.736-4.152-4.415-4.122-2.553.03-4.326 1.896-4.32 4.359l.015 6.645-1.226.001-.028-11.936h1.2zm15.528 5.935c-.008-3.575 2.79-6.167 6.269-6.175 3.48-.008 6.59 2.04 6.125 6.704l-11.141.024c.256 2.803 2.488 4.417 5.04 4.412 1.63-.003 3.53-.635 4.453-1.821l.878.674c-1.198 1.525-3.35 2.302-5.327 2.307-3.48.006-6.29-2.332-6.297-6.125zm11.29-.507c-.032-2.948-2.038-4.587-5.018-4.58-2.553.005-4.752 1.677-5.021 4.601l10.04-.021zm11.408-.63l3.67-4.888 1.476-.003v.048l-4.418 5.71 4.797 6.128v.048l-1.452.003-4.067-5.33-4.044 5.348-1.452.003v-.048l4.768-6.148-4.445-5.694v-.048l1.477-.003 3.69 4.874zm13.644-8.509l.007 3.6 4.207-.01.001.991-4.206.01.017 7.272c.003 1.62.356 2.753 2.284 2.748.602 0 1.277-.195 1.902-.485l.428.965c-.774.363-1.55.607-2.327.609-2.629.006-3.482-1.49-3.489-3.833l-.017-7.273-2.628.006-.002-.991 2.629-.006-.008-3.48 1.202-.123zm28.469 5.715c-1.256-1.062-2.482-1.253-3.86-1.25-1.928-.02-3.778.684-3.725 2.207.054 1.595 2.208 1.904 3.76 2.167 2.204.357 5.233.714 5.116 3.493-.07 2.633-2.898 3.34-5.075 3.345-2.18.004-4.333-.789-5.414-2.38l.9-.776c1.03 1.424 2.884 2.024 4.535 2.02 1.502-.002 3.78-.394 3.85-2.28.047-1.715-2.006-2.05-4.035-2.358-2.405-.38-4.783-.81-4.814-3.203-.031-2.344 2.395-3.363 4.899-3.345 1.803-.004 3.382.476 4.61 1.585l-.747.775zm9.842-5.796l.008 3.6 4.206-.01.002.992-4.206.01.017 7.272c.003 1.62.355 2.753 2.284 2.75.601-.002 1.277-.197 1.902-.488l.428.965c-.775.364-1.55.608-2.327.611-2.629.005-3.483-1.492-3.489-3.835l-.017-7.273-2.629.007-.001-.992 2.629-.006-.008-3.48 1.201-.123zm21.961 3.554l.028 11.936-1.227.003-.006-2.537c-1.197 1.862-3.048 2.737-5.05 2.74-3.455.008-6.291-2.499-6.299-6.148s2.816-6.12 6.27-6.127c2.003-.005 4.032.884 5.064 2.743l-.007-2.61h1.227zm-11.328 5.992c.007 2.997 2.264 4.996 5.07 4.992 6.884-.016 6.862-9.995-.024-9.98-2.803.006-5.053 1.991-5.046 4.988zm19.974-9.611l.009 3.6 4.206-.01.003.992-4.208.01.017 7.272c.004 1.62.356 2.753 2.286 2.748.602 0 1.276-.195 1.9-.486l.427.965c-.774.364-1.55.608-2.327.61-2.627.006-3.482-1.491-3.489-3.834l-.017-7.273-2.629.007-.001-.992 2.629-.006-.008-3.48 1.202-.123zm11.687-.315c.003 1.255-1.975 1.26-1.978.004s1.975-1.262 1.978-.004zm-1.619 3.846l.028 11.984 1.226-.003-.028-11.985-1.226.004zm17.92 10.277c-1.25 1.21-2.874 1.794-4.502 1.798-3.48.008-6.363-2.305-6.373-6.075s2.765-6.095 6.347-6.102a6.559 6.559 0 0 1 4.51 1.776l-.8.75c-1.002-.963-2.382-1.42-3.709-1.416-2.802.006-5.152 1.774-5.144 4.988s2.364 4.974 5.17 4.967a5.34 5.34 0 0 0 3.675-1.481l.826.795zm23.905-8.143c-1.254-1.063-2.48-1.253-3.858-1.25-1.928-.02-3.78.684-3.724 2.207.053 1.594 2.207 1.903 3.76 2.166 2.205.357 5.234.715 5.115 3.494-.068 2.633-2.896 3.34-5.074 3.344s-4.333-.788-5.412-2.38l.9-.776c1.03 1.424 2.882 2.024 4.536 2.021 1.503-.003 3.779-.394 3.85-2.279.046-1.715-2.009-2.05-4.036-2.36-2.405-.38-4.785-.81-4.814-3.202-.03-2.345 2.397-3.364 4.9-3.345 1.802-.003 3.381.476 4.609 1.585l-.752.775zm8.642-6.084c.003 1.256-1.974 1.259-1.977.003s1.973-1.259 1.977-.003zm-1.618 3.846l.028 11.984 1.226-.003-.028-11.984-1.226.003zm10.579-3.575l.008 3.6 4.206-.01.003.992-4.208.009.017 7.273c.005 1.619.357 2.752 2.287 2.75.602-.002 1.274-.197 1.9-.488l.426.965c-.773.365-1.55.61-2.326.61-2.629.005-3.484-1.49-3.49-3.833l-.017-7.272-2.627.004-.002-.991 2.627-.005-.007-3.479 1.203-.125zm9.379 9.549c-.008-3.576 2.79-6.167 6.27-6.175 3.48-.008 6.59 2.04 6.124 6.704l-11.14.024c.255 2.802 2.488 4.415 5.043 4.412 1.626-.003 3.527-.635 4.452-1.822l.876.675c-1.198 1.524-3.35 2.302-5.327 2.307-3.48.006-6.289-2.332-6.298-6.125zm11.288-.508c-.03-2.947-2.036-4.586-5.016-4.58-2.553.005-4.752 1.678-5.021 4.602l10.037-.022zm27.139-6.026l.805.676-1.199 1.355c.878.917 1.533 2.123 1.536 4.056.006 2.078-1.265 4.183-3.319 5.081 2.18.744 3.384 2.216 3.39 4.27.006 3.213-2.593 4.766-5.872 4.772-3.28.008-5.864-1.726-5.87-4.746l1.228-.003c.005 2.44 2.159 3.595 4.64 3.59 2.478-.006 4.677-1.073 4.672-3.61-.006-2.561-2.387-3.572-4.69-3.568-3.58.008-5.816-2.573-5.824-5.763-.007-3.72 2.594-5.828 5.798-5.835a6.453 6.453 0 0 1 3.507 1.08l1.198-1.355zm-9.273 6.108c.006 2.465 1.763 4.587 4.593 4.58 2.553-.004 4.626-2.135 4.62-4.6-.006-3.02-2.09-4.634-4.642-4.63-2.53.007-4.577 1.534-4.571 4.65zm15.267.33c-.007-3.575 2.79-6.167 6.27-6.175 3.48-.006 6.59 2.04 6.125 6.705l-11.14.023c.255 2.802 2.487 4.417 5.042 4.412 1.627-.003 3.527-.635 4.452-1.821l.877.675c-1.198 1.525-3.351 2.303-5.327 2.306-3.483.006-6.29-2.332-6.299-6.125zm11.289-.507c-.031-2.948-2.037-4.587-5.017-4.58-2.553.005-4.752 1.677-5.02 4.601l10.037-.021zm8.493-5.502l.004 2.126c.948-1.644 2.674-2.324 4.401-2.352 3.307-.006 5.587 1.945 5.595 5.254l.016 6.886-1.227.004-.015-6.863c-.006-2.707-1.738-4.152-4.417-4.123-2.553.03-4.326 1.894-4.32 4.358l.015 6.645-1.226.003-.028-11.937 1.202-.001zm15.528 5.935c-.007-3.576 2.79-6.167 6.271-6.175 3.48-.008 6.59 2.038 6.124 6.703l-11.14.025c.255 2.802 2.488 4.415 5.042 4.412 1.627-.005 3.528-.636 4.452-1.823l.877.676c-1.198 1.524-3.35 2.302-5.327 2.307-3.483.006-6.29-2.33-6.299-6.125zm11.29-.508c-.032-2.947-2.037-4.586-5.017-4.58-2.553.005-4.752 1.676-5.021 4.602l10.037-.022zm8.442-5.502l.056 2.127c.772-1.621 2.524-2.253 4.1-2.257a4.966 4.966 0 0 1 2.656.695l-.549.968a4.088 4.088 0 0 0-2.103-.55c-2.302.029-4.078 1.82-4.071 3.995l.015 6.959-1.226.001-.028-11.936 1.15-.002zm23.578-.051l.028 11.937-1.226.001-.006-2.537c-1.197 1.863-3.048 2.738-5.052 2.74-3.454.008-6.288-2.499-6.297-6.148-.008-3.648 2.816-6.12 6.27-6.127 2.004-.003 4.032.886 5.063 2.743l-.006-2.61 1.226.001zm-11.327 5.993c.008 2.996 2.265 4.994 5.067 4.99 6.885-.014 6.862-9.993-.023-9.98-2.8.007-5.05 1.994-5.044 4.99zm19.973-9.611l.008 3.6 4.206-.008.002.991-4.205.008.015 7.273c.005 1.619.358 2.754 2.287 2.75.602-.002 1.275-.197 1.901-.486l.427.964c-.775.364-1.551.608-2.328.61-2.628.006-3.484-1.491-3.49-3.834l-.015-7.272-2.628.006-.003-.991 2.628-.007-.008-3.479 1.203-.125zm9.507 9.572c-.009-3.793 2.79-6.217 6.27-6.223 3.48-.008 6.288 2.403 6.298 6.197s-2.791 6.119-6.27 6.126c-3.482.007-6.288-2.307-6.298-6.1zm11.366-.025c-.008-3.093-2.29-5.094-5.094-5.088-2.803.007-5.078 2.017-5.07 5.11s2.29 4.948 5.095 4.942c2.802-.005 5.075-1.871 5.07-4.964zm8.188-6.008l.056 2.127c.772-1.622 2.524-2.253 4.1-2.257a4.952 4.952 0 0 1 2.656.695l-.549.968a4.086 4.086 0 0 0-2.104-.55c-2.301.029-4.077 1.82-4.07 3.994l.015 6.958-1.226.004-.028-11.937 1.15-.002z"/><path fill="#010101" d="M26.49 44.55L.943 113.335l14.842-6.927.703 51.326 27.908-75.066-16.322 7.65z"/><path fill="#FFDE17" d="M62.512 35.274L39.155 96.07l12.616-5.937.748 52.867 28.144-76.64-16.583 7.894z"/><path d="M62.512 35.274L39.155 96.07l12.616-5.937.748 52.867 28.144-76.64-16.583 7.894z"/></g></svg>