<?xml version="1.0"?>
<svg width="500" height="200" xmlns="http://www.w3.org/2000/svg">
 <g>
  <g stroke="null" id="svg_39">
   <title transform="translate(0,35.27435302734375) translate(0.9425048828125,0) translate(0,0) scale(1.5463887453079224) translate(0,0) " stroke="null">Layer 1</title>
   <path stroke="null" d="m90.783051,68.232536c0.041756,-0.182472 0.142265,-0.386597 0.303093,-0.599998c0.180931,-0.202576 0.385048,-0.405151 0.606186,-0.587631c0.244324,-0.173187 0.507217,-0.326286 0.771645,-0.426804c0.28299,-0.112885 0.545876,-0.173195 0.790207,-0.173195l11.67524,-0.026283c0.50721,-0.001549 0.954117,0.170105 1.319061,0.482468c0.386597,0.31237 0.649483,0.596909 0.813408,0.83815l1.161331,2.60257l24.077271,61.671524c0.225784,0.607727 0.185577,1.094849 -0.13916,1.5c-0.341751,0.366501 -0.907761,0.570618 -1.739685,0.572174l-13.076271,0.030914c-0.708244,0 -1.235573,-0.139175 -1.622169,-0.402054c-0.386597,-0.241241 -0.691231,-0.688141 -0.89534,-1.295883c-0.612373,-1.547928 -1.201546,-3.077301 -1.772163,-4.617508c-0.590714,-1.537109 -1.162888,-3.077316 -1.755142,-4.615974l-24.22419,0.051033c-0.562881,1.540199 -1.147415,3.083496 -1.731956,4.623703c-0.584526,1.543304 -1.169067,3.074219 -1.755142,4.626801c-0.381966,1.13504 -1.152069,1.707214 -2.305672,1.707214l-13.438118,0.030914c-0.587624,0.003098 -1.076286,-0.160828 -1.461334,-0.462372c-0.366501,-0.301544 -0.449997,-0.748444 -0.205673,-1.377823l24.604599,-64.151939l-0.000023,0zm8.355141,19.503059c-0.584534,1.551025 -1.147423,3.213394 -1.75206,5.0103c-0.582985,1.796898 -1.147423,3.609268 -1.731949,5.427818c-0.582993,1.824738 -1.167526,3.63092 -1.750519,5.406181c-0.582993,1.784531 -1.167519,3.446899 -1.731956,4.999466l14.007195,-0.032471l-7.04071,-20.811295z" id="svg_1"/>
   <path stroke="null" d="m135.847916,68.456764c-0.001556,-0.640205 0.159286,-1.1567 0.482468,-1.532478c0.343307,-0.375763 0.848969,-0.579895 1.498444,-0.579895l29.474182,-0.06649c3.123703,-0.006187 6.063385,0.575256 8.802048,1.742783c2.738647,1.169067 5.113907,2.744843 7.165955,4.747414c2.052063,2.002571 3.638657,4.349991 4.820099,7.034515c1.181442,2.682991 1.755142,5.549995 1.761337,8.590195c0.004639,2.06752 -0.253601,4.032982 -0.794846,5.908752c-0.58609,1.869583 -1.351532,3.624733 -2.361328,5.246895c-0.991241,1.637627 -2.181961,3.09742 -3.578354,4.427307c-1.374741,1.328354 -2.871643,2.458763 -4.532455,3.415977l11.788116,22.029846c0.222672,0.422165 0.485565,0.930939 0.833511,1.507736c0.324738,0.58609 0.488632,1.071655 0.490204,1.498459c0,0.48555 -0.160828,0.872162 -0.462372,1.118027c-0.324753,0.262894 -0.771652,0.406708 -1.31752,0.408249l-15.629364,0.032486c-0.507217,0.003082 -0.994324,-0.159286 -1.399475,-0.462372c-0.405151,-0.301544 -0.671127,-0.706711 -0.793304,-1.234024l-11.113892,-20.812851l-7.401016,0.017014l0.046387,20.556152c0.001556,1.319061 -0.683502,1.987106 -2.084534,1.990204l-13.560272,0.032471c-0.589188,0 -1.074738,-0.159286 -1.441254,-0.482483s-0.548965,-0.808762 -0.550507,-1.499985l-0.142273,-63.633904l0.000015,0zm35.743225,20.158722c-0.001556,-0.91082 -0.187103,-1.823196 -0.513382,-2.734016c-0.324768,-0.91082 -0.794846,-1.742783 -1.42424,-2.502052c-0.610825,-0.768562 -1.339172,-1.393303 -2.19278,-1.90979c-0.852066,-0.514954 -1.787628,-0.847427 -2.820618,-0.997421c-0.85051,-0.058769 -1.662369,-0.117523 -2.390732,-0.156181c-0.751541,-0.049492 -1.56337,-0.066498 -2.432465,-0.064957l-6.306183,0.015465l0.037109,16.731934l8.393799,-0.020103c0.547424,0 1.03299,-0.012375 1.458237,-0.043304c0.425262,-0.040207 0.912369,-0.083504 1.41803,-0.145363c1.053101,-0.123711 2.007233,-0.431442 2.877838,-0.93866c0.848969,-0.505669 1.537109,-1.127312 2.124741,-1.87886c0.584534,-0.740715 1.00824,-1.574219 1.31134,-2.506691c0.299988,-0.923195 0.460831,-1.877319 0.459274,-2.849998l0.000031,0z" id="svg_2"/>
   <path stroke="null" d="m202.254501,68.213982c0.038666,-0.547424 0.261337,-1.012886 0.606171,-1.419586c0.385071,-0.394333 0.890732,-0.599998 1.558777,-0.601547l15.771606,-0.034019c1.135071,-0.003098 1.868057,0.582993 2.214447,1.738144l12.47934,41.365898l12.395889,-41.42157c0.439163,-1.1567 1.189163,-1.745872 2.324234,-1.747421l15.58757,-0.035568c0.567535,0 1.056183,0.199486 1.481445,0.573715c0.448456,0.374222 0.711334,0.859795 0.754639,1.438141c1.099487,10.691734 2.220612,21.312332 3.334015,31.837051c1.138184,10.530907 2.256195,21.148407 3.334045,31.827766l0,0.244339c0.003082,1.175247 -0.663391,1.784531 -2.002563,1.787613l-12.892273,0.030945c-1.419586,0.003082 -2.129395,-0.683517 -2.195862,-2.024231l-4.048447,-35.222099l-10.179901,35.497368c-0.05722,0.286072 -0.281418,0.649475 -0.644821,1.09639c-0.406708,0.406693 -0.76857,0.63092 -1.133514,0.63092l-11.979889,0.027817c-0.386597,0 -0.75,-0.202576 -1.176804,-0.607727c-0.408234,-0.42215 -0.630905,-0.788651 -0.652573,-1.113388l-10.336044,-35.356644l-3.89537,35.147873c-0.058762,1.337631 -0.805664,2.02887 -2.223694,2.031967l-12.890717,0.027832c-1.336075,0.003082 -1.968536,-0.681961 -1.971634,-2.021133l6.381973,-63.698845l-0.000046,0z" id="svg_3"/>
   <path stroke="null" d="m275.888885,99.964432c-0.007721,-3.231949 0.391266,-6.315445 1.215454,-9.284515c0.805664,-2.962883 1.973175,-5.741737 3.488647,-8.350494c1.513916,-2.597939 3.332489,-4.962364 5.43869,-7.107208c2.103088,-2.132469 4.448944,-3.952568 7.043762,-5.458748c2.571655,-1.506187 5.34433,-2.68763 8.322662,-3.535049c2.936584,-0.838142 6.058746,-1.260307 9.261322,-1.268036c3.20105,-0.007736 6.284546,0.402061 9.286072,1.224739c2.982971,0.835045 5.764923,2.00412 8.358215,3.497925c2.579376,1.495361 4.956207,3.303085 7.067017,5.426285c2.132477,2.134018 3.961853,4.492264 5.466461,7.082458c1.510864,2.601028 2.710876,5.376801 3.547455,8.335037c0.838104,2.965973 1.252563,6.047928 1.257202,9.279877c0.007721,3.222672 -0.392792,6.306168 -1.215485,9.278328c-0.824219,2.961342 -2.016479,5.730919 -3.508759,8.308754c-1.496887,2.56855 -3.316986,4.912872 -5.440186,7.025238c-2.104645,2.123199 -4.470612,3.943283 -7.043793,5.469574c-2.591736,1.526291 -5.36441,2.707733 -8.344299,3.525772c-2.996918,0.818039 -6.077332,1.249496 -9.279907,1.255676c-3.201019,0.006165 -6.326263,-0.411346 -9.26593,-1.213913c-2.983002,-0.805679 -5.761871,-1.974747 -8.339722,-3.490204c-2.601044,-1.513916 -4.956177,-3.323196 -7.067017,-5.43866c-2.110779,-2.101532 -3.943268,-4.438133 -5.466461,-6.998947c-1.527832,-2.571648 -2.709259,-5.335045 -3.527313,-8.29174c-0.835052,-2.967522 -1.244843,-6.049469 -1.25412,-9.272148l0.000031,0zm17.656647,-0.089684c0.006195,2.525246 0.436096,4.874214 1.271179,7.073174c0.875214,2.177315 2.056671,4.079376 3.578339,5.699989c1.546387,1.637634 3.374207,2.899483 5.463379,3.818039c2.109283,0.929375 4.421112,1.387108 6.916962,1.38401c2.53299,-0.00618 4.844849,-0.477829 6.946381,-1.41494c2.106201,-0.929382 3.929382,-2.197418 5.466492,-3.842773c1.513916,-1.625252 2.70929,-3.533501 3.552063,-5.712364c0.848969,-2.203598 1.268036,-4.554115 1.261841,-7.079361c-0.004639,-2.483505 -0.436066,-4.834015 -1.292786,-7.042259c-0.858215,-2.195877 -2.055145,-4.119583 -3.581421,-5.760292c-1.543304,-1.639175 -3.369568,-2.922676 -5.478851,-3.869072c-2.11084,-0.927834 -4.424225,-1.397934 -6.955658,-1.391747c-2.494324,0.004639 -4.804657,0.485565 -6.909271,1.424225c-2.087616,0.957214 -3.909271,2.248444 -5.446381,3.893799c-1.513916,1.645363 -2.686096,3.573715 -3.552063,5.774223c-0.824219,2.209785 -1.244812,4.561836 -1.240204,7.045349z" id="svg_4"/>
   <path stroke="null" d="m350.718628,67.879959c-0.003082,-0.547424 0.180939,-1.012886 0.50412,-1.419586c0.344849,-0.394325 0.848969,-0.599998 1.515442,-0.599998l14.901031,-0.024742c0.423706,0 0.870605,0.100517 1.337646,0.31237c0.446899,0.211853 0.85202,0.584541 1.178314,1.091751c3.867493,6.224213 7.711853,12.357193 11.515991,18.398933c3.825775,6.032471 7.691742,12.165443 11.594788,18.392754l-0.083466,-36.519524c0.120605,-0.558243 0.360291,-0.974228 0.728302,-1.277313c0.361877,-0.306183 0.788696,-0.459282 1.274261,-0.460831l12.992737,-0.029373c0.627899,-0.001549 1.156738,0.170097 1.603607,0.524223c0.425232,0.3433 0.627869,0.839691 0.63089,1.478348l0.14389,63.923073c0.001556,0.610809 -0.159302,1.056183 -0.522675,1.340714c-0.38504,0.284531 -0.870605,0.446915 -1.520111,0.449997l-14.531433,0.032471c-0.406708,0 -0.75,-0.160812 -1.076263,-0.423706c-0.28299,-0.261337 -0.609283,-0.624741 -0.932495,-1.090195c-4.073181,-6.669579 -8.099976,-13.271118 -12.046356,-19.799965c-3.964935,-6.528854 -7.997925,-13.138115 -12.083496,-19.809242l0.085022,39.151474c0.003113,0.689697 -0.159271,1.178345 -0.439178,1.501541c-0.323181,0.368042 -0.850494,0.530411 -1.662354,0.531952l-12.932495,0.030945c-0.709778,0 -1.213867,-0.199493 -1.518524,-0.564438c-0.326294,-0.405167 -0.508728,-0.848969 -0.513397,-1.419601l-0.143799,-63.722031z" id="svg_5"/>
   <path stroke="null" d="m418.161285,67.728409c-0.003113,-0.547417 0.160828,-1.012878 0.482483,-1.419579c0.363373,-0.395882 0.850494,-0.590721 1.516998,-0.59227l13.40097,-0.03093c0.465515,0 0.95108,0.180931 1.458282,0.545876c0.528839,0.363403 0.771637,0.848976 0.774719,1.456703l0.142273,63.681831c0.003113,1.337631 -0.72525,2.028854 -2.223694,2.031967l-13.397919,0.030914c-1.337646,0.001556 -2.008759,-0.681946 -2.011841,-2.024231l-0.142273,-63.680283z" id="svg_6"/>
   <path stroke="null" d="m497.344086,70.470161c0.549011,0.292267 0.915497,0.697418 1.158234,1.182991c0.247437,0.476288 0.187134,1.063911 -0.137604,1.722672l-7.679352,10.963898c-0.321686,0.518044 -0.686615,0.811859 -1.070099,0.895355c-0.385071,0.071136 -0.852081,-0.058754 -1.399475,-0.392776c-1.479889,-1.110313 -3.125305,-1.977829 -4.929901,-2.584023c-1.786102,-0.603088 -3.672699,-0.901543 -5.678345,-0.898445c-2.515961,0.006187 -4.804626,0.485565 -6.88916,1.422676c-2.087677,0.957214 -3.904663,2.248451 -5.404694,3.896904c-1.537109,1.643806 -2.707703,3.561325 -3.552063,5.754105c-0.847321,2.180412 -1.269501,4.534019 -1.260315,7.025246c0.006287,2.481956 0.434601,4.813911 1.292847,6.991226c0.855164,2.177315 2.031982,4.070091 3.578369,5.689163c1.504639,1.628342 3.327789,2.91185 5.420044,3.839684c2.092316,0.937111 4.382446,1.396385 6.896881,1.393295c2.007233,-0.006187 3.910828,-0.313911 5.73407,-0.946388c1.823181,-0.612373 3.462311,-1.49691 4.960785,-2.625771c0.547394,-0.324738 1.012878,-0.468552 1.379395,-0.408249c0.363403,0.06031 0.729919,0.321648 1.096344,0.818039l7.809296,11.189667c0.346405,0.668045 0.388153,1.235573 0.146912,1.68248c-0.242767,0.468552 -0.627899,0.842781 -1.131958,1.147415c-2.85614,1.923706 -5.931946,3.419067 -9.23349,4.478348c-3.30307,1.043808 -6.768524,1.578857 -10.413361,1.585052c-3.224243,0.006195 -6.307709,-0.411346 -9.289185,-1.213913c-2.959778,-0.805679 -5.720123,-1.97319 -8.318054,-3.488663c-2.579376,-1.513916 -4.956146,-3.321648 -7.04837,-5.437103c-2.112396,-2.104637 -3.946381,-4.441223 -5.469604,-7.000496c-1.526337,-2.570107 -2.683014,-5.333496 -3.522644,-8.293289c-0.839691,-2.965973 -1.25412,-6.046379 -1.258759,-9.272148c-0.009308,-3.231949 0.394257,-6.315445 1.21698,-9.284515c0.824219,-2.962883 1.971588,-5.741745 3.487061,-8.348953c1.513947,-2.597931 3.332489,-4.963913 5.440277,-7.107208c2.082916,-2.134018 4.45047,-3.95256 7.020569,-5.458748c2.591675,-1.50618 5.345856,-2.689171 8.302582,-3.536591c2.976776,-0.838142 6.058746,-1.258759 9.282959,-1.266487c3.646393,-0.007736 7.093292,0.490204 10.340729,1.507721c3.217957,1.005157 6.261322,2.469589 9.122101,4.377831z" id="svg_7"/>
   <g stroke="null" id="svg_8">
    <path stroke="null" d="m72.648552,141.829819l-6.334015,0.013916l-0.00309,-1.15979l14.019562,-0.03093l0.003098,1.159775l-6.334015,0.013931l0.035568,15.729858l-1.353088,0.003113l-0.034019,-15.729858l0,-0.000015z" id="svg_9"/>
    <path stroke="null" d="m86.858315,140.615906l0.017014,7.199982c0.997421,-1.718033 2.72319,-2.373718 4.450508,-2.403091c3.454628,-0.00618 5.186584,2.140213 5.194313,5.25618l0.015472,6.838135l-1.201546,0.003082l-0.015465,-6.83812c-0.004639,-2.464951 -1.210823,-4.12886 -3.989685,-4.124222c-2.604118,0.00618 -4.402565,1.943802 -4.396385,4.431946l0.015465,6.547409l-1.22628,0.001541l-0.038666,-16.914383l1.175255,0.001541z" id="svg_10"/>
    <path stroke="null" d="m102.046944,151.527222c-0.007729,-3.575256 2.789688,-6.166992 6.269058,-6.173187c3.479378,-0.007721 6.590714,2.038147 6.125267,6.703598l-11.141731,0.02475c0.256699,2.802048 2.488144,4.414932 5.041206,4.41185c1.628349,-0.004639 3.528877,-0.635559 4.452072,-1.823196l0.878349,0.675781c-1.198448,1.52475 -3.34948,2.302567 -5.327309,2.307205c-3.477829,0.004639 -6.289162,-2.333481 -6.296913,-6.126785l0,-0.000015zm11.290184,-0.505676c-0.032463,-2.947403 -2.038139,-4.588135 -5.018036,-4.580399c-2.553062,0.004639 -4.752045,1.676285 -5.021103,4.602051l10.039154,-0.021652l-0.000015,0z" id="svg_11"/>
    <path stroke="null" d="m131.739166,145.497849l0.004623,2.126282c0.947937,-1.645355 2.673721,-2.32576 4.401031,-2.353607c3.304626,-0.00618 5.587097,1.946915 5.594833,5.25618l0.015442,6.886078l-1.226273,0.001541l-0.015472,-6.862869c-0.00618,-2.706192 -1.736572,-4.152069 -4.414932,-4.122681c-2.553085,0.030945 -4.326797,1.895889 -4.320618,4.359268l0.015457,6.644852l-1.226288,0.001541l-0.027847,-11.936584l1.199997,0l0.000046,0z" id="svg_12"/>
    <path stroke="null" d="m147.26799,151.432892c-0.007721,-3.575256 2.789688,-6.166992 6.269058,-6.174728c3.479385,-0.007736 6.590714,2.039688 6.125244,6.703598l-11.141724,0.024734c0.256699,2.802063 2.488144,4.416489 5.041229,4.41185c1.628342,-0.003113 3.528854,-0.635574 4.452042,-1.821655l0.878357,0.674225c-1.198456,1.52475 -3.349472,2.302582 -5.327316,2.30722c-3.47937,0.006195 -6.289154,-2.331955 -6.29689,-6.125259l0,0.000015zm11.290192,-0.507217c-0.032486,-2.947403 -2.038147,-4.586594 -5.018036,-4.580429c-2.553085,0.00621 -4.752045,1.677872 -5.021133,4.602081l10.039169,-0.021652z" id="svg_13"/>
    <path stroke="null" d="m169.965897,150.296295l3.669571,-4.888138l1.476791,-0.003098l0,0.047943l-4.418015,5.710815l4.79689,6.126801l0,0.047928l-1.452057,0.003098l-4.067001,-5.330399l-4.043808,5.348953l-1.452057,0.003082l0,-0.047928l4.767517,-6.148453l-4.444321,-5.693787l0,-0.047943l1.476791,-0.003113l3.689697,4.874222l0,0.000015z" id="svg_14"/>
    <path stroke="null" d="m183.60968,141.786514l0.007721,3.600006l4.206177,-0.009293l0.001556,0.991257l-4.206192,0.009262l0.017014,7.27269c0.003098,1.619064 0.355682,2.752563 2.284042,2.747925c0.601547,0 1.277313,-0.19487 1.902054,-0.48558l0.428345,0.964966c-0.774734,0.363403 -1.551025,0.607727 -2.327301,0.609283c-2.62886,0.006195 -3.482468,-1.490723 -3.488663,-3.833511l-0.016998,-7.272659l-2.628876,0.00618l-0.001541,-0.991226l2.62886,-0.006195l-0.007736,-3.47937l1.201538,-0.123718l0,-0.000015z" id="svg_15"/>
    <path stroke="null" d="m212.078705,147.501968c-1.255676,-1.062363 -2.481979,-1.252563 -3.859802,-1.249481c-1.928329,-0.020096 -3.777832,0.683502 -3.725235,2.206696c0.054108,1.59433 2.208206,1.90361 3.760803,2.166489c2.203583,0.357208 5.232956,0.714432 5.115448,3.493286c-0.06958,2.633514 -2.897919,3.34021 -5.075241,3.344849c-2.178879,0.004639 -4.332993,-0.788666 -5.413895,-2.379898l0.899994,-0.776291c1.029892,1.424255 2.884003,2.024231 4.535553,2.021133c1.501511,-0.003098 3.779373,-0.394318 3.850494,-2.28093c0.046402,-1.714935 -2.007187,-2.04895 -4.036072,-2.358231c-2.404617,-0.380402 -4.782959,-0.810287 -4.813889,-3.202576c-0.030945,-2.344315 2.39534,-3.363388 4.898956,-3.344833c1.803085,-0.004654 3.381943,0.476303 4.609787,1.585052l-0.746902,0.774734z" id="svg_16"/>
    <path stroke="null" d="m221.921448,141.7061l0.007721,3.599991l4.206177,-0.009262l0.001556,0.991226l-4.206177,0.009277l0.017014,7.272675c0.003082,1.619049 0.355652,2.752563 2.284012,2.749481c0.601547,-0.001556 1.277313,-0.196396 1.902054,-0.487122l0.428345,0.964935c-0.774734,0.363403 -1.55101,0.607727 -2.327301,0.61084c-2.628876,0.004639 -3.482468,-1.492279 -3.488678,-3.835052l-0.017014,-7.272675l-2.628845,0.00621l-0.001541,-0.991226l2.628891,-0.00621l-0.007751,-3.47937l1.201569,-0.123718l-0.000031,0z" id="svg_17"/>
    <path stroke="null" d="m243.881714,145.259705c0.009277,3.986603 0.01857,7.949982 0.027847,11.936584l-1.226288,0.003082l-0.00618,-2.537613c-1.196899,1.861832 -3.047943,2.737106 -5.050507,2.740189c-3.454636,0.007736 -6.29071,-2.498962 -6.298447,-6.148438s2.815979,-6.119064 6.270599,-6.126801c2.002563,-0.004623 4.031448,0.884552 5.062881,2.743286l-0.00621,-2.610291l1.226288,0l0.000015,0zm-11.327286,5.992249c0.00618,2.996902 2.263916,4.996399 5.069061,4.991745c6.884521,-0.015442 6.862885,-9.994293 -0.023193,-9.978836c-2.803604,0.004639 -5.053604,1.990173 -5.045868,4.987091z" id="svg_18"/>
    <path stroke="null" d="m252.527588,141.641159l0.009277,3.599991l4.206177,-0.009277l0.003082,0.991241l-4.207703,0.009277l0.017014,7.272659c0.003082,1.619064 0.355652,2.752579 2.285553,2.74794c0.601532,0 1.275772,-0.194839 1.900528,-0.485565l0.426758,0.964935c-0.774689,0.363403 -1.55101,0.607727 -2.327286,0.609283c-2.627319,0.006195 -3.482468,-1.490723 -3.488647,-3.833496l-0.017014,-7.272675l-2.628876,0.00621l-0.001511,-0.991257l2.628845,-0.006195l-0.007736,-3.47937l1.201553,-0.123703l-0.000015,0z" id="svg_19"/>
    <path stroke="null" d="m264.215179,141.325699c0.003113,1.255661 -1.974731,1.260284 -1.977844,0.004623s1.974762,-1.261841 1.977844,-0.004623zm-1.619049,3.845871l0.027802,11.984497l1.226318,-0.003082l-0.027863,-11.984512l-1.226288,0.003098l0.000031,0z" id="svg_20"/>
    <path stroke="null" d="m280.515686,155.448853c-1.249481,1.210846 -2.873199,1.793823 -4.501556,1.798462c-3.47937,0.007721 -6.363403,-2.305664 -6.37265,-6.075775s2.764923,-6.094315 6.346375,-6.102036c1.62677,-0.004639 3.255157,0.596909 4.510773,1.77681l-0.801025,0.75c-1.002045,-0.963409 -2.381439,-1.419586 -3.708221,-1.416504c-2.802063,0.00618 -5.152588,1.773712 -5.144836,4.988647s2.36441,4.97319 5.169586,4.966995c1.325226,-0.003098 2.675232,-0.513397 3.675751,-1.48143l0.825775,0.79483l0.000031,0z" id="svg_21"/>
    <path stroke="null" d="m304.421295,147.305573c-1.25412,-1.062363 -2.480408,-1.252563 -3.858246,-1.249466c-1.928345,-0.020111 -3.779358,0.683502 -3.723694,2.20668c0.052582,1.59433 2.206696,1.903595 3.759277,2.166504c2.205139,0.357208 5.234497,0.714417 5.115448,3.493286c-0.068024,2.633499 -2.896393,3.34021 -5.07373,3.344849s-4.332947,-0.788666 -5.412354,-2.379898l0.899994,-0.776291c1.029907,1.424225 2.882507,2.024216 4.535583,2.021118c1.503113,-0.003082 3.779388,-0.394318 3.850494,-2.279358c0.046387,-1.714966 -2.008759,-2.050507 -4.036072,-2.359802c-2.404633,-0.380417 -4.784515,-0.810318 -4.813904,-3.20256c-0.030914,-2.34433 2.396881,-3.363403 4.900513,-3.344849c1.801544,-0.003098 3.380371,0.476288 4.608215,1.585052l-0.751526,0.774734z" id="svg_22"/>
    <path stroke="null" d="m313.0625,141.222076c0.003113,1.255676 -1.973175,1.258774 -1.976257,0.003098s1.973175,-1.258759 1.976257,-0.003098zm-1.617493,3.845886l0.027832,11.984512l1.226318,-0.003098l-0.027863,-11.984512l-1.226288,0.003098z" id="svg_23"/>
    <path stroke="null" d="m322.023834,141.492706l0.007751,3.599991l4.206177,-0.009277l0.003082,0.991241l-4.207703,0.009277l0.016968,7.272659c0.004669,1.619064 0.357239,2.752579 2.287109,2.749481c0.601563,-0.001541 1.274261,-0.196381 1.900543,-0.487122l0.425232,0.964951c-0.773193,0.36496 -1.549469,0.609283 -2.325775,0.610825c-2.628876,0.004639 -3.483978,-1.490723 -3.490204,-3.833496l-0.016998,-7.272659l-2.627289,0.004639l-0.001556,-0.991241l2.627319,-0.004654l-0.007751,-3.47937l1.203094,-0.125244z" id="svg_24"/>
    <path stroke="null" d="m331.402679,151.041641c-0.007721,-3.575241 2.789703,-6.166977 6.27063,-6.174713c3.47937,-0.007736 6.589172,2.039688 6.123688,6.703598l-11.140198,0.024734c0.255157,2.802048 2.488129,4.414932 5.042786,4.41185c1.626801,-0.003098 3.527313,-0.635559 4.452087,-1.821625l0.87677,0.674225c-1.198456,1.524734 -3.351044,2.302567 -5.327332,2.307205c-3.480896,0.006195 -6.289154,-2.331955 -6.298431,-6.125259l0,-0.000015zm11.288635,-0.507187c-0.030914,-2.947449 -2.036591,-4.586594 -5.016479,-4.580429c-2.553101,0.004639 -4.752045,1.677826 -5.021118,4.602066l10.037628,-0.021637l-0.000031,0z" id="svg_25"/>
    <path stroke="null" d="m369.830444,144.508163l0.804108,0.675766l-1.198425,1.354645c0.878326,0.916992 1.532471,2.123184 1.535553,4.056168c0.006165,2.078354 -1.264923,4.182983 -3.318542,5.081436c2.18042,0.74382 3.383484,2.215973 3.389679,4.269592c0.006195,3.213379 -2.593292,4.765961 -5.871643,4.772141c-3.279877,0.007736 -5.863922,-1.725754 -5.870117,-4.745865l1.227875,-0.003082c0.004608,2.440186 2.158752,3.595337 4.63916,3.589157c2.478851,-0.004639 4.677795,-1.07164 4.673157,-3.609268c-0.006165,-2.560822 -2.387604,-3.572144 -4.690155,-3.567505c-3.579895,0.007721 -5.815979,-2.573212 -5.82373,-5.763428c-0.007721,-3.720612 2.593292,-5.828339 5.797424,-5.834503c1.252563,-0.001541 2.553101,0.429901 3.507202,1.079376l1.198456,-1.35463zm-9.273712,6.108231c0.006195,2.464951 1.762909,4.586594 4.592804,4.580414c2.55307,-0.004654 4.62677,-2.135559 4.620575,-4.600525c-0.006195,-3.020081 -2.089172,-4.634491 -4.642273,-4.629883c-2.529877,0.00618 -4.577271,1.534027 -4.571106,4.649994z" id="svg_26"/>
    <path stroke="null" d="m375.824249,150.94577c-0.007721,-3.575256 2.789673,-6.166992 6.270599,-6.174728c3.479401,-0.00618 6.589172,2.039688 6.123688,6.705139l-11.140137,0.023193c0.255127,2.802078 2.488098,4.416489 5.042786,4.41185c1.62677,-0.003082 3.527252,-0.635559 4.452026,-1.82164l0.876801,0.675781c-1.198425,1.524734 -3.351044,2.302567 -5.327332,2.305649c-3.482452,0.006195 -6.289154,-2.33194 -6.298431,-6.125244zm11.288635,-0.507217c-0.030945,-2.947403 -2.036591,-4.586563 -5.016479,-4.580383c-2.553101,0.00618 -4.752045,1.677811 -5.021088,4.602036l10.037598,-0.021652l-0.000031,0z" id="svg_27"/>
    <path stroke="null" d="m395.605652,144.936523l0.004639,2.126282c0.947937,-1.643829 2.673706,-2.324219 4.401031,-2.352081c3.306183,-0.006165 5.587097,1.945374 5.594849,5.254639l0.015442,6.886078l-1.226288,0.003098l-0.015442,-6.862885c-0.006226,-2.706192 -1.738159,-4.152054 -4.416504,-4.122665c-2.553101,0.03093 -4.326813,1.894318 -4.320587,4.357727l0.015411,6.644821l-1.226288,0.003098l-0.027832,-11.936569l1.201569,-0.001541l0,0z" id="svg_28"/>
    <path stroke="null" d="m411.134491,150.871552c-0.007751,-3.575256 2.789703,-6.166992 6.270599,-6.174728c3.47937,-0.007736 6.589172,2.038147 6.123718,6.703598l-11.140198,0.024734c0.255157,2.802048 2.488159,4.414948 5.042755,4.411835c1.626801,-0.004623 3.527313,-0.635544 4.452087,-1.823166l0.876801,0.675781c-1.198456,1.524719 -3.351013,2.302567 -5.327332,2.30722c-3.482452,0.00618 -6.289154,-2.330414 -6.298431,-6.125244l0,-0.000031zm11.288666,-0.507202c-0.030914,-2.947449 -2.036621,-4.586609 -5.01651,-4.580444c-2.55304,0.004669 -4.752075,1.676285 -5.021088,4.602081l10.037598,-0.021637z" id="svg_29"/>
    <path stroke="null" d="m430.866425,144.862274l0.055695,2.126297c0.771637,-1.620621 2.523682,-2.253067 4.099457,-2.256195c0.927856,-0.026276 1.829346,0.213409 2.656677,0.694366l-0.54892,0.968033c-0.651062,-0.385056 -1.379425,-0.552063 -2.103119,-0.550522c-2.302551,0.029388 -4.07782,1.82164 -4.071655,3.99588l0.015503,6.958755l-1.226288,0.001541l-0.027863,-11.936584l1.150513,-0.001541l0,-0.000031z" id="svg_30"/>
    <path stroke="null" d="m454.444214,144.811249c0.009247,3.986603 0.018555,7.949982 0.027863,11.936584l-1.226288,0.001541l-0.006195,-2.537613c-1.19693,1.863373 -3.047943,2.738647 -5.052032,2.740189c-3.453094,0.007736 -6.287628,-2.498962 -6.296936,-6.148438c-0.007751,-3.647934 2.815979,-6.119064 6.270599,-6.126785c2.00415,-0.003098 4.031464,0.886063 5.062897,2.743286l-0.006195,-2.610306l1.226288,0.001541zm-11.327301,5.992264c0.007721,2.996902 2.265442,4.994827 5.067535,4.990189c6.884491,-0.013916 6.861298,-9.992767 -0.023224,-9.978836c-2.800537,0.00618 -5.050507,1.993301 -5.044312,4.988647z" id="svg_31"/>
    <path stroke="null" d="m463.090027,141.192719l0.007751,3.599976l4.206177,-0.007736l0.001556,0.991241l-4.204651,0.007721l0.015472,7.27269c0.004608,1.619049 0.357239,2.754105 2.287109,2.749466c0.601563,-0.001541 1.274231,-0.196396 1.900513,-0.485565l0.426819,0.964951c-0.77475,0.363403 -1.551025,0.607742 -2.327332,0.609268c-2.628876,0.006195 -3.484009,-1.490707 -3.490173,-3.833496l-0.015503,-7.272659l-2.627319,0.006195l-0.003052,-0.991241l2.627258,-0.00621l-0.00769,-3.47937l1.203064,-0.125229z" id="svg_32"/>
    <path stroke="null" d="m472.59726,150.764847c-0.009308,-3.793274 2.789703,-6.216476 6.270599,-6.222641c3.47937,-0.007751 6.287628,2.403061 6.296906,6.196365s-2.79126,6.119064 -6.27063,6.126801c-3.480896,0.006195 -6.287598,-2.30722 -6.296875,-6.10051l0,-0.000015zm11.365967,-0.024734c-0.007751,-3.092773 -2.290222,-5.093811 -5.093811,-5.087616c-2.803589,0.006195 -5.078339,2.016479 -5.070618,5.109253s2.290192,4.948456 5.095337,4.942261c2.802063,-0.004639 5.075256,-1.871124 5.069092,-4.963898z" id="svg_33"/>
    <path stroke="null" d="m492.151337,144.732376l0.055664,2.126297c0.771637,-1.622162 2.523712,-2.253098 4.099487,-2.256195c0.927856,-0.027832 1.829346,0.213409 2.656677,0.694366l-0.54895,0.968033c-0.651062,-0.385056 -1.377869,-0.552078 -2.104645,-0.550522c-2.301056,0.029388 -4.076263,1.820099 -4.070099,3.994324l0.015472,6.958755l-1.226257,0.003098l-0.027863,-11.936584l1.150513,-0.001541l0,-0.000031z" id="svg_34"/>
   </g>
   <polygon stroke="null" fill="#010101" points="26.490392684936523,44.54959297180176 0.9425048828125,113.33451080322266 15.784743309020996,106.40823364257812 16.488351821899414,157.73442840576172 44.39603042602539,82.66807556152344 28.073896408081055,90.31806182861328 " id="svg_35"/>
   <polygon stroke="null" fill="#FFDE17" points="62.51197052001953,35.27435302734375 39.15531921386719,96.0690803527832 51.770755767822266,90.13249206542969 52.51921081542969,142.99888610839844 80.66348266601562,66.3598575592041 64.08000946044922,74.25262832641602 " id="svg_36"/>
   <polygon stroke="null" points="62.51197052001953,35.27435302734375 39.15531921386719,96.0690803527832 51.770755767822266,90.13249206542969 52.51921081542969,142.99888610839844 80.66348266601562,66.3598575592041 64.08000946044922,74.25262832641602 " id="svg_37"/>
  </g>
 </g>

</svg>