<?xml version="1.0"?>
<svg width="500" height="200" xmlns="http://www.w3.org/2000/svg">
 <g>
  <g id="svg_3">
   <title>background</title>
   <rect x="-1" y="-1" width="502" height="202" id="canvas_background" fill="none"/>
  </g>
  <g stroke="null" id="svg_4">
   <title transform="translate(0,0.5) translate(150.5,0) translate(0,0) scale(1.5546875) translate(0,0) " stroke="null">Layer 1</title>
   <circle stroke="null" fill="#F78F22" cx="250" cy="100" r="99.5" id="svg_1"/>
   <path stroke="null" fill="#fff" d="m272.609802,102.031975c-4.931458,0 -9.671692,0.946808 -13.273895,3.791885c-2.464203,-16.305565 2.753357,-26.770164 18.548981,-26.770164c11.192169,0 15.097534,7.998863 22.681305,7.998863c4.550568,0 5.688629,-3.602211 5.310852,-6.82663l17.785614,0c2.084839,10.997856 -2.274536,18.391953 -10.808197,24.840805l-20.339996,16.277565c4.172791,1.707054 7.824768,2.302498 12.187195,2.302498c5.119598,0 10.428864,-1.326149 15.358765,-5.685493c3.602234,21.045807 -6.447266,29.767593 -18.774414,29.767593c-12.75,0 -12.899231,-9.673264 -20.862335,-9.673264c-4.550568,0 -5.688599,3.415649 -5.309265,6.828201l-19.332535,0c-2.08638,-11.185989 2.274521,-18.39196 10.808182,-24.840805l20.85614,-15.735001c-3.224426,-1.517365 -11.044495,-2.276054 -14.836395,-2.276054zm-18.656235,24.187828c-0.774231,0.13681 -1.61998,0.233208 -2.495285,0.233208c-2.025742,0 -3.684601,-1.47229 -3.684601,-3.86496c0,-5.155342 4.673401,-17.110886 4.673401,-25.028915c0,-11.232613 -5.408768,-18.782181 -17.930222,-18.782181c-6.445724,0 -15.476913,1.974449 -19.89534,8.602089l8.698486,-50.297249l-25.709869,4.497711l-17.852478,102.017036l24.7444,0l5.097824,-28.017014c2.027313,-11.416077 6.260727,-14.545662 10.68071,-14.545662c3.68306,0 6.259171,2.39267 6.259171,6.075714c0,8.839966 -4.914368,15.312119 -4.914368,23.597054c0,10.497238 7.366119,14.178757 16.019501,14.178757l12.045715,0c-1.450516,-7.792099 0.230103,-13.645493 4.262955,-18.665588z" id="svg_2"/>
  </g>
 </g>

</svg>