<svg width="500" height="200" xmlns="http://www.w3.org/2000/svg"><path fill="none" d="M-1-1h502v202H-1z"/><g stroke="null"><circle fill="#F78F22" cx="250" cy="100" r="99.5"/><path fill="#fff" d="M272.61 102.032c-4.932 0-9.672.947-13.274 3.792-2.464-16.306 2.753-26.77 18.55-26.77 11.19 0 15.096 8 22.68 8 4.55 0 5.69-3.604 5.31-6.828h17.787c2.084 10.998-2.275 18.392-10.81 24.84l-20.34 16.278c4.174 1.707 7.826 2.303 12.19 2.303 5.118 0 10.428-1.326 15.357-5.686 3.603 21.047-6.447 29.77-18.774 29.77-12.75 0-12.9-9.674-20.862-9.674-4.55 0-5.69 3.415-5.31 6.828h-19.332c-2.087-11.186 2.274-18.392 10.808-24.84l20.856-15.736c-3.224-1.517-11.044-2.276-14.836-2.276zm-18.656 24.188c-.775.137-1.62.233-2.496.233-2.025 0-3.684-1.472-3.684-3.865 0-5.155 4.673-17.11 4.673-25.03 0-11.23-5.41-18.78-17.93-18.78-6.446 0-15.477 1.973-19.895 8.6l8.698-50.296-25.71 4.498-17.852 102.017h24.744l5.098-28.017c2.027-11.417 6.26-14.546 10.68-14.546 3.684 0 6.26 2.393 6.26 6.076 0 8.84-4.915 15.312-4.915 23.597 0 10.497 7.367 14.178 16.02 14.178h12.046c-1.45-7.792.23-13.645 4.264-18.665z"/></g></svg>