<?xml version="1.0"?>
<svg width="500" height="200" xmlns="http://www.w3.org/2000/svg">
 <g>
  <title>background</title>
  <rect x="-1" y="-1" width="502" height="202" id="canvas_background" fill="none"/>
 </g>

 <g>
  <title>Layer 1</title>
  <g stroke="null" id="svg_1">
   <path stroke="null" fill="#FFA837" d="m169.298691,73.360733c-1.044662,-1.044693 -1.567001,-2.35054 -1.567001,-3.656387c0,-1.305847 0.522339,-2.611687 1.567001,-3.656357c1.044708,-1.044678 2.35054,-1.567024 3.656357,-1.567024c1.305878,0 2.611725,0.522346 3.656418,1.567024c1.044647,1.04467 1.566986,2.35051 1.566986,3.656357c0,1.305847 -0.522339,2.611694 -1.566986,3.656387c-1.044693,1.044662 -2.35054,1.567001 -3.656418,1.567001c-1.305817,0 -2.611649,-0.522339 -3.656357,-1.567001zm8.879761,50.144501l-10.446747,0l0,-41.787079l10.446747,0l0,41.787079z" id="svg_2"/>
   <path stroke="null" fill="#FFA837" d="m200.116684,101.04467l0,22.460564l-8.879745,0l0,-41.787079l8.879745,0l0,7.835075c1.305847,-2.611702 3.134018,-4.439888 5.745728,-6.006897c2.611679,-1.567017 5.223373,-2.089363 8.096237,-2.089363c6.529251,0 10.969116,2.611702 13.319641,8.09626c4.178696,-5.484558 9.14093,-8.09626 15.408981,-8.09626c4.701065,0 8.618607,1.305855 11.491455,4.178703c2.872849,2.872871 4.439865,7.051567 4.439865,12.536133l0,25.333427l-8.87973,0l0,-22.982903c0,-7.573914 -3.134064,-11.491463 -9.6633,-11.491463c-2.872833,0 -5.484528,1.044708 -7.835052,2.872871c-2.089355,1.828186 -3.395187,4.701042 -3.395187,8.357414l0,23.24408l-8.879776,0l0,-22.982903c0,-3.917534 -0.783508,-6.790398 -2.089355,-8.618584c-1.305862,-1.828171 -3.656357,-2.872879 -6.529221,-2.872879c-3.134048,0 -5.745728,1.044708 -7.835114,3.134048c-2.350464,2.089348 -3.395172,4.962219 -3.395172,8.879753z" id="svg_3"/>
   <path stroke="null" fill="#FFA837" d="m344.282135,90.075577c-4.43988,0 -7.573883,1.305817 -9.663269,4.178696c-2.089386,2.872864 -3.395172,6.529236 -3.395172,11.23027l0,18.020691l-9.40213,0l0,-41.787079l9.4021,0l0,8.357422c1.305786,-2.611702 3.395203,-4.701057 5.745697,-6.529243c2.350525,-1.567017 5.484558,-2.611694 8.357391,-2.611694l0,8.879745c-0.261139,0.261192 -0.783478,0.261192 -1.044617,0.261192z" id="svg_4"/>
   <path stroke="null" fill="#FFA837" d="m386.852692,123.505234l-7.573883,0l0,-5.484558c-3.395264,4.178703 -8.357422,6.268036 -14.103149,6.268036c-4.43988,0 -7.835052,-1.305832 -10.707916,-3.656342c-2.872894,-2.350525 -4.178772,-5.745735 -4.178772,-9.924438c0,-4.178711 1.567017,-7.051575 4.439941,-9.140915c3.134033,-2.089363 7.051544,-3.134033 12.274933,-3.134033l11.491425,0l0,-1.567032c0,-5.484543 -3.134033,-8.357407 -9.140869,-8.357407c-3.917572,0 -7.835144,1.30584 -12.013794,4.178696l-3.917542,-5.484543c4.962189,-3.917534 10.707886,-6.006905 17.237152,-6.006905c4.96225,0 8.879822,1.305855 12.013763,3.65638c3.134033,2.61171 4.70108,6.268074 4.70108,11.752632l0,26.900429l-0.522369,0zm-8.618561,-15.408989l0,-3.39521l-9.924408,0c-6.268127,0 -9.40213,2.089355 -9.40213,6.006897c0,2.08934 0.783539,3.656372 2.350555,4.70105c1.567017,1.044678 3.656311,1.567001 6.529236,1.567001c2.872833,0 5.223389,-0.783485 7.312683,-2.35051c2.089355,-1.828201 3.134064,-3.917542 3.134064,-6.529236l0,0.000008z" id="svg_5"/>
   <path stroke="null" fill="#FFA837" d="m399.127686,72.31604c-1.044647,-1.04467 -1.567047,-2.35051 -1.567047,-3.656357s0.5224,-2.611687 1.567047,-3.656372c1.044647,-1.044682 2.350525,-1.56702 3.656372,-1.56702s2.611664,0.522339 3.656372,1.56702c1.044647,1.044685 1.567017,2.350525 1.567017,3.656372s-0.522369,2.611687 -1.567017,3.656357c-1.044708,1.044693 -2.350555,1.567024 -3.656372,1.567024s-2.611725,-0.522331 -3.656372,-1.567024zm8.879761,51.189194l-10.446808,0l0,-41.787079l10.446808,0l0,41.787079z" id="svg_6"/>
   <path stroke="null" fill="#FFA837" d="m450.316833,110.969109c0,3.917526 -1.305878,7.051575 -4.43988,9.402084c-2.872833,2.350533 -6.529205,3.656372 -10.969086,3.656372c-3.134064,0 -6.268127,-0.522331 -9.40213,-1.567024c-3.134003,-1.044662 -6.268036,-2.611679 -8.618591,-4.701035l4.178741,-6.79039c4.962158,3.656357 9.663269,5.484543 14.103119,5.484543c2.089325,0 3.656372,-0.522331 4.70105,-1.305847c1.044647,-1.044662 1.828186,-2.089348 1.828186,-3.395187c0,-2.089355 -2.872864,-3.917542 -8.357391,-5.745728c-0.522339,-0.261169 -0.783539,-0.261169 -1.044678,-0.261169c-8.618622,-2.350525 -13.058472,-6.268066 -13.058472,-11.752617c0,-3.917526 1.567017,-7.051575 4.43985,-9.402107c3.134033,-2.35051 6.790375,-3.395195 11.752625,-3.395195c4.70108,0 9.4021,1.305855 13.58078,4.178719l-3.395203,6.529236c-3.395203,-2.350525 -7.051544,-3.39521 -10.969055,-3.39521c-2.089386,0 -3.917542,0.261162 -4.962189,1.044685c-1.305878,0.783508 -2.089386,1.828171 -2.089386,3.395195c0,1.305855 0.783508,2.350517 2.089386,2.872856c1.044647,0.522354 2.350494,1.044678 3.91748,1.305847c1.567017,0.522339 3.134033,0.783508 4.439911,1.305862c1.305847,0.522324 2.611664,0.783501 3.917542,1.305832c1.305847,0.522331 2.611664,1.305847 3.917511,2.089355c3.134003,2.350525 4.43988,5.223381 4.43988,9.14093l0,-0.000008z" id="svg_7"/>
   <path stroke="null" fill="#FFA837" d="m499.155457,106.529221l-32.646118,0c0.261169,3.134033 1.567047,5.484558 4.17868,7.312744c2.611725,1.828186 5.484619,2.872864 8.879761,2.872864c5.223419,0 9.14093,-1.567017 12.013824,-4.962219l4.962219,5.484543c-4.43988,4.701073 -10.446808,7.051559 -17.498383,7.051559c-5.745697,0 -10.707886,-1.828186 -14.886627,-5.745697c-4.17868,-3.917542 -6.268036,-9.14093 -6.268036,-15.670166c0,-6.529228 2.089355,-11.752609 6.268036,-15.670158c4.178741,-3.917534 9.14093,-5.745735 14.886627,-5.745735c5.745758,0 10.446808,1.828201 14.364319,5.223404c3.917511,3.39521 6.006927,8.096237 6.006927,14.103127l0,5.745735l-0.26123,0l0,0zm-32.646118,-7.051567l23.766388,0c0,-3.395195 -1.044647,-6.268074 -3.395172,-8.09626c-2.089355,-1.828163 -4.96225,-2.872849 -8.096252,-2.872849c-3.134064,0 -6.006897,1.044685 -8.618591,2.872849c-2.350555,2.089355 -3.656372,4.962234 -3.656372,8.09626z" id="svg_8"/>
   <path stroke="null" fill="#FFA837" d="m292.048248,81.718155c5.484558,0 10.446808,1.828178 14.364349,5.74572c3.917511,3.917519 6.006866,9.140923 6.006866,15.408974c0,6.529236 -2.089355,11.752625 -6.006866,15.670166c-3.917542,3.917511 -8.618591,6.006912 -13.84201,6.006912c-5.223419,0 -9.924408,-2.350548 -14.103088,-6.790421l0,21.415863l-8.879822,0l0,-56.934875l8.879822,0l0,7.312737c3.395142,-5.223389 7.835022,-7.835075 13.58075,-7.835075l0,0zm-13.84198,21.415863c0,3.917549 1.305878,7.312744 3.656403,9.663261c2.350525,2.611702 5.223389,3.917549 8.879761,3.917549c3.395203,0 6.529205,-1.305847 9.14093,-3.656364c2.611725,-2.611702 3.917511,-5.745735 3.917511,-9.663261s-1.305786,-7.312744 -3.656372,-9.924438c-2.611664,-2.611694 -5.484528,-3.917534 -9.14093,-3.917534c-3.395172,0 -6.529205,1.30584 -8.87973,3.917534c-2.611694,2.350517 -3.917572,5.745728 -3.917572,9.663254z" id="svg_9"/>
   <path stroke="null" fill="#FFA837" d="m65.875671,34.707672c-36.041368,0 -65.292328,29.250957 -65.292328,65.292328s29.250959,65.292328 65.292328,65.292328s65.292328,-29.250977 65.292328,-65.292328s-29.250977,-65.292328 -65.292328,-65.292328zm-24.02758,76.522598c-0.783504,1.567001 -1.305847,1.828178 -1.828186,4.439865l-7.835075,0c-4.962223,0 -7.051577,-4.178696 -4.701048,-8.357407l14.10314,-24.811081c1.305847,-2.089363 2.872864,-3.134026 4.701046,-3.134026c1.567013,0 3.395206,1.044662 4.439888,3.134026l3.656364,6.529221l-3.134037,5.223404c0,0 -5.223385,-9.14093 -5.223385,-9.402107c0,0 -14.10314,24.811089 -14.10314,24.811089c-0.261171,0.261177 0,0.783508 0,0.783508l10.446775,0l-0.522343,0.783508zm55.367874,14.886627l-43.615253,0c-7.573914,0 -10.707943,-5.745705 -7.051575,-12.274933l21.938221,-37.869553c3.656372,-6.529221 10.446754,-6.268066 14.103142,0l21.938217,37.608383c3.395195,6.790398 0,12.536102 -7.312752,12.536102z" id="svg_10"/>
  </g>
 </g>
</svg>