<svg xmlns="http://www.w3.org/2000/svg" id="svg3336" width="500" height="98.283" xmlns:xlink="http://www.w3.org/1999/xlink" viewBox="0 0 5"><style>.st0{clip-path:url(#SVGID_2_);fill:#FA0029;}</style><g id="Layer_1" transform="scale(.19143)"><defs id="defs3341"><path id="SVGID_1_" d="M0 0h2611.9v513.4H0z"/></defs><clipPath id="SVGID_2_"><use id="use3345" width="100%" height="100%" xlink:href="#SVGID_1_" overflow="visible"/></clipPath><path id="path3347" fill="#fa0029" d="M2033.7 245.1l62.2-136c5.3-11.6 5.3-11.6 12.4-11.6 8 0 8 0 9.8 12.4l18.7 135.1h-103.1zm167.9-189.3c-9.8-53.3-9.8-53.3-85.3-53.3-71.1 0-70.2 0-91.5 43.5L1864 379.2c-23.1 48-19.5 51.5 40 51.5 46.2 0 45.3 0 64.9-42.7l25.8-56.9h154.6l8 56.9c6.2 42.7 8 42.7 54.2 42.7 52 0 57-3.7 47.1-55.1l-57-319.8zm-369.4 37.3c37.8 0 37.9-.4 45.6-45.3 7.8-45.2 7.7-45.3-26.9-45.3H1659c-67.5 0-66.2 0-77.8 68.4L1531.9 357c-12.4 73.8-11.7 73.8 57.7 73.8h187.5c39.1 0 38.2 0 46.2-44.4 8-46.2 8-46.2-27.5-46.2H1634l13.3-82.6h134.2c36.4 0 36.4 0 42.7-42.7 7.1-43.5 7.1-43.5-42.7-43.5h-120l13.3-78.2h157.4zM1360.3 2.5h-268.9c-38.2 0-38.2 0-46.2 45.3s-7.1 45.3 26.7 45.3h87.6l-48.8 282.6c-8.9 55.1-8.1 55.1 41.6 55.1 45.4 0 48.1 0 54.3-39.1L1258 93.1h83.5c37.7 0 37.7 0 45.6-45.3 7.9-45.2 7.9-45.3-26.8-45.3m-735.2 0c-46.8 0-47.7.3-54.4 39.2l-35.4 205.8c-9.8 59.5-25.9 94.5-83.7 94.5-57.8 0-77.5-34.7-68.6-88l33.6-196.7c8.9-55.1 7.3-54.8-41.6-54.8-47.7 0-49-.4-55.2 38.7l-35.4 206.5C264.1 364.6 336.1 437 439.1 437c115.5 0 173.7-51.5 193.2-175l35.2-204.5c9.5-55 7.3-55-42.4-55m-396.8 0H110.6c-38.5 0-38.5 0-46.4 44.6-7.9 44.6-6.9 46 27.2 46h69.8l-38.8 226.1C113.7 370 91 404.1 22.7 425.1 5.3 430.3 0 437.3 0 445.2c0 8.7 3.5 17.5 10.5 35.9C21 508.2 28 513.4 37.6 513.4c9.6 0 27.1-5.3 33.2-7 97.1-31.5 135.6-105.9 151.3-195.1L266 56.8c9.6-53.4 9.6-54.3-37.7-54.3m613.1 337.9c37.9-2.2 57.8-18.5 57.8-37.1 0-22.2-27.5-30.2-64-40.9-72-22.2-136-47.4-136-123.8C699.3 48.8 773.1 0 866.4 0c39.1 0 84 2.3 113.1 5 26.1 2.4 30.9 11.7 24.2 50.8-6.7 39-15.8 43.1-37.4 41.2-26.9-2.3-61.7-4.8-102.3-4.3-48 .6-61.6 16.9-61.6 33.7 0 20.4 18.7 32 63.1 43.5 82.6 24 136.8 56.5 136.8 127.6 0 83.5-62.2 132.4-161.7 136.3-54.2 2.1-100.8-1.9-142.1-7.9-31.7-4.6-32.8-5.2-24.9-50.7 7.2-41.5 8.2-44.4 37.3-40.9 56.1 6.8 92.6 8.3 130.5 6.1M2580.8 2.5h-268.9c-38.2 0-38.2 0-46.2 45.3s-7.1 45.3 26.7 45.3h87.6l-48.8 282.6c-8.9 55.1-8.1 55.1 41.6 55.1 45.4 0 48.1 0 54.3-39.1l51.4-298.6h83.5c37.7 0 37.7 0 45.6-45.3 7.9-45.2 7.8-45.3-26.8-45.3" class="st0" clip-path="url(#SVGID_2_)"/></g></svg>