<svg xmlns="http://www.w3.org/2000/svg" viewBox="0 0 500 200" height="200" width="500"><defs><clipPath id="a"><path d="M0 0h841.89v595.276H0V0z"/></clipPath></defs><path d="M102.935 126.725l-51.09-51.097 40.69-40.68 51.087 51.096-40.687 40.68z" fill="#00adef"/><path d="M68.24 92.042l-16.426 16.42 51.09 51.098 41.12-41.117-16.4-16.404-.014.01 16.397 16.4-41.068 8.29-34.7-34.71z" fill="#80d6f7"/><path d="M92.937 67.348l-.014.014 34.688 34.69.02-.013-34.69-34.7z" fill="#00adef"/><path d="M52.028 75.81l-.016.004L68.24 92.042l.008-.01-16.22-16.222z" fill="#6d90d2"/><path d="M92.918 67.355l-40.89 8.455 16.22 16.222 24.675-24.67-.005-.007z" fill="#1082ce"/><path d="M68.248 92.033l-.01.008 34.7 34.71 41.068-8.29-16.395-16.4-24.67 24.67-34.68-34.69z" fill="#3f89d0"/><path d="M92.923 67.36L68.248 92.034l34.687 34.693 24.676-24.673L92.93 67.36z" fill="#1082ce"/><g clip-path="url(#a)" transform="matrix(1.74 0 0 -1.74 -184.378 749.494)"><path d="M255.524 379.305c-1.76 2.463-4.575 3.694-8.44 3.694-1.506 0-2.942-.18-4.31-.52-.96-.26-2.18-.74-3.67-1.44l1.31-3.36c2.308.9 4.53 1.36 6.67 1.36 1.18 0 2.17-.22 2.976-.65 1.214-.64 2.052-1.83 2.514-3.59l-3.464-.77c-3.455-.79-5.944-1.72-7.465-2.8-2.242-1.59-3.362-3.77-3.362-6.52 0-2.62.873-4.67 2.618-6.16 1.61-1.35 3.92-2.03 6.93-2.03 3.18 0 6.43.61 9.73 1.85v11.36c0 1.11-.04 2.19-.12 3.23-.2 2.72-.84 4.82-1.9 6.31m-2.59-18.01c-1.64-.53-3.47-.8-5.49-.8-1.66 0-2.83.34-3.51 1.02-.71.72-1.07 1.84-1.07 3.36 0 1.3.36 2.33 1.08 3.08.89.91 3 1.74 6.31 2.51l2.67.59c.02-.446.03-.88.03-1.31v-8.466zm25.06 8.44c-.8.54-2.21 1.13-4.23 1.77l-2.85.87c-.73.22-1.29.41-1.66.56a2.505 2.505 0 0 0-1.15.9c-.37.48-.56 1.11-.56 1.9 0 1.19.54 2.07 1.62 2.61.93.46 2 .69 3.24.69 2.14 0 4.41-.45 6.8-1.36l1.29 3.36c-2.68 1.3-5.35 1.95-8 1.95-2.86 0-5.14-.71-6.85-2.13-1.644-1.365-2.465-3.144-2.465-5.333 0-2.48.91-4.348 2.72-5.597.753-.53 1.985-1.08 3.695-1.64l2.1-.67c1.64-.542 2.74-.98 3.286-1.303.856-.53 1.28-1.31 1.28-2.335 0-1.45-.673-2.45-2.024-3-.79-.323-1.83-.485-3.13-.485-2.33 0-4.78.57-7.362 1.7l-1.285-3.334c1.334-.72 2.51-1.23 3.515-1.54 1.61-.51 3.405-.77 5.39-.77 3.284 0 5.68.71 7.184 2.13 1.44 1.35 2.153 3.104 2.153 5.26 0 2.632-.89 4.57-2.67 5.8m17.83-9.24c-3.06 0-4.91 1.43-5.54 4.287-.22 1.06-.33 2.744-.33 5.053 0 3.52.382 5.873 1.15 7.053.94 1.44 2.52 2.16 4.743 2.16 1.966 0 4.12-.45 6.465-1.36l1.28 3.36c-.99.48-1.782.83-2.38 1.052-1.628.6-3.43.9-5.416.9-5.47 0-8.78-2.378-9.93-7.13-.36-1.457-.53-3.518-.53-6.186 0-1.03.04-2.07.13-3.13.21-2.72.84-4.83 1.9-6.31 1.762-2.47 4.58-3.7 8.44-3.7a17.4 17.4 0 0 1 4.29.51c1.01.26 2.23.74 3.67 1.44l-1.29 3.36c-2.31-.91-4.526-1.36-6.646-1.36m29.192 18.81c-1.76 2.46-4.573 3.69-8.44 3.69a17.73 17.73 0 0 1-4.31-.516c-.96-.252-2.18-.73-3.67-1.432l1.31-3.36c2.31.906 4.53 1.36 6.67 1.36 1.18 0 2.17-.22 2.98-.64 1.22-.635 2.06-1.83 2.52-3.594l-3.467-.77c-3.45-.782-5.94-1.714-7.46-2.792-2.24-1.593-3.36-3.765-3.36-6.52 0-2.615.87-4.67 2.614-6.156 1.61-1.35 3.914-2.024 6.924-2.024 3.18 0 6.42.616 9.722 1.848v11.362c0 1.11-.04 2.19-.12 3.232-.208 2.72-.84 4.82-1.9 6.31m-2.59-18.01c-1.645-.53-3.475-.797-5.49-.797-1.66 0-2.83.34-3.518 1.023-.72.72-1.08 1.84-1.08 3.36 0 1.3.36 2.32 1.08 3.08.89.9 2.99 1.74 6.31 2.51l2.67.59c.02-.447.03-.88.03-1.31v-8.46zm40.97 8.93c0 8.52-3.01 12.774-9.03 12.774-1.508 0-2.86-.19-4.057-.57-3.076-.993-5.035-3.18-5.873-6.57-.36-1.42-.54-3.454-.54-6.105 0-1.095.045-2.164.13-3.207.206-2.7.85-4.807 1.925-6.31 1.8-2.465 4.66-3.697 8.6-3.697 2.686 0 5.38.65 8.08 1.95l-1.282 3.36c-2.325-.903-4.565-1.36-6.72-1.36-1.76 0-3.12.41-4.08 1.23-1.11.96-1.75 2.61-1.923 4.96l12.8 1.23c1.315.134 1.974.903 1.974 2.31m-14.88-.055c.04 3.34.43 5.57 1.18 6.7.96 1.45 2.48 2.18 4.57 2.18 1.987 0 3.33-1 4.03-3 .43-1.18.68-2.8.747-4.85l-10.51-1.022z" fill="#182b49"/></g><path d="M225.27 84.348h-9.77l-18.426 20.122V65.224l-8.03 8.03v55.308h8.03v-13.385l5.533-6.067 13.963 19.452h9.503l-18.158-25.252 17.355-18.962zm170.34 44.214h8.032V65.534l-8.03 8.03v54.998z" fill="#182b49"/></svg>