<?xml version="1.0" encoding="UTF-8" standalone="no"?> <svg xmlns:dc="http://purl.org/dc/elements/1.1/" xmlns:cc="http://creativecommons.org/ns#" xmlns:rdf="http://www.w3.org/1999/02/22-rdf-syntax-ns#" xmlns:svg="http://www.w3.org/2000/svg" xmlns="http://www.w3.org/2000/svg" version="1.1" id="svg4304" viewBox="0 0 355.34892 160.43852" height="45.279316mm" width="100.28742mm"> <defs id="defs4306"> <clipPath clipPathUnits="userSpaceOnUse" id="clipPath3027"> <path d="m 0,0 841.89,0 0,595.276 L 0,595.276 0,0 Z" id="path3029" /> </clipPath> </defs> <metadata id="metadata4309"> <rdf:RDF> <cc:Work rdf:about=""> <dc:format>image/svg+xml</dc:format> <dc:type rdf:resource="http://purl.org/dc/dcmitype/StillImage" /> <dc:title></dc:title> </cc:Work> </rdf:RDF> </metadata> <g transform="translate(6.8202223,24.836808)" id="layer1"> <g id="g2995" transform="matrix(1.25,0,0,-1.25,65.358627,76.566263)"> <path d="M 0,0 -29.378,29.383 -5.981,52.776 23.397,23.393 0,0 Z" style="fill:#00adef;fill-opacity:1;fill-rule:nonzero;stroke:none" id="path2997" /> </g> <g id="g2999" transform="matrix(1.25,0,0,-1.25,40.419007,51.636143)"> <path d="m 0,0 -9.445,-9.443 29.379,-29.383 23.646,23.644 -9.431,9.433 -0.008,-0.008 9.429,-9.43 L 19.954,-19.956 0,0 Z" style="fill:#80d6f7;fill-opacity:1;fill-rule:nonzero;stroke:none" id="path3001" /> </g> <g id="g3003" transform="matrix(1.25,0,0,-1.25,58.171877,33.885894)"> <path d="m 0,0 -0.008,-0.008 19.947,-19.949 0.007,0.008 L 0,0 Z" style="fill:#00adef;fill-opacity:1;fill-rule:nonzero;stroke:none" id="path3005" /> </g> <g id="g3007" transform="matrix(1.25,0,0,-1.25,28.766627,39.968644)"> <path d="M 0,0 -0.009,-0.002 9.322,-9.334 9.327,-9.329 0,0 Z" style="fill:#6d90d2;fill-opacity:1;fill-rule:nonzero;stroke:none" id="path3009" /> </g> <g id="g3011" transform="matrix(1.25,0,0,-1.25,58.158127,33.891394)"> <path d="M 0,0 -23.513,-4.862 -14.186,-14.19 0.003,-0.003 0,0 Z" style="fill:#1082ce;fill-opacity:1;fill-rule:nonzero;stroke:none" id="path3013" /> </g> <g id="g3015" transform="matrix(1.25,0,0,-1.25,40.425627,51.629513)"> <path d="m 0,0 -0.005,-0.005 19.953,-19.957 23.616,4.77 -9.428,9.43 L 19.946,-19.949 0,0 Z" style="fill:#3f89d0;fill-opacity:1;fill-rule:nonzero;stroke:none" id="path3017" /> </g> <g id="g3019" transform="matrix(1.25,0,0,-1.25,58.162127,33.895634)"> <path d="M 0,0 -14.189,-14.187 5.757,-34.137 19.947,-19.949 0,0 Z" style="fill:#1082ce;fill-opacity:1;fill-rule:nonzero;stroke:none" id="path3021" /> </g> <g id="g3023" transform="matrix(1.25,0,0,-1.25,-141.16249,524.21401)"> <g id="g3025" clip-path="url(#clipPath3027)"> <g id="g3031" transform="translate(255.5244,379.305)"> <path d="m 0,0 c -1.761,2.463 -4.575,3.694 -8.441,3.694 -1.505,0 -2.941,-0.171 -4.31,-0.513 -0.958,-0.256 -2.18,-0.735 -3.669,-1.436 l 1.309,-3.361 c 2.309,0.906 4.532,1.36 6.67,1.36 1.181,0 2.172,-0.215 2.977,-0.642 1.214,-0.633 2.052,-1.83 2.514,-3.592 l -3.464,-0.769 c -3.455,-0.787 -5.944,-1.719 -7.465,-2.797 -2.242,-1.591 -3.362,-3.763 -3.362,-6.516 0,-2.617 0.873,-4.67 2.618,-6.158 1.607,-1.351 3.916,-2.027 6.926,-2.027 3.182,0 6.423,0.616 9.724,1.848 l 0,11.365 c 0,1.112 -0.043,2.189 -0.128,3.233 C 1.694,-3.592 1.061,-1.488 0,0 m -2.591,-18.01 c -1.642,-0.53 -3.472,-0.796 -5.491,-0.796 -1.658,0 -2.83,0.342 -3.514,1.027 -0.718,0.718 -1.077,1.838 -1.077,3.36 0,1.3 0.359,2.326 1.077,3.079 0.889,0.907 2.992,1.745 6.311,2.514 l 2.668,0.591 c 0.017,-0.445 0.026,-0.882 0.026,-1.309 l 0,-8.466 z" style="fill:#182b49;fill-opacity:1;fill-rule:nonzero;stroke:none" id="path3033" /> </g> <g id="g3035" transform="translate(277.9987,369.7355)"> <path d="m 0,0 c -0.804,0.547 -2.215,1.137 -4.233,1.77 l -2.848,0.872 c -0.735,0.223 -1.291,0.411 -1.667,0.565 -0.479,0.188 -0.864,0.487 -1.155,0.898 -0.377,0.478 -0.565,1.111 -0.565,1.898 0,1.197 0.539,2.07 1.617,2.617 0.924,0.462 2.001,0.693 3.232,0.693 2.138,0 4.405,-0.453 6.799,-1.36 l 1.283,3.361 c -2.685,1.3 -5.353,1.95 -8.004,1.95 -2.857,0 -5.14,-0.71 -6.851,-2.13 -1.642,-1.368 -2.463,-3.147 -2.463,-5.336 0,-2.48 0.907,-4.344 2.72,-5.593 0.752,-0.53 1.984,-1.077 3.694,-1.642 l 2.104,-0.667 c 1.642,-0.547 2.737,-0.983 3.284,-1.308 0.855,-0.531 1.283,-1.309 1.283,-2.335 0,-1.454 -0.676,-2.454 -2.027,-3.002 -0.787,-0.325 -1.83,-0.487 -3.13,-0.487 -2.326,0 -4.781,0.564 -7.363,1.693 l -1.283,-3.335 c 1.334,-0.718 2.506,-1.231 3.515,-1.54 1.607,-0.512 3.403,-0.769 5.388,-0.769 3.284,0 5.678,0.709 7.184,2.129 1.436,1.351 2.154,3.105 2.154,5.26 C 2.668,-3.165 1.779,-1.232 0,0" style="fill:#182b49;fill-opacity:1;fill-rule:nonzero;stroke:none" id="path3037" /> </g> <g id="g3039" transform="translate(295.8297,360.4993)"> <path d="m 0,0 c -3.062,0 -4.909,1.428 -5.542,4.285 -0.222,1.06 -0.333,2.745 -0.333,5.054 0,3.523 0.385,5.875 1.154,7.055 0.94,1.437 2.523,2.155 4.746,2.155 1.967,0 4.122,-0.453 6.466,-1.36 L 7.773,20.55 C 6.781,21.029 5.986,21.38 5.387,21.602 3.762,22.201 1.958,22.5 -0.026,22.5 c -5.473,0 -8.783,-2.377 -9.929,-7.132 -0.359,-1.454 -0.538,-3.515 -0.538,-6.183 0,-1.026 0.042,-2.07 0.128,-3.13 0.205,-2.72 0.838,-4.824 1.898,-6.311 1.762,-2.464 4.575,-3.695 8.441,-3.695 1.505,0 2.933,0.171 4.284,0.513 1.009,0.257 2.233,0.736 3.669,1.437 L 6.644,1.36 C 4.335,0.453 2.12,0 0,0" style="fill:#182b49;fill-opacity:1;fill-rule:nonzero;stroke:none" id="path3041" /> </g> <g id="g3043" transform="translate(325.0253,379.305)"> <path d="m 0,0 c -1.761,2.463 -4.575,3.694 -8.441,3.694 -1.505,0 -2.941,-0.171 -4.31,-0.513 -0.958,-0.256 -2.18,-0.735 -3.669,-1.436 l 1.309,-3.361 c 2.309,0.906 4.532,1.36 6.67,1.36 1.181,0 2.172,-0.215 2.977,-0.642 1.214,-0.633 2.052,-1.83 2.514,-3.592 l -3.464,-0.769 c -3.455,-0.787 -5.943,-1.719 -7.465,-2.797 -2.242,-1.591 -3.362,-3.763 -3.362,-6.516 0,-2.617 0.873,-4.67 2.618,-6.158 1.607,-1.351 3.916,-2.027 6.926,-2.027 3.182,0 6.423,0.616 9.724,1.848 l 0,11.365 c 0,1.112 -0.043,2.189 -0.128,3.233 C 1.694,-3.592 1.061,-1.488 0,0 m -2.591,-18.01 c -1.642,-0.53 -3.472,-0.796 -5.491,-0.796 -1.658,0 -2.83,0.342 -3.514,1.027 -0.718,0.718 -1.077,1.838 -1.077,3.36 0,1.3 0.359,2.326 1.077,3.079 0.889,0.907 2.992,1.745 6.311,2.514 l 2.668,0.591 c 0.017,-0.445 0.026,-0.882 0.026,-1.309 l 0,-8.466 z" style="fill:#182b49;fill-opacity:1;fill-rule:nonzero;stroke:none" id="path3045" /> </g> <g id="g3047" transform="translate(363.4066,370.2229)"> <path d="m 0,0 c 0,8.518 -3.011,12.776 -9.031,12.776 -1.505,0 -2.857,-0.188 -4.054,-0.564 -3.078,-0.992 -5.037,-3.181 -5.875,-6.568 -0.359,-1.419 -0.539,-3.455 -0.539,-6.106 0,-1.095 0.043,-2.164 0.129,-3.207 0.205,-2.702 0.847,-4.806 1.924,-6.311 1.796,-2.463 4.66,-3.695 8.594,-3.695 2.685,0 5.379,0.65 8.082,1.95 l -1.283,3.361 c -2.326,-0.906 -4.566,-1.36 -6.722,-1.36 -1.761,0 -3.122,0.411 -4.079,1.232 -1.112,0.958 -1.753,2.608 -1.924,4.951 l 12.802,1.232 C -0.659,-2.172 0,-1.403 0,0 m -14.88,-0.051 c 0.034,3.335 0.426,5.567 1.18,6.696 0.957,1.453 2.479,2.181 4.566,2.181 1.984,0 3.327,-1.001 4.028,-3.002 0.428,-1.18 0.676,-2.797 0.744,-4.849 L -14.88,-0.051 Z" style="fill:#182b49;fill-opacity:1;fill-rule:nonzero;stroke:none" id="path3049" /> </g> </g> </g> <g id="g3051" transform="matrix(1.25,0,0,-1.25,153.29326,46.105894)"> <path d="m 0,0 -5.618,0 -10.596,-11.571 0,22.568 -4.618,-4.617 0,-31.805 4.618,0 0,7.697 3.182,3.489 8.029,-11.186 5.465,0 L -9.98,-10.904 0,0 Z" style="fill:#182b49;fill-opacity:1;fill-rule:nonzero;stroke:none" id="path3053" /> </g> <g id="g3055" transform="matrix(1.25,0,0,-1.25,275.73476,77.887013)"> <path d="m 0,0 4.618,0 0,36.244 L 0,31.627 0,0 Z" style="fill:#182b49;fill-opacity:1;fill-rule:nonzero;stroke:none" id="path3057" /> </g> </g> </svg>
