<?xml version="1.0" encoding="utf-8"?>
<!-- Generator: Adobe Illustrator 17.0.1, SVG Export Plug-In . SVG Version: 6.00 Build 0)  -->
<!DOCTYPE svg PUBLIC "-//W3C//DTD SVG 1.1//EN" "http://www.w3.org/Graphics/SVG/1.1/DTD/svg11.dtd">
<svg version="1.1" id="Layer_1" xmlns="http://www.w3.org/2000/svg" xmlns:xlink="http://www.w3.org/1999/xlink" x="0px" y="0px"
	 width="3917.659px" height="810px" viewBox="0 0 3917.659 810" enable-background="new 0 0 3917.659 810" xml:space="preserve">
<g>
	<g>
		<path fill="#105EE1" d="M1874.07,591.321c0,38.546-19.276,55.068-55.068,55.068h-123.348
			c-68.829,0-114.534-30.289-114.534-104.627V354.539h85.901v165.198c0,44.056,17.071,63.876,61.121,63.876h40.202
			c13.767,0,19.27-5.503,19.27-19.27V354.539h86.456V591.321z"/>
		<path fill="#105EE1" d="M1920.336,409.607c0-38.546,19.27-55.068,55.062-55.068h118.944c68.829,0,114.534,30.838,114.534,105.177
			v186.674h-85.9V481.741c0-44.05-16.522-63.876-60.571-63.876h-36.897c-13.767,0-19.27,5.509-19.27,19.276v209.248h-85.901V409.607
			z"/>
		<path fill="#105EE1" d="M2376.861,646.389c-99.118,0-122.798-57.817-122.798-145.922s23.68-145.928,122.798-145.928h139.32v63.326
			h-106.282c-56.168,0-67.73,33.043-67.73,82.602s11.562,82.596,67.73,82.596h112.335v63.326H2376.861z"/>
		<path fill="#105EE1" d="M2564.583,260.93h85.901v93.609h85.351c68.835,0,117.289,30.838,117.289,105.177v186.674h-85.901V481.741
			c0-44.05-16.521-63.876-60.571-63.876h-56.167v228.524h-85.901V260.93z"/>
		<path fill="#105EE1" d="M967.308,568.971c-19.55,0-35.547-15.996-35.547-35.547V182.526h-84.991l0.002,403.506
			c0,35.772,17.611,58.334,58.889,58.334h326.353l-44.221-75.394H967.308z"/>
		<path fill="#105EE1" d="M1444.549,354.539c57.823,0,90.31,37.447,90.31,92.509v144.273c0,35.798-19.276,55.068-55.068,55.068
			h-163.543c-52.313,0-72.139-30.838-72.139-91.41c0-55.068,19.826-90.86,72.139-90.86h132.705v-12.662
			c0-23.13-13.211-35.242-36.891-35.242h-147.577v-61.677H1444.549z M1356.994,523.591c-16.516,0-25.879,11.562-25.879,31.938
			c0,18.727,7.708,31.388,25.329,31.388h73.239c13.767,0,19.27-5.503,19.27-19.27v-44.056H1356.994z"/>
		<path fill="#105EE1" d="M3384.063,646.389c-93.615,0-111.236-39.646-111.236-147.028c0-123.897,33.043-148.127,148.677-148.127
			c96.369,0,148.683,15.422,148.683,117.295c0,33.037-9.913,60.571-45.705,60.571h-164.648c0,35.792,11.562,55.612,58.366,55.612
			h142.074v61.677H3384.063z M3466.66,469.629c15.422,0,15.972-10.463,15.972-17.621c0-29.739-33.593-39.096-61.127-39.096
			c-41.295,0-61.671,13.767-61.671,56.717H3466.66z"/>
		<path fill="#105EE1" d="M3824.719,350.781v212.845c0,14.004-5.598,19.607-19.601,19.607h-37.531
			c-44.807,0-61.613-20.166-61.613-64.974V350.781h-87.378v189.883c0,75.616,46.491,106.985,116.503,106.985h90.487v8.482
			c-2.024,30.048-15.359,46.579-58.041,46.579H3625.47v61.677h176.211c82.731,0,106.096-31.001,110.416-112.314V350.781H3824.719z"
			/>
		<path fill="#105EE1" d="M3104.353,417.096c0-8.449,7.89-19.884,16.841-31.597l151.625-198.413h-111.325l-126.942,177.317
			c-11.277,15.939-16.075,33.472-16.958,52.584h-0.013c0.002,0.036,0.005,0.072,0.007,0.108c-0.002,0.036-0.005,0.072-0.007,0.108
			h0.013c0.882,19.113,5.68,36.645,16.958,52.584l126.942,177.317h111.325l-151.625-198.413
			C3112.242,436.98,3104.353,425.545,3104.353,417.096z"/>
		<rect x="2907.249" y="187.087" fill="#105EE1" width="84.731" height="460.019"/>
	</g>
	<g>
		<path fill="#105EE1" d="M694.639,458.589c0-128.919-70.428-241.378-174.903-301.032c0.319,0.219-2.195-1.293-4.155-1.293
			c-4.06,0-7.351,3.292-7.351,7.351c0,0.57,6.045,55.012,6.045,82.46c0,20.089-1.077,39.924-3.138,59.466
			c37.589,39.997,60.625,93.829,60.625,153.047c0,123.01-99.359,222.798-222.197,223.524
			c-122.838-0.726-222.197-100.514-222.197-223.524c0-59.219,23.037-113.05,60.625-153.047c-2.062-19.542-3.138-39.377-3.138-59.466
			c0-27.448,6.045-81.89,6.045-82.46c0-4.06-3.291-7.351-7.351-7.351c-1.96,0-4.474,1.512-4.155,1.293
			C74.919,217.21,4.49,329.67,4.49,458.589c0,190.848,154.332,345.633,345,346.4v0.002c0.025,0,0.05-0.001,0.075-0.001
			c0.025,0,0.05,0.001,0.075,0.001v-0.002C540.307,804.222,694.639,649.437,694.639,458.589z"/>
		<path fill="#105EE1" d="M400.163,365.427c0.531-2.619,17.489-59.131,17.489-123.574c-0.879-85.026-28-160.272-50.616-209.387
			c-3.479-7.746-7.087-15.419-10.933-22.964c0-0.018,0-0.018-0.018-0.037c-1.062-2.532-3.534-4.327-6.445-4.443V5.009
			c-0.025,0-0.049,0.006-0.075,0.007c-0.025-0.001-0.049-0.007-0.075-0.007v0.014c-2.911,0.117-5.383,1.911-6.445,4.443
			c-0.018,0.018-0.018,0.018-0.018,0.037c-3.846,7.545-7.453,15.218-10.933,22.964c-22.616,49.115-49.737,124.361-50.616,209.387
			c0,64.442,16.958,120.955,17.489,123.574c-7.82,5.842-74.093,40.343-59.845,122.933c1.117,4.505,5.274,2.49,6.336,1.923
			c9.797-5.164,53.271-26.59,54.681-26.59c3.688,0,12.685,0,23.85,0c-0.142,1.102-0.241,2.218-0.241,3.358
			c0,14.273,11.502,25.854,25.743,25.994v0.004c0.025,0,0.05-0.002,0.075-0.002c0.025,0,0.049,0.002,0.075,0.002v-0.004
			c14.24-0.14,25.743-11.721,25.743-25.994c0-1.141-0.099-2.256-0.241-3.358c11.166,0,20.163,0,23.85,0
			c1.41,0,44.884,21.426,54.681,26.59c1.062,0.568,5.219,2.582,6.336-1.923C474.256,405.769,407.982,371.268,400.163,365.427z"/>
	</g>
</g>
</svg>
