<?xml version="1.0"?>
<svg width="500" height="200" xmlns="http://www.w3.org/2000/svg">
 <g>
  <g id="svg_1">
   <title>background</title>
   <rect x="-1" y="-1" width="502" height="202" id="canvas_background" fill="none"/>
  </g>
  <g id="svg_5">
   <title>Layer 1</title>
   <path d="m141.330231,1l20.260468,0l0,134.455811l80.120926,0l0,16.576736l-100.381393,0l0,-151.032547zm155.637207,39.599998c13.813965,-1.841862 28.548828,0.920929 39.600006,10.130234c11.972076,8.288372 18.41861,23.023254 19.339539,36.837204c1.841858,16.576744 0,33.153488 -9.20932,46.967445c-8.288361,11.051163 -21.181396,18.41861 -35.91626,19.339539c-13.813965,1.841858 -29.469788,-0.920929 -41.441864,-10.130234c-11.051178,-9.209305 -16.576752,-23.023262 -18.41861,-36.837212c-1.841858,-14.734886 0,-31.31163 9.20929,-44.204651c7.367462,-12.893024 22.102325,-21.181396 36.837219,-22.102325z" id="svg_2"/>
   <path fill="#fff" d="m299.730225,56.255814c9.20929,-0.920933 19.339539,1.841858 26.70697,8.288368c6.446533,7.367447 10.130249,16.576744 11.051178,25.786049c0.920929,10.130234 0,21.181396 -4.604645,30.390694s-12.893036,15.655815 -23.023254,17.497673c-9.20932,1.841858 -19.339539,-0.920929 -25.786072,-6.446503c-7.367432,-5.525589 -11.972076,-13.813957 -13.813965,-22.102333c-1.841858,-11.972092 -0.920898,-23.944183 3.683746,-34.995346c4.604645,-10.130234 14.734894,-17.497673 25.786041,-18.418602z" id="svg_3"/>
   <path fill="#3492ff" d="m141.330231,175.976746l217.339539,0l0,23.023254l-217.339539,0l0,-23.023254z" id="svg_4"/>
  </g>
 </g>

</svg>