<?xml version="1.0" encoding="utf-8"?>
<!-- Generator: Adobe Illustrator 21.0.0, SVG Export Plug-In . SVG Version: 6.00 Build 0)  -->
<svg version="1.1" id="Layer_1" xmlns="http://www.w3.org/2000/svg" xmlns:xlink="http://www.w3.org/1999/xlink" x="0px" y="0px"
	 viewBox="0 0 619 73.2" style="enable-background:new 0 0 619 73.2;" xml:space="preserve">
<style type="text/css">
	.st0{fill:#FE5B5F;}
</style>
<title>Artboard 1</title>
<path class="st0" d="M204.7,18.7c-5.2-4.7-9.8-5-11.7-5c-2.5-0.2-5,0.6-6.8,2.3c-1.1,1.2-1.8,2.7-1.8,4.4c-0.1,1.5,0.5,2.9,1.6,3.9
	c1.7,1.6,4.1,2.2,8.7,4l5.2,2c3.5,1.1,6.7,3,9.5,5.3c3.4,3.4,5.3,8.1,5.1,13c0,7.3-2.5,13.5-6.2,17.3c-6.2,6.5-15.2,7.1-19.8,7.1
	c-4.8,0.2-9.5-0.8-13.8-2.9c-3.8-2-7.2-4.6-10.3-7.7l8.5-11.5c2,2,4.2,3.8,6.5,5.3c2.6,1.7,5.6,2.5,8.7,2.5c2.6,0.1,5.2-0.8,7.3-2.4
	c1.6-1.4,2.6-3.5,2.5-5.7c0-2-0.9-3.8-2.4-5c-1.9-1.6-6.2-3.2-8.2-3.9l-5.8-2c-3.2-1.2-7-2.6-9.8-5.6c-2.9-3.4-4.4-7.7-4.2-12.2
	c-0.2-5.9,2-11.5,6.1-15.7c5.1-5,11-6.4,17.5-6.4c7.5-0.1,14.8,2.4,20.8,6.9L204.7,18.7z"/>
<path class="st0" d="M296.7,58.3h-26.4L265,71.5h-16.8l28.2-69.9h14.8l27.6,69.9H302L296.7,58.3z M292.3,45.9l-8.6-23.5L275,45.9
	H292.3z"/>
<path class="st0" d="M374.2,1.6v56.3h21.7v13.6H358V1.6H374.2z"/>
<path class="st0" d="M496.3,10.2c7.1,7,11,16.5,10.9,26.5c0.1,9.9-3.9,19.3-10.9,26.2c-6.5,6.3-15.3,10.3-27.1,10.3
	c-13.1,0-22-5.2-27.3-10.3c-7-6.8-11-16.2-10.9-26c0.1-9.9,4-19.4,10.8-26.5C446.6,5.6,455.3,0,469.2,0
	C480.2,0,489.3,3.3,496.3,10.2z M453.8,20.9c-4.2,4.2-6.4,9.9-6.2,15.8c-0.2,5.9,2.1,11.6,6.4,15.7c4,3.9,9.4,6,15,5.8
	c5.8,0.2,11.4-2,15.5-6c4.1-4.1,6.3-9.8,6.1-15.6c0.1-5.8-2.1-11.5-6.1-15.7c-4.2-3.9-9.7-6-15.4-6
	C463.4,14.8,457.9,16.9,453.8,20.9L453.8,20.9z"/>
<path class="st0" d="M550.8,71.6v-70h14.1l38,45.2V1.6H619v69.9h-14l-38-45.3v45.3L550.8,71.6L550.8,71.6z"/>
<path class="st0" d="M99.4,52.8c-0.2,1.4-0.3,2.7-0.3,4.1c0,2.8,1.1,5.5,3.1,7.4c2,2,4.7,3.1,7.5,3.1c2.3,0,4.7-0.5,6.8-1.4
	c3.5-1.8,6.7-3.9,9.7-6.4l1,1.4c-7.8,7.7-15.2,11.6-22.2,11.6c-4.8,0-8.4-1.5-10.8-4.5c-2.4-2.8-3.6-6.3-3.6-10
	c0.1-5.3,1.7-10.5,4.5-15c2.8-4.8,6.7-8.9,11.4-11.9c4.2-2.7,9.1-4.2,14.1-4.2c3.5,0,6,0.7,7.7,2.1c1.6,1.2,2.5,3,2.5,5
	c-0.1,2.9-1.2,5.7-3.2,7.8c-2.9,3.2-7.1,5.9-12.6,7.9C109.9,51.2,104.7,52.3,99.4,52.8z M99.7,50.4c4.1-0.4,8.1-1.3,11.9-2.8
	c3.5-1.4,6.6-3.7,9.1-6.5c2-2.5,3-4.9,3-7.2c0.1-1.2-0.4-2.5-1.3-3.4c-1-0.9-2.4-1.4-3.7-1.3c-3.3,0-6.9,1.8-10.7,5.3
	S101.5,43.4,99.7,50.4z"/>
<path class="st0" d="M53,72.5H0l0.7-2c1.9,0.1,3.8-0.2,5.6-0.7c1.3-0.5,2.4-1.4,3.3-2.5c1.1-1.6,2.2-4.5,3.5-8.8L25.7,15
	c0.9-2.6,1.4-5.2,1.6-7.9c0.1-1.2-0.5-2.4-1.5-3.1S23,2.9,20.4,2.9c-0.6,0-1.1,0-1.4,0l0.6-2h29.1l-0.4,2c-3.3,0-5.6,0.3-7,1
	C40,4.6,38.8,5.7,38,7c-0.7,1-1.7,3.9-3.2,8.9L22.5,58.6c-0.8,2.2-1.2,4.4-1.5,6.7c0.1,1,0.6,1.9,1.4,2.4c0.6,0.5,2,0.8,4.1,0.8h6.9
	c5,0,9-0.6,12-1.9c2.3-1,4.3-2.5,6-4.3c1.9-2.5,3.7-5.1,5.2-7.9L58,52h2L53,72.5z"/>
</svg>
