<svg width="500" height="200" xmlns="http://www.w3.org/2000/svg"><path fill="none" d="M-1-1h502v202H-1z"/><g fill="#3bb2d0" stroke="null"><path d="M.2 33.293V138.8h15.516V51.91l31.03 52.753L77.78 51.912V138.8h15.515V33.292H80.88c-6.205-.02-11.08 1.552-13.818 6.206L46.747 74.02 26.43 39.5c-2.737-4.655-7.61-6.227-13.818-6.207H.2zm271.522 0V140.35h29.48c21.72 0 38.788-17.067 38.788-40.34 0-23.273-17.067-40.34-38.79-40.34-4.91.02-8.915-.167-13.963-.146v-26.23h-15.515zm15.515 41.892H301.2c13.063 0 23.274 11.774 23.274 24.825 0 13.05-9.142 24.825-23.273 24.825h-13.963v-49.65zM142.943 59.67c-21.722 0-37.237 17.067-37.237 40.34 0 23.273 15.515 40.34 37.237 40.34h37.237v-40.34c0-23.273-15.515-40.34-37.237-40.34zm0 15.515c12.412 0 21.722 10.695 21.722 24.825v24.825h-21.722c-12.413 0-21.722-10.88-21.722-24.825 0-13.964 9.31-24.825 21.723-24.825zm49.65-15.515v107.057h15.515v-26.28c5.048.02 9.052-.117 13.964-.097 21.722 0 38.79-17.067 38.79-40.34 0-23.273-17.068-40.34-38.79-40.34h-29.48zm15.515 15.515h13.964c14.13 0 23.273 11.775 23.273 24.825 0 13.05-10.21 24.825-23.273 24.825h-13.964v-49.65zm179.98-15.515c-21.422 0-38.79 18.06-38.79 40.34 0 22.28 17.368 40.34 38.79 40.34 21.423 0 38.79-18.06 38.79-40.34 0-22.28-17.367-40.34-38.79-40.34zm0 15.515c12.854 0 23.273 11.115 23.273 24.825 0 13.71-10.418 24.825-23.272 24.825-12.853 0-23.273-11.115-23.273-24.825 0-13.71 10.42-24.825 23.273-24.825z"/><path d="M425.228 61.2l27.007 37.626-28.46 39.953h19.005l18.96-26.668 19.053 26.667H499.8l-28.51-39.954L498.248 61.2h-19.103L461.74 85.494 444.33 61.2h-19.104z"/></g></svg>