<?xml version="1.0"?>
<svg width="500" height="200" xmlns="http://www.w3.org/2000/svg">

 <metadata id="metadata116698">image/svg+xml</metadata>
 <g>
  <title>background</title>
  <rect fill="none" id="canvas_background" height="202" width="502" y="-1" x="-1"/>
 </g>
 <g>
  <title>Layer 1</title>
  <g stroke="null" id="layer1">
   <g stroke="null" transform="matrix(1.5515527725219727,0,0,1.5515527725219727,-507.92420398486195,-547.236202702165) " id="g3024">
    <path fill="#3bb2d0" fill-rule="nonzero" d="m327.493988,374.160248l0,68l10,0l0,-56l20,34l20,-34l0,56l10,0l0,-68l-8,0c-4,-0.012817 -7.141541,1 -8.90625,4l-13.09375,22.25l-13.09375,-22.25c-1.764709,-3 -4.90625,-4.012817 -8.90625,-4l-8,0z" id="path4479"/>
    <path fill="#3bb2d0" fill-rule="nonzero" id="path4477" d="m502.493958,374.160248l0,69l19,0c14,0 25,-11 25,-26c0,-15 -11,-26 -25,-26c-3.165833,0.013184 -5.74646,-0.107086 -9,-0.093719l0,-16.906219l-10,0l0,-0.000061zm10,27l9,0c8.418579,0 15,7.588745 15,16c0,8.410583 -5.8927,16 -15,16l-9,0l0,-32z"/>
    <path fill="#3bb2d0" fill-rule="nonzero" id="path4475" d="m419.493988,391.160248c-14,0 -24,11 -24,26c0,15 10,26 24,26l24,0l0,-26c0,-15 -10,-26 -24,-26zm0,10c8,0 14,6.892761 14,16l0,16l-14,0c-8,0 -14,-7.012756 -14,-16c0,-9 6,-16 14,-16z"/>
    <path fill="#3bb2d0" fill-rule="nonzero" id="path4473" d="m451.493988,391.160248l0,69l10,0l0,-16.9375c3.253479,0.013184 5.834106,-0.075684 9,-0.0625c14,0 25,-11 25,-26c0,-15 -11,-26 -25,-26l-19,0zm10,10l9,0c9.107178,0 15,7.589417 15,16c0,8.411224 -6.581482,16 -15,16l-9,0l0,-32z"/>
    <path fill="#3bb2d0" fill-rule="nonzero" id="path4471" d="m577.493958,391.160248c-13.807129,0 -25,11.640625 -25,26c0,14.359344 11.192871,26 25,26c13.807129,0 25,-11.640656 25,-26c0,-14.359375 -11.192871,-26 -25,-26zm0,10c8.284363,0 15,7.163452 15,16c0,8.836548 -6.715637,16 -15,16c-8.284302,0 -15,-7.163452 -15,-16c0,-8.836548 6.715698,-16 15,-16z"/>
    <path fill="#3bb2d0" fill-rule="nonzero" id="path4469" d="m601.431458,392.14743l17.406311,24.25l-18.343811,25.75l12.25,0l12.218811,-17.1875l12.281189,17.1875l12.25,0l-18.374939,-25.75l17.374939,-24.25l-12.3125,0l-11.218689,15.65625l-11.218811,-15.65625l-12.3125,0z"/>
   </g>
  </g>
  <g display="none" id="layer2">
   <g fill="#3bb2d0" fill-rule="nonzero" stroke-width="55.737713" display="inline" id="g2996" transform="matrix(0.35882347,0,0,0.35882347,-7.53528,317.70579) ">
    <path fill="#3bb2d0" fill-rule="nonzero" stroke-width="55.737713" id="path2998" d="m252.5,-403.396637c-26.233536,0 -47.5,21.266479 -47.5,47.5c0,26.233521 21.266464,47.500031 47.5,47.500031l34.53125,-0.000031c2.118683,0 2.96875,-1.581757 2.96875,-3.75l0,-87.25c0,-3 -1,-4 -4,-4l-33.5,0zm0,19l18.5,0l0,6.84375l0,45.3125l0,6.84375l-18.5,0c-15.740112,0 -28.5,-14.759888 -28.5,-30.5c0,-15.740112 12.759888,-28.5 28.5,-28.5z" clip-path="none"/>
    <path fill="#3bb2d0" fill-rule="nonzero" stroke-width="55.737713" id="path3000" d="m81,-441.396637c-3,0 -4,1 -4,4l0,125c0,3 1,4 4,4l11.125,0c2.444298,0 3.545197,-0.693939 3.875,-2.5625l0,-105.4375l33.25,58.5c1.326035,2.333038 2.75,3.487183 4.75,3.5c2,0.012787 3.423965,-1.166962 4.75,-3.5l33.25,-58.5l0,104c0,3 1,4 4,4l11,0c3,0 4,-1 4,-4l0,-125c0,-3 -1,-4 -4,-4l-17.125,0c-2.494568,0 -4.145126,1.069031 -5.5,3.5l-30.375,53.5l-30.4375,-53.59375c-1.130653,-1.990814 -1.504288,-3.40625 -4.000504,-3.40625l-18.561996,0z"/>
    <path fill="#3bb2d0" fill-rule="nonzero" stroke-width="55.737713" id="path3002" d="m311.96875,-403.396637c-2.201416,-0.000305 -2.96875,1.3125 -2.96875,3.9375l0,125.0625c0,3 0.995972,4 4.016327,4l11.509552,0c2.748901,0 3.546051,-1.180664 3.540802,-3.875l-0.066681,-34.1875c6.076599,0.036499 12.585999,0.035797 18.5,0.0625c26.121246,0.117737 47.5,-20.962036 47.5,-47.5c0,-26.233521 -21.266479,-47.526489 -47.5,-47.5c-11.540497,0.011688 -23.003113,0.002014 -34.53125,0zm16.03125,19l18.5,0c15.740112,0 28.5,12.759888 28.5,28.5c0,15.740112 -12.759888,30.5 -28.5,30.5l-18.5,0l0,-59z" clip-path="none"/>
    <path fill="#3bb2d0" fill-rule="nonzero" stroke-width="55.737713" d="m553.5,-403.396637c26.233521,0 47.5,21.266479 47.5,47.5c0,26.233521 -21.266479,47.5 -47.5,47.5c-26.233521,0 -47.5,-21.266479 -47.5,-47.5c0,-26.233521 21.266479,-47.5 47.5,-47.5zm0,19c-15.740112,0 -28.5,12.759888 -28.5,28.5c0,15.740112 12.759888,30.5 28.5,30.5c15.740112,0 28.5,-14.759888 28.5,-30.5c0,-15.740112 -12.759888,-28.5 -28.5,-28.5z" id="path3004" clip-path="none"/>
    <path fill="#3bb2d0" fill-rule="nonzero" stroke-width="55.737713" d="m21.835754,-525.012878c-3,0 -4,1 -4,4l0,125.15625c0,2.549347 1.573669,3.84375 4.03125,3.84375l34.46875,0c26.233521,0 47.5,-12.266479 47.5,-38.5c0,-15.082733 -7.418793,-29.095306 -22.75,-34.9375c0,0 12.478943,-7.371185 12.75,-22.5c-0.239624,-25.915649 -21.415436,-37.0625 -47.5,-37.0625l-24.5,0zm15,19l9.5,0c15.740112,0 28.5,2.759888 28.5,18.5c0,7.509369 -3.280823,12.50531 -7.65625,15.78125c-9.308868,5.535645 -19.343292,3.71875 -30.34375,3.71875l0,-38zm0,52l19.5,0c15.740112,0 28.5,7.759888 28.5,23.5c0,15.740112 -12.759888,21.5 -28.5,21.5c-6.472412,0.000092 -13.006561,0 -19.5,0l0,-45z" id="path3006"/>
    <path fill="#3bb2d0" fill-rule="nonzero" stroke-width="55.737713" d="m216.648254,-487.012878c-2.690613,0 -3.733154,1.668121 -2.25,3.625l29.937805,42.471588l-31.937805,45.278412c-1.483154,1.956879 -0.440613,3.625 2.25,3.625l16.15625,0c1.67395,0 2.621033,-0.857727 3.625,-2.28125l21.396851,-30.322205l21.415649,30.322205c1.003967,1.423523 1.95105,2.28125 3.625,2.28125l16.15625,0c2.690613,0 3.733154,-1.668121 2.25,-3.625l-31.9375,-45.28125l29.9375,-42.46875c1.483154,-1.956879 0.440613,-3.625 -2.25,-3.625l-16.15625,0c-1.67395,0 -2.621033,0.857727 -3.625,2.28125l-19.40509,27.508026l-19.40741,-27.508026c-1.003967,-1.423523 -1.95105,-2.28125 -3.625,-2.28125l-16.15625,0z" id="path3008"/>
   </g>
   <g fill="#3bb2d0" fill-rule="nonzero" stroke-width="40" display="inline" id="g3010" transform="matrix(0.5,0,0,0.5,78.21428,-21.35967) ">
    <g fill="#3bb2d0" fill-rule="nonzero" stroke-width="40" display="inline" id="g3014">
     <path fill="#3bb2d0" fill-rule="nonzero" stroke-width="40" id="path3016" d="m-176.397491,45.219299c-1.682678,-0.01001 -3.36615,0.413666 -4.84375,1.21875l-90,49.5625c-1.559021,0.856018 -2.843567,2.15863 -3.75,3.6875c-0.906433,1.52887 -1.43457,3.283966 -1.4375,5.0625l0,100.90625c0.005981,3.557068 2.069519,7.037964 5.1875,8.75l90,49.5625c1.467041,0.805328 3.139832,1.25 4.8125,1.25c1.672668,0 3.345398,-0.444672 4.8125,-1.25l90,-49.5625c3.11795,-1.712036 5.181671,-5.192932 5.1875,-8.75l0,-100.90625c-0.003021,-1.778534 -0.531097,-3.53363 -1.4375,-5.0625c-0.906372,-1.52887 -2.19101,-2.831482 -3.75,-3.6875l-90,-49.5625c-1.459351,-0.795044 -3.119385,-1.218201 -4.78125,-1.21875zm-0.093689,20.28125c0.423279,0.005005 0.911865,0.162048 1.46875,0.46875c5.503235,3.031097 11.006287,6.045227 16.5,9.09375c1.523132,0.845215 2.09375,2.144653 2.09375,4.09375l0,8.9375c0,1.924683 -0.552185,3.221161 -2.03125,4.0625l-4.968811,2.90625l0,2.15625c0,3 -1.044189,4 -4,4l-1.21875,0l-8.40625,-9.9375c-0.867676,-1.02597 -1.375,-1.620209 -1.375,-3.53125l0,-19.59375c0,-1.457642 0.667542,-2.670258 1.9375,-2.65625l0.000061,0zm-10.5,5.8125c0.963928,0.072601 1.5625,1.124084 1.5625,2.71875l0,5.4375c0,1.508698 -0.319214,2.211426 -0.875,2.9375l-6.5625,7.8125l-1.09375,1.3125c-1.105835,1.319489 -2.46875,0.872131 -2.46875,-1l0,-11.40625c0,-1.905731 0.526733,-3.325867 2,-4.0625l6.375,-3.46875c0.394531,-0.215851 0.741211,-0.30545 1.0625,-0.28125zm-18.375,10.03125c1.063477,-0.087891 1.9375,0.630859 1.9375,2.3125l0,19.09375l8.90625,4.9375c1.525757,0.840271 2.09375,2.144653 2.09375,4.09375l0,3.59375l-6.3125,3.53125l-6.875,-8.125l-12.65625,6.96875c-2.478882,1.365112 -3.031982,2.736359 -0.46875,4.125l10.21875,5.625c1.525879,0.840271 2.09375,2.144623 2.09375,4.09375l0,2.0625l5,2.75l0,-7.1875c0,-2 -0.06781,-3.274567 2.09375,-4.46875l10.125,-5.59375l9.46875,11.21875l-12.1875,6.75c-8.054016,9.611023 -16.072266,19.25354 -24.1875,28.8125c-0.979187,1.163086 -2.09613,1.504089 -3.125,0.9375c-5.665527,-3.119934 -10.265198,-5.646057 -15.75,-8.6875l-10.5,12.65625c3.991577,2.194153 7.986938,4.381714 11.96875,6.59375c1.522705,0.845947 2.09375,2.144638 2.09375,4.093735l0,7.312515l20.9375,11.531235c3.839172,2.107529 6.59375,9.875 6.59375,9.875l15.65625,8.593765c1.525879,0.840271 2.09375,2.144623 2.09375,4.09375l0,3.65625c-0.058716,1.704437 -0.326172,3.075653 -1.5625,3.75l-6.53125,3.5625c-0.887024,0.484055 -2.012085,0.443893 -2.875,-0.031204l-37.687561,-20.781296c-1.525818,-0.840302 -2.09375,-2.144653 -2.09375,-4.093765l0,-1.218735l9.03125,-10.75l-26.5,-14.59375c-1.525818,-0.840302 -2.0625,-2.122559 -2.0625,-4.09375l0,-49.4375l0,-5.59375l0,-8.375l0,-2.78125c0,-1.949097 0.536682,-3.284729 2.0625,-4.125l1.90625,-1.0625c15.507629,-8.515442 46,-25.28125 46,-25.28125c0.369263,-0.202911 0.739258,-0.314453 1.09375,-0.34375l0.000061,0zm83.4375,14.3125c0.601654,0 1.267334,0.291718 2.3125,0.84375c7.013489,3.875885 14.071747,7.670746 21.09375,11.53125c1.525818,0.840271 2.09375,2.144653 2.09375,4.09375l0,48.15625l-3.5625,-4.21875c-1.113403,-1.318481 -2.317749,-1.33548 -3.5625,-0.65625l-4.21875,2.3125l9.84375,11.6875c0.954742,1.133606 1.5,1.675873 1.5,3.6875l0,25.124985c0,1.949112 -0.567688,3.253876 -2.09375,4.093765l-26.875,14.8125c-1.150452,0.633209 -2.384094,0.552521 -3.40625,-0.65625c-3.636597,-4.300552 -7.809998,-9.10817 -11.875,-14.03125c-3.000671,1.659439 -6.086182,3.475052 -9.09375,5c-1.534485,0.77803 -2.495483,0.829071 -4,0c-2.656189,-1.463715 -5.591064,-2.978943 -8.53125,-4.6875c-1.506104,-0.875198 -2.09375,-2.175903 -2.09375,-4.125015c-0.010376,-4.780716 -0.040344,-9.471817 -0.03125,-14.34375c0.003052,-1.628082 0.561829,-3.323196 1.968811,-5l16.03125,-19.124985l-6,0c-2,0 -4,-2 -4,-4l0,-5.46875c0,-1.949127 0.56958,-3.250427 2.09375,-4.09375c0.979126,-0.541779 4.9375,-2.78125 4.9375,-2.78125l-0.03125,-11.125c-0.003967,-1.398102 0.473633,-3.075867 2.093811,-3.96875l14.906219,-8.21875l0,-16.625c0,-1.949097 0.570709,-3.248444 2.09375,-4.09375c1.86441,-1.033722 4.174622,-2.282043 6.28125,-3.4375c0.907745,-0.480377 1.499695,-0.6875 2.125,-0.6875l-0.000092,0zm-24.5,64.5l11.125,6.15625l23.875,-13.15625l0,-12.25l-8.875,4.875c-1.242615,0.687592 -2.451691,0.669373 -3.562531,-0.625l-3.156219,-3.75c-0.979187,-1.163086 -2.03653,-1.378937 -3.125,-0.9375l-11.75,6.46875l-4.531311,13.21875l0.000061,0z"/>
     <g fill="#3bb2d0" fill-rule="nonzero" stroke-width="40" display="inline" id="g3018"/>
    </g>
   </g>
  </g>
 </g>
</svg>