<svg xmlns="http://www.w3.org/2000/svg" viewBox="0 0 500 200" width="500" height="200"><defs><clipPath id="a"><path d="M275.945 28.672l-29.961 9.918s3.821 151.64-50.867 162.258c-36.062 41.785 5.551 1784.892 136.559 5.972 0 0-44.84-22.515-53.328-60.75-8.485-38.261-2.403-117.398-2.403-117.398z"/></clipPath><linearGradient x2="1" gradientUnits="userSpaceOnUse" gradientTransform="matrix(344.394,-116.194,-104.815,-309.067,77.7619,575.995)" id="b"><stop offset="0" stop-color="#929669"/><stop offset=".231" stop-color="#929669"/><stop offset="1" stop-color="#fdfcf1"/></linearGradient><clipPath id="c"><path d="M292.098 175.105S552.441 346.574 491.449 702.68c-58.738 258.718-197.418 343.77-212.32 376.24-16.406 22.98-32.93 63.71-32.93 63.71l11.074-720.864s-22.906-220.11 34.825-246.661z"/></clipPath><linearGradient x2="1" gradientUnits="userSpaceOnUse" gradientTransform="matrix(241.166,-936.211,-1007.33,-161.502,203.932,1135.85)" id="d"><stop offset="0" stop-color="#45aa3a"/><stop offset="1" stop-color="#3d9439"/></linearGradient><clipPath id="e"><path d="M230.742 165.523S-13.468 332.121.582 626.066C14.637 920.02 187.121 1064.55 220.715 1090.77c21.719 23.15 22.617 32.07 24.297 54.91 15.222-32.7 12.691-488.422 14.304-541.688 6.258-207.351-11.484-399.328-28.574-438.469z"/></clipPath><linearGradient x2="1" gradientUnits="userSpaceOnUse" gradientTransform="matrix(422.095,95.9042,131.897,-394.11,-25.0834,595.855)" id="f"><stop offset="0" stop-color="#41a83b"/><stop offset="1" stop-color="#5ebc44"/></linearGradient></defs><g clip-path="url(#a)" transform="matrix(1.25,0,0,-1.25,0,143.2125) scale(0.1,0.1)"><path d="M275.945 28.672l-29.961 9.918s3.821 151.64-50.867 162.258c-36.062 41.785 5.551 1784.892 136.559 5.972 0 0-44.84-22.515-53.328-60.75-8.485-38.261-2.403-117.398-2.403-117.398" fill="url(#b)"/></g><g clip-path="url(#c)" transform="matrix(1.25,0,0,-1.25,0,143.2125) scale(0.1,0.1)"><path d="M292.098 175.105S552.441 346.574 491.449 702.68c-58.738 258.718-197.418 343.77-212.32 376.24-16.406 22.98-32.93 63.71-32.93 63.71l11.074-720.864s-22.906-220.11 34.825-246.661" fill="url(#d)"/></g><g clip-path="url(#e)" transform="matrix(1.25,0,0,-1.25,0,143.2125) scale(0.1,0.1)"><path d="M230.742 165.523S-13.468 332.121.582 626.066C14.637 920.02 187.121 1064.55 220.715 1090.77c21.719 23.15 22.617 32.07 24.297 54.91 15.222-32.7 12.691-488.422 14.304-541.688 6.258-207.351-11.484-399.328-28.574-438.469" fill="url(#f)"/></g><path d="M397.701 110.662c2.159 1.726 6.476 2.437 10.283 2.437 4.935 0 9.767-.915 14.496-5.178 4.831-4.368 8.123-11.07 8.123-21.731 0-10.256-3.908-18.582-11.927-23.456-4.525-2.843-10.383-3.96-17.067-3.96-1.954 0-3.908.102-5.039.609-.309.203-.926 1.015-.926 1.423-.205 1.827-.205 15.737-.205 23.962 0 8.428 0 20.207.205 21.63.105 1.217.72 3.35 2.057 4.264zM377.18 54.205c1.747 0 8.389.304 11.475.304 5.757 0 9.766-.304 20.561-.304 9.049 0 16.659 2.437 22.108 7.107 6.58 5.687 10.076 13.607 10.076 23.253 0 13.709-6.271 21.629-12.543 26.097-6.273 4.67-14.396 7.31-26.013 7.31-6.17 0-16.762-.203-25.604-.303h-.121c-.41-.814.757-3.98 1.48-4.062 2.39-.271 3.038-.363 4.148-.82 1.867-.768 2.308-1.719 2.515-5.07.306-6.295.205-13.81.205-22.34 0-6.091.101-17.972-.104-21.73-.308-3.147-1.642-3.958-4.317-4.569-1.337-.303-3.188-.609-5.758-.913-.206-.61 1.378-3.352 1.892-3.96M468.626 59.18c-.41.102-.925 1.118-.925 1.626-.101 3.654-.204 13.199-.204 19.799 0 .203.307.507.514.507 1.336.103 4.625.205 7.401.205 3.908 0 6.172-.51 7.404-1.119 3.29-1.623 4.832-5.177 4.832-9.036 0-8.834-6.17-12.185-15.318-12.185-.617 0-2.366 0-3.704.204zm23.34 40.617c0-8.936-6.579-14.012-18.61-14.012-.514 0-4.319-.103-5.244.101-.308.1-.615.304-.615.507 0 6.398-.105 16.653.204 20.714.206 1.727 1.441 4.164 2.983 4.875 1.646.914 5.345 1.117 7.916 1.117 7.095 0 13.366-3.96 13.366-13.302zm-41.909-45.592c.925 0 3.663.304 10.653.304 6.581 0 11.926-.202 18.301-.202 7.916 0 18.815 2.842 18.815 14.621 0 5.788-4.111 10.46-9.457 12.693-.309.102-.309.305 0 .407 7.608 1.928 14.291 6.599 14.291 15.535 0 8.732-5.449 14.216-13.366 17.668-4.833 2.132-10.795 2.843-16.864 2.843-4.626 0-17.024-.508-23.914-.405-.721-.306.66-3.556 1.275-4.063 1.646-.1 2.915-.22 4.664-.727 2.466-.61 2.759-1.405 3.067-5.06.208-3.148.208-14.419.208-22.442 0-10.966.101-18.378 0-22.033-.105-2.844-1.133-3.758-3.086-4.266-1.542-.304-4.112-.609-6.168-.913-.516-.508 1.068-3.554 1.581-3.96" fill="#c0bdba"/><path d="M82.228 117.928c-.172-.274-.353-1.081-.315-2.053.028-.739.175-1.208.314-1.369 1.939-.306 2.857-.512 3.946-.804 1.818-.45 2.503-1.432 2.61-3.757.299-5.477.316-15.746.207-22.968l.001-.213c.009-.774.02-1.834-.952-2.58-1.426-.94-3.204-1.717-5.453-2.392-.861-.255-1.337-.707-1.312-1.237.027-.508.567-1.155 1.69-1.372 2.976-.307 10.783-2.165 13.846-3.578.181.22.467.697.412 1.459-.023.32-.051.655-.079 1.002-.087 1.02-.185 2.177-.185 3.33 0 .34.368.662.759.662a.746.746 0 0 0 .532-.225c5.837-4.569 11.059-6.2 13.747-6.2 4.417 0 7.854 2.109 10.51 6.443.156.23.365.35.599.35a.675.675 0 0 0 .557-.298c5.368-4.067 10.688-6.495 14.244-6.495 8.418 0 13.445 6.294 13.445 16.833 0 3.028-.031 6.867-.057 10.45-.027 3.144-.048 6.09-.048 8.13 0 .495.661 1.866 1.66 2.14 1.23.599 3.009.904 5.254 1.292l.086.014c.171.603-.186 2.953-.529 3.434-.556-.004-1.328-.044-2.29-.092-1.747-.09-4.142-.21-6.93-.21-5.593 0-8.516.109-11.307.29-.21-.698-.284-2.947-.028-3.416 1.628-.304 2.433-.51 3.41-.8 1.78-.586 2.293-1.392 2.397-3.753.041-1.68.363-16.46-.209-19.97-.528-3.636-3.273-7.893-9.274-7.893-2.226 0-5.824.925-9.253 3.522-.213.207-.335.608-.335.872l.006.067c.404 1.895.404 4.104.404 7.446 0 1.905-.012 3.927-.023 5.934-.023 4.074-.045 7.922.023 10.829 0 1.981 1.2 2.454 2.164 2.836.524.116.94.216 1.357.315.808.195 1.643.395 2.882.594.169.39.184 1.557-.049 2.554-.13.552-.278.794-.357.873-3.11-.106-6.302-.2-10.906-.2-1.395 0-3.674.06-5.685.115-1.629.043-3.173.085-4.05.089-.126-.2-.304-.844-.304-1.77 0-.861.158-1.468.32-1.655.433-.08.844-.153 1.237-.223 1.08-.192 2.013-.356 2.908-.576 1.524-.465 2.095-1.31 2.207-3.246.297-4.52.53-17.536-.11-20.797-1.09-5.231-4.072-7.882-8.861-7.882-2.808 0-6.352 1.349-9.25 3.519-.486.358-.853 1.259-.853 2.09 0 1.55-.005 3.396-.011 5.375-.02 6.538-.043 14.676.116 18.198.098 1.082.475 2.37 2.518 2.845.446.125 1.218.254 2.113.402.515.086 1.079.179 1.658.283.208.56.08 2.754-.276 3.437-.893-.006-1.993-.057-3.254-.112-1.927-.085-4.322-.193-7.053-.193-3.213 0-5.451.108-7.248.193-1.205.056-2.25.107-3.294.112M184.23 79.95c-1.871 0-3.619.49-4.919 1.38-3.57 2.17-5.387 6.5-5.387 12.861 0 11.913 5.972 20.232 14.521 20.232 2.523 0 4.579-.724 6.288-2.215 2.627-2.141 4.02-6.514 4.02-12.636 0-11.737-5.837-19.621-14.523-19.621zm1.646 38.892c-15.447 0-20.951-11.318-20.951-21.909 0-7.398 3.029-13.182 9.005-17.191 4.247-2.608 9.319-4.109 13.9-4.109 11.789 0 20.024 8.467 20.024 20.59 0 8.243-3.291 14.748-9.515 18.814-2.985 1.83-8.164 3.805-12.463 3.805M344.196 79.95c-1.874 0-3.622.49-4.921 1.38-3.569 2.17-5.386 6.498-5.386 12.861 0 11.913 5.97 20.232 14.521 20.232 2.522 0 4.579-.724 6.287-2.216 2.627-2.14 4.02-6.512 4.02-12.634 0-11.736-5.836-19.622-14.52-19.622zm1.645 38.892c-15.449 0-20.952-11.317-20.952-21.908 0-7.4 3.031-13.185 9.007-17.194 4.246-2.607 9.318-4.107 13.898-4.107 11.79 0 20.025 8.468 20.025 20.59 0 8.244-3.292 14.75-9.515 18.813-2.985 1.83-8.163 3.806-12.463 3.806M292.502 79.546c-4.76 0-7.838 3.756-7.838 9.569 0 5.867 2.646 12.717 10.102 12.717 1.28 0 3.601-.569 4.751-1.835 1.733-1.59 2.864-4.875 2.864-8.344 0-7.582-3.693-12.107-9.878-12.107zm-.615 40.107c-1.788 0-3.09.52-3.867.956-3.769 2.413-5.516 4.824-5.516 7.599 0 2.617 1.017 4.696 3.202 6.545 2.646 2.24 6.215 3.33 10.91 3.33 9.233 0 13.373-4.96 13.373-9.875 0-3.42-1.719-5.714-5.254-7.01-2.725-.995-7.276-1.545-12.848-1.545zm.615 23.56c-5.545 0-9.54-1.17-12.955-3.793-3.32-2.56-4.807-6.356-4.807-8.98 0-.754.179-2.704 1.819-4.566.967-1.097 3.205-3.15 8.375-6.702a.425.425 0 0 0 .269-.406.42.42 0 0 0-.324-.424c-4.261-1.63-5.546-4.303-5.934-5.754a3.124 3.124 0 0 0-.042-.224c-.123-.57-.237-1.107.533-1.66.597-.425 1.555-.992 2.57-1.59 1.498-.884 3.195-1.886 4.135-2.69a.643.643 0 0 0 .174-.571.645.645 0 0 0-.345-.483c-6.306-2.117-9.481-6.795-9.481-13.92 0-4.6 2.124-8.758 5.825-11.41 2.536-2.002 8.902-4.409 13.026-4.409l.24.002c4.244.101 6.635.988 9.945 2.213 1.798.665 3.499.934 5.879.934 3.512 0 5.046-1.112 6.362-2.388.075.158.255.66.335 1.816.084 1.178-.239 2.925-1.141 4.171-.719.994-2.382 1.715-3.954 1.715-.157 0-.312-.007-.461-.023-1.618-.159-2.378-.394-2.385-.398l-.396.138c-.125.182-.044.385.058.642.025.061.05.12.06.158.205.822.572 3.222.572 3.895 0 7.472-2.952 10.73-6.142 13.14-3.043 2.295-6.6 3.675-10.61 4.098h-.005c-.08 0-.46.034-1.227.101-.494.045-1.109.1-1.2.1l-.09.013c-.698.197-2.505 1.055-2.505 2.653 0 1.33.82 2.978 4.729 3.273.792.06 1.642.119 2.53.18 5.161.358 11.606.805 14.64 1.833 4.172 1.519 6.768 5.252 6.768 9.742 0 6.706-4.773 13.011-12.767 16.864-3.877 1.823-7.815 2.71-12.072 2.71M267.14 114.352c-2.261-.305-3.908-.61-5.86-1.523-.309-.203-.721-1.117-.721-1.422-.207-3.148-.207-12.287-.207-18.277 0-4.874-.82-9.139-2.877-12.186-2.468-3.452-5.963-5.483-10.488-5.483-4.008 0-9.356 2.742-13.776 6.499-.104.102-.782.745-.767-.255.015-.998.17-3.031.262-4.31.094-1.28-.674-1.883-.674-1.883-2.878 1.421-10.986 3.346-13.98 3.656-2.188.42-2.74 2.522-.41 3.248 0 .004.023.007.035.011 2.44.733 4.082 1.517 5.308 2.325.926.71.822 1.726.822 2.539.103 6.802.103 17.262-.206 22.948-.102 2.234-.72 3.045-2.365 3.453l.15-.05a32.183 32.183 0 0 1-3.804.71c-.515.506-.515 3.451 0 4.062 1.028 0 6.273-.306 10.59-.306 5.963 0 9.048.306 10.59.306.617-.712.823-3.454.412-4.062-1.749-.102-2.983-.305-4.217-.61-1.645-.406-2.056-1.218-2.157-3.046-.206-4.772-.206-14.926-.206-21.832 0-1.929.513-2.843 1.131-3.35 2.055-1.829 5.449-3.046 8.431-3.046 2.878 0 4.831.914 6.271 2.131 1.954 1.625 2.673 3.96 2.88 5.687.41 3.86.307 11.576.307 18.278 0 3.655-.308 4.57-1.644 4.975-.618.305-2.263.61-4.216.813-.617.608-.412 3.451 0 4.062 2.673 0 5.758-.306 10.281-.306 5.656 0 9.254.306 10.694.306.616-.712.821-3.353.411-4.062" fill="#414044"/><path d="M517.126 109.341h1.74c1.407 0 1.942-.49 1.942-1.762 0-1.293-.514-1.718-2.098-1.718h-1.584v3.48zm3.704 5.466l-2.053-4.418h-1.65v4.418h-1.206v-10.04h2.969c2.208 0 3.123.983 3.123 2.812 0 1.471-.693 2.409-1.986 2.678l2.12 4.55h-1.317zm-1.94-12.246c-4.04 0-7.251 3.19-7.251 7.249a7.193 7.193 0 0 0 7.227 7.206 7.19 7.19 0 0 0 7.206-7.206c0-4.082-3.122-7.25-7.182-7.25zm-.024 15.169c-4.461 0-7.941-3.48-7.941-7.942 0-4.485 3.48-7.941 7.965-7.941 4.372 0 7.918 3.502 7.918 7.828 0 4.529-3.48 8.055-7.942 8.055" fill="#c0bdba"/></svg>