<?xml version="1.0"?>
<svg width="500" height="200" xmlns="http://www.w3.org/2000/svg">

 <g>
  <title>background</title>
  <rect fill="none" id="canvas_background" height="202" width="502" y="-1" x="-1"/>
 </g>
 <g>
  <title>Layer 1</title>
  <g stroke="null" id="svg_1">
   <path stroke="null" id="svg_2" d="m21.51466,62.258347c1.505571,2.34201 2.174721,4.405212 3.011154,8.810417c5.910782,-5.7435 13.159866,-8.810417 21.133842,-8.810417c7.193321,0 13.04834,2.34201 17.620838,7.081795c1.226768,1.170998 2.397774,2.732338 3.457253,4.237915c7.918221,-8.141266 15.000015,-11.31971 24.535332,-11.31971c6.747215,0 13.159859,2.007439 17.11898,5.408928c4.907074,4.237923 6.468391,9.312271 6.468391,21.133842l0,61.561401l-22.026031,0l0,-57.156181c0,-10.371758 -1.226768,-12.379204 -7.137543,-12.379204c-4.237923,0 -10.14872,2.899635 -15.055786,7.304848l0,62.286293l-21.524174,0l0,-56.375504c0,-10.817863 -1.56134,-13.327148 -7.862461,-13.327148c-4.182163,0 -9.981426,2.174721 -14.832727,6.579926l0,63.122726l-22.137568,0l0,-60.446152c0,-12.490723 -0.836429,-17.899643 -3.234202,-22.137566l20.464703,-5.57621z" fill="#56575C"/>
   <path stroke="null" id="svg_3" d="m195.771317,75.083626c6.91449,8.141273 10.03717,17.565079 10.03717,31.617142c0,14.888481 -3.401489,25.037178 -10.873596,33.513039c-6.579926,7.416367 -15.223068,12.044617 -28.550232,12.044617c-23.531616,0 -38.921959,-17.62085 -38.921959,-44.832748c0,-27.267685 15.501869,-45.334618 38.921959,-45.334618c12.323425,-0.055763 21.970306,4.182167 29.386658,12.992569zm-40.762115,12.49073c-1.561371,4.572487 -2.397781,10.650574 -2.397781,19.293694c0,9.981415 1.003708,17.453545 2.843857,21.802986c2.063217,4.739792 7.137558,7.081787 11.487015,7.081787c9.814133,0 13.996292,-8.810394 13.996292,-29.275108c0,-11.654289 -1.505569,-19.293694 -4.572495,-23.197052c-2.174728,-2.843857 -5.687744,-4.572487 -9.814148,-4.572487c-5.297379,0.111519 -9.702591,3.457253 -11.54274,8.86618z" fill="#56575C"/>
   <path stroke="null" id="svg_4" d="m278.689636,63.763924l0,15.557625l-38.252853,55.316025l39.758408,0l-5.408936,15.724945l-63.79187,0l0,-14.052063l40.706329,-56.654327l-37.304855,0l0,-15.892204l64.293777,0z" fill="#56575C"/>
   <path stroke="null" id="svg_5" d="m317.053986,39.897732c0,7.806698 -6.189606,13.996292 -14.052094,13.996292c-7.583618,0 -13.828979,-6.245354 -13.828979,-13.996292c0,-7.750935 6.468384,-14.052059 14.21936,-14.052059c7.583588,0 13.661713,6.301125 13.661713,14.052059zm-2.676605,21.802998l0,88.661789l-22.695221,0l0,-85.093018l22.695221,-3.568771z" fill="#56575C"/>
   <path stroke="null" id="svg_6" d="m355.641357,47.70443l0,67.472176c0,14.888489 0.167267,16.895935 1.56134,19.293716c0.836426,1.561325 2.676544,2.34198 4.57251,2.34198c0.836426,0 1.282532,0 2.509277,-0.334549l3.847656,13.494415c-3.847656,1.505615 -8.643188,2.34201 -13.550293,2.34201c-9.64682,0 -17.453491,-4.572495 -20.130127,-11.821564c-1.672852,-4.405212 -2.063171,-7.137573 -2.063171,-19.460983l0,-64.572556c0,-11.319702 -0.278839,-18.234207 -1.115265,-26.040909l23.197052,-5.241638c0.836456,4.73978 1.171021,10.315994 1.171021,22.527901z" fill="#56575C"/>
   <path stroke="null" id="svg_7" d="m402.648865,47.70443l0,67.472176c0,14.888489 0.167267,16.895935 1.561279,19.293716c0.780701,1.561325 2.62085,2.34198 4.516754,2.34198c0.836456,0 1.394012,0 2.565033,-0.334549l3.847656,13.494415c-3.847656,1.505615 -8.587463,2.34201 -13.550262,2.34201c-9.646851,0 -17.453522,-4.572495 -20.130096,-11.821564c-1.728638,-4.405212 -2.007385,-7.137573 -2.007385,-19.460983l0,-64.572556c0,-11.319702 -0.334686,-18.234207 -1.226807,-26.040909l23.141266,-5.241638c1.003693,4.73978 1.282562,10.315994 1.282562,22.527901z" fill="#56575C"/>
   <path stroke="null" id="svg_8" d="m438.225037,66.998123c8.420135,-3.568771 15.669159,-5.074341 23.643188,-5.074341c14.553894,0 24.535309,5.40892 27.936829,15.055763c1.115204,3.568771 1.617065,6.245354 1.561279,15.55764l-0.557617,29.107834c0,0.501862 0,1.059479 0,1.561325c0,9.312286 1.56134,12.881058 8.141327,17.732346l-12.044647,13.884796c-5.297424,-2.230469 -10.03717,-6.13385 -12.211914,-10.483307c-1.672821,1.728668 -3.568726,3.345749 -5.241608,4.57251c-4.18222,3.066925 -10.31601,4.739777 -17.453583,4.739777c-19.293701,0 -29.776978,-9.814117 -29.776978,-27.044617c0,-20.353172 14.052063,-29.832741 41.654297,-29.832741c1.672913,0 3.234222,0 5.074371,0.167282l0,-3.513008c0,-9.646851 -1.895874,-12.881065 -10.204498,-12.881065c-7.193268,0 -15.724915,3.513023 -24.981415,9.81414l-9.64682,-16.226784c4.628235,-2.955391 8.029724,-4.62825 14.107788,-7.13755zm29.386658,45.501907c-15.669128,0 -21.189606,2.843872 -21.189606,13.215607c0,6.747223 4.293671,11.319733 10.037201,11.319733c4.237885,0 8.47583,-2.230499 11.821594,-5.910797l0.39032,-18.624542l-1.059509,0z" fill="#56575C"/>
  </g>
 </g>
</svg>