<svg xmlns="http://www.w3.org/2000/svg" id="Layer_1" viewBox="0 0 499.99999 200.00001" width="500" height="200"><style id="style3366">.st0{fill:#B68B70;}</style><g id="g3402" fill="#b68b70"><path d="M91.364 124.998V48.69h21.83c7.96 0 14.896 4.08 17.344 11.22L155.226 125h28.565l-28.564-74.88c-1.224-5.713-10.2-26.73-35.093-26.73H65.86V125h25.504z" class="st0" id="XMLID_28_"/><path d="M408.636 23.39v76.308h-21.83c-8.367 0-14.692-5.1-17.344-11.222L344.774 23.39H316.21l28.564 74.88c3.06 9.997 12.242 26.728 35.093 26.728h54.273V23.388h-25.504z" class="st0" id="XMLID_27_"/><path class="st0" id="XMLID_26_" d="M200.114 99.494h26.32l9.794 25.504h-26.525z"/><path d="M301.723 103.167S275.198 32.98 274.79 32.163c-3.468-5.51-8.773-9.182-16.12-8.978h-22.238s8.773 6.325 14.282 21.832c0 0 25.3 66.923 25.912 68.35 2.653 7.142 8.978 11.835 14.895 11.835h24.69c-.205-.204-8.98-6.733-14.487-22.035" class="st0" id="XMLID_25_"/><path id="path3372" d="M128.498 161.928c0 1.633-.204 2.857-.612 4.08-.408 1.225-.816 2.245-1.632 3.06-.613.818-1.43 1.43-2.45 1.838-1.02.408-2.04.612-3.263.612-1.02 0-1.836 0-2.652-.204-.816-.204-1.428-.408-2.04-.612v-17.14c.612-.203 1.224-.61 2.04-.61.816-.205 1.632-.205 2.653-.205 1.225 0 2.245.204 3.265.612 1.02.407 1.836 1.02 2.45 1.835.61.816 1.223 1.836 1.63 3.06.41.613.613 2.04.613 3.673m-2.857 0c0-1.224-.203-2.244-.407-3.264-.204-.816-.612-1.633-1.02-2.245-.408-.613-1.02-1.02-1.428-1.225-.612-.204-1.224-.408-1.836-.408h-1.226c-.408 0-.612.204-1.02.204v13.467c.204.204.408.204.816.204h1.225c.612 0 1.224-.203 1.836-.407.613-.204 1.02-.612 1.43-1.224.407-.613.815-1.225 1.02-2.245.61-.612.61-1.633.61-2.857" class="st0"/><path id="path3374" d="M140.74 153.36c0 .407-.204.815-.408 1.223-.408.204-.612.408-1.02.408-.408 0-.816-.203-1.02-.407-.41-.204-.41-.612-.41-1.224 0-.41.206-.817.41-1.02.408-.41.612-.41 1.02-.41.408 0 .816.205 1.02.41.204.203.408.61.408 1.02m-2.857 4.08h2.653v13.67h-2.653v-13.67z" class="st0"/><path id="path3376" d="M161.55 171.11c0 1.836-.407 3.264-1.427 4.285-1.02 1.02-2.448 1.428-4.08 1.428-1.02 0-1.837 0-2.653-.204-.816-.205-1.428-.41-2.04-.817l.816-2.245c.408.204 1.02.408 1.632.612.612.204 1.428.204 2.04.204 1.02 0 1.837-.204 2.45-.816.61-.612.815-1.428.815-2.448v-1.02c-.408.204-.816.204-1.224.408-.41.204-1.02.204-1.43.204-.816 0-1.632-.204-2.244-.408-.612-.204-1.224-.816-1.836-1.225-.408-.613-.816-1.225-1.224-2.04-.204-.817-.408-1.837-.408-2.857 0-1.225.204-2.245.408-3.06.408-.817.816-1.633 1.428-2.245.612-.612 1.224-1.02 2.04-1.224.816-.204 1.633-.408 2.653-.408.816 0 1.632 0 2.448.204.816.204 1.428.408 2.04.612v13.058zm-2.65-11.426c-.205 0-.41-.204-.817-.204-.408 0-.816-.204-1.02-.204-.612 0-1.02 0-1.43.204-.407.204-.815.408-1.223.816-.408.408-.612.816-.816 1.428-.204.612-.204 1.224-.204 2.04 0 1.43.408 2.653 1.02 3.47.612.815 1.428 1.02 2.45 1.02.407 0 .815 0 1.223-.205.408 0 .816-.205 1.02-.41v-7.956z" class="st0"/><path id="path3378" d="M174.814 153.36c0 .407-.204.815-.408 1.223-.205.204-.613.408-1.02.408-.41 0-.817-.203-1.02-.407-.205-.204-.41-.612-.41-1.224 0-.41.205-.817.41-1.02.407-.41.61-.41 1.02-.41.407 0 .815.205 1.02.41.408.203.408.61.408 1.02m-2.857 4.08h2.653v13.67h-2.653v-13.67z" class="st0"/><path d="M190.728 171.314h-1.02c-1.224 0-2.04-.408-2.652-1.02-.612-.612-1.02-1.633-1.02-3.06v-7.754h-1.837v-2.04h1.835v-3.265l2.653-.816v4.08h2.652v2.04h-2.652v7.55c0 .61.204 1.02.612 1.427.408.204.816.408 1.224.408h.408c.204 0 .204 0 .408-.204v2.246c-.204.204-.408.204-.612.408" class="st0" id="XMLID_16_"/><path id="path3381" d="M210.724 170.498c-.41.204-1.225.408-2.04.612-.817.204-1.837.204-2.653.204-1.836 0-3.264-.408-4.284-1.224-1.02-.817-1.428-1.837-1.428-3.265 0-1.02.204-1.632.612-2.244.408-.61 1.02-1.02 1.836-1.428.816-.408 1.632-.612 2.45-.816 1.02-.204 1.835-.204 2.855-.204v-.816c0-.816-.203-1.428-.815-1.836-.408-.408-1.224-.612-2.04-.612-.612 0-1.225 0-2.04.204-.613.204-1.225.408-1.633.612l-.612-1.836c.612-.204 1.224-.408 2.04-.612.816-.205 1.633-.205 2.653-.205.816 0 1.428 0 2.04.206.612.204 1.224.408 1.632.816.408.408.816.816 1.02 1.428.204.612.41 1.224.41 2.244v8.774zm-2.45-6.325c-.61 0-1.223 0-2.04.204-.61 0-1.223.204-1.836.408-.408.204-.816.408-1.224.816-.204.41-.408.817-.408 1.43 0 .815.204 1.223.816 1.63.612.41 1.225.613 2.245.613.408 0 .816 0 1.224-.204.41 0 .817-.205 1.02-.205v-4.692z" class="st0"/><path class="st0" id="XMLID_13_" d="M221.333 151.114h2.653v19.996h-2.653z"/><path d="M255.407 171.11c-.612.204-1.428.204-2.244.204-1.02 0-1.837-.204-2.653-.612-.816-.408-1.632-1.02-2.244-1.837-.612-.816-1.224-1.836-1.43-3.06-.407-1.224-.61-2.653-.61-4.285 0-1.632.203-3.06.61-4.284.41-1.225.818-2.245 1.43-3.06.612-.817 1.428-1.43 2.244-1.837.816-.41 1.836-.613 2.653-.613.816 0 1.428 0 2.244.204.612.205 1.224.41 1.632.613l-.817 2.244c-.204-.204-.612-.408-1.02-.612-.408-.204-1.02-.204-1.428-.204-.612 0-1.225.205-1.837.41-.612.203-1.02.815-1.428 1.223-.408.612-.612 1.224-1.02 2.245-.204.816-.408 1.836-.408 3.06s.204 2.244.408 3.06c.204.817.612 1.633 1.02 2.245.408.612.816 1.02 1.428 1.224.612.204 1.02.408 1.837.408.612 0 1.02 0 1.428-.204.408-.203.816-.407 1.02-.61l.816 2.448c-.613 1.224-1.02 1.428-1.633 1.632" class="st0" id="XMLID_12_"/><path d="M272.75 159.48c-.408 0-.816-.204-1.224-.204H270.3c-.407 0-.61.204-1.02.204v11.426h-2.65v-13.058c.61-.204 1.427-.612 2.243-.612.816-.205 1.836-.205 2.857-.205h1.428l-.408 2.45z" class="st0" id="XMLID_11_"/><path id="path3386" d="M293.56 164.173l-8.772 1.224c.204 1.224.612 2.244 1.224 2.856.612.612 1.632 1.02 2.856 1.02.613 0 1.225 0 2.04-.204.613-.205 1.225-.41 1.633-.613l.817 2.04c-.612.205-1.224.613-2.04.613-.816.204-1.632.204-2.653.204-1.02 0-2.04-.204-2.856-.408-.816-.408-1.428-.816-2.04-1.428-.613-.613-1.02-1.43-1.225-2.245-.204-.816-.408-1.836-.408-3.06 0-1.02.204-2.04.408-2.857.204-.816.612-1.632 1.225-2.244.408-.612 1.224-1.02 1.836-1.428.816-.408 1.632-.613 2.448-.613 1.633 0 3.06.614 4.08 1.634s1.43 2.652 1.43 4.488v1.02zm-2.65-1.43c0-1.223-.205-2.04-.817-2.65-.612-.613-1.225-.817-2.245-.817s-1.836.408-2.448 1.224c-.612.816-1.02 1.836-1.02 3.265l6.53-1.02z" class="st0"/><path id="path3388" d="M313.148 170.498c-.408.204-1.224.408-2.04.612-.816.204-1.836.204-2.652.204-1.837 0-3.265-.408-4.285-1.224-1.02-.817-1.427-1.837-1.427-3.265 0-1.02.204-1.632.612-2.244.408-.61 1.02-1.02 1.836-1.428.817-.408 1.633-.612 2.45-.816 1.02-.204 1.836-.204 2.856-.204v-.816c0-.816-.204-1.428-.816-1.836-.408-.408-1.224-.612-2.04-.612-.613 0-1.225 0-2.04.204-.613.204-1.225.408-1.633.612l-.612-1.836c.612-.204 1.224-.408 2.04-.612.816-.205 1.632-.205 2.653-.205.816 0 1.428 0 2.04.206.612.204 1.224.408 1.632.816.408.408.816.816 1.02 1.428.204.612.408 1.224.408 2.244v8.774zm-2.448-6.325c-.612 0-1.224 0-2.04.204-.612 0-1.225.204-1.837.408-.408.204-.816.408-1.224.816-.205.41-.41.817-.41 1.43 0 .815.205 1.223.817 1.63.612.41 1.224.613 2.245.613.408 0 .816 0 1.224-.204.408 0 .816-.205 1.02-.205v-4.692z" class="st0"/><path d="M329.063 171.314h-1.02c-1.224 0-2.04-.408-2.653-1.02-.612-.612-1.02-1.633-1.02-3.06v-7.754h-1.836v-2.04h1.836v-3.265l2.653-.816v4.08h2.652v2.04h-2.652v7.55c0 .61.204 1.02.612 1.427.408.204.816.408 1.224.408h.407c.204 0 .204 0 .408-.204v2.246c0 .204-.204.204-.612.408" class="st0" id="XMLID_6_"/><path id="path3391" d="M342.53 153.36c0 .407-.205.815-.41 1.223-.407.204-.61.408-1.02.408-.407 0-.815-.203-1.02-.407-.407-.204-.407-.612-.407-1.224 0-.41.204-.817.408-1.02.205-.41.613-.41 1.02-.41.41 0 .817.205 1.02.41.205.203.41.61.41 1.02m-2.857 4.08h2.652v13.67h-2.652v-13.67z" class="st0"/><path d="M359.668 171.11h-3.06l-4.693-13.67h3.06l2.857 9.18c0 .205.204.613.204.817 0 .204.204.408.204.612 0 .203.204.407.204.61 0-.203 0-.407.204-.61 0-.205 0-.41.204-.613 0-.204.204-.612.204-.816l2.856-9.18h3.06l-5.304 13.67z" class="st0" id="XMLID_3_"/><path id="path3394" d="M383.948 164.173l-8.773 1.224c.204 1.224.612 2.244 1.224 2.856.61.612 1.63 1.02 2.855 1.02.612 0 1.225 0 2.04-.204.613-.205 1.225-.41 1.633-.613l.816 2.04c-.612.205-1.224.613-2.04.613-.816.204-1.633.204-2.653.204s-2.04-.204-2.855-.408c-.816-.408-1.428-.816-2.04-1.428-.613-.613-1.02-1.43-1.225-2.245-.204-.816-.408-1.836-.408-3.06 0-1.02.204-2.04.408-2.857.204-.816.612-1.632 1.225-2.244.408-.612 1.224-1.02 1.836-1.428.817-.408 1.633-.613 2.45-.613 1.63 0 3.06.614 4.08 1.634s1.428 2.652 1.428 4.488v1.02zm-2.448-1.43c0-1.223-.204-2.04-.816-2.65-.613-.613-1.225-.817-2.245-.817s-1.837.408-2.45 1.224c-.61.816-1.02 1.836-1.02 3.265l6.53-1.02z" class="st0"/></g></svg>