<?xml version="1.0"?>
<svg width="500" height="200" xmlns="http://www.w3.org/2000/svg">

 <g>
  <title>background</title>
  <rect fill="none" id="canvas_background" height="202" width="502" y="-1" x="-1"/>
 </g>
 <g>
  <title>Layer 1</title>
  <g stroke="null" id="svg_1">
   <g stroke="null" id="svg_2">
    <path stroke="null" id="svg_3" d="m385.851074,154.605774c7.013184,0.536682 14.016235,1.112579 21.010071,1.735168l0,-123.352486l-21.010071,0l0,121.617317zm-337.98093,-45.766602l-27.363684,-75.850716l-19.967428,0l0,134.034813c6.98981,-0.994812 13.993021,-1.947754 21.009642,-2.861649l0,-72.88781l24.331125,69.895226c7.652622,-0.887558 15.319126,-1.728271 23.000221,-2.518433l0,-125.662148l-21.009876,0l0,75.850716zm41.213093,47.858215c19.363983,-1.759811 38.817726,-3.209686 58.359558,-4.335449l0,-20.703751c-12.485947,0.721954 -24.936005,1.576019 -37.349922,2.552414l0,-31.341293c8.145256,-0.081367 18.870659,-0.329605 28.372658,-0.21183l0,-20.702766c-7.591141,-0.018204 -19.791763,0.106033 -28.372658,0.215904l0,-28.293633l37.349922,0l0,-20.887329l-58.359558,0l0,123.707733zm71.827896,-102.821602l21.989136,0l0,96.804817c6.991272,-0.263794 13.996826,-0.481354 21.009644,-0.664719l0,-96.140099l21.98819,0l0,-20.887329l-64.986969,0l0,20.887329zm78.456985,95.574226l21.010086,-0.004791l0,-47.795723l28.479919,0l0,-20.701096l-28.479919,0l0,-27.071419l37.641022,0l0,-20.887329l-58.651108,0l0,116.460358zm260.09285,-116.461555l-23.076569,0l-15.213623,35.260468l-13.668854,-35.260468l-22.730194,0l24.426636,63.005707l-26.666656,61.810768c7.37735,0.719543 14.735596,1.487213 22.083435,2.298645l15.508484,-35.938812l15.35907,39.617188c8.000214,1.028839 15.981476,2.101929 23.94574,3.238739l0.032532,-0.013687l-27.369141,-70.587479l27.369141,-63.431068zm-166.965698,-0.011726l-21.009186,0l0,117.499939c19.093994,0.657043 38.107788,1.62056 57.043762,2.882706l0,-20.701111c-11.977783,-0.798996 -23.990021,-1.476395 -36.034576,-2.036774l0,-97.64476z" fill="#E50914"/>
   </g>
  </g>
 </g>
</svg>