<svg width="500" height="200" xmlns="http://www.w3.org/2000/svg"><title>background</title><path fill="none" d="M-1-1h502v202H-1z"/><title>Layer 1</title><g><path d="M317.962 22.75c-6.26 4.49-18.23 10.61-33.63 6.815C257.638 22.99 249.998 0 249.998 0s-7.64 22.994-34.33 29.565c-15.41 3.795-27.38-2.327-33.633-6.815h-4.82v123.974c.004 3.137.767 9.31 5.853 15.488 6.282 7.63 16.935 12.578 31.66 14.705 11.727 1.697 20.398 5.384 26.515 11.27C245.735 192.51 250 200 250 200s4.426-7.646 8.755-11.813c6.115-5.885 14.792-9.57 26.516-11.27 14.725-2.126 25.378-7.074 31.66-14.704 5.083-6.175 5.847-12.354 5.85-15.488V22.75h-4.818z" fill="#fff"/><path d="M318.414 27.584s-14.59 11.355-35.143 6.22C259.31 27.814 250 9.868 250 9.868s-9.31 17.947-33.27 23.936c-20.554 5.136-35.143-6.22-35.143-6.22v119.134c.002 4.05 1.694 21.243 33.768 25.878 12.662 1.833 22.122 5.903 28.918 12.443 2.447 2.347 4.308 4.738 5.727 6.932 1.425-2.193 3.277-4.585 5.72-6.933 6.806-6.54 16.264-10.61 28.927-12.444 32.07-4.635 33.762-21.83 33.768-25.878V27.584z" fill="#013369"/><path d="M250 179.844s9.307-11.473 33.495-15.204c27.704-4.275 26.88-17.284 26.883-17.943V84.304H189.62v62.392c0 .656-.817 13.667 26.884 17.943C240.69 168.37 250 179.843 250 179.843z" fill="#fff"/><g fill="#D50A0A"><path d="M221.852 129.904l-.004-29.673-3.726-2.086V90.45h16.957v7.694l-3.547 2.087v60.528l-9.064-2.717-13.105-38.662-.002 25.49 4.16 3.195v7.855l-18.192-4.624v-6.696l4.164-1.628v-42.714l-4.265-2.112V90.45h13.767l12.855 39.454z"/><path d="M253.066 157.04l3.632 4.352v7.693l-18.022-6.733v-6.53l3.978-1.63v-53.96l-3.953-2V90.45h31.29v15.66h-6.877l-2.084-6.43h-7.964v18.106h5.976l2.352-3.438h4.796v16.112h-4.796l-2.264-3.258h-6.064v29.84z"/><path d="M272.96 159.765v-7.694l4.475-3.673V100.23l-3.822-2v-7.78h18.045v7.782l-3.546 2v45.188l7.753-2.095 1.488-11.843h7.418v19.785l-31.81 8.498z"/></g><g><g><path d="M192.76 71.54l-5.46-4.11h6.673l2.205-6.322 2.204 6.323h6.673l-5.46 4.11 2.01 6.42-5.427-3.813-5.427 3.812 2.01-6.42z" fill="#fff"/></g><g><path d="M216.456 71.54l-5.462-4.11h6.675l2.2-6.322 2.205 6.323h6.675l-5.46 4.11 2.008 6.42-5.427-3.813-5.425 3.812 2.01-6.42z" fill="#fff"/></g><g><path d="M192.76 50.156l-5.46-4.11h6.673l2.205-6.323 2.204 6.324h6.673l-5.46 4.11 2.01 6.417-5.427-3.813-5.427 3.814 2.01-6.418z" fill="#fff"/></g><g><path d="M216.456 50.156l-5.462-4.11h6.675l2.2-6.323 2.205 6.324h6.675l-5.46 4.11 2.008 6.417-5.427-3.813-5.425 3.814 2.01-6.418z" fill="#fff"/></g></g><g><g><path d="M309.25 77.96l-5.428-3.814-5.425 3.813 2.008-6.42-5.46-4.11h6.674l2.202-6.323 2.204 6.323h6.673l-5.46 4.11 2.01 6.42z" fill="#fff"/></g><g><path d="M285.555 77.96l-5.427-3.814-5.428 3.813 2.01-6.42-5.46-4.11h6.673l2.205-6.323 2.203 6.323h6.675l-5.462 4.11 2.012 6.42z" fill="#fff"/></g><g><path d="M309.25 56.575l-5.428-3.813-5.425 3.813 2.008-6.42-5.46-4.11h6.674l2.202-6.322 2.204 6.323h6.673l-5.46 4.11 2.01 6.42z" fill="#fff"/></g><g><path d="M285.555 56.575l-5.427-3.813-5.428 3.813 2.01-6.42-5.46-4.11h6.673l2.205-6.322 2.203 6.323h6.675l-5.462 4.11 2.012 6.42z" fill="#fff"/></g></g><path d="M265.043 33s-2.83 1.475-6.776 5.357c.892.503 1.893 1.208 2.467 1.684-.596.53-1.205 1.1-1.772 1.637-2.567-2.117-5.243-3.192-7.314-3.698.687-.494 1.418-.98 2.14-1.45 1.113.285 2.19.723 2.19.723 4.458-3.394 8.315-4.858 8.315-4.858s-.447-.22-1.64-.204c-17.527.228-33.678 13.315-30.628 35.707.325 2.375 1.248 6.694 2.422 8.588.39-3.727 1.79-11.973 5.946-20.808-1.444-.518-2.644-.73-2.644-.73.424-.89 1.014-2.026 1.014-2.026 3.075.58 5.79 1.867 8.144 3.73-.564.913-.946 1.51-1.215 1.978-.826-.65-1.658-1.21-2.578-1.72-4.67 8.166-6.838 15.872-7.717 19.917.05.25.558.378.967.325 19.207-2.486 28.2-12.283 30.935-22.9 1.8-6.965 1.21-14.248-1.2-20.187-.17-.418-.498-1.11-1.057-1.062zM248.53 54.154c-2.5-2.082-5.413-3.358-8.272-3.903 0 0 .876-1.43 1.376-2.174 3.496.692 6.335 2.327 8.32 4.007-.51.73-.994 1.427-1.425 2.07zm3.152-4.428c-2.315-1.945-5.133-3.396-8.326-4.034.488-.63 1.06-1.3 1.608-1.92 2.436.433 5.56 1.717 8.285 3.965-.56.666-1.077 1.345-1.568 1.99zm3.51-4.225c-2.43-2-5.155-3.297-8.05-3.914.7-.663 1.418-1.23 2.05-1.757 3.617.87 6.054 2.49 7.713 3.868-.594.607-1.167 1.2-1.712 1.802z" fill="#fff"/></g></svg>