<?xml version="1.0"?>
<svg width="500" height="200" xmlns="http://www.w3.org/2000/svg" xmlns:xlink="http://www.w3.org/1999/xlink">
 <symbol viewBox="-223.812 -33.193 447.627 66.385" id="Horizontal">
  <g id="svg_1">
   <g id="svg_2">
    <path id="svg_3" d="m-157.427002,0c0,18.332001 -14.860992,33.193001 -33.193008,33.193001s-33.191986,-14.861 -33.191986,-33.193001s14.861008,-33.193001 33.192993,-33.193001s33.192001,14.861 33.192001,33.193001z" fill="#536567"/>
   </g>
   <path id="svg_4" d="m-200.733994,-7.461c-0.440002,0 -0.863007,0.21 -1.128006,0.582l-7.021988,9.86l0,-9.057001c0,-0.764999 -0.62001,-1.384 -1.384003,-1.384c-0.764008,0 -1.384003,0.62 -1.384003,1.384l0,13.387001c0,0.602 0.388992,1.135 0.962997,1.319c0.574005,0.183 1.199997,-0.025001 1.548996,-0.516l7.022003,-9.86l0,9.057c0,0.765 0.619995,1.384 1.384003,1.384c0.763992,0 1.384003,-0.62 1.384003,-1.384l0,-13.387c0,-0.602 -0.389008,-1.135 -0.962997,-1.319c-0.139008,-0.044 -0.280014,-0.066 -0.421005,-0.066z" fill="#FFFFFF"/>
   <g id="svg_5">
    <path id="svg_6" d="m-171.742004,5.034c-1.369003,0.846 -2.878006,1.365 -4.503998,1.24c-1.17601,-0.09 -2.903,-0.754 -2.875,-1.888c0.026001,-1.048 0.955002,-1.481 1.845993,-1.778c1.354004,-0.453 2.790009,-0.569 4.139008,-1.051c2.188004,-0.781 4.259995,-2.482 3.938004,-5.035c-0.354004,-2.809 -3.264999,-4.048 -5.777008,-4.183c-2.348999,-0.126 -5.067993,0.761 -6.796005,2.408c-0.746994,0.712 -0.490997,2.066 0.658005,2.156c0.512009,0.04 0.854004,-0.281 1.251007,-0.543c0.565002,-0.373 1.171997,-0.687 1.802994,-0.929c1.346008,-0.517 2.763,-0.64 4.162994,-0.254c0.965012,0.266 2.395004,1.1 1.868011,2.326c-0.483002,1.124 -2.292007,1.537 -3.346008,1.767c-1.419998,0.31 -2.858994,0.549 -4.149002,1.262c-1.978989,1.094 -2.959,3.41 -1.977997,5.507c1.240005,2.652 4.737,3.215 7.339005,2.7c1.311005,-0.26 2.712006,-0.84 3.759995,-1.688c1.173004,-0.947 -0.01799,-2.864 -1.339996,-2.017z" fill="#FFFFFF"/>
   </g>
   <path id="svg_7" d="m-190.619995,-16.006001c-0.429993,0 -0.779007,0.348999 -0.779007,0.778999l0,30.454001c0,0.429999 0.349014,0.779 0.779007,0.779s0.778,-0.349001 0.778,-0.779l0,-30.454001c0.000992,-0.429998 -0.348007,-0.778999 -0.778,-0.778999z" fill="#FFFFFF"/>
  </g>
  <path id="svg_8" d="m-110.379997,-16.599001c-0.675003,0 -1.331001,0.305 -1.765999,0.855l-18.652008,23.615l0,-22.219999c0,-1.243 -1.007996,-2.250001 -2.25,-2.250001s-2.25,1.007001 -2.25,2.250001l0,28.698999c0,0.957999 0.606003,1.811 1.512009,2.124999c0.903,0.312 1.910004,0.021 2.503998,-0.730999l18.652,-23.615001l0,22.219999c0,1.243001 1.008003,2.249999 2.25,2.249999s2.25,-1.006998 2.25,-2.249999l0,-28.698999c0,-0.957999 -0.606003,-1.811 -1.512001,-2.124999c-0.242004,-0.084 -0.491005,-0.124001 -0.737999,-0.124001zm41.722,16.599001c0,9.497 -7.333,17.224001 -16.347,17.224001s-16.346001,-7.727001 -16.346001,-17.224001s7.333,-17.223 16.347,-17.223s16.346001,7.726 16.346001,17.223zm-4.5,0c0,-7.016 -5.314003,-12.723 -11.847,-12.723s-11.846001,5.707 -11.846001,12.723s5.314003,12.724 11.847,12.724s11.846001,-5.709 11.846001,-12.724zm136.825996,0c0,9.497 -7.333,17.224001 -16.347,17.224001s-16.345999,-7.727001 -16.345999,-17.224001s7.333002,-17.223 16.347002,-17.223s16.345997,7.726 16.345997,17.223zm-4.5,0c0,-7.016 -5.313999,-12.723 -11.847,-12.723s-11.846001,5.707 -11.846001,12.723s5.313999,12.724 11.847,12.724s11.846001,-5.709 11.846001,-12.724zm38.072998,-3.189l0,17.538c0,1.243 -1.008003,2.250001 -2.25,2.250001s-2.25,-1.007001 -2.25,-2.250001l0,-17.538c0,-5.257 -4.122002,-9.535 -9.187996,-9.535s-9.188004,4.277 -9.188004,9.535l0,17.538c0,1.243 -1.008003,2.250001 -2.25,2.250001s-2.25,-1.007001 -2.25,-2.250001l0,-17.538c0,-7.739 6.140999,-14.035001 13.688004,-14.035001s13.687996,6.296 13.687996,14.035001zm-75.637997,13.175c1.068001,-0.766 2.625999,-0.288 3.081001,0.945c0.862,2.335 -3.104,4.091001 -4.687002,4.819c-2.872999,1.32 -6.093999,1.76 -9.217999,1.268999c-5.022,-0.789 -9.419,-4.527999 -8.937,-9.946999c0.282,-3.171 2.331,-5.568 5.103,-6.972c2.923,-1.481 6.164,-1.727 9.229999,-2.75c2.419001,-0.807 5.643002,-2.366 5.371,-5.39c-0.284,-3.161 -3.808001,-4.377 -6.519,-4.621c-2.882999,-0.259 -5.597,0.561 -8.107,1.958c-1.009999,0.564 -1.897999,1.39 -2.911999,1.917c-1.197,0.623 -2.713,-0.08 -2.944,-1.431c-0.184,-1.077 0.489,-1.754 1.236,-2.382c1.056,-0.887 2.192,-1.667 3.397,-2.339c2.545,-1.419001 5.413,-2.319 8.346,-2.278c5.159999,0.073 10.988999,2.526999 11.913999,8.172999c0.861,5.258 -3.325001,8.848 -7.851,10.487001c-3.559999,1.288999 -13.117999,1.598999 -11.685999,7.481999c0.751,3.084001 4.59,3.829 7.281,3.794001c1.556,-0.02 3.087999,-0.361 4.534,-0.933002c1.026999,-0.406999 2.583,-0.980999 3.368,-1.800999c0.908998,-0.652 0.011,-0.012 0,0zm-56.077999,-9.986c0,8.263 -5.764999,16.6 -18.645,16.6l-6.653999,0c-1.242001,0 -2.25,-1.007 -2.25,-2.25l0,-28.698999c0,-1.243 1.007999,-2.25 2.25,-2.25l6.653999,0c11.674999,-0.000002 18.645,6.204999 18.645,16.598999zm-23.049,12.099l4.403999,0c8.593002,0 14.145,-4.75 14.145,-12.1c0,-7.916 -4.890999,-12.099 -14.145,-12.099l-4.403999,0l0,24.199zm51.137998,-24.198l-16.916999,0l0,9.917l11.775,0c1.242,0 2.25,1.007 2.25,2.25s-1.008,2.25 -2.25,2.25l-11.775,0l0,9.781999l16.916999,0c1.242,0 2.25,1.007 2.25,2.25s-1.008,2.249999 -2.25,2.249999l-19.166999,0c-1.242001,0 -2.25,-1.007 -2.25,-2.249999l0,-28.698999c0,-1.243 1.007999,-2.250001 2.25,-2.250001l19.166999,0c1.242,0 2.25,1.007001 2.25,2.250001s-1.007,2.25 -2.25,2.25zm201.050993,0l-16.917007,0l0,9.917l11.774002,0c1.242004,0 2.25,1.007 2.25,2.25s-1.007996,2.25 -2.25,2.25l-11.774002,0l0,9.781999l16.917007,0c1.242004,0 2.25,1.007 2.25,2.25s-1.007996,2.249999 -2.25,2.249999l-19.167007,0c-1.241989,0 -2.25,-1.007 -2.25,-2.249999l0,-28.698999c0,-1.243 1.008011,-2.250001 2.25,-2.250001l19.167007,0c1.242004,0 2.25,1.007001 2.25,2.250001s-1.007996,2.25 -2.25,2.25zm-64.125,-4.089c-0.395004,-0.278 -0.848007,-0.412001 -1.296005,-0.412001c-0.705994,0 -1.400993,0.332001 -1.839996,0.953l-9.514999,13.48l-7.754997,0l0,-12.183c0,-1.243 -1.008003,-2.25 -2.25,-2.25s-2.25,1.007 -2.25,2.25l0,28.699c0,1.243 1.007996,2.250001 2.25,2.250001l13.309998,0c5.883003,0 10.152,-3.946001 10.152,-9.383002c0,-4.772 -3.289993,-8.394 -8.071999,-9.208l7.806999,-11.06c0.716003,-1.014999 0.473999,-2.418999 -0.541,-3.135999zm-20.405991,18.521l11.059998,0c3.381004,0 5.652,1.962 5.652,4.883c0,2.921 -2.270996,4.883 -5.652,4.883l-11.059998,0l0,-9.766zm54.257004,-11.229c-1.253998,0.274 -2.046997,-0.756001 -2.968002,-1.392c-2.294998,-1.585 -4.959991,-2.412 -7.746994,-2.434999c0.037003,-0.001 0.074997,-0.002001 0.112991,-0.003c-5.084991,0.121 -9.705994,2.96 -11.750992,7.698c-2.003998,4.641 -0.994003,10.164 2.494003,13.82c3.480988,3.649 8.910995,4.841001 13.643997,3.169001c1.737,-0.614 3.069992,-1.624001 4.537003,-2.681001c1.880997,-1.355 4.339996,0.913 2.871994,2.818c-2.289993,2.971001 -6.688995,4.671 -10.283997,5.035c-5.035004,0.51 -10.158005,-1.327999 -13.751007,-4.878c-6.80899,-6.724 -6.763,-17.958 0.115005,-24.624001c6.630997,-6.425999 17.11499,-6.32 23.699997,0.036c1.136993,1.103002 0.576996,3.098001 -0.973999,3.437001z" fill="#536567"/>
  <g id="svg_9">
   <path id="svg_10" d="m212.621994,16.599001l-5.147003,0c-0.30899,0 -0.559998,-0.250999 -0.559998,-0.559999c0,-0.309 0.251007,-0.56 0.559998,-0.56l2.013,0l0,-6.587001c0,-0.309 0.251007,-0.56 0.559998,-0.56c0.309006,0 0.559998,0.251 0.559998,0.56l0,6.585999l2.013,0c0.309006,0 0.560013,0.251 0.560013,0.56c0.001999,0.309999 -0.248993,0.561001 -0.559006,0.561001z" fill="#536567"/>
   <path id="svg_11" d="m223.253998,8.332c-0.309006,0 -0.559998,0.251 -0.559998,0.56l0,5.533l-2.51001,-3.178c-0.212997,-0.269 -0.666992,-0.269 -0.878998,0l-2.509995,3.178l0,-5.533c0,-0.309 -0.251007,-0.56 -0.559998,-0.56s-0.559998,0.251 -0.559998,0.56l0,7.146999c0,0.239 0.151001,0.451 0.375992,0.529001c0.225006,0.078999 0.475998,0.004999 0.624008,-0.182001l3.070999,-3.888l3.070999,3.888c0.147995,0.187 0.397995,0.261 0.623993,0.182001c0.225006,-0.078001 0.376007,-0.291 0.376007,-0.529001l0,-7.146999c-0.003006,-0.309 -0.253998,-0.56 -0.563004,-0.56z" fill="#536567"/>
  </g>
 </symbol>

 <g>
  <title>background</title>
  <rect fill="none" id="canvas_background" height="202" width="502" y="-1" x="-1"/>
 </g>
 <g>
  <title>Layer 1</title>
  <g id="bg"/>
  <g stroke="null" id="main">
   <g stroke="null" id="New_Symbol_1_2_"/>
   <g stroke="null" id="New_Symbol_7_">
    <g stroke="null" id="New_Symbol_2"/>
    <use stroke="null" id="svg_12" transform="matrix(1.116167664527893,0,0,-1.116167664527893,249.81221692207873,37.04865344678831) " y="-89.592541" x="-223.646264" height="66.385" width="447.627" xlink:href="#Horizontal"/>
   </g>
   <g stroke="null" id="New_Symbol_4_"/>
   <g stroke="null" id="New_Symbol_3_"/>
   <g stroke="null" id="New_Symbol_5_"/>
   <g stroke="null" id="New_Symbol_6_"/>
   <g stroke="null" id="New_Symbol_1_1_"/>
   <g stroke="null" id="New_Symbol_1"/>
   <g stroke="null" id="New_Symbol_2_"/>
   <g stroke="null" id="New_Symbol_1_"/>
   <g stroke="null" id="New_Symbol"/>
  </g>
  <g display="none" id="Guides"/>
 </g>
</svg>