<svg version="1.1" id="Layer_1" xmlns="http://www.w3.org/2000/svg" xmlns:xlink="http://www.w3.org/1999/xlink" x="0px" y="0px" width="500px" height="200px" viewBox="0 0 500 200" enable-background="new 0 0 500 200" xml:space="preserve"> <g> <path fill="#3C424F" d="M226.676,84.236c0-0.908-0.552-1.815-1.263-2.171l-20.624-11.94c-0.356-0.178-0.73-0.356-1.085-0.356 h-0.178c-0.356,0-0.73,0.178-1.085,0.356l-20.838,11.94c-0.73,0.356-1.263,1.263-1.263,2.171v32.031 c0,0.356,0.178,0.908,0.552,1.085c0.374,0.178,0.908,0.178,1.263,0l12.314-7.065c0.73-0.552,1.263-1.263,1.263-2.171V93.098 c0-0.908,0.552-1.637,1.263-2.171l5.249-3.079c0.356-0.178,0.908-0.356,1.263-0.356c0.356,0,0.908,0.178,1.263,0.356l5.249,3.079 c0.73,0.356,1.263,1.263,1.263,2.171v15.019c0,0.908,0.552,1.637,1.263,2.171l12.314,7.065c0.356,0.178,0.908,0.178,1.263,0 s0.552-0.552,0.552-1.085V84.236z"/> <path fill="#3C424F" d="M336.897,40.265c-0.356-0.178-0.908-0.178-1.263,0s-0.552,0.552-0.552,1.085v31.675 c0,0.356-0.178,0.552-0.356,0.73s-0.552,0.178-0.908,0l-5.25-2.901c-0.73-0.356-1.815-0.356-2.527,0l-20.624,11.94 c-0.73,0.356-1.263,1.263-1.263,2.171v23.899c0,0.908,0.552,1.637,1.263,2.171l20.624,11.94c0.73,0.356,1.815,0.356,2.527,0 l20.624-11.94c0.73-0.356,1.263-1.263,1.263-2.171V49.305c0-0.908-0.552-1.815-1.263-2.171L336.897,40.265z M334.904,100.892 c0,0.178-0.178,0.356-0.356,0.552l-7.065,4.164c-0.178,0.178-0.356,0.178-0.552,0l-7.065-4.164 c-0.178-0.178-0.356-0.356-0.356-0.552v-8.15c0-0.178,0.178-0.356,0.356-0.552l7.065-4.164c0.178-0.178,0.356-0.178,0.552,0 l7.065,4.164c0.178,0.178,0.356,0.356,0.356,0.552V100.892z"/> <path fill="#3C424F" d="M410.728,92.386c0.73-0.356,1.263-1.263,1.263-2.171v-5.783c0-0.908-0.552-1.637-1.263-2.171 l-20.446-11.762c-0.73-0.356-1.815-0.356-2.527,0l-20.624,11.94c-0.73,0.356-1.263,1.263-1.263,2.171v23.899 c0,0.908,0.552,1.815,1.263,2.171l20.446,11.762c0.73,0.356,1.637,0.356,2.527,0l12.492-6.869c0.356-0.178,0.73-0.552,0.73-1.085 c0-0.356-0.178-0.908-0.552-1.085l-20.82-11.94c-0.356-0.178-0.552-0.73-0.552-1.085V92.92c0-0.356,0.178-0.908,0.552-1.085 l6.513-3.808c0.356-0.178,0.908-0.178,1.263,0l6.513,3.808c0.356,0.178,0.552,0.73,0.552,1.085v5.783 c0,0.356,0.178,0.908,0.552,1.085c0.374,0.178,0.908,0.178,1.263,0L410.728,92.386z"/> <path fill="#7FBD42" d="M264.134,70.303c0.73-0.356,1.815-0.356,2.527,0l20.642,11.94c0.73,0.356,1.263,1.263,1.263,2.171v23.899 c0,0.908-0.552,1.637-1.263,2.171l-20.624,11.94c-0.73,0.356-1.815,0.356-2.527,0l-20.642-11.94 c-0.73-0.356-1.263-1.263-1.263-2.171V84.414c0-0.908,0.552-1.637,1.263-2.171L264.134,70.303z"/> <path fill="#7FBD42" d="M388.645,91.301c0.178,0,0.356,0,0.552,0l3.986,2.349c0.178,0,0.178,0.178,0.178,0.356v4.52 c0,0.178-0.178,0.356-0.178,0.356l-3.986,2.349c-0.178,0-0.356,0-0.552,0l-3.986-2.349c-0.178,0-0.178-0.178-0.178-0.356v-4.52 c0-0.178,0.178-0.356,0.178-0.356L388.645,91.301z"/> </g> <path fill="#7FBD42" d="M159.19,122.83l-0.008-56.871c-0.002-4.603-2.456-8.851-6.441-11.151l-49.283-28.441 c-3.985-2.3-8.892-2.3-12.882-0.001L41.299,54.797c-3.986,2.302-6.44,6.55-6.441,11.152l0.004,56.873 c0.003,4.604,2.457,8.852,6.442,11.151l49.283,28.441c3.985,2.3,8.893,2.301,12.882,0l49.28-28.432 C156.735,131.679,159.189,127.432,159.19,122.83z"/> <path fill-rule="evenodd" clip-rule="evenodd" fill="#FFFFFF" d="M45.747,74.392H60.75v56.765L45.505,122.2L45.747,74.392z"/> <path fill-rule="evenodd" clip-rule="evenodd" fill="none" d="M73.346,147.59l-18.496-10.866l0.294-58.002"/> <path fill-rule="evenodd" clip-rule="evenodd" fill="#FFFFFF" d="M130.475,59.022l13.275,7.866l-61.835,64.269l-13.18-7.988 L130.475,59.022z"/> <path fill-rule="evenodd" clip-rule="evenodd" fill="#FFFFFF" d="M68.304,65.597l10.68-10.54l67.67,68.717l-13.43,7.625 L68.304,65.597z"/> <path fill-rule="evenodd" clip-rule="evenodd" fill="#FFFFFF" d="M79,54.979l7.52,12.987L53.243,87.247l-7.52-12.987L79,54.979z"/> <g> <path fill="#7FBD42" d="M318.604,164.28l-3.283-2.016l10.366-6.219v-12.324l-10.366-6.104l3.283-2.131l8.753,5.241l8.812-5.241 l3.283,2.131l-10.366,6.104v12.497l10.366,6.046l-3.283,2.016l-8.812-5.126L318.604,164.28z"/> <path fill="#7FBD42" d="M347.282,137.271v3.34l8.753-5.126l12.324,7.142v14.397l-12.324,7.314l-8.753-5.126v16.01l-3.456,1.958 v-37.663l-2.937-1.957l3.398-2.074L347.282,137.271z M364.961,155.123v-10.539l-8.926-5.068l-8.753,5.068v10.539l8.753,5.241 L364.961,155.123z"/> <path fill="#7FBD42" d="M395.541,144.585l-19.292,11.575l7.141,4.146l8.868-5.183l3.283,2.016l-12.151,7.141l-12.151-7.141v-14.454 l12.151-7.257l12.151,7.257V144.585z M374.694,144.7v8.466l15.837-9.445l-7.142-4.319L374.694,144.7z"/> <path fill="#7FBD42" d="M403.257,140.669l8.811-5.241l7.948,4.838l-3.398,1.957l-4.55-2.707l-8.811,5.126v17.622l-3.455,2.016 v-24.878l-2.822-1.843l3.283-2.131l2.994,1.843V140.669z"/> <path fill="#7FBD42" d="M436.772,135.486v3.974h-0.115l-8.753,5.298v17.622l-3.456,2.016v-37.893l-2.994-1.9l3.456-2.131 l2.994,1.843v16.47L436.772,135.486z"/> <path fill="#7FBD42" d="M439.651,142.281l12.324-7.314l12.151,7.314l-3.456,2.016l-8.696-5.299l-6.91,4.031l19.061,11.691v2.476 l-12.151,7.141l-12.324-7.141l3.456-2.016l8.868,5.126l7.429-4.435l-19.753-11.978V142.281z"/> </g> </svg> 