<svg width="500" height="200" xmlns="http://www.w3.org/2000/svg" xmlns:xlink="http://www.w3.org/1999/xlink"><symbol viewBox="-223.812 -33.193 447.627 66.385" id="a"><g><g><path d="M-157.427 0c0 18.332-14.86 33.193-33.193 33.193S-223.812 18.333-223.812 0s14.86-33.193 33.193-33.193S-157.426-18.333-157.426 0z" fill="#536567"/></g><path d="M-200.734-7.46c-.44 0-.863.21-1.128.58l-7.022 9.86v-9.056c0-.765-.62-1.384-1.384-1.384-.764 0-1.384.62-1.384 1.384V7.31c0 .603.39 1.136.963 1.32.575.183 1.2-.025 1.55-.516l7.022-9.86V7.31c0 .766.62 1.385 1.384 1.385.764 0 1.384-.62 1.384-1.384V-6.075c0-.602-.39-1.135-.963-1.32-.14-.043-.28-.065-.42-.065z" fill="#fff"/><g><path d="M-171.742 5.034c-1.37.846-2.878 1.365-4.504 1.24-1.176-.09-2.903-.754-2.875-1.888.025-1.048.954-1.48 1.845-1.778 1.354-.453 2.79-.57 4.14-1.05 2.187-.782 4.26-2.483 3.937-5.036-.354-2.81-3.265-4.048-5.777-4.183-2.35-.127-5.068.76-6.796 2.407-.748.712-.492 2.066.657 2.156.512.04.854-.28 1.25-.543.566-.373 1.173-.687 1.804-.93 1.347-.516 2.764-.64 4.164-.253.965.266 2.395 1.1 1.868 2.326-.483 1.124-2.292 1.537-3.346 1.767-1.42.31-2.86.55-4.15 1.262-1.978 1.094-2.958 3.41-1.977 5.507 1.24 2.65 4.736 3.214 7.338 2.7 1.31-.26 2.712-.84 3.76-1.69 1.173-.946-.018-2.863-1.34-2.016z" fill="#fff"/></g><path d="M-190.62-16.006c-.43 0-.78.35-.78.78v30.453c0 .43.35.78.78.78s.778-.35.778-.78v-30.454c0-.43-.348-.78-.778-.78z" fill="#fff"/></g><path d="M-110.38-16.6c-.675 0-1.33.306-1.766.856L-130.798 7.87v-22.22c0-1.242-1.008-2.25-2.25-2.25s-2.25 1.008-2.25 2.25v28.7c0 .958.606 1.81 1.512 2.125.903.312 1.91.02 2.504-.73l18.652-23.616v22.22c0 1.242 1.008 2.25 2.25 2.25s2.25-1.008 2.25-2.25v-28.7c0-.958-.606-1.81-1.512-2.125-.242-.084-.49-.124-.738-.124zM-68.658 0c0 9.497-7.333 17.224-16.347 17.224S-101.35 9.497-101.35 0s7.332-17.223 16.346-17.223S-68.658-9.497-68.658 0zm-4.5 0c0-7.016-5.314-12.723-11.847-12.723S-96.85-7.016-96.85 0s5.313 12.724 11.846 12.724S-73.158 7.014-73.158 0zM63.668 0c0 9.497-7.333 17.224-16.347 17.224S30.976 9.497 30.976 0s7.333-17.223 16.347-17.223S63.668-9.497 63.668 0zm-4.5 0c0-7.016-5.314-12.723-11.847-12.723S35.476-7.016 35.476 0s5.314 12.724 11.847 12.724S59.168 7.014 59.168 0zM97.24-3.19v17.54c0 1.242-1.007 2.25-2.25 2.25s-2.25-1.008-2.25-2.25V-3.19c0-5.256-4.12-9.534-9.187-9.534s-9.188 4.277-9.188 9.535v17.54c0 1.242-1.008 2.25-2.25 2.25s-2.25-1.008-2.25-2.25V-3.19c0-7.738 6.14-14.034 13.688-14.034S97.24-10.928 97.24-3.19zM21.604 9.987c1.068-.766 2.626-.288 3.08.945.863 2.336-3.103 4.092-4.686 4.82-2.873 1.32-6.094 1.76-9.218 1.27-5.023-.79-9.42-4.53-8.938-9.948.282-3.17 2.33-5.568 5.103-6.972 2.923-1.48 6.164-1.727 9.23-2.75 2.42-.807 5.643-2.366 5.37-5.39-.283-3.16-3.807-4.377-6.518-4.62-2.883-.26-5.597.56-8.107 1.957-1.01.564-1.898 1.39-2.912 1.917-1.197.623-2.713-.08-2.944-1.43-.184-1.078.49-1.755 1.236-2.383 1.056-.886 2.192-1.666 3.397-2.338 2.545-1.42 5.413-2.32 8.346-2.278 5.16.073 10.99 2.527 11.914 8.173.86 5.258-3.325 8.848-7.85 10.487-3.56 1.29-13.12 1.6-11.687 7.482.75 3.084 4.59 3.83 7.28 3.794 1.557-.02 3.09-.36 4.535-.933 1.027-.407 2.583-.98 3.368-1.8.91-.653.01-.013 0 0zM-34.475 0c0 8.263-5.765 16.6-18.645 16.6h-6.654c-1.242 0-2.25-1.007-2.25-2.25v-28.7c0-1.242 1.008-2.25 2.25-2.25h6.654c11.675 0 18.645 6.206 18.645 16.6zm-23.05 12.1h4.405c8.593 0 14.145-4.75 14.145-12.1 0-7.917-4.89-12.1-14.145-12.1h-4.404v24.2zm51.14-24.2h-16.918v9.918h11.775c1.242 0 2.25 1.007 2.25 2.25s-1.008 2.25-2.25 2.25h-11.775V12.1h16.917c1.242 0 2.25 1.007 2.25 2.25s-1.008 2.25-2.25 2.25h-19.167c-1.242 0-2.25-1.007-2.25-2.25v-28.7c0-1.242 1.008-2.25 2.25-2.25h19.167c1.242 0 2.25 1.008 2.25 2.25s-1.007 2.25-2.25 2.25zm201.05 0h-16.917v9.918h11.774c1.242 0 2.25 1.007 2.25 2.25s-1.008 2.25-2.25 2.25h-11.774V12.1h16.917c1.242 0 2.25 1.007 2.25 2.25s-1.008 2.25-2.25 2.25h-19.167c-1.242 0-2.25-1.007-2.25-2.25v-28.7c0-1.242 1.008-2.25 2.25-2.25h19.167c1.242 0 2.25 1.008 2.25 2.25s-1.008 2.25-2.25 2.25zm-64.125-4.088c-.395-.278-.848-.412-1.296-.412-.706 0-1.4.332-1.84.953l-9.515 13.48h-7.756V-14.35c0-1.243-1.008-2.25-2.25-2.25s-2.25 1.007-2.25 2.25v28.7c0 1.242 1.008 2.25 2.25 2.25h13.31c5.883 0 10.152-3.947 10.152-9.384 0-4.772-3.29-8.394-8.072-9.208l7.807-11.06c.717-1.015.475-2.42-.54-3.136zm-20.406 18.52h11.06c3.38 0 5.652 1.963 5.652 4.884 0 2.92-2.27 4.883-5.652 4.883h-11.06V2.332zM164.39-8.895c-1.253.274-2.046-.756-2.967-1.392-2.295-1.585-4.96-2.412-7.747-2.435l.113-.003c-5.086.12-9.707 2.96-11.752 7.698-2.004 4.64-.994 10.164 2.494 13.82 3.48 3.65 8.91 4.84 13.644 3.17 1.737-.615 3.07-1.625 4.537-2.682 1.88-1.355 4.34.913 2.872 2.818-2.29 2.97-6.69 4.67-10.284 5.035-5.034.51-10.157-1.328-13.75-4.878-6.81-6.724-6.763-17.958.115-24.624 6.63-6.425 17.115-6.32 23.7.037 1.137 1.103.577 3.098-.974 3.437z" fill="#536567"/><g fill="#536567"><path d="M212.622 16.6h-5.147c-.31 0-.56-.252-.56-.56 0-.31.25-.56.56-.56h2.013V8.89c0-.31.25-.56.56-.56.31 0 .56.25.56.56v6.586h2.013c.31 0 .56.25.56.56.003.31-.248.56-.558.56z"/><path d="M223.254 8.332c-.31 0-.56.25-.56.56v5.533l-2.51-3.178c-.213-.27-.667-.27-.88 0l-2.51 3.178V8.892c0-.31-.25-.56-.56-.56s-.56.25-.56.56v7.147c0 .238.152.45.377.528.226.08.477.005.625-.182l3.07-3.888 3.072 3.888c.148.187.398.26.624.182.226-.078.377-.29.377-.53V8.893c-.003-.31-.254-.56-.563-.56z"/></g></symbol><title>background</title><path fill="none" d="M-1-1h502v202H-1z"/><title>Layer 1</title><g stroke="null"><g><use transform="matrix(1.116 0 0 -1.116 249.812 37.049)" y="-89.593" x="-223.646" height="66.385" width="447.627" xlink:href="#a"/></g></g></svg>