<?xml version="1.0" encoding="utf-8"?>
<!-- Generator: Adobe Illustrator 19.0.0, SVG Export Plug-In . SVG Version: 6.00 Build 0)  -->
<svg version="1.1" id="Warstwa_1" xmlns="http://www.w3.org/2000/svg" xmlns:xlink="http://www.w3.org/1999/xlink" x="0px" y="0px"
	 width="727.9px" height="152.4px" viewBox="0 0 727.9 152.4" enable-background="new 0 0 727.9 152.4" xml:space="preserve">
<path id="XMLID_28_" fill-rule="evenodd" clip-rule="evenodd" fill="#009CD5" d="M223.5,54.8c-0.7-7.5-3.9-14.8-9.6-20.6
	c-5.6-5.6-12.9-8.9-20.6-9.6c-5.8-4.8-13.2-7.8-21.3-7.8c-7.9,0-15.4,2.8-21.4,7.8c-7.5,0.7-14.8,3.9-20.6,9.6
	c-2.5,2.5-4.6,5.4-6.1,8.4c0,0,0,0,0,0.1c-0.1,0.2-0.2,0.4-0.3,0.6c-0.1,0.2-0.2,0.4-0.3,0.6c-2.9,5.8-7.2,10.8-12,15
	C99.8,69,85.5,73.3,80.9,74.5c-0.5,0.1-0.5,0.7-0.1,0.9c4.3,1.8,18.2,8.5,29.6,18c5,4.1,9.7,9,12.8,14.8c1.6,3.6,3.9,6.9,6.8,9.9
	c5.6,5.6,12.9,8.9,20.6,9.6c5.8,4.8,13.2,7.8,21.3,7.8c7.9,0,15.4-2.8,21.4-7.8c7.5-0.7,14.8-3.9,20.6-9.6
	c5.6-5.6,8.9-12.9,9.6-20.6c4.8-5.8,7.8-13.2,7.8-21.3C231.3,68.3,228.5,60.8,223.5,54.8z M192.8,101c-11.3,0-21.4-6.7-25.8-17.1
	c-0.1-0.3-0.5-0.5-0.8-0.4c-0.3,0.1-0.5,0.4-0.4,0.8c3.7,14.8,17,25.2,32.3,25.2c4.1,0,8-0.7,11.6-2.1c-0.3,0.4-0.7,0.7-1,1.1
	c-10.9,10.9-28.6,10.9-39.5,0c-8-8-10.4-19.9-6.1-30.3c0.1-0.3,0-0.7-0.3-0.8c-0.3-0.2-0.7,0-0.9,0.2c-7.9,13.1-5.8,29.8,5,40.6
	c2.9,2.9,6.2,5.1,9.7,6.7c-0.5,0-1,0-1.5,0c-15.4,0-27.9-12.5-27.9-27.9c0-11.3,6.7-21.4,17.1-25.8c0.3-0.1,0.5-0.5,0.4-0.8
	c-0.1-0.3-0.4-0.5-0.8-0.4c-14.8,3.7-25.2,17-25.2,32.3c0,4.1,0.7,8,2.1,11.6c-0.4-0.3-0.7-0.7-1.1-1c-5.3-5.3-8.2-12.3-8.2-19.7
	c0-7.5,2.9-14.5,8.2-19.7c8-8,19.9-10.4,30.3-6.1c0.3,0.1,0.7,0,0.8-0.3c0.2-0.3,0-0.7-0.2-0.9c-13.1-7.9-29.8-5.8-40.6,5
	c-2.9,2.9-5.1,6.2-6.7,9.7c0-0.5,0-1,0-1.5c0-15.4,12.5-27.9,27.9-27.9c11.3,0,21.4,6.7,25.8,17.1c0.1,0.3,0.5,0.5,0.8,0.4
	c0.3-0.1,0.5-0.4,0.4-0.8c-3.7-14.8-17-25.2-32.3-25.2c-4.1,0-8,0.7-11.6,2.1c0.3-0.4,0.7-0.7,1-1.1c10.9-10.9,28.6-10.9,39.5,0
	c8,8,10.4,19.9,6.1,30.3c-0.1,0.3,0,0.7,0.3,0.8c0.1,0,0.2,0.1,0.3,0.1c0.2,0,0.4-0.1,0.6-0.3c7.9-13.1,5.8-29.8-5-40.6
	c-2.9-2.9-6.2-5.1-9.7-6.7c0.5,0,1,0,1.5,0c15.4,0,27.9,12.5,27.9,27.9c0,11.3-6.7,21.4-17.1,25.8c-0.3,0.1-0.5,0.5-0.4,0.8
	c0.1,0.3,0.3,0.4,0.6,0.4c0.1,0,0.1,0,0.2,0c14.8-3.7,25.2-17,25.2-32.3c0-4.1-0.7-8-2.1-11.6c0.4,0.3,0.7,0.7,1.1,1
	c10.9,10.9,10.9,28.6,0,39.5c-8,8-19.9,10.4-30.3,6.1c-0.3-0.1-0.7,0-0.8,0.3c-0.2,0.3,0,0.7,0.2,0.9c5.3,3.2,11.3,4.8,17.1,4.8
	c8.6,0,17.1-3.3,23.5-9.8c2.9-2.9,5.1-6.2,6.7-9.7c0,0.5,0,1,0,1.5C220.7,88.4,208.2,101,192.8,101z"/>
<path id="XMLID_12_" fill-rule="evenodd" clip-rule="evenodd" fill="#4B4A4A" d="M506.5,57.2l-0.4,0.1c-0.2,0-0.5,0.1-0.8,0.2
	c-0.3,0.1-0.5,0.2-0.7,0.3l-0.7,0.4c-0.2,0.2-0.4,0.4-0.6,0.6L503,59l-18.7,27l-18.7-27l-0.3-0.3c-0.1-0.1-0.3-0.3-0.6-0.5
	c-0.2-0.2-0.4-0.3-0.7-0.4c-0.2-0.1-0.5-0.2-0.7-0.3c-0.3-0.1-0.6-0.1-0.9-0.2l-0.4-0.1h-4.3v39.9h8.6V75.3l13.7,19.9
	c0.8,1.2,2.1,1.9,3.6,1.9l0,0v0h1.2v0l0,0c1.4,0,2.7-0.7,3.5-1.9l13.7-19.9v21.8h8.6V57.2H506.5"/>
<path id="XMLID_9_" fill-rule="evenodd" clip-rule="evenodd" fill="#4B4A4A" d="M438.4,57.2h-15.1c-6.9,0-12.4,5.6-12.4,12.4v15
	c0,6.8,5.6,12.4,12.4,12.4h15.1c6.9,0,12.4-5.6,12.4-12.4v-15C450.9,62.8,445.3,57.2,438.4,57.2z M442.3,84.6c0,2.1-1.7,3.8-3.8,3.8
	h-15.1c-2.1,0-3.8-1.7-3.8-3.8v-15c0-2.1,1.7-3.8,3.8-3.8h15.1c2.1,0,3.8,1.7,3.8,3.8V84.6z"/>
<path id="XMLID_8_" fill-rule="evenodd" clip-rule="evenodd" fill="#4B4A4A" d="M344.2,57.2h-1v27.5c0,2.1-1.7,3.8-3.8,3.8h-15.1
	c-2.1,0-3.8-1.7-3.8-3.8V57.2h-8.6v27.5c0,6.8,5.6,12.4,12.4,12.4h15.1c6.9,0,12.4-5.6,12.4-12.4V57.2H344.2"/>
<g id="XMLID_6_">
	<defs>
		<polyline id="SVGID_3_" points="617.9,72.8 616.9,72.8 616.9,96.4 625.5,96.4 625.5,72.8 617.9,72.8 		"/>
	</defs>
	<use xlink:href="#SVGID_3_"  overflow="visible" fill-rule="evenodd" clip-rule="evenodd" fill="#4B4A4A"/>
	<clipPath id="SVGID_1_">
		<use xlink:href="#SVGID_3_"  overflow="visible"/>
	</clipPath>
	
		<rect id="XMLID_7_" x="606.9" y="62.8" clip-path="url(#SVGID_1_)" fill-rule="evenodd" clip-rule="evenodd" fill="#4B4A4A" width="28.6" height="43.6"/>
</g>
<path id="XMLID_5_" fill-rule="evenodd" clip-rule="evenodd" fill="#4B4A4A" d="M552.8,57.2l-20,0c-6.9,0-12.4,5.6-12.4,12.4v15
	c0,6.8,5.6,12.4,12.4,12.4h27.5v-8.6h-27.5c-2.1,0-3.8-1.7-3.8-3.8V82h31.4v-8.6H529v-3.8c0-2.1,1.7-3.8,3.8-3.8h27.5v-8.6H552.8"/>
<path id="XMLID_4_" fill-rule="evenodd" clip-rule="evenodd" fill="#4B4A4A" d="M646.3,57.2h-66.6c-6.9,0-12.4,5.6-12.4,12.4v15
	c0,6.8,5.6,12.4,12.4,12.4h27.5v-8.6h-27.5c-2.1,0-3.8-1.7-3.8-3.8V82h31.4v-8.6h-31.4v-3.8c0-2.1,1.7-3.8,3.8-3.8h67.6v-8.6H646.3"
	/>
<path id="XMLID_3_" fill-rule="evenodd" clip-rule="evenodd" fill="#4B4A4A" d="M384.9,77.1l19.9-19.9h-10.4c-1.1,0-2.2,0.4-3,1.3
	l-24,24V57.2h-8.6v39.9h4.3c0.6,0,1.1-0.1,1.6-0.3c0.5-0.2,1-0.5,1.4-0.9l12.7-12.7l12.4,12.7c0.8,0.8,1.9,1.2,3,1.2h10.6l-1.9-1.8
	L384.9,77.1"/>
<path id="XMLID_2_" fill-rule="evenodd" clip-rule="evenodd" fill="#4B4A4A" d="M293.6,57.2v25.2l-24-24c-0.4-0.4-0.9-0.7-1.4-0.9
	c-0.5-0.2-1.1-0.3-1.6-0.3h-4.3v39.9h8.6V71.8l24,24c0.4,0.4,0.9,0.7,1.4,0.9c0.5,0.2,1.1,0.3,1.6,0.3h4.3V57.2h-7.6H293.6z"/>
</svg>
