<?xml version="1.0" encoding="utf-8"?>
<!-- Generator: Adobe Illustrator 19.1.0, SVG Export Plug-In . SVG Version: 6.00 Build 0)  -->
<svg version="1.1" id="Layer_1" xmlns="http://www.w3.org/2000/svg" xmlns:xlink="http://www.w3.org/1999/xlink" x="0px" y="0px"
	 viewBox="0 0 600 400" style="enable-background:new 0 0 600 400;" xml:space="preserve">
<style type="text/css">
	.st0{fill:#413C3C;}
	.st1{fill:#E9004C;}
	.st2{fill:#00A8E1;}
	.st3{fill:#6CC04A;}
</style>
<g>
	<g>
		<path class="st0" d="M239.4,170.5c17,0,30.8,12.5,30.8,29.8c0,17.4-13.8,30-30.8,30c-17,0-30.8-12.6-30.8-30
			C208.6,183,222.3,170.5,239.4,170.5z M239.4,220.8c10.8,0,19.6-8.6,19.6-20.5c0-11.8-8.8-20.3-19.6-20.3
			c-10.7,0-19.6,8.5-19.6,20.3C219.7,212.2,228.7,220.8,239.4,220.8z"/>
		<path class="st0" d="M331.8,193.2h2.5v-1c0-9.4-5.3-12.5-12.5-12.5c-8.8,0-15.9,5.5-15.9,5.5l-4.5-8c0,0,8.2-6.8,21.3-6.8
			c14.4,0,22.6,7.9,22.6,22.3v36.1H335v-5.4c0-2.6,0.2-4.5,0.2-4.5H335c0,0-4.6,11.3-18.3,11.3c-9.8,0-19.4-6-19.4-17.4
			C297.3,194,322.2,193.2,331.8,193.2z M319.1,221.5c9.2,0,15.2-9.7,15.2-18.2v-1.8h-2.8c-8.2,0-23.1,0.6-23.1,10.8
			C308.4,216.9,312,221.5,319.1,221.5z"/>
		<path class="st0" d="M355.6,171.8h10v4.8c0,2.3-0.2,4.2-0.2,4.2h0.2c0,0,4.8-10.4,19.2-10.4c15.3,0,25,12.2,25,29.9
			c0,18.2-10.9,29.9-25.8,29.9c-12.5,0-17.5-9.4-17.5-9.4h-0.2c0,0,0.2,2,0.2,5v25.6h-10.9V171.8z M382.3,220.9
			c9,0,16.5-7.4,16.5-20.4c0-12.4-6.7-20.4-16.1-20.4c-8.6,0-16.5,6-16.5,20.5C366.2,210.7,371.8,220.9,382.3,220.9z"/>
		<path class="st0" d="M419.4,149.2h11.1v11.2h-11.1V149.2z M419.5,171.8h10.9v57.1h-10.9V171.8z"/>
		<polygon class="st0" points="278.1,149.2 278.3,230.3 289.2,230.3 289.2,149.2 		"/>
		<path class="st0" d="M470.4,170.5c14.3,0,21.4,8.4,21.4,8.4l-5.2,7.7c0,0-6.1-6.5-15.8-6.5c-11.5,0-19.9,8.6-19.9,20.3
			c0,11.6,8.3,20.5,20.2,20.5c10.6,0,17.6-7.7,17.6-7.7l4.4,8c0,0-7.9,9.1-22.8,9.1c-17.9,0-30.6-12.7-30.6-29.9
			C439.8,183.4,452.5,170.5,470.4,170.5z"/>
	</g>
	<g>
		<path class="st0" d="M181.6,183.6h-2.2v-4c0-0.6-0.6-1.1-1.3-1.1h-6.7c-0.7,0-1.3,0.5-1.3,1.1v4h-9v-2.1c0-2.9-2.3-5.2-5.2-5.2
			h-19.7c-2.9,0-5.2,2.3-5.2,5.2v2.1h-7.9v-2.7c0-0.7-0.6-1.4-1.3-1.4h-0.9v-1c0-0.5-0.4-0.8-0.8-0.8h-5.3c-0.4,0-0.8,0.4-0.8,0.8v1
			h-0.9c-0.7,0-1.3,0.6-1.3,1.4v2.7h-1.2c-2.9,0-5.2,2.3-5.2,5.2v36.3c0,2.9,2.3,5.2,5.2,5.2h71c2.9,0,5.2-2.3,5.2-5.2v-36.3
			C186.8,185.9,184.4,183.6,181.6,183.6z M146,223.3c-9.1,0-16.5-7.4-16.5-16.5c0-9.1,7.4-16.5,16.5-16.5c9.1,0,16.5,7.4,16.5,16.5
			C162.5,216,155.1,223.3,146,223.3z"/>
		<path class="st0" d="M155.6,206.9c0,5.3-4.3,9.5-9.5,9.5c-5.3,0-9.5-4.3-9.5-9.5c0-5.3,4.3-9.5,9.5-9.5
			C151.3,197.3,155.6,201.6,155.6,206.9z"/>
		<path class="st1" d="M129,149h-22.3c-0.8,0-1.4,0.6-1.4,1.4v17.2c0,0.8,0.6,1.4,1.4,1.4H121l5.3,5.2l0-5.2h2.8
			c0.8,0,1.4-0.6,1.4-1.4v-17.2C130.4,149.6,129.8,149,129,149z M113.2,164.7h-2v-3.2h2V164.7z M117,164.7h-2v-5.4h2V164.7z
			 M120.7,164.7h-2v-6.9h2V164.7z M124.5,164.7h-2v-11.6h2V164.7z"/>
		<g>
			<rect x="172.9" y="157.7" class="st2" width="2.6" height="2.6"/>
			<path class="st2" d="M185.3,149.1h-22.3c-0.8,0-1.4,0.6-1.4,1.4v17.2c0,0.8,0.6,1.4,1.4,1.4h2.8l0,5.2l5.3-5.2h14.3
				c0.8,0,1.4-0.6,1.4-1.4v-17.2C186.8,149.8,186.1,149.1,185.3,149.1z M179.7,157.7h-2.4v2.6h2.4v1.8h-2.4v2.5h-1.8v-2.5h-2.6v2.5
				h-1.8v-2.5h-2.4v-1.8h2.4v-2.6h-2.4v-1.8h2.4v-2.5h1.8v2.5h2.6v-2.5h1.8v2.5h2.4V157.7z"/>
		</g>
		<path class="st3" d="M157.2,149.1h-22.3c-0.8,0-1.4,0.6-1.4,1.4v17.2c0,0.8,0.6,1.4,1.4,1.4h8.6l2.5,5.2l2.6-5.2h8.6
			c0.8,0,1.4-0.6,1.4-1.4v-17.2C158.6,149.8,158,149.1,157.2,149.1z M154.6,157.6c-1.1,4.1-8.4,8.3-8.6,8.4v0l0,0l0,0v0
			c-0.2-0.1-7.5-4.4-8.6-8.4c-1.3-4.8,4.8-7.8,8.6-3.6C149.9,149.8,155.9,152.8,154.6,157.6z"/>
	</g>
</g>
</svg>
