<svg id="Layer_1" xmlns="http://www.w3.org/2000/svg" viewBox="-609 441 500 200"><style>.st0{fill:#413c3c}.st1{fill:#e9004c}.st2{fill:#00a8e1}.st3{fill:#6cc04a}</style><path class="st0" d="M-436.1 468.7c21.9 0 39.7 16.1 39.7 38.4 0 22.4-17.8 38.7-39.7 38.7s-39.7-16.2-39.7-38.7c0-22.3 17.7-38.4 39.7-38.4zm0 64.9c13.9 0 25.3-11.1 25.3-26.4 0-15.2-11.3-26.2-25.3-26.2-13.8 0-25.3 11-25.3 26.2-.1 15.3 11.5 26.4 25.3 26.4zM-317 498h3.2v-1.3c0-12.1-6.8-16.1-16.1-16.1-11.3 0-20.5 7.1-20.5 7.1l-5.8-10.3s10.6-8.8 27.5-8.8c18.6 0 29.1 10.2 29.1 28.8v46.5h-13.3v-7c0-3.4.3-5.8.3-5.8h-.3s-5.9 14.6-23.6 14.6c-12.6 0-25-7.7-25-22.4.1-24.3 32.2-25.3 44.5-25.3zm-16.3 36.5c11.9 0 19.6-12.5 19.6-23.5v-2.3h-3.6c-10.6 0-29.8.8-29.8 13.9 0 5.9 4.6 11.9 13.8 11.9zM-286.3 470.4h12.9v6.2c0 3-.3 5.4-.3 5.4h.3s6.2-13.4 24.8-13.4c19.7 0 32.2 15.7 32.2 38.6 0 23.5-14.1 38.6-33.3 38.6-16.1 0-22.6-12.1-22.6-12.1h-.3s.3 2.6.3 6.4v33h-14.1l.1-102.7zm34.4 63.3c11.6 0 21.3-9.5 21.3-26.3 0-16-8.6-26.3-20.8-26.3-11.1 0-21.3 7.7-21.3 26.4.1 13.1 7.3 26.2 20.8 26.2zM-204 441.3h14.3v14.4H-204v-14.4zm.1 29.1h14.1V544h-14.1v-73.6zM-386.2 441.3l.3 104.5h14V441.3zM-138.3 468.7c18.4 0 27.6 10.8 27.6 10.8l-6.7 9.9s-7.9-8.4-20.4-8.4c-14.8 0-25.7 11.1-25.7 26.2 0 15 10.7 26.4 26 26.4 13.7 0 22.7-9.9 22.7-9.9l5.7 10.3s-10.2 11.7-29.4 11.7c-23.1 0-39.5-16.4-39.5-38.6.3-21.7 16.7-38.4 39.7-38.4z"/><g><path class="st0" d="M-510.6 485.6h-2.8v-5.2c0-.8-.8-1.4-1.7-1.4h-8.6c-.9 0-1.7.6-1.7 1.4v5.2H-537v-2.7c0-3.7-3-6.7-6.7-6.7h-25.4c-3.7 0-6.7 3-6.7 6.7v2.7H-586v-3.5c0-.9-.8-1.8-1.7-1.8h-1.2V479c0-.6-.5-1-1-1h-6.8c-.5 0-1 .5-1 1v1.3h-1.2c-.9 0-1.7.8-1.7 1.8v3.5h-1.5c-3.7 0-6.7 3-6.7 6.7v46.8c0 3.7 3 6.7 6.7 6.7h91.5c3.7 0 6.7-3 6.7-6.7v-46.8c0-3.7-3.1-6.7-6.7-6.7zm-45.9 51.2c-11.7 0-21.3-9.5-21.3-21.3s9.5-21.3 21.3-21.3 21.3 9.5 21.3 21.3c-.1 11.9-9.6 21.3-21.3 21.3z"/><path class="st0" d="M-544.1 515.7c0 6.8-5.5 12.2-12.2 12.2-6.8 0-12.2-5.5-12.2-12.2 0-6.8 5.5-12.2 12.2-12.2 6.6-.2 12.2 5.3 12.2 12.2z"/><path class="st1" d="M-578.4 441h-28.8c-1 0-1.8.8-1.8 1.8V465c0 1 .8 1.8 1.8 1.8h18.4l6.8 6.7v-6.7h3.6c1 0 1.8-.8 1.8-1.8v-22.2c0-1-.8-1.8-1.8-1.8zm-20.4 20.2h-2.6v-4.1h2.6v4.1zm4.9 0h-2.6v-7h2.6v7zm4.8 0h-2.6v-8.9h2.6v8.9zm4.9 0h-2.6v-15h2.6v15z"/><path class="st2" d="M-521.8 452.2h3.4v3.4h-3.4z"/><path class="st2" d="M-505.9 441.1h-28.8c-1 0-1.8.8-1.8 1.8v22.2c0 1 .8 1.8 1.8 1.8h3.6v6.7l6.8-6.7h18.4c1 0 1.8-.8 1.8-1.8v-22.2c.2-.9-.7-1.8-1.8-1.8zm-7.2 11.1h-3.1v3.4h3.1v2.3h-3.1v3.2h-2.3v-3.2h-3.4v3.2h-2.3v-3.2h-3.1v-2.3h3.1v-3.4h-3.1v-2.3h3.1v-3.2h2.3v3.2h3.4v-3.2h2.3v3.2h3.1v2.3z"/><path class="st3" d="M-542.1 441.1h-28.8c-1 0-1.8.8-1.8 1.8v22.2c0 1 .8 1.8 1.8 1.8h11.1l3.2 6.7 3.4-6.7h11.1c1 0 1.8-.8 1.8-1.8v-22.2c0-.9-.8-1.8-1.8-1.8zm-3.3 11c-1.4 5.3-10.8 10.7-11.1 10.8-.3-.1-9.7-5.7-11.1-10.8-1.7-6.2 6.2-10.1 11.1-4.6 5-5.5 12.7-1.6 11.1 4.6z"/></g></svg>