<svg xmlns="http://www.w3.org/2000/svg" viewBox="0 0 1037.25 214.57" width="500" height="200" fill="#2e3234"><path d="M226.49 62q-31.74 0-54.13 22.31t-22.36 54q0 31.39 22.27 53.84c15 14.87 32.91 22.31 54.07 22.31 20.68 0 40.67-7.25 53.1-21.76v21.89h23.19v-76.37c0-46.47-38.12-76.22-76.14-76.22zm53 76.28c0 14.78-5 27.4-15.48 37.87s-22.74 15.84-37.38 15.84a53.77 53.77 0 0 1-.12-107.54c14.69 0 27.11 5.28 37.5 15.84s15.48 23.09 15.48 37.87v.12zM498.95 61.68q-31.7 0-54.07 22.31t-22.34 54q0 31.39 22.24 53.84c15 14.87 32.88 22.31 54 22.31 20.66 0 40.62-7.25 53-21.76v21.9h23.25v-76.39c0-46.46-38.1-76.21-76.08-76.21zm52.89 76.28c0 14.78-5 27.4-15.46 37.87s-22.67 15.84-37.34 15.84a53.87 53.87 0 0 1-53.6-53.7 52 52 0 0 1 15.68-38c10.46-10.55 23-15.84 37.8-15.84s27.08 5.28 37.46 15.84 15.46 23.09 15.46 37.87v.14zM899.16 84.45q26.79 0 42.82 22l18.42-12.94q-22.73-31.53-61.24-31.53-31.54 0-53.85 22.31t-22.19 54q0 31.39 22.19 53.84t53.85 22.31q38.51 0 61.24-31.53l-18.42-12.94q-16 22-42.82 22-22 0-37.67-15.84a53.86 53.86 0 0 1 0-75.87q15.63-15.81 37.67-15.81zM1008.8 62.06V13.18h-22.77V214.57h22.77V84.83h28.45V62.06h-28.45zM603.78 13.18h22.76v201.39h-22.76zM353.23 83.56V61.63h-23.47v152.53h23.47v-75.63c0-13.95 5.4-29.28 14.77-38.65s20.25-15.43 38-15.43h4V62h-4c-23.01 0-41.04 7.65-52.77 21.56zM730.63 62q-31.69 0-54.11 22.31t-22.3 54q0 31.39 22.3 53.84c15 14.87 33 22 54.11 22a73.62 73.62 0 0 0 39.26-11c12.15-7.35 23.22-18.76 29.36-33.19h-26c-4.72 6-7.53 9.19-15.79 14.49s-18.29 7.37-26.81 7.37c-12.8 0-24.11-3.78-33.93-11.85s-15.88-17.19-18.51-30.2h128.36v-11.49c0-21-7.33-39-22.19-54S751.58 62 730.63 62zm-52.43 65.81c2.62-13 8.79-22.61 18.51-30.6a51.77 51.77 0 0 1 33.92-12.56c12.62 0 23.83 4.29 33.65 12.46a51 51 0 0 1 18.51 30.7H678.21zM66.81 0H.01v213.92h22.76v-77.34h44.16c17.89 0 36.4-6.86 48.71-19.17 12.65-12.65 20.77-29.34 20.77-49.52s-7.75-34.35-20.32-48.19C103.4 7.13 84.7 0 66.81 0zm0 114.06h-44V22.52h44c20.85 0 46.9 16 46.9 46.16 0 27.42-23.99 45.37-46.9 45.37z"/></svg>
