<svg width="500" height="200" xmlns="http://www.w3.org/2000/svg"><title>background</title><path fill="none" d="M-1-1h502v202H-1z"/><title>Layer 1</title><g stroke="null"><path fill="#253B80" d="M187.094 66.31h-27.627c-1.89 0-3.498 1.373-3.793 3.24L144.5 140.392c-.222 1.398.86 2.658 2.278 2.658h13.19c1.89 0 3.498-1.374 3.793-3.244l3.014-19.107c.29-1.87 1.903-3.245 3.79-3.245h8.745c18.198 0 28.7-8.806 31.443-26.257 1.237-7.635.053-13.634-3.522-17.835-3.926-4.613-10.89-7.053-20.136-7.053zm3.187 25.873c-1.51 9.914-9.084 9.914-16.408 9.914h-4.17l2.926-18.514c.173-1.12 1.143-1.943 2.274-1.943h1.91c4.99 0 9.696 0 12.128 2.844 1.45 1.697 1.894 4.217 1.34 7.7z"/><path fill="#253B80" d="M269.675 91.864h-13.23c-1.127 0-2.1.824-2.274 1.943l-.585 3.7-.925-1.34c-2.864-4.157-9.25-5.547-15.625-5.547-14.62 0-27.106 11.073-29.538 26.605-1.264 7.748.534 15.156 4.93 20.323 4.03 4.75 9.8 6.73 16.662 6.73 11.78 0 18.31-7.574 18.31-7.574l-.59 3.676c-.22 1.405.86 2.666 2.27 2.666H261c1.894 0 3.494-1.374 3.793-3.244l7.15-45.28c.227-1.393-.85-2.658-2.265-2.658zm-18.44 25.75c-1.277 7.557-7.276 12.63-14.927 12.63-3.842 0-6.912-1.232-8.883-3.567-1.955-2.318-2.7-5.62-2.077-9.295 1.192-7.493 7.292-12.732 14.826-12.732 3.757 0 6.81 1.248 8.822 3.603 2.016 2.38 2.816 5.7 2.238 9.36z"/><path fill="#253B80" d="M340.133 91.864H326.84c-1.27 0-2.46.63-3.18 1.685l-18.336 27.007-7.772-25.954c-.49-1.624-1.987-2.74-3.684-2.74h-13.064c-1.588 0-2.69 1.552-2.185 3.047l14.642 42.973-13.767 19.435c-1.083 1.53.008 3.635 1.878 3.635h13.28c1.26 0 2.44-.614 3.154-1.648l44.217-63.825c1.058-1.527-.028-3.616-1.89-3.616z"/><path fill="#179BD7" d="M384.15 66.31h-27.632c-1.887 0-3.494 1.373-3.79 3.24l-11.173 70.842c-.222 1.398.86 2.658 2.27 2.658h14.18c1.316 0 2.443-.962 2.65-2.27l3.17-20.08c.29-1.87 1.903-3.245 3.79-3.245h8.74c18.204 0 28.703-8.806 31.45-26.257 1.24-7.635.048-13.634-3.527-17.835-3.923-4.613-10.883-7.053-20.13-7.053zm3.186 25.873c-1.507 9.914-9.08 9.914-16.41 9.914h-4.164l2.93-18.514c.173-1.12 1.134-1.943 2.27-1.943h1.91c4.985 0 9.695 0 12.127 2.844 1.45 1.697 1.89 4.217 1.336 7.7z"/><path fill="#179BD7" d="M466.726 91.864h-13.222c-1.135 0-2.1.824-2.27 1.943l-.586 3.7-.93-1.34c-2.863-4.157-9.245-5.547-15.62-5.547-14.62 0-27.1 11.073-29.533 26.605-1.26 7.748.53 15.156 4.924 20.323 4.04 4.75 9.8 6.73 16.662 6.73 11.78 0 18.312-7.574 18.312-7.574l-.59 3.676c-.222 1.405.86 2.666 2.278 2.666h11.913c1.887 0 3.494-1.374 3.79-3.244l7.153-45.28c.218-1.393-.864-2.658-2.282-2.658zm-18.44 25.75c-1.27 7.557-7.276 12.63-14.927 12.63-3.835 0-6.913-1.232-8.884-3.567-1.955-2.318-2.69-5.62-2.076-9.295 1.2-7.493 7.29-12.732 14.825-12.732 3.757 0 6.81 1.248 8.822 3.603 2.024 2.38 2.824 5.7 2.238 9.36z"/><path fill="#179BD7" d="M482.323 68.253l-11.34 72.14c-.222 1.397.86 2.657 2.27 2.657h11.4c1.895 0 3.503-1.374 3.794-3.244l11.18-70.838c.224-1.398-.86-2.662-2.27-2.662h-12.764c-1.127.004-2.097.828-2.27 1.947z"/><path fill="#253B80" d="M29.772 156.817l2.112-13.42-4.706-.11H4.706l15.617-99.02c.05-.3.206-.58.436-.777.23-.198.525-.307.832-.307h37.89c12.58 0 21.26 2.618 25.794 7.784 2.125 2.424 3.478 4.957 4.132 7.744.687 2.926.7 6.42.028 10.682l-.048.31v2.732l2.125 1.204c1.79.95 3.21 2.036 4.302 3.28 1.818 2.072 2.993 4.706 3.49 7.83.513 3.21.344 7.03-.497 11.358-.97 4.977-2.537 9.31-4.653 12.858-1.947 3.268-4.428 5.978-7.373 8.08-2.81 1.995-6.152 3.51-9.93 4.48-3.66.952-7.832 1.433-12.408 1.433h-2.95c-2.108 0-4.156.76-5.764 2.12-1.612 1.39-2.678 3.29-3.005 5.365l-.222 1.208-3.733 23.652-.17.868c-.044.275-.12.413-.234.505-.1.085-.246.142-.388.142H29.772z"/><path fill="#179BD7" d="M93.525 70.018c-.114.723-.243 1.463-.388 2.222-4.997 25.655-22.093 34.518-43.927 34.518H38.093c-2.67 0-4.92 1.94-5.336 4.573l-5.692 36.1-1.612 10.23c-.27 1.73 1.063 3.29 2.808 3.29H47.98c2.335 0 4.32-1.697 4.686-4l.194-1.002 3.712-23.56.24-1.29c.362-2.312 2.35-4.01 4.685-4.01h2.95c19.102 0 34.056-7.755 38.427-30.198 1.826-9.376.88-17.205-3.95-22.71-1.463-1.66-3.277-3.04-5.397-4.162z"/><path fill="#222D65" d="M88.297 67.934c-.763-.222-1.55-.424-2.36-.606-.81-.178-1.643-.335-2.5-.473-2.997-.485-6.28-.715-9.8-.715H43.94c-.733 0-1.427.166-2.05.465-1.37.658-2.387 1.955-2.633 3.542l-6.318 40.017-.183 1.167c.416-2.633 2.666-4.572 5.336-4.572H49.21c21.834 0 38.93-8.867 43.927-34.518.15-.76.274-1.5.388-2.222-1.265-.67-2.634-1.244-4.11-1.733-.362-.12-.738-.238-1.118-.35z"/><path fill="#253B80" d="M39.257 70.147c.246-1.587 1.264-2.884 2.634-3.538.627-.3 1.317-.466 2.05-.466h29.698c3.518 0 6.802.23 9.8.715.856.137 1.688.294 2.5.472.808.182 1.596.384 2.36.606.38.113.755.23 1.122.347 1.475.49 2.844 1.067 4.11 1.733 1.485-9.48-.014-15.936-5.14-21.78-5.65-6.436-15.85-9.19-28.903-9.19h-37.89c-2.667 0-4.942 1.938-5.354 4.576L.46 143.664c-.31 1.98 1.216 3.765 3.212 3.765h23.393l5.874-37.266 6.317-40.017z"/></g></svg>