<?xml version="1.0"?>
<svg width="500" height="200" xmlns="http://www.w3.org/2000/svg">
 <g>
  <title>background</title>
  <rect x="-1" y="-1" width="502" height="202" id="canvas_background" fill="none"/>
 </g>

 <g>
  <title>Layer 1</title>
  <g stroke="null" id="svg_11">
   <path stroke="null" fill="#253B80" d="m187.093536,66.309837l-27.62674,0c-1.890533,0 -3.498291,1.373459 -3.793182,3.239754l-11.173492,70.84227c-0.222168,1.397675 0.860428,2.65802 2.278336,2.65802l13.18924,0c1.890518,0 3.498291,-1.373459 3.793167,-3.243774l3.01355,-19.107246c0.290833,-1.870331 1.902634,-3.24379 3.789124,-3.24379l8.745697,0c18.198349,0 28.701263,-8.806305 31.444153,-26.257332c1.236115,-7.634804 0.052521,-13.633606 -3.522507,-17.834778c-3.926483,-4.613213 -10.890732,-7.053123 -20.137344,-7.053123zm3.187241,25.873558c-1.510818,9.913147 -9.085052,9.913147 -16.408813,9.913147l-4.168869,0l2.924683,-18.513428c0.173691,-1.118958 1.143204,-1.943039 2.274292,-1.943039l1.910721,0c4.988907,0 9.695023,0 12.126831,2.843872c1.450211,1.696625 1.894608,4.217323 1.341171,7.699448l-0.000015,0z" id="svg_1"/>
   <path stroke="null" fill="#253B80" d="m269.674805,91.864265l-13.229645,0c-1.127029,0 -2.100571,0.824081 -2.274277,1.943047l-0.585754,3.700256l-0.925049,-1.341133c-2.864075,-4.156746 -9.250641,-5.546356 -15.625122,-5.546356c-14.619278,0 -27.105637,11.07251 -29.537476,26.604721c-1.264389,7.747932 0.533234,15.156532 4.928299,20.323189c4.031509,4.750534 9.800064,6.729919 16.6633,6.729919c11.779449,0 18.311447,-7.574219 18.311447,-7.574219l-0.589767,3.67601c-0.222183,1.405792 0.860443,2.666168 2.270248,2.666168l11.916763,0c1.894592,0 3.494263,-1.373489 3.793182,-3.243805l7.150085,-45.279747c0.226227,-1.393654 -0.852356,-2.658051 -2.266235,-2.658051l0,0zm-18.440689,25.748337c-1.276505,7.558075 -7.275299,12.631783 -14.926285,12.631783c-3.841629,0 -6.911728,-1.232056 -8.883057,-3.56694c-1.955139,-2.318718 -2.698441,-5.61908 -2.07634,-9.295105c1.191681,-7.493431 7.291443,-12.732773 14.825287,-12.732773c3.756821,0 6.81076,1.24823 8.822464,3.603302c2.015747,2.379326 2.815582,5.699867 2.23793,9.359734z" id="svg_2"/>
   <path stroke="null" fill="#253B80" d="m340.133331,91.864265l-13.294281,0c-1.268463,0 -2.460114,0.630173 -3.179199,1.684517l-18.335632,27.008675l-7.772217,-25.954346c-0.4888,-1.623917 -1.987457,-2.738846 -3.684082,-2.738846l-13.064026,0c-1.587555,0 -2.690338,1.551201 -2.185394,3.045853l14.643494,42.973137l-13.766937,19.434448c-1.082611,1.531006 0.008087,3.635635 1.878418,3.635635l13.278107,0c1.260376,0 2.439941,-0.613998 3.154938,-1.648132l44.217346,-63.825493c1.05835,-1.52697 -0.02829,-3.61544 -1.890533,-3.61544l0,-0.000008z" id="svg_3"/>
   <path stroke="null" fill="#179BD7" d="m384.148651,66.309837l-27.630768,0c-1.886505,0 -3.494263,1.373459 -3.789124,3.239754l-11.173523,70.84227c-0.222168,1.397675 0.860413,2.65802 2.270264,2.65802l14.178955,0c1.316864,0 2.443909,-0.961411 2.649933,-2.270248l3.171082,-20.080772c0.290863,-1.870331 1.902679,-3.24379 3.789154,-3.24379l8.741669,0c18.202393,0 28.701263,-8.806313 31.448181,-26.257332c1.240173,-7.634804 0.048462,-13.633606 -3.52655,-17.834778c-3.922424,-4.613213 -10.88266,-7.053123 -20.129272,-7.053123zm3.187256,25.873558c-1.506775,9.913147 -9.081024,9.913147 -16.408844,9.913147l-4.164795,0l2.92868,-18.513428c0.173737,-1.118958 1.135132,-1.943039 2.270294,-1.943039l1.910706,0c4.984863,0 9.695007,0 12.126831,2.843872c1.450195,1.696625 1.890533,4.217323 1.337128,7.699448z" id="svg_4"/>
   <path stroke="null" fill="#179BD7" d="m466.725922,91.864265l-13.221588,0c-1.135101,0 -2.100586,0.824081 -2.270233,1.943047l-0.585754,3.700256l-0.929077,-1.341133c-2.864075,-4.156746 -9.246643,-5.546356 -15.621124,-5.546356c-14.619232,0 -27.101593,11.07251 -29.533417,26.604721c-1.260345,7.747932 0.529175,15.156532 4.924286,20.323189c4.039581,4.750534 9.799988,6.729919 16.663269,6.729919c11.779449,0 18.311462,-7.574219 18.311462,-7.574219l-0.589783,3.67601c-0.222168,1.405792 0.860443,2.666168 2.27832,2.666168l11.91275,0c1.886475,0 3.494232,-1.373489 3.789154,-3.243805l7.154114,-45.279747c0.21814,-1.393654 -0.864471,-2.658051 -2.282379,-2.658051l0,0zm-18.440704,25.748337c-1.268433,7.558075 -7.275299,12.631783 -14.92627,12.631783c-3.833557,0 -6.911743,-1.232056 -8.883057,-3.56694c-1.95517,-2.318718 -2.690369,-5.61908 -2.076355,-9.295105c1.199768,-7.493431 7.291443,-12.732773 14.825287,-12.732773c3.756836,0 6.81073,1.24823 8.822449,3.603302c2.023834,2.379326 2.823669,5.699867 2.237946,9.359734z" id="svg_5"/>
   <path stroke="null" fill="#179BD7" d="m482.322754,68.252884l-11.339111,72.138962c-0.222168,1.39769 0.860443,2.658035 2.270233,2.658035l11.39975,0c1.894531,0 3.502289,-1.373459 3.793121,-3.243774l11.18161,-70.838211c0.222168,-1.39769 -0.860443,-2.662086 -2.270233,-2.662086l-12.765106,0c-1.127014,0.004036 -2.096558,0.82811 -2.270264,1.947083l0,-0.000008z" id="svg_6"/>
   <path stroke="null" fill="#253B80" d="m29.771791,156.816803l2.112705,-13.41951l-4.70612,-0.109085l-22.472228,0l15.617045,-99.0224c0.048477,-0.298931 0.206022,-0.57766 0.436275,-0.7756c0.230259,-0.197941 0.525146,-0.307007 0.832157,-0.307007l37.891336,0c12.579277,0 21.260353,2.617649 25.79277,7.784283c2.124817,2.423756 3.478081,4.956577 4.132492,7.743889c0.686729,2.924664 0.698845,6.418907 0.028275,10.680679l-0.048477,0.311035l0,2.730774l2.124825,1.203789c1.789536,0.94931 3.211472,2.035957 4.302162,3.280144c1.817818,2.072311 2.99334,4.706123 3.490204,7.82872c0.513031,3.211479 0.343361,7.032921 -0.496864,11.359329c-0.969505,4.976768 -2.536865,9.311249 -4.653603,12.858002c-1.94709,3.268036 -4.427399,5.978592 -7.372253,8.079185c-2.811546,1.995544 -6.15229,3.510391 -9.929306,4.479897c-3.659866,0.953339 -7.832764,1.434052 -12.409615,1.434052l-2.948898,0c-2.108665,0 -4.156738,0.759438 -5.764492,2.120796c-1.611797,1.389618 -2.678246,3.288223 -3.005455,5.364563l-0.222176,1.20784l-3.732578,23.651794l-0.169662,0.8685c-0.044437,0.274704 -0.121189,0.412048 -0.234295,0.504959c-0.100994,0.084824 -0.246426,0.141373 -0.38781,0.141373l-18.206419,0l0.000004,0z" id="svg_7"/>
   <path stroke="null" fill="#179BD7" d="m93.524559,70.018181l0,0l0,0c-0.113098,0.723091 -0.242363,1.462326 -0.387794,2.221771c-4.996979,25.655418 -22.092506,34.518272 -43.926472,34.518272l-11.116947,0c-2.67017,0 -4.920223,1.939011 -5.3363,4.572815l0,0l0,0l-5.691778,36.097748l-1.611795,10.232285c-0.270653,1.728943 1.062412,3.288239 2.807514,3.288239l19.717224,0c2.334885,0 4.318325,-1.69664 4.685932,-3.999207l0.193893,-1.001816l3.712379,-23.558868l0.238335,-1.292679c0.363564,-2.310654 2.351048,-4.007271 4.685928,-4.007271l2.948895,0c19.103203,0 34.05777,-7.756012 38.428604,-30.199959c1.825897,-9.375877 0.88063,-17.204605 -3.950722,-22.710548c-1.462334,-1.660278 -3.276108,-3.037788 -5.396896,-4.160789l0,0.000008z" id="svg_8"/>
   <path stroke="null" fill="#222D65" d="m88.297333,67.933754c-0.763474,-0.222176 -1.551193,-0.424156 -2.359108,-0.605942c-0.811958,-0.177734 -1.644119,-0.335281 -2.500504,-0.472633c-2.997383,-0.484749 -6.281563,-0.715004 -9.800049,-0.715004l-29.699055,0c-0.731167,0 -1.425972,0.165627 -2.048069,0.464554c-1.369419,0.658447 -2.387394,1.955154 -2.633808,3.542717l-6.317917,40.016151l-0.181782,1.167442c0.416077,-2.633804 2.66613,-4.572815 5.336296,-4.572815l11.116947,0c21.833973,0 38.929501,-8.866882 43.926479,-34.518265c0.149467,-0.759453 0.274696,-1.498688 0.387794,-2.221779c-1.264381,-0.67057 -2.633804,-1.244186 -4.108253,-1.732986c-0.363564,-0.121178 -0.73925,-0.238327 -1.118973,-0.35144l0,0z" id="svg_9"/>
   <path stroke="null" fill="#253B80" d="m39.256744,70.147446c0.246414,-1.587563 1.264389,-2.88427 2.633808,-3.538681c0.626133,-0.298927 1.316902,-0.464554 2.048069,-0.464554l29.699059,0c3.518471,0 6.802666,0.230255 9.800041,0.715012c0.856384,0.137344 1.688553,0.294891 2.500496,0.472633c0.807922,0.181778 1.595634,0.383759 2.359123,0.605934c0.379723,0.113113 0.755409,0.230263 1.123009,0.347404c1.474449,0.4888 2.843864,1.066452 4.108269,1.732986c1.486557,-9.480915 -0.012131,-15.936172 -5.138367,-21.781456c-5.65139,-6.435066 -15.851341,-9.190063 -28.903255,-9.190063l-37.891335,0c-2.666128,0 -4.940414,1.939003 -5.352453,4.576855l-15.782669,100.040394c-0.311048,1.979401 1.215916,3.764893 3.211472,3.764893l23.393251,0l5.873562,-37.265205l6.317917,-40.016151l0.000004,0z" id="svg_10"/>
  </g>
 </g>
</svg>