<svg width="500" height="200" viewBox="0 0 500 200" xmlns="http://www.w3.org/2000/svg"><title>pixiv</title><path d="M158.266 71.523c-11.156-9.743-26.78-15.365-44.937-15.365-47.325 0-79.516 36.5-79.516 36.5l9.071 14.389s5.018.42 2.361-8.055c2.294-4.33 6.785-10.162 15.553-16.893v95.837c-3.78 1.066-8.776 3.07-5.37 6.475h26.057c3.439-3.439-1.979-5.509-5.28-6.475v-22.608s17.866 7.009 37.124 7.009c16.922 0 32.318-5.031 43.77-14.119 11.451-9.036 18.831-22.528 18.786-37.95.033-15.142-6.452-29.038-17.619-38.745zm-13.809 69.129c-7.918 7.814-19.434 12.756-32.718 12.746-14.82.008-27.296-2.86-35.533-6.914V74.582c9.038-6.418 23.696-10.372 35.533-10.348 14.381.011 25.675 5.441 33.31 13.684 7.623 8.291 11.785 19.305 11.822 32.106-.046 12.475-4.495 22.749-12.414 30.628zm54.476-84.494h-5.306a4.265 4.265 0 0 0-4.266 4.266v98.014a4.266 4.266 0 0 0 4.266 4.267h5.306a4.269 4.269 0 0 0 4.267-4.267V60.424a4.268 4.268 0 0 0-4.267-4.266zm138.691 0h-5.307a4.265 4.265 0 0 0-4.266 4.266v98.014a4.266 4.266 0 0 0 4.266 4.267h5.307a4.269 4.269 0 0 0 4.267-4.267V60.424a4.27 4.27 0 0 0-4.267-4.266zm124.767 0h-4.937c-3.881 0-4.951.501-6.698 4.002-1.74 3.484-40.17 79.638-40.17 79.638s-38.433-76.153-40.169-79.638c-1.748-3.501-2.818-4.002-6.699-4.002h-4.936c-3.634 0-5.595 1.614-3.548 5.725 2.051 4.113 49.379 97.019 49.379 97.019 1.242 2.353 3.518 3.803 5.977 3.803 2.451 0 4.727-1.45 5.973-3.803v-.003c.082-.167 47.328-92.906 49.372-97.016 2.047-4.111.09-5.725-3.544-5.725zM295.714 159.142c2.006 2.554 3.446 3.563 7.323 3.563h7.956c5.007 0 3.248-2.275 1.83-4.143-3.536-4.663-38.418-49.005-38.418-49.005s36.135-44.594 39.675-49.258c1.415-1.865 3.178-4.141-1.833-4.141h-7.952c-3.881 0-5.322 1.006-7.324 3.563-2.002 2.552-31.367 38.655-31.367 38.655s-29.386-36.104-31.389-38.655c-2.002-2.557-3.443-3.563-7.32-3.563h-7.956c-5.007 0-3.245 2.275-1.83 4.141 3.537 4.664 39.696 49.258 39.696 49.258s-35.931 44.342-39.471 49.005c-1.415 1.867-3.177 4.143 1.83 4.143h7.956c3.881 0 5.318-1.009 7.324-3.563 2.002-2.555 31.16-38.409 31.16-38.409s28.111 35.854 30.11 38.409zM196.265 15c-3.166 0-5.801 1.056-7.911 3.164-2.107 2.107-3.162 4.744-3.162 7.908 0 3.162 1.055 5.799 3.162 7.906 2.11 2.109 4.745 3.165 7.911 3.165 3.162 0 5.797-1.056 7.904-3.165 2.11-2.107 3.166-4.744 3.166-7.906 0-3.164-1.056-5.801-3.166-7.908-2.107-2.108-4.742-3.164-7.904-3.164zm138.691 0c-3.162 0-5.797 1.056-7.904 3.164-2.11 2.107-3.165 4.744-3.165 7.908 0 3.162 1.055 5.799 3.165 7.906 2.107 2.109 4.742 3.165 7.904 3.165 3.166 0 5.801-1.056 7.911-3.165 2.106-2.107 3.162-4.744 3.162-7.906 0-3.164-1.056-5.801-3.162-7.908-2.111-2.108-4.745-3.164-7.911-3.164z" fill="#0096DB" fill-rule="evenodd"/></svg>
