<?xml version="1.0"?>
<svg width="500" height="200" xmlns="http://www.w3.org/2000/svg">
 <g>
  <title>background</title>
  <rect x="-1" y="-1" width="502" height="202" id="canvas_background" fill="none"/>
 </g>

 <g>
  <title>Layer 1</title>
  <g stroke="null" id="svg_26">
   <path stroke="null" d="m188.592407,84.105324c0.267426,0.200577 0.735428,0.334282 0.267426,0.73542c-0.334274,0.468002 -0.735413,0.869133 -1.002838,1.403984c-0.267426,0.467995 -0.468002,0.601715 -0.869141,0.267433c0.534851,-0.869133 1.069702,-1.671417 1.604553,-2.406837z" fill="#DD3735" id="svg_1"/>
   <path stroke="null" d="m322.973724,154.170807c0,0.200577 0.066864,0.33429 0.066864,0.534851c0.133698,-0.267426 0.133698,-0.401138 0.200562,-0.534851l-0.267426,0z" fill="#DD3735" id="svg_2"/>
   <path stroke="null" d="m322.973724,154.772522l0,-0.066864l0,0.066864z" fill="#DD3735" id="svg_3"/>
   <polygon stroke="null" points="309.3350372314453,180.84649658203125 309.3350372314453,180.84649658203125 309.3350372314453,180.84649658203125 " fill="#DD3735" id="svg_4"/>
   <path stroke="null" d="m297.702026,116.396957c-0.200592,-0.066856 -0.468018,-0.200569 -0.936005,-0.334282c0.133728,0.267426 0.200592,0.467995 0.267426,0.668564c0.33429,-0.066856 0.467987,-0.066856 0.601715,-0.133713c0,-0.066856 0,-0.133705 0.066864,-0.200569z" fill="#DD3735" id="svg_5"/>
   <path stroke="null" d="m297.300903,101.889114c-0.066895,0.200577 -0.066895,0.401146 -0.066895,0.601707c0,-0.200562 0,-0.401131 0.066895,-0.601707z" fill="#DD3735" id="svg_6"/>
   <path stroke="null" d="m297.367737,103.226242c-0.066864,0 -0.066864,0 -0.133728,-0.066856l0,0.066856c0.066864,0.066864 0.066864,0.066864 0.133728,0z" fill="#DD3735" id="svg_7"/>
   <path stroke="null" d="m297.234009,103.761101l0,-0.467995c-0.200562,0.066849 -0.401123,0.066849 -0.668549,0.133713c0.33429,0.133705 0.668549,0.200569 0.668549,0.334282z" fill="#DD3735" id="svg_8"/>
   <path stroke="null" d="m349.649445,95.203476c-0.066864,-2.540543 -0.200592,-5.147934 -0.33432,-7.688484c-0.133698,-2.607399 -0.200562,-5.214798 -0.467987,-7.822189c-0.467987,-3.543388 -0.936005,-7.153641 -1.738251,-10.630165c-0.601715,-2.874825 -1.604553,-5.61594 -2.607422,-8.357048c-1.270264,-3.20911 -2.540527,-6.485069 -4.145081,-9.560467c-2.607391,-4.947372 -6.01709,-9.35989 -9.159332,-13.97298c-2.07254,-2.941681 -4.746796,-5.348509 -6.752502,-8.357046c-1.136536,-1.738266 -2.807953,-3.209106 -4.47934,-4.546234c-2.674255,-2.139404 -5.482239,-4.078239 -8.290222,-5.950216c-2.139404,-1.470842 -4.278809,-2.874825 -6.55191,-4.145097c-1.805145,-1.002846 -3.743958,-1.805122 -5.615936,-2.674255c-2.139404,-1.002845 -4.211975,-2.20626 -6.618774,-2.674254c-0.601715,-0.133713 -1.136566,-0.334282 -1.738281,-0.534851c-1.537689,-0.534852 -3.008545,-1.136559 -4.546234,-1.604554c-2.339966,-0.735421 -4.613068,-1.604553 -7.019928,-2.20626c-2.339966,-0.601708 -4.746765,-1.002846 -7.153625,-1.337127c-2.674255,-0.401139 -5.415344,-0.534852 -8.0896,-0.802277c-1.738281,-0.200569 -3.476532,-0.401138 -5.147949,-0.467995c-2.540558,-0.133713 -5.147949,-0.133713 -7.688492,-0.200569c-1.270264,-0.066856 -2.607391,-0.200569 -3.87767,-0.133713c-1.938828,0.066857 -3.877655,0.267426 -5.816498,0.534851c-1.871979,0.200569 -3.743958,0.534851 -5.549088,0.802277c-2.206253,0.267426 -4.412521,0.401138 -6.618774,0.668564c-2.072556,0.267426 -4.21196,0.668564 -6.2845,1.002846c-0.735428,0.133713 -1.47084,0.401138 -2.206253,0.534851c-1.604568,0.334281 -3.27597,0.467995 -4.880524,1.002845c-2.874832,0.869133 -5.749649,1.871978 -8.557617,2.941681c-2.607407,1.069701 -5.147934,2.206261 -7.621628,3.543388c-2.540543,1.403984 -4.947372,3.075394 -7.354202,4.679947c-2.273117,1.537695 -4.546234,3.142248 -6.752487,4.880514c-2.139404,1.67141 -4.145096,3.54339 -6.083939,5.415369c-1.069702,1.0697 -1.938828,2.339973 -2.941681,3.543386c-1.671402,1.938837 -3.342819,3.810816 -4.947372,5.816507c-1.337128,1.67141 -2.540543,3.409672 -3.810822,5.147942c-2.273102,3.07539 -4.211945,6.351353 -6.017059,9.627316c-0.735428,1.337128 -1.403992,2.674255 -2.072556,4.011383c-1.002838,2.005692 -2.07254,3.944527 -3.00853,6.017075c-0.668564,1.40398 -1.203415,2.941681 -1.604553,4.479378c-0.935989,3.275963 -1.871979,6.618782 -2.741119,9.894745c-0.802277,2.941681 -1.002838,6.017075 -1.069702,9.025612c-0.066849,2.674248 0.200577,5.281654 0.468002,7.95591c0.066849,0.668564 -0.33429,1.470833 0.467987,2.005692c0.066864,0 0,0.267418 -0.066849,0.334282c-0.200577,0.401131 0,0.802269 0.401138,0.935982c0,0 0.066849,0.066864 0.066849,0.133713l-0.334274,0c-0.200577,0.601715 0.467987,1.069702 0.200562,1.738266c-0.066849,0.133713 0.200577,0.401146 0.33429,0.601707c0,0.200569 -0.066864,0.468002 0,0.668564c0.066849,0.601715 0.334274,1.203415 0.334274,1.871979c0,0.467995 0.401138,1.002846 0.534851,1.47084c0.066864,0.200569 0,0.534851 -0.133713,0.668564c-0.401138,0.468002 -0.334274,0.869133 0.267426,1.136566c0.133713,0.066849 0.33429,0.334282 0.33429,0.467995c0,0.401131 -0.133713,0.802269 -0.200577,1.203415c0.133713,0.133705 0.200577,0.267418 0.133713,0.401131c0,0.200569 -0.200562,0.401138 -0.133713,0.534851c0.534851,1.06971 0.735428,2.273117 0.802277,3.476532c0,0.267433 0.133713,0.534851 0.267426,0.869133c0.066864,0 0.267426,0 0.401138,0.066864c-0.133713,0.401131 -0.267426,0.802269 -0.401138,1.203407c0.33429,-0.200562 0.601715,-0.267426 0.935989,-0.401138c0.200577,0.869141 0.401138,1.67141 0.668564,2.40683c0.066864,0.13372 0.200577,0.267426 0.401138,0.401138c-0.066849,0.133713 -0.066849,0.401146 -0.200562,0.467995c0.267426,1.203415 0.401138,2.339973 0.869125,3.476532c0.066864,0 0.133713,-0.066856 0.200577,-0.066856c-0.200577,-1.203415 -0.33429,-2.473679 -0.534851,-3.677101l0,-0.066856l0,-0.334282s0.133713,-0.066849 0.200562,-0.066849c0.066864,0.267418 0.200577,0.6017 0.200577,0.802269c0.534851,0 1.337128,0.334282 1.871979,0.334282c0.066849,-0.200569 0.133713,-0.467987 0.200562,-0.601707c-0.401138,-0.401138 -0.735413,-1.002846 -1.136551,-1.403984c0.133713,0.534859 0,0.73542 0,0.935989c-0.267426,-0.133713 -0.601715,-0.267426 -0.935989,-0.401131c0.267426,-0.334282 0.534851,-0.668564 0.935989,-1.06971c0,-0.6017 -0.33429,-1.136559 -1.270279,-1.069702c0.401138,-0.133713 0.802277,-0.334282 1.270279,-0.467995c0.066849,0.200569 0.133713,0.401138 0.200562,0.534851c0.534851,-0.935982 -0.267426,-1.67141 -0.267426,-2.607391c0.066864,-1.136566 -0.6017,-2.273125 -0.802277,-3.47654c-0.334274,-1.871971 -0.267426,-4.679947 -0.467987,-6.551918c0,-0.13372 -0.200577,-0.267433 -0.33429,-0.401146c-0.066849,0.066864 -0.401138,0.935989 -0.467987,1.002846c0.200562,1.604553 0.401138,3.209114 0.534851,4.81366c-0.066864,0 -0.133713,0 -0.133713,0.066864c-0.267426,-1.403992 -0.534851,-2.874832 -0.869141,-4.479378c-0.066849,0.467995 -0.133713,0.668564 -0.133713,0.935982c-0.200562,-0.066856 -0.267426,-0.133705 -0.6017,-0.267418c0.267426,0.6017 0.534851,1.002846 0.735413,1.47084c-0.467987,-0.200577 -1.002838,-0.133713 -1.002838,-0.133713l0,1.871971c-0.668564,-0.668564 -0.869141,-1.203407 -1.203415,-1.67141c-0.133713,-0.534843 -0.200577,-1.069695 -0.33429,-1.604553c0,0 0.200577,-0.066856 0.200577,-0.066856c-0.066864,-0.267426 -0.200577,-0.467995 -0.200577,-0.668564c-0.066849,-0.467995 -0.133713,-1.002846 -0.200562,-1.604553c0.066849,-0.066856 0.334274,-0.133705 0.467987,-0.267418c-0.133713,-0.200569 -0.267426,-0.401146 -0.534851,-0.802284c0.534851,0.066856 0.869141,0.13372 1.203415,0.13372c0,-0.13372 0.066864,-0.200569 0,-0.267433c-0.668564,-0.6017 -0.200562,-1.136559 0.066864,-1.67141c0.133713,-0.267418 0.6017,-0.334282 0.735413,-0.6017c0.534851,-1.002846 1.403992,-1.805122 1.403992,-3.075401c0,-0.6017 0.200562,-1.270264 0.267426,-1.871979c0.133713,-1.136559 0.267426,-2.273117 0.334274,-3.409668c0.133713,-1.47084 0,-2.941681 0.33429,-4.345665c0.534836,-2.339973 1.203415,-4.679947 1.938828,-7.01992c0.534851,-1.67141 1.136566,-3.275963 1.80513,-4.947372c1.002838,-2.607399 1.938828,-5.214798 3.209091,-7.688484c1.80513,-3.610245 3.87767,-7.086777 5.883377,-10.630165c1.270264,-2.206264 2.607391,-4.278809 4.011368,-6.418213c1.337143,-2.072548 2.674255,-4.211952 4.21196,-6.150787c2.139404,-2.741112 4.479385,-5.281654 7.086777,-7.554771c2.674255,-2.40683 5.214798,-4.880516 8.089615,-7.086777c3.743958,-2.874823 7.688492,-5.415365 11.900436,-7.621626c3.409668,-1.805122 6.953064,-3.209105 10.49646,-4.546233c2.273117,-0.869134 4.746796,-1.270271 7.086761,-2.005692c2.674255,-0.869133 5.348511,-1.270272 8.156494,-1.337128c1.805115,-0.066856 3.543381,-0.267426 5.348511,-0.467995c1.604553,-0.133714 3.209106,-0.267426 4.947372,-0.467996c-0.200577,0.267426 -0.267426,0.401138 -0.334274,0.534851c-0.735443,1.069702 -1.537704,2.139405 -2.273132,3.209105c-0.6017,0.869133 -1.270279,1.805123 -1.871979,2.674254c-1.069702,1.403984 -2.206268,2.80797 -3.209106,4.278811c-1.537689,2.206261 -2.941681,4.479378 -4.546234,6.685638c-1.604553,2.139404 -3.342819,4.145096 -5.014221,6.217642c-2.206268,2.874825 -4.278809,5.816505 -6.485077,8.69133c-2.005692,2.741112 -4.145096,5.348511 -6.083923,8.089622c-1.738266,2.406834 -3.27597,4.947372 -4.947372,7.421059c-2.473694,3.677101 -4.947372,7.287346 -7.421066,10.964447c-1.938828,2.807968 -3.87767,5.54908 -5.883362,8.35704c-0.133713,0.200577 -0.334274,0.267433 -0.534851,0.401146c-0.133713,0.133713 -0.401138,0.267418 -0.401138,0.401138c-0.133713,0.467995 -0.133713,0.935989 -0.334274,1.337128c-0.534851,1.002846 -1.069702,2.005692 -1.671417,2.941681c-0.334274,0.534851 -0.802277,1.002846 -1.203415,1.537697c-0.133713,-0.066856 -0.200562,-0.133713 -0.334274,-0.133713c0.267426,-0.668564 1.403976,-1.069702 0.869125,-2.072548c-0.334274,0.534851 -0.668564,1.002846 -1.002838,1.537697c-0.267426,0.534851 -0.534851,1.069695 -0.802277,1.604553c0.267426,0.200569 0.735428,0.334282 0.267426,0.735413c-0.200577,0.334282 -0.401138,0.73542 -0.601715,1.069702c0.066864,0 0.066864,0.066856 0.133713,0.066856c0.200577,-0.267418 0.401138,-0.467995 0.601715,-0.73542c0.066849,0 0.133713,0.066864 0.200562,0.066864c-0.200562,0.668556 -0.6017,1.270271 -0.935989,1.871971c-0.26741,0.534859 -0.935989,0.935989 -1.403976,1.337128c0.066849,0.066864 0.534851,0.267426 0.6017,0.334282c0.200577,-0.267418 0.267426,-0.133705 0.468002,-0.401138c0.133713,0.200569 0.334274,-0.133713 0.401138,0.066856c0.200562,-0.267418 0.401138,-0.467987 0.467987,-0.668564c0.267426,-0.668564 0.668564,-1.203415 1.337128,-1.470833c0.267426,-0.133713 0.468002,-0.334282 0.668564,-0.534859c2.005692,-2.07254 4.078247,-4.078232 5.883362,-6.2845c2.807968,-3.409668 5.348511,-6.953056 8.022766,-10.429588c1.136566,-1.47084 2.473679,-2.941681 3.677094,-4.345665c0.133728,0.066856 0.267441,0.066856 0.33429,0.133713c-0.133713,1.403984 -0.267426,2.874825 -0.33429,4.278809c-0.200562,2.473686 -0.334274,4.947372 -0.534836,7.487915c-0.066864,1.002846 0,2.005692 -0.066864,3.008537c0,0.267426 -0.200562,0.467995 -0.200562,0.73542c0,0.668564 0.200562,1.403984 0.200562,2.072548c-0.200562,2.473686 -0.467987,4.880516 -0.668564,7.354195c-0.066849,0.534859 0.200577,1.06971 0.33429,1.537704c-0.066864,-0.066864 -0.133713,-0.133713 -0.33429,-0.267433c0,3.87767 0.735428,7.688484 0.133728,11.499306c0.26741,-0.066864 0.401123,-0.13372 0.401123,-0.267433c0.066864,-0.467995 0.200577,-0.935982 0.200577,-1.403976c0.066849,-0.401146 0,-0.802284 0,-1.270279l0,-0.668564c0.066849,-1.203415 0.334274,-2.473686 0.200562,-3.677101c-0.133713,-1.337128 -0.133713,-2.607391 0.133713,-3.87767c0.133713,-0.534843 -0.066849,-1.203407 0.267426,-1.871971l0,1.002846c-0.066849,3.810814 0.066864,7.62162 -0.467987,11.432434c-0.066864,0.334282 0.200562,0.935997 -0.534851,0.869133c-0.066864,0 -0.133713,0.334282 -0.267441,0.534859c-0.334274,0.668564 0.401154,1.537697 -0.26741,2.206261c-0.133728,0.133713 0.133713,0.735413 0.200562,1.136551c0,0.133713 0.066849,0.267426 0,0.334282c-0.267426,0.467995 -0.267426,0.467995 0.133713,0.534859c0.066864,1.470833 0.200577,2.807961 0.267426,4.211952l0.200577,0c0.869125,-2.540543 0.334274,-5.147949 0.802277,-7.755341c0.066849,1.069695 0.133713,2.139397 0.066849,3.275955c0,1.738266 -0.066849,3.409676 -0.133713,5.147942c0,0.334282 -0.066864,0.668564 -0.133713,1.002846c-0.200562,0.935989 -0.267426,1.871979 -0.6017,2.741112c-0.267426,0.668564 -0.133713,1.67141 -0.133713,2.473686l0,2.540543c0,0.066864 0.200562,0.267426 0.200562,0.534851c0.066864,0.601707 -0.267426,1.203423 -0.066849,1.871986c0.066849,0.133705 -0.066864,0.334282 -0.133713,0.467987c-0.066864,0.200577 -0.133713,0.401131 -0.066864,0.601707c0.066864,0.334282 0.133713,0.668564 0.200577,1.002846c0,0.066856 0.066849,0.133705 0.133713,0.267433c0.066849,-0.267433 0.066849,-0.46801 0.066849,-0.534859c1.136566,0.133713 0.534851,1.136559 1.069702,1.67141c-0.267426,0.133713 -0.467987,0.200577 -0.467987,0.267426c0.066849,0.267433 0.200562,0.467987 0.200562,0.73542c0,0.6017 -0.066849,1.136551 -0.133713,1.738266c0,1.537689 -0.066849,3.075394 -0.066849,4.546234c0,0.200562 0.066849,0.401138 0.066849,0.601715c0,0.133713 -0.066849,0.26741 -0.066849,0.467987l0,1.403976l0.267426,0c-0.133713,0.200577 -0.267426,0.401138 -0.468002,0.601715c-0.066849,0 -0.267426,0 -0.267426,-0.066864l0,-8.423889l-1.002838,0c-0.133713,4.011383 0.200562,7.621613 -0.534851,11.365585c-0.802277,0.066849 -1.069717,0.200562 -1.938843,0.200562c-2.072556,0 -4.145096,0 -6.217636,0.066849c-2.473694,0 -4.880524,0.066864 -7.354202,0.066864c-1.203415,0 -2.473694,0.133713 -3.677109,0.133713c-1.604553,0 -3.275955,-0.200577 -4.880508,-0.200577c-2.473694,0 -4.880524,0.200577 -7.354202,0.267426c-1.80513,0.066864 -3.610245,0.066864 -5.415375,0.133728c-1.203415,0.066849 -2.40683,0.133713 -3.610245,0.26741c-0.534851,0.066864 -1.002838,0.267426 -1.671402,0.468002c-0.200577,0 -0.668564,-0.066849 -1.069702,0c-0.668564,0.133713 -1.270279,0.534851 -1.938843,0.668564c-1.002838,0.200562 -1.270264,0.467987 -1.136551,1.47084l0,0.668564c-0.133713,-0.133713 -0.33429,-0.267426 -0.468002,-0.33429c-0.066849,0 -0.133713,0.066864 -0.133713,0.066864c0.066864,0.200577 0.200577,0.334274 0.267426,0.534851c0.267426,-0.133713 0.601715,-0.467987 0.869141,-0.467987l0.935989,0c-0.133713,0 -0.200577,0.401123 -0.401138,0.735413c0.534851,-0.200577 0.869125,-0.33429 1.203415,-0.468002c0.066849,0.200577 0.066849,0.468002 0.066849,0.534866c0.935989,-0.066864 1.80513,-0.33429 2.607407,-0.133713c2.607391,0.668564 5.281647,0.935974 7.955917,1.2034c1.738251,0.133728 3.409668,0.200577 5.147934,0.267441c2.473679,0.133698 4.947372,0.26741 7.421051,0.26741c2.072556,0 4.078247,-0.200562 6.150787,-0.200562c2.874832,0 5.749649,0.133713 8.624481,0.200562c0.6017,0 1.270264,-0.066849 1.938828,-0.066849l4.880508,0c4.345673,-0.133713 8.691345,-0.200562 13.037003,-0.334274c2.473694,-0.066864 5.014221,-0.200577 7.487915,-0.267441c2.540527,-0.066849 5.081085,-0.133713 7.621628,-0.200562c2.941681,-0.066849 5.883362,-0.066849 8.758194,-0.133713c2.206268,0 4.345657,-0.066849 6.551926,-0.133713c2.473679,-0.066864 5.014221,-0.267426 7.487915,-0.401138c1.337128,-0.066849 2.674255,-0.200562 4.011383,-0.33429c1.604553,-0.133713 3.27597,-0.334274 4.880493,-0.401123c2.40686,-0.133713 4.880554,-0.200577 7.287354,-0.33429c3.008545,-0.200577 6.01709,-0.467987 9.092468,-0.534851c2.807983,-0.133713 5.6828,-0.066864 8.490784,-0.133713c2.473663,-0.066864 4.947357,-0.200577 7.487915,-0.267426c1.403961,-0.066849 2.807953,-0.133713 4.211914,-0.200562s2.807983,-0.066864 4.211975,-0.200577c2.40683,-0.133713 4.81366,-0.401138 7.22049,-0.467987c1.537689,-0.066864 3.075409,0 4.613068,-0.066864c2.473694,-0.066864 5.014252,-0.200577 7.487946,-0.200577c0.935974,0 1.938812,0.133713 3.142242,0.200577c-0.534851,0.467987 -0.869141,0.735428 -1.270294,1.069702c0.267426,0.066849 0.534851,0.200562 0.802307,0.33429c0,0.066849 -0.066864,0.133713 -0.066864,0.26741c-0.33429,0 -0.668579,0.066864 -1.002869,0.066864c-0.133698,0.33429 -0.267395,0.468002 -0.401123,1.136566l1.2034,0c-0.467987,0 -0.86911,0.6017 -1.337128,1.002838c0.066864,0.066849 0.133728,0.066849 0.200592,0.133713c-0.735443,-0.267426 -1.20343,-0.133713 -1.470856,0.6017c0.200592,0.066864 0.33429,0.066864 0.534851,0.066864c-0.066833,0.200577 -0.133698,0.401138 -0.200562,0.668564c-0.066864,0.133713 -0.133698,0.267426 -0.133698,0.467987l-0.200592,-0.200562c0,-0.133713 0,-0.267426 -0.066864,-0.401138c-0.401093,0.401138 -1.002838,0.668564 -0.668549,1.537704c-0.267426,0.133713 -0.601715,0.26741 -0.935974,0.467987c0.066833,0.133713 0.200562,0.267426 0.267395,0.467987c-0.601685,0.066864 -1.2034,0.200577 -1.069672,0.935989c0.267426,0.066864 0.534821,0.200577 0.735382,0.267426c-0.334259,0.133713 -0.668549,0.33429 -1.002838,0.468002c-0.066833,0.133713 -0.133698,0.467987 -0.267426,0.534851c-0.935974,0.200577 -0.401123,0.534851 -0.133667,0.869141c-0.200592,0.133698 -0.401184,0.26741 -0.601746,0.334274c0.200562,0.066849 0.33429,0.133713 0.468018,0.267426c-0.200562,0.133713 -0.33429,0.200562 -0.468018,0.267426c0.133728,0.066849 0.33429,0.200562 0.401154,0.200562c-0.267426,0.200577 -0.601715,0.468002 -1.002838,0.802277c0,0.133728 0,0.200577 0.066833,0.33429c-0.267395,0.267426 -0.534851,0.534851 -0.802277,0.935989s-0.401123,0.935989 -0.735413,1.337128c-1.403961,1.537704 -2.40683,3.342819 -4.211945,4.546234c-0.668579,0.467987 -1.270294,1.069702 -1.871979,1.671417c-1.2034,1.136551 -2.273102,2.406815 -3.543396,3.476517c-1.671387,1.403976 -3.409668,2.674255 -5.214813,3.944534c-2.206238,1.537689 -4.412506,3.075378 -6.618774,4.546234c-1.2034,0.802277 -2.540527,1.403976 -3.810791,2.139404s-2.473694,1.403976 -3.743958,2.139389c-0.802277,0.534866 -1.537689,1.270279 -2.40686,1.671417c-2.206238,0.935989 -4.546204,1.738266 -6.819336,2.607391c-0.200562,0.066864 -0.33429,0.133728 -0.534851,0.200577c-1.671387,0.735428 -3.27594,1.537689 -4.947357,2.139404c-1.537689,0.534851 -3.142242,0.936005 -4.746796,1.270279c-0.534851,0.133698 -1.136566,0 -1.738281,0.066849c-1.136566,0.200577 -2.273132,0.468002 -3.409668,0.601715c-2.941681,0.401123 -5.883362,0.668564 -8.825043,1.069687c-1.738281,0.200577 -3.409683,0.534866 -5.147949,0.735428c-1.2034,0.066864 -2.473694,-0.066864 -3.677094,-0.066864c-0.869141,0 -1.80513,0.200577 -2.674255,0.066864c-1.403992,-0.200562 -2.807983,-0.534851 -4.211945,-0.802261c-0.33429,-0.066864 -0.802292,-0.200592 -1.069717,-0.066864c-0.534851,0.267426 -1.002853,-0.133728 -1.537704,0c-0.334274,0.066864 -0.668549,-0.200577 -1.002838,-0.200577c-0.267426,-0.066849 -0.6017,0.066849 -0.935989,0c-0.735413,-0.200562 -1.403976,-0.467987 -2.206268,-0.401123s-1.604538,-0.33429 -2.473679,-0.534866c-1.203415,-0.267426 -2.339966,-0.534851 -3.543396,-0.802261c-0.467987,-0.133728 -0.869125,-0.33429 -1.337128,-0.60173c-0.133698,0.066864 -0.334274,0.200577 -0.601715,0.200577c-1.136551,-0.200577 -2.273102,-0.26741 -3.342804,-0.668564c-0.935989,-0.334274 -1.805115,-0.802277 -2.807968,-0.668564c-0.267426,0.066864 -0.468002,-0.066849 -0.735413,-0.066849c-0.200577,-0.267426 -0.401138,-0.802292 -0.601715,-0.802292c-1.337128,0.066864 -2.139404,-1.069687 -3.275955,-1.403961c-0.601715,-0.200592 -1.069702,-0.869156 -1.671417,-1.069717c-1.47084,-0.6017 -2.674255,-1.871979 -4.345673,-2.07254c-0.534851,-0.066864 -1.069687,-0.33429 -1.671402,-0.534851c0.200562,0.267426 0.334274,0.467987 0.534851,0.668564c-0.066864,0.066849 -0.133713,0.133698 -0.133713,0.133698c-1.805115,-1.069702 -3.610245,-2.139389 -5.415375,-3.142227c-0.267426,-0.066864 -0.467987,-0.33429 -0.668549,-0.468002c-0.601715,-0.401154 -1.203415,-0.802292 -1.80513,-1.203415c-0.200562,-0.133713 -0.6017,-0.334274 -0.6017,-0.267441c-0.401154,0.468002 -0.802277,0.066864 -1.069717,-0.066833c-1.805115,-1.270294 -3.87767,-2.072556 -5.615921,-3.476547c-0.735428,-0.6017 -1.604553,-1.002838 -2.139404,-1.738251c-0.935989,-1.136566 -2.072556,-1.938843 -3.342834,-2.607407c-1.002838,-0.534851 -1.938828,-1.136566 -2.874817,-1.738266c-0.467987,-0.334274 -0.935989,-0.735428 -0.935989,-1.47084c0,-0.468002 -0.200577,-0.935989 -0.802277,-0.668564c-0.267426,-0.401138 -0.534851,-0.869125 -0.869125,-1.002853c-0.802277,-0.334274 -1.337128,-0.935989 -1.938843,-1.47084s-1.069702,-1.270264 -1.805115,-1.537689c-1.337128,-0.534851 -2.139404,-1.671417 -2.941681,-2.607407c-1.871979,-2.206253 -3.543396,-4.613083 -5.281662,-6.953049c-0.133713,-0.200577 -0.401138,-0.33429 -0.6017,-0.534851c0,0 -0.066864,0.066849 -0.066864,0.066849c0.33429,0.668564 0.668564,1.270279 1.002853,1.938843c-0.066864,0.066849 -0.200577,0.133698 -0.267441,0.200562c-0.401123,-0.468002 -0.869125,-0.935989 -1.270264,-1.403992c-0.066849,0.066864 -0.133713,0.133713 -0.200562,0.133713c1.604553,2.540543 3.209106,5.0811 4.813644,7.621643c0.401154,0.6017 0.735428,1.2034 1.136566,1.805115c-0.066849,0.066849 -0.133713,0.133713 -0.267426,0.200577c-0.735413,-0.133728 -1.403976,-0.668564 -1.738266,-1.270279c-0.6017,-1.069702 -1.270264,-1.738266 -2.607391,-1.604553c-0.133713,-0.467987 -0.267426,-1.002838 -0.33429,-1.47084c-0.267426,0 -0.467987,0 -0.935989,-0.066864c0.935989,1.47084 1.738266,2.741119 2.607407,4.21196c-0.33429,-0.200577 -0.534851,-0.334274 -0.668564,-0.401138c1.203415,1.270279 2.07254,2.874817 3.610245,3.677094c0.334274,1.537704 2.07254,2.273132 2.473679,3.743973c-0.334274,-0.066864 -0.6017,-0.133713 -0.935989,-0.200577c-0.534851,-0.668564 -1.136551,-1.337128 -1.738266,-2.072556c0.133713,0.468002 0.33429,0.869141 0.601715,1.203415c0.802261,1.002853 1.537689,2.005692 2.473679,2.874832c0.33429,0.334274 0.802277,0.467987 0.802277,1.069702c0.133713,-0.133713 0.267426,-0.200562 0.534851,-0.334274c-0.133713,0.26741 -0.200562,0.401123 -0.267426,0.6017c0.267426,0 0.468002,0.066864 0.668564,0.066864c0.133713,0.401123 -0.066849,1.002838 0.735428,0.869125c0.066849,0 0.133698,0.066849 0.200562,0.133713c0.33429,0.869141 0.869141,0.869141 1.604553,0.534851c0.133713,-0.066849 0.468002,0 0.534851,0.133698c0.33429,0.735428 0.802277,0.802292 1.403992,0.267426c0,0.33429 0.066849,0.668564 0.066849,0.936005l0.267426,0c0,-0.133713 -0.066849,-0.334274 -0.066849,-0.668564c0.334274,0.267426 0.534851,0.401123 0.668549,0.534851c0.668579,0.935974 1.270279,1.80513 2.206268,2.540527c1.270279,1.069702 2.40683,2.206268 3.610245,3.209122c2.339981,1.938828 4.947372,3.543381 7.554764,5.014221c3.209122,1.805115 6.284515,3.743973 9.560471,5.482224c3.944534,2.07254 8.156479,3.476532 12.502151,4.479385c1.604553,0.334274 3.142242,0.668564 4.746796,1.069702c1.403992,0.401138 2.807968,1.002838 4.211945,1.337128c2.139404,0.467987 4.345673,0.869125 6.485077,1.270264c0.467987,0.066864 0.935989,0.133728 1.470825,0.200562l0,0.133728c0.601715,0 1.337128,-0.267426 1.470856,-0.066864c0.33429,0.534866 0.6017,0.267426 1.002838,0.200577c0.467987,-0.133713 1.002853,-0.133713 1.537689,-0.133713c1.871994,0.066849 3.677109,0.468002 5.549088,0.334274c0.401138,0 1.002838,-0.334274 1.337128,0.33429c0.133713,-0.066864 0.200577,-0.133728 0.334274,-0.200562c0.267426,-0.066864 0.601715,-0.066864 0.869141,-0.133728l0,0.133728c-0.133713,0.066833 -0.267426,0.066833 -0.534851,0.133698c0.33429,0.066864 0.534851,0.133713 0.735413,0.200577c-0.133698,0.133698 -0.200562,0.133698 -0.334274,0.200562s-0.334274,0.133728 -0.601715,0.33429c2.406845,0.468002 4.679947,0.534836 6.685654,0l0,-0.401154l0.267426,0c0,0.133728 0.066833,0.267426 0.133698,0.401154c3.075409,0.26741 6.083954,-0.133728 8.958771,-1.136566c0.267426,0.334274 0.467987,0.802277 0.86911,0.133713c0.133728,-0.200562 0.468018,-0.267426 0.735443,-0.334274c0.601685,-0.133728 1.337128,-0.401154 1.871979,-0.200562c0.601715,0.200562 0.802277,-0.33429 1.270264,-0.33429c0.802277,0 1.537689,-0.066864 2.273102,-0.200577c0.401154,-0.066864 0.802307,-0.267426 1.270294,-0.401138c0,-0.066849 0,-0.133713 -0.066864,-0.200562c-0.467987,-0.066864 -1.002869,-0.133728 -1.403992,-0.133728c0.802277,-0.401123 1.537689,-0.735397 2.273132,-1.069687c0,0.066849 0.066833,0.066849 0.066833,0.133698c-0.200562,0.066864 -0.334259,0.33429 -0.601685,0.33429l0.935974,0c-0.200562,0 -0.467987,0.6017 -0.802277,1.002838c2.40683,-0.6017 4.613098,-1.136536 6.752502,-1.671402l0,-0.133698c-0.267426,0.066833 -0.467987,0.066833 -0.668549,0.133698c-0.066864,-1.403992 1.470825,-0.935989 2.005676,-1.738266c-0.668579,0.200577 -1.337128,0.401138 -2.005676,0.534851l0,-0.133713c2.273102,-1.002853 4.613068,-2.005692 6.8862,-3.008545c0,0.066864 0.066833,0.066864 0.066833,0.133728c-0.401123,0.267426 -0.802246,0.467987 -1.403961,0.802261c0.401123,0.066864 0.668549,0.066864 0.869141,0.133728c0,0.200562 0,0.334274 -0.066864,0.401138c1.136566,-0.066864 0.86911,-1.069702 1.2034,-1.671417c0.200562,0.066864 0.467987,0.200562 0.668579,0.133713c0.601685,-0.133713 1.136536,-0.33429 1.738251,-0.534851c0.668549,-0.200562 1.337128,-0.401138 2.005707,-0.668564c1.069702,-0.468002 2.07254,-1.069702 3.142242,-1.604553c0.200562,-0.066849 0.534821,0 0.802277,0c0.200562,0 0.33429,-0.133713 0.467987,-0.26741c0.267426,-0.200592 0.534851,-0.60173 0.735443,-0.534866c0.935974,0.133713 1.604553,-0.200562 1.871948,-1.069702c0.066864,0 0.066864,-0.066849 0.133728,-0.066849c0.33429,-0.267441 0.668579,-0.534866 1.002838,-0.735428c1.470825,-0.802277 2.874817,-1.604538 4.345673,-2.40683c0.066833,-0.066864 0.200562,0 0.33429,0c0.200562,0 0.467987,0 0.601685,-0.066864c0.869141,-0.401138 1.671417,-0.869125 2.473694,-1.337128c-0.200562,-0.066849 0,-0.133698 -0.668579,-0.200562l0,-0.133713c0.668579,-0.133698 0.869141,-0.200562 1.270294,-0.33429l-0.133728,-0.133698c1.738281,-1.738266 3.94455,-3.00853 5.615967,-4.479385c0.334259,0.066864 0.467957,0.133728 0.668549,0.133728c0.066833,-0.200592 0.066833,-0.401154 0.066833,-0.534866c0.267456,-0.33429 0.534882,-0.735428 0.869141,-1.002853c1.470825,-1.337128 3.075409,-2.473663 4.412537,-3.877655c1.938843,-1.938843 3.810822,-3.944534 5.549072,-6.017075c1.604553,-1.871979 3.209106,-3.743958 4.546234,-5.816498c1.872009,-2.874832 3.476563,-5.816513 5.147949,-8.825058c1.20343,-2.139404 2.273102,-4.278793 3.476532,-6.418198c0.133728,-0.200577 0.401154,-0.468002 0.601715,-0.468002c1.805115,-0.200562 3.610229,-0.334274 5.348511,-0.534851c0.401123,-0.066864 0.869141,-0.334274 1.270264,-0.534851c-0.200592,-0.334274 -0.334259,-0.735428 -0.534851,-1.069702c-0.267426,-0.401138 -0.668549,-0.735413 -0.936005,-1.136566c-0.267426,-0.334274 -0.467957,-0.735413 -0.668549,-1.136551c-0.200562,-0.334274 -0.401154,-0.6017 -0.601715,-0.935989c-0.401123,-0.735413 -0.802277,-1.47084 -1.136566,-2.273117c-0.066833,-0.200577 -0.200531,-0.534851 -0.133698,-0.735413c1.2034,-2.607407 1.671417,-5.415375 2.807983,-8.022766c1.136536,-2.674255 1.470825,-5.682793 2.005676,-8.557617c0.468018,-2.741119 0.735413,-5.482224 1.069702,-8.223343c0.200562,-1.938835 0.468018,-3.810806 0.534851,-5.749649c0.401123,-3.075386 0.267426,-5.950211 0.200592,-8.825043zm-168.07695,74.611725c-0.468002,-0.534851 -0.869141,-1.136566 -1.337128,-1.671402c0.066849,-0.066864 0.133713,-0.133728 0.200562,-0.200577c0.735428,0.802277 1.47084,1.604553 2.206268,2.473679c-0.401138,-0.200562 -0.869141,-0.334274 -1.069702,-0.6017zm1.069702,0.6017c0.200577,-0.066864 0.401138,-0.066864 0.6017,-0.133713c0.200577,0.33429 0.33429,0.735413 0.534851,1.136566c-0.935974,-0.066864 -1.403976,-0.468002 -1.136551,-1.002853zm69.53064,27.611679l0,-0.200562c1.270264,-0.133713 2.473679,-0.267426 3.743942,-0.401138l0,0.200577c-1.270264,0.200562 -2.473679,0.33429 -3.743942,0.401123zm16.847794,-1.738251c-0.935974,0.200562 -1.938843,0.33429 -2.874817,0.467987c-0.33429,0.066864 -0.735443,0.401138 -0.869141,-0.200562c-0.133698,0.066864 -0.267426,0.066864 -0.401123,0.133698c0.33429,1.002853 1.136566,0.200577 1.805115,0.60173c-1.470825,0.200562 -2.874817,0.334274 -4.278809,0.534836l0,-0.133713c0.401123,-0.066849 0.869141,-0.133713 1.270264,-0.200562l0,-0.200562c-0.668549,-0.066864 -1.337128,-0.133728 -2.005676,-0.133728c-0.200562,0 -0.468018,0.267426 -0.668579,0.33429c-0.267426,0.066849 -0.534851,0.133713 -0.869141,0.133713c-1.136536,0.066849 -2.273102,0.066849 -3.342804,0.133698c-0.066864,0 -0.200592,-0.066849 -0.267426,-0.066849l0,-0.200562c4.47937,-0.601715 8.891876,-1.203415 13.371277,-1.80513c0.066833,0.133713 0.066833,0.267441 0.133728,0.401138c-0.401154,0 -0.668579,0.133713 -1.002869,0.200577zm1.002869,-0.668564c1.537689,-0.200577 2.94165,-0.334274 4.412506,-0.534866c-3.075378,0.869156 -4.078247,1.002853 -4.412506,0.534866zm-58.231918,-134.983032c2.139404,-2.941681 4.345673,-5.883358 6.485062,-8.891895c0.668564,-0.869133 1.20343,-1.805126 1.871979,-2.674255c0.200562,-0.267426 0.467987,-0.401142 0.802277,-0.668564c0,0 -0.066864,-0.133717 -0.066864,-0.133717c0.267441,-0.334282 0.534851,-0.601707 0.668564,-0.869129c0.33429,-0.534851 0.534866,-1.136562 0.802292,-1.73827c0.066849,-0.133709 0.26741,-0.267422 0.26741,-0.267422c0.935989,0.467995 0.935989,-0.534851 1.270279,-0.869133c0.601715,-0.668564 1.203415,-1.403984 1.738266,-2.072548c0.401138,-0.534851 0.802277,-1.002846 1.136566,-1.604553c0.066849,-0.200569 -0.133728,-0.534851 -0.200577,-0.802277l-0.200562,0c0.200562,-0.133713 0.401138,-0.334282 0.6017,-0.467995c0.066849,0 0.066849,0 0.133713,-0.066856c0.401138,-0.601707 0.802277,-1.203415 1.203415,-1.738266c0.802277,-1.069702 1.671417,-2.139404 2.607407,-3.075394c-0.133728,0.334282 -0.267426,0.668564 -0.401154,0.935989c0.066864,0 0.066864,0.066856 0.133728,0.066856c0.802261,-1.069702 1.671402,-2.072548 2.473679,-3.14225c-0.066849,-0.066856 -0.133713,-0.133713 -0.200562,-0.133713c-0.33429,0.334282 -0.601715,0.668564 -0.936005,1.002846c-0.066849,-0.066856 -0.133713,-0.133713 -0.200562,-0.133713c0.668564,-0.869133 1.337128,-1.738264 2.005692,-2.74111c0.133713,0.200569 0.267426,0.467995 0.534851,1.002846c0.267426,-0.668564 0.534851,-1.136559 0.735428,-1.604555c-0.200577,0.200569 -0.468002,0.40114 -0.668564,0.601709l-0.200577,-0.200569c0.401138,-0.601707 0.802277,-1.203417 1.203415,-1.805122c1.270279,-1.805122 2.540543,-3.677101 3.810822,-5.482224c0.468002,-0.668564 1.069702,-1.203415 1.47084,-1.871979c1.270264,-2.540543 3.275955,-4.546234 4.813644,-6.886208c0.33429,-0.467994 0.802277,-0.869132 1.20343,-1.27027c0.33429,-0.401138 0.6017,-0.267426 0.869125,0.066856c1.80513,2.273117 3.610245,4.61309 5.415359,6.886207c1.337128,1.671412 2.674271,3.275963 3.944519,5.014229c1.53772,2.139402 3.008545,4.278807 4.546265,6.418213c1.738251,2.473684 3.476501,4.947371 5.147919,7.487913c2.540558,3.743958 4.947388,7.487915 7.487915,11.231873c1.871979,2.741108 3.743958,5.415363 5.549103,8.156475l-3.409698,0c-3.142242,-0.066856 -6.351349,-0.334282 -9.493591,-0.200565c-4.278809,0.200565 -8.624481,0.668564 -12.90329,1.002846c-5.415359,0.467991 -10.897583,0.534847 -16.312958,0.534847c-1.938843,0 -3.87767,0.267426 -5.816498,0.401138c-2.339966,0.133717 -4.613098,0.267426 -6.953064,0.334282c-2.741119,0.133717 -5.415359,0.200569 -8.156494,0.267426c-1.537674,0.066856 -3.142242,0 -4.813644,0zm76.68425,30.753937l0,0.601707c-0.066833,0 -0.133698,0.066856 -0.267395,0.066856c-0.267456,-0.935989 -0.534851,-1.938835 -0.869141,-2.874832c-0.668579,-1.938828 -1.403992,-3.877663 -2.607422,-5.615929c-1.337097,-1.871979 -2.540527,-3.810814 -3.877655,-5.749649c-0.33429,-0.467995 -0.802277,-0.869133 -1.2034,-1.270271c-1.403992,-1.537697 -2.807983,-3.14225 -4.613098,-4.278809c-2.674255,-1.67141 -5.415375,-3.075394 -8.357056,-4.278809c-0.802277,-0.334282 -1.537689,-0.73542 -2.339966,-1.203415l1.604553,0c3.810791,-0.066856 7.621613,-0.133713 11.432434,-0.200569c2.473694,-0.066856 4.880493,-0.066856 7.354187,-0.200569c0.601715,0 0.936005,0.200569 1.270294,0.73542c0.601715,1.002846 1.2034,2.005692 1.871979,3.008537c0.066833,0.133713 0.200562,0.334282 0.200562,0.534851c0,1.47084 0,3.008537 0.066833,4.479378c0.066895,1.537697 0.200592,3.008537 0.267456,4.546234c0,1.537697 -0.133728,3.14225 -0.066864,4.746803c0.066864,2.273117 0.133698,4.613091 0.133698,6.953064zm-71.937454,-22.396889c3.142258,-0.133713 6.150787,-0.334282 9.226181,-0.467995c2.40683,-0.133713 4.880524,-0.200569 7.287354,-0.334282c1.002838,-0.066856 1.938828,-0.133713 2.941666,0c-1.069687,0.534851 -2.139389,1.069702 -3.075378,1.738266c-1.20343,0.802277 -2.339981,1.871979 -3.543396,2.741112s-2.273117,1.938835 -3.275955,3.075394c-1.270264,1.537697 -2.674255,2.874825 -4.011383,4.345665c-0.935989,1.069702 -2.005692,2.072548 -2.807983,3.209106c-1.136536,1.47084 -2.139389,3.075394 -3.209106,4.746803c0.33429,-6.351357 0.735443,-12.635857 0.468002,-19.05407zm43.657211,64.315834c-2.139374,0.534851 -4.345657,1.136551 -6.55191,1.403992c-1.871994,0.26741 -3.810822,0.200562 -5.749664,0.200562c-1.738266,0 -3.409668,-0.066849 -5.147934,-0.200562c-1.938828,-0.200577 -3.87767,-0.401154 -5.749649,-1.270279c-1.604553,-0.735413 -3.27597,-1.403976 -4.880508,-2.206253s-3.209106,-1.738266 -4.412521,-3.209106c-0.869141,-1.06971 -2.072556,-1.938843 -3.142258,-2.874832c0.200577,0.802277 0.668564,1.47084 1.403992,1.938835c-0.33429,0.401138 -0.802277,0.200569 -1.47084,-0.869125c-0.200577,0.133713 -0.401138,0.200562 -0.534851,0.267418c0.200562,-0.467987 0.401123,-0.935982 0.6017,-1.337128c-0.267426,-0.534851 -0.6017,-1.136551 -0.869125,-1.67141c-0.534851,-0.869133 -1.069717,-1.805115 -1.537689,-2.674255c-0.133728,-0.200569 -0.133728,-0.401138 -0.267441,-0.6017c-0.33429,-0.401146 -0.668564,-0.802284 -0.935989,-1.203415c-0.534851,-0.802277 -1.002838,-1.67141 -1.671417,-2.473686c0,0.200562 0.066864,0.401131 0.066864,0.668564c-0.066864,0 -0.133713,0.066849 -0.133713,0.066849c-0.467987,-1.136559 -0.935989,-2.273109 -1.403976,-3.409668c-0.066864,0 -0.066864,0 -0.133728,0.066849c0.401154,1.47084 0.802292,2.941689 1.20343,4.412529c-0.066864,0 -0.133713,0.066849 -0.200577,0.066849c-0.200562,-0.267426 -0.401138,-0.534843 -0.534836,-0.869125c-0.133728,-0.534851 -0.534866,-0.534851 -0.869141,-0.334282c-0.200562,0.133713 -0.33429,0.6017 -0.267426,0.802277c0.468002,1.136551 1.002838,2.273109 1.537689,3.409668c0.133713,0.401138 0.267426,0.73542 0.468002,1.136566c0.066864,0.133713 0.26741,0.267418 0.26741,0.467995c0.267426,0.534851 0.468018,1.069695 0.802292,1.537697c0.6017,0.802277 1.270279,1.604546 1.871979,2.406822s1.136551,1.67141 1.671402,2.473686c0.066864,0.133713 0.267426,0.133713 0.33429,0.200562c0.334274,1.002853 1.47084,1.738281 2.273102,1.337128c0.200577,1.537704 1.871994,2.072556 2.540558,3.543396c-0.802277,-0.334274 -1.403992,-0.6017 -1.938843,-0.869141c-0.066849,0.066864 -0.066849,0.133713 -0.133713,0.267441c0.802277,0.401123 1.604553,0.802277 2.339981,1.270264c0.668549,0.401138 1.337128,0.802277 1.938828,1.270264c0.802277,0.735428 1.738266,1.136566 2.874832,1.403992c-0.066864,-0.200577 -0.133713,-0.267426 -0.133713,-0.267426c1.871964,0.869125 3.810806,1.80513 5.281662,2.540543c-6.953064,0.133713 -14.374146,0.267426 -22.062622,0.401138c0,-1.270264 -0.066864,-2.473679 -0.066864,-3.743958c0,-0.534851 0.133728,-1.002853 0.066864,-1.537689c-0.200562,-3.075394 -0.200562,-6.150803 -0.6017,-9.159332c-0.401138,-3.209099 -0.401138,-6.351357 -0.334274,-9.560455c0.066849,-1.738274 -0.066864,-3.543388 -0.133728,-5.281662c0,-2.339973 0,-4.613083 0.066864,-6.953056c0,-0.334282 0.133713,-0.601715 0.26741,-0.935997l0.200577,0c0.066864,0.13372 0,0.334282 0.133713,0.401146c0.200577,0.200569 0.534866,0.534851 0.668564,0.467987c0.401138,-0.267418 1.002853,-0.534851 1.136566,-0.935982c0.33429,-0.802277 0.467987,-1.67141 0.467987,-2.473686c0,-0.601715 0.267441,-1.002846 0.534866,-1.403984c0.133713,-0.200577 0.200546,-0.401146 0.334274,-0.668564c-0.267426,-0.200577 -0.534851,-0.334282 -0.869141,-0.601707c0.267441,-0.73542 0.200577,-1.604561 1.203415,-2.005692c0.133713,-0.066856 0.133713,-0.401138 0.200577,-0.601715c0.066849,-0.534851 0.133713,-1.136551 0.200562,-1.67141c0.133713,0.200577 0.200562,0.267433 0.33429,0.401146c0.066864,-0.133713 0.133698,-0.200569 0.133698,-0.200569c0,-0.267426 -0.066833,-0.802277 0,-0.802277c0.802292,-0.133713 0.468018,-1.002846 0.869156,-1.403992c0.066849,-0.066849 -0.066864,-0.267418 -0.066864,-0.401131s0,-0.334282 0.066864,-0.334282c0.935989,-0.200569 0.802261,-1.203415 1.403976,-1.67141c0.200577,-0.13372 0.267426,-0.334282 0.534851,-0.668564c0.534851,0.935989 -0.401138,1.403976 -0.468002,2.07254c1.136566,-0.668564 1.470856,-2.273109 0.802277,-2.741104c0.267426,-0.200569 0.534851,-0.468002 0.735428,-0.73542c0.735413,-0.802277 1.537689,-1.537704 2.206253,-2.339973c0.468002,-0.601707 0.735428,-1.337128 1.203415,-1.938835c0.267441,-0.334282 0.802277,-0.601707 1.20343,-0.802277c1.2034,-0.668564 2.339966,-1.403992 3.075378,-2.540543c0.133713,-0.133713 0.33429,-0.267426 0.534851,-0.401138s0.6017,-0.13372 0.668564,-0.334282c0.066849,-0.13372 -0.133713,-0.468002 -0.267426,-0.668564c0.267426,-0.13372 0.534851,-0.401138 1.069717,-0.668564c-0.200592,0.401138 -0.267441,0.668564 -0.401154,0.935989l0.33429,0.334282c0.6017,-0.467995 1.537689,-1.002846 2.139404,-1.403992c0,-0.066849 -0.33429,-0.334282 -0.33429,-0.334282c-0.401123,0.200577 -1.002838,0.534859 -1.604553,0.802284c0.133713,-0.200569 0.133713,-0.334282 0.200577,-0.401138c0.935989,-0.601707 1.871979,-1.203415 2.874832,-1.67141c2.339966,-1.06971 4.679932,-2.139404 7.019913,-3.14225c0.401138,-0.200569 0.935974,-0.066856 1.403976,-0.066856c0.200562,0 0.33429,0 0.534851,-0.066856c1.069717,-0.334282 2.139404,-0.668564 3.209106,-0.935989c0.467987,-0.133713 1.002838,-0.200569 1.47084,-0.200569c2.005692,0.066856 4.011383,0.066856 6.017075,0.200569c0.869141,0.066856 1.671417,0.267426 2.473694,0.534851c1.002838,0.334282 2.07254,0.802277 3.008514,1.270271c1.136566,0.601707 2.206268,1.270271 3.27597,2.005692c1.938843,1.270271 3.743958,2.674255 5.6828,3.810814c1.871979,1.136559 3.342834,2.674255 4.546234,4.412521c1.470825,2.07254 3.142273,3.944527 3.810822,6.485069c0.33429,1.47084 0.668549,2.941673 1.002838,4.412514c0.200562,0.802284 0.668549,1.604561 0.467987,2.540543c-0.334259,1.67141 -0.601715,3.409683 -0.86911,5.081093c-0.133728,0.668564 -0.267426,1.337128 -0.200592,2.005692c0.133728,2.07254 -0.668549,3.87767 -1.470856,5.749641c-0.267395,0.601715 -0.668549,1.203415 -1.002808,1.871979c0.066833,0.066864 0.467957,0.267433 0.534851,0.267433c0.200562,-0.401146 0.401123,-0.802284 0.601685,-1.203415c0.066864,0 0.066864,0 0.133728,0.066849c-0.33429,0.935997 -0.601715,1.938843 -0.936005,2.874825c-0.802277,2.072556 -1.604553,4.211952 -2.607391,6.217644c-0.534851,1.136559 -1.470856,2.072556 -2.139404,3.14225c-0.668579,0.935997 -1.20343,1.938843 -1.871979,2.807968c-0.601715,0.73542 -1.2034,1.470848 -2.005707,2.005692c-1.805115,1.337128 -3.677094,2.674255 -5.615906,3.743958c-1.20343,0.735428 -2.607422,1.136551 -3.94455,1.47084zm-35.634445,-3.543396s-0.066849,0.066864 -0.066849,0.066864c-0.133713,-0.066864 -0.33429,-0.133713 -0.468002,-0.267426c-0.534851,-0.802277 -1.069702,-1.604553 -1.604538,-2.40683c-0.133728,-0.200569 -0.200577,-0.401138 -0.133728,-0.668564c0.735428,1.136559 1.470856,2.206268 2.273117,3.275955zm41.584671,9.159332c3.008545,-1.270279 5.482239,-3.075394 7.755341,-5.147949c0.33429,-0.334274 0.668549,-0.668564 1.069702,-0.935974c2.807953,-1.738281 4.880524,-4.145096 6.752472,-6.819351c2.139404,-3.075401 3.543396,-6.551933 5.281677,-9.827888c0.133698,-0.267433 0.267426,-0.534851 0.401123,-0.735428c-0.133698,7.621628 0.735443,15.10955 1.738281,22.664314c-7.554779,0.267426 -15.243256,0.534851 -22.998596,0.802277zm67.792358,-2.005692c-0.066833,0.133713 -0.200562,0.267426 -0.267426,0.401138c-0.066833,-0.133713 -0.066833,-0.33429 -0.133698,-0.6017c-0.401154,1.069687 -1.270294,0.534851 -1.872009,0.534851c-3.610199,0.066849 -7.287323,0.066849 -10.897552,0.066849c-3.476532,0 -7.019928,0 -10.49646,0.066864c-1.136566,0 -2.339966,0.26741 -3.476532,0.334274c-2.741089,0.133713 -5.482239,0.200577 -8.223328,0.267426c-0.200562,0 -0.401123,-0.33429 -0.735413,-0.6017c-0.066895,0.133713 -0.200592,0.334274 -0.401154,0.6017c-0.066864,-0.133713 -0.200562,-0.267426 -0.33429,-0.467987c-0.066864,0.200562 -0.133698,0.401138 -0.200562,0.534851l-0.200562,0c-0.133698,-0.936005 -0.401154,-1.80513 -0.401154,-2.741119c0,-2.005692 0.200592,-4.011383 0.267456,-6.017075c0.066833,-0.935989 0,-1.805122 0,-2.674255c0.267395,0.200569 0.467957,0.334282 0.735413,0.534851c0.133698,-0.267418 0.267395,-0.467987 0.401123,-0.668564c0,0 -0.133728,-0.066856 -0.267426,-0.200569c0.133698,-0.066849 0.267426,-0.200569 0.267426,-0.267418c0.066833,-0.200577 0.200562,-0.401146 0.200562,-0.534859c0,-0.467987 -0.133728,-0.869133 -0.200562,-1.270264c0.066833,0 0.133728,0 0.200562,-0.066864c0.133728,0.668564 0.267456,1.337128 0.401123,2.005692l0.200592,0c-0.267426,-0.467987 0.601685,-0.869133 -0.133698,-1.403984c-0.066895,-0.066849 0.066833,-0.467995 0.066833,-0.668564c-0.200562,-0.401131 -0.33429,-0.802277 -0.534851,-1.337128c0.066864,-0.066849 0.267456,-0.133713 0.468018,-0.200562c-0.267456,-0.13372 -0.468018,-0.267433 -0.668579,-0.334282c0.668579,-0.601715 0.668579,-0.935997 0.066833,-1.604561c0.133728,-0.066849 0.267456,-0.066849 0.267456,-0.133713c0,-0.6017 0,-1.203415 -0.133728,-1.805115c-0.133728,-0.668564 0.200562,-1.47084 -0.802277,-1.871986c0.066864,0.200577 0.133728,0.334282 0.267426,0.534859c0,0 -0.200562,0.066849 -0.401123,0.200569c-0.869141,-0.802284 -0.33429,-1.871979 -0.534882,-3.075401c0.468018,0.133713 0.802307,0.267426 1.136566,0.401146c-0.133698,-0.468002 -0.467987,-1.002846 -0.668549,-1.604561l-0.267426,0l0,-4.412514c0,0.066849 0.467987,0.066849 0.735413,0.133713c0,-0.066864 0.066864,-0.133713 0.066864,-0.200577c-0.200562,-0.267418 -0.467987,-0.534851 -0.735413,-0.869133c0,0 0.066833,-0.066849 0.133698,-0.133713c-0.534851,-0.668564 -0.267395,-1.604546 -0.267395,-1.805115l0,-4.679947c0.668549,0.668564 -0.33429,1.537697 0.668549,1.938828l0,-0.668564l-0.066864,0c-0.066864,-1.002846 -0.066864,-2.005692 -0.133728,-3.008537l-0.133698,0c-0.066864,0.133713 -0.066864,0.200577 -0.133728,0.334282l-0.133698,0c0.133698,-5.281647 0.267426,-10.563309 0.401123,-15.978676c0.668579,0.869141 1.403992,1.67141 1.872009,2.54055c1.537659,2.807968 3.543365,5.21479 5.415344,7.755333c1.604553,2.206268 3.075409,4.613098 4.546234,6.886215c1.805145,2.741112 3.543396,5.482216 5.348511,8.223335c1.337128,2.07254 2.741119,4.145088 4.145111,6.15078c1.270264,1.805122 2.607391,3.543396 3.944519,5.281654c1.136566,1.537697 2.339966,3.075394 3.476532,4.613098c1.337128,1.871979 2.674255,3.743942 4.011383,5.549072c0.668579,0.935989 1.403992,1.871979 2.139404,2.807968c0.401123,0.534851 1.002838,0.935989 1.403992,1.270264c-0.066895,0 -0.133728,0 -0.267426,-0.066849c0.200531,0.267426 0.334259,0.468002 0.467987,0.601715c0.735413,0.401138 0.802246,0.802261 0.401123,1.403976zm3.409668,-16.714088l0,-0.468002c0,0.13372 0.066895,0.334282 0,0.468002zm2.273132,-29.483665c-0.066833,0 -0.467987,-0.401146 -0.534851,-0.467995c-0.066864,0.200569 0,0.401131 -0.133728,0.668564c-0.066833,-0.200569 -0.534851,-0.133713 -0.534851,-0.334282c-0.066833,0.935982 0.401154,1.871979 0.33429,2.807968c0.200562,-0.133713 1.002869,-0.200577 1.20343,-0.401146c0.066864,0.066864 0.200562,0.13372 0.267426,0.13372c-1.337128,1.002846 -1.002838,2.005692 -0.401154,3.14225c0.133728,0.267418 0.534851,0.802277 0.133728,1.337128c-0.133728,0.133713 0.066864,0.534851 0.133728,0.869133l0.200562,0l0,0.133713c-0.200562,0.066849 -0.401123,0.133713 -0.601715,0.200569c-0.133698,-0.200569 -0.936005,-0.601715 -0.936005,-0.935997l0,3.409683c0.668579,0.200569 0.668579,1.136559 0.936005,1.604546c0.133698,-0.200569 0.200592,-0.334282 0.267426,-0.534851l0.066864,0.066864c-0.066864,0.401138 -0.133698,0.802269 -0.267426,1.203415c-0.133728,0.6017 -0.267456,1.136559 -0.33429,1.738258c0,0.066864 0.133728,0.200569 0.133728,0.267433c-0.735443,1.67141 -0.33429,3.543388 -0.601746,5.281647c-0.200562,1.270279 0,2.607407 -0.133698,3.944534c-0.133698,1.136559 -0.401154,2.339973 -0.668579,3.476532c-0.066833,0.200569 -0.200562,0.267418 -0.534821,0.401131c0.133698,-0.802277 0.066833,-1.337128 -0.066864,-2.07254c-0.066864,0 -0.936005,-0.467995 -1.002838,-0.467995c0,0.935982 0.534851,2.206253 0.735413,3.275955c-0.200562,-0.066856 -1.002869,-0.534851 -1.069702,-0.534851c-0.133698,0.802277 -0.133698,1.871979 -0.200562,2.741119c-0.066864,0.668564 -0.668579,1.270264 -0.735443,2.005692c0,0.401131 0.468018,0.668564 0.401123,1.337128l0.534882,0c0,-1.337128 0.601685,-2.54055 0.601685,-3.944534l0.200562,0c0.066895,0.13372 0.267456,0.267433 0.200623,0.334282c-0.133728,0.73542 -0.401184,1.537697 -0.33429,2.273125c0,0.401131 0.33429,0.802269 0.200562,1.270264c-0.133728,0.401146 -0.200562,0.802277 -0.267456,1.403992c-0.066833,-0.334282 -0.133698,-0.467995 -0.133698,-0.668564c-0.066864,0 -0.668549,-0.066864 -0.735413,-0.066864c-0.066833,0.401146 0.467987,0.802277 0.401123,1.136559c-0.066864,0.066856 -0.133698,0.066856 -0.267395,0.13372c-0.735443,-1.06971 -1.470886,-2.139412 -2.206268,-3.209106c-1.738281,-2.54055 -3.476563,-5.081093 -5.214813,-7.688484c-0.467987,-0.668564 -0.86911,-1.337128 -1.20343,-2.005692c-2.07254,-3.543396 -4.345642,-6.953072 -6.8862,-10.229027c-1.938843,-2.473686 -3.476501,-5.147942 -5.281647,-7.755348c-1.671417,-2.473686 -3.342804,-4.880508 -5.014221,-7.354202c-0.601715,-0.802277 -1.337128,-1.537689 -1.871979,-2.406822c-1.738281,-2.741112 -3.27597,-5.54908 -5.014221,-8.290192c-1.470856,-2.273117 -3.075409,-4.479378 -4.613098,-6.685638c-0.534851,-0.73542 -1.069702,-1.537697 -1.604553,-2.339973c-0.066864,-0.133713 -0.133728,-0.267426 -0.133728,-0.467995c-0.133698,-1.47084 -0.267426,-2.941681 -0.334259,-4.345665c0,-1.337132 0.133698,-2.674259 0.133698,-4.078239l0,-1.203411c0,-0.334282 0.066864,-0.601711 0.066864,-0.935993c0.066864,-0.066853 0.133698,-0.200569 0.200562,-0.267426c-1.938812,0 -3.944519,-0.066856 -5.883362,0c-1.270264,0.066856 -1.938843,-0.467991 -2.807953,-1.403984c-2.540558,-2.874825 -4.412537,-6.150787 -6.618805,-9.226181c-2.07254,-2.941681 -4.211945,-5.816502 -6.351349,-8.69133c-1.738251,-2.339973 -3.476501,-4.613087 -5.214783,-6.95306c-1.938843,-2.674255 -3.810822,-5.348511 -5.816528,-8.022766c-2.406799,-3.209106 -4.880493,-6.418213 -7.354187,-9.627319c-1.136551,-1.47084 -2.40683,-2.874824 -3.677094,-4.41252c0.869141,0.133714 1.671417,0.267426 2.473679,0.334282c1.069717,0.066856 2.139389,0.133714 3.209122,0.200569c2.40683,0.200569 4.813629,0.334282 7.22049,0.668564c2.005676,0.267426 4.011383,0.668565 6.083923,1.002847c4.412506,0.735418 8.758179,1.938835 12.970154,3.342819c2.473663,0.802276 4.880493,1.871977 7.287323,2.874823c5.415375,2.206259 10.563324,4.880518 15.644379,7.688482c1.604553,0.869135 2.540558,2.273119 3.743958,3.54339c1.738281,1.80512 3.476563,3.610245 5.147949,5.482224c1.938843,2.206261 3.743958,4.479378 5.615967,6.752495c1.671387,2.005692 3.409668,4.011383 5.081055,6.017075c0.534851,0.601707 0.935974,1.337128 1.403961,2.005692c1.069733,1.604553 2.273132,3.142246 3.209137,4.880516c0.668549,1.270267 1.069702,2.741112 1.537689,4.145092c0.668579,2.072548 1.337128,4.078239 2.005707,6.150787c0.467987,1.537697 0.869141,3.14225 1.20343,4.746803c0.267395,1.069702 0.200562,2.206261 0.534821,3.275963c0.401123,1.403984 0,2.941681 0.401123,4.345665c0.066895,0.133713 0.133728,0.334282 0.200592,0.467995c0.267395,0.267426 0.467987,0.534851 0.066833,0.935989c-0.066833,0.066856 -0.066833,0.334282 0,0.534851c0.133728,-0.133713 0.200562,-0.267426 0.33429,-0.467995c0,0.133713 0.066864,0.200569 0.066864,0.267426c0,0.267426 -0.066864,0.534851 0,0.802277c0,0.133713 0.133698,0.334282 0.200562,0.467995c0.133728,-0.133713 0.267426,-0.200569 0.534882,-0.401138c0.601685,2.273117 0.668549,4.546234 0.668549,6.886208c0,2.206261 0.401123,4.412514 -0.534851,6.551926c0.200592,-0.73542 -0.267426,-1.403984 -0.066864,-2.072548z" fill="#DD3735" id="svg_9"/>
   <path stroke="null" d="m296.89975,116.731239c0.066864,0 0.133698,0.066864 0.133698,0.066864l-0.066833,-0.066864c0,-0.066856 0,-0.066856 -0.066864,0z" fill="#DD3735" id="svg_10"/>
   <path stroke="null" d="m307.463043,182.785339c-0.735413,0.534836 -1.470825,1.002838 -2.40683,1.2034c-0.066833,-0.066833 -0.066833,-0.133698 -0.133698,-0.200562c0.735413,-0.468002 1.537689,-0.935989 2.273102,-1.403992c0.066864,0.133728 0.200562,0.267426 0.267426,0.401154z" fill="#DD3735" id="svg_11"/>
   <path stroke="null" d="m182.107346,92.194939c0.735413,-0.935982 1.47084,-1.871979 2.273117,-2.807961c0.066849,0.066849 0.6017,0.200569 0.668564,0.267418c-0.735428,0.935997 -1.738266,2.206261 -2.473694,3.209106c-0.133713,-0.133705 -0.334274,-0.6017 -0.467987,-0.668564z" fill="#DD3735" id="svg_12"/>
   <path stroke="null" d="m163.120132,124.954567c-0.534851,-1.136559 -1.069702,-2.339973 -1.604553,-3.476532c0.066849,-0.066856 0.534851,-0.267426 0.6017,-0.267426c0.735428,1.069702 1.069702,2.339966 1.604553,3.47654c0,0 -0.534836,0.267418 -0.6017,0.267418z" fill="#DD3735" id="svg_13"/>
   <path stroke="null" d="m180.168503,92.863503c-0.401123,0.601707 -0.802277,1.270271 -1.203415,1.871986c-0.066849,-0.066864 -0.802277,0.267418 -0.869125,0.200569c0.401138,-0.601715 1.403976,-1.67141 1.80513,-2.273125c0.066849,0.066864 0.133698,0.133713 0.26741,0.200569z" fill="#DD3735" id="svg_14"/>
   <path stroke="null" d="m300.309418,185.526443c0.066864,0 0.066864,-0.066849 0.133698,-0.066849c0.468018,0.066849 1.002869,0.133713 1.53772,0.133713c-0.869141,0.6017 -1.403992,0.534851 -1.671417,-0.066864z" fill="#DD3735" id="svg_15"/>
   <path stroke="null" d="m180.435928,96.072617z" fill="#DD3735" id="svg_16"/>
   <path stroke="null" d="m180.302216,95.671478c0.066864,-0.200569 0.200577,-0.401138 0.33429,-0.6017c0.133713,0 0.334274,-0.066864 0.334274,-0.066864c0.267426,-0.467987 0.267426,-0.802269 0.534851,-1.203415c-0.066849,-0.066849 -0.133713,-0.066849 -0.200562,-0.133713c-0.401138,0.267426 -0.802277,0.601707 -1.203415,0.869141c0.133713,0.133705 0.133713,0.200569 0.133713,0.334282c-0.534851,-0.066864 -0.735428,0.200569 -1.002853,0.935982c-0.066849,0.200569 -0.401138,0.267433 -0.735413,0.534851c-0.066864,0.133713 -0.133713,0.467995 -0.267426,0.802277l0.066849,0.066864c-0.133713,0.133705 -0.334274,0.200569 -0.334274,0.200569c-0.401138,0.401131 -0.869141,0.735413 -1.270279,1.136559c-0.066849,0.200569 -0.133713,0.401131 -0.133713,0.6017c0.468002,-0.467995 1.270279,-1.337128 1.871979,-1.871979l0.066864,0.066856c0.267426,-0.401138 0.467987,-0.802269 0.735413,-1.203415c0.066864,0.066864 0.066864,0.133713 0.133713,0.200569c-0.200562,0.534859 -0.401138,1.136559 -0.6017,1.67141c-0.133713,0.066864 -0.33429,0.200577 -0.33429,0.133713c-0.267426,0.200569 -0.467987,0.467995 -0.735413,0.668564c-0.401138,0.267433 -0.802292,0.534851 -1.203415,0.802277c-0.668564,0.601715 -1.337128,1.136566 -2.072556,1.738266c-0.467987,0.735428 -0.935989,1.403992 -1.47084,2.273117c0.802277,-0.200562 1.002853,0.13372 0.935989,0.802284c0.935989,0.133713 1.002853,-0.601715 1.270279,-1.136566c0.066849,-0.133713 0.133713,-0.401131 0.267426,-0.467995c0.6017,-0.534851 1.270264,-1.002846 1.938828,-1.537697c0.133713,-0.133713 0.133713,-0.401131 0.133713,-0.601707c0,-0.066856 -0.334274,-0.066856 -0.534851,-0.133705c0.601715,-0.668564 1.47084,-1.805122 2.072556,-2.54055c0.334274,-0.200569 0.668564,-0.467987 0.668564,-0.668564c-0.066864,-0.73542 0.401138,-0.935982 0.935989,-1.203415c-0.267426,-0.200569 -0.33429,-0.401131 -0.33429,-0.467995z" fill="#DD3735" id="svg_17"/>
   <path stroke="null" d="m181.639343,94.936058c-0.267426,0.467995 -0.534851,0.869133 -0.802277,1.337128c-0.133713,-0.066864 -0.267426,-0.133713 -0.401138,-0.200569c-0.267426,1.537697 -1.203415,2.874825 -2.139404,3.142242c0.267426,0.13372 0.534851,0.267433 0.735428,0.200577s0.334274,-0.401138 0.467987,-0.601707c0.601715,-0.869133 1.203415,-1.738266 1.80513,-2.607407c0.200562,-0.334282 0.401138,-0.668564 0.6017,-1.002846l-0.267426,-0.267418z" fill="#DD3735" id="svg_18"/>
   <path stroke="null" d="m159.376175,124.286003c0.334274,0 0.668564,0.066864 1.069702,0.066864c0,-0.267433 0.334274,-0.200577 0.334274,-0.46801l0.200577,0c0,0.334282 0.066849,0.601715 0.066849,0.935997l-1.403976,0c-0.066864,-0.066856 -0.33429,-0.467987 -0.267426,-0.534851l0,0z" fill="#DD3735" id="svg_19"/>
   <path stroke="null" d="m158.841324,121.210617c-0.200577,-0.200569 -0.534851,-0.401146 -0.534851,-0.601707c-0.066849,-0.267426 0.133713,-0.601707 0.334274,-0.935989c0.133713,0.467987 0.200577,0.869133 0.33429,1.337128c-0.066849,0.066856 -0.133713,0.133705 -0.133713,0.200569z" fill="#DD3735" id="svg_20"/>
   <path stroke="null" d="m160.512726,116.931801c0.267426,0.668564 0.534851,1.403992 0.802277,2.072556c-0.066849,0 -0.467987,0.200562 -0.534851,0.267418c-0.267426,-0.668564 -0.6017,-1.403984 -0.869125,-2.072548c0.066849,-0.066856 0.468002,-0.267426 0.6017,-0.267426l0,0z" fill="#DD3735" id="svg_21"/>
   <path stroke="null" d="m309.335052,180.846497c0.334259,-0.133713 0.735413,-0.200562 1.270233,-0.334274c-0.601685,0.468002 -1.069702,0.802277 -1.470825,1.2034c-0.066833,-0.066833 -0.133728,-0.133698 -0.200562,-0.133698c0.133728,-0.267426 0.267426,-0.468002 0.401154,-0.735428z" fill="#DD3735" id="svg_22"/>
   <path stroke="null" d="m227.168533,39.578976c0.401138,-0.267426 0.735428,-0.467995 1.136566,-0.735416l0.133713,0.133709c-0.401138,0.534851 -0.735413,1.069702 -1.203415,1.738266c-0.066864,-0.467995 -0.066864,-0.73542 -0.133713,-1.069702c-0.066864,0 0,0 0.066849,-0.066856z" fill="#DD3735" id="svg_23"/>
   <path stroke="null" d="m246.757462,73.408302c0.6017,-0.267426 1.203415,-0.534851 1.938828,-0.869133c-0.066849,0.401146 -0.066849,0.668564 -0.066849,0.935989c-0.200562,-0.066856 -0.468002,-0.133705 -0.668564,-0.133705c-0.401138,0.066849 -1.136566,0.601707 -1.47084,0.668564c-0.066849,0 0.267426,-0.534859 0.267426,-0.601715z" fill="#DD3735" id="svg_24"/>
   <path stroke="null" d="m296.89975,130.102524c0.133698,0.668564 1.403961,1.002838 0.133698,1.671402c0.200562,0.133713 0.401154,0.200577 0.601715,0.334274c0,0.066864 -0.066864,0.200577 -0.133728,0.267426c-0.133698,0.066864 -0.401123,0.200577 -0.534821,0.133728c-0.066864,0 -0.200592,-0.267441 -0.200592,-0.401154c0,-0.6017 0.066864,-1.203415 0.133728,-2.005676z" fill="#DD3735" id="svg_25"/>
  </g>
 </g>
</svg>