<svg xmlns="http://www.w3.org/2000/svg" width="500" height="200" viewBox="0 0 499.99998 199.99999"><defs><clipPath id="a"><path d="M0 600h600V0H0v600z"/></clipPath></defs><path d="M13.3675 114.333l-7.3008 15.476 18.4938-3.1136 16.1582 3.796 20.441-2.142-6.7167-15.1836-15.574 1.4604-12.0693-3.4084-13.4322 3.1153z" fill="#fff" fill-rule="evenodd"/><path d="M6.0668 129.8087l35.4242.669 5.892-11.6587-26.774.628-14.542 10.3617z" fill="#edeced" fill-rule="evenodd"/><g clip-path="url(#a)" transform="matrix(.95447 0 0 -.95447 -37.195 373.192)"><path d="M45.3252 254.9932c12.28-.222 24.56-.443 36.84-.665 2.068 4.061 4.137 8.123 6.205 12.186-9.27-.22-18.539-.443-27.809-.665-5.079-3.618-10.157-7.238-15.236-10.856" fill="#ecebeb" fill-rule="evenodd"/><path d="M45.3252 254.9932c12.189-.209 24.377-.42 36.565-.627 2.08 4.052 4.158 8.102 6.238 12.152-9.189-.223-18.378-.444-27.567-.669-5.079-3.618-10.157-7.238-15.236-10.856" fill="#ebeaea" fill-rule="evenodd"/><path d="M45.3252 254.9932c12.097-.198 24.193-.394 36.291-.589 2.089 4.04 4.18 8.079 6.27 12.118-9.109-.222-18.217-.448-27.325-.673-5.079-3.618-10.157-7.238-15.236-10.856" fill="#eaeae9" fill-rule="evenodd"/><path d="M45.3252 254.9932c12.006-.186 24.011-.369 36.017-.551 2.1 4.028 4.201 8.058 6.301 12.087-9.027-.226-18.054-.454-27.082-.68-5.079-3.618-10.157-7.238-15.236-10.856" fill="#e9e8e8" fill-rule="evenodd"/><path d="M45.3252 254.9932c11.914-.171 23.829-.343 35.743-.514 2.111 4.02 4.222 8.036 6.334 12.054-8.947-.227-17.894-.456-26.841-.684-5.079-3.618-10.157-7.238-15.236-10.856" fill="#e8e7e7" fill-rule="evenodd"/><path d="M45.3252 254.9932c11.823-.16 23.646-.316 35.468-.476 2.122 4.008 4.244 8.015 6.367 12.022-8.867-.23-17.733-.459-26.599-.69-5.079-3.618-10.157-7.238-15.236-10.856" fill="#e7e7e7" fill-rule="evenodd"/><path d="M45.3252 254.9932c11.731-.147 23.463-.292 35.194-.437 2.133 3.995 4.266 7.992 6.399 11.987-8.785-.23-17.572-.461-26.357-.694-5.079-3.618-10.157-7.238-15.236-10.856" fill="#e6e6e5" fill-rule="evenodd"/><path d="M45.3252 254.9932c11.64-.134 23.279-.267 34.92-.399 2.143 3.985 4.287 7.97 6.43 11.953-8.705-.232-17.409-.464-26.114-.698-5.079-3.618-10.157-7.238-15.236-10.856" fill="#e5e5e4" fill-rule="evenodd"/><path d="M45.3252 254.9932c11.548-.121 23.097-.241 34.645-.361 2.155 3.973 4.31 7.948 6.464 11.922-8.624-.235-17.249-.471-25.873-.705-5.079-3.618-10.157-7.238-15.236-10.856" fill="#e4e4e3" fill-rule="evenodd"/><path d="M45.3252 254.9932c11.458-.109 22.914-.216 34.371-.323 2.165 3.963 4.33 7.924 6.496 11.889-8.544-.236-17.087-.473-25.631-.71-5.079-3.618-10.157-7.238-15.236-10.856" fill="#e3e2e2" fill-rule="evenodd"/><path d="M45.3252 254.9932c11.366-.097 22.731-.192 34.097-.286 2.176 3.952 4.352 7.905 6.528 11.855-8.463-.236-16.926-.474-25.389-.713-5.079-3.618-10.157-7.238-15.236-10.856" fill="#e2e2e1" fill-rule="evenodd"/><path d="M45.3252 254.9932c11.275-.083 22.548-.166 33.822-.248 2.187 3.94 4.374 7.881 6.56 11.822-8.382-.238-16.763-.477-25.146-.718-5.079-3.618-10.157-7.238-15.236-10.856" fill="#e1e1e1" fill-rule="evenodd"/><path d="M45.3252 254.9932c11.183-.071 22.365-.142 33.548-.209 2.197 3.93 4.395 7.858 6.593 11.789-8.301-.241-16.603-.481-24.905-.724-5.079-3.618-10.157-7.238-15.236-10.856" fill="#e0e0e0" fill-rule="evenodd"/><path d="M45.3252 254.9932c11.091-.059 22.183-.115 33.274-.171 2.208 3.918 4.416 7.836 6.624 11.755-8.22-.242-16.441-.483-24.662-.728-5.079-3.618-10.157-7.238-15.236-10.856" fill="#dededd" fill-rule="evenodd"/><path d="M45.3252 254.9932c11-.046 22-.089 32.999-.136 2.22 3.909 4.439 7.818 6.658 11.726-8.141-.243-16.281-.489-24.421-.734-5.079-3.618-10.157-7.238-15.236-10.856" fill="#dddddc" fill-rule="evenodd"/><path d="M45.3252 254.9932c10.909-.032 21.816-.064 32.726-.097 2.229 3.899 4.459 7.795 6.689 11.693-8.06-.247-16.12-.493-24.179-.74-5.079-3.618-10.157-7.238-15.236-10.856" fill="#dcdcdb" fill-rule="evenodd"/><path d="M45.3252 254.9932c10.817-.021 21.634-.04 32.451-.059 2.24 3.886 4.481 7.773 6.722 11.66-7.979-.248-15.958-.496-23.937-.745-5.079-3.618-10.157-7.238-15.236-10.856" fill="#dbdbda" fill-rule="evenodd"/><path d="M45.3252 254.9932c10.726-.008 21.452-.014 32.177-.021 2.251 3.877 4.503 7.751 6.754 11.625-7.898-.248-15.796-.498-23.695-.748-5.079-3.618-10.157-7.238-15.236-10.856" fill="#dadad9" fill-rule="evenodd"/><path d="M45.3252 254.9932c10.634.004 21.269.012 31.902.019 2.263 3.864 4.525 7.728 6.787 11.591-7.817-.252-15.635-.502-23.453-.754-5.079-3.618-10.157-7.238-15.236-10.856" fill="#d9d9d8" fill-rule="evenodd"/><path d="M45.3252 254.9932c10.543.019 21.085.036 31.628.054 2.274 3.854 4.545 7.709 6.819 11.56-7.738-.252-15.474-.504-23.211-.758-5.079-3.618-10.157-7.238-15.236-10.856" fill="#d8d8d7" fill-rule="evenodd"/><path d="M45.3252 254.9932c10.452.03 20.903.062 31.354.092 2.284 3.843 4.568 7.687 6.851 11.528-7.656-.254-15.313-.51-22.969-.764-5.079-3.618-10.157-7.238-15.236-10.856" fill="#d6d6d6" fill-rule="evenodd"/><path d="M45.3252 254.9932c10.359.042 20.72.086 31.08.131 2.295 3.832 4.588 7.664 6.883 11.495-7.575-.258-15.151-.513-22.727-.77-5.079-3.618-10.157-7.238-15.236-10.856" fill="#d5d5d5" fill-rule="evenodd"/><path d="M45.3252 254.9932c10.268.054 20.537.112 30.806.169 2.304 3.819 4.61 7.64 6.915 11.462-7.495-.258-14.991-.517-22.485-.775-5.079-3.618-10.157-7.238-15.236-10.856" fill="#d5d5d4" fill-rule="evenodd"/><path d="M45.3252 254.9932c10.177.067 20.354.137 30.531.207 2.317 3.808 4.632 7.618 6.948 11.43-7.415-.263-14.829-.521-22.243-.781-5.079-3.618-10.157-7.238-15.236-10.856" fill="#d4d4d3" fill-rule="evenodd"/><path d="M45.3252 254.9932c10.086.08 20.171.163 30.256.244 2.328 3.8 4.655 7.597 6.981 11.397-7.333-.262-14.668-.522-22.001-.785-5.079-3.618-10.157-7.238-15.236-10.856" fill="#d3d3d3" fill-rule="evenodd"/><path d="M45.3252 254.9932c9.995.092 19.988.187 29.983.281 2.337 3.788 4.675 7.576 7.012 11.364-7.253-.262-14.506-.524-21.759-.789-5.079-3.618-10.157-7.238-15.236-10.856" fill="#d2d2d2" fill-rule="evenodd"/><path d="M45.3252 254.9932c9.902.106 19.806.214 29.708.319 2.349 3.779 4.697 7.554 7.045 11.332-7.172-.264-14.345-.53-21.517-.795-5.079-3.618-10.157-7.238-15.236-10.856" fill="#d1d1d1" fill-rule="evenodd"/><path d="M45.3252 254.9932c9.812.118 19.623.238 29.434.358 2.359 3.766 4.718 7.532 7.078 11.296-7.092-.265-14.184-.532-21.276-.798-5.079-3.618-10.157-7.238-15.236-10.856" fill="#d0d0cf" fill-rule="evenodd"/><path d="M45.3252 254.9932c9.72.131 19.439.264 29.16.396 2.37 3.755 4.739 7.509 7.109 11.264-7.011-.267-14.022-.535-21.033-.804-5.079-3.618-10.157-7.238-15.236-10.856" fill="#cfcfcf" fill-rule="evenodd"/><path d="M45.3252 254.9932c9.628.145 19.257.287 28.886.434 2.38 3.744 4.76 7.488 7.141 11.231-6.93-.268-13.86-.538-20.791-.809-5.079-3.618-10.157-7.238-15.236-10.856" fill="#cececd" fill-rule="evenodd"/><path d="M45.3252 254.9932c9.537.157 19.074.313 28.611.472 2.392 3.732 4.783 7.465 7.174 11.199-6.849-.272-13.699-.542-20.549-.815-5.079-3.618-10.157-7.238-15.236-10.856" fill="#cdcccc" fill-rule="evenodd"/><path d="M45.3252 254.9932c9.445.169 18.891.34 28.337.51 2.402 3.722 4.804 7.444 7.206 11.165-6.769-.272-13.538-.544-20.307-.819-5.079-3.618-10.157-7.238-15.236-10.856" fill="#cccbcb" fill-rule="evenodd"/><path d="M45.3252 254.9932c9.354.182 18.708.364 28.062.548 2.414 3.711 4.827 7.422 7.239 11.131-6.688-.272-13.376-.548-20.065-.823-5.079-3.618-10.157-7.238-15.236-10.856" fill="#cbcaca" fill-rule="evenodd"/><path d="M45.3252 254.9932c9.263.193 18.525.391 27.789.586 2.423 3.699 4.847 7.4 7.271 11.099-6.608-.277-13.216-.552-19.824-.829-5.079-3.618-10.157-7.238-15.236-10.856" fill="#cac9c9" fill-rule="evenodd"/><path d="M45.3252 254.9932c9.171.207 18.343.415 27.514.624 2.434 3.689 4.869 7.376 7.303 11.065-6.526-.276-13.054-.554-19.581-.833-5.079-3.618-10.157-7.238-15.236-10.856" fill="#c8c8c8" fill-rule="evenodd"/><path d="M45.3252 254.9932c9.08.22 18.16.441 27.24.661 2.445 3.678 4.89 7.358 7.336 11.034-6.447-.28-12.893-.557-19.34-.839-5.079-3.618-10.157-7.238-15.236-10.856" fill="#c8c8c8" fill-rule="evenodd"/><path d="M45.3252 254.9932c8.988.231 17.978.466 26.965.699 2.456 3.666 4.912 7.333 7.368 11-6.365-.28-12.731-.56-19.097-.843-5.079-3.618-10.157-7.238-15.236-10.856" fill="#c6c6c6" fill-rule="evenodd"/><path d="M45.3252 254.9932c8.897.244 17.794.491 26.691.737 2.467 3.658 4.934 7.311 7.4 10.966-6.285-.282-12.57-.564-18.855-.847-5.079-3.618-10.157-7.238-15.236-10.856" fill="#c6c5c5" fill-rule="evenodd"/><path d="M45.3252 254.9932c8.806.258 17.611.515 26.417.775 2.478 3.645 4.955 7.289 7.432 10.934-6.203-.282-12.409-.568-18.613-.853-5.079-3.618-10.157-7.238-15.236-10.856" fill="#c5c4c4" fill-rule="evenodd"/><path d="M45.3252 254.9932c8.714.271 17.429.542 26.143.812 2.488 3.636 4.977 7.268 7.464 10.904-6.123-.286-12.248-.573-18.371-.86-5.079-3.618-10.157-7.238-15.236-10.856" fill="#c4c3c3" fill-rule="evenodd"/><path d="M45.3252 254.9932c8.623.281 17.246.565 25.869.85 2.498 3.623 4.998 7.247 7.496 10.869-6.043-.286-12.086-.573-18.129-.863-5.079-3.618-10.157-7.238-15.236-10.856" fill="#c1c1c1" fill-rule="evenodd"/><path d="M45.3252 254.9932c8.532.296 17.063.592 25.594.889 2.51 3.612 5.02 7.223 7.53 10.836-5.963-.287-11.925-.579-17.888-.869-5.079-3.618-10.157-7.238-15.236-10.856" fill="silver" fill-rule="evenodd"/><path d="M45.3252 254.9932c8.44.308 16.88.616 25.32.927 2.521 3.601 5.041 7.202 7.562 10.802-5.882-.29-11.764-.581-17.646-.873-5.079-3.618-10.157-7.238-15.236-10.856" fill="#bfbfbf" fill-rule="evenodd"/><path d="M45.3252 254.9932c8.349.319 16.697.643 25.046.965 2.531 3.59 5.062 7.181 7.594 10.77-5.802-.292-11.603-.587-17.404-.879-5.079-3.618-10.157-7.238-15.236-10.856" fill="#bfbebe" fill-rule="evenodd"/><path d="M45.3252 254.9932c8.257.332 16.515.667 24.771 1.001 2.542 3.58 5.084 7.16 7.626 10.738-5.72-.294-11.441-.588-17.161-.883-5.079-3.618-10.157-7.238-15.236-10.856" fill="#bebdbd" fill-rule="evenodd"/><path d="M45.3252 254.9932c8.166.346 16.331.693 24.498 1.039 2.552 3.57 5.105 7.139 7.658 10.704-5.64-.294-11.28-.59-16.92-.887-5.079-3.618-10.157-7.238-15.236-10.856" fill="#bdbcbc" fill-rule="evenodd"/><path d="M45.3252 254.9932c8.075.358 16.148.719 24.223 1.077 2.563 3.559 5.128 7.117 7.691 10.672-5.56-.296-11.119-.594-16.678-.893-5.079-3.618-10.157-7.238-15.236-10.856" fill="#bbbbbc" fill-rule="evenodd"/><path d="M45.3252 254.9932c7.982.37 15.966.743 23.949 1.116 2.574 3.546 5.148 7.092 7.723 10.64-5.479-.3-10.958-.599-16.436-.9-5.079-3.618-10.157-7.238-15.236-10.856" fill="#bababb" fill-rule="evenodd"/><path d="M45.3252 254.9932c7.892.383 15.783.767 23.674 1.154 2.586 3.535 5.171 7.07 7.755 10.606-5.397-.301-10.795-.601-16.193-.904-5.079-3.618-10.157-7.238-15.236-10.856" fill="#b9b9ba" fill-rule="evenodd"/><path d="M45.3252 254.9932c7.8.396 15.6.793 23.4 1.192 2.596 3.524 5.192 7.048 7.788 10.573-5.317-.301-10.634-.606-15.952-.909-5.079-3.618-10.157-7.238-15.236-10.856" fill="#b9b8b9" fill-rule="evenodd"/><path d="M45.3252 254.9932c7.709.409 15.418.817 23.126 1.229 2.606 3.513 5.213 7.027 7.82 10.541-5.237-.305-10.473-.609-15.71-.914-5.079-3.618-10.157-7.238-15.236-10.856" fill="#b8b7b8" fill-rule="evenodd"/><path d="M45.3252 254.9932c7.618.421 15.234.844 22.851 1.267 2.618 3.502 5.235 7.005 7.853 10.506-5.156-.303-10.312-.61-15.468-.917-5.079-3.618-10.157-7.238-15.236-10.856" fill="#b7b7b7" fill-rule="evenodd"/><path d="M45.3252 254.9932c7.526.434 15.052.87 22.578 1.305 2.627 3.492 5.255 6.983 7.883 10.475-5.075-.307-10.149-.615-15.225-.924-5.079-3.618-10.157-7.238-15.236-10.856" fill="#b5b5b6" fill-rule="evenodd"/><path d="M45.3252 254.9932c7.435.447 14.869.895 22.303 1.344 2.639 3.479 5.278 6.961 7.917 10.442-4.994-.31-9.989-.619-14.984-.93-5.079-3.618-10.157-7.238-15.236-10.856" fill="#b4b4b5" fill-rule="evenodd"/><path d="M45.3252 254.9932c7.343.459 14.686.921 22.029 1.38 2.65 3.471 5.299 6.94 7.948 10.409-4.913-.31-9.827-.62-14.741-.933-5.079-3.618-10.157-7.238-15.236-10.856" fill="#b3b3b4" fill-rule="evenodd"/><path d="M45.3252 254.9932c7.252.472 14.502.945 21.755 1.418l7.981 10.378c-4.834-.315-9.667-.627-14.5-.94-5.079-3.618-10.157-7.238-15.236-10.856" fill="#b3b2b3" fill-rule="evenodd"/><path d="M45.3252 254.9932c7.161.485 14.32.971 21.48 1.458 2.671 3.447 5.343 6.895 8.013 10.342-4.752-.315-9.505-.629-14.257-.944-5.079-3.618-10.157-7.238-15.236-10.856" fill="#b2b2b2" fill-rule="evenodd"/><path d="M45.3252 254.9932c7.069.498 14.138.995 21.207 1.494 2.681 3.436 5.364 6.875 8.045 10.31-4.672-.315-9.344-.631-14.016-.948-5.079-3.618-10.157-7.238-15.236-10.856" fill="#b1b1b1" fill-rule="evenodd"/><path d="M45.3252 254.9932c6.977.51 13.954 1.021 20.932 1.532 2.693 3.428 5.386 6.851 8.078 10.278-4.591-.319-9.183-.635-13.774-.954-5.079-3.618-10.157-7.238-15.236-10.856" fill="#b0b0b0" fill-rule="evenodd"/><path d="M45.3252 254.9932c6.886.521 13.771 1.045 20.658 1.569 2.703 3.415 5.406 6.829 8.11 10.246-4.511-.319-9.021-.637-13.532-.959-5.079-3.618-10.157-7.238-15.236-10.856" fill="#aeaeaf" fill-rule="evenodd"/><path d="M45.3252 254.9932c6.794.536 13.588 1.071 20.383 1.609 2.714 3.404 5.429 6.808 8.142 10.211-4.429-.321-8.859-.641-13.289-.964-5.079-3.618-10.157-7.238-15.236-10.856" fill="#aeaeae" fill-rule="evenodd"/><path d="M45.3252 254.9932c6.704.548 13.406 1.098 20.109 1.646 2.725 3.392 5.451 6.785 8.175 10.18-4.35-.322-8.699-.647-13.048-.97-5.079-3.618-10.157-7.238-15.236-10.856" fill="#adadad" fill-rule="evenodd"/><path d="M45.3252 254.9932c6.611.56 13.224 1.122 19.834 1.685 2.736 3.381 5.473 6.762 8.208 10.145-4.269-.325-8.538-.649-12.806-.974-5.079-3.618-10.157-7.238-15.236-10.856" fill="#acacac" fill-rule="evenodd"/><path d="M45.3252 254.9932c6.52.571 13.04 1.146 19.561 1.723 2.746 3.37 5.493 6.743 8.239 10.111-4.188-.324-8.376-.65-12.564-.978-5.079-3.618-10.157-7.238-15.236-10.856" fill="#ababab" fill-rule="evenodd"/><path d="M45.3252 254.9932c6.429.586 12.857 1.173 19.286 1.759 2.757 3.36 5.515 6.72 8.272 10.081-4.107-.328-8.215-.654-12.322-.984-5.079-3.618-10.157-7.238-15.236-10.856" fill="#aaa" fill-rule="evenodd"/><path d="M45.3252 254.9932c6.337.598 12.675 1.198 19.012 1.797 2.768 3.35 5.536 6.698 8.304 10.048-4.027-.329-8.053-.657-12.08-.989-5.079-3.618-10.157-7.238-15.236-10.856" fill="#a9a9a9" fill-rule="evenodd"/><path d="M45.3252 254.9932c6.246.61 12.492 1.223 18.737 1.835 2.78 3.339 5.558 6.677 8.337 10.016-3.946-.33-7.891-.662-11.838-.995-5.079-3.618-10.157-7.238-15.236-10.856" fill="#a8a8a8" fill-rule="evenodd"/><path d="M45.3252 254.9932c6.154.624 12.309 1.249 18.463 1.873 2.79 3.327 5.58 6.654 8.369 9.981-3.865-.333-7.731-.665-11.596-.998-5.079-3.618-10.157-7.238-15.236-10.856" fill="#a5a5a5" fill-rule="evenodd"/><path d="M45.3252 254.9932c6.062.637 12.126 1.272 18.189 1.912 2.8 3.316 5.601 6.632 8.401 9.948-3.785-.335-7.569-.669-11.354-1.004-5.079-3.618-10.157-7.238-15.236-10.856" fill="#a4a4a4" fill-rule="evenodd"/><path d="M45.3252 254.9932c5.972.648 11.943 1.299 17.915 1.947 2.811 3.307 5.623 6.613 8.433 9.917-3.704-.335-7.408-.671-11.112-1.008-5.079-3.618-10.157-7.238-15.236-10.856" fill="#a3a3a3" fill-rule="evenodd"/><path d="M45.3252 254.9932c5.88.661 11.76 1.325 17.641 1.986 2.822 3.294 5.644 6.59 8.465 9.882-3.623-.334-7.246-.673-10.87-1.012-5.079-3.618-10.157-7.238-15.236-10.856" fill="#a2a2a3" fill-rule="evenodd"/><path d="M45.3252 254.9932c5.789.675 11.577 1.35 17.366 2.024 2.833 3.285 5.665 6.569 8.499 9.85-3.543-.338-7.087-.677-10.629-1.018-5.079-3.618-10.157-7.238-15.236-10.856" fill="#a2a1a1" fill-rule="evenodd"/><path d="M45.3252 254.9932c5.697.687 11.395 1.376 17.092 2.063 2.843 3.272 5.687 6.543 8.53 9.816-3.462-.342-6.924-.682-10.386-1.023-5.079-3.618-10.157-7.238-15.236-10.856" fill="#a1a0a0" fill-rule="evenodd"/><path d="M45.3252 254.9932c5.606.699 11.211 1.4 16.818 2.1 2.853 3.263 5.708 6.523 8.562 9.785l-10.144-1.029c-5.079-3.618-10.157-7.238-15.236-10.856" fill="#a0a09f" fill-rule="evenodd"/><path d="M45.3252 254.9932c5.515.711 11.029 1.425 16.543 2.14 2.865 3.249 5.73 6.499 8.595 9.748-3.3-.342-6.601-.687-9.902-1.032-5.079-3.618-10.157-7.238-15.236-10.856" fill="#9d9e9e" fill-rule="evenodd"/><path d="M45.3252 254.9932c5.423.726 10.846 1.45 16.27 2.176 2.875 3.239 5.751 6.479 8.626 9.719-3.22-.347-6.44-.691-9.66-1.039-5.079-3.618-10.157-7.238-15.236-10.856" fill="#9d9d9d" fill-rule="evenodd"/><path d="M45.3252 254.9932c5.332.737 10.663 1.477 15.995 2.214 2.886 3.227 5.773 6.457 8.66 9.684-3.14-.345-6.28-.693-9.419-1.042-5.079-3.618-10.157-7.238-15.236-10.856" fill="#9c9c9c" fill-rule="evenodd"/><path d="M45.3252 254.9932c5.24.75 10.48 1.5 15.72 2.252 2.897 3.218 5.795 6.436 8.693 9.652-3.059-.348-6.118-.697-9.177-1.048-5.079-3.618-10.157-7.238-15.236-10.856" fill="#9b9b9b" fill-rule="evenodd"/><path d="M45.3252 254.9932c5.149.764 10.297 1.526 15.446 2.29 2.908 3.208 5.816 6.413 8.724 9.621-2.978-.353-5.956-.704-8.934-1.055-5.079-3.618-10.157-7.238-15.236-10.856" fill="#99999a" fill-rule="evenodd"/><path d="M45.3252 254.9932c5.058.775 10.115 1.551 15.172 2.329 2.919 3.195 5.838 6.391 8.757 9.585-2.898-.352-5.796-.704-8.693-1.058-5.079-3.618-10.157-7.238-15.236-10.856" fill="#999" fill-rule="evenodd"/><path d="M45.3252 254.9932l14.897 2.365 8.79 9.554-8.451-1.063-15.236-10.856z" fill="#989898" fill-rule="evenodd"/><path d="M81.6226 254.1826l20.344-.582-4.149 7.894-14.65-.331-1.545-6.981z" fill="#edeced" fill-rule="evenodd"/><path d="M81.6226 254.1826c6.725-.187 13.449-.372 20.173-.558-1.37 2.625-2.74 5.248-4.111 7.873-4.838-.11-9.677-.222-14.517-.334-.516-2.327-1.03-4.654-1.545-6.981" fill="#ecebeb" fill-rule="evenodd"/><path d="M81.6226 254.1826l20.003-.531c-1.357 2.617-2.715 5.233-4.073 7.851l-14.385-.339c-.516-2.327-1.03-4.654-1.545-6.981" fill="#ebeaea" fill-rule="evenodd"/><path d="M81.6226 254.1826c6.611-.169 13.222-.338 19.833-.505-1.345 2.609-2.69 5.22-4.036 7.828-4.751-.114-9.502-.227-14.252-.342-.516-2.327-1.03-4.654-1.545-6.981" fill="#eaeae9" fill-rule="evenodd"/><path d="M81.6226 254.1826c6.554-.161 13.109-.319 19.662-.48-1.332 2.602-2.665 5.206-3.998 7.808-4.707-.117-9.413-.229-14.119-.347-.516-2.327-1.03-4.654-1.545-6.981" fill="#e9e8e8" fill-rule="evenodd"/><path d="M81.6226 254.1826c6.498-.153 12.995-.304 19.493-.455-1.321 2.595-2.642 5.189-3.961 7.787-4.663-.117-9.325-.233-13.987-.351l-1.545-6.981" fill="#e8e7e7" fill-rule="evenodd"/><path d="M81.6226 254.1826c6.44-.143 12.881-.285 19.323-.431-1.309 2.589-2.617 5.178-3.925 7.767-4.618-.119-9.236-.235-13.853-.355-.516-2.327-1.03-4.654-1.545-6.981" fill="#e7e7e7" fill-rule="evenodd"/><path d="M81.6226 254.1826c6.384-.135 12.768-.27 19.152-.404-1.296 2.581-2.591 5.163-3.887 7.744-4.574-.121-9.147-.238-13.72-.359-.516-2.327-1.03-4.654-1.545-6.981" fill="#e6e6e5" fill-rule="evenodd"/><path d="M81.6226 254.1826c6.327-.127 12.654-.252 18.981-.378-1.283 2.574-2.565 5.147-3.849 7.723-4.528-.122-9.058-.243-13.587-.364-.516-2.327-1.03-4.654-1.545-6.981" fill="#e5e5e4" fill-rule="evenodd"/><path d="M81.6226 254.1826c6.271-.118 12.541-.235 18.811-.352-1.27 2.566-2.541 5.133-3.811 7.7-4.486-.123-8.97-.244-13.455-.367-.516-2.327-1.03-4.654-1.545-6.981" fill="#e4e4e3" fill-rule="evenodd"/><path d="M81.6226 254.1826c6.213-.11 12.427-.22 18.641-.328-1.259 2.56-2.516 5.119-3.775 7.681-4.44-.124-8.88-.247-13.321-.372-.516-2.327-1.03-4.654-1.545-6.981" fill="#e3e2e2" fill-rule="evenodd"/><path d="M81.6226 254.1826c6.157-.1 12.314-.201 18.471-.302-1.246 2.553-2.492 5.106-3.738 7.656-4.396-.123-8.792-.248-13.188-.373l-1.545-6.981" fill="#e2e2e1" fill-rule="evenodd"/><path d="M81.6226 254.1826c6.1-.092 12.2-.186 18.3-.277-1.233 2.546-2.467 5.09-3.699 7.637-4.352-.128-8.705-.254-13.056-.379-.516-2.327-1.03-4.654-1.545-6.981" fill="#e1e1e1" fill-rule="evenodd"/><path d="M81.6226 254.1826c6.043-.084 12.086-.167 18.13-.252-1.221 2.539-2.442 5.077-3.662 7.616-4.308-.127-8.615-.256-12.923-.383-.516-2.327-1.03-4.654-1.545-6.981" fill="#e0e0e0" fill-rule="evenodd"/><path d="M81.6226 254.1826c5.986-.076 11.973-.15 17.959-.228-1.207 2.533-2.416 5.064-3.625 7.596l-12.789-.387c-.516-2.327-1.03-4.654-1.545-6.981" fill="#dededd" fill-rule="evenodd"/><path d="M81.6226 254.1826c5.93-.065 11.86-.135 17.79-.201l-3.588 7.573c-4.219-.129-8.438-.26-12.657-.391-.516-2.327-1.03-4.654-1.545-6.981" fill="#dddddc" fill-rule="evenodd"/><path d="M81.6226 254.1826c5.873-.058 11.746-.116 17.619-.175-1.183 2.517-2.367 5.034-3.55 7.552-4.175-.134-8.349-.265-12.524-.396-.516-2.327-1.03-4.654-1.545-6.981" fill="#dcdcdb" fill-rule="evenodd"/><path d="M81.6226 254.1826c5.816-.05 11.632-.1 17.448-.148-1.171 2.509-2.34 5.018-3.512 7.528l-12.391-.399c-.516-2.327-1.03-4.654-1.545-6.981" fill="#dbdbda" fill-rule="evenodd"/><path d="M81.6226 254.1826c5.759-.042 11.519-.082 17.278-.124-1.158 2.502-2.316 5.004-3.474 7.509-4.087-.136-8.174-.269-12.259-.404l-1.545-6.981" fill="#dadad9" fill-rule="evenodd"/><path d="M81.6226 254.1826c5.703-.032 11.405-.065 17.107-.099-1.145 2.497-2.291 4.991-3.437 7.487-4.041-.134-8.083-.272-12.125-.407-.516-2.327-1.03-4.654-1.545-6.981" fill="#d9d9d8" fill-rule="evenodd"/><path d="M81.6226 254.1826l16.937-.072c-1.133 2.486-2.266 4.976-3.399 7.465-3.998-.138-7.996-.275-11.993-.412-.516-2.327-1.03-4.654-1.545-6.981" fill="#d8d8d7" fill-rule="evenodd"/><path d="M81.6226 254.1826c5.589-.016 11.178-.032 16.767-.046-1.12 2.48-2.242 4.96-3.362 7.442-3.953-.139-7.906-.276-11.86-.415-.516-2.327-1.03-4.654-1.545-6.981" fill="#d6d6d6" fill-rule="evenodd"/><path d="M81.6226 254.1826c5.532-.008 11.064-.014 16.597-.021-1.109 2.473-2.217 4.948-3.325 7.421-3.909-.138-7.818-.278-11.727-.419-.516-2.327-1.03-4.654-1.545-6.981" fill="#d5d5d5" fill-rule="evenodd"/><path d="M81.6226 254.1826c5.475 0 10.952.002 16.427.002-1.096 2.469-2.192 4.936-3.288 7.402-3.865-.14-7.73-.282-11.594-.423-.516-2.327-1.03-4.654-1.545-6.981" fill="#d5d5d4" fill-rule="evenodd"/><path d="M81.6226 254.1826c5.418.011 10.837.019 16.257.028l-3.251 7.381c-3.82-.141-7.641-.284-11.461-.428l-1.545-6.981" fill="#d4d4d3" fill-rule="evenodd"/><path d="M81.6226 254.1826c5.361.019 10.724.037 16.086.055-1.07 2.452-2.142 4.906-3.213 7.357-3.776-.142-7.552-.286-11.328-.431-.516-2.327-1.03-4.654-1.545-6.981" fill="#d3d3d3" fill-rule="evenodd"/><path d="M81.6226 254.1826c5.305.026 10.61.053 15.916.081l-3.176 7.336c-3.731-.146-7.464-.291-11.195-.436-.516-2.327-1.03-4.654-1.545-6.981" fill="#d2d2d2" fill-rule="evenodd"/><path d="M81.6226 254.1826c5.248.034 10.497.071 15.746.105-1.047 2.44-2.093 4.877-3.138 7.315-3.689-.145-7.376-.292-11.063-.439-.516-2.327-1.03-4.654-1.545-6.981" fill="#d1d1d1" fill-rule="evenodd"/><path d="M81.6226 254.1826c5.192.043 10.383.087 15.575.131-1.033 2.432-2.067 4.863-3.101 7.294-3.643-.148-7.286-.294-10.929-.444-.516-2.327-1.03-4.654-1.545-6.981" fill="#d0d0cf" fill-rule="evenodd"/><path d="M81.6226 254.1826c5.135.053 10.27.105 15.405.157-1.022 2.424-2.042 4.848-3.064 7.272-3.599-.149-7.197-.298-10.796-.448-.516-2.327-1.03-4.654-1.545-6.981" fill="#cfcfcf" fill-rule="evenodd"/><path d="M81.6226 254.1826c5.078.061 10.156.122 15.235.182-1.008 2.418-2.018 4.833-3.026 7.251-3.555-.152-7.109-.3-10.664-.452-.516-2.327-1.03-4.654-1.545-6.981" fill="#cececd" fill-rule="evenodd"/><path d="M81.6226 254.1826c5.022.069 10.043.138 15.064.208-.996 2.41-1.992 4.818-2.988 7.229-3.51-.151-7.021-.303-10.531-.456-.516-2.327-1.03-4.654-1.545-6.981" fill="#cdcccc" fill-rule="evenodd"/><path d="M81.6226 254.1826c4.965.077 9.929.155 14.894.232-.984 2.404-1.967 4.807-2.952 7.208-3.465-.152-6.931-.303-10.397-.459-.516-2.327-1.03-4.654-1.545-6.981" fill="#cccbcb" fill-rule="evenodd"/><path d="M81.6226 254.1826c4.908.085 9.816.171 14.724.259-.972 2.394-1.943 4.791-2.914 7.185-3.421-.153-6.844-.307-10.265-.463l-1.545-6.981" fill="#cbcaca" fill-rule="evenodd"/><path d="M81.6226 254.1826c4.852.096 9.702.189 14.553.284-.958 2.388-1.917 4.778-2.876 7.165-3.377-.155-6.755-.31-10.132-.468-.516-2.327-1.03-4.654-1.545-6.981" fill="#cac9c9" fill-rule="evenodd"/><path d="M81.6226 254.1826c4.794.104 9.589.206 14.383.309-.946 2.383-1.892 4.764-2.839 7.143-3.333-.156-6.666-.313-9.999-.471-.516-2.327-1.03-4.654-1.545-6.981" fill="#c8c8c8" fill-rule="evenodd"/><path d="M81.6226 254.1826c4.738.111 9.475.225 14.212.335-.933 2.373-1.867 4.748-2.8 7.122-3.289-.157-6.578-.316-9.867-.476-.516-2.327-1.03-4.654-1.545-6.981" fill="#c8c8c8" fill-rule="evenodd"/><path d="M81.6226 254.1826c4.681.119 9.361.24 14.043.361-.922 2.368-1.843 4.732-2.765 7.102-3.244-.161-6.488-.321-9.733-.482-.516-2.327-1.03-4.654-1.545-6.981" fill="#c6c6c6" fill-rule="evenodd"/><path d="M81.6226 254.1826c4.624.13 9.248.259 13.873.388-.91 2.356-1.819 4.717-2.727 7.079-3.201-.163-6.401-.325-9.601-.486-.516-2.327-1.03-4.654-1.545-6.981" fill="#c6c5c5" fill-rule="evenodd"/><path d="M81.6226 254.1826c4.567.138 9.135.274 13.702.411l-2.69 7.06c-3.156-.163-6.312-.326-9.467-.49l-1.545-6.981" fill="#c5c4c4" fill-rule="evenodd"/><path d="M81.6226 254.1826c4.511.146 9.021.292 13.531.436-.883 2.346-1.768 4.692-2.651 7.037-3.112-.163-6.223-.327-9.335-.492-.516-2.327-1.03-4.654-1.545-6.981" fill="#c4c3c3" fill-rule="evenodd"/><path d="M81.6226 254.1826l13.361.463-2.614 7.016c-3.068-.167-6.135-.333-9.202-.498-.516-2.327-1.03-4.654-1.545-6.981" fill="#c1c1c1" fill-rule="evenodd"/><path d="M81.6226 254.1826c4.397.163 8.793.325 13.19.487-.858 2.332-1.717 4.662-2.576 6.996-3.023-.168-6.046-.335-9.069-.502-.516-2.327-1.03-4.654-1.545-6.981" fill="silver" fill-rule="evenodd"/><path d="M81.6226 254.1826c4.34.171 8.68.343 13.021.512-.847 2.325-1.693 4.65-2.54 6.975-2.978-.169-5.957-.337-8.936-.506-.516-2.327-1.03-4.654-1.545-6.981" fill="#bfbfbf" fill-rule="evenodd"/><path d="M81.6226 254.1826c4.283.18 8.566.358 12.85.538-.834 2.319-1.667 4.635-2.501 6.953-2.935-.17-5.87-.341-8.804-.51-.516-2.327-1.03-4.654-1.545-6.981" fill="#bfbebe" fill-rule="evenodd"/><path d="M81.6226 254.1826c4.226.187 8.453.377 12.68.564-.822 2.309-1.643 4.62-2.464 6.929-2.891-.17-5.781-.341-8.671-.512-.516-2.327-1.03-4.654-1.545-6.981" fill="#bebdbd" fill-rule="evenodd"/><path d="M81.6226 254.1826c4.17.195 8.34.394 12.51.591-.809 2.301-1.618 4.605-2.428 6.908-2.845-.173-5.691-.345-8.537-.518-.516-2.327-1.03-4.654-1.545-6.981" fill="#bdbcbc" fill-rule="evenodd"/><path d="M81.6226 254.1826c4.113.206 8.226.411 12.34.615-.797 2.295-1.594 4.591-2.39 6.888-2.803-.174-5.604-.349-8.405-.522-.516-2.327-1.03-4.654-1.545-6.981" fill="#bbbbbc" fill-rule="evenodd"/><path d="M81.6226 254.1826l12.169.642c-.785 2.288-1.568 4.577-2.353 6.866-2.757-.176-5.514-.351-8.271-.527-.516-2.327-1.03-4.654-1.545-6.981" fill="#bababb" fill-rule="evenodd"/><path d="M81.6226 254.1826c4 .222 7.999.443 11.999.667-.771 2.281-1.543 4.563-2.315 6.844-2.713-.175-5.426-.353-8.139-.53-.516-2.327-1.03-4.654-1.545-6.981" fill="#b9b9ba" fill-rule="evenodd"/><path d="M81.6226 254.1826c3.943.229 7.885.462 11.828.693-.759 2.273-1.517 4.547-2.277 6.823-2.669-.18-5.338-.356-8.006-.535l-1.545-6.981" fill="#b9b8b9" fill-rule="evenodd"/><path d="M81.6226 254.1826c3.886.238 7.772.479 11.657.718-.746 2.266-1.492 4.533-2.239 6.802-2.625-.18-5.249-.36-7.873-.539l-1.545-6.981" fill="#b8b7b8" fill-rule="evenodd"/><path d="M81.6226 254.1826c3.83.248 7.659.496 11.487.741-.734 2.261-1.468 4.522-2.201 6.782-2.581-.181-5.161-.36-7.741-.542l-1.545-6.981" fill="#b7b7b7" fill-rule="evenodd"/><path d="M81.6226 254.1826l11.318.768c-.723 2.254-1.444 4.504-2.166 6.759-2.536-.181-5.071-.364-7.607-.546l-1.545-6.981" fill="#b5b5b6" fill-rule="evenodd"/><path d="M81.6226 254.1826c3.716.265 7.432.528 11.148.794-.71 2.245-1.419 4.491-2.128 6.737-2.492-.183-4.983-.366-7.475-.55l-1.545-6.981" fill="#b4b4b5" fill-rule="evenodd"/><path d="M81.6226 254.1826c3.659.272 7.318.546 10.977.818-.697 2.241-1.394 4.479-2.09 6.717-2.448-.185-4.895-.369-7.342-.554l-1.545-6.981" fill="#b3b3b4" fill-rule="evenodd"/><path d="M81.6226 254.1826c3.603.28 7.205.562 10.807.845-.684 2.231-1.369 4.462-2.054 6.695-2.403-.186-4.806-.371-7.208-.559l-1.545-6.981" fill="#b3b2b3" fill-rule="evenodd"/><path d="M81.6226 254.1826c3.545.291 7.091.58 10.636.87-.672 2.225-1.344 4.449-2.015 6.673-2.359-.188-4.717-.374-7.076-.562-.516-2.327-1.03-4.654-1.545-6.981" fill="#b2b2b2" fill-rule="evenodd"/><path d="M81.6226 254.1826c3.489.299 6.977.597 10.466.896-.66 2.217-1.319 4.433-1.978 6.652-2.314-.19-4.629-.377-6.943-.567l-1.545-6.981" fill="#b1b1b1" fill-rule="evenodd"/><path d="M81.6226 254.1826c3.432.307 6.864.615 10.296.921-.648 2.211-1.295 4.421-1.942 6.631-2.269-.191-4.539-.379-6.809-.571l-1.545-6.981" fill="#b0b0b0" fill-rule="evenodd"/><path d="M81.6226 254.1826c3.375.317 6.75.631 10.125.945-.634 2.204-1.269 4.407-1.903 6.611-2.226-.192-4.451-.383-6.677-.575l-1.545-6.981" fill="#aeaeaf" fill-rule="evenodd"/><path d="M81.6226 254.1826c3.318.325 6.637.649 9.955.972-.622 2.195-1.244 4.391-1.865 6.588-2.182-.194-4.364-.386-6.545-.579l-1.545-6.981" fill="#aeaeae" fill-rule="evenodd"/><path d="M81.6226 254.1826c3.262.333 6.523.666 9.785.998-.609 2.188-1.219 4.378-1.829 6.565-2.138-.193-4.274-.389-6.411-.582l-1.545-6.981" fill="#adadad" fill-rule="evenodd"/><path d="M81.6226 254.1826c3.205.341 6.41.682 9.615 1.024-.598 2.18-1.195 4.362-1.792 6.543-2.093-.195-4.185-.39-6.278-.586-.516-2.327-1.03-4.654-1.545-6.981" fill="#acacac" fill-rule="evenodd"/><path d="M81.6226 254.1826c3.148.35 6.296.699 9.444 1.049-.585 2.173-1.17 4.348-1.754 6.523-2.048-.198-4.097-.393-6.145-.591l-1.545-6.981" fill="#ababab" fill-rule="evenodd"/><path d="M81.6226 254.1826c3.091.357 6.182.716 9.273 1.074-.571 2.166-1.143 4.334-1.715 6.501-2.005-.197-4.009-.394-6.013-.594l-1.545-6.981" fill="#aaa" fill-rule="evenodd"/><path d="M81.6226 254.1826c3.035.367 6.069.733 9.104 1.098-.56 2.163-1.12 4.322-1.679 6.482-1.96-.2-3.92-.399-5.88-.599l-1.545-6.981" fill="#a9a9a9" fill-rule="evenodd"/><path d="M81.6226 254.1826c2.978.375 5.955.75 8.933 1.124-.547 2.154-1.095 4.309-1.641 6.46-1.916-.199-3.831-.401-5.747-.603l-1.545-6.981" fill="#a8a8a8" fill-rule="evenodd"/><path d="M81.6226 254.1826c2.921.383 5.841.766 8.763 1.15-.535 2.146-1.07 4.291-1.604 6.438-1.872-.202-3.742-.403-5.614-.607l-1.545-6.981" fill="#a5a5a5" fill-rule="evenodd"/><path d="M81.6226 254.1826c2.864.391 5.729.784 8.592 1.175-.522 2.139-1.043 4.279-1.566 6.417-1.828-.204-3.654-.407-5.481-.611l-1.545-6.981" fill="#a4a4a4" fill-rule="evenodd"/><path d="M81.6226 254.1826c2.807.401 5.615.8 8.422 1.201-.51 2.132-1.02 4.264-1.529 6.395-1.783-.205-3.565-.409-5.348-.615-.516-2.327-1.03-4.654-1.545-6.981" fill="#a3a3a3" fill-rule="evenodd"/><path d="M81.6226 254.1826c2.75.409 5.501.818 8.252 1.228l-1.492 6.372c-1.738-.206-3.476-.411-5.215-.619l-1.545-6.981" fill="#a2a2a3" fill-rule="evenodd"/><path d="M81.6226 254.1826c2.693.417 5.389.835 8.082 1.252-.485 2.119-.97 4.236-1.455 6.352-1.694-.208-3.388-.415-5.082-.623l-1.545-6.981" fill="#a2a1a1" fill-rule="evenodd"/><path d="M81.6226 254.1826c2.637.426 5.274.853 7.911 1.277l-1.416 6.33c-1.65-.209-3.3-.417-4.95-.626l-1.545-6.981" fill="#a1a0a0" fill-rule="evenodd"/><path d="M81.6226 254.1826c2.58.436 5.161.869 7.741 1.304-.46 2.103-.92 4.204-1.38 6.308-1.605-.21-3.211-.422-4.816-.631l-1.545-6.981" fill="#a0a09f" fill-rule="evenodd"/><path d="M81.6226 254.1826c2.523.443 5.046.887 7.571 1.328-.447 2.097-.895 4.193-1.342 6.288-1.562-.212-3.123-.421-4.684-.635l-1.545-6.981" fill="#9d9e9e" fill-rule="evenodd"/><path d="M81.6226 254.1826c2.466.452 4.934.902 7.4 1.354-.435 2.089-.869 4.177-1.304 6.266-1.517-.211-3.034-.425-4.551-.639-.516-2.327-1.03-4.654-1.545-6.981" fill="#9d9d9d" fill-rule="evenodd"/><path d="M81.6226 254.1826c2.41.46 4.82.919 7.23 1.379-.422 2.083-.845 4.164-1.267 6.245-1.473-.214-2.945-.429-4.418-.643l-1.545-6.981" fill="#9c9c9c" fill-rule="evenodd"/><path d="M81.6226 254.1826c2.354.468 4.707.937 7.06 1.405-.41 2.075-.821 4.148-1.23 6.223-1.429-.216-2.857-.431-4.285-.647l-1.545-6.981" fill="#9b9b9b" fill-rule="evenodd"/><path d="M81.6226 254.1826c2.297.479 4.593.953 6.89 1.431-.398 2.066-.796 4.133-1.193 6.201-1.384-.215-2.768-.434-4.152-.651l-1.545-6.981" fill="#99999a" fill-rule="evenodd"/><path d="M81.6226 254.1826c2.24.486 4.479.972 6.719 1.457-.385 2.059-.77 4.12-1.155 6.18-1.34-.219-2.68-.439-4.019-.656l-1.545-6.981" fill="#999" fill-rule="evenodd"/><path d="M81.6226 254.1826l6.549 1.48-1.118 6.16-3.886-.659-1.545-6.981z" fill="#989898" fill-rule="evenodd"/><path d="M79.7007 270.996l16.367 1.535 7.117-16.092-21.561-2.256-16.925 3.975-19.536-3.29 7.746 16.42 14.139 3.279 12.653-3.571z" fill="#c8c8c8" fill-rule="evenodd"/><path d="M64.7012 258.255c-3.23-.546-6.462-1.088-9.69-1.634-3.228-.543-6.458-1.086-9.686-1.628 1.274 2.698 2.551 5.402 3.825 8.104 1.273 2.699 2.548 5.404 3.823 8.108 2.344.546 4.689 1.09 7.034 1.634 2.345.542 4.692 1.088 7.04 1.632-.393-2.703-.784-5.409-1.176-8.112-.39-2.701-.782-5.405-1.17-8.104" fill="#fff" fill-rule="evenodd"/><path d="M64.7642 258.6973c-3.028-.513-6.055-1.025-9.08-1.54-3.024-.512-6.05-1.026-9.075-1.54 1.158 2.553 2.317 5.105 3.475 7.66 1.158 2.555 2.316 5.109 3.473 7.666 2.238.514 4.476 1.027 6.712 1.541 2.236.512 4.474 1.027 6.713 1.539-.369-2.555-.741-5.11-1.111-7.664-.369-2.555-.737-5.107-1.107-7.662" fill="#e4ddd7" fill-rule="evenodd"/><path d="M65.0825 260.9248c-1.177-.568-2.373-1.141-3.583-1.708-1.221-.568-2.461-1.136-3.712-1.703.716.12 1.436.243 2.154.364.856.391 1.711.784 2.553 1.177.835.391 1.666.788 2.493 1.183.033.229.065.459.095.687m.9415 6.4862c-2.579-.512-5.156-1.027-7.733-1.541-2.576-.514-5.155-1.025-7.731-1.541-.082-.18-.163-.359-.243-.536 2.604.514 5.209 1.028 7.813 1.539 2.604.515 5.211 1.029 7.817 1.541.022.178.051.358.077.538" fill="#fff" fill-rule="evenodd"/><path d="M65.9453 266.8594c-.732.002-1.458.008-2.176.013-.248-.195-.493-.383-.739-.573.934-.005 1.879-.014 2.831-.018.028.191.057.387.084.578m-2.7323-7.549c.271.189.547.38.819.574-1.89.165-3.745.333-5.563.499-1.781.166-3.53.335-5.239.504-.289-.193-.58-.387-.871-.574 1.72-.167 3.478-.334 5.267-.502 1.822-.169 3.686-.336 5.587-.501" fill="#fff" fill-rule="evenodd"/><path d="M57.3462 260.4102c.113-.141.228-.275.342-.412 1.308.473 2.603.946 3.889 1.424 1.271.471 2.533.946 3.786 1.424.007.046.015.092.022.141-.104.105-.204.211-.304.317-1.26-.484-2.534-.97-3.817-1.451-1.293-.484-2.602-.961-3.918-1.443m-7.9482 1.3564c1.944.529 3.877 1.062 5.797 1.593 1.908.528 3.804 1.064 5.689 1.595 0 .169.002.341.004.51-1.843-.525-3.697-1.055-5.567-1.577-1.88-.525-3.772-1.05-5.675-1.573-.083-.184-.165-.364-.248-.548" fill="#fff" fill-rule="evenodd"/><path d="M58.5386 262.3867c.27.189.541.381.811.572-.699.129-1.389.252-2.069.381-.671.127-1.338.256-1.992.383-.278-.19-.554-.383-.83-.57.659-.129 1.328-.258 2.004-.385.681-.127 1.375-.256 2.076-.381m8.1206 9.416c-2.306-.273-4.586-.546-6.839-.821-2.231-.272-4.435-.548-6.617-.823-.082-.179-.162-.36-.246-.539 2.208.274 4.443.547 6.7.82 2.283.276 4.592.55 6.925.824.026.18.052.358.077.539" fill="#fff" fill-rule="evenodd"/><path d="M58.6963 266.0078c.097-.14.194-.276.294-.412 1.316.827 2.61 1.646 3.867 2.478 1.239.823 2.442 1.653 3.623 2.481.034.239.069.481.104.723-1.238-.878-2.503-1.765-3.806-2.635-1.325-.887-2.688-1.757-4.082-2.635" fill="#fff" fill-rule="evenodd"/><path d="M63.3296 268.539c.294.21.589.424.885.637-2.06-.223-4.102-.45-6.121-.681-2.004-.225-3.989-.451-5.952-.677-.085-.185-.167-.37-.252-.555 1.864.213 3.746.424 5.645.638 1.916.214 3.845.425 5.795.638" fill="#fff" fill-rule="evenodd"/><path d="M50.538 264.286c2.224 1.459 4.384 2.902 6.437 4.378 2.005 1.441 3.902 2.92 5.736 4.379-.354-.079-.708-.16-1.063-.242-1.643-1.293-3.335-2.6-5.106-3.872-1.812-1.304-3.708-2.581-5.651-3.872-.119-.257-.236-.512-.353-.771" fill="#fff" fill-rule="evenodd"/><path d="M60.457 266.7246c.313.213.621.425.931.641-1.318-.134-2.628-.265-3.929-.4-1.293-.131-2.579-.262-3.854-.392-.331-.214-.664-.429-.997-.641 1.288.131 2.583.26 3.884.391 1.315.133 2.635.268 3.965.401m5.9185 3.1064c-.917-.189-1.829-.38-2.743-.572-.43-.281-.861-.56-1.293-.841.659.136 1.317.272 1.975.41.658.135 1.316.27 1.975.406.028.201.055.4.086.597m.524 3.6446c-.815-.111-1.627-.224-2.436-.339-.805-.112-1.609-.227-2.408-.34-.282-.216-.563-.425-.847-.64.927.131 1.857.261 2.791.39.938.131 1.879.263 2.825.394.022.177.049.356.075.535m-1.56-10.0166c.033-.036.065-.068.098-.102.009.051.015.104.024.155-.041-.017-.083-.039-.122-.053" fill="#fff" fill-rule="evenodd"/><path d="M63.834 268.7285c-1.264-.842-2.554-1.686-3.874-2.525 1.009.201 2.022.106 3.031.307 1.009.201 2.01.627 3.023.828.089.613.188 1.296.278 1.907-.824-.174-1.641-.345-2.458-.517m-7.83-5.1425c1.091-.21 2.207-.42 3.345-.627 1.181.436 2.515.943 3.679 1.378-.671.229-1.494.385-2.144.618-.807-.229-1.621-.459-2.432-.684-.815-.228-1.63-.457-2.448-.685" fill="#8fc640" fill-rule="evenodd"/><path d="M66.56 271.2598c-.492-.352-.992-.705-1.494-1.059-1.134-.126-2.259-.251-3.38-.378.441.341.879.677 1.314 1.018 1.18.141 2.366.279 3.56.419" fill="#d4cbba" fill-rule="evenodd"/><path d="M53.0273 260.247c.75-.072 1.508-.146 2.272-.217.771-.073 1.552-.147 2.338-.219-.891-.416-1.788-.83-2.692-1.24-.79.125-1.573.252-2.342.38-.76.128-1.513.257-2.256.386.897.302 1.789.605 2.68.91m5.374 10.043c-.94-.694-1.896-1.39-2.87-2.083-1.135-.129-2.265-.26-3.39-.389.271.6.546 1.2.816 1.802.898.108 1.799.223 2.703.336.91.111 1.822.222 2.741.334" fill="#8fc640" fill-rule="evenodd"/><path d="M59.6875 268.5596c-.413-.048-.823-.093-1.232-.137-.821-.631-1.656-1.259-2.509-1.884-.859-.632-1.739-1.254-2.628-1.881.465.068.932.137 1.397.204.862.616 1.713 1.228 2.546 1.844.824.614 1.629 1.236 2.426 1.854" fill="#fff" fill-rule="evenodd"/><path d="M55.5928 267.6836c-.508-.356-1.021-.712-1.538-1.064.771.077 1.549.16 2.329.238.48.358.958.715 1.431 1.073-.743-.082-1.483-.164-2.222-.247" fill="#d4cbba" fill-rule="evenodd"/><path d="M81.6304 254.2783c-2.822.664-5.646 1.325-8.467 1.986-2.82.662-5.642 1.326-8.462 1.991.197 1.368.394 2.735.592 4.105.249-.572.435-1.179.532-1.823.408-.072.816-.143 1.224-.213-.224 1.335-.794 2.526-1.532 3.576l-.084-.579.438 3.037c.392 2.701.783 5.409 1.174 8.112 2.106-.595 4.214-1.19 6.321-1.787 2.107-.593 4.216-1.19 6.326-1.783.324-2.774.646-5.546.97-8.314.323-2.77.646-5.54.968-8.308" fill="#c8c8c8" fill-rule="evenodd"/><path d="M81.578 254.7314c-2.804.663-5.609 1.323-8.41 1.984-2.801.659-5.605 1.322-8.404 1.982.176 1.221.354 2.442.53 3.663.248-.572.434-1.181.531-1.823.408-.073.816-.143 1.224-.213-.223 1.335-.794 2.526-1.532 3.576l.354 2.458c.371 2.555.739 5.109 1.108 7.665 2.126-.596 4.255-1.194 6.382-1.791 2.128-.596 4.255-1.195 6.385-1.791.306-2.619.61-5.237.916-7.856.306-2.619.611-5.236.916-7.854" fill="#b3aea9" fill-rule="evenodd"/><path d="M65.7363 261.0156c-.216-.031-.432-.059-.649-.088-.034-.23-.067-.461-.1-.69.487.061.971.129 1.454.191-.205.036-.412.072-.616.108-.024.162-.054.321-.089.479m14.841 2.302c-2.359-.419-4.805-.844-7.342-1.236-2.068-.319-4.196-.619-6.377-.916.062-.215.115-.435.159-.659 2.121.284 4.193.573 6.209.877 2.568.387 5.045.81 7.432 1.229-.027.233-.054.468-.081.705" fill="#c8c8c8" fill-rule="evenodd"/><path d="M80.5366 263.664c-2.419.625-4.84 1.249-7.257 1.874-2.419.622-4.838 1.246-7.255 1.873-.027-.181-.053-.358-.077-.538 2.441-.628 4.883-1.254 7.324-1.881s4.886-1.252 7.329-1.879c-.022.182-.042.367-.064.551" fill="#c8c8c8" fill-rule="evenodd"/><path d="M80.748 261.8535c-1.239.525-2.162 1.35-2.22 2.057-.057.711.727 1.097 1.861 1.015.12-1.023.239-2.048.359-3.072" fill="#ca942f" fill-rule="evenodd"/><path d="M80.6807 262.4307c-.66.351-1.125.818-1.165 1.228-.04.413.342.66.941.686.075-.638.149-1.274.224-1.914" fill="#729c3f" fill-rule="evenodd"/><path d="M75.3188 261.71c.196.101.396.197.591.302-1.717.812-3.415 1.62-5.086 2.429-1.651.803-3.277 1.615-4.879 2.418-.028-.193-.055-.386-.084-.578 1.524-.758 3.07-1.523 4.638-2.279 1.583-.763 3.193-1.528 4.82-2.292m4.8742 4.8955c-2.313.87-4.606 1.738-6.869 2.605-2.245.863-4.467 1.729-6.665 2.592-.026-.178-.052-.359-.077-.539 2.221-.864 4.466-1.734 6.736-2.599 2.288-.872 4.604-1.741 6.939-2.614-.02.185-.042.369-.064.555" fill="#c8c8c8" fill-rule="evenodd"/><path d="M70.17 270.1797c.26-.157.519-.312.779-.469.853.301 1.693.6 2.513.906.803.302 1.591.615 2.361.924-.378.108-.753.21-1.129.316-.718-.282-1.45-.569-2.197-.843-.759-.28-1.537-.561-2.327-.834" fill="#c8c8c8" fill-rule="evenodd"/><path d="M69.3872 266.3662c.289-.166.579-.331.87-.496.298 1.302.586 2.609.863 3.914-.271.166-.54.331-.807.494-.299-1.306-.608-2.61-.926-3.912" fill="#c8c8c8" fill-rule="evenodd"/><path d="M70.8887 268.0186c-.017.211-.032.418-.048.626-.744.197-1.492.396-2.235.593-.742.198-1.488.396-2.231.593-.03-.197-.059-.396-.088-.596.766-.205 1.533-.406 2.299-.609.766-.201 1.535-.403 2.303-.607" fill="#c8c8c8" fill-rule="evenodd"/><path d="M80.2622 266.0098c-1.666.463-3.329.927-4.989 1.392-1.659.462-3.318.93-4.975 1.394-.053-.191-.109-.387-.165-.579 1.696-.474 3.395-.948 5.094-1.418 1.698-.47 3.403-.944 5.11-1.414-.026.208-.049.415-.075.625" fill="#c8c8c8" fill-rule="evenodd"/><path d="M72.6206 265.3203c.375-.061.753-.119 1.128-.182-.009.764-.018 1.528-.026 2.291-.362.038-.727.075-1.089.113-.005-.74-.01-1.481-.013-2.222m3.6362-.873c.374-.058.748-.121 1.123-.181-.06.767-.119 1.537-.177 2.307-.359.036-.716.072-1.075.111.043-.748.085-1.491.129-2.237m-3.3842 6.207c.224.102.447.2.667.301-1.117.422-2.233.843-3.342 1.261-1.104.419-2.204.84-3.296 1.261-.025-.179-.052-.358-.078-.54.996-.38 2-.76 3.005-1.139 1.012-.379 2.023-.761 3.044-1.144m8.2784-12.2588c-1.676.524-3.345 1.046-5.006 1.567-1.654.521-3.305 1.044-4.947 1.565.007-.187.015-.369.022-.555 1.65-.519 3.306-1.039 4.967-1.557 1.669-.52 3.344-1.044 5.027-1.566-.021.181-.042.365-.063.546" fill="#c8c8c8" fill-rule="evenodd"/><path d="M69.5713 259.6025c.478-.182.957-.364 1.437-.548.765.139 1.524.28 2.276.423.743.141 1.477.288 2.207.431-.47.181-.94.365-1.405.545-.734-.146-1.476-.289-2.225-.428-.755-.143-1.518-.284-2.29-.423" fill="#c8c8c8" fill-rule="evenodd"/><path d="M65.517 263.9004c.738-1.05 1.309-2.241 1.532-3.576-.408.07-.816.14-1.224.213-.097.644-.283 1.251-.532 1.825.075.512.149 1.023.224 1.538" fill="#ca942f"/><path d="M66.119 262.9385c.933.083 1.859.167 2.773.254 1.04.1 2.071.199 3.088.303-.129.201-.256.4-.381.603-.995-.099-2-.203-3.018-.3-.932-.089-1.871-.176-2.82-.259.126-.196.245-.397.358-.601m-.682.419l.002-.001.015.107c-.006-.035-.011-.069-.017-.106m4.5098-5.882c.427.525.846 1.056 1.261 1.581-.377.171-.753.34-1.126.51-.477-.597-.962-1.189-1.458-1.779.44-.105.88-.208 1.323-.312m10.9136 3.4102c-1.007.252-2.016.504-3.021.754-1.007.254-2.013.506-3.02.759-.049-.188-.098-.375-.147-.564 1.043-.26 2.087-.519 3.128-.778 1.041-.258 2.086-.52 3.131-.779-.024.201-.048.403-.071.608" fill="#c8c8c8" fill-rule="evenodd"/><path d="M70.4893 261.204c.702-.222 2.14-.675 2.847-.896-.991-.19-1.996-.381-3.014-.569-.914.278-1.826.559-2.736.841 1.228.126 1.708.489 2.903.624m-4.4643 6.207c1.135-.296 2.269-.588 3.402-.881.148.597.291 1.193.433 1.792-.595.155-1.193.308-1.786.461-.595.153-1.189.309-1.785.464-.088-.612-.176-1.226-.264-1.836" fill="#729c3f" fill-rule="evenodd"/><path d="M73.7246 267.2178c.008-.6.015-1.2.023-1.801.83-.216 1.659-.429 2.491-.643-.036.59-.072 1.185-.105 1.777-.803.223-1.607.445-2.409.667m-2.2096 2.6942c.728.257 1.442.52 2.145.779.626-.241 1.256-.487 1.886-.727.631-.244 1.267-.489 1.904-.732-.447-.36-.9-.718-1.364-1.075-.769.29-1.536.586-2.298.876-.76.292-1.519.584-2.273.879m8.7472-3.9022c-1.567.435-3.138.876-4.7 1.312-1.562.437-3.125.876-4.686 1.313.065.298.127.594.189.892 1.508-.579 3.024-1.157 4.551-1.735 1.536-.58 3.084-1.158 4.641-1.741.002-.014.005-.029.005-.041" fill="#a7a093" fill-rule="evenodd"/><path d="M81.3848 256.3828c-2.5.754-4.988 1.508-7.458 2.257-2.334.709-4.658 1.423-6.967 2.133.033-.149.065-.298.09-.449-.162.028-.324.057-.485.082l-.001-.068c2.448-.749 4.909-1.499 7.385-2.248 2.487-.75 4.986-1.501 7.5-2.253-.02.182-.042.367-.064.546" fill="#ca942f" fill-rule="evenodd"/><path d="M96.0068 272.4297c1.173-2.654 2.348-5.306 3.52-7.957 1.172-2.65 2.345-5.304 3.52-7.953-3.572-.374-7.144-.749-10.713-1.122-3.569-.374-7.14-.747-10.705-1.119-.325 2.767-.647 5.54-.969 8.307-.323 2.771-.645 5.543-.967 8.315 2.715.254 5.436.508 8.155.763 2.718.256 5.439.511 8.159.766" fill="#fff" fill-rule="evenodd"/><path d="M95.2788 271.9043c1.064-2.515 2.124-5.024 3.19-7.539 1.064-2.511 2.127-5.025 3.19-7.535-3.349-.351-6.698-.701-10.044-1.05-3.347-.348-6.693-.698-10.04-1.049-.306 2.618-.611 5.237-.915 7.855-.305 2.618-.61 5.238-.916 7.855 2.587.244 5.175.488 7.765.732 2.588.241 5.181.485 7.77.731" fill="#e4ddd7" fill-rule="evenodd"/><path d="M86.414 271.0684c-.752-1.296-1.535-2.609-2.394-3.909-.877-1.323-1.832-2.637-2.814-3.963.413-.032.829-.062 1.242-.092.993 1.361 1.95 2.71 2.826 4.071.859 1.333 1.64 2.682 2.387 4.011-.416-.04-.831-.078-1.247-.118" fill="#fff" fill-rule="evenodd"/><path d="M83.5503 263.789c.509-.766 1.527-2.136 4.281-3.427 1.284-.581 2.955-1.15 5.133-1.622 2.217-.481 4.968-.866 8.356-1.112.09-.209.18-.423.269-.629-3.8.24-6.866.641-9.321 1.159-2.409.51-4.236 1.13-5.633 1.765-2.891 1.372-3.928 2.814-4.447 3.621.454.08.909.164 1.362.245" fill="#fff"/><path d="M95.756 270.7744c-2.292-1.211-4.672-2.446-7.164-3.669-2.569-1.264-5.249-2.515-8.017-3.788.026-.236.054-.472.082-.705 2.8 1.279 5.516 2.53 8.122 3.798 2.523 1.226 4.938 2.47 7.264 3.686-.096.225-.19.452-.287.678" fill="#fff" fill-rule="evenodd"/><path d="M83.754 254.959c-.388 2.604-.773 5.211-1.161 7.818-.388 2.608-.776 5.215-1.163 7.824-.385-.037-.77-.076-1.155-.109.331-2.617.661-5.232.992-7.846.331-2.615.664-5.227.994-7.845.497.055.996.105 1.493.158" fill="#fff" fill-rule="evenodd"/><path d="M98.0298 265.4004c-2.917-.287-5.836-.579-8.75-.868-2.917-.29-5.832-.58-8.747-.868.021-.184.044-.369.065-.551 2.941.291 5.884.585 8.826.879 2.943.293 5.885.585 8.83.879-.075.175-.147.352-.224.529" fill="#fff" fill-rule="evenodd"/><path d="M81.598 265.1328c1.25.123 3.897-.353 4.078-1.237.179-.887-2.315-1.869-3.635-2.001-1.319-.132-.886-.058-1.296-.041-.118 1.023-.237 2.047-.356 3.072.373.094-.041.084 1.209.207" fill="#fdb834" fill-rule="evenodd"/><path d="M81.6714 264.6025c.929.093 2.64-.231 2.748-.831.107-.6-1.486-1.252-2.448-1.349-.961-.096-.908-.042-1.294.008-.074.64-.149 1.277-.224 1.917.353.118.288.163 1.218.255" fill="#8fc640" fill-rule="evenodd"/><path d="M81.4624 266.0664c-.014.179-.026.364-.04.549-.412-.006-.824-.008-1.23-.01.021-.183.042-.368.063-.555.401.005.806.009 1.207.016" fill="#fff" fill-rule="evenodd"/><path d="M81.8154 265.5117c.023.213.044.423.065.637-.539-.047-1.079-.093-1.621-.139.026-.212.05-.415.076-.625.493.04.985.085 1.48.127m1.1026-7.58c-.047.18-.091.359-.138.543-.547-.024-1.088-.053-1.633-.077.021-.183.042-.367.064-.548.567.026 1.137.053 1.707.082m4.3706 1.955c.502-.036 1.005-.075 1.507-.108.888.801 1.759 1.593 2.594 2.392.823.788 1.613 1.584 2.386 2.372-.482.04-.958.078-1.437.12-.785-.789-1.589-1.583-2.422-2.375-.846-.801-1.728-1.597-2.628-2.401" fill="#fff" fill-rule="evenodd"/><path d="M90.2813 255.6416c-.344.747-.683 1.497-1.016 2.246-.334.752-.661 1.503-.986 2.257-.509-.073-1.016-.144-1.524-.216.303-.745.609-1.491.922-2.233.312-.744.632-1.486.958-2.228.548.059 1.097.115 1.646.174" fill="#fff" fill-rule="evenodd"/><path d="M88.0654 259.58c-.078.248-.155.498-.232.748-.922-.278-1.851-.561-2.786-.841-.939-.279-1.884-.565-2.835-.844.053-.253.109-.505.161-.759.962.286 1.921.568 2.871.85.945.28 1.884.565 2.821.846m-5.5684.8546c.092.214.18.429.271.641-.637-.065-1.275-.129-1.91-.192.023-.202.046-.405.069-.606.522.053 1.045.104 1.57.157m3.4776 8.9687c.068-.196.135-.396.206-.596 1.307.079 2.615.159 3.923.238 1.31.083 2.625.166 3.944.244.278.195.561.386.839.582-1.493-.08-2.988-.159-4.475-.238-1.48-.077-2.96-.15-4.437-.23" fill="#fff" fill-rule="evenodd"/><path d="M88.733 269.3857c.523-.021 1.048-.038 1.574-.052.524.749 1.032 1.499 1.52 2.246-.558-.054-1.114-.106-1.67-.157-.46-.678-.933-1.355-1.424-2.037m-4.526-2.367c.06-.204.124-.405.184-.604.864.1 1.729.205 2.592.306.862.101 1.726.201 2.591.306.305.195.611.39.915.591-1.046-.102-2.095-.202-3.142-.303-1.045-.101-2.094-.199-3.14-.296" fill="#fff" fill-rule="evenodd"/><path d="M87.6606 271.1865c-.32-.58-.649-1.162-.988-1.744.726.036 1.453.073 2.184.113.446.622.878 1.246 1.301 1.867-.834-.081-1.666-.157-2.497-.236" fill="#d4cbba" fill-rule="evenodd"/><path d="M99.562 261.787c-1.472.163-2.931.326-4.376.495-1.43.169-2.85.344-4.258.518-.173-.18-.348-.357-.524-.536 1.531-.188 3.079-.377 4.639-.556 1.573-.181 3.171-.36 4.778-.536-.087.206-.173.409-.259.615" fill="#fff" fill-rule="evenodd"/><path d="M92.584 258.2607c.429-.059.864-.117 1.296-.171 1.182 1.236 2.314 2.466 3.396 3.685-.423.058-.841.119-1.261.176-1.096-1.224-2.237-2.453-3.431-3.69" fill="#fff" fill-rule="evenodd"/><path d="M100.3857 259.836c-1.63.224-3.243.451-4.841.682-.227-.196-.453-.389-.681-.584.954-.138 1.914-.273 2.879-.407.976-.134 1.956-.265 2.942-.396-.098.233-.196.47-.299.705" fill="#fff" fill-rule="evenodd"/><path d="M96.1685 257.6543c.46-.04.918-.085 1.38-.123.764.768 1.509 1.529 2.233 2.288-.45.045-.904.085-1.352.132-.734-.767-1.488-1.529-2.261-2.297" fill="#fff" fill-rule="evenodd"/><path d="M95.54 259.838c-.42-.45-.848-.904-1.28-1.357 0 0 .62-.116 1.155-.2.533-.08 1.208-.177 1.208-.177.465.464.92.926 1.372 1.39-.822.113-1.64.229-2.455.344" fill="#8fc640" fill-rule="evenodd"/><path d="M80.8188 266.0557c-.187-.016-.372-.034-.559-.046 0 .012-.002.025-.004.041.187 0 .373.003.563.005" fill="#d4cbba" fill-rule="evenodd"/><path d="M96.0425 270.0967l-4.674-2.403.929-2.862 5.732.569-1.987 4.696z" fill="#8fc640" fill-rule="evenodd"/><path d="M90.6367 267.542l1.054-2.879.755.095-1.102 3.133-.707-.349z" fill="#fff" fill-rule="evenodd"/><path d="M95.756 270.7744l.287-.678c-3.909-2.075-7.904-4.046-11.972-5.928-.246.147-.597.259-.971.336 4.315 2.055 8.532 4.146 12.656 6.27" fill="#fdb834" fill-rule="evenodd"/><path d="M86.501 266.1416c-.844-.41-1.694-.821-2.546-1.229l.039-.009c.845.397 1.681.791 2.507 1.186v.052zm0-.833c-.516-.246-1.034-.487-1.552-.731l-.012.005c.525.247 1.046.49 1.564.738v-.012zm0 .781c.526.252 1.048.506 1.565.758l-.16-.02c-.467-.228-.935-.458-1.405-.686v-.052zm4.518 2.281c-.581-.292-1.164-.583-1.749-.871l.152.015c.537.268 1.069.533 1.597.802v.054zm0-.861c-1.495-.747-3.001-1.48-4.518-2.201v.012c.769.363 1.528.724 2.278 1.09.757.369 1.502.737 2.24 1.105v-.006zm0 .807c.588.298 1.171.597 1.748.894l-.085-.004c-.553-.28-1.107-.56-1.663-.836v-.054zm3.801 1.978v-.012c-.292-.156-.587-.309-.882-.464l-.053-.002c.312.16.623.318.935.478m0-.842c-1.258-.66-2.526-1.305-3.801-1.943v.006c1.294.649 2.561 1.301 3.801 1.943v-.006zm0 .83v.012c.313.159.624.32.936.48-.311-.163-.622-.329-.936-.492m1.223-.186c-.408-.217-.815-.431-1.223-.644v.006c.41.213.818.427 1.223.638" fill="#fdb834" fill-rule="evenodd"/><path d="M79.7427 263.162c-4.875-.848-9.762-1.592-14.656-2.234l-.099-.691c5.101.655 10.246 1.424 15.447 2.335-.292.182-.53.385-.692.59m.834.155l.007-.057-.007.057z" fill="#ca942f" fill-rule="evenodd"/><path d="M65.087 260.9277l-.099-.69-5.047-2.36-2.153-.364 7.299 3.414zm-14.465 3.415l-.305-.55 15.628 3.067.139.536-15.462-3.053z" fill="#fdb834" fill-rule="evenodd"/><path d="M66.0845 267.3955l-.137-.522 12.691-3.255.08.515-12.634 3.262z" fill="#ca942f" fill-rule="evenodd"/><path d="M85.541 264.162L98.03 265.4l.223-.529s-12.444-1.366-12.644-1.26c-.199.108-.495.508-.068.551m-5.2666 6.3302l1.155.108.81-5.452c-.236.008-.454.002-.641-.015-.293-.029-.496-.051-.637-.067l-.687 5.426z" fill="#fdb834" fill-rule="evenodd"/><path d="M84.0137 263.1543c.625-.775 1.715-1.807 3.817-2.792 1.285-.581 2.955-1.15 5.134-1.622 2.217-.482 4.967-.866 8.356-1.112.09-.209.179-.423.268-.629-3.8.24-6.866.64-9.32 1.159-2.41.51-4.236 1.13-5.633 1.765-1.985.943-3.096 1.918-3.765 2.697.424.134.847.323 1.143.534" fill="#fdb834"/><path d="M58.455 265.8877l8.105 5.372-.08-.705-6.327-4.33-1.698-.337z" fill="#fdb834" fill-rule="evenodd"/><path d="M69.9658 273.1836l-3.406-1.924-.081-.705 4.244 2.418-.757.211z" fill="#ca942f" fill-rule="evenodd"/><path d="M66.6592 271.8027l-13.456-1.644-.246-.539 13.625 1.644.077.539z" fill="#fdb834" fill-rule="evenodd"/><path d="M66.6592 271.8027c-.037-.185-.075-.367-.112-.552 4.512-1.754 9.076-3.483 13.682-5.189-.029.208-.058.415-.087.621-4.494 1.706-8.988 3.414-13.483 5.12" fill="#ca942f" fill-rule="evenodd"/><path d="M80.1895 266.6396l.679.028-.01-.61-.601-.007-.068.589zm-32.2598-8.1132c2.817.945 5.596 1.884 8.321 2.835 2.455.856 4.873 1.727 7.253 2.593-.205.115-.416.219-.632.312-2.195-.803-4.422-1.609-6.684-2.407-2.619-.921-5.289-1.829-7.993-2.747-.089-.195-.178-.391-.265-.586m53.6593-1.5274c-.046.18-.094.361-.14.543-.619-.034-19.454-1.127-20.068-1.156.023-.185.044-.367.065-.549.638.034 19.5 1.13 20.143 1.162" fill="#fdb834" fill-rule="evenodd"/><path d="M58.1738 265.9004c.55-.021 1.323-.054 2.181-.163.868-.108 1.833-.289 2.758-.601.863-.288 1.696-.687 2.4-1.241-.07-.51-.145-1.021-.219-1.533-.734 1.106-1.94 1.783-3.208 2.204-.858.292-1.759.462-2.575.561-.806.096-1.528.13-2.048.15.24.208.476.414.711.623" fill="#fdb834"/><path d="M50.1343 300.603c7.372-8.116 18.631-11.826 22.973-22.701.67-1.674 3.453-10.518 2.862-11.166 0 0 16.589 19.223 8.394 28.835-3.406 3.996-16.467 3.403-23.975 8.592-3.771-.952-7.628-1.628-11.544-2.011.41-.533.838-1.05 1.29-1.549m45.2467 22.816c.004-.186.014-.372.014-.559 0-5.076-3.517-14.204-8.036-17.913l9.899-9.36c4.485 5.487 13.03 22.641 6.784 37.528-2.629-3.487-5.529-6.726-8.661-9.696" fill="#a1cc3a"/><path d="M104.042 333.1147c-.809 1.925-1.86 3.811-3.203 5.63-6.255 8.468-16.551 13.884-27.908 13.884-8.381 0-17.743-4.078-23.145-10.421-5.9-6.926-8.98-16.472-7.171-25.487 1.034-5.154 2.989-10.365 6.229-14.568 3.916.382 7.774 1.058 11.545 2.01-.464.321-.909.66-1.325 1.028-5.001 4.393-8.594 10.499-8.594 17.669 0 12.405 10.056 22.462 22.461 22.462 12.218 0 22.153-9.756 22.45-21.903 3.132 2.97 6.032 6.21 8.661 9.696" fill="#4880c1"/><path d="M85.42 314.787c-1.396-2.155-3.331-3.922-5.618-5.116-2.055-1.074-4.39-1.683-6.871-1.683-8.212 0-14.871 6.659-14.871 14.872 0 8.215 6.659 14.872 14.871 14.872 8.214 0 14.874-6.657 14.874-14.872 0-2.977-.878-5.748-2.385-8.073" fill="#0885ac"/><path d="M160.3945 272.8037c2.071 3.071 3.107 6.47 3.107 10.192 0 4.865-1.643 8.995-4.928 12.393-3.285 3.397-7.257 5.096-11.916 5.096-4.8 0-8.819-1.653-12.057-4.957-3.239-3.305-4.858-7.506-4.858-12.603 0-5.679 2.04-10.171 6.12-13.475 3.193-2.583 6.819-3.875 10.875-3.875 2.332 0 4.523.455 6.574 1.365l-9.195 11.831h11.662l4.616-5.967zm6.108-7.894l8.938-11.554h-11.572l-4.54 5.843c-3.752-2.057-7.935-3.085-12.55-3.085-7.714 0-14.122 2.659-19.225 7.977-5.104 5.317-7.656 11.654-7.656 19.009 0 4.91 1.188 9.42 3.563 13.528 2.376 4.107 5.642 7.371 9.8 9.792 4.156 2.421 8.622 3.631 13.397 3.631 7.289 0 13.548-2.63 18.776-7.891 5.229-5.259 7.843-11.671 7.843-19.235 0-6.96-2.258-12.965-6.774-18.015m14.908 30.478h9.635v-18.293c0-3.561.245-6.034.735-7.418.49-1.386 1.277-2.462 2.362-3.229 1.085-.769 2.421-1.153 4.008-1.153 1.586 0 2.933.378 4.042 1.135 1.108.756 1.93 1.868 2.467 3.334.397 1.094.595 3.433.595 7.017v18.607h9.531v-16.094c0-6.633-.524-11.171-1.571-13.615-1.281-2.979-3.166-5.266-5.656-6.859-2.49-1.594-5.655-2.392-9.496-2.392-4.166 0-7.535.932-10.106 2.793-2.572 1.861-4.381 4.456-5.429 7.785-.745 2.304-1.117 6.493-1.117 12.568v15.814zm41.8935.0003h9.53v-37.982h-9.53v37.982zm4.765 15.64c1.671 0 3.104-.605 4.299-1.815 1.195-1.211 1.793-2.677 1.793-4.399 0-1.699-.592-3.148-1.776-4.346-1.183-1.199-2.599-1.798-4.246-1.798-1.695 0-3.139.611-4.335 1.832-1.195 1.223-1.792 2.706-1.792 4.452 0 1.675.591 3.107 1.775 4.294 1.184 1.187 2.61 1.78 4.282 1.78m50.603-23.32l-7.934-4.364c-1.491 1.559-2.965 2.641-4.421 3.247-1.457.604-3.164.907-5.121.907-3.566 0-6.449-1.062-8.651-3.189-2.202-2.126-3.303-4.851-3.303-8.173 0-3.231 1.06-5.868 3.181-7.913 2.12-2.045 4.905-3.068 8.353-3.068 4.265 0 7.585 1.454 9.962 4.365l7.515-5.146c-4.073-5.298-9.822-7.946-17.246-7.946-6.68 0-11.91 1.977-15.692 5.934-3.783 3.957-5.673 8.588-5.673 13.895 0 3.678.919 7.063 2.758 10.159 1.838 3.095 4.404 5.527 7.698 7.297 3.293 1.767 6.976 2.652 11.049 2.652 3.77 0 7.156-.75 10.159-2.251 3.002-1.502 5.457-3.636 7.366-6.406m8.658 22.3428h9.53v-30.322l14.034 15.659h11.969l-16.362-18.204 18.319-19.779h-11.831l-16.129 17.506v-17.506h-9.53v52.646zm69.4024-8.2738l-7.24-6.389c-2.542 3.538-5.13 5.306-7.764 5.306-1.283 0-2.332-.343-3.147-1.029-.817-.686-1.225-1.461-1.225-2.322s.291-1.676.875-2.443c.792-1.025 3.182-3.224 7.168-6.599 3.73-3.118 5.992-5.085 6.785-5.899 1.982-2.002 3.386-3.917 4.214-5.744.827-1.827 1.241-3.822 1.241-5.987 0-4.212-1.456-7.692-4.368-10.437-2.913-2.748-6.71-4.121-11.393-4.121-3.659 0-6.844.897-9.559 2.689-2.714 1.792-5.038 4.608-6.972 8.448l8.216 4.957c2.472-4.538 5.315-6.807 8.532-6.807 1.678 0 3.088.489 4.231 1.466 1.141.978 1.713 2.107 1.713 3.386 0 1.164-.432 2.327-1.294 3.491-.863 1.164-2.763 2.945-5.701 5.342-5.595 4.562-9.208 8.082-10.84 10.561-1.633 2.478-2.449 4.951-2.449 7.418 0 3.561 1.358 6.615 4.073 9.164 2.715 2.549 6.064 3.823 10.049 3.823 2.563 0 5.003-.594 7.322-1.781 2.318-1.187 4.829-3.351 7.533-6.493m37.703-20.6325c-.63 2.117-1.871 3.84-3.725 5.167-1.853 1.326-4.004 1.989-6.452 1.989-2.657 0-4.989-.745-6.993-2.233-1.259-.932-2.425-2.572-3.497-4.923h20.667zm9.53-7.506h-30.616c.441-2.7 1.623-4.847 3.543-6.441 1.92-1.594 4.369-2.391 7.349-2.391 3.561 0 6.621 1.244 9.181 3.735l8.03-3.77c-2.002-2.84-4.399-4.939-7.192-6.302-2.793-1.361-6.109-2.042-9.949-2.042-5.958 0-10.812 1.879-14.558 5.638-3.748 3.759-5.621 8.466-5.621 14.122 0 5.795 1.868 10.606 5.604 14.436 3.735 3.828 8.419 5.742 14.052 5.742 5.98 0 10.844-1.914 14.591-5.742 3.747-3.83 5.621-8.885 5.621-15.169l-.035-1.816zm25.731 13.93c-2.946 0-5.393-1.042-7.342-3.125-1.948-2.083-2.923-4.754-2.923-8.012 0-3.281.992-5.981 2.975-8.099 1.983-2.118 4.425-3.177 7.324-3.177 2.993 0 5.475 1.041 7.446 3.125 1.971 2.082 2.958 4.811 2.958 8.186 0 3.305-.987 5.981-2.958 8.03-1.971 2.048-4.464 3.072-7.48 3.072m10.019 7.819h9.531v-37.982h-9.531v4.015c-1.86-1.769-3.726-3.043-5.597-3.823-1.871-.78-3.9-1.17-6.084-1.17-4.905 0-9.149 1.903-12.729 5.708-3.579 3.806-5.369 8.536-5.369 14.192 0 5.864 1.732 10.671 5.196 14.418 3.463 3.747 7.67 5.62 12.623 5.62 2.278 0 4.416-.431 6.416-1.291 1.999-.861 3.846-2.153 5.544-3.875v4.188zm16.931.0002h8.17v-4.782c.884 1.885 2.059 3.316 3.525 4.294 1.467.977 3.073 1.466 4.818 1.466 1.233 0 2.525-.327 3.876-.978l-2.968-8.203c-1.117.558-2.037.837-2.758.837-1.467 0-2.706-.907-3.718-2.723-1.012-1.815-1.518-5.376-1.518-10.682l.034-1.851v-15.36h-9.461v37.982zm62.2813-7.6797l-7.935-4.364c-1.491 1.559-2.964 2.641-4.421 3.247-1.457.604-3.164.907-5.121.907-3.565 0-6.449-1.062-8.65-3.189-2.202-2.126-3.304-4.851-3.304-8.173 0-3.231 1.061-5.868 3.182-7.913 2.12-2.045 4.904-3.068 8.353-3.068 4.264 0 7.584 1.454 9.961 4.365l7.516-5.146c-4.073-5.298-9.822-7.946-17.246-7.946-6.681 0-11.911 1.977-15.692 5.934-3.783 3.957-5.673 8.588-5.673 13.895 0 3.678.919 7.063 2.758 10.159 1.837 3.095 4.404 5.527 7.697 7.297 3.293 1.767 6.976 2.652 11.05 2.652 3.77 0 7.156-.75 10.159-2.251 3.002-1.502 5.457-3.636 7.366-6.406m8.623 22.3428h9.461v-18.503c1.861 1.607 3.735 2.811 5.62 3.613 1.886.803 3.794 1.204 5.726 1.204 3.77 0 6.947-1.303 9.531-3.909 2.21-2.258 3.316-5.574 3.316-9.95v-25.101h-9.391v16.653c0 4.398-.209 7.378-.628 8.937-.419 1.559-1.135 2.723-2.148 3.492-1.011.767-2.263 1.151-3.753 1.151-1.931 0-3.589-.64-4.974-1.92-1.385-1.28-2.345-3.025-2.88-5.236-.279-1.141-.419-3.748-.419-7.821v-15.256h-9.461v52.646z" fill="#2c3642"/></g></svg>
