<svg xmlns="http://www.w3.org/2000/svg" width="500" height="200" viewBox="0 0 499.99998 199.99999"><defs><clipPath id="a"><path d="M0 600h600V0H0v600z"/></clipPath></defs><path d="M13.367 114.333l-7.3 15.476 18.494-3.12 16.16 3.79 20.44-2.14-6.71-15.19-15.57 1.46-12.07-3.41-13.43 3.11z" fill="#fff" fill-rule="evenodd"/><path d="M6.067 129.81l35.424.668 5.9-11.66-26.77.63-14.54 10.36z" fill="#edeced" fill-rule="evenodd"/><g clip-path="url(#a)" transform="matrix(.95447 0 0 -.95447 -37.195 373.192)"><path d="M45.325 254.993l36.84-.665 6.205 12.186c-9.27-.22-18.54-.443-27.81-.665l-15.235-10.86" fill="#ecebeb" fill-rule="evenodd"/><path d="M45.325 254.993c12.19-.21 24.377-.42 36.565-.627l6.238 12.152c-9.19-.223-18.378-.444-27.567-.67l-15.23-10.855" fill="#ebeaea" fill-rule="evenodd"/><path d="M45.325 254.993c12.097-.198 24.193-.394 36.29-.59l6.27 12.12c-9.108-.223-18.216-.45-27.324-.674l-15.23-10.86" fill="#eaeae9" fill-rule="evenodd"/><path d="M45.325 254.993c12.006-.186 24.01-.37 36.017-.55l6.3 12.086c-9.026-.23-18.053-.46-27.08-.68l-15.237-10.86" fill="#e9e8e8" fill-rule="evenodd"/><path d="M45.325 254.993c11.914-.17 23.83-.343 35.743-.514 2.11 4.02 4.222 8.03 6.334 12.05l-26.84-.69-15.237-10.86" fill="#e8e7e7" fill-rule="evenodd"/><path d="M45.325 254.993c11.823-.16 23.646-.316 35.468-.476l6.367 12.022-26.6-.69-15.235-10.86" fill="#e7e7e7" fill-rule="evenodd"/><path d="M45.325 254.993c11.73-.147 23.463-.292 35.194-.437l6.39 11.987c-8.79-.23-17.57-.46-26.36-.694l-15.23-10.86" fill="#e6e6e5" fill-rule="evenodd"/><path d="M45.325 254.993l34.92-.4 6.43 11.954c-8.705-.232-17.41-.464-26.114-.698l-15.23-10.86" fill="#e5e5e4" fill-rule="evenodd"/><path d="M45.325 254.993l34.645-.36 6.464 11.92-25.873-.704-15.23-10.86" fill="#e4e4e3" fill-rule="evenodd"/><path d="M45.325 254.993c11.458-.11 22.914-.216 34.37-.323l6.497 11.89-25.63-.71c-5.08-3.62-10.158-7.24-15.237-10.857" fill="#e3e2e2" fill-rule="evenodd"/><path d="M45.325 254.993c11.366-.097 22.73-.192 34.097-.286l6.528 11.855c-8.463-.236-16.926-.474-25.39-.713l-15.235-10.86" fill="#e2e2e1" fill-rule="evenodd"/><path d="M45.325 254.993l33.822-.248c2.187 3.94 4.374 7.88 6.56 11.822-8.382-.238-16.763-.477-25.146-.718l-15.23-10.86" fill="#e1e1e1" fill-rule="evenodd"/><path d="M45.325 254.993c11.183-.07 22.365-.142 33.548-.21l6.593 11.79c-8.3-.24-16.603-.48-24.905-.724l-15.23-10.86" fill="#e0e0e0" fill-rule="evenodd"/><path d="M45.325 254.993c11.09-.06 22.183-.115 33.274-.17l6.62 11.754c-8.22-.242-16.44-.483-24.66-.728l-15.24-10.86" fill="#dededd" fill-rule="evenodd"/><path d="M45.325 254.993l33-.136 6.657 11.726c-8.14-.243-16.28-.49-24.42-.734l-15.237-10.86" fill="#dddddc" fill-rule="evenodd"/><path d="M45.325 254.993l32.726-.097c2.23 3.9 4.46 7.795 6.69 11.693-8.06-.25-16.12-.5-24.18-.74l-15.23-10.86" fill="#dcdcdb" fill-rule="evenodd"/><path d="M45.325 254.993l32.45-.06c2.24 3.887 4.482 7.774 6.723 11.66-7.98-.247-15.958-.495-23.937-.744l-15.23-10.86" fill="#dbdbda" fill-rule="evenodd"/><path d="M45.325 254.993c10.726-.008 21.452-.014 32.177-.02 2.25 3.876 4.503 7.75 6.754 11.624-7.898-.248-15.796-.498-23.695-.748l-15.23-10.86" fill="#dadad9" fill-rule="evenodd"/><path d="M45.325 254.993c10.634.004 21.27.012 31.902.02l6.787 11.59-23.453-.754-15.23-10.86" fill="#d9d9d8" fill-rule="evenodd"/><path d="M45.325 254.993c10.543.02 21.085.036 31.628.054 2.274 3.854 4.545 7.71 6.82 11.56-7.74-.252-15.475-.504-23.212-.758l-15.23-10.86" fill="#d8d8d7" fill-rule="evenodd"/><path d="M45.325 254.993l31.354.092 6.85 11.528-22.97-.764-15.24-10.86" fill="#d6d6d6" fill-rule="evenodd"/><path d="M45.325 254.993c10.36.042 20.72.086 31.08.13 2.295 3.833 4.588 7.665 6.883 11.496-7.575-.26-15.15-.52-22.727-.77l-15.23-10.86" fill="#d5d5d5" fill-rule="evenodd"/><path d="M45.325 254.993c10.268.054 20.537.112 30.806.17l6.92 11.46-22.48-.774-15.23-10.86" fill="#d5d5d4" fill-rule="evenodd"/><path d="M45.325 254.993c10.177.067 20.354.137 30.53.207 2.318 3.808 4.633 7.618 6.95 11.43-7.416-.263-14.83-.52-22.244-.78-5.07-3.62-10.15-7.24-15.23-10.857" fill="#d4d4d3" fill-rule="evenodd"/><path d="M45.325 254.993c10.086.08 20.17.163 30.256.244l6.99 11.397c-7.33-.262-14.67-.522-22-.785l-15.24-10.86" fill="#d3d3d3" fill-rule="evenodd"/><path d="M45.325 254.993c9.995.092 19.988.187 29.983.28 2.337 3.79 4.675 7.577 7.012 11.365-7.253-.262-14.506-.524-21.76-.79l-15.235-10.855" fill="#d2d2d2" fill-rule="evenodd"/><path d="M45.325 254.993l29.708.32 7.045 11.33c-7.172-.263-14.345-.53-21.517-.794l-15.23-10.86" fill="#d1d1d1" fill-rule="evenodd"/><path d="M45.325 254.993c9.812.118 19.623.238 29.434.358 2.35 3.77 4.71 7.54 7.07 11.3l-21.28-.8c-5.08-3.62-10.16-7.24-15.24-10.85" fill="#d0d0cf" fill-rule="evenodd"/><path d="M45.325 254.993c9.72.13 19.44.264 29.16.396l7.11 11.26-21.034-.81c-5.07-3.62-10.15-7.24-15.23-10.86" fill="#cfcfcf" fill-rule="evenodd"/><path d="M45.325 254.993c9.628.145 19.257.287 28.886.434 2.38 3.744 4.76 7.488 7.15 11.23-6.93-.267-13.86-.537-20.79-.808l-15.24-10.86" fill="#cececd" fill-rule="evenodd"/><path d="M45.325 254.993c9.537.157 19.074.313 28.61.472 2.393 3.732 4.784 7.465 7.175 11.2l-20.55-.816-15.235-10.86" fill="#cdcccc" fill-rule="evenodd"/><path d="M45.325 254.993l28.337.51 7.206 11.165c-6.77-.272-13.538-.544-20.307-.82l-15.23-10.855" fill="#cccbcb" fill-rule="evenodd"/><path d="M45.325 254.993c9.354.182 18.708.364 28.062.548l7.24 11.14c-6.69-.27-13.377-.55-20.066-.82-5.07-3.62-10.15-7.24-15.23-10.85" fill="#cbcaca" fill-rule="evenodd"/><path d="M45.325 254.993c9.263.193 18.525.39 27.79.586 2.422 3.69 4.846 7.4 7.27 11.09-6.608-.28-13.216-.55-19.824-.83l-15.23-10.85" fill="#cac9c9" fill-rule="evenodd"/><path d="M45.325 254.993c9.17.207 18.343.415 27.514.624 2.43 3.69 4.86 7.376 7.3 11.065-6.53-.276-13.06-.554-19.58-.833l-15.24-10.86" fill="#c8c8c8" fill-rule="evenodd"/><path d="M45.325 254.993l27.24.66c2.445 3.68 4.89 7.36 7.336 11.035-6.44-.28-12.89-.557-19.34-.84l-15.23-10.855" fill="#c8c8c8" fill-rule="evenodd"/><path d="M45.325 254.993c8.988.23 17.978.466 26.965.7l7.368 11c-6.365-.28-12.73-.56-19.097-.844l-15.23-10.86" fill="#c6c6c6" fill-rule="evenodd"/><path d="M45.325 254.993c8.897.244 17.794.49 26.69.737 2.468 3.658 4.935 7.31 7.4 10.966l-18.854-.847-15.23-10.86" fill="#c6c5c5" fill-rule="evenodd"/><path d="M45.325 254.993c8.806.258 17.61.515 26.417.775l7.432 10.934c-6.203-.282-12.41-.568-18.613-.853l-15.23-10.86" fill="#c5c4c4" fill-rule="evenodd"/><path d="M45.325 254.993l26.143.812c2.488 3.636 4.977 7.268 7.464 10.904l-18.37-.86-15.237-10.86" fill="#c4c3c3" fill-rule="evenodd"/><path d="M45.325 254.993c8.623.28 17.246.565 25.87.85l7.495 10.87c-6.043-.287-12.086-.574-18.13-.864l-15.235-10.86" fill="#c1c1c1" fill-rule="evenodd"/><path d="M45.325 254.993c8.532.296 17.063.592 25.594.89l7.53 10.835c-5.97-.287-11.93-.58-17.89-.87l-15.24-10.855" fill="silver" fill-rule="evenodd"/><path d="M45.325 254.993c8.44.308 16.88.616 25.32.927 2.52 3.6 5.04 7.202 7.562 10.802-5.882-.29-11.764-.58-17.646-.873l-15.23-10.86" fill="#bfbfbf" fill-rule="evenodd"/><path d="M45.325 254.993c8.35.32 16.697.643 25.046.965l7.6 10.77c-5.8-.292-11.6-.587-17.4-.88l-15.24-10.855" fill="#bfbebe" fill-rule="evenodd"/><path d="M45.325 254.993c8.257.332 16.515.667 24.77 1l7.627 10.74-17.16-.884-15.237-10.86" fill="#bebdbd" fill-rule="evenodd"/><path d="M45.325 254.993l24.498 1.04c2.552 3.57 5.105 7.138 7.658 10.703-5.64-.294-11.28-.59-16.92-.887l-15.23-10.86" fill="#bdbcbc" fill-rule="evenodd"/><path d="M45.325 254.993c8.075.358 16.148.72 24.223 1.077 2.563 3.56 5.128 7.117 7.69 10.672-5.56-.296-11.118-.594-16.677-.893l-15.23-10.86" fill="#bbbbbc" fill-rule="evenodd"/><path d="M45.325 254.993c7.982.37 15.966.743 23.95 1.116 2.573 3.54 5.147 7.09 7.722 10.64l-16.436-.9-15.23-10.86" fill="#bababb" fill-rule="evenodd"/><path d="M45.325 254.993c7.892.383 15.783.767 23.674 1.154l7.75 10.606c-5.4-.3-10.8-.6-16.2-.904l-15.23-10.86" fill="#b9b9ba" fill-rule="evenodd"/><path d="M45.325 254.993c7.8.396 15.6.793 23.4 1.192l7.788 10.573c-5.317-.3-10.634-.606-15.952-.91l-15.23-10.855" fill="#b9b8b9" fill-rule="evenodd"/><path d="M45.325 254.993c7.71.41 15.418.817 23.126 1.23 2.61 3.512 5.22 7.026 7.82 10.54l-15.71-.914-15.23-10.86" fill="#b8b7b8" fill-rule="evenodd"/><path d="M45.325 254.993c7.618.42 15.234.844 22.85 1.267 2.62 3.502 5.236 7.005 7.854 10.506-5.16-.303-10.32-.61-15.47-.917l-15.24-10.86" fill="#b7b7b7" fill-rule="evenodd"/><path d="M45.325 254.993l22.578 1.305 7.883 10.475-15.225-.924-15.23-10.86" fill="#b5b5b6" fill-rule="evenodd"/><path d="M45.325 254.993c7.435.447 14.87.895 22.303 1.344 2.64 3.48 5.278 6.96 7.917 10.442l-14.984-.93-15.23-10.86" fill="#b4b4b5" fill-rule="evenodd"/><path d="M45.325 254.993l22.03 1.38 7.947 10.41c-4.913-.31-9.827-.62-14.74-.934l-15.237-10.86" fill="#b3b3b4" fill-rule="evenodd"/><path d="M45.325 254.993l21.755 1.418 7.98 10.38-14.5-.94c-5.078-3.62-10.156-7.24-15.235-10.85" fill="#b3b2b3" fill-rule="evenodd"/><path d="M45.325 254.993c7.16.485 14.32.97 21.48 1.458l8.013 10.35-14.257-.94c-5.07-3.62-10.15-7.24-15.23-10.85" fill="#b2b2b2" fill-rule="evenodd"/><path d="M45.325 254.993l21.207 1.494 8.045 10.31c-4.672-.315-9.344-.63-14.016-.948l-15.23-10.86" fill="#b1b1b1" fill-rule="evenodd"/><path d="M45.325 254.993c6.977.51 13.954 1.02 20.932 1.532 2.693 3.428 5.386 6.85 8.078 10.278-4.59-.32-9.183-.635-13.774-.954l-15.23-10.86" fill="#b0b0b0" fill-rule="evenodd"/><path d="M45.325 254.993c6.886.52 13.77 1.045 20.658 1.57l8.11 10.245c-4.51-.32-9.02-.637-13.532-.96l-15.23-10.855" fill="#aeaeaf" fill-rule="evenodd"/><path d="M45.325 254.993c6.794.536 13.588 1.07 20.383 1.61 2.714 3.403 5.43 6.807 8.142 10.21-4.43-.32-8.86-.64-13.29-.964l-15.235-10.86" fill="#aeaeae" fill-rule="evenodd"/><path d="M45.325 254.993l20.11 1.646c2.724 3.39 5.45 6.78 8.174 10.18-4.35-.33-8.7-.65-13.05-.97l-15.24-10.86" fill="#adadad" fill-rule="evenodd"/><path d="M45.325 254.993c6.61.56 13.224 1.122 19.834 1.685l8.2 10.145-12.81-.974-15.24-10.86" fill="#acacac" fill-rule="evenodd"/><path d="M45.325 254.993c6.52.57 13.04 1.146 19.56 1.723 2.747 3.37 5.494 6.743 8.24 10.11-4.188-.323-8.376-.65-12.564-.977l-15.23-10.86" fill="#ababab" fill-rule="evenodd"/><path d="M45.325 254.993l19.286 1.76 8.28 10.08c-4.1-.328-8.21-.654-12.32-.984l-15.24-10.86" fill="#aaa" fill-rule="evenodd"/><path d="M45.325 254.993l19.012 1.797 8.304 10.048c-4.02-.33-8.05-.657-12.08-.99l-15.23-10.855" fill="#a9a9a9" fill-rule="evenodd"/><path d="M45.325 254.993c6.246.61 12.492 1.223 18.737 1.835l8.337 10.016c-3.95-.33-7.9-.662-11.84-.995l-15.24-10.86" fill="#a8a8a8" fill-rule="evenodd"/><path d="M45.325 254.993c6.154.624 12.31 1.25 18.463 1.873l8.37 9.98-11.597-.997-15.23-10.86" fill="#a5a5a5" fill-rule="evenodd"/><path d="M45.325 254.993c6.062.637 12.126 1.272 18.19 1.912l8.4 9.948-11.354-1.004-15.23-10.86" fill="#a4a4a4" fill-rule="evenodd"/><path d="M45.325 254.993c5.972.648 11.943 1.3 17.915 1.947 2.81 3.307 5.623 6.613 8.433 9.917-3.704-.335-7.408-.67-11.112-1.008l-15.23-10.86" fill="#a3a3a3" fill-rule="evenodd"/><path d="M45.325 254.993c5.88.66 11.76 1.325 17.64 1.986 2.823 3.29 5.645 6.59 8.466 9.88-3.62-.34-7.24-.68-10.87-1.01l-15.23-10.86" fill="#a2a2a3" fill-rule="evenodd"/><path d="M45.325 254.993l17.366 2.024c2.84 3.285 5.67 6.57 8.5 9.85-3.54-.338-7.08-.677-10.63-1.018l-15.23-10.86" fill="#a2a1a1" fill-rule="evenodd"/><path d="M45.325 254.993l17.092 2.063 8.53 9.816-10.386-1.023-15.23-10.86" fill="#a1a0a0" fill-rule="evenodd"/><path d="M45.325 254.993l16.818 2.1c2.853 3.263 5.708 6.523 8.562 9.785l-10.144-1.03-15.23-10.855" fill="#a0a09f" fill-rule="evenodd"/><path d="M45.325 254.993c5.515.71 11.03 1.425 16.543 2.14l8.595 9.748c-3.3-.34-6.6-.68-9.902-1.03-5.07-3.62-10.15-7.24-15.23-10.85" fill="#9d9e9e" fill-rule="evenodd"/><path d="M45.325 254.993l16.27 2.176 8.626 9.71c-3.22-.35-6.44-.69-9.66-1.04l-15.23-10.85" fill="#9d9d9d" fill-rule="evenodd"/><path d="M45.325 254.993c5.332.737 10.663 1.477 15.995 2.214l8.66 9.684c-3.14-.34-6.28-.69-9.42-1.04-5.078-3.62-10.156-7.24-15.235-10.85" fill="#9c9c9c" fill-rule="evenodd"/><path d="M45.325 254.993c5.24.75 10.48 1.5 15.72 2.252 2.897 3.218 5.795 6.436 8.693 9.652-3.06-.348-6.118-.697-9.177-1.048l-15.23-10.86" fill="#9b9b9b" fill-rule="evenodd"/><path d="M45.325 254.993l15.446 2.29 8.73 9.62-8.93-1.054-15.23-10.86" fill="#99999a" fill-rule="evenodd"/><path d="M45.325 254.993c5.058.775 10.115 1.55 15.172 2.33 2.92 3.194 5.838 6.39 8.757 9.584-2.898-.352-5.796-.704-8.693-1.058l-15.23-10.86" fill="#999" fill-rule="evenodd"/><path d="M45.325 254.993l14.897 2.365 8.79 9.554-8.45-1.063-15.237-10.86z" fill="#989898" fill-rule="evenodd"/><path d="M81.623 254.183l20.344-.582-4.15 7.9-14.65-.33-1.544-6.98z" fill="#edeced" fill-rule="evenodd"/><path d="M81.623 254.183l20.173-.558-4.11 7.873c-4.84-.11-9.678-.222-14.518-.334l-1.545-6.98" fill="#ecebeb" fill-rule="evenodd"/><path d="M81.623 254.183l20.003-.53-4.073 7.85-14.385-.34c-.516-2.326-1.03-4.653-1.545-6.98" fill="#ebeaea" fill-rule="evenodd"/><path d="M81.623 254.183c6.61-.17 13.222-.338 19.833-.505-1.345 2.61-2.69 5.22-4.036 7.828-4.75-.114-9.502-.227-14.252-.342l-1.545-6.98" fill="#eaeae9" fill-rule="evenodd"/><path d="M81.623 254.183l19.662-.48-3.998 7.808c-4.707-.11-9.413-.22-14.12-.34l-1.544-6.98" fill="#e9e8e8" fill-rule="evenodd"/><path d="M81.623 254.183c6.498-.153 12.995-.304 19.493-.455-1.32 2.595-2.642 5.19-3.96 7.787l-13.988-.35-1.545-6.982" fill="#e8e7e7" fill-rule="evenodd"/><path d="M81.623 254.183c6.44-.143 12.88-.285 19.323-.43-1.31 2.588-2.617 5.177-3.925 7.766l-13.85-.36-1.54-6.98" fill="#e7e7e7" fill-rule="evenodd"/><path d="M81.623 254.183l19.152-.404-3.887 7.74-13.72-.36-1.545-6.98" fill="#e6e6e5" fill-rule="evenodd"/><path d="M81.623 254.183l18.98-.378-3.848 7.723-13.587-.364-1.545-6.98" fill="#e5e5e4" fill-rule="evenodd"/><path d="M81.623 254.183l18.81-.352-3.81 7.7-13.455-.36-1.545-6.98" fill="#e4e4e3" fill-rule="evenodd"/><path d="M81.623 254.183c6.213-.11 12.427-.22 18.64-.328l-3.774 7.68-13.33-.37-1.55-6.982" fill="#e3e2e2" fill-rule="evenodd"/><path d="M81.623 254.183c6.157-.1 12.314-.2 18.47-.302-1.245 2.56-2.49 5.11-3.737 7.66l-13.188-.37-1.545-6.98" fill="#e2e2e1" fill-rule="evenodd"/><path d="M81.623 254.183c6.1-.092 12.2-.186 18.3-.277l-3.7 7.637c-4.35-.128-8.704-.254-13.055-.38-.516-2.326-1.03-4.653-1.545-6.98" fill="#e1e1e1" fill-rule="evenodd"/><path d="M81.623 254.183l18.13-.252-3.662 7.62-12.92-.38-1.54-6.98" fill="#e0e0e0" fill-rule="evenodd"/><path d="M81.623 254.183c5.986-.076 11.973-.15 17.96-.228-1.208 2.533-2.417 5.064-3.626 7.596l-12.79-.38-1.544-6.98" fill="#dededd" fill-rule="evenodd"/><path d="M81.623 254.183c5.93-.065 11.86-.135 17.79-.2l-3.588 7.572-12.657-.39-1.545-6.982" fill="#dddddc" fill-rule="evenodd"/><path d="M81.623 254.183l17.62-.175c-1.184 2.517-2.368 5.034-3.55 7.552-4.176-.134-8.35-.265-12.525-.396l-1.545-6.98" fill="#dcdcdb" fill-rule="evenodd"/><path d="M81.623 254.183c5.816-.05 11.632-.1 17.448-.148l-3.51 7.528-12.39-.4-1.54-6.98" fill="#dbdbda" fill-rule="evenodd"/><path d="M81.623 254.183l17.278-.124-3.47 7.5c-4.08-.14-8.17-.27-12.26-.41l-1.54-6.98" fill="#dadad9" fill-rule="evenodd"/><path d="M81.623 254.183c5.703-.032 11.405-.065 17.107-.1-1.145 2.498-2.29 4.992-3.437 7.488-4.04-.13-8.083-.27-12.125-.4l-1.545-6.98" fill="#d9d9d8" fill-rule="evenodd"/><path d="M81.623 254.183l16.937-.072-3.4 7.47-11.992-.41-1.545-6.98" fill="#d8d8d7" fill-rule="evenodd"/><path d="M81.623 254.183c5.59-.016 11.178-.032 16.767-.046-1.12 2.48-2.242 4.96-3.362 7.442l-11.86-.42-1.545-6.98" fill="#d6d6d6" fill-rule="evenodd"/><path d="M81.623 254.183c5.532-.008 11.064-.014 16.597-.02-1.11 2.472-2.217 4.947-3.325 7.42-3.91-.138-7.818-.278-11.727-.42-.516-2.326-1.03-4.653-1.545-6.98" fill="#d5d5d5" fill-rule="evenodd"/><path d="M81.623 254.183l16.427.002c-1.096 2.47-2.192 4.936-3.288 7.402-3.865-.14-7.73-.282-11.594-.423l-1.545-6.98" fill="#d5d5d4" fill-rule="evenodd"/><path d="M81.623 254.183c5.418.01 10.837.02 16.257.028l-3.25 7.39c-3.82-.14-7.642-.28-11.462-.43l-1.545-6.98" fill="#d4d4d3" fill-rule="evenodd"/><path d="M81.623 254.183c5.36.02 10.724.037 16.086.055-1.07 2.452-2.15 4.906-3.22 7.357-3.78-.142-7.55-.286-11.33-.43l-1.55-6.982" fill="#d3d3d3" fill-rule="evenodd"/><path d="M81.623 254.183l15.916.08-3.18 7.337-11.2-.436-1.55-6.98" fill="#d2d2d2" fill-rule="evenodd"/><path d="M81.623 254.183l15.746.105-3.14 7.315c-3.69-.145-7.38-.292-11.07-.44l-1.55-6.98" fill="#d1d1d1" fill-rule="evenodd"/><path d="M81.623 254.183l15.575.13-3.1 7.295c-3.644-.148-7.287-.294-10.93-.444l-1.545-6.98" fill="#d0d0cf" fill-rule="evenodd"/><path d="M81.623 254.183l15.405.157-3.064 7.272-10.796-.448-1.545-6.98" fill="#cfcfcf" fill-rule="evenodd"/><path d="M81.623 254.183l15.235.182c-1.008 2.418-2.018 4.833-3.026 7.25l-10.664-.45-1.545-6.982" fill="#cececd" fill-rule="evenodd"/><path d="M81.623 254.183l15.064.208-2.988 7.23-10.54-.45-1.55-6.98" fill="#cdcccc" fill-rule="evenodd"/><path d="M81.623 254.183l14.894.232c-.984 2.404-1.967 4.807-2.952 7.208-3.465-.152-6.93-.303-10.397-.46-.516-2.326-1.03-4.653-1.545-6.98" fill="#cccbcb" fill-rule="evenodd"/><path d="M81.623 254.183c4.908.085 9.816.17 14.724.26-.972 2.393-1.943 4.79-2.914 7.184-3.42-.153-6.844-.307-10.265-.463l-1.545-6.98" fill="#cbcaca" fill-rule="evenodd"/><path d="M81.623 254.183c4.852.096 9.702.19 14.553.284l-2.876 7.165c-3.377-.155-6.755-.31-10.132-.468l-1.545-6.98" fill="#cac9c9" fill-rule="evenodd"/><path d="M81.623 254.183l14.383.31c-.946 2.382-1.892 4.763-2.84 7.142l-9.998-.47-1.545-6.982" fill="#c8c8c8" fill-rule="evenodd"/><path d="M81.623 254.183c4.738.11 9.475.225 14.212.335l-2.8 7.122c-3.29-.157-6.578-.316-9.867-.476l-1.545-6.98" fill="#c8c8c8" fill-rule="evenodd"/><path d="M81.623 254.183l14.043.36-2.765 7.103c-3.24-.16-6.48-.32-9.73-.482l-1.54-6.98" fill="#c6c6c6" fill-rule="evenodd"/><path d="M81.623 254.183c4.624.13 9.248.26 13.873.388-.91 2.36-1.82 4.72-2.727 7.08l-9.61-.48-1.55-6.98" fill="#c6c5c5" fill-rule="evenodd"/><path d="M81.623 254.183c4.567.138 9.135.274 13.702.41l-2.69 7.06c-3.156-.162-6.312-.325-9.467-.49l-1.545-6.98" fill="#c5c4c4" fill-rule="evenodd"/><path d="M81.623 254.183c4.51.146 9.02.292 13.53.436l-2.65 7.03-9.335-.49-1.545-6.98" fill="#c4c3c3" fill-rule="evenodd"/><path d="M81.623 254.183l13.36.463-2.613 7.016-9.202-.498-1.545-6.98" fill="#c1c1c1" fill-rule="evenodd"/><path d="M81.623 254.183l13.19.487-2.576 6.996-9.07-.502-1.544-6.98" fill="silver" fill-rule="evenodd"/><path d="M81.623 254.183c4.34.17 8.68.343 13.02.512-.846 2.325-1.692 4.65-2.54 6.975-2.977-.17-5.956-.337-8.935-.506l-1.545-6.98" fill="#bfbfbf" fill-rule="evenodd"/><path d="M81.623 254.183l12.85.538-2.5 6.96-8.805-.51-1.545-6.98" fill="#bfbebe" fill-rule="evenodd"/><path d="M81.623 254.183c4.226.187 8.453.377 12.68.564l-2.464 6.93c-2.9-.17-5.79-.342-8.68-.513l-1.55-6.98" fill="#bebdbd" fill-rule="evenodd"/><path d="M81.623 254.183c4.17.195 8.34.394 12.51.59-.81 2.302-1.618 4.606-2.428 6.91l-8.537-.52c-.516-2.326-1.03-4.653-1.545-6.98" fill="#bdbcbc" fill-rule="evenodd"/><path d="M81.623 254.183c4.113.206 8.226.41 12.34.615-.797 2.295-1.594 4.59-2.39 6.888-2.803-.174-5.604-.35-8.405-.522l-1.545-6.98" fill="#bbbbbc" fill-rule="evenodd"/><path d="M81.623 254.183l12.17.642c-.786 2.288-1.57 4.577-2.354 6.866l-8.28-.52-1.55-6.98" fill="#bababb" fill-rule="evenodd"/><path d="M81.623 254.183c4 .222 8 .443 12 .667l-2.316 6.844c-2.713-.175-5.426-.353-8.14-.53l-1.544-6.98" fill="#b9b9ba" fill-rule="evenodd"/><path d="M81.623 254.183c3.943.23 7.885.462 11.828.693l-2.27 6.824-8-.54-1.54-6.98" fill="#b9b8b9" fill-rule="evenodd"/><path d="M81.623 254.183c3.886.238 7.772.48 11.657.718l-2.24 6.81-7.872-.54-1.545-6.98" fill="#b8b7b8" fill-rule="evenodd"/><path d="M81.623 254.183c3.83.248 7.66.496 11.487.74l-2.2 6.783c-2.582-.18-5.162-.36-7.742-.542l-1.545-6.98" fill="#b7b7b7" fill-rule="evenodd"/><path d="M81.623 254.183l11.318.768-2.16 6.76-7.6-.54-1.54-6.98" fill="#b5b5b6" fill-rule="evenodd"/><path d="M81.623 254.183c3.716.265 7.432.528 11.148.794-.71 2.245-1.41 4.49-2.12 6.737l-7.47-.55-1.54-6.98" fill="#b4b4b5" fill-rule="evenodd"/><path d="M81.623 254.183L92.6 255l-2.09 6.718-7.342-.554-1.545-6.98" fill="#b3b3b4" fill-rule="evenodd"/><path d="M81.623 254.183c3.603.28 7.205.562 10.807.845-.684 2.23-1.37 4.462-2.054 6.695-2.403-.186-4.806-.37-7.208-.56l-1.545-6.98" fill="#b3b2b3" fill-rule="evenodd"/><path d="M81.623 254.183l10.636.87-2.02 6.673-7.08-.562-1.55-6.98" fill="#b2b2b2" fill-rule="evenodd"/><path d="M81.623 254.183c3.49.3 6.977.597 10.466.896l-1.98 6.65-6.95-.57-1.55-6.98" fill="#b1b1b1" fill-rule="evenodd"/><path d="M81.623 254.183c3.432.307 6.864.615 10.296.92l-1.95 6.632-6.81-.57-1.55-6.982" fill="#b0b0b0" fill-rule="evenodd"/><path d="M81.623 254.183c3.375.317 6.75.63 10.125.945-.634 2.204-1.27 4.407-1.903 6.61-2.226-.19-4.45-.382-6.677-.574l-1.545-6.98" fill="#aeaeaf" fill-rule="evenodd"/><path d="M81.623 254.183c3.318.325 6.637.65 9.955.972-.622 2.195-1.244 4.39-1.865 6.588l-6.545-.58-1.545-6.98" fill="#aeaeae" fill-rule="evenodd"/><path d="M81.623 254.183l9.785.998-1.83 6.57c-2.137-.19-4.273-.39-6.41-.58l-1.545-6.98" fill="#adadad" fill-rule="evenodd"/><path d="M81.623 254.183c3.205.34 6.41.682 9.615 1.024l-1.792 6.543-6.278-.586-1.545-6.98" fill="#acacac" fill-rule="evenodd"/><path d="M81.623 254.183l9.444 1.05-1.754 6.522c-2.048-.198-4.097-.393-6.145-.59l-1.545-6.982" fill="#ababab" fill-rule="evenodd"/><path d="M81.623 254.183l9.273 1.074c-.57 2.166-1.143 4.334-1.715 6.5-2-.196-4-.393-6.01-.593l-1.54-6.98" fill="#aaa" fill-rule="evenodd"/><path d="M81.623 254.183l9.104 1.098-1.68 6.49-5.88-.6-1.544-6.98" fill="#a9a9a9" fill-rule="evenodd"/><path d="M81.623 254.183l8.933 1.124-1.64 6.46c-1.917-.2-3.832-.4-5.748-.603l-1.545-6.98" fill="#a8a8a8" fill-rule="evenodd"/><path d="M81.623 254.183l8.763 1.15c-.535 2.146-1.07 4.29-1.604 6.438l-5.614-.6-1.545-6.98" fill="#a5a5a5" fill-rule="evenodd"/><path d="M81.623 254.183c2.864.39 5.73.784 8.592 1.175-.522 2.14-1.043 4.28-1.566 6.417l-5.49-.61-1.55-6.982" fill="#a4a4a4" fill-rule="evenodd"/><path d="M81.623 254.183l8.422 1.2-1.53 6.396-5.347-.62-1.545-6.98" fill="#a3a3a3" fill-rule="evenodd"/><path d="M81.623 254.183l8.252 1.228-1.492 6.38c-1.738-.2-3.476-.41-5.215-.62l-1.545-6.98" fill="#a2a2a3" fill-rule="evenodd"/><path d="M81.623 254.183l8.082 1.252-1.455 6.352-5.082-.623-1.545-6.98" fill="#a2a1a1" fill-rule="evenodd"/><path d="M81.623 254.183c2.637.426 5.274.853 7.91 1.277-.47 2.11-.943 4.22-1.415 6.33-1.65-.21-3.3-.417-4.95-.626l-1.545-6.98" fill="#a1a0a0" fill-rule="evenodd"/><path d="M81.623 254.183c2.58.436 5.16.87 7.74 1.304l-1.38 6.308c-1.604-.21-3.21-.422-4.815-.63l-1.545-6.982" fill="#a0a09f" fill-rule="evenodd"/><path d="M81.623 254.183c2.523.443 5.046.887 7.57 1.328l-1.34 6.29-4.685-.63-1.545-6.98" fill="#9d9e9e" fill-rule="evenodd"/><path d="M81.623 254.183l7.4 1.354-1.304 6.266c-1.52-.21-3.04-.425-4.56-.64l-1.55-6.98" fill="#9d9d9d" fill-rule="evenodd"/><path d="M81.623 254.183l7.23 1.38-1.267 6.244c-1.473-.214-2.945-.43-4.418-.643l-1.545-6.98" fill="#9c9c9c" fill-rule="evenodd"/><path d="M81.623 254.183l7.06 1.405-1.23 6.223-4.285-.64-1.545-6.98" fill="#9b9b9b" fill-rule="evenodd"/><path d="M81.623 254.183c2.297.48 4.593.953 6.89 1.43l-1.193 6.202c-1.384-.215-2.768-.434-4.152-.65l-1.545-6.982" fill="#99999a" fill-rule="evenodd"/><path d="M81.623 254.183l6.72 1.457-1.156 6.18c-1.34-.22-2.68-.44-4.02-.656l-1.544-6.98" fill="#999" fill-rule="evenodd"/><path d="M81.623 254.183l6.55 1.48-1.12 6.16-3.885-.66-1.545-6.98z" fill="#989898" fill-rule="evenodd"/><path d="M79.7 270.996l16.368 1.535 7.117-16.09-21.56-2.25-16.925 3.97-19.538-3.29 7.746 16.42 14.138 3.28L79.7 271z" fill="#c8c8c8" fill-rule="evenodd"/><path d="M64.7 258.255c-3.23-.546-6.46-1.088-9.69-1.634L45.325 255l3.825 8.104 3.823 8.108c2.344.546 4.69 1.09 7.034 1.634 2.345.54 4.692 1.09 7.04 1.63-.393-2.7-.784-5.406-1.176-8.11l-1.17-8.103" fill="#fff" fill-rule="evenodd"/><path d="M64.764 258.697c-3.028-.513-6.055-1.025-9.08-1.54-3.024-.512-6.05-1.026-9.075-1.54l3.47 7.66 3.47 7.666 6.71 1.54c2.23.513 4.47 1.028 6.71 1.54l-1.11-7.664-1.11-7.67" fill="#e4ddd7" fill-rule="evenodd"/><path d="M65.082 260.925a358.706 358.706 0 0 0-3.582-1.708 427.886 427.886 0 0 0-3.713-1.703l2.154.364c.86.39 1.72.784 2.56 1.177.84.39 1.67.788 2.5 1.183.04.23.07.46.1.687m.94 6.485c-2.58-.51-5.15-1.026-7.73-1.54-2.57-.514-5.15-1.025-7.73-1.54l-.24-.537 7.82 1.54c2.61.514 5.21 1.028 7.82 1.54.03.178.05.358.08.538" fill="#fff" fill-rule="evenodd"/><path d="M65.945 266.86c-.732 0-1.458.007-2.176.012-.25-.195-.5-.383-.74-.573.93-.01 1.88-.02 2.83-.02.03.19.05.38.08.58m-2.73-7.55c.27.19.54.38.82.57-1.89.16-3.75.33-5.57.5-1.79.16-3.53.33-5.24.5-.29-.2-.58-.39-.87-.58 1.72-.17 3.47-.34 5.26-.5 1.82-.17 3.68-.34 5.58-.5" fill="#fff" fill-rule="evenodd"/><path d="M57.346 260.41c.113-.14.228-.275.342-.412a480.093 480.093 0 0 1 7.675 2.848l.022.14c-.104.106-.204.212-.304.318-1.26-.484-2.53-.97-3.81-1.45-1.29-.485-2.6-.962-3.92-1.444m-7.95 1.357a1059.52 1059.52 0 0 1 11.49 3.188c0 .17 0 .34.01.51-1.84-.525-3.69-1.055-5.56-1.577-1.88-.525-3.77-1.05-5.67-1.573l-.25-.548" fill="#fff" fill-rule="evenodd"/><path d="M58.54 262.387c.27.19.54.38.81.572-.7.12-1.39.25-2.07.38-.67.12-1.337.25-1.99.38-.28-.19-.555-.39-.83-.57.658-.13 1.327-.26 2.003-.39.68-.13 1.375-.26 2.076-.38m8.12 9.41l-6.84-.82c-2.23-.28-4.44-.55-6.62-.83-.08-.18-.16-.36-.25-.54l6.7.82c2.28.27 4.59.55 6.92.82l.07.54" fill="#fff" fill-rule="evenodd"/><path d="M58.696 266.008c.097-.14.194-.276.294-.412 1.316.827 2.61 1.646 3.867 2.478 1.24.823 2.442 1.653 3.623 2.48l.104.724a163.914 163.914 0 0 0-3.806-2.635 174.923 174.923 0 0 0-4.082-2.635" fill="#fff" fill-rule="evenodd"/><path d="M63.33 268.54c.294.21.59.423.885.636a2517.628 2517.628 0 0 1-12.073-1.358l-.252-.555c1.864.213 3.746.424 5.645.638 1.916.22 3.845.43 5.795.64" fill="#fff" fill-rule="evenodd"/><path d="M50.538 264.286c2.224 1.46 4.384 2.902 6.437 4.378 2.005 1.44 3.902 2.92 5.736 4.38l-1.06-.243c-1.64-1.29-3.33-2.6-5.1-3.87-1.81-1.3-3.71-2.58-5.65-3.87-.12-.25-.23-.51-.35-.77" fill="#fff" fill-rule="evenodd"/><path d="M60.457 266.725c.313.213.62.425.93.64-1.317-.133-2.627-.264-3.928-.4l-3.86-.39c-.33-.215-.67-.43-1-.642l3.88.39c1.31.134 2.63.27 3.96.402m5.92 3.105c-.92-.188-1.83-.38-2.75-.57-.43-.282-.86-.56-1.29-.842l1.97.41 1.97.406c.02.2.05.4.08.597m.52 3.65c-.82-.11-1.63-.22-2.44-.34-.81-.11-1.61-.22-2.41-.34-.28-.21-.56-.42-.85-.64l2.79.39c.94.13 1.88.27 2.82.4.02.18.05.36.07.54m-1.56-10.01c.03-.03.06-.07.09-.1.01.05.01.1.02.16-.04-.02-.08-.04-.12-.05" fill="#fff" fill-rule="evenodd"/><path d="M63.834 268.728a215.393 215.393 0 0 0-3.874-2.525c1.01.202 2.022.107 3.03.308 1.01.21 2.01.63 3.024.83l.278 1.91-2.458-.51m-7.83-5.14c1.09-.21 2.207-.42 3.345-.62 1.18.44 2.51.94 3.67 1.38-.67.23-1.5.39-2.15.62-.81-.23-1.62-.46-2.43-.68l-2.44-.7" fill="#8fc640" fill-rule="evenodd"/><path d="M66.56 271.26c-.492-.352-.992-.705-1.494-1.06-1.134-.125-2.26-.25-3.38-.377.44.34.88.677 1.314 1.018 1.18.15 2.366.28 3.56.42" fill="#d4cbba" fill-rule="evenodd"/><path d="M53.027 260.247c.75-.072 1.508-.146 2.272-.217l2.33-.22c-.89-.415-1.79-.83-2.69-1.24-.79.126-1.58.253-2.34.38-.76.13-1.52.258-2.26.387.89.302 1.79.605 2.68.91m5.38 10.043c-.94-.694-1.9-1.39-2.87-2.083l-3.39-.39.81 1.803c.9.108 1.8.223 2.7.336l2.74.334" fill="#8fc640" fill-rule="evenodd"/><path d="M59.688 268.56c-.414-.048-.824-.093-1.233-.137-.82-.63-1.655-1.26-2.508-1.884-.86-.64-1.74-1.26-2.63-1.89l1.4.2c.86.61 1.712 1.23 2.544 1.84.83.61 1.63 1.23 2.43 1.85" fill="#fff" fill-rule="evenodd"/><path d="M55.593 267.684c-.508-.356-1.02-.712-1.538-1.064.77.077 1.55.16 2.33.238.48.358.957.715 1.43 1.073l-2.222-.24" fill="#d4cbba" fill-rule="evenodd"/><path d="M81.63 254.278c-2.822.664-5.646 1.325-8.467 1.986-2.82.662-5.642 1.326-8.462 1.99l.6 4.106c.25-.572.44-1.18.53-1.823l1.23-.213c-.22 1.335-.79 2.526-1.53 3.576l-.08-.58.44 3.038c.4 2.7.79 5.41 1.18 8.112 2.11-.595 4.22-1.19 6.32-1.787 2.11-.593 4.22-1.19 6.33-1.783.33-2.774.65-5.546.97-8.314l.97-8.308" fill="#c8c8c8" fill-rule="evenodd"/><path d="M81.578 254.73c-2.804.664-5.61 1.324-8.41 1.985l-8.404 1.982.53 3.663c.248-.572.434-1.18.53-1.823.41-.073.817-.143 1.225-.213-.23 1.335-.8 2.526-1.54 3.576l.35 2.458 1.11 7.665 6.38-1.79c2.13-.597 4.25-1.196 6.38-1.792l.91-7.85.91-7.85" fill="#b3aea9" fill-rule="evenodd"/><path d="M65.736 261.016c-.216-.03-.432-.06-.65-.088l-.1-.69c.488.06.972.13 1.455.19l-.61.11c-.02.16-.05.32-.09.478m14.84 2.302c-2.36-.42-4.8-.844-7.34-1.236-2.07-.32-4.19-.62-6.37-.916.06-.215.12-.435.16-.66 2.12.285 4.19.574 6.21.878 2.57.387 5.05.81 7.44 1.23l-.08.704" fill="#c8c8c8" fill-rule="evenodd"/><path d="M80.537 263.664l-7.257 1.874c-2.42.622-4.838 1.246-7.255 1.873-.027-.18-.053-.35-.077-.53 2.44-.63 4.883-1.25 7.324-1.88 2.44-.63 4.886-1.25 7.33-1.88-.023.18-.043.37-.065.55" fill="#c8c8c8" fill-rule="evenodd"/><path d="M80.748 261.853c-1.24.525-2.162 1.35-2.22 2.057-.057.71.727 1.097 1.86 1.015l.36-3.072" fill="#ca942f" fill-rule="evenodd"/><path d="M80.68 262.43c-.66.352-1.124.82-1.164 1.23-.04.412.342.66.94.685l.225-1.914" fill="#729c3f" fill-rule="evenodd"/><path d="M75.32 261.71c.195.1.395.197.59.302-1.717.812-3.415 1.62-5.086 2.43-1.65.802-3.277 1.614-4.88 2.417-.027-.2-.054-.39-.083-.58 1.53-.76 3.07-1.53 4.64-2.28 1.59-.77 3.2-1.53 4.82-2.29m4.88 4.89c-2.31.87-4.6 1.74-6.87 2.6-2.24.86-4.46 1.73-6.66 2.59l-.08-.54c2.22-.87 4.47-1.74 6.74-2.6 2.29-.88 4.61-1.74 6.94-2.62l-.06.55" fill="#c8c8c8" fill-rule="evenodd"/><path d="M70.17 270.18c.26-.157.52-.312.78-.47.852.302 1.692.6 2.512.907.803.302 1.59.615 2.36.924-.377.11-.752.21-1.128.32-.718-.28-1.45-.57-2.197-.84-.76-.28-1.537-.56-2.327-.83" fill="#c8c8c8" fill-rule="evenodd"/><path d="M69.387 266.366l.87-.496c.298 1.302.586 2.61.863 3.914l-.807.494c-.3-1.306-.608-2.61-.926-3.912" fill="#c8c8c8" fill-rule="evenodd"/><path d="M70.89 268.02c-.018.21-.033.417-.05.625l-2.234.593-2.23.593-.09-.59c.767-.2 1.534-.4 2.3-.61l2.303-.6" fill="#c8c8c8" fill-rule="evenodd"/><path d="M80.262 266.01c-1.666.463-3.33.927-4.99 1.392-1.658.462-3.317.93-4.974 1.394-.053-.19-.11-.387-.165-.58 1.696-.473 3.395-.947 5.094-1.417 1.698-.47 3.403-.95 5.11-1.42l-.075.62" fill="#c8c8c8" fill-rule="evenodd"/><path d="M72.62 265.32c.376-.06.754-.12 1.13-.182-.01.764-.02 1.528-.027 2.29-.362.04-.727.076-1.09.114-.004-.74-.01-1.48-.012-2.222m3.64-.873c.38-.058.75-.12 1.13-.18-.06.766-.12 1.536-.17 2.306-.36.036-.71.072-1.07.11l.13-2.236m-3.38 6.207c.22.102.45.2.67.3l-3.34 1.262-3.3 1.26-.08-.54c1-.38 2-.76 3.01-1.138l3.04-1.144m8.28-12.258l-5 1.567c-1.65.52-3.3 1.044-4.95 1.565l.03-.555c1.65-.52 3.31-1.04 4.97-1.557l5.03-1.566-.06.546" fill="#c8c8c8" fill-rule="evenodd"/><path d="M69.57 259.603c.48-.182.958-.364 1.438-.548.765.14 1.524.28 2.276.423.743.14 1.477.288 2.207.43-.47.18-.94.365-1.4.545-.73-.145-1.47-.288-2.22-.427-.75-.143-1.51-.284-2.29-.423" fill="#c8c8c8" fill-rule="evenodd"/><path d="M65.517 263.9c.738-1.05 1.31-2.24 1.532-3.576-.41.07-.82.14-1.23.213a7.86 7.86 0 0 1-.53 1.825l.22 1.538" fill="#ca942f"/><path d="M66.12 262.938a459.097 459.097 0 0 1 5.86.557c-.13.2-.256.4-.38.603-.996-.1-2-.203-3.02-.3-.93-.09-1.87-.176-2.82-.26.127-.195.246-.396.36-.6m-.683.42l.002-.002.01.107-.02-.106m4.51-5.88c.43.524.84 1.055 1.26 1.58l-1.13.51c-.48-.597-.96-1.19-1.46-1.78l1.32-.31m10.91 3.41l-3.02.753-3.02.76-.15-.565 3.13-.778c1.04-.258 2.08-.52 3.13-.78l-.07.61" fill="#c8c8c8" fill-rule="evenodd"/><path d="M70.49 261.204c.7-.222 2.14-.675 2.846-.896-.99-.19-1.996-.38-3.014-.57-.914.28-1.826.56-2.736.842 1.228.126 1.708.49 2.903.624m-4.47 6.206c1.13-.295 2.27-.587 3.4-.88.15.597.29 1.193.43 1.792l-1.79.46-1.79.465-.27-1.836" fill="#729c3f" fill-rule="evenodd"/><path d="M73.725 267.218l.023-1.8c.83-.217 1.66-.43 2.49-.644l-.104 1.777c-.803.23-1.607.45-2.41.67m-2.21 2.7c.73.26 1.443.52 2.146.78.626-.24 1.256-.49 1.886-.73.63-.24 1.267-.49 1.904-.73-.447-.36-.9-.72-1.364-1.07-.77.29-1.536.59-2.298.88-.76.29-1.52.59-2.273.88m8.747-3.9l-4.7 1.32-4.686 1.31.19.89c1.507-.58 3.023-1.15 4.55-1.73 1.536-.58 3.084-1.16 4.64-1.74a.184.184 0 0 0 .006-.04" fill="#a7a093" fill-rule="evenodd"/><path d="M81.385 256.383a2417.963 2417.963 0 0 0-14.425 4.39c.033-.15.065-.298.09-.45-.162.03-.324.058-.485.083v-.068c2.447-.75 4.908-1.5 7.384-2.248 2.48-.75 4.98-1.5 7.5-2.253-.02.182-.05.367-.07.546" fill="#ca942f" fill-rule="evenodd"/><path d="M96.007 272.43l3.52-7.957c1.172-2.65 2.345-5.304 3.52-7.953-3.572-.374-7.144-.75-10.713-1.122l-10.705-1.12c-.33 2.768-.65 5.54-.97 8.308l-.97 8.315 8.15.77 8.16.77" fill="#fff" fill-rule="evenodd"/><path d="M95.28 271.904c1.063-2.515 2.123-5.024 3.19-7.54 1.063-2.51 2.126-5.024 3.19-7.534l-10.045-1.05c-3.347-.348-6.693-.698-10.04-1.05l-.915 7.856-.916 7.855c2.587.25 5.175.49 7.765.74 2.58.24 5.18.49 7.77.73" fill="#e4ddd7" fill-rule="evenodd"/><path d="M86.414 271.068a78.588 78.588 0 0 0-2.394-3.91c-.877-1.322-1.832-2.636-2.814-3.962.413-.032.83-.062 1.242-.092.993 1.36 1.95 2.71 2.826 4.07a76.84 76.84 0 0 1 2.387 4.012l-1.24-.118" fill="#fff" fill-rule="evenodd"/><path d="M83.55 263.79c.51-.767 1.527-2.137 4.28-3.428 1.285-.58 2.956-1.15 5.134-1.622 2.217-.48 4.968-.866 8.356-1.112.09-.21.18-.423.27-.63-3.8.24-6.867.642-9.322 1.16-2.41.51-4.236 1.13-5.633 1.765-2.89 1.372-3.928 2.814-4.447 3.62.454.08.91.165 1.362.246" fill="#fff"/><path d="M95.756 270.774a274.263 274.263 0 0 0-7.164-3.67 348.86 348.86 0 0 0-8.017-3.787c.026-.236.054-.472.082-.705 2.8 1.28 5.516 2.53 8.122 3.798 2.52 1.226 4.93 2.47 7.26 3.686l-.29.678" fill="#fff" fill-rule="evenodd"/><path d="M83.754 254.96c-.388 2.603-.773 5.21-1.16 7.817-.39 2.608-.777 5.215-1.164 7.824-.385-.03-.77-.07-1.155-.1.33-2.61.66-5.23.992-7.84.33-2.61.664-5.22.994-7.84.5.06 1 .11 1.5.16" fill="#fff" fill-rule="evenodd"/><path d="M98.03 265.4c-2.917-.287-5.836-.58-8.75-.868-2.917-.29-5.832-.58-8.747-.868.02-.184.044-.37.065-.55 2.94.29 5.884.584 8.826.878 2.943.293 5.885.585 8.83.88-.075.174-.147.35-.224.528" fill="#fff" fill-rule="evenodd"/><path d="M81.598 265.133c1.25.123 3.897-.353 4.078-1.237.18-.887-2.315-1.87-3.635-2-1.31-.133-.88-.06-1.29-.042l-.35 3.072c.38.094-.04.084 1.21.207" fill="#fdb834" fill-rule="evenodd"/><path d="M81.67 264.603c.93.093 2.64-.23 2.75-.83.106-.602-1.487-1.254-2.45-1.35-.96-.096-.907-.042-1.293.008l-.224 1.92c.353.12.288.17 1.218.26" fill="#8fc640" fill-rule="evenodd"/><path d="M81.462 266.066l-.04.55c-.412-.007-.824-.01-1.23-.01l.063-.556 1.207.016" fill="#fff" fill-rule="evenodd"/><path d="M81.815 265.512c.023.213.044.423.065.637-.54-.05-1.08-.1-1.62-.14l.075-.63 1.48.12m1.103-7.58c-.047.18-.09.36-.138.54-.547-.03-1.088-.06-1.633-.08.02-.19.042-.37.064-.55.57.02 1.14.05 1.71.08m4.37 1.95c.5-.04 1.01-.08 1.51-.11.89.8 1.76 1.59 2.6 2.39.83.79 1.62 1.58 2.39 2.37l-1.43.12c-.78-.79-1.59-1.58-2.42-2.38-.84-.8-1.73-1.6-2.63-2.4" fill="#fff" fill-rule="evenodd"/><path d="M90.28 255.642a203.791 203.791 0 0 0-2.001 4.503l-1.53-.216c.3-.75.61-1.5.92-2.24.31-.75.63-1.49.96-2.23.55.06 1.09.11 1.64.17" fill="#fff" fill-rule="evenodd"/><path d="M88.065 259.58c-.078.248-.155.498-.232.748-.922-.278-1.85-.56-2.786-.84-.94-.28-1.884-.566-2.835-.845.053-.253.11-.505.16-.76.963.287 1.922.57 2.872.85.945.28 1.884.566 2.82.847m-5.567.855c.092.214.18.43.27.64-.636-.064-1.274-.128-1.91-.19l.07-.607 1.57.157m3.478 8.968c.068-.196.135-.396.206-.596 1.31.08 2.62.16 3.93.238 1.31.083 2.63.166 3.95.244.28.19.56.38.84.58l-4.47-.24c-1.48-.08-2.96-.15-4.43-.23" fill="#fff" fill-rule="evenodd"/><path d="M88.733 269.386c.523-.02 1.048-.038 1.574-.052.524.75 1.032 1.5 1.52 2.246a334.99 334.99 0 0 0-1.67-.157 89.077 89.077 0 0 0-1.424-2.037m-4.526-2.366c.06-.205.124-.406.184-.605.87.1 1.73.205 2.6.306.86.11 1.73.21 2.59.31.31.2.61.39.92.59l-3.14-.3c-1.04-.1-2.09-.2-3.14-.29" fill="#fff" fill-rule="evenodd"/><path d="M87.66 271.187a86.08 86.08 0 0 0-.987-1.744c.726.036 1.453.073 2.184.113.446.622.878 1.246 1.3 1.867-.833-.08-1.665-.157-2.496-.236" fill="#d4cbba" fill-rule="evenodd"/><path d="M99.562 261.787c-1.472.163-2.93.326-4.376.495-1.43.17-2.85.344-4.258.518-.173-.18-.348-.357-.524-.536 1.53-.188 3.08-.377 4.64-.556 1.572-.18 3.17-.36 4.777-.536l-.25.615" fill="#fff" fill-rule="evenodd"/><path d="M92.584 258.26c.43-.058.864-.116 1.296-.17a134.97 134.97 0 0 1 3.396 3.685c-.423.058-.84.12-1.26.176a147.445 147.445 0 0 0-3.432-3.69" fill="#fff" fill-rule="evenodd"/><path d="M100.386 259.836c-1.63.224-3.243.45-4.84.682l-.682-.584a500.018 500.018 0 0 1 5.82-.803c-.097.24-.195.47-.298.71" fill="#fff" fill-rule="evenodd"/><path d="M96.168 257.654c.46-.04.918-.085 1.38-.123.764.77 1.51 1.53 2.233 2.29-.45.05-.9.09-1.35.13-.73-.76-1.49-1.52-2.26-2.29" fill="#fff" fill-rule="evenodd"/><path d="M95.54 259.838c-.42-.45-.848-.904-1.28-1.357 0 0 .62-.11 1.155-.2.533-.08 1.208-.17 1.208-.17.465.47.92.93 1.372 1.39-.822.12-1.64.23-2.455.35" fill="#8fc640" fill-rule="evenodd"/><path d="M80.82 266.056c-.188-.016-.373-.034-.56-.046 0 .012-.002.025-.004.04.187 0 .373.004.563.006" fill="#d4cbba" fill-rule="evenodd"/><path d="M96.043 270.097l-4.675-2.403.93-2.862 5.73.57-1.986 4.695z" fill="#8fc640" fill-rule="evenodd"/><path d="M90.637 267.542l1.054-2.88.76.096-1.1 3.133-.7-.34z" fill="#fff" fill-rule="evenodd"/><path d="M95.756 270.774l.287-.678a244.789 244.789 0 0 0-11.972-5.928c-.24.147-.59.26-.97.336 4.32 2.055 8.54 4.146 12.66 6.27" fill="#fdb834" fill-rule="evenodd"/><path d="M86.5 266.142c-.843-.41-1.693-.82-2.545-1.23l.04-.008c.844.397 1.68.79 2.506 1.186v.052zm0-.833c-.515-.25-1.033-.49-1.55-.74h-.013c.525.24 1.046.49 1.564.74v-.01zm0 .78c.527.25 1.05.5 1.566.75l-.16-.02-1.405-.69v-.05zm4.52 2.28c-.582-.29-1.165-.59-1.75-.87l.152.01c.537.27 1.07.53 1.597.8v.05zm0-.86a230.14 230.14 0 0 0-4.52-2.2v.01c.77.36 1.53.72 2.28 1.09.756.37 1.5.73 2.24 1.1v-.01zm0 .8c.587.3 1.17.59 1.747.89l-.085-.01-1.663-.84v-.05zm3.8 1.98v-.01c-.292-.16-.587-.31-.882-.47l-.053-.01.935.48m0-.84a242.28 242.28 0 0 0-3.8-1.95c1.293.65 2.56 1.3 3.8 1.94v-.01zm0 .83v.01l.936.48c-.31-.16-.622-.33-.936-.49m1.223-.18c-.408-.22-.815-.43-1.223-.65.41.21.818.42 1.223.63" fill="#fdb834" fill-rule="evenodd"/><path d="M79.743 263.162a354.805 354.805 0 0 0-14.656-2.234l-.1-.69a339.996 339.996 0 0 1 15.448 2.334c-.292.182-.53.385-.692.59m.834.155l.007-.057-.007.057z" fill="#ca942f" fill-rule="evenodd"/><path d="M65.087 260.928l-.1-.69-5.046-2.36-2.15-.364 7.3 3.414zm-14.465 3.415l-.305-.55 15.628 3.067.14.536-15.463-3.053z" fill="#fdb834" fill-rule="evenodd"/><path d="M66.085 267.396l-.137-.522 12.69-3.255.08.51-12.633 3.26z" fill="#ca942f" fill-rule="evenodd"/><path d="M85.54 264.162l12.49 1.238.223-.53s-12.444-1.365-12.644-1.26c-.2.11-.5.51-.07.552m-5.27 6.33l1.15.108.81-5.452c-.24.008-.46.002-.65-.015-.3-.03-.5-.05-.64-.067l-.69 5.426z" fill="#fdb834" fill-rule="evenodd"/><path d="M84.014 263.154c.625-.775 1.715-1.807 3.817-2.792 1.29-.58 2.96-1.15 5.14-1.622 2.22-.482 4.97-.866 8.36-1.112.09-.21.18-.423.27-.63-3.8.24-6.86.64-9.32 1.16-2.41.51-4.23 1.13-5.63 1.765-1.98.943-3.09 1.918-3.76 2.697.43.134.85.323 1.15.534" fill="#fdb834"/><path d="M58.455 265.888l8.105 5.372-.08-.705-6.327-4.33-1.698-.337z" fill="#fdb834" fill-rule="evenodd"/><path d="M69.966 273.184l-3.406-1.924-.08-.705 4.243 2.418-.757.21z" fill="#ca942f" fill-rule="evenodd"/><path d="M66.66 271.803l-13.457-1.644-.246-.54 13.625 1.64.077.54z" fill="#fdb834" fill-rule="evenodd"/><path d="M66.66 271.803l-.113-.552c4.512-1.75 9.076-3.48 13.682-5.18l-.09.62c-4.5 1.71-8.99 3.42-13.49 5.12" fill="#ca942f" fill-rule="evenodd"/><path d="M80.19 266.64l.678.028-.01-.61-.6-.007-.07.59zm-32.26-8.114a721.85 721.85 0 0 1 8.32 2.835c2.456.86 4.874 1.73 7.254 2.6-.205.12-.416.22-.632.31-2.195-.8-4.422-1.61-6.684-2.4-2.62-.92-5.29-1.83-7.993-2.74-.09-.19-.178-.39-.265-.58m53.66-1.53c-.047.18-.095.36-.14.54-.62-.03-19.455-1.12-20.07-1.15.024-.18.045-.37.066-.55.638.04 19.5 1.13 20.143 1.16" fill="#fdb834" fill-rule="evenodd"/><path d="M58.174 265.9c.55-.02 1.323-.054 2.18-.163.87-.108 1.834-.29 2.76-.6.862-.29 1.695-.688 2.4-1.242-.07-.51-.146-1.02-.22-1.533-.734 1.106-1.94 1.783-3.208 2.204-.858.292-1.76.462-2.575.56-.8.097-1.52.13-2.04.15.24.21.48.415.71.624" fill="#fdb834"/><path d="M50.134 300.603c7.372-8.116 18.63-11.826 22.973-22.7.67-1.675 3.453-10.52 2.862-11.167 0 0 16.58 19.223 8.39 28.835-3.41 4-16.47 3.41-23.98 8.6a78.12 78.12 0 0 0-11.55-2.01c.41-.53.84-1.05 1.29-1.55m45.25 22.82c0-.18.01-.37.01-.56 0-5.07-3.52-14.2-8.04-17.91l9.89-9.36c4.48 5.49 13.03 22.64 6.78 37.53a78.398 78.398 0 0 0-8.66-9.69" fill="#a1cc3a"/><path d="M104.042 333.115a27.232 27.232 0 0 1-3.203 5.63c-6.26 8.468-16.56 13.884-27.91 13.884-8.38 0-17.75-4.08-23.15-10.43-5.9-6.93-8.98-16.47-7.17-25.49 1.03-5.16 2.99-10.37 6.23-14.57 3.91.38 7.77 1.05 11.54 2.01-.47.32-.91.66-1.33 1.02-5 4.39-8.6 10.5-8.6 17.67 0 12.4 10.05 22.46 22.46 22.46 12.22 0 22.15-9.76 22.45-21.9a79.13 79.13 0 0 1 8.66 9.69" fill="#4880c1"/><path d="M85.42 314.787a14.924 14.924 0 0 0-5.618-5.116 14.831 14.831 0 0 0-6.87-1.68c-8.213 0-14.872 6.66-14.872 14.87 0 8.22 6.66 14.88 14.87 14.88 8.215 0 14.875-6.65 14.875-14.87 0-2.97-.878-5.74-2.385-8.07" fill="#0885ac"/><path d="M160.394 272.804c2.07 3.07 3.107 6.47 3.107 10.192 0 4.865-1.64 8.995-4.92 12.393-3.28 3.39-7.25 5.09-11.91 5.09-4.8 0-8.82-1.66-12.05-4.96-3.23-3.31-4.85-7.51-4.85-12.61 0-5.68 2.04-10.17 6.12-13.48 3.2-2.59 6.82-3.88 10.88-3.88 2.33 0 4.53.45 6.58 1.36l-9.2 11.83h11.66l4.62-5.97zm6.108-7.894l8.938-11.554h-11.572l-4.54 5.843c-3.752-2.06-7.935-3.09-12.55-3.09-7.714 0-14.122 2.66-19.225 7.97-5.104 5.31-7.656 11.65-7.656 19.01 0 4.91 1.188 9.42 3.563 13.52 2.376 4.1 5.642 7.37 9.8 9.79 4.156 2.42 8.622 3.63 13.397 3.63 7.29 0 13.548-2.63 18.776-7.89 5.23-5.26 7.843-11.67 7.843-19.24 0-6.96-2.258-12.97-6.774-18.02m14.908 30.47h9.636v-18.29c0-3.56.245-6.04.735-7.42.49-1.39 1.28-2.46 2.37-3.23s2.42-1.15 4.01-1.15c1.59 0 2.94.37 4.05 1.13 1.11.75 1.93 1.86 2.47 3.33.4 1.09.6 3.43.6 7.01v18.61h9.53v-16.09c0-6.63-.52-11.17-1.57-13.62-1.28-2.98-3.16-5.27-5.65-6.86-2.49-1.6-5.65-2.39-9.5-2.39-4.16 0-7.53.93-10.1 2.79-2.57 1.86-4.38 4.46-5.43 7.79-.74 2.3-1.11 6.49-1.11 12.57v15.81zm41.894 0h9.53V257.4h-9.53v37.983zM228.07 311c1.67 0 3.1-.607 4.29-1.817s1.79-2.677 1.79-4.4c0-1.698-.59-3.147-1.78-4.345-1.19-1.2-2.6-1.8-4.25-1.8-1.7 0-3.14.61-4.34 1.83-1.197 1.225-1.79 2.71-1.79 4.454 0 1.674.59 3.106 1.772 4.293 1.184 1.185 2.61 1.78 4.282 1.78m50.602-23.32l-7.935-4.366c-1.49 1.56-2.96 2.64-4.42 3.24-1.45.6-3.16.91-5.12.91-3.56 0-6.45-1.07-8.65-3.19-2.2-2.13-3.3-4.85-3.3-8.18 0-3.23 1.06-5.87 3.18-7.91s4.91-3.07 8.35-3.07c4.27 0 7.59 1.45 9.97 4.36l7.52-5.15c-4.07-5.3-9.82-7.95-17.25-7.95-6.68 0-11.91 1.97-15.69 5.93-3.78 3.95-5.67 8.58-5.67 13.89 0 3.68.92 7.06 2.76 10.16 1.84 3.09 4.4 5.52 7.7 7.29 3.29 1.77 6.98 2.65 11.05 2.65 3.77 0 7.16-.75 10.16-2.25a19.285 19.285 0 0 0 7.37-6.41m8.66 22.34h9.53v-30.3l14.04 15.66h11.97l-16.36-18.19 18.32-19.78H313l-16.13 17.51v-17.5h-9.53v52.644zm69.4-8.27l-7.24-6.39c-2.54 3.54-5.13 5.31-7.76 5.31-1.28 0-2.33-.347-3.14-1.03s-1.22-1.46-1.22-2.32c0-.866.29-1.68.87-2.448.79-1.02 3.18-3.22 7.17-6.6 3.73-3.116 5.99-5.08 6.78-5.9 1.98-2 3.39-3.91 4.21-5.74.83-1.826 1.24-3.82 1.24-5.986 0-4.21-1.45-7.69-4.36-10.434-2.91-2.75-6.71-4.12-11.39-4.12-3.66 0-6.84.89-9.56 2.68-2.71 1.79-5.03 4.605-6.97 8.445l8.22 4.96c2.48-4.54 5.32-6.804 8.54-6.804 1.68 0 3.09.49 4.23 1.465 1.14.98 1.72 2.11 1.72 3.385 0 1.16-.43 2.325-1.29 3.49-.86 1.163-2.76 2.944-5.7 5.34-5.59 4.563-9.21 8.083-10.84 10.56-1.63 2.48-2.45 4.953-2.45 7.42 0 3.56 1.36 6.615 4.07 9.164 2.72 2.55 6.07 3.826 10.05 3.826 2.57 0 5.01-.59 7.32-1.78 2.32-1.19 4.83-3.35 7.54-6.49m37.7-20.64c-.63 2.114-1.87 3.84-3.72 5.164-1.852 1.33-4.003 1.99-6.45 1.99-2.66 0-4.99-.74-6.994-2.23-1.26-.93-2.425-2.57-3.497-4.92h20.667zm9.53-7.51h-30.62c.44-2.7 1.628-4.84 3.548-6.44 1.92-1.59 4.37-2.39 7.35-2.39 3.56 0 6.62 1.245 9.18 3.74l8.03-3.77c-2-2.84-4.4-4.94-7.19-6.3-2.79-1.36-6.11-2.04-9.95-2.04-5.956 0-10.81 1.88-14.556 5.63-3.75 3.76-5.62 8.47-5.62 14.13 0 5.79 1.86 10.6 5.6 14.43 3.734 3.83 8.42 5.74 14.05 5.74 5.98 0 10.84-1.91 14.59-5.74 3.747-3.83 5.62-8.883 5.62-15.17l-.034-1.813zm25.73 13.93c-2.94 0-5.39-1.04-7.34-3.12-1.95-2.087-2.92-4.76-2.92-8.016 0-3.28.995-5.98 2.978-8.09 1.983-2.12 4.425-3.175 7.324-3.175 2.99 0 5.47 1.04 7.44 3.12 1.97 2.082 2.96 4.81 2.96 8.186 0 3.31-.98 5.98-2.95 8.03-1.97 2.05-4.47 3.07-7.48 3.07m10.02 7.82h9.53V257.4h-9.53v4.014c-1.86-1.77-3.73-3.042-5.6-3.822-1.87-.78-3.9-1.17-6.09-1.17-4.907 0-9.15 1.903-12.73 5.708-3.58 3.806-5.37 8.536-5.37 14.192 0 5.864 1.73 10.67 5.195 14.418 3.46 3.747 7.67 5.62 12.62 5.62 2.28 0 4.414-.43 6.414-1.29 2-.862 3.844-2.154 5.54-3.876v4.187zm16.93 0h8.17v-4.78c.88 1.89 2.06 3.32 3.52 4.3 1.47.98 3.073 1.47 4.82 1.47 1.234 0 2.526-.32 3.88-.974l-2.97-8.205c-1.116.56-2.036.84-2.76.84-1.47 0-2.705-.91-3.72-2.72-1.01-1.82-1.515-5.38-1.515-10.68l.03-1.85V257.4h-9.46v37.98zm62.28-7.68l-7.94-4.35c-1.49 1.56-2.97 2.64-4.42 3.25-1.46.61-3.17.91-5.13.91-3.56 0-6.443-1.06-8.65-3.19-2.2-2.12-3.3-4.85-3.3-8.17 0-3.23 1.06-5.87 3.185-7.912 2.12-2.042 4.9-3.065 8.35-3.065 4.26 0 7.58 1.456 9.96 4.367l7.51-5.15c-4.08-5.3-9.83-7.948-17.25-7.948-6.68 0-11.91 1.98-15.69 5.93s-5.67 8.58-5.67 13.89c0 3.68.92 7.06 2.76 10.16 1.83 3.09 4.4 5.52 7.69 7.29 3.29 1.77 6.974 2.65 11.05 2.65 3.77 0 7.154-.75 10.16-2.25 3-1.5 5.454-3.63 7.363-6.4m8.63 22.34H537v-18.5c1.86 1.61 3.735 2.81 5.62 3.61 1.886.8 3.794 1.2 5.726 1.2 3.77 0 6.95-1.304 9.53-3.91 2.21-2.26 3.32-5.574 3.32-9.95v-25.1h-9.39V274c0 4.4-.21 7.38-.63 8.94-.42 1.56-1.14 2.72-2.15 3.49s-2.26 1.15-3.75 1.15c-1.93 0-3.59-.64-4.976-1.92-1.384-1.28-2.344-3.02-2.88-5.232-.28-1.14-.42-3.75-.42-7.82V257.4h-9.46v52.646z" fill="#2c3642"/></g></svg>