<svg width="500" height="200" xmlns="http://www.w3.org/2000/svg"><path fill="none" d="M-1-1h502v202H-1z"/><path fill="#ff5454" d="M138.12 99.334c0 37.998-30.802 68.8-68.8 68.8-37.997 0-68.8-30.802-68.8-68.8 0-37.997 30.803-68.8 68.8-68.8 37.998 0 68.8 30.803 68.8 68.8"/><path fill="#fff" d="M103.72 86.434h-34.4V52.652l-34.4 59.582h34.4v33.783l34.4-59.583"/><path fill="#333" d="M229.818 99.533v-.197c0-11.793-8.65-21.62-20.835-21.62-12.187 0-20.64 9.63-20.64 21.424v.196c0 11.794 8.65 21.622 20.836 21.622 12.186 0 20.638-9.632 20.638-21.425zM219.4 133.538a39.817 39.817 0 0 1-10.417 1.376c-21.23 0-36.462-15.824-36.462-35.38v-.198c0-19.557 15.43-35.577 36.66-35.577 21.227 0 36.46 15.822 36.46 35.38v.196c0 10.123-4.127 19.36-11.105 25.848l20.244 20.342v.49h-22.704L219.4 133.54m32.147-18.38V81.055h14.94v29.386c0 7.076 3.34 10.712 9.04 10.712 5.7 0 9.337-3.636 9.337-10.712V81.056h14.938v52.678h-14.938v-7.47c-3.44 4.423-7.862 8.453-15.43 8.453-11.302 0-17.887-7.47-17.887-19.558m54.456-34.103h14.938v52.678h-14.937V81.056zm0-16.117h14.938v10.318h-14.937v-10.32m21.776 58.281l27.224-30.073h-26.34v-12.09h44.915v10.517l-27.323 30.074h27.322v12.088h-45.8v-10.516m52.572-18.968V64.94h15.134v38.917c0 11.204 5.602 17.003 14.84 17.003 9.24 0 14.84-5.603 14.84-16.512v-39.41h15.137v38.82c0 20.836-11.695 31.057-30.172 31.057-18.476 0-29.78-10.32-29.78-30.565m105.474 3.243v-.196c0-8.747-5.896-14.545-12.874-14.545-6.98 0-12.777 5.798-12.777 14.545v.196c0 8.747 5.798 14.546 12.776 14.546 6.977 0 12.873-5.7 12.873-14.547zM445.43 81.056h14.94v7.568c3.635-4.914 8.648-8.55 16.412-8.55 12.285 0 23.98 9.63 23.98 27.223v.196c0 17.592-11.5 27.224-23.98 27.224-7.96 0-12.875-3.637-16.413-7.863v19.163h-14.94v-64.96"/></svg>