<?xml version="1.0"?>
<svg width="500" height="200" xmlns="http://www.w3.org/2000/svg">

 <g>
  <title>background</title>
  <rect fill="none" id="canvas_background" height="202" width="502" y="-1" x="-1"/>
 </g>
 <g>
  <title>Layer 1</title>
  <g id="svg_1">
   <path id="svg_2" d="m489.900024,101.650002l-4.899994,0c-0.600006,0 -1.100006,-0.5 -1.100006,-1.099998l0,-1.199997c-2.799988,1.799995 -5,2.699997 -8.399994,2.699997c-2.700012,0 -5,-0.699997 -6.600006,-2.300003c-2,-2 -2.700012,-5.300003 -2.700012,-9.699997l0,-17.5c0,-0.599998 0.5,-1.099998 1.100006,-1.099998l4.899994,0c0.600006,0 1.100006,0.5 1.100006,1.099998l0,17.5c0,2.699997 0.200012,4.199997 1.200012,5.099998c0.699982,0.599998 1.699982,1 3.299988,1c2,0 4.600006,-1.299995 6.100006,-2.099998l0,-21.5c0,-0.599998 0.5,-1.099998 1.100006,-1.099998l4.899994,0c0.600006,0 1.100006,0.5 1.100006,1.099998l0,28c0,0.599998 -0.5,1.099998 -1.100006,1.099998m-34.300018,-13.299995l-3.299988,0c-4.899994,0 -6,1.599998 -6,4.599998l0,0.199997c0,2.599998 1.200012,3.299995 3.899994,3.299995c1.899994,0 3.899994,-0.599991 5.5,-1.499992l0,-6.599998l-0.100006,0zm6.100006,13.299995l-4.600006,0c-0.600006,0 -1.100006,-0.5 -1.100006,-1.099998l0,-0.900002c-2.5,1.5 -5,2.400002 -7.599976,2.400002c-4.5,0 -9.300018,-1.699997 -9.300018,-9l0,-0.199997c0,-6.100006 3.800018,-9.300003 13.100006,-9.300003l3.399994,0l0,-2.400002c0,-3.5 -1.5,-4.299995 -4.699982,-4.299995c-3.400024,0 -7,0.199997 -8.700012,0.399994l-0.299988,0c-0.5,0 -1,-0.199997 -1,-0.900002l0,-3.399994c0,-0.600006 0.299988,-1 1,-1.100006c2.199982,-0.399994 5.299988,-0.899994 9,-0.899994c7.599976,0 11.799988,3.399994 11.799988,10.199997l0,19.299995c0,0.700005 -0.5,1.200005 -1,1.200005m-26.100006,0l-4.799988,0c-0.600006,0 -1.100006,-0.5 -1.100006,-1.099998l0,-6.100006c0,-0.599991 0.5,-1 1.100006,-1l4.799988,0c0.600006,0 1.100006,0.400009 1.100006,1l0,6.100006c0,0.599998 -0.5,1.099998 -1.100006,1.099998m-10,0l-4.899994,0c-0.600006,0 -1.100006,-0.5 -1.100006,-1.099998l0,-18.300003c0,-4.099998 -0.899994,-5.199997 -3.899994,-5.199997c-1,0 -3,0.300003 -5,1.300003c0.199982,1.199997 0.199982,2.5 0.199982,3.899994l0,18.200005c0,0.599998 -0.5,1.099998 -1.099976,1.099998l-4.900024,0c-0.599976,0 -1.099976,-0.5 -1.099976,-1.099998l0,-18.200005c0,-4.099998 -0.700012,-5.199997 -3.700012,-5.199997c-1.100006,0 -2.700012,0.599998 -4.899994,1.800003l0,21.699997c0,0.599998 -0.5,1.099998 -1.100006,1.099998l-4.799988,0c-0.600006,0 -1.100006,-0.5 -1.100006,-1.099998l0,-28c0,-0.599998 0.5,-1.099998 1.100006,-1.099998l4.700012,0c0.599976,0 1.099976,0.5 1.099976,1.099998l0,1.099998c2.300018,-1.400002 4.5,-2.599998 7.700012,-2.599998c3.100006,0 5,0.900002 6.299988,2.400002c2.700012,-1.5 5.100006,-2.400002 8.800018,-2.400002c7.299988,0 8.899994,5 8.899994,11.300003l0,18.199997c-0.100006,0.5 -0.600006,1.099998 -1.200012,1.099998m-47.5,-17.299995c0,-4.400002 -2,-7.200005 -5.700012,-7.200005c-3.799988,0 -5.699982,2.800003 -5.699982,7.200005l0,4.299995c0,4.400002 2,7.200005 5.699982,7.200005c3.700012,0 5.700012,-2.800003 5.700012,-7.200005l0,-4.299995zm-5.799988,17.699997c-8.399994,0 -12.799988,-5.699997 -12.799988,-13.400002l0,-4.299995c0,-7.700005 4.399994,-13.400002 12.799988,-13.400002c8.399994,0 12.799988,5.699997 12.799988,13.400002l0,4.299995c0,7.700005 -4.399994,13.400002 -12.799988,13.400002m-16.5,-0.699997c-1.200012,0.299995 -3.700012,0.699997 -6.899994,0.699997c-7,0 -12.200012,-4.300003 -12.200012,-13l0,-5c0,-8.699997 5.300018,-13 12.200012,-13c3.299988,0 5.699982,0.400002 6.899994,0.699997c0.899994,0.200005 1.100006,0.5 1.100006,1.400002l0,3.5c0,0.5 -0.399994,0.800003 -1,0.800003l-0.200012,0c-2.100006,-0.300003 -3.399994,-0.400002 -6.899994,-0.400002c-2.5,0 -5.200012,1.400002 -5.200012,7l0,5c0,5.599998 2.600006,7 5.200012,7c3.5,0 4.799988,-0.099998 6.899994,-0.400002l0.200012,0c0.5,0 1,0.300003 1,0.799995l0,3.500008c0,0.900002 -0.200012,1.199997 -1.100006,1.400002m-22.100006,0.299995l-4.799988,0c-0.600006,0 -1.100006,-0.5 -1.100006,-1.099998l0,-6.100006c0,-0.599991 0.5,-1 1.100006,-1l4.799988,0c0.600006,0 1.100006,0.400009 1.100006,1l0,6.100006c0,0.599998 -0.5,1.099998 -1.100006,1.099998m-15,-17.900002c0,-4.199997 -2.299988,-6.599998 -5.600006,-6.599998c-3.299988,0 -5.699982,2.400002 -5.699982,6.599998l0,0.200005l11.399994,0l0,-0.200005l-0.100006,0zm6,5.200005l-17.5,0l0,0.199997c0,3.099998 1.299988,6.800003 6.399994,6.800003c3.899994,0 7.600006,-0.300003 9.899994,-0.500008l0.200012,0c0.5,0 1,0.300003 1,0.800003l0,3.5c0,0.900002 -0.200012,1.200005 -1.100006,1.400002c-3.5,0.599998 -5.600006,0.900002 -10.399994,0.900002c-5.399994,0 -13,-2.900002 -13,-13.5l0,-4c0,-8.400002 4.700012,-13.599998 12.899994,-13.599998c8.200012,0 12.700012,5.599998 12.700012,13.599998l0,3c0,1 -0.299988,1.400002 -1.100006,1.400002m-27.399994,12.699997c-1.299988,0.200005 -2.5,0.400002 -3.600006,0.400002c-6.100006,0 -8.5,-1.400002 -8.5,-8.5l0,-16.800003l-5,-0.799995c-0.600006,-0.099998 -1.100006,-0.5 -1.100006,-1.099998l0,-2.400009c0,-0.599998 0.5,-1.099998 1.100006,-1.099998l5,0l0,-7.099998c0,-0.599998 0.5,-0.999996 1.100006,-1.099998l5,-0.899998l0.200012,0c0.5,0 0.899994,0.299999 0.899994,0.799999l0,8.199997l4.799988,0c0.600006,0 1.100006,0.5 1.100006,1.099998l0,3.200005c0,0.599998 -0.5,1.099998 -1.100006,1.099998l-4.799988,0l0,16.799995c0,2.700005 0.199982,3 2.100006,3l2.799988,0c0.700012,0 1.100006,0.300003 1.100006,0.800003l0,3.400002c-0.100006,0.599998 -0.399994,0.900002 -1.100006,1m-26.200012,-13.299995l-3.399994,0c-4.899994,0 -5.899994,1.599998 -5.899994,4.599998l0,0.199997c0,2.599998 1.199982,3.299995 3.899994,3.299995c1.899994,0 3.899994,-0.599991 5.5,-1.499992l0,-6.599998l-0.100006,0zm5.900024,13.299995l-4.600006,0c-0.600006,0 -1.100006,-0.5 -1.100006,-1.099998l0,-0.900002c-2.5,1.5 -5,2.400002 -7.599976,2.400002c-4.400024,0 -9.300018,-1.699997 -9.300018,-9l0,-0.199997c0,-6.100006 3.700012,-9.300003 13.100006,-9.300003l3.399994,0l0,-2.400002c0,-3.5 -1.600006,-4.299995 -4.699982,-4.299995c-3.400024,0 -7,0.199997 -8.700012,0.399994l-0.200012,0c-0.5,0 -1,-0.199997 -1,-0.900002l0,-3.399994c0,-0.600006 0.299988,-1 1,-1.100006c2.100006,-0.399994 5.299988,-0.899994 8.899994,-0.899994c7.600006,0 11.800018,3.399994 11.800018,10.199997l0,19.299995c0.099976,0.700005 -0.400024,1.200005 -1,1.200005m-25.200012,0c-1.300003,0.200005 -2.5,0.400002 -3.600006,0.400002c-6.099991,0 -8.5,-1.400002 -8.5,-8.5l0,-16.800003l-5,-0.799995c-0.599991,-0.099998 -1.099991,-0.5 -1.099991,-1.099998l0,-2.400009c0,-0.599998 0.5,-1.099998 1.099991,-1.099998l5,0l0,-7.099998c0,-0.599998 0.5,-0.999996 1.100006,-1.099998l5,-0.899998l0.199997,0c0.5,0 0.900009,0.299999 0.900009,0.799999l0,8.199997l4.799988,0c0.600006,0 1.100006,0.5 1.100006,1.099998l0,3.200005c0,0.599998 -0.5,1.099998 -1.100006,1.099998l-4.799988,0l0,16.799995c0,2.700005 0.199997,3 2.099991,3l2.800003,0c0.699997,0 1.100006,0.300003 1.100006,0.800003l0,3.400002c-0.100006,0.599998 -0.400009,0.900002 -1.100006,1m-29.800003,0.400002c-2.100006,0 -6.600006,-0.300003 -9.600006,-1.099998c-0.599991,-0.200005 -1,-0.599998 -1,-1.200005l0,-3.199997c0,-0.400002 0.400009,-0.800003 0.900009,-0.800003l0.199997,0c2.600006,0.300003 7.399994,0.600006 9,0.600006c3.300003,0 3.800003,-1.100006 3.800003,-2.600006c0,-1 -0.600006,-1.699997 -2.400009,-2.699997l-7.299988,-4.5c-2.600006,-1.599998 -4.5,-4.300003 -4.5,-7.400002c0,-5.400002 3.399994,-8 10.199997,-8c4.300003,0 6.800003,0.5 9.5,1.099998c0.599991,0.200005 1,0.600006 1,1.200005l0,3.099998c0,0.699997 -0.300003,1 -0.800003,1l-0.199997,0c-1.5,-0.199997 -5.800003,-0.599998 -8.900009,-0.599998c-2.599991,0 -3.699997,0.599998 -3.699997,2.299995c0,0.900002 0.800003,1.400002 2.100006,2.200005l7,4.299995c4.5,2.700005 5.099991,5.400002 5.099991,8.100006c0.100006,4.5 -3.399994,8.199997 -10.399994,8.199997m-20.599991,-18.300003c0,-4.199997 -2.300003,-6.599998 -5.600006,-6.599998c-3.299988,0 -5.699997,2.400002 -5.699997,6.599998l0,0.200005l11.400009,0l0,-0.200005l-0.100006,0zm6.099991,5.200005l-17.5,0l0,0.199997c0,3.099998 1.300003,6.800003 6.399994,6.800003c3.900009,0 7.600006,-0.300003 9.900009,-0.500008l0.199997,0c0.5,0 1,0.300003 1,0.800003l0,3.5c0,0.900002 -0.199997,1.200005 -1.100006,1.400002c-3.5,0.599998 -5.599991,0.900002 -10.399994,0.900002c-5.300003,0 -13,-2.900002 -13,-13.5l0,-4c0,-8.400002 4.699997,-13.599998 12.899994,-13.599998c8.300003,0 12.800003,5.599998 12.800003,13.599998l0,3c-0.099991,1 -0.399994,1.400002 -1.199997,1.400002m-28.800003,12.699997l-5,0c-0.600006,0 -1.100006,-0.5 -1.100006,-1.099998l0,-38.600002c0,-0.599998 0.5,-1.099998 1.100006,-1.099998l5,0c0.600006,0 1,0.5 1,1.099998l0,38.600002c0,0.5 -0.399994,1.099998 -1,1.099998m-16.899994,-13.299995l-3.399994,0c-4.900009,0 -5.900009,1.599998 -5.900009,4.599998l0,0.199997c0,2.599998 1.199997,3.299995 3.900009,3.299995c1.899994,0 3.899994,-0.599991 5.5,-1.499992l0,-6.599998l-0.100006,0zm6,13.299995l-4.600006,0c-0.599991,0 -1.099991,-0.5 -1.099991,-1.099998l0,-0.900002c-2.5,1.5 -5,2.400002 -7.600006,2.400002c-4.399994,0 -9.300003,-1.699997 -9.300003,-9l0,-0.199997c0,-6.100006 3.700012,-9.300003 13.100006,-9.300003l3.399994,0l0,-2.400002c0,-3.5 -1.599991,-4.299995 -4.699997,-4.299995c-3.399994,0 -7,0.199997 -8.699997,0.399994l-0.300003,0c-0.5,0 -1,-0.199997 -1,-0.900002l0,-3.399994c0,-0.600006 0.300003,-1 1,-1.100006c2.100006,-0.399994 5.199997,-0.899994 9,-0.899994c7.600006,0 11.800003,3.399994 11.800003,10.199997l0,19.299995c0.100006,0.700005 -0.399994,1.200005 -1,1.200005m-31.699997,-17.900002c0,-4.199997 -2.300003,-6.599998 -5.600006,-6.599998c-3.299995,0 -5.699997,2.400002 -5.699997,6.599998l0,0.200005l11.400009,0l0,-0.200005l-0.100006,0zm6,5.200005l-17.5,0l0,0.199997c0,3.099998 1.300003,6.800003 6.399994,6.800003c3.900009,0 7.600006,-0.300003 9.900009,-0.500008l0.199997,0c0.5,0 1,0.300003 1,0.800003l0,3.5c0,0.900002 -0.199997,1.200005 -1.100006,1.400002c-3.5,0.599998 -5.599991,0.900002 -10.399994,0.900002c-5.400002,0 -13,-2.900002 -13,-13.5l0,-4c0,-8.400002 4.699997,-13.599998 12.899994,-13.599998c8.300003,0 12.800003,5.599998 12.800003,13.599998l0,3c-0.100006,1 -0.399994,1.400002 -1.199997,1.400002m-26.900002,-11.900002c-2.900002,0 -5.199997,0.800003 -7.400002,1.900002l0,21.599998c0,0.599998 -0.5,1.099998 -1.099998,1.099998l-4.900002,0c-0.599998,0 -1.099998,-0.5 -1.099998,-1.099998l0,-28c0,-0.599998 0.5,-1.099998 1.099998,-1.099998l4.700005,0c0.599998,0 1.099998,0.5 1.099998,1.099998l0,1.099998c2.599998,-2 5.5,-2.599998 7.699997,-2.599998c0.599998,0 1.099998,0.5 1.099998,1.099998l0,3.900002c-0.099998,0.5 -0.599998,1 -1.199997,1" fill="#333F48"/>
   <path id="svg_3" d="m496.200012,64.950005l-0.700012,0l0,1.099998l0.700012,0c0.399994,0 0.600006,-0.199997 0.600006,-0.599998c0,-0.300003 -0.299988,-0.5 -0.600006,-0.5m0.600006,3l-0.600006,-1.300003l-0.699982,0l0,1.300003l-0.600006,0l0,-3.599998l1.299988,0c0.700012,0 1.300018,0.399994 1.300018,1.099998c0,0.5 -0.200012,0.799995 -0.600006,1l0.699982,1.400002l-0.799988,0l0,0.099998zm-0.700012,-4.500004c-1.600006,0 -2.700012,1.200001 -2.700012,2.799999c0,1.600006 1.100006,2.800003 2.700012,2.800003c1.600006,0 2.700012,-1.199997 2.700012,-2.800003c0,-1.699997 -1.100006,-2.799999 -2.700012,-2.799999m0,6.200001c-1.899994,0 -3.399994,-1.5 -3.399994,-3.400002c0,-1.899994 1.399994,-3.399998 3.399994,-3.399998c1.899994,0 3.399994,1.500004 3.399994,3.399998c-0.099976,1.900002 -1.499969,3.400002 -3.399994,3.400002" fill="#333F48"/>
   <path id="svg_4" d="m112.800018,126.550003l-7.300003,0l-1.899994,5.599991l-2.800003,0l7,-19.299995l2.800003,0l7,19.299995l-2.800003,0l-2,-5.599991zm-3.699997,-11.100006c0,0 -0.400002,1.800003 -0.800003,2.700005l-2.199997,6.099998l5.900002,0l-2.099998,-6.099998c-0.300003,-1 -0.700005,-2.700005 -0.800003,-2.700005l0,0z" fill="#666666"/>
   <path id="svg_5" d="m119.100021,118.25l2.699997,0l0,8.300003c0,1.899994 0.400002,3.5 2.600006,3.5c2.799995,0 4.5,-2.5 4.5,-5.199997l0,-6.5l2.699997,0l0,13.899994l-2.600006,0l0,-1.800003c0,-0.599991 0.100006,-1 0.100006,-1l-0.100006,0c-0.599991,1.400009 -2.399994,3.200012 -5.099991,3.200012c-3.100006,0 -4.700005,-1.600006 -4.700005,-5.300003l0,-9.100006l-0.099998,0z" fill="#666666"/>
   <path id="svg_6" d="m135.300018,128.550003c0,0 1.600006,1.599991 4,1.599991c1.100006,0 2.300003,-0.599991 2.300003,-1.699997c0,-2.499992 -7.100006,-2 -7.100006,-6.499992c0,-2.500008 2.199997,-3.900002 5,-3.900002c3,0 4.5,1.5 4.5,1.5l-1.099991,2c0,0 -1.200012,-1.199997 -3.400009,-1.199997c-1.199997,0 -2.300003,0.5 -2.300003,1.699997c0,2.5 7.100006,1.900002 7.100006,6.5c0,2.300003 -2,4 -5,4c-3.399994,0 -5.300003,-2 -5.300003,-2l1.300003,-2z" fill="#666666"/>
   <path id="svg_7" d="m147.500015,120.550003l-1.800003,0l0,-2.100006l1.900009,0l0,-4l2.599991,0l0,4l3.300003,0l0,2.100006l-3.300003,0l0,6.199997c0,2.800003 1.900009,3.100006 3,3.100006c0.400009,0 0.600006,-0.100006 0.600006,-0.100006l0,2.399994c0,0 -0.400009,0.100006 -0.900009,0.100006c-1.799988,0 -5.299988,-0.5 -5.299988,-5.199997l0,-6.5l-0.100006,0z" fill="#666666"/>
   <path id="svg_8" d="m156.100021,118.25l2.600006,0l0,2.400009c0,0.599991 -0.100006,1 -0.100006,1l0.100006,0c0.599991,-2 2.199997,-3.600006 4.399994,-3.600006c0.399994,0 0.699997,0.100006 0.699997,0.100006l0,2.599991c0,0 -0.399994,-0.099991 -0.800003,-0.099991c-1.699997,0 -3.299988,1.199997 -3.899994,3.299995c-0.199997,0.799995 -0.300003,1.599998 -0.300003,2.499992l0,5.700012l-2.699997,0l0,-13.900009z" fill="#666666"/>
   <path id="svg_9" d="m173.100021,123.449997l0.600006,0l0,-0.199997c0,-2.299995 -1.300003,-3 -3,-3c-2.100006,0 -3.900009,1.300003 -3.900009,1.300003l-1.099991,-1.900002c0,0 2,-1.599998 5.199997,-1.599998c3.5,0 5.5,1.900002 5.5,5.399994l0,8.800003l-2.5,0l0,-1.300003c0,-0.599991 0.099991,-1.099991 0.099991,-1.099991l-0.099991,0c0,0 -1.100006,2.699997 -4.400009,2.699997c-2.399994,0 -4.699997,-1.5 -4.699997,-4.199997c0,-4.699997 6,-4.900009 8.300003,-4.900009zm-3.100006,6.800003c2.199997,0 3.699997,-2.399994 3.699997,-4.399994l0,-0.400009l-0.699997,0c-2,0 -5.600006,0.100006 -5.600006,2.600006c0.000015,1.100006 0.900009,2.199997 2.600006,2.199997z" fill="#666666"/>
   <path id="svg_10" d="m179.600021,112.75l2.699997,0l0,15.100006c0,1.699997 0.699997,2 1.5,2c0.199997,0 0.5,0 0.5,0l0,2.399994c0,0 -0.399994,0.100006 -0.899994,0.100006c-1.5,0 -3.699997,-0.400009 -3.699997,-3.900009l0,-15.699997l-0.100006,0z" fill="#666666"/>
   <path id="svg_11" d="m186.500015,112.75l2.699997,0l0,2.700005l-2.699997,0l0,-2.700005zm0,5.5l2.699997,0l0,13.900009l-2.699997,0l0,-13.900009z" fill="#666666"/>
   <path id="svg_12" d="m200.000015,123.449997l0.600006,0l0,-0.199997c0,-2.299995 -1.300003,-3 -3,-3c-2.100006,0 -3.900009,1.300003 -3.900009,1.300003l-1.099991,-1.900002c0,0 2,-1.599998 5.199997,-1.599998c3.5,0 5.5,1.900002 5.5,5.399994l0,8.800003l-2.5,0l0,-1.300003c0,-0.599991 0.099991,-1.099991 0.099991,-1.099991l-0.099991,0c0,0 -1.100006,2.699997 -4.400009,2.699997c-2.399994,0 -4.699997,-1.5 -4.699997,-4.199997c0,-4.699997 6,-4.900009 8.300003,-4.900009zm-3,6.800003c2.199997,0 3.699997,-2.399994 3.699997,-4.399994l0,-0.400009l-0.699997,0c-2,0 -5.600006,0.100006 -5.600006,2.600006c0.000015,1.100006 0.800003,2.199997 2.600006,2.199997z" fill="#666666"/>
   <path id="svg_13" d="m213.100021,112.75l2.699997,0l0,15.100006c0,1.699997 0.699997,2 1.5,2c0.199997,0 0.5,0 0.5,0l0,2.399994c0,0 -0.399994,0.100006 -0.899994,0.100006c-1.5,0 -3.699997,-0.400009 -3.699997,-3.900009l0,-15.699997l-0.100006,0z" fill="#666666"/>
   <path id="svg_14" d="m219.900024,112.75l2.699997,0l0,2.700005l-2.699997,0l0,-2.700005zm0,5.5l2.699997,0l0,13.900009l-2.699997,0l0,-13.900009z" fill="#666666"/>
   <path id="svg_15" d="m224.300018,118.25l2.800003,0l3.399994,9.400009c0.300003,0.799988 0.400009,1.899994 0.5,1.899994l0.100006,0c0,0 0.199997,-1.100006 0.5,-1.899994l3.399994,-9.400009l2.800003,0l-5.100006,13.900009l-3.099991,0l-5.300003,-13.900009z" fill="#666666"/>
   <path id="svg_16" d="m245.400024,117.950005c3.899994,0 6,2.900002 6,6.499992c0,0.400009 -0.100006,1.199997 -0.100006,1.199997l-10.099991,0c0.099991,3 2.300003,4.600006 4.800003,4.600006c2.399994,0 4.099991,-1.600006 4.099991,-1.600006l1.100006,1.900009c0,0 -2.100006,2 -5.400009,2c-4.399994,0 -7.299988,-3.199997 -7.299988,-7.300003c-0.000015,-4.5 2.899994,-7.299995 6.899994,-7.299995zm3.299988,5.599998c-0.100006,-2.400002 -1.600006,-3.5 -3.300003,-3.5c-2,0 -3.699997,1.300003 -4.099991,3.5l7.399994,0z" fill="#666666"/>
   <path id="svg_17" d="m254.300018,128.550003c0,0 1.600006,1.599991 4,1.599991c1.100006,0 2.299988,-0.599991 2.299988,-1.699997c0,-2.499992 -7.099991,-2 -7.099991,-6.499992c0,-2.500008 2.199997,-3.900002 5.000015,-3.900002c3,0 4.5,1.5 4.5,1.5l-1.100006,2c0,0 -1.200012,-1.199997 -3.399994,-1.199997c-1.200012,0 -2.300018,0.5 -2.300018,1.699997c0,2.5 7.100006,1.900002 7.100006,6.5c0,2.300003 -2,4 -5,4c-3.399994,0 -5.300003,-2 -5.300003,-2l1.300003,-2z" fill="#666666"/>
   <path id="svg_18" d="m272.300018,112.75l2.700012,0l0,7.100006c0,0.699997 -0.100006,1.199997 -0.100006,1.199997l0.100006,0c0.599976,-1.300003 2.399994,-3.099998 5.099976,-3.099998c3.300018,0 4.800018,1.799995 4.800018,5.299995l0,8.900009l-2.700012,0l0,-8.300003c0,-1.900002 -0.399994,-3.5 -2.600006,-3.5c-2.099976,0 -3.799988,1.399994 -4.399994,3.399994c-0.199982,0.5 -0.199982,1.200005 -0.199982,1.800003l0,6.5l-2.700012,0l0,-19.300003z" fill="#666666"/>
   <path id="svg_19" d="m294.300018,117.950005c3.899994,0 6,2.900002 6,6.499992c0,0.400009 -0.100006,1.199997 -0.100006,1.199997l-10.100006,0c0.100006,3 2.300018,4.600006 4.800018,4.600006c2.399994,0 4.100006,-1.600006 4.100006,-1.600006l1.099976,1.900009c0,0 -2.099976,2 -5.399994,2c-4.399994,0 -7.299988,-3.199997 -7.299988,-7.300003c-0.100006,-4.5 2.899994,-7.299995 6.899994,-7.299995zm3.299988,5.599998c-0.100006,-2.400002 -1.600006,-3.5 -3.299988,-3.5c-2,0 -3.700012,1.300003 -4.100006,3.5l7.399994,0z" fill="#666666"/>
   <path id="svg_20" d="m303.000031,118.25l2.600006,0l0,2.400009c0,0.599991 -0.100006,1 -0.100006,1l0.100006,0c0.600006,-2 2.199982,-3.600006 4.399994,-3.600006c0.399994,0 0.700012,0.100006 0.700012,0.100006l0,2.599991c0,0 -0.400024,-0.099991 -0.800018,-0.099991c-1.699982,0 -3.299988,1.199997 -3.899994,3.299995c-0.200012,0.799995 -0.299988,1.599998 -0.299988,2.499992l0,5.700012l-2.700012,0l0,-13.900009z" fill="#666666"/>
   <path id="svg_21" d="m318.600006,117.950005c3.899994,0 6,2.900002 6,6.499992c0,0.400009 -0.100006,1.199997 -0.100006,1.199997l-10.100006,0c0.100006,3 2.300018,4.600006 4.800018,4.600006c2.399994,0 4.100006,-1.600006 4.100006,-1.600006l1.099976,1.900009c0,0 -2.099976,2 -5.399994,2c-4.399994,0 -7.299988,-3.199997 -7.299988,-7.300003c0,-4.5 2.899994,-7.299995 6.899994,-7.299995zm3.300018,5.599998c-0.100006,-2.400002 -1.600006,-3.5 -3.299988,-3.5c-2,0 -3.700012,1.300003 -4.100006,3.5l7.399994,0z" fill="#666666"/>
   <path id="svg_22" d="m0.600015,99.650002c-0.1,23.900002 19.099999,43.299995 42.9,43.400002c23.800003,0.099991 43.200005,-19.099998 43.300003,-42.900002c0.199997,-23.799995 -19,-43.200001 -42.800003,-43.299999l-0.200001,0c-23.799999,0 -42.999999,19.100002 -43.199999,42.799999" fill="#E4002B"/>
   <path id="svg_23" d="m57.800014,96.75l0,22.900002l-28.1,0l0,-22.900002l-7.4,0l21.5,-21.399994l21.500004,21.399994l-7.500004,0zm14.200001,-2.699997l0,0l-25.600002,-25.599998c-0.700001,-0.700005 -1.600002,-1.200005 -2.700001,-1.200005l0,0c-1,0 -2,0.400002 -2.700001,1.200005l-25.499996,25.599998l0,0c-1,1 -1.599999,2.400002 -1.599999,3.900002c0,3 2.499999,5.5 5.499999,5.5l3.5,0c0,0 0,19.400002 0,19.400002c0,2 1.6,3.599991 3.6,3.599991l34.5,0c2,0 3.600006,-1.599991 3.600006,-3.599991c0,0 0,-19.400002 0,-19.400002l3.5,0c3,0 5.5,-2.5 5.5,-5.5c0,-1.599998 -0.600006,-2.900002 -1.600006,-3.900002" fill="#FFFFFF"/>
  </g>
 </g>
</svg>