<svg width="500" height="200" viewBox="0 0 500 200" xmlns="http://www.w3.org/2000/svg"><path d="M500 51.086h-23.79v59.526l-44.034-59.526h-18.973V154.82h23.806V93.727l43.553 61.093H500V51.086zM372.94 154.82h24.37V51.086h-24.37s-.18 103.734 0 103.734zm-81.986 0h23.7v-44.208h27.39v-16.9h-27.39V68.163l42.314.007V51.087h-66.014V154.82zm-32.056-95.355c-9.214-6.092-21.623-8.362-38.153-8.364l-31.258-.014v103.717l31.914.017c11.362 0 21.13-1.463 29.296-4.748 8.202-3.354 14.617-8.674 18.967-16.346 4.346-7.663 6.62-17.656 6.62-30.356 0-10.982-1.378-19.963-4.24-27.203-2.86-7.247-7.234-12.744-13.145-16.702 0 0 5.91 3.958 0 0zm-9.136 61.818c-1.525 5.17-3.963 9.112-7.75 11.858-4.165 2.975-10.45 4.594-18.214 4.594H212.73l-.016-69.563 9.29.015c9.147.03 15.92 1.51 20.476 4.9 3.33 2.513 5.65 6.022 7.168 10.81 1.512 4.794 2.186 10.84 2.186 18.325 0 7.494-.55 13.88-2.072 19.063zm-119.674-10.67h27.434V93.71h-27.434V68.1h42.27V51.086h-66V154.82h66.014v-17.204h-42.284v-27.004zM98.718 159.2c-2.005-.798-4.015-2.324-9.408-11.364L65.902 109.18l-1.075-1.775c.622-.176 1.23-.372 1.83-.577 14.54-4.965 23.025-18.216 23.025-37.125 0-9.347-3.794-17.978-11.04-24.436a35.883 35.883 0 0 0-3.316-2.525c-9.673-6.355-22.7-8.722-40.053-8.725L2.456 34H2.44v.01h-.483C-.176 33.98-.38 35.202.46 36.312c.753.986 1.61 2.3 1.98 5.64v104.33c-.37 4.248-1.238 5.602-1.98 6.58-.847 1.104-.475 2.366 1.66 2.344h24.3V110.95h11.044l22.256 37.67c6.028 10.102 11.3 15.698 21.8 16.893 1.432.19 2.96.28 4.605.294h1.624c3.774 0 7.46-1.508 9.756-2.482.31-.112.614-.233.915-.366 2.76-1.216 1.995-3.08.297-3.756 0 0 1.698.676 0 0zM42.53 93.8H26.896V51.086H42.53c7.74 0 13.64.986 18.062 4.938 1.633 1.52 2.896 3.36 3.79 5.578 1.087 2.69 1.633 5.927 1.633 9.826 0 5.678-.53 22.372-23.484 22.372z" fill="#A02122" fill-rule="evenodd"/></svg>