<svg width="500" height="200" xmlns="http://www.w3.org/2000/svg" viewBox="0 0 150 33"><style>.st0{fill:#ED1C24;}</style><g id="Layer_1"><path d="M45.5 17.5V23h-2.4V10.6h4.6c1.3 0 2.1.4 2.7.9.7.6 1.1 1.6 1.1 2.6s-.4 1.9-1.1 2.6c-.3.3-.8.6-1.3.7l4.7 5.7h-3l-4.5-5.5h-.8zm2-2.1c.7 0 1-.1 1.2-.4s.4-.6.4-.9c0-.4-.1-.7-.4-1-.2-.2-.5-.4-1.2-.4h-2v2.7h2zM55.5 10.6v12.5h7.7v-2.2h-5.3v-3.5h3.8v-2.1h-3.8v-2.6H63v-2.1zM66.3 10.6v12.5h2.4v-5.7h3.9v-2.1h-3.9v-2.6h5.1v-2.1zM76.4 10.6h2.4v12.5h-2.4zM90.9 10.6v8.1l-7-8.1h-1.7v12.5h2.5v-8.2l6.9 8.2h1.7V10.6zM97 10.6v12.5h7.7v-2.2h-5.3v-3.5h3.9v-2.1h-3.9v-2.6h5.1v-2.1zM110.3 17.5V23h-2.4V10.6h4.6c1.3 0 2.1.4 2.7.9.7.6 1.1 1.6 1.1 2.6s-.4 1.9-1.1 2.6c-.3.3-.7.6-1.3.7l4.7 5.7h-3l-4.5-5.5h-.8zm2-2.1c.7 0 1-.1 1.2-.4.2-.2.4-.6.4-.9 0-.4-.1-.7-.4-1-.2-.2-.5-.4-1.2-.4h-2v2.7h2zM126.3 10.6l-2.7 4.4-2.8-4.4h-2.7l4.3 6.8v5.7h2.4v-5.7l4.3-6.8zM134.7 20.9l2.6-3.2c.9-1.1 1.4-2.1 1.4-3.7 0-2.3-1.9-3.9-4.1-3.9h-.1c-2.1 0-4 1.6-4.1 3.9h2.4c0-.9.8-1.7 1.7-1.7.9 0 1.7.8 1.7 1.7 0 .7-.1 1.3-1 2.5l-5.4 6.5h9.2v-2.2h-4.3zM145.4 10.1c-2.4 0-4.5 2-4.5 4.5 0 2.6 2 4.4 4.4 4.4h.2l-2.4 4.1h2.7l3-5.1c.7-1.1 1.2-2.3 1.2-3.5 0-2.7-2.2-4.4-4.6-4.4m.1 6.7c-1.2 0-2.3-1-2.3-2.3 0-1.2 1-2.3 2.3-2.3 1.2 0 2.3 1 2.3 2.3-.1 1.3-1.1 2.3-2.3 2.3"/><g><path d="M22.4 10.2c-.8 0-1.6.2-2.2.6-.8-2.6-3.1-4-6.5-4H8.5V9h5.4c2.8 0 4.4 1.5 4.4 4.1 0 2.5-1.5 4-4.1 4.1l.1-.2c.7-1 1.3-2.1 1.3-3.1 0-2.2-1.5-3.6-3.9-3.6-2.1 0-3.9 1.7-3.9 3.7h2.4v-.2c0-.9.6-1.5 1.5-1.5 1.3 0 1.5.8 1.5 1.5s-.5 1.4-1 2.2l-.8 1.1H8.1v2.2H10l-3.5 5.2h9v-2.2h-4.9l2-3h1.6l5.7 7.4H22.8L21 24.4l3.7-5.3.2-.2c.9-1.3 1.9-2.7 1.9-4.4-.1-2.5-1.9-4.3-4.4-4.3zm-1.9 4.2V14c.1-1 .9-1.7 1.9-1.7 1.2 0 2 .8 2 2s-.8 2-2 2c-1.1.2-1.9-.7-1.9-1.9zm-1.3 2.9c.8.9 1.8 1.4 3.1 1.4l-2.7 3.8-2.8-3.6c.9-.4 1.7-.9 2.4-1.6z"/><path d="M16.1.4C7.2.4 0 7.6 0 16.5s7.2 16.1 16.1 16.1 16.1-7.2 16.1-16.1S24.9.4 16.1.4zm13.8 16.1c0 7.6-6.2 13.8-13.8 13.8-7.6 0-13.8-6.2-13.8-13.8 0-7.6 6.2-13.8 13.8-13.8 7.6 0 13.8 6.2 13.8 13.8z"/></g></g></svg>
