<svg id="Layer_1" xmlns="http://www.w3.org/2000/svg" viewBox="0 0 500 200"><style>.st0{fill:#DB3327;} .st1{fill:#787878;}</style><title>logo</title><path class="st0" d="M130 50.8H33.9c-6.2 0-11.2 5-11.2 11.2v65.9l-12.3 21.3h108.5c6.2 0 11.2-5 11.2-11.2V71.8l12.3-21H130zM61.9 89.2c-4.2.3-7.9 3.6-7.9 11.8v19.3H43.4V79.4h1.4c4.1-.5 7.8 2.2 8.7 6.2 2.2-4.4 6.9-7 11.8-6.4h3.1l-5.9 10.1-.6-.1zm47.4 10.7v21h-1.4c-5.9 0-9.3-3.1-9.3-10.7V98.7c0-5.9-2.8-9.8-8.1-9.8s-8.4 3.6-8.4 11.8v19.6H70.9V98.5c0-4.8-1.7-8.1-5-9.3l5.9-9.8c3.6 1.1 6.6 3.5 8.4 6.7 3.2-4.8 8.6-7.5 14.3-7.3 10.4 0 14.9 7.9 14.9 17.9v3.2z"/><path class="st1" d="M412.4 83.1c11.2 0 19.3 8.1 19.3 18.9 0 10.7-8.1 18.7-19.3 18.7-11.1 0-19.1-8-19.1-18.7 0-10.9 8.1-18.9 19.1-18.9zm0 28.9c6 0 10-4.4 10-10 0-5.7-4-10.2-10-10.2-5.9 0-9.9 4.4-9.9 10.2 0 5.6 4.1 10 9.9 10zM445.7 116.5c0 9.1-4.6 13.9-9.9 16.7l-5.7-6.2c3.3-2 6-4.6 6-10.1V84h9.6v32.5zm-4.8-47.3c3.3 0 5.5 1.2 5.5 4.7s-2.1 4.8-5.5 4.8-5.5-1.3-5.5-4.8c0-3.4 2.2-4.7 5.5-4.7zM470.4 83.1c11.2 0 19.3 8.1 19.3 18.9 0 10.7-8.1 18.7-19.3 18.7-11.1 0-19.1-8-19.1-18.7 0-10.9 8.1-18.9 19.1-18.9zm0 28.9c6 0 10-4.4 10-10 0-5.7-4-10.2-10-10.2-5.9 0-9.9 4.4-9.9 10.2 0 5.6 4.1 10 9.9 10zM217.8 115.8c-3.7 3-8.9 4.8-15 4.8-13.4 0-19.5-8.2-19.5-18.7 0-10.6 7.4-18.9 18.8-18.9 10.9 0 16 6.6 16 14.9 0 2.2-.3 5.6-.8 7h-24.2c.9 5 4.1 7.8 9.9 7.8 3.3 0 6.5-1 8.9-2.3 1.3-.7 2.9-.2 3.6 1.1l2.3 4.3zM209 96.3c0-2.9-2.2-5.3-7-5.3-5.1 0-7.9 3.1-8.5 6.6H209v-1.3zM275 75v9h15.5s-2.9 3.4-4.6 7.4H275V106c0 4.3 1.7 6.9 4.8 6.9 2.6 0 4.6-.7 6.7-1.8 0 0 1.1 3.8 3.5 6.1-3.4 2.1-7.9 3.3-13.2 3.3-7 0-11.4-4.3-11.4-12.5V91.5h-5.8c-1.8-5.1-3.5-7.4-3.5-7.4h9.2l1.2-9.1h8.5zM256.3 108.7v-9.6c0-8.8-4-15.8-13.2-15.8-5 0-8.9 2-11.5 5V84H222v35.7h9.6v-16.4c0-7 3.9-11.1 7.9-11.1 4.8 0 7.2 3.3 7.2 8.5V111c0 6.7 2.9 9.4 8.3 9.4h1.3v-11.7z"/><path class="st1" d="M307.9 83.1c11.2 0 19.3 8.1 19.3 18.9 0 10.7-8.1 18.7-19.3 18.7-11.1 0-19.1-8-19.1-18.7 0-10.9 8-18.9 19.1-18.9zm0 28.9c6 0 10-4.4 10-10 0-5.7-4-10.2-10-10.2-5.9 0-9.9 4.4-9.9 10.2 0 5.6 4 10 9.9 10zM185.4 85.9s-3-2.5-7-2.5c-4.6 0-7.2 2-8.9 5.4-1-3.8-3.7-5.4-7.8-5.4h-1.3v36.3h9.6v-17.1c0-7.5 3.6-10.4 7.6-10.4 0 0 1.7 0 3.3.4 1.4-3.3 4.5-6.7 4.5-6.7zM375.8 83.4c-5.9 0-10.2 2.6-12.6 6.3-1.8-4.4-6.9-6.3-12.8-6.3h-.1H350c-4.5.1-8.3 2.3-10 5.5-1-3.7-3.7-5.4-7.8-5.4h-1.3v36.2h9.6v-17.1c0-7.4 3.6-10.4 7.6-10.4 4.8 0 7 3.3 7 8.5v19.1h9.6v-17.2c0-7.2 3.6-10.3 7.4-10.3 4.7 0 7.1 3.3 7.1 8.5V111c0 6.7 2.9 9.4 8.2 9.4.4 0 .9 0 1.3-.1V99.2c.1-8.8-3.7-15.8-12.9-15.8z"/></svg>