<?xml version="1.0"?>
<svg width="500.00000000000006" height="200.00000000000003" xmlns="http://www.w3.org/2000/svg">
 <g>
  <title>background</title>
  <rect x="-1" y="-1" width="335.187867" height="135.275147" id="canvas_background" fill="none"/>
 </g>

 <g>
  <title>Layer 1</title>
  <g stroke="null" id="svg_3">
   <path stroke="null" fill="#DD5A6F" d="m168.744476,0.251045l162.511017,0c10.213928,0 18.493469,8.27951 18.493469,18.493433l0,162.511045c0,10.213928 -8.279541,18.493439 -18.493469,18.493439l-162.511017,0c-10.21347,0 -18.493439,-8.27951 -18.493439,-18.493439l0,-162.511045c0,-10.213923 8.279968,-18.493433 18.493439,-18.493433z" id="svg_1"/>
   <path stroke="null" fill="#fff" d="m176.7267,73.556702c-0.178925,0.536308 -0.380035,1.072617 -0.603348,1.608925s-0.480835,1.005577 -0.771179,1.407814s-0.614899,0.703217 -0.971832,0.904785c-0.357376,0.201584 -0.737427,0.234871 -1.139648,0.100792c-0.536316,-0.089226 -0.837753,-0.480827 -0.905258,-1.172943c-0.067047,-0.693512 0.011551,-1.374527 0.234863,-2.044907c0.313004,-1.072624 0.770721,-2.491989 1.374527,-4.256729c0.603348,-1.766129 1.295929,-3.698677 2.078201,-5.79908c0.781342,-2.100388 1.608932,-4.279385 2.479965,-6.536045c0.871964,-2.257118 1.709717,-4.413456 2.514191,-6.469463c0.804459,-2.056004 1.541885,-3.921532 2.21228,-5.597961c0.67038,-1.675968 1.184494,-2.98299 1.541885,-3.921066c0.134079,-0.268158 0.33519,-0.491467 0.603348,-0.670391s0.547409,-0.268154 0.838196,-0.268154c0.290359,0 0.580704,0.08923 0.871521,0.268154c0.290344,0.178925 0.52475,0.469273 0.703674,0.871506c0.357376,0.938541 0.380035,1.855354 0.067032,2.748585c-0.313004,0.715233 -0.759613,1.821144 -1.340775,3.31818c-0.581146,1.497974 -1.239975,3.184574 -1.977875,5.061657c-0.737427,1.877083 -1.508133,3.866051 -2.312592,5.966442c-0.804474,2.100391 -1.564087,4.100914 -2.279327,6.000202c-0.715225,1.899269 -1.362961,3.608536 -1.944107,5.128227s-1.005585,2.63623 -1.273743,3.351471zm35.731628,-16.826721c-0.893707,-0.670383 -1.865997,-1.385612 -2.916412,-2.145695c-1.049515,-0.759617 -2.156342,-1.541889 -3.318192,-2.345894c0.759613,2.725937 1.564087,5.318249 2.413391,7.776028c0.134079,0.536312 0.078598,1.006042 -0.167358,1.40781c-0.245972,0.402233 -0.547882,0.603813 -0.905258,0.603813c-0.581161,-0.089233 -1.172943,-0.357384 -1.776749,-0.804466c-0.603363,-0.447079 -1.017151,-0.983391 -1.23999,-1.608929c-0.178925,-0.401768 -0.402237,-1.049961 -0.67038,-1.943657c-0.268158,-0.894157 -0.581161,-1.944122 -0.938553,-3.150822c-0.759613,1.117466 -1.46376,2.21228 -2.111496,3.284897c-0.648178,1.072159 -1.262161,2.100391 -1.843781,3.083778c-0.357391,0.491005 -0.759628,0.770718 -1.206711,0.837757c-0.447067,0.067501 -0.782257,-0.033749 -1.005569,-0.301903c-0.313004,-0.491009 -0.502563,-1.127644 -0.570068,-1.910374c-0.067032,-0.781811 0.055481,-1.44157 0.368958,-1.977413c0.223297,-0.357388 0.625534,-1.006042 1.206696,-1.944122c0.581146,-0.938545 1.295929,-2.033352 2.145233,-3.284893c-0.938538,0.223305 -1.854889,0.45771 -2.748581,0.703674c-0.893707,0.245499 -1.787857,0.480827 -2.681549,0.703674c-0.536316,0.089233 -1.005585,0 -1.407822,-0.268154s-0.581161,-0.581158 -0.536301,-0.93808c0.134064,-0.581619 0.435516,-1.106369 0.904785,-1.575176c0.469742,-0.4702 1.017136,-0.793369 1.642685,-0.972759c0.447067,-0.134075 1.172943,-0.32317 2.178513,-0.569595c1.006058,-0.245041 2.156815,-0.52475 3.452728,-0.837753c-0.893692,-0.536312 -1.776291,-1.083714 -2.647781,-1.642216c-0.871979,-0.559425 -1.754578,-1.084179 -2.64827,-1.575642c-0.49147,-0.313 -0.770706,-0.715233 -0.838226,-1.206234c-0.067032,-0.491463 0.033768,-0.849308 0.30191,-1.07262c0.49147,-0.313 1.083725,-0.45771 1.776764,-0.43552c0.692581,0.022194 1.307022,0.212673 1.843323,0.569599c0.447083,0.222847 1.072617,0.603348 1.87709,1.139656c-0.134079,-0.759617 -0.245972,-1.485947 -0.33519,-2.178524c-0.089233,-0.693504 -0.156265,-1.352333 -0.201111,-1.977875c-0.044861,-0.490997 0.067032,-0.915886 0.33519,-1.273731c0.268143,-0.356926 0.581146,-0.558502 0.938538,-0.603352c0.313004,-0.08923 0.692581,0.010632 1.139664,0.301907c0.447067,0.290348 0.782272,0.837753 1.005569,1.64222c0.178925,0.849308 0.380051,1.72081 0.603348,2.614044c0.223312,0.894157 0.447083,1.855354 0.670395,2.88266c0.893692,-1.206692 1.765198,-2.346352 2.614502,-3.418972c0.849319,-1.07262 1.653778,-1.989429 2.413391,-2.748585c0.357391,-0.357388 0.759628,-0.558502 1.206696,-0.603348c0.447083,-0.045307 0.804474,0.067039 1.072632,0.335194c0.223297,0.178925 0.391129,0.536308 0.503021,1.072617c0.110962,0.536312 -0.078613,1.13966 -0.570068,1.810047c-0.491455,0.669922 -1.05043,1.418907 -1.675964,2.245564s-1.273743,1.709255 -1.944122,2.648258c1.16185,-0.223305 2.301514,-0.391598 3.418976,-0.503017c1.117462,-0.110962 2.167419,-0.18956 3.150818,-0.234871c0.491455,0 0.916351,0.089233 1.273743,0.268154c0.357376,0.17939 0.558487,0.447544 0.603333,0.804466c0.044861,0.313004 -0.089233,0.692581 -0.402222,1.13966c-0.313004,0.447544 -0.871506,0.737888 -1.675964,0.871967c-0.759628,0.133614 -1.575195,0.267689 -2.446686,0.401768c-0.871964,0.134075 -1.754562,0.290344 -2.648254,0.46973c1.027771,0.759624 1.988953,1.508141 2.88266,2.245571c0.893692,0.737888 1.72081,1.441097 2.480423,2.111485c0.357391,0.357388 0.591797,0.725868 0.704147,1.105907c0.110947,0.380043 0.055481,0.725868 -0.167831,1.03933c-0.223312,0.223309 -0.603348,0.380039 -1.139664,0.469734c-0.536301,0.088768 -1.117462,-0.089695 -1.742996,-0.536777zm27.217697,0c-0.893692,-0.670383 -1.865997,-1.385612 -2.915939,-2.145695c-1.05043,-0.759617 -2.156799,-1.541889 -3.318649,-2.345894c0.759613,2.725937 1.564087,5.318249 2.413391,7.776028c0.134079,0.536312 0.078598,1.006042 -0.167816,1.40781c-0.245056,0.402233 -0.547424,0.603813 -0.9048,0.603813c-0.581161,-0.089233 -1.172958,-0.357384 -1.776764,-0.804466c-0.603348,-0.447079 -1.01712,-0.983391 -1.239975,-1.608929c-0.178925,-0.401768 -0.402237,-1.049961 -0.670395,-1.943657c-0.268158,-0.894157 -0.581161,-1.944122 -0.938538,-3.150822c-0.759613,1.117466 -1.46376,2.21228 -2.111938,3.284897c-0.647293,1.072159 -1.262192,2.100391 -1.843338,3.083778c-0.357391,0.491005 -0.759628,0.770718 -1.206696,0.837757s-0.782272,-0.033749 -1.005585,-0.301903c-0.313019,-0.491009 -0.502563,-1.127644 -0.570068,-1.910374c-0.067032,-0.781811 0.055481,-1.44157 0.368942,-1.977413c0.223312,-0.357388 0.625534,-1.006042 1.206711,-1.944122c0.581146,-0.938545 1.295929,-2.033352 2.145233,-3.284893c-0.938538,0.223305 -1.854904,0.45771 -2.748581,0.703674c-0.893707,0.245499 -1.787857,0.480827 -2.681564,0.703674c-0.536301,0.089233 -1.005585,0 -1.407806,-0.268154c-0.402222,-0.268158 -0.581146,-0.581158 -0.536316,-0.93808c0.134094,-0.581619 0.435516,-1.106369 0.905273,-1.575176c0.469269,-0.4702 1.017136,-0.793369 1.642212,-0.972759c0.447067,-0.134075 1.172943,-0.32317 2.178528,-0.569595c1.006042,-0.245041 2.156799,-0.52475 3.452713,-0.837753c-0.893692,-0.536312 -1.776291,-1.083714 -2.647781,-1.642216c-0.871979,-0.559425 -1.754578,-1.084179 -2.648285,-1.575642c-0.491455,-0.313 -0.770691,-0.715233 -0.838211,-1.206234c-0.067032,-0.491463 0.033768,-0.849308 0.30191,-1.07262c0.49147,-0.313 1.08371,-0.45771 1.776749,-0.43552c0.692581,0.022194 1.307037,0.212673 1.843323,0.569599c0.447098,0.222847 1.072632,0.603348 1.877106,1.139656c-0.134079,-0.759617 -0.245972,-1.485947 -0.335205,-2.178524c-0.089218,-0.693504 -0.15625,-1.352333 -0.201111,-1.977875c-0.04483,-0.490997 0.067047,-0.915886 0.335205,-1.273731c0.268127,-0.356926 0.581146,-0.558502 0.938538,-0.603352c0.313004,-0.08923 0.692566,0.010632 1.139664,0.301907c0.447067,0.290348 0.782257,0.837753 1.005569,1.64222c0.178925,0.849308 0.380035,1.72081 0.603348,2.614044c0.223312,0.894157 0.447098,1.855354 0.670395,2.88266c0.893677,-1.206692 1.765198,-2.346352 2.614502,-3.418972c0.849319,-1.07262 1.653778,-1.989429 2.413391,-2.748585c0.357376,-0.357388 0.759613,-0.558502 1.206696,-0.603348c0.447083,-0.045307 0.804474,0.067039 1.072617,0.335194c0.223312,0.178925 0.391144,0.536308 0.502563,1.072617c0.111893,0.536312 -0.078598,1.13966 -0.569595,1.810047c-0.490997,0.669922 -1.049957,1.418907 -1.675964,2.245564c-0.625549,0.82666 -1.273743,1.709255 -1.944122,2.648258c1.16185,-0.223305 2.301514,-0.391598 3.418976,-0.503017c1.117462,-0.110962 2.167419,-0.18956 3.150818,-0.234871c0.491455,0 0.916351,0.089233 1.273727,0.268154c0.357391,0.17939 0.558517,0.447544 0.603348,0.804466c0.044861,0.313004 -0.089233,0.692581 -0.402222,1.13966c-0.313004,0.447544 -0.871506,0.737888 -1.67598,0.871967c-0.759613,0.133614 -1.57518,0.267689 -2.446671,0.401768c-0.871979,0.134075 -1.754578,0.290344 -2.648254,0.46973c1.027771,0.759624 1.988968,1.508141 2.88266,2.245571s1.72081,1.441097 2.480423,2.111485c0.357391,0.357388 0.591782,0.725868 0.704147,1.105907c0.110962,0.380043 0.055466,0.725868 -0.167831,1.03933c-0.223312,0.223309 -0.603348,0.380039 -1.139664,0.469734c-0.536316,0.088768 -1.117462,-0.089695 -1.743011,-0.536777zm-32.728745,103.835999c13.078552,0 22.195816,-8.29985 22.195816,-21.001129c0,-12.575546 -9.117264,-20.938271 -22.258698,-20.938271l-16.536835,0l0,41.9394l16.599716,0zm-0.062881,-7.859711l-7.6082,0l0,-26.219971l7.671082,0c8.551361,0 13.078552,5.721878 13.078552,13.078552c0,7.168045 -4.841568,13.141418 -13.141434,13.141418zm48.541565,8.614243c12.638397,0 21.881439,-9.054382 21.881439,-21.69278s-9.243042,-21.692802 -21.881439,-21.692802c-12.701294,0 -21.944305,9.05439 -21.944305,21.692802s9.243011,21.69278 21.944305,21.69278zm0,-7.922592c-7.796844,0 -12.76416,-5.973358 -12.76416,-13.770187c0,-7.859726 4.967316,-13.770226 12.76416,-13.770226c7.733948,0 12.701294,5.9105 12.701294,13.770226c0,7.796829 -4.967346,13.770187 -12.701294,13.770187zm48.541565,7.922592c9.180115,0 14.524719,-5.093094 17.480438,-10.311935l-7.671051,-3.709793c-1.761047,3.395859 -5.533722,6.099136 -9.809387,6.099136c-7.671082,0 -13.204315,-5.847595 -13.204315,-13.770187s5.533234,-13.770226 13.204315,-13.770226c4.275665,0 8.04834,2.704201 9.809387,6.099144l7.671051,-3.772659c-2.955719,-5.281731 -8.299835,-10.249062 -17.47998,-10.249062c-12.638855,0 -22.38446,8.73999 -22.38446,21.692802c-0.000458,12.889908 9.745605,21.69278 22.384003,21.69278zm-102.004242,-50.745979c8.727051,0 13.05452,-4.615952 13.05452,-10.241653c0,-13.415146 -21.925812,-8.077934 -21.925812,-16.804993c0,-3.606209 3.24559,-6.347397 8.654922,-6.347397c4.615967,0 8.366425,1.875687 10.385925,4.615952l2.091599,-2.668137c-2.524353,-2.812851 -6.491196,-5.120834 -12.477524,-5.120834c-7.861557,0 -12.405396,4.327011 -12.405396,9.664207c0,12.55011 21.997955,7.140312 21.997955,16.660736c0,4.038963 -3.461975,7.068192 -9.304062,7.068192c-4.904465,0 -9.015549,-2.307983 -11.251404,-5.120834l-2.235855,2.741188c3.461975,3.894714 7.789429,5.553574 13.415131,5.553574zm48.611847,-0.865486l0,-24.522293c0,-7.789436 -5.625702,-11.179283 -12.693909,-11.179283c-5.769928,0 -9.808899,1.947365 -13.415131,5.842079l2.091614,2.596474c3.173477,-3.606216 6.563324,-5.120834 10.962906,-5.120834c5.120834,0 9.304047,2.812851 9.304047,8.005814l0,7.067734c-3.029221,-3.389847 -6.996063,-4.976593 -11.8284,-4.976593c-6.058441,0 -12.189011,3.966835 -12.189011,11.539909c0,7.501396 6.202698,11.612015 12.189011,11.612015c4.832336,0 8.727051,-1.586731 11.8284,-4.976578l0,4.111557l3.750473,0zm-14.280624,-2.091606c-5.69783,0 -9.520432,-3.678345 -9.520432,-8.582336c0,-4.976585 3.822601,-8.65493 9.520432,-8.65493c4.183212,0 8.077927,1.586731 10.530151,4.831871l0,7.645187c-2.452225,3.17347 -6.346939,4.760208 -10.530151,4.760208zm36.350693,2.957092c8.727051,0 13.054047,-4.615952 13.054047,-10.241653c0,-13.415146 -21.925812,-8.077934 -21.925812,-16.804993c0,-3.606209 3.246063,-6.347397 8.654907,-6.347397c4.615997,0 8.366882,1.875687 10.385925,4.615952l2.091614,-2.668137c-2.524353,-2.812851 -6.491211,-5.120834 -12.477539,-5.120834c-7.861542,0 -12.405365,4.327011 -12.405365,9.664207c0,12.55011 21.997925,7.140312 21.997925,16.660736c0,4.038963 -3.462006,7.068192 -9.304047,7.068192c-4.903992,0 -9.015564,-2.307983 -11.251404,-5.120834l-2.23587,2.741188c3.462433,3.894714 7.789917,5.553574 13.415619,5.553574zm33.105072,0c8.727081,0 13.054535,-4.615952 13.054535,-10.241653c0,-13.415146 -21.925812,-8.077934 -21.925812,-16.804993c0,-3.606209 3.245575,-6.347397 8.654907,-6.347397c4.615479,0 8.366425,1.875687 10.385925,4.615952l2.091156,-2.668137c-2.524353,-2.812851 -6.490753,-5.120834 -12.477081,-5.120834c-7.861572,0 -12.405396,4.327011 -12.405396,9.664207c0,12.55011 21.997955,7.140312 21.997955,16.660736c0,4.038963 -3.461975,7.068192 -9.304047,7.068192c-4.904449,0 -9.015533,-2.307983 -11.251434,-5.120834l-2.23584,2.741188c3.461945,3.894714 7.789429,5.553574 13.415131,5.553574z" id="svg_2"/>
  </g>
 </g>
</svg>