<svg width="500" height="200" xmlns="http://www.w3.org/2000/svg"><path fill="none" d="M-1-1h335.188v135.275H-1z"/><g stroke="null"><path fill="#DD5A6F" d="M168.744.25h162.51c10.215 0 18.495 8.28 18.495 18.494v162.512c0 10.213-8.28 18.493-18.495 18.493h-162.51c-10.214 0-18.494-8.28-18.494-18.494V18.744C150.25 8.53 158.53.25 168.745.25z"/><path fill="#fff" d="M176.727 73.557c-.18.536-.38 1.072-.604 1.61s-.48 1.004-.77 1.406-.616.704-.973.905a1.349 1.349 0 0 1-1.14.1c-.536-.088-.837-.48-.905-1.172a4.914 4.914 0 0 1 .235-2.045c.313-1.07.77-2.49 1.375-4.256a228.808 228.808 0 0 1 2.078-5.8c.78-2.1 1.61-4.278 2.48-6.535.872-2.258 1.71-4.414 2.514-6.47a854.764 854.764 0 0 1 2.212-5.598c.67-1.676 1.184-2.983 1.54-3.92.135-.27.337-.493.605-.672s.547-.268.838-.268c.29 0 .58.09.87.268.292.18.526.47.705.872.357.938.38 1.855.067 2.75-.313.714-.76 1.82-1.34 3.317-.582 1.497-1.24 3.183-1.98 5.06a741.654 741.654 0 0 0-2.31 5.967c-.806 2.1-1.565 4.1-2.28 6-.716 1.9-1.363 3.61-1.945 5.128s-1.005 2.636-1.273 3.352zm35.73-16.827a205.785 205.785 0 0 0-6.233-4.492c.76 2.726 1.564 5.32 2.413 7.776.134.537.08 1.006-.167 1.408-.246.402-.548.604-.906.604-.58-.09-1.172-.357-1.776-.804-.604-.448-1.017-.984-1.24-1.61-.18-.4-.402-1.05-.67-1.943-.27-.895-.582-1.945-.94-3.152a71.798 71.798 0 0 0-2.11 3.285c-.65 1.072-1.263 2.1-1.844 3.084-.358.49-.76.77-1.207.838-.447.067-.782-.034-1.006-.302-.312-.49-.5-1.128-.57-1.91-.066-.782.057-1.442.37-1.978.223-.357.626-1.006 1.207-1.944a94.314 94.314 0 0 1 2.145-3.284c-.938.223-1.855.458-2.748.704-.894.245-1.788.48-2.682.703-.536.09-1.006 0-1.408-.268s-.58-.58-.536-.938c.134-.582.435-1.106.905-1.575a3.748 3.748 0 0 1 1.642-.973 47.615 47.615 0 0 1 2.18-.57c1.005-.246 2.156-.525 3.452-.838a107.987 107.987 0 0 1-2.648-1.642 45.255 45.255 0 0 0-2.65-1.576c-.49-.313-.77-.715-.838-1.206-.067-.492.034-.85.302-1.073.492-.313 1.084-.458 1.777-.436.694.022 1.308.212 1.844.57.447.222 1.073.602 1.877 1.14a48.598 48.598 0 0 1-.334-2.18 33.742 33.742 0 0 1-.2-1.978c-.046-.49.066-.916.334-1.273.268-.358.58-.56.94-.605.312-.09.69.01 1.138.302.448.29.783.838 1.006 1.642.18.85.38 1.72.603 2.613.224.895.447 1.856.67 2.883a137.114 137.114 0 0 1 2.615-3.42c.85-1.07 1.654-1.988 2.414-2.747.357-.36.76-.56 1.206-.605.447-.045.805.067 1.073.335.223.18.39.537.503 1.073.11.536-.08 1.14-.57 1.81-.492.67-1.05 1.42-1.676 2.246s-1.274 1.708-1.944 2.647c1.162-.223 2.3-.392 3.42-.503 1.116-.11 2.166-.19 3.15-.235.49 0 .916.088 1.273.267.36.18.56.448.605.805.045.313-.09.692-.403 1.14-.313.447-.87.737-1.675.87-.76.135-1.576.27-2.447.403-.872.134-1.755.29-2.648.47 1.027.76 1.99 1.508 2.882 2.245.894.738 1.72 1.44 2.48 2.112.358.357.592.726.705 1.106.11.38.054.726-.17 1.04-.222.222-.602.38-1.14.47-.535.088-1.116-.09-1.742-.538zm27.22 0c-.895-.67-1.867-1.386-2.917-2.146-1.05-.76-2.157-1.542-3.32-2.346.76 2.726 1.566 5.32 2.415 7.776.134.537.078 1.006-.168 1.408-.245.402-.547.604-.905.604-.58-.09-1.173-.357-1.777-.804-.603-.448-1.017-.984-1.24-1.61-.178-.4-.402-1.05-.67-1.943-.268-.895-.58-1.945-.938-3.152a72.746 72.746 0 0 0-2.112 3.285c-.648 1.072-1.263 2.1-1.844 3.084-.356.49-.758.77-1.205.838s-.783-.034-1.006-.302c-.314-.49-.504-1.128-.57-1.91-.068-.782.054-1.442.368-1.978.223-.357.625-1.006 1.207-1.944a92.874 92.874 0 0 1 2.145-3.284c-.94.223-1.855.458-2.75.704-.892.245-1.787.48-2.68.703-.537.09-1.006 0-1.408-.268-.402-.268-.58-.58-.536-.938.134-.582.435-1.106.905-1.575a3.752 3.752 0 0 1 1.643-.973 47.615 47.615 0 0 1 2.18-.57c1.005-.246 2.155-.525 3.45-.838a113.935 113.935 0 0 1-2.647-1.642 44.24 44.24 0 0 0-2.648-1.576c-.49-.313-.77-.715-.838-1.206-.067-.492.034-.85.302-1.073.49-.313 1.084-.458 1.777-.436.69.022 1.306.212 1.842.57.447.222 1.073.602 1.877 1.14a45.976 45.976 0 0 1-.336-2.18 33.742 33.742 0 0 1-.2-1.978c-.046-.49.066-.916.334-1.273.268-.358.58-.56.938-.605.314-.09.693.01 1.14.302.447.29.782.838 1.006 1.642.18.85.38 1.72.603 2.613.223.895.447 1.856.67 2.883a137.114 137.114 0 0 1 2.615-3.42c.85-1.07 1.654-1.988 2.413-2.747.358-.36.76-.56 1.207-.605.447-.045.805.067 1.073.335.223.18.39.537.502 1.073.112.536-.078 1.14-.57 1.81-.49.67-1.05 1.42-1.675 2.246-.626.825-1.274 1.708-1.944 2.647 1.16-.223 2.3-.392 3.42-.503 1.116-.11 2.166-.19 3.15-.235.49 0 .916.088 1.273.267.356.18.558.448.602.805.045.313-.09.692-.402 1.14-.313.447-.87.737-1.676.87-.76.135-1.575.27-2.446.403-.872.134-1.755.29-2.65.47 1.03.76 1.99 1.508 2.884 2.245s1.72 1.44 2.48 2.112c.358.357.592.726.705 1.106.11.38.055.726-.168 1.04-.225.222-.605.38-1.14.47-.537.088-1.118-.09-1.744-.538zm-32.73 103.836c13.08 0 22.196-8.3 22.196-21 0-12.577-9.117-20.94-22.26-20.94H190.35v41.94h16.6zm-.063-7.86h-7.608v-26.22h7.67c8.553 0 13.08 5.722 13.08 13.08 0 7.167-4.842 13.14-13.142 13.14zm48.542 8.615c12.638 0 21.88-9.054 21.88-21.692s-9.242-21.693-21.88-21.693c-12.7 0-21.944 9.054-21.944 21.693s9.243 21.693 21.944 21.693zm0-7.922c-7.797 0-12.764-5.973-12.764-13.77 0-7.86 4.967-13.77 12.764-13.77 7.734 0 12.7 5.91 12.7 13.77 0 7.797-4.966 13.77-12.7 13.77zm48.542 7.923c9.18 0 14.524-5.093 17.48-10.31l-7.67-3.71c-1.762 3.395-5.535 6.098-9.81 6.098-7.672 0-13.205-5.848-13.205-13.77s5.533-13.77 13.205-13.77c4.275 0 8.048 2.704 9.81 6.1l7.67-3.774c-2.956-5.282-8.3-10.25-17.48-10.25-12.64 0-22.384 8.74-22.384 21.694 0 12.89 9.745 21.693 22.384 21.693zm-102.005-50.745c8.727 0 13.055-4.616 13.055-10.242 0-13.415-21.926-8.078-21.926-16.805 0-3.606 3.246-6.348 8.655-6.348 4.616 0 8.366 1.876 10.386 4.616l2.09-2.668c-2.523-2.813-6.49-5.12-12.476-5.12-7.862 0-12.405 4.326-12.405 9.664 0 12.55 21.997 7.14 21.997 16.66 0 4.04-3.462 7.07-9.305 7.07-4.904 0-9.015-2.31-11.25-5.122l-2.237 2.74c3.462 3.896 7.79 5.555 13.415 5.555zm48.612-.866V85.186c0-7.79-5.626-11.18-12.694-11.18-5.77 0-9.808 1.948-13.414 5.843l2.092 2.596c3.173-3.606 6.563-5.12 10.963-5.12 5.12 0 9.305 2.812 9.305 8.005v7.07c-3.03-3.39-6.996-4.978-11.83-4.978-6.057 0-12.188 3.967-12.188 11.54 0 7.5 6.203 11.612 12.19 11.612 4.832 0 8.726-1.587 11.828-4.977v4.112h3.75zm-14.28-2.093c-5.698 0-9.52-3.678-9.52-8.582 0-4.976 3.822-8.655 9.52-8.655 4.183 0 8.077 1.587 10.53 4.832v7.645c-2.453 3.174-6.347 4.76-10.53 4.76zm36.35 2.958c8.727 0 13.054-4.616 13.054-10.242 0-13.415-21.927-8.078-21.927-16.805 0-3.606 3.247-6.348 8.655-6.348 4.616 0 8.367 1.876 10.386 4.616l2.092-2.668c-2.524-2.813-6.49-5.12-12.478-5.12-7.86 0-12.405 4.326-12.405 9.664 0 12.55 21.998 7.14 21.998 16.66 0 4.04-3.46 7.07-9.303 7.07-4.904 0-9.016-2.31-11.252-5.122l-2.235 2.74c3.462 3.896 7.79 5.555 13.415 5.555zm33.105 0c8.727 0 13.055-4.616 13.055-10.242 0-13.415-21.926-8.078-21.926-16.805 0-3.606 3.245-6.348 8.654-6.348 4.615 0 8.366 1.876 10.386 4.616l2.09-2.668c-2.523-2.813-6.49-5.12-12.476-5.12-7.862 0-12.405 4.326-12.405 9.664 0 12.55 21.996 7.14 21.996 16.66 0 4.04-3.462 7.07-9.304 7.07-4.904 0-9.015-2.31-11.25-5.122l-2.237 2.74c3.462 3.896 7.79 5.555 13.415 5.555z"/></g></svg>