<svg id="SchibstedSpain" xmlns="http://www.w3.org/2000/svg" width="500" height="200" viewBox="0 0 500 200"><style>.st0{fill:#455985}.st1{fill:#211915}.st2{fill:#fff}</style><path class="st0" d="M0 44.9h112.4v112.4H0z"/><path class="st1" d="M143.8 88.2l8.1-3.2c1.8 4.6 6.2 7.2 11.6 7.2 4.8 0 9.4-1.9 9.4-6.3 0-3.6-2.9-5.2-6.6-6.3l-8.1-1.9c-6.4-1.6-11.5-4.5-11.5-13 0-9 7.9-14.2 17.1-14.2 8 0 13.7 2.6 16.8 9.8l-7.3 3.2c-2.1-4-5.7-5.5-10.3-5.5-3.9 0-7.6 1.7-7.6 6 0 3.4 3.2 4.9 7 5.9l8.2 2c5.7 1.3 10.9 4.8 10.9 13.3 0 8.8-7.9 14.6-18.4 14.6-8.7.2-16.8-3.4-19.3-11.6m43.4-4.6V68.3c0-11.4 8.7-17.7 19.1-17.7 9.1 0 18.3 5.1 18.3 15.8v1.5h-8.5v-.7c0-6.2-5.5-8.7-9.8-8.7-4.6 0-10.3 2.4-10.3 9.3v15.3c0 5.8 5 9.1 10.6 9.1 4.4 0 9.5-2.4 9.5-8.7v-.7h8.5v1.5c0 10.7-8.8 15.8-17.9 15.8-10.5 0-19.5-5.8-19.5-16.5m44.6-32.2h8.9V71h19.2V51.4h8.9v47.9h-8.9V78.8h-19.2v20.5h-8.9zm47.6 0h8.9v47.9h-8.9zM319 91.7c4.8 0 7.8-2.3 7.8-6.7s-2.8-6.4-7.7-6.4h-11.3v13.1H319zm-.6-20.6c4.5 0 7.1-2.3 7.1-6.2 0-4.2-3-5.9-7.5-5.9h-10.2v12.1h10.6zm-19.5-19.7h20.5c9.3 0 14.8 4.1 14.8 12.4 0 4.3-1.9 7.9-6.8 10.1v.1c5.5 1.5 8.3 6.2 8.3 11.6 0 9-7.2 13.8-15.1 13.8h-21.7v-48zm40.2 36.8l8-3.2c1.8 4.6 6.2 7.2 11.5 7.2 4.8 0 9.4-1.9 9.4-6.3 0-3.6-2.9-5.2-6.6-6.3l-8.1-1.9c-6.4-1.6-11.5-4.5-11.5-13 0-9 7.9-14.2 17.1-14.2 8 0 13.8 2.6 16.9 9.8l-7.3 3.2c-2.1-4-5.6-5.5-10.3-5.5-3.9 0-7.6 1.7-7.6 6 0 3.4 3.2 4.9 7 5.9l8.2 2c5.7 1.3 10.9 4.8 10.9 13.3 0 8.8-7.9 14.6-18.4 14.6-8.7.2-16.7-3.4-19.2-11.6m54.8-29.1h-13.8v-7.7h36.4v7.7h-13.7v40.2h-8.9zm27.9-7.7h33.3v7.9h-24.3V71h21.5v7.8h-21.5v12.6h24.5v7.9h-33.5zm59.1 40c4.6 0 10.3-2.4 10.3-9.3V68.3c0-5.8-5-9.1-10.6-9.1h-9.1v32.2h9.4zm-18.5-40h18.7c10.4 0 18.9 6.8 18.9 17.5v12.8c0 11.3-9.3 17.7-18.8 17.7h-18.8v-48z"/><path class="st2" d="M48.6 143.4c-17.7 0-23.3-12.5-23.3-20.1 0-7.8 4.4-12.3 10.2-12.3 5.9 0 11.1 3.6 11.1 12.5h25c-1.5 12.6-11.7 19.9-23 19.9M98.9 118c.2-1.7.5-3.5.5-5.5 0-8.5-4.1-19.7-8.5-29L87.2 76c-2.4-5.1-4.9-9.3-4.9-13.8 0-3.2 1.8-5.5 4.7-5.5 3.8 0 5.3 2.7 5.3 8.6h6.3V54.9c-3.8-1.3-7.5-2.2-13.8-2.2-14.6 0-27.3 6.1-27.3 22.6 0 14 13 27.6 14.1 42.7h-8.5c-1.9-17.6-16.6-19.3-21-19.3-13.7 0-23.3 9.3-23.3 22.7 0 15.7 10.3 28.2 32.4 28.2 21.1 0 40.1-10.2 46.1-26.1h14.9V118H98.9z"/><path class="st1" d="M155.1 132c-4.1-1.2-5.9-3.2-5.9-6.3 0-4.2 4-6.1 7.7-6.1 3.8 0 6.7 1.6 8.4 4.5l2.1-.9c-2.1-4.7-6.9-5.7-10.5-5.7-6 0-10.2 3.5-10.2 8.4 0 4.1 2.2 6.7 7 8.2l6.6 1.9c2.7.9 5.5 2.3 5.5 6.7 0 4-3.5 6.8-8.6 6.8-4.8 0-8.3-2.3-9.8-6.2l-2.3.8c1.4 4.7 5.9 7.5 11.9 7.5 6.7 0 11.2-3.7 11.2-9.2 0-4.4-2.1-7.2-6.5-8.4l-6.6-2zm27.7-13.9h-11.2V151h2.5v-13.4h8c6.7 0 11-3.9 11-9.8.1-5.9-4-9.7-10.3-9.7zm-1.4 17.4h-7.3v-15.3h8.4c4.9 0 8.2 3 8.2 7.6 0 4.9-3.3 7.7-9.3 7.7zm20.9-17.5L190 151h2.5l3.8-10.5h14.3l.1.2 3.7 10.4h2.6l-12.1-33h-2.6zm-5.4 20.4l.1-.3 6.4-17.6 6.4 17.9h-12.9zm23.2-20.3h2.3V151h-2.3zm9-.1h-2.7v33h2.3v-29.4l18.7 29.4h2.6v-33h-2.4v29z"/></svg>