<svg xmlns="http://www.w3.org/2000/svg" viewBox="22.5 511 500 200"><style>.st0{fill:#1673E6;}</style><path d="M239.5 595.1c-13.7 0-21.4 11.2-21.4 23.3 0 5.4 1.2 23.3 24.2 23.3 6.8 0 11.4-1.8 14.7-3.6V628s-5.5 4.3-13.6 4.3c-9 0-13.4-5.1-14.1-10.5h29.8v-5.7s.2-21-19.6-21zm-10.1 17.7c.6-3.9 3.6-8.3 10.6-8.3 6 0 8.3 4.1 8.7 8.3h-19.3z" class="st0"/><path d="M298.8 611.8c0-15.9-11.4-16.7-17.1-16.7-8.5 0-16.1 3.7-16.1 3.7v10.1s6.7-4.4 13.3-4.4c8.5 0 8.8 4.5 8.8 9.8-15.5-.6-24.9 2.6-24.9 14 0 11.5 11.7 13.4 20.4 13.4 6.6 0 15.6-1.6 15.6-1.6v-28.3zm-11.1 20.6s-13.7 2.7-13.7-5c0-6.5 10.2-5.6 13.7-5.5v10.5z" class="st0"/><path d="M322.7 632.3c-5.1 0-6.5-2.7-6.5-6.7v-20.1h12.4v-9.4h-12.5v-10.9h-11.2V624c0 6.6-.6 17.7 14.7 17.7 7.2 0 10.6-2.2 10.6-2.2v-9.6c.3 0-3.9 2.4-7.5 2.4z" class="st0"/><path d="M210.4 595.3V584s-6.7-3.7-17.5-3.7-21.6 4.9-21.6 17.2c0 10.1 6.9 13.6 12.7 15.7 5.8 2.1 11 4 13.8 5.5 2.8 1.5 4.5 3 4.5 6.4 0 3.4-1.9 6.7-11.4 6.7-9.4 0-18.8-6.2-18.8-6.2V637s7.3 4.8 18.8 4.8 23-4.3 23-17.6c0-11.3-10.2-15.3-13.1-16.5-2.4-1-11.5-4.1-13.2-5-2.4-1.2-5-2.6-4.7-6.2.3-3.4 2.8-6.2 9.5-6.2 9.5-.1 18 5 18 5z" class="st0"/><g><path d="M492.4 640.7v-59.6h-11.2v59.6z" class="st0"/><path d="M509 640.7l-17.8-24.1 17.4-20.4h13l-17.7 20.4 18.1 24.1z" class="st0"/></g><path d="M409.5 595.1c-13.7 0-21.4 11.2-21.4 23.3 0 5.4 1.2 23.3 24.2 23.3 6.8 0 11.4-1.8 14.7-3.6V628s-5.5 4.3-13.6 4.3c-9 0-13.4-5.1-14.1-10.5h29.8v-5.7s.2-21-19.6-21zm-10.1 17.7c.6-3.9 3.6-8.3 10.6-8.3 6 0 8.3 4.1 8.7 8.3h-19.3z" class="st0"/><path d="M455.5 595.1c-13.7 0-21.4 11.2-21.4 23.3 0 5.4 1.2 23.3 24.2 23.3 6.8 0 11.4-1.8 14.7-3.6V628s-5.5 4.3-13.6 4.3c-9 0-13.4-5.1-14.1-10.5h29.8v-5.7s.3-21-19.6-21zm-10.1 17.7c.6-3.9 3.6-8.3 10.6-8.3 6 0 8.3 4.1 8.7 8.3h-19.3z" class="st0"/><path d="M380.7 595.3V584s-5.6-3.7-17.3-3.7c-15.6 0-30.2 11.3-30.2 31.3 0 19.1 12.1 30.1 30.4 30.1 12.6 0 18.5-3.6 18.5-3.6v-24.6c0-3-2.4-5.4-5.4-5.4h-17.8v9.9h12v12.8s-3 1.1-7.7 1.1c-12.2 0-18.5-9.4-18.5-20.2 0-11.5 7.2-21.3 18.9-21.3 8.4-.2 12.5 2.1 17.1 4.9z" class="st0"/><path d="M44.3 573.3S60.1 563 85.7 563s41.4 10.3 41.4 10.3l-10.3 54.9h-62l-10.5-54.9z" class="st0"/><path d="M44.3 640.4s16.1 7.4 41.4 7.4 41.4-7.4 41.4-7.4v11.7s-16.4 6.9-41.4 6.9-41.4-6.9-41.4-6.9v-11.7z" class="st0"/><path d="M43.3 632.8v-19.5c0-3.2-2.6-5.7-5.7-5.7H22.7v10.3h9.7v14.9h10.9z" class="st0"/><path d="M127.9 632.8v-19.5c0-3.2 2.6-5.7 5.7-5.7h14.9v10.3h-9.7v14.9h-10.9z" class="st0"/></svg>