<svg width="500" height="200" xmlns="http://www.w3.org/2000/svg"><path fill="none" d="M-1-1h502v202H-1z"/><path d="M22.47 132.655c-2.385 0-4.896-.124-7.408-.377-5.527-.75-8.164-1.38-14.694-4.016l1.507-4.9 1.506-6.28 1.01-5.272 2.26-.377c2.64 3.89 3.9 5.402 6.41 7.285 3.65 2.637 7.79 4.02 12.19 4.02 8.92 0 15.07-5.024 15.07-12.433 0-3.14-1.25-6.28-3.39-8.414-2.38-2.38-5.15-4.14-12.68-8.16-9.79-4.9-13.06-6.9-16.58-10.3-4.02-4.02-6.28-9.67-6.28-15.95C1.38 50.9 14.69 39.6 34.4 39.6c2.01 0 4.02.126 5.902.377 5.274.502 8.164 1.38 14.945 4.02l-1.76 4.77-1.883 6.28L50.6 58.94l-2.01.124c-2.77-3.76-4.15-5.27-6.66-6.78-2.76-1.76-6.408-2.64-10.05-2.64-7.66 0-12.68 4.27-12.68 10.8 0 3.27 1.505 6.41 4.142 8.67C25.982 71.25 29 73 36.282 76.647c9.92 4.897 13.06 6.906 16.45 10.926 3.646 4.14 5.528 9.29 5.528 15.193 0 17.334-14.942 29.89-35.79 29.89zm100.336-36.418l-1.382 1.634h-5.903l-12.93-.12-11.55.13-5.9.25c.38 14.7 8.17 23.11 21.6 23.11 1.89 0 3.65-.12 5.4-.5 3.02-.5 4.65-1.38 8.04-3.89l1.76 1.01-2.38 5.9-1.88 5.53c-2.01.63-3.64 1.13-4.77 1.38-4.39 1.01-9.54 1.64-13.81 1.64-19.21 0-31.9-12.93-31.9-32.65 0-19.59 12.43-33.15 30.39-33.15 15.45 0 25.5 9.67 25.5 24.49 0 1.26-.12 3.01-.25 5.27zM96.56 73.883c-4.02 0-7.033 1.636-9.044 5.023-1.758 2.89-2.135 4.9-2.51 11.302h5.775l8.29-.253c5.15-.126 7.16-1.758 7.16-5.65 0-5.9-4.14-10.422-9.67-10.422zm97.07-.376l-1.885 3.89c-3.767-.25-5.272-.376-7.283-.376-.377 0-.88 0-1.256.13h-1.257c2.13 3.39 2.63 5.02 2.63 8.92 0 13.06-10.18 20.97-27.25 20.97-3.14 0-4.27-.12-7.29-.75-2.51 2.26-3.27 3.52-3.27 5.27 0 4.4 4.52 6.03 16.7 6.03h6.4c14.31 0 21.47 5.78 21.47 17.21 0 15.32-14.07 25.62-35.17 25.62-16.7 0-28.01-7.16-28.01-17.71 0-3.14 1-5.77 2.89-7.91 1.75-1.88 3.01-2.76 7.41-5.02l3.38-1.76-2.51-1c-4.4-1.75-7.03-5.15-7.03-8.66 0-3.01 1.63-5.65 5.27-8.67l6.28-5.14c-7.41-3.89-10.8-9.42-10.8-17.08 0-12.56 10.17-20.22 26.87-20.22 5.65 0 8.79.5 13.19 2.14l11.43-.12c3.51 0 5.52-.12 10.29-.63l.88 1.13-2.14 3.78zm-20.973 60.03c-3.142-1.885-6.53-2.263-17.206-2.263-5.52 0-6.9.253-9.29 1.634-3.64 2.01-5.52 4.772-5.52 8.166 0 6.906 6.66 11.174 17.21 11.174 11.05 0 18.71-4.77 18.71-11.806 0-2.888-1.38-5.525-3.89-6.906zm-13.94-59.528c-.378 0-.63.12-.88.12-5.65.5-8.288 4.14-8.288 11.55 0 9.17 3.38 14.44 9.54 14.44 5.9 0 9.04-4.02 9.04-11.56 0-9.29-3.52-14.57-9.42-14.57zm139.767 55.76h-9.92l-5.274.25c.377-2.51.755-4.4.88-5.65.377-3.02.754-11.18.754-18.21V94.85c0-4.523-.253-6.783-.88-8.916-1.127-3.765-4.647-6.15-9.042-6.15-3.518 0-6.908 1.505-9.545 4.142-3.016 3.14-3.767 5.525-3.767 13.44v8.915c0 11.43.753 18.34 2.51 23.74l-5.526-.25h-9.92l-5.274.25c.376-2.51.628-4.39.628-5.65.376-3.01.753-11.17.88-18.21l.124-10.55v-.62c0-4.52-.253-7.03-.88-9.04-1.256-3.77-4.77-6.15-9.044-6.15-3.64 0-6.906 1.51-9.545 4.15-3.015 3.14-3.767 5.65-3.767 13.44v8.92c0 11.43.753 18.33 2.51 23.73l-5.526-.25h-9.92l-5.274.25c.38-2.51.628-4.4.755-5.65.38-3.02.76-11.56.76-18.21l.26-14.06c0-6.15-.38-10.55-1-13.06-.63-2.63-2.51-3.89-5.52-3.89h-1.01l2.51-5.65 5.03-.25L215.5 69l6.03-.38-.253 10.67 5.025-4.27c6.03-5.024 11.05-7.286 17.334-7.286 8.663 0 14.44 3.89 17.2 11.803l5.278-4.52c5.9-5.022 11.05-7.284 17.21-7.284 6.53 0 11.802 2.385 15.07 6.782 2.64 3.765 3.39 7.03 3.262 16.073l-.125 15.694c-.12 11.43.76 18.34 2.51 23.74l-5.52-.26zm72.45-33.54l-1.38 1.63h-5.9l-12.938-.13-11.553.12-5.904.25c.37 14.69 8.16 23.11 21.6 23.11 1.88 0 3.64-.13 5.4-.51 3.01-.5 4.64-1.38 8.03-3.89l1.76 1-2.39 5.9-1.89 5.52c-2.01.62-3.64 1.13-4.77 1.38-4.4 1-9.55 1.63-13.82 1.63-19.22 0-31.9-12.93-31.9-32.65 0-19.59 12.43-33.15 30.39-33.15 15.44 0 25.49 9.67 25.49 24.49-.01 1.25-.13 3.01-.26 5.27zM344.69 73.88c-4.02 0-7.032 1.636-9.045 5.023-1.758 2.89-2.134 4.9-2.51 11.302h5.777l8.29-.253c5.148-.126 7.157-1.758 7.157-5.65 0-5.9-4.15-10.422-9.67-10.422zm95.436 55.887h-9.92l-5.275.25c.38-2.51.76-4.396.88-5.65.26-2.01.38-5.023.51-9.045.13-4.018.26-7.03.26-9.17V95.61c0-5.15-.25-7.537-1-9.672-1.25-3.767-5.02-6.153-9.67-6.153-3.64 0-7.15 1.507-9.79 4.144-3.14 3.14-3.89 5.65-3.89 13.43v8.91c0 11.3.76 18.33 2.51 23.73l-5.52-.25h-9.92l-5.27.25c.51-2.51.76-4.4.88-5.65.38-3.02.76-11.56.76-18.21l.25-14.06c0-6.16-.5-10.55-1.13-13.06-.62-2.64-2.38-3.9-5.4-3.9h-1l2.51-5.65 5.02-.25 10.05-.25 5.9-.38-.25 10.55 5.14-4.14c6.41-5.15 11.18-7.29 17.71-7.29 6.78 0 12.06 2.38 15.45 6.78 2.76 3.76 3.52 7.15 3.39 16.07l-.13 15.69c-.12 11.43.76 18.33 2.51 23.73l-5.53-.25zm57.634-55.385l-1.632 4.648c-4.9-.376-6.655-.502-10.55-.502h-5.023l-.378 11.56v14.19c0 6.405.123 8.29.755 10.8 1.004 4.144 4.144 6.53 8.41 6.53 2.766 0 4.902-.63 8.038-2.26l1.507.88-1.256 4.016-1.26 5.275c-7.28 2-10.92 2.63-14.94 2.63-12.56 0-17.96-6.28-17.96-20.97v-5.78l.13-12.18c.13-6.66-.38-11.06-1-13.57-.62-2.64-2.38-3.9-5.4-3.9h-2.13l2.51-6.28 6.53-.13c0-4.02-.12-5.15-.5-10.8l4.77-1.64 7.79-3.52 4.27-2.38 1.38 1.38c-.88 5.9-1 7.53-1.26 17.08l8.67.12h.76c4.15 0 5.15-.13 8.79-.88l.88 1.25-1.87 4.39z" fill="#2A2B24"/></svg>