<svg width="1000" height="400" xmlns="http://www.w3.org/2000/svg"><desc>Shoes of Prey Logo</desc><path fill="none" d="M-1-1h1002v402H-1z"/><g><path d="M213.42 194.13c0 1.68-.23 3.36-.75 4.99-.52 1.62-1.33 3.13-2.43 4.46-1.56 1.97-3.65 3.48-6.26 4.52s-5.8 1.62-9.57 1.62c-2.9 0-5.62-.4-8.12-1.27-2.55-.81-4.81-1.91-6.78-3.25v-13.16c1.51 4.81 3.65 8.23 6.44 10.26 2.78 2.03 5.97 3.07 9.51 3.07 1.45 0 2.84-.17 4.23-.58 1.39-.4 2.61-.98 3.65-1.8 1.04-.75 1.91-1.8 2.61-3.01.64-1.22.99-2.67.99-4.35 0-2.55-.64-4.64-1.97-6.32-1.33-1.68-2.96-3.19-4.93-4.52-1.97-1.33-4.12-2.55-6.43-3.71-2.32-1.16-4.46-2.49-6.43-3.94-1.97-1.45-3.59-3.19-4.93-5.22-1.33-1.97-1.97-4.46-1.97-7.42 0-2.38.46-4.52 1.45-6.38.93-1.85 2.26-3.48 3.88-4.81 1.62-1.33 3.54-2.32 5.62-3.01 2.09-.69 4.35-1.04 6.73-1.04 2.44 0 4.75.35 7.07 1.1 2.26.75 4.06 1.68 5.39 2.78v11.42c-1.16-3.94-2.96-6.72-5.39-8.46-2.43-1.68-5.16-2.55-8.12-2.55-1.68 0-3.19.23-4.46.75-1.28.52-2.38 1.22-3.3 2.15-.87.87-1.56 1.91-2.09 3.02-.46 1.1-.75 2.32-.75 3.48 0 2.26.7 4.17 2.03 5.74 1.33 1.57 3.02 2.96 5.04 4.18 1.97 1.22 4.17 2.44 6.55 3.65 2.38 1.16 4.52 2.55 6.55 4.06 1.97 1.51 3.65 3.36 5.04 5.51 1.26 2.19 1.9 4.85 1.9 8.04zM286 200.33c0 1.74.17 3.13.52 4.17s.75 1.86 1.16 2.44c.41.52.87.93 1.27 1.16.35.17.58.23.75.23h-14.55c.17 0 .41-.06.75-.23.46-.17.93-.52 1.33-1.1.41-.52.81-1.33 1.16-2.43.35-1.04.52-2.49.52-4.29v-19.25h-31.54v19.25c0 1.74.17 3.13.52 4.17s.75 1.86 1.16 2.44c.41.52.87.93 1.33 1.16.35.12.58.23.75.23h-14.72c.17 0 .41-.06.75-.23.46-.17.93-.52 1.39-1.1.46-.52.87-1.33 1.22-2.44.35-1.04.52-2.49.52-4.29v-41.45c0-1.8-.17-3.19-.52-4.23s-.75-1.85-1.27-2.43c-.46-.58-.99-.93-1.45-1.1-.35-.12-.58-.17-.75-.23h14.9c-.17.06-.41.12-.75.23-.41.17-.81.52-1.27 1.1-.46.52-.87 1.33-1.27 2.44-.35 1.04-.58 2.49-.58 4.29v17.97h31.54v-18.03c0-1.8-.17-3.19-.52-4.23-.35-1.04-.75-1.85-1.22-2.43-.46-.58-.93-.93-1.39-1.1-.35-.12-.64-.17-.81-.23h14.78c-.17.06-.41.12-.75.23-.41.17-.81.52-1.27 1.1-.41.58-.81 1.39-1.16 2.44-.35 1.04-.52 2.44-.52 4.23v41.54H286zM369.66 178.88c0 4.35-.7 8.35-2.03 12.12s-3.3 7.02-5.8 9.8c-2.49 2.78-5.51 4.93-9.04 6.55-3.48 1.57-7.42 2.38-11.77 2.38-4.12 0-7.83-.75-11.19-2.26-3.36-1.51-6.2-3.54-8.58-6.2-2.38-2.61-4.23-5.74-5.51-9.33s-1.97-7.54-1.97-11.83c0-4.41.7-8.46 2.15-12.23 1.39-3.77 3.36-7.01 5.91-9.8 2.49-2.78 5.51-4.93 9.04-6.49s7.42-2.32 11.71-2.32c4.06 0 7.77.75 11.07 2.26 3.36 1.51 6.2 3.54 8.52 6.2 2.32 2.61 4.17 5.74 5.45 9.39 1.4 3.59 2.04 7.53 2.04 11.76zm-7.01 1.97c0-3.88-.52-7.42-1.51-10.67-.98-3.25-2.49-6.09-4.41-8.46s-4.23-4.29-6.9-5.62-5.74-2.03-9.04-2.03c-2.96 0-5.68.58-8.12 1.68-2.44 1.1-4.58 2.73-6.32 4.81s-3.07 4.58-4.06 7.42c-.98 2.9-1.45 6.09-1.45 9.62 0 4 .52 7.65 1.57 11.02 1.04 3.36 2.49 6.26 4.41 8.64 1.91 2.44 4.23 4.29 6.9 5.68 2.67 1.33 5.68 2.03 8.99 2.03 2.96 0 5.68-.58 8.12-1.74 2.44-1.16 4.58-2.78 6.26-4.93 1.74-2.14 3.07-4.7 4.06-7.59.97-3.01 1.5-6.26 1.5-9.86zM429.66 208.39h-35.94c.17 0 .41-.06.75-.23.46-.17.93-.52 1.45-1.1.46-.58.93-1.39 1.27-2.49.35-1.04.52-2.55.52-4.35v-41.34c0-1.8-.17-3.25-.58-4.29-.4-1.04-.81-1.85-1.33-2.43-.52-.52-1.04-.93-1.56-1.1-.41-.17-.69-.29-.87-.35h34.55v9.33c-.06-.23-.17-.64-.41-1.22-.17-.58-.58-1.16-1.22-1.74-.58-.58-1.51-1.1-2.67-1.51-1.16-.41-2.78-.64-4.81-.64h-14.09v21.74h11.77c1.39 0 2.49-.17 3.36-.46.81-.29 1.51-.64 1.97-1.04.46-.4.75-.75.93-1.16.12-.35.23-.64.29-.81v11.36c0-.11-.06-.35-.23-.75-.17-.35-.46-.75-.93-1.22-.46-.41-1.1-.81-1.97-1.1-.81-.29-1.97-.46-3.36-.46h-11.88v23.02h14.55c1.74 0 3.19-.06 4.46-.23 1.22-.17 2.32-.46 3.25-.93s1.68-1.1 2.32-1.85c.64-.75 1.27-1.8 1.91-3.01l-1.5 10.36zM487 194.13c0 1.68-.23 3.36-.75 4.99-.52 1.62-1.33 3.13-2.43 4.46-1.56 1.97-3.65 3.48-6.26 4.52-2.61 1.04-5.8 1.62-9.56 1.62-2.9 0-5.62-.4-8.12-1.27-2.55-.81-4.81-1.91-6.78-3.25v-13.16c1.51 4.81 3.65 8.23 6.44 10.26 2.78 2.03 5.97 3.07 9.51 3.07 1.45 0 2.84-.17 4.23-.58 1.39-.4 2.61-.98 3.65-1.8 1.04-.75 1.91-1.8 2.61-3.01.64-1.22.99-2.67.99-4.35 0-2.55-.64-4.64-1.97-6.32-1.33-1.68-2.96-3.19-4.93-4.52-1.97-1.33-4.12-2.55-6.44-3.71-2.32-1.16-4.46-2.49-6.44-3.94-1.97-1.45-3.59-3.19-4.93-5.22-1.33-1.97-1.97-4.46-1.97-7.42 0-2.38.46-4.52 1.45-6.38.93-1.85 2.26-3.48 3.89-4.81 1.62-1.33 3.54-2.32 5.62-3.01 2.09-.69 4.35-1.04 6.73-1.04 2.44 0 4.75.35 7.07 1.1 2.26.75 4.06 1.68 5.39 2.78v11.42c-1.16-3.94-2.96-6.72-5.39-8.46-2.43-1.68-5.16-2.55-8.12-2.55-1.68 0-3.19.23-4.46.75s-2.38 1.22-3.3 2.15c-.87.87-1.56 1.91-2.09 3.02-.46 1.1-.75 2.32-.75 3.48 0 2.26.7 4.17 2.03 5.74 1.33 1.57 3.02 2.96 5.04 4.18 1.97 1.22 4.17 2.44 6.55 3.65 2.38 1.16 4.52 2.55 6.55 4.06 1.97 1.51 3.65 3.36 5.04 5.51 1.2 2.19 1.9 4.85 1.9 8.04zM600.34 178.88c0 4.35-.69 8.35-2.03 12.12-1.33 3.77-3.3 7.02-5.8 9.8-2.49 2.78-5.51 4.93-9.04 6.55-3.48 1.57-7.42 2.38-11.77 2.38-4.12 0-7.83-.75-11.19-2.26-3.36-1.51-6.2-3.54-8.58-6.2-2.38-2.61-4.23-5.74-5.51-9.33s-1.97-7.54-1.97-11.83c0-4.41.7-8.46 2.15-12.23 1.39-3.77 3.36-7.01 5.91-9.8 2.49-2.78 5.57-4.93 9.04-6.49 3.54-1.56 7.42-2.32 11.71-2.32 4.06 0 7.77.75 11.07 2.26 3.36 1.51 6.2 3.54 8.52 6.2 2.32 2.61 4.17 5.74 5.45 9.39 1.4 3.59 2.04 7.53 2.04 11.76zm-7.02 1.97c0-3.88-.52-7.42-1.51-10.67-.98-3.25-2.49-6.09-4.4-8.46s-4.23-4.29-6.9-5.62-5.74-2.03-9.04-2.03c-2.96 0-5.68.58-8.12 1.68s-4.58 2.73-6.32 4.81-3.07 4.58-4.06 7.42c-.98 2.9-1.45 6.09-1.45 9.62 0 4 .52 7.65 1.57 11.02 1.04 3.36 2.49 6.26 4.41 8.64 1.91 2.44 4.23 4.29 6.9 5.68 2.67 1.33 5.68 2.03 8.99 2.03 2.96 0 5.68-.58 8.12-1.74 2.44-1.16 4.58-2.78 6.26-4.93 1.74-2.14 3.07-4.7 4.06-7.59.97-3.01 1.49-6.26 1.49-9.86zM658.2 158.19c-.29-.58-.81-1.1-1.51-1.56-.7-.46-1.68-.87-2.9-1.16-1.22-.29-2.78-.41-4.69-.41h-13.68v21.63h12.23c1.39 0 2.49-.17 3.36-.46.81-.29 1.51-.64 1.97-1.04.46-.4.75-.75.93-1.16.12-.35.23-.64.29-.81v11.36c-.17-.58-.46-1.16-.93-1.74-.46-.46-1.1-.87-1.97-1.27-.81-.35-2.03-.58-3.48-.58h-12.29v19.42c0 1.74.17 3.13.52 4.18.35 1.04.75 1.85 1.22 2.44s.87.93 1.27 1.1c.35.17.58.23.75.23h-14.78c.17 0 .41-.06.75-.23.46-.17.93-.52 1.45-1.1.46-.52.93-1.33 1.27-2.38s.52-2.49.52-4.35v-41.39c0-1.74-.17-3.13-.58-4.17-.4-1.04-.81-1.85-1.27-2.43-.46-.52-.98-.93-1.45-1.1s-.81-.35-.98-.41H659v9.1c-.28-.61-.51-1.13-.8-1.71zM755.77 167.46c0 2.32-.41 4.52-1.27 6.61-.81 2.09-2.09 4-3.83 5.62-1.68 1.62-3.77 2.96-6.26 3.94-2.49.99-5.39 1.45-8.64 1.45-1.68 0-3.36-.12-5.04-.35-1.68-.23-2.96-.46-3.77-.75v16.47c0 1.74.17 3.13.52 4.17s.75 1.86 1.22 2.38.93.93 1.39 1.16c.35.12.58.23.75.23h-14.55c.17 0 .41-.06.75-.23.46-.17.93-.52 1.39-1.1.46-.52.87-1.33 1.22-2.38.35-1.04.52-2.43.52-4.23v-41.57c0-1.8-.17-3.25-.58-4.29-.41-1.04-.81-1.85-1.27-2.43-.46-.52-.98-.93-1.45-1.1-.41-.17-.7-.29-.87-.35h21.28c3.07 0 5.74.46 8.06 1.39 2.32.93 4.23 2.15 5.74 3.71 1.51 1.57 2.67 3.36 3.48 5.39s1.21 4.12 1.21 6.26zm-7.19.47c0-1.74-.29-3.36-.87-4.99-.58-1.56-1.39-2.96-2.49-4.12s-2.49-2.09-4.17-2.78c-1.68-.69-3.59-1.04-5.74-1.04h-8.41v24.58c.81.29 2.03.52 3.65.7 1.62.17 3.31.23 5.04.23 2.09 0 3.94-.35 5.57-.98 1.62-.64 2.96-1.56 4.06-2.67s1.91-2.44 2.49-4c.58-1.46.87-3.14.87-4.93zM811.6 208.39l-12.12-20.29c-1.16-2.03-2.32-3.36-3.42-4-1.1-.64-2.49-.99-4-.99h-2.15v17.34c0 1.74.17 3.13.52 4.17s.75 1.86 1.16 2.44c.41.58.87.93 1.33 1.1l.75.23h-14.55c.17 0 .41-.06.75-.23.46-.17.93-.52 1.39-1.1.46-.52.87-1.33 1.22-2.38.35-1.04.52-2.43.52-4.23v-41.51c0-1.8-.17-3.19-.58-4.29-.4-1.04-.81-1.91-1.27-2.49s-.98-.93-1.45-1.1-.75-.29-.93-.35h20.29c2.84 0 5.39.41 7.71 1.22 2.32.81 4.29 1.91 5.91 3.36s2.9 3.13 3.83 5.04c.87 1.91 1.33 4 1.33 6.26 0 1.74-.29 3.48-.93 5.28-.58 1.8-1.56 3.42-2.84 4.93-1.27 1.51-2.9 2.78-4.87 3.77-1.97.99-4.35 1.62-7.13 1.86.75.29 1.51.87 2.32 1.68.81.81 1.51 1.8 2.15 2.9l10.03 16.47c1.16 1.85 2.38 3.07 3.65 3.71 1.22.58 2.26.99 3.19 1.22H811.6v-.02zm-.93-41.33c0-1.51-.29-2.96-.81-4.41s-1.39-2.72-2.49-3.83-2.49-2.03-4.12-2.72c-1.62-.7-3.54-1.04-5.68-1.04h-7.88v24h7.88c2.44 0 4.47-.35 6.09-.99s3.02-1.56 4-2.61c1.04-1.1 1.8-2.38 2.26-3.77.52-1.5.75-3.01.75-4.63zM881.23 208.39h-35.94c.17 0 .41-.06.75-.23.46-.17.93-.52 1.45-1.1.46-.58.93-1.39 1.27-2.49.35-1.04.52-2.55.52-4.35v-41.34c0-1.8-.17-3.25-.58-4.29-.4-1.04-.81-1.85-1.33-2.43-.52-.52-1.04-.93-1.56-1.1-.41-.17-.69-.29-.87-.35h34.55v9.33c-.06-.23-.17-.64-.4-1.22-.17-.58-.58-1.16-1.22-1.74-.58-.58-1.51-1.1-2.67-1.51-1.16-.41-2.78-.64-4.81-.64H856.3v21.74h11.77c1.39 0 2.49-.17 3.36-.46.81-.29 1.51-.64 1.97-1.04.46-.4.75-.75.93-1.16.12-.35.23-.64.29-.81v11.36c0-.11-.06-.35-.23-.75-.17-.35-.46-.75-.93-1.22-.46-.41-1.1-.81-1.97-1.1-.81-.29-1.97-.46-3.36-.46h-11.88v23.02h14.55c1.74 0 3.19-.06 4.47-.23 1.22-.17 2.32-.46 3.25-.93s1.68-1.1 2.32-1.85c.64-.75 1.27-1.8 1.91-3.01l-1.52 10.36zM943.49 153.49c0-1.1-.29-1.8-.87-2.14-.52-.29-.93-.46-1.22-.58h13.1c-.17.06-.41.17-.75.35-.46.17-1.04.52-1.74 1.1-.69.58-1.51 1.45-2.49 2.61-.93 1.16-1.97 2.67-3.07 4.58l-14.44 24.76v16.18c0 1.74.17 3.13.52 4.17s.75 1.86 1.16 2.44c.41.52.87.93 1.33 1.16.35.12.58.23.75.23h-14.78c.17 0 .41-.06.75-.23.46-.17.93-.52 1.39-1.1.46-.52.87-1.33 1.22-2.43.35-1.04.52-2.49.52-4.29v-16.12l-14.55-25.04c-1.1-1.85-2.09-3.36-3.01-4.46s-1.74-1.97-2.43-2.55c-.7-.58-1.27-.93-1.74-1.1-.41-.17-.64-.29-.75-.35h15.65c-.12.06-.23.12-.35.18-.17.06-.41.17-.64.35-.23.17-.46.41-.64.75-.17.35-.23.81-.23 1.39 0 .64.17 1.39.58 2.32.35.87.99 2.03 1.8 3.42l11.42 19.65 10.84-18.73c.99-1.68 1.68-3.01 2.15-4 .35-.95.52-1.82.52-2.52zM121.88 151.11v33.28L55.38 251v-99.89h66.5z"/></g></svg>