<svg xmlns="http://www.w3.org/2000/svg" width="899" height="102" viewBox="54.38 458.26 899.13 101.75"><title>Shoes of Prey</title><desc>Shoes of Prey Logo</desc><path d="M212.42 503.13c0 1.68-0.23 3.36-0.75 4.99 -0.52 1.62-1.33 3.13-2.43 4.46 -1.56 1.97-3.65 3.48-6.26 4.52s-5.8 1.62-9.57 1.62c-2.9 0-5.62-0.4-8.12-1.27 -2.55-0.81-4.81-1.91-6.78-3.25v-13.16c1.51 4.81 3.65 8.23 6.44 10.26 2.78 2.03 5.97 3.07 9.51 3.07 1.45 0 2.84-0.17 4.23-0.58 1.39-0.4 2.61-0.98 3.65-1.8 1.04-0.75 1.91-1.8 2.61-3.01 0.64-1.22 0.99-2.67 0.99-4.35 0-2.55-0.64-4.64-1.97-6.32 -1.33-1.68-2.96-3.19-4.93-4.52 -1.97-1.33-4.12-2.55-6.43-3.71 -2.32-1.16-4.46-2.49-6.43-3.94 -1.97-1.45-3.59-3.19-4.93-5.22 -1.33-1.97-1.97-4.46-1.97-7.42 0-2.38 0.46-4.52 1.45-6.38 0.93-1.85 2.26-3.48 3.88-4.81 1.62-1.33 3.54-2.32 5.62-3.01 2.09-0.69 4.35-1.04 6.73-1.04 2.44 0 4.75 0.35 7.07 1.1 2.26 0.75 4.06 1.68 5.39 2.78v11.42c-1.16-3.94-2.96-6.72-5.39-8.46 -2.43-1.68-5.16-2.55-8.12-2.55 -1.68 0-3.19 0.23-4.46 0.75 -1.28 0.52-2.38 1.22-3.3 2.15 -0.87 0.87-1.56 1.91-2.09 3.02 -0.46 1.1-0.75 2.32-0.75 3.48 0 2.26 0.7 4.17 2.03 5.74 1.33 1.57 3.02 2.96 5.04 4.18 1.97 1.22 4.17 2.44 6.55 3.65 2.38 1.16 4.52 2.55 6.55 4.06 1.97 1.51 3.65 3.36 5.04 5.51C211.78 497.28 212.42 499.94 212.42 503.13z"/><path d="M285 509.33c0 1.74 0.17 3.13 0.52 4.17 0.35 1.04 0.75 1.86 1.16 2.44 0.41 0.52 0.87 0.93 1.27 1.16 0.35 0.17 0.58 0.23 0.75 0.23h-14.55c0.17 0 0.41-0.06 0.75-0.23 0.46-0.17 0.93-0.52 1.33-1.1 0.41-0.52 0.81-1.33 1.16-2.43 0.35-1.04 0.52-2.49 0.52-4.29v-19.25h-31.54v19.25c0 1.74 0.17 3.13 0.52 4.17 0.35 1.04 0.75 1.86 1.16 2.44 0.41 0.52 0.87 0.93 1.33 1.16 0.35 0.12 0.58 0.23 0.75 0.23h-14.72c0.17 0 0.41-0.06 0.75-0.23 0.46-0.17 0.93-0.52 1.39-1.1 0.46-0.52 0.87-1.33 1.22-2.44 0.35-1.04 0.52-2.49 0.52-4.29v-41.45c0-1.8-0.17-3.19-0.52-4.23s-0.75-1.85-1.27-2.43c-0.46-0.58-0.99-0.93-1.45-1.1 -0.35-0.12-0.58-0.17-0.75-0.23h14.9c-0.17 0.06-0.41 0.12-0.75 0.23 -0.41 0.17-0.81 0.52-1.27 1.1 -0.46 0.52-0.87 1.33-1.27 2.44 -0.35 1.04-0.58 2.49-0.58 4.29v17.97h31.54v-18.03c0-1.8-0.17-3.19-0.52-4.23 -0.35-1.04-0.75-1.85-1.22-2.43 -0.46-0.58-0.93-0.93-1.39-1.1 -0.35-0.12-0.64-0.17-0.81-0.23h14.78c-0.17 0.06-0.41 0.12-0.75 0.23 -0.41 0.17-0.81 0.52-1.27 1.1 -0.41 0.58-0.81 1.39-1.16 2.44 -0.35 1.04-0.52 2.44-0.52 4.23V509.33z"/><path d="M368.66 487.88c0 4.35-0.7 8.35-2.03 12.12s-3.3 7.02-5.8 9.8c-2.49 2.78-5.51 4.93-9.04 6.55 -3.48 1.57-7.42 2.38-11.77 2.38 -4.12 0-7.83-0.75-11.19-2.26 -3.36-1.51-6.2-3.54-8.58-6.2 -2.38-2.61-4.23-5.74-5.51-9.33s-1.97-7.54-1.97-11.83c0-4.41 0.7-8.46 2.15-12.23 1.39-3.77 3.36-7.01 5.91-9.8 2.49-2.78 5.51-4.93 9.04-6.49s7.42-2.32 11.71-2.32c4.06 0 7.77 0.75 11.07 2.26 3.36 1.51 6.2 3.54 8.52 6.2 2.32 2.61 4.17 5.74 5.45 9.39C368.02 479.71 368.66 483.65 368.66 487.88zM361.65 489.85c0-3.88-0.52-7.42-1.51-10.67 -0.98-3.25-2.49-6.09-4.41-8.46s-4.23-4.29-6.9-5.62c-2.67-1.33-5.74-2.03-9.04-2.03 -2.96 0-5.68 0.58-8.12 1.68 -2.44 1.1-4.58 2.73-6.32 4.81s-3.07 4.58-4.06 7.42c-0.98 2.9-1.45 6.09-1.45 9.62 0 4 0.52 7.65 1.57 11.02 1.04 3.36 2.49 6.26 4.41 8.64 1.91 2.44 4.23 4.29 6.9 5.68 2.67 1.33 5.68 2.03 8.99 2.03 2.96 0 5.68-0.58 8.12-1.74 2.44-1.16 4.58-2.78 6.26-4.93 1.74-2.14 3.07-4.7 4.06-7.59C361.12 496.7 361.65 493.45 361.65 489.85z"/><path d="M428.66 517.39h-35.94c0.17 0 0.41-0.06 0.75-0.23 0.46-0.17 0.93-0.52 1.45-1.1 0.46-0.58 0.93-1.39 1.27-2.49 0.35-1.04 0.52-2.55 0.52-4.35v-41.34c0-1.8-0.17-3.25-0.58-4.29 -0.4-1.04-0.81-1.85-1.33-2.43 -0.52-0.52-1.04-0.93-1.56-1.1 -0.41-0.17-0.69-0.29-0.87-0.35h34.55v9.33c-0.06-0.23-0.17-0.64-0.41-1.22 -0.17-0.58-0.58-1.16-1.22-1.74 -0.58-0.58-1.51-1.1-2.67-1.51 -1.16-0.41-2.78-0.64-4.81-0.64h-14.09v21.74h11.77c1.39 0 2.49-0.17 3.36-0.46 0.81-0.29 1.51-0.64 1.97-1.04 0.46-0.4 0.75-0.75 0.93-1.16 0.12-0.35 0.23-0.64 0.29-0.81v11.36c0-0.11-0.06-0.35-0.23-0.75 -0.17-0.35-0.46-0.75-0.93-1.22 -0.46-0.41-1.1-0.81-1.97-1.1 -0.81-0.29-1.97-0.46-3.36-0.46h-11.88v23.02h14.55c1.74 0 3.19-0.06 4.46-0.23 1.22-0.17 2.32-0.46 3.25-0.93s1.68-1.1 2.32-1.85c0.64-0.75 1.27-1.8 1.91-3.01L428.66 517.39z"/><path d="M486 503.13c0 1.68-0.23 3.36-0.75 4.99 -0.52 1.62-1.33 3.13-2.43 4.46 -1.56 1.97-3.65 3.48-6.26 4.52 -2.61 1.04-5.8 1.62-9.56 1.62 -2.9 0-5.62-0.4-8.12-1.27 -2.55-0.81-4.81-1.91-6.78-3.25v-13.16c1.51 4.81 3.65 8.23 6.44 10.26 2.78 2.03 5.97 3.07 9.51 3.07 1.45 0 2.84-0.17 4.23-0.58 1.39-0.4 2.61-0.98 3.65-1.8 1.04-0.75 1.91-1.8 2.61-3.01 0.64-1.22 0.99-2.67 0.99-4.35 0-2.55-0.64-4.64-1.97-6.32 -1.33-1.68-2.96-3.19-4.93-4.52 -1.97-1.33-4.12-2.55-6.44-3.71 -2.32-1.16-4.46-2.49-6.44-3.94 -1.97-1.45-3.59-3.19-4.93-5.22 -1.33-1.97-1.97-4.46-1.97-7.42 0-2.38 0.46-4.52 1.45-6.38 0.93-1.85 2.26-3.48 3.89-4.81 1.62-1.33 3.54-2.32 5.62-3.01 2.09-0.69 4.35-1.04 6.73-1.04 2.44 0 4.75 0.35 7.07 1.1 2.26 0.75 4.06 1.68 5.39 2.78v11.42c-1.16-3.94-2.96-6.72-5.39-8.46 -2.43-1.68-5.16-2.55-8.12-2.55 -1.68 0-3.19 0.23-4.46 0.75 -1.27 0.52-2.38 1.22-3.3 2.15 -0.87 0.87-1.56 1.91-2.09 3.02 -0.46 1.1-0.75 2.32-0.75 3.48 0 2.26 0.7 4.17 2.03 5.74 1.33 1.57 3.02 2.96 5.04 4.18 1.97 1.22 4.17 2.44 6.55 3.65 2.38 1.16 4.52 2.55 6.55 4.06 1.97 1.51 3.65 3.36 5.04 5.51C485.3 497.28 486 499.94 486 503.13z"/><path d="M599.34 487.88c0 4.35-0.69 8.35-2.03 12.12 -1.33 3.77-3.3 7.02-5.8 9.8 -2.49 2.78-5.51 4.93-9.04 6.55 -3.48 1.57-7.42 2.38-11.77 2.38 -4.12 0-7.83-0.75-11.19-2.26 -3.36-1.51-6.2-3.54-8.58-6.2 -2.38-2.61-4.23-5.74-5.51-9.33s-1.97-7.54-1.97-11.83c0-4.41 0.7-8.46 2.15-12.23 1.39-3.77 3.36-7.01 5.91-9.8 2.49-2.78 5.57-4.93 9.04-6.49 3.54-1.56 7.42-2.32 11.71-2.32 4.06 0 7.77 0.75 11.07 2.26 3.36 1.51 6.2 3.54 8.52 6.2 2.32 2.61 4.17 5.74 5.45 9.39C598.7 479.71 599.34 483.65 599.34 487.88zM592.32 489.85c0-3.88-0.52-7.42-1.51-10.67 -0.98-3.25-2.49-6.09-4.4-8.46s-4.23-4.29-6.9-5.62c-2.67-1.33-5.74-2.03-9.04-2.03 -2.96 0-5.68 0.58-8.12 1.68s-4.58 2.73-6.32 4.81 -3.07 4.58-4.06 7.42c-0.98 2.9-1.45 6.09-1.45 9.62 0 4 0.52 7.65 1.57 11.02 1.04 3.36 2.49 6.26 4.41 8.64 1.91 2.44 4.23 4.29 6.9 5.68 2.67 1.33 5.68 2.03 8.99 2.03 2.96 0 5.68-0.58 8.12-1.74 2.44-1.16 4.58-2.78 6.26-4.93 1.74-2.14 3.07-4.7 4.06-7.59C591.8 496.7 592.32 493.45 592.32 489.85z"/><path d="M657.2 467.19c-0.29-0.58-0.81-1.1-1.51-1.56 -0.7-0.46-1.68-0.87-2.9-1.16 -1.22-0.29-2.78-0.41-4.69-0.41h-13.68v21.63h12.23c1.39 0 2.49-0.17 3.36-0.46 0.81-0.29 1.51-0.64 1.97-1.04 0.46-0.4 0.75-0.75 0.93-1.16 0.12-0.35 0.23-0.64 0.29-0.81v11.36c-0.17-0.58-0.46-1.16-0.93-1.74 -0.46-0.46-1.1-0.87-1.97-1.27 -0.81-0.35-2.03-0.58-3.48-0.58h-12.29v19.42c0 1.74 0.17 3.13 0.52 4.18 0.35 1.04 0.75 1.85 1.22 2.44s0.87 0.93 1.27 1.1c0.35 0.17 0.58 0.23 0.75 0.23h-14.78c0.17 0 0.41-0.06 0.75-0.23 0.46-0.17 0.93-0.52 1.45-1.1 0.46-0.52 0.93-1.33 1.27-2.38s0.52-2.49 0.52-4.35v-41.39c0-1.74-0.17-3.13-0.58-4.17 -0.4-1.04-0.81-1.85-1.27-2.43 -0.46-0.52-0.98-0.93-1.45-1.1s-0.81-0.35-0.98-0.41h34.78v9.1C657.72 468.29 657.49 467.77 657.2 467.19z"/><path d="M754.77 476.46c0 2.32-0.41 4.52-1.27 6.61 -0.81 2.09-2.09 4-3.83 5.62 -1.68 1.62-3.77 2.96-6.26 3.94 -2.49 0.99-5.39 1.45-8.64 1.45 -1.68 0-3.36-0.12-5.04-0.35 -1.68-0.23-2.96-0.46-3.77-0.75v16.47c0 1.74 0.17 3.13 0.52 4.17 0.35 1.04 0.75 1.86 1.22 2.38s0.93 0.93 1.39 1.16c0.35 0.12 0.58 0.23 0.75 0.23h-14.55c0.17 0 0.41-0.06 0.75-0.23 0.46-0.17 0.93-0.52 1.39-1.1 0.46-0.52 0.87-1.33 1.22-2.38 0.35-1.04 0.52-2.43 0.52-4.23v-41.57c0-1.8-0.17-3.25-0.58-4.29 -0.41-1.04-0.81-1.85-1.27-2.43 -0.46-0.52-0.98-0.93-1.45-1.1 -0.41-0.17-0.7-0.29-0.87-0.35h21.28c3.07 0 5.74 0.46 8.06 1.39 2.32 0.93 4.23 2.15 5.74 3.71 1.51 1.57 2.67 3.36 3.48 5.39S754.77 474.32 754.77 476.46zM747.58 476.93c0-1.74-0.29-3.36-0.87-4.99 -0.58-1.56-1.39-2.96-2.49-4.12s-2.49-2.09-4.17-2.78c-1.68-0.69-3.59-1.04-5.74-1.04h-8.41v24.58c0.81 0.29 2.03 0.52 3.65 0.7 1.62 0.17 3.31 0.23 5.04 0.23 2.09 0 3.94-0.35 5.57-0.98 1.62-0.64 2.96-1.56 4.06-2.67s1.91-2.44 2.49-4C747.29 480.4 747.58 478.72 747.58 476.93z"/><path d="M810.6 517.39l-12.12-20.29c-1.16-2.03-2.32-3.36-3.42-4 -1.1-0.64-2.49-0.99-4-0.99h-2.15v17.34c0 1.74 0.17 3.13 0.52 4.17 0.35 1.04 0.75 1.86 1.16 2.44 0.41 0.58 0.87 0.93 1.33 1.1l0.75 0.23h-14.55c0.17 0 0.41-0.06 0.75-0.23 0.46-0.17 0.93-0.52 1.39-1.1 0.46-0.52 0.87-1.33 1.22-2.38 0.35-1.04 0.52-2.43 0.52-4.23v-41.51c0-1.8-0.17-3.19-0.58-4.29 -0.4-1.04-0.81-1.91-1.27-2.49s-0.98-0.93-1.45-1.1 -0.75-0.29-0.93-0.35h20.29c2.84 0 5.39 0.41 7.71 1.22 2.32 0.81 4.29 1.91 5.91 3.36s2.9 3.13 3.83 5.04c0.87 1.91 1.33 4 1.33 6.26 0 1.74-0.29 3.48-0.93 5.28 -0.58 1.8-1.56 3.42-2.84 4.93 -1.27 1.51-2.9 2.78-4.87 3.77 -1.97 0.99-4.35 1.62-7.13 1.86 0.75 0.29 1.51 0.87 2.32 1.68 0.81 0.81 1.51 1.8 2.15 2.9l10.03 16.47c1.16 1.85 2.38 3.07 3.65 3.71 1.22 0.58 2.26 0.99 3.19 1.22H810.6zM809.67 476.06c0-1.51-0.29-2.96-0.81-4.41s-1.39-2.72-2.49-3.83 -2.49-2.03-4.12-2.72c-1.62-0.7-3.54-1.04-5.68-1.04h-7.88v24h7.88c2.44 0 4.47-0.35 6.09-0.99s3.02-1.56 4-2.61c1.04-1.1 1.8-2.38 2.26-3.77C809.44 479.19 809.67 477.68 809.67 476.06z"/><path d="M880.23 517.39h-35.94c0.17 0 0.41-0.06 0.75-0.23 0.46-0.17 0.93-0.52 1.45-1.1 0.46-0.58 0.93-1.39 1.27-2.49 0.35-1.04 0.52-2.55 0.52-4.35v-41.34c0-1.8-0.17-3.25-0.58-4.29 -0.4-1.04-0.81-1.85-1.33-2.43 -0.52-0.52-1.04-0.93-1.56-1.1 -0.41-0.17-0.69-0.29-0.87-0.35h34.55v9.33c-0.06-0.23-0.17-0.64-0.4-1.22 -0.17-0.58-0.58-1.16-1.22-1.74 -0.58-0.58-1.51-1.1-2.67-1.51 -1.16-0.41-2.78-0.64-4.81-0.64h-14.09v21.74h11.77c1.39 0 2.49-0.17 3.36-0.46 0.81-0.29 1.51-0.64 1.97-1.04 0.46-0.4 0.75-0.75 0.93-1.16 0.12-0.35 0.23-0.64 0.29-0.81v11.36c0-0.11-0.06-0.35-0.23-0.75 -0.17-0.35-0.46-0.75-0.93-1.22 -0.46-0.41-1.1-0.81-1.97-1.1 -0.81-0.29-1.97-0.46-3.36-0.46h-11.88v23.02h14.55c1.74 0 3.19-0.06 4.47-0.23 1.22-0.17 2.32-0.46 3.25-0.93s1.68-1.1 2.32-1.85c0.64-0.75 1.27-1.8 1.91-3.01L880.23 517.39z"/><path d="M942.49 462.49c0-1.1-0.29-1.8-0.87-2.14 -0.52-0.29-0.93-0.46-1.22-0.58h13.1c-0.17 0.06-0.41 0.17-0.75 0.35 -0.46 0.17-1.04 0.52-1.74 1.1 -0.69 0.58-1.51 1.45-2.49 2.61 -0.93 1.16-1.97 2.67-3.07 4.58l-14.44 24.76v16.18c0 1.74 0.17 3.13 0.52 4.17 0.35 1.04 0.75 1.86 1.16 2.44 0.41 0.52 0.87 0.93 1.33 1.16 0.35 0.12 0.58 0.23 0.75 0.23h-14.78c0.17 0 0.41-0.06 0.75-0.23 0.46-0.17 0.93-0.52 1.39-1.1 0.46-0.52 0.87-1.33 1.22-2.43 0.35-1.04 0.52-2.49 0.52-4.29v-16.12l-14.55-25.04c-1.1-1.85-2.09-3.36-3.01-4.46s-1.74-1.97-2.43-2.55c-0.7-0.58-1.27-0.93-1.74-1.1 -0.41-0.17-0.64-0.29-0.75-0.35h15.65c-0.12 0.06-0.23 0.12-0.35 0.18 -0.17 0.06-0.41 0.17-0.64 0.35 -0.23 0.17-0.46 0.41-0.64 0.75 -0.17 0.35-0.23 0.81-0.23 1.39 0 0.64 0.17 1.39 0.58 2.32 0.35 0.87 0.99 2.03 1.8 3.42l11.42 19.65 10.84-18.73c0.99-1.68 1.68-3.01 2.15-4C942.32 464.06 942.49 463.19 942.49 462.49z"/><path d="M120.88 460.11v33.28L54.38 560v-99.89H120.88z"/></svg>

