<?xml version="1.0"?>
<svg width="500" height="200" xmlns="http://www.w3.org/2000/svg">
 <g>
  <title>background</title>
  <rect x="-1" y="-1" width="502" height="202" id="canvas_background" fill="none"/>
 </g>

 <g>
  <title>Layer 1</title>
  <g id="Layer_1"/>
  <g stroke="null" id="Layer_2">
   <g stroke="null" id="svg_2">
    <path stroke="null" d="m178.463333,83.986786c0,-14.817505 10.803436,-25.164635 30.437607,-25.164635c11.978485,0 21.78183,3.825333 27.09227,7.571899c0.758804,0.535042 2.11644,1.832649 1.302597,4.246605c-1.041321,2.598969 -2.952744,6.510544 -4.324097,9.049515c-0.797577,1.478874 -2.835251,1.28511 -3.879089,0.75631c-3.784058,-1.917656 -9.988358,-5.161682 -15.687576,-5.75798c-1.400116,-0.147514 -2.868988,-0.227524 -4.346619,-0.188766c-5.021667,0.112511 -9.214523,1.855156 -10.692139,5.685478c-0.29628,0.761314 -0.457535,1.522629 -0.476303,2.273941c-0.137497,5.047935 6.88559,6.873085 15.393814,8.334457c15.820084,2.711472 27.788605,7.348114 27.788605,23.630737c0,13.826172 -10.989716,26.322235 -32.521515,25.940948c-14.192444,-0.288788 -24.263306,-5.084198 -29.660004,-9.738312c-0.18251,-0.157516 -2.236435,-2.251465 -1.136353,-4.765419c1.261353,-3.239029 3.387787,-6.951843 5.056686,-8.922005c0.926315,-1.265099 3.37529,-1.467621 4.647888,-0.677551c4.449127,2.762741 11.768494,7.19561 20.206711,7.489388c0.666306,0.023743 1.32637,0.028748 1.973907,0.011261c7.589386,-0.185028 12.182297,-3.062775 12.086029,-7.909431c-0.081253,-4.272865 -6.10051,-6.766823 -15.682587,-8.573219c-15.283783,-2.880257 -27.579834,-7.918182 -27.579834,-23.293221" fill="#443642" id="svg_3"/>
    <path stroke="null" d="m317.316315,105.086067c-10.778381,0.138756 -20.659241,3.08651 -20.946747,11.509712c-0.002472,6.683067 5.421692,9.965843 13.029846,9.537056c7.299377,-0.702545 12.86734,-3.870316 15.320068,-8.070686c0.907593,-1.556374 1.045074,-7.383118 0.990082,-9.873322c-0.012512,-0.52755 -1.061371,-1.531372 -1.520172,-1.7239c-2.290192,-0.96508 -3.984039,-1.262604 -6.873077,-1.37886m-35.863007,-33.939125c5.040405,-4.510376 15.033752,-11.530975 30.960114,-11.160942c21.015533,0.437538 32.120209,10.290871 33.154022,33.86161c0.425079,9.720818 -0.28125,36.831863 -0.448761,43.587418c-0.025024,0.96759 -0.351288,1.637665 -1.660126,1.663925c-3.457794,0.138733 -11.455994,0.083755 -15.130035,0.037491c-1.852661,-0.090012 -2.067688,-1.011353 -2.091461,-1.973923c-0.016205,-0.628799 -0.071259,-2.497696 -0.108734,-4.02034c-0.019989,-0.807541 -0.78006,-0.785065 -0.973846,-0.577545c-4.931671,5.262939 -13.004852,7.805664 -21.591797,7.805664c-13.048615,0 -26.05719,-7.67691 -26.017212,-22.880692c0.038727,-15.570068 11.077179,-23.250717 23.20694,-25.058372c7.765656,-1.157593 16.520172,-0.128754 23.149445,2.505211c0.423828,0.16877 1.288879,-0.076248 1.297607,-0.677551c0.027527,-1.982666 -0.068726,-5.764236 -0.44873,-7.555634c-0.973877,-4.566635 -4.784149,-8.240707 -12.786102,-9.230789c-1.647675,-0.202515 -3.305298,-0.27002 -4.966705,-0.137512c-6.361755,0.500046 -14.016144,5.460472 -17.186401,7.316879c-0.745087,0.436279 -1.91394,0.117508 -2.291473,-0.370033c-1.848907,-2.388954 -6.500549,-9.380798 -6.865601,-10.497139c-0.367493,-1.113838 0.148804,-2.05143 0.798859,-2.637726z" fill="#443642" id="svg_4"/>
    <path stroke="null" d="m352.496826,100.129387c-0.125031,-21.71434 15.003784,-40.033386 39.573334,-40.194649c15.328796,-0.100006 26.467255,6.849335 28.431122,10.128357c0.398773,0.768822 0.193787,1.412628 -0.08371,2.187683c-1.296356,2.738983 -4.575409,8.033188 -6.911865,11.03344c-0.995056,1.277603 -2.075134,0.18251 -3.330261,-0.652557c-3.482819,-2.318939 -10.099609,-5.156693 -16.613922,-5.156693c-11.815979,0.002502 -20.614227,8.104446 -20.516693,23.009453c0.092468,14.304955 8.520691,22.164375 20.557953,22.450645c6.292999,0.157516 12.389832,-3.460304 15.668823,-6.421799c1.032593,-0.898811 2.097687,-0.448784 3.274048,0.468788c2.311432,2.362709 5.622925,6.006767 7.459381,8.515724c1.203857,1.393875 0.303741,2.757744 -0.130005,3.306541c-4.982941,6.306763 -14.608734,11.614746 -27.347321,11.685974c-26.673523,0.186279 -39.905884,-18.567802 -40.030884,-40.360909" fill="#443642" id="svg_5"/>
    <path stroke="null" d="m479.822571,139.512695c1.252625,-0.092499 14.613739,-1.936401 18.714081,-2.875214c1.017578,-0.233795 1.378876,-1.088852 0.811279,-1.936432c-2.291382,-3.434036 -8.31192,-13.186104 -14.617462,-21.91684c-5.799255,-8.026939 -11.913483,-15.087524 -13.891174,-17.802757c-0.481293,-0.661308 -0.455017,-1.310104 0.070007,-1.823906c3.761566,-3.680305 19.494141,-19.104118 25.408417,-25.474648c2.291443,-2.477715 0.91507,-3.544052 -1.028839,-4.122864c-3.757813,-1.120087 -9.834564,-2.516449 -13.292358,-3.245262c-1.455139,-0.307526 -3.210297,-0.20002 -4.485382,1.111343c-5.915497,5.514214 -23.964539,23.629501 -29.351257,29.043701c-0.971344,0.977592 -1.535126,0.758812 -1.540131,-0.636299c-0.043732,-10.439636 -0.251251,-55.137161 -0.622559,-62.490284c-0.027466,-0.971333 -1.19635,-1.708893 -1.855133,-1.743896c-3.387817,-0.176266 -11.947266,-0.22752 -15.320038,-0.028751c-0.945099,0.106255 -1.847656,1.070087 -1.930206,1.883911c-0.777557,11.755989 0.328796,98.053276 0.792603,110.12558c0.032501,0.872559 0.682526,1.548859 1.511383,1.597626c3.365265,0.196243 11.687225,0.183746 15.573792,0.111237c1.912659,0 2.147705,-1.345108 2.147705,-1.345108l0.287506,-23.15696c0,0 0.19754,-1.030083 0.515045,-1.371368c1.368866,-1.472618 5.15918,-5.535461 6.776825,-7.105591c0.387543,-0.377533 1.001343,-0.350029 1.395111,0.182518c1.920166,2.588966 7.39566,11.010925 12.471069,18.530312c4.661652,6.906853 9.014496,13.038597 9.318268,13.471138c0.702576,1.000076 1.523926,1.041321 2.141449,1.018814z" fill="#443642" id="svg_6"/>
    <path stroke="null" d="m252.590851,139.432709c1.173874,0.040009 10.088348,0.029999 14.038696,0.025024c1.33136,0.026245 2.022705,-0.981354 2.066437,-1.870163c0.837585,-16.925194 0.480042,-97.511997 -0.048767,-110.236824c-0.044983,-1.101345 -0.516296,-1.513882 -1.267578,-1.613888c-3.390289,-0.453793 -13.023636,-0.34753 -16.111374,0.460041c-0.605072,0.157509 -0.958832,0.616299 -0.980087,1.206352c-0.756332,32.799019 -0.246292,108.419136 -0.086258,109.851768c0.161255,1.433884 0.908813,2.127701 2.388931,2.177689z" fill="#443642" id="svg_7"/>
    <g stroke="null" id="svg_8">
     <g stroke="null" id="svg_9">
      <path stroke="null" d="m13.996943,105.78112c-5.494217,0.041252 -10.148359,-3.232765 -11.863502,-8.343208c-0.066255,-0.197517 -0.123765,-0.391281 -0.178767,-0.582542c-1.870155,-6.544304 1.756397,-13.391129 8.255698,-15.582573l104.238816,-34.9217c1.267601,-0.363773 2.543961,-0.54879 3.807816,-0.557545c5.639214,-0.043755 10.422134,3.30278 12.18103,8.520725l0.155014,0.503788c1.948914,6.815578 -2.895256,12.899837 -8.699471,14.850002c-0.00502,0.002495 -1.060104,0.361282 -103.662519,35.390488c-1.387621,0.471291 -2.811489,0.71006 -4.234111,0.722565l-0.000005,0z" fill="#70CADB" id="svg_10"/>
     </g>
     <g stroke="null" id="svg_11">
      <path stroke="null" d="m31.372156,157.045441c-5.53672,0.040039 -10.207113,-3.187744 -11.903503,-8.224411c-0.06251,-0.193771 -0.123764,-0.386292 -0.177517,-0.580063c-1.89641,-6.623062 1.725145,-13.539886 8.245699,-15.736328l104.243805,-35.24173c1.345123,-0.450035 2.737732,-0.681313 4.135361,-0.692566c5.551712,-0.042503 10.430878,3.349037 12.152267,8.443214l0.160034,0.531303c1.006302,3.517792 0.411255,7.476868 -1.588913,10.598389c-1.493866,2.323952 -6.199265,4.367882 -6.199265,4.367882l-104.641342,35.776741c-1.456375,0.487549 -2.943993,0.743835 -4.426626,0.757568z" fill="#E01765" id="svg_12"/>
     </g>
     <g stroke="null" id="svg_13">
      <path stroke="null" d="m118.148254,157.266739c-5.559235,0.043747 -10.484642,-3.46405 -12.254784,-8.721985l-34.7892,-103.340004l-0.175018,-0.580048c-1.883911,-6.589306 1.74015,-13.463638 8.238197,-15.65382c1.298859,-0.437538 2.643982,-0.666309 3.99659,-0.677559c2.01017,-0.015003 3.95533,0.437534 5.786736,1.342613c3.062759,1.525127 5.354202,4.150349 6.448036,7.391872l34.787941,103.33123l0.101257,0.331284c1.952682,6.841827 -1.663879,13.721146 -8.160683,15.908829c-1.28759,0.431305 -2.627724,0.656311 -3.979073,0.667587z" fill="#E8A723" id="svg_14"/>
     </g>
     <g stroke="null" id="svg_15">
      <path stroke="null" d="m66.435127,174.674438c-5.559219,0.04248 -10.487137,-3.465302 -12.261036,-8.729492l-34.780443,-103.337479c-0.060003,-0.191261 -0.120012,-0.380035 -0.176264,-0.575043c-1.880159,-6.588066 1.733896,-13.463646 8.229445,-15.655083c1.293863,-0.431282 2.632721,-0.657547 3.98534,-0.6688c5.559221,-0.042503 10.484636,3.464039 12.257284,8.724483l34.782944,103.339985c0.064995,0.181274 0.123756,0.380035 0.176254,0.57132c1.88517,6.591797 -1.731384,13.4711 -8.236938,15.662552c-1.291367,0.431274 -2.627731,0.656326 -3.976585,0.667557z" fill="#3EB890" id="svg_16"/>
     </g>
     <polygon stroke="null" points="100.99679630994797,133.99600219726562 125.25509709119797,125.70154571533203 117.32567662000656,102.15081024169922 93.03862065076828,110.36026000976562 " fill="#CC2027" id="svg_17"/>
     <polygon stroke="null" points="49.36368626356125,151.64999389648438 73.619484603405,143.3568115234375 65.6313025355339,119.62728881835938 41.349259078502655,127.83672332763672 " fill="#361238" id="svg_18"/>
     <path stroke="null" d="m83.726585,82.700424c10.907173,-3.72406 18.697838,-6.383041 24.260803,-8.283203l-7.836914,-23.275715l-24.305809,8.143185l7.88192,23.415733z" fill="#65863A" id="svg_19"/>
     <path stroke="null" d="m32.088478,100.329414c8.950745,-3.05526 17.006428,-5.805489 24.259544,-8.28196l-7.93317,-23.571991l-24.304556,8.141937l7.978182,23.712013z" fill="#1A937D" id="svg_20"/>
    </g>
   </g>
  </g>
 </g>
</svg>