<svg width="500" height="200" xmlns="http://www.w3.org/2000/svg"><path fill="none" d="M-1-1h502v202H-1z"/><g stroke="null"><path d="M178.463 83.987c0-14.818 10.804-25.165 30.438-25.165 11.98 0 21.783 3.825 27.093 7.572.76.535 2.117 1.833 1.303 4.247-1.042 2.6-2.953 6.51-4.324 9.05-.798 1.48-2.836 1.285-3.88.756-3.783-1.917-9.988-5.16-15.687-5.758-1.4-.147-2.87-.227-4.347-.188-5.02.112-9.214 1.855-10.692 5.685a6.74 6.74 0 0 0-.476 2.274c-.138 5.047 6.886 6.872 15.394 8.334 15.82 2.71 27.788 7.348 27.788 23.63 0 13.827-10.99 26.323-32.52 25.94-14.194-.287-24.264-5.083-29.66-9.737-.184-.158-2.238-2.25-1.137-4.765 1.26-3.24 3.387-6.952 5.056-8.922.928-1.266 3.377-1.468 4.65-.678 4.448 2.763 11.768 7.196 20.206 7.49.666.023 1.326.028 1.974.01 7.59-.184 12.182-3.062 12.086-7.91-.082-4.272-6.1-6.766-15.683-8.572-15.284-2.88-27.58-7.918-27.58-23.293m138.851 21.099c-10.778.14-20.66 3.087-20.946 11.51-.003 6.683 5.42 9.966 13.03 9.537 7.3-.703 12.867-3.87 15.32-8.07.907-1.557 1.045-7.384.99-9.874-.013-.53-1.062-1.533-1.52-1.725-2.29-.965-3.985-1.263-6.874-1.38m-35.863-33.938c5.04-4.51 15.034-11.53 30.96-11.16 21.016.437 32.12 10.29 33.154 33.86.426 9.72-.28 36.832-.448 43.588-.026.968-.353 1.638-1.66 1.664-3.46.138-11.457.083-15.13.036-1.854-.09-2.07-1.01-2.093-1.973-.016-.63-.07-2.498-.11-4.02-.02-.808-.78-.786-.973-.578-4.93 5.263-13.004 7.805-21.59 7.805-13.05 0-26.06-7.677-26.02-22.88.04-15.57 11.08-23.25 23.208-25.06 7.766-1.156 16.52-.128 23.15 2.506.424.17 1.29-.076 1.297-.677.027-1.984-.07-5.765-.45-7.557-.973-4.566-4.783-8.24-12.785-9.23-1.648-.203-3.306-.27-4.967-.138-6.362.5-14.016 5.46-17.186 7.317-.746.436-1.914.117-2.292-.37-1.85-2.39-6.5-9.38-6.866-10.497-.367-1.114.15-2.052.8-2.638zm71.044 28.984c-.125-21.715 15.004-40.034 39.573-40.195 15.33-.1 26.467 6.85 28.43 10.128.4.77.195 1.413-.082 2.188-1.297 2.74-4.576 8.034-6.912 11.034-.995 1.278-2.075.183-3.33-.652-3.483-2.32-10.1-5.157-16.614-5.157-11.816.002-20.615 8.104-20.517 23.01.092 14.304 8.52 22.164 20.558 22.45 6.293.158 12.39-3.46 15.67-6.422 1.03-.9 2.096-.45 3.273.47 2.31 2.362 5.623 6.006 7.46 8.515 1.203 1.394.303 2.758-.13 3.306-4.984 6.307-14.61 11.615-27.348 11.686-26.674.187-39.906-18.568-40.03-40.36m127.325 39.382c1.252-.093 14.613-1.937 18.714-2.876 1.017-.233 1.38-1.088.81-1.936-2.29-3.433-8.31-13.185-14.617-21.916-5.8-8.027-11.913-15.087-13.89-17.803-.482-.66-.456-1.31.07-1.822 3.76-3.68 19.493-19.105 25.408-25.475 2.29-2.478.915-3.544-1.03-4.123-3.757-1.12-9.834-2.516-13.29-3.245-1.457-.308-3.212-.2-4.487 1.11-5.914 5.515-23.963 23.63-29.35 29.045-.97.977-1.535.76-1.54-.636-.044-10.44-.25-55.138-.623-62.49-.027-.972-1.196-1.71-1.855-1.745-3.388-.177-11.947-.228-15.32-.03-.945.107-1.848 1.07-1.93 1.884-.778 11.756.33 98.054.792 110.126.033.873.683 1.55 1.512 1.598 3.365.196 11.687.183 15.574.11 1.912 0 2.147-1.344 2.147-1.344l.288-23.157s.197-1.03.515-1.37c1.37-1.474 5.16-5.537 6.777-7.107.387-.378 1-.35 1.395.182 1.92 2.59 7.395 11.01 12.47 18.53 4.663 6.908 9.015 13.04 9.32 13.472.702 1 1.523 1.04 2.14 1.02zm-227.233-.08c1.175.04 10.09.03 14.04.025 1.33.026 2.022-.982 2.066-1.87.838-16.926.48-97.512-.05-110.237-.044-1.1-.515-1.513-1.266-1.613-3.39-.454-13.024-.348-16.112.46-.605.157-.96.616-.98 1.206-.756 32.8-.246 108.42-.086 109.852.16 1.434.91 2.128 2.39 2.178z" fill="#443642"/><path d="M13.997 105.78c-5.494.042-10.148-3.232-11.864-8.342a13.67 13.67 0 0 1-.178-.583c-1.87-6.544 1.756-13.39 8.255-15.582L114.45 46.35a14.128 14.128 0 0 1 3.807-.556c5.64-.044 10.422 3.302 12.18 8.52l.156.504c1.95 6.816-2.895 12.9-8.7 14.85-.004.003-1.06.36-103.662 35.39-1.387.472-2.81.71-4.233.723z" fill="#70CADB"/><path d="M31.372 157.045c-5.537.04-10.207-3.187-11.903-8.224a13.38 13.38 0 0 1-.18-.58c-1.895-6.622 1.726-13.54 8.247-15.735L131.78 97.263c1.346-.45 2.738-.68 4.136-.693 5.552-.042 10.43 3.35 12.152 8.444l.16.53c1.007 3.52.412 7.478-1.59 10.6-1.492 2.323-6.198 4.367-6.198 4.367L35.8 156.29a14.356 14.356 0 0 1-4.428.757z" fill="#E01765"/><path d="M118.148 157.267a12.796 12.796 0 0 1-12.255-8.722l-34.79-103.34-.174-.58c-1.885-6.59 1.74-13.464 8.237-15.654 1.3-.437 2.644-.665 3.997-.677 2.01-.015 3.955.438 5.787 1.343a12.77 12.77 0 0 1 6.45 7.392l34.787 103.33.1.332c1.954 6.842-1.663 13.72-8.16 15.91-1.287.43-2.627.655-3.98.667z" fill="#E8A723"/><path d="M66.435 174.674a12.803 12.803 0 0 1-12.26-8.73L19.394 62.608a12.797 12.797 0 0 1 8.052-16.23 12.95 12.95 0 0 1 3.985-.668 12.797 12.797 0 0 1 12.257 8.723l34.782 103.34c.065.18.124.38.177.57a12.798 12.798 0 0 1-8.238 15.664c-1.292.43-2.628.656-3.977.667z" fill="#3EB890"/><path fill="#CC2027" d="M100.997 133.996l24.258-8.294-7.93-23.55-24.286 8.208z"/><path fill="#361238" d="M49.364 151.65l24.255-8.293-7.99-23.73-24.28 8.21z"/><path d="M83.727 82.7l24.26-8.283-7.837-23.275-24.305 8.143L83.727 82.7z" fill="#65863A"/><path d="M32.088 100.33l24.26-8.283-7.933-23.572-24.305 8.142 7.978 23.712z" fill="#1A937D"/></g></svg>