<?xml version="1.0" encoding="utf-8"?>
<!-- Generator: Adobe Illustrator 19.0.1, SVG Export Plug-In . SVG Version: 6.00 Build 0)  -->
<svg version="1.1" id="Layer_1" xmlns="http://www.w3.org/2000/svg" xmlns:xlink="http://www.w3.org/1999/xlink" x="0px" y="0px"
	 viewBox="0 0 500 200" style="enable-background:new 0 0 500 200;" xml:space="preserve">
<style type="text/css">
	.st0{fill:#55555A;}
	.st1{fill:#FA6423;}
</style>
<g>
	<g>
		<path class="st0" d="M2,133.2l7.8-9.3c5.4,4.5,11,7.3,17.9,7.3c5.4,0,8.7-2.1,8.7-5.7v-0.2c0-3.3-2.1-5.1-12.1-7.6
			c-12.1-3.1-19.9-6.4-19.9-18.3v-0.2c0-10.9,8.7-18.1,21-18.1c8.7,0,16.2,2.7,22.3,7.6l-6.9,9.9c-5.3-3.7-10.5-5.9-15.6-5.9
			c-5.1,0-7.7,2.3-7.7,5.2v0.2c0,3.9,2.6,5.2,12.9,7.9c12.2,3.2,19,7.5,19,18v0.2c0,11.9-9.1,18.6-22,18.6
			C18.4,142.8,9.2,139.7,2,133.2z"/>
		<path class="st0" d="M57.5,82H82c14.3,0,22.9,8.5,22.9,20.7v0.2c0,13.9-10.8,21.1-24.2,21.1h-10v18H57.5V82z M81.2,112.3
			c6.6,0,10.4-3.9,10.4-9.1V103c0-5.9-4.1-9.1-10.7-9.1H70.7v18.3H81.2z"/>
		<path class="st0" d="M123.6,81.6h12.2l25.7,60.4h-13.8l-5.5-13.4h-25.3l-5.5,13.4H97.9L123.6,81.6z M137.5,116.9l-8-19.4l-8,19.4
			H137.5z"/>
		<path class="st0" d="M167.7,82h27.4c7.6,0,13.5,2.1,17.5,6.1c3.3,3.3,5.1,8,5.1,13.7v0.2c0,9.7-5.2,15.8-12.8,18.6l14.6,21.4
			h-15.4l-12.8-19.2h-10.4V142h-13.2V82z M194.3,111.1c6.4,0,10.1-3.4,10.1-8.5v-0.2c0-5.7-3.9-8.6-10.4-8.6h-13.1v17.2H194.3z"/>
		<g>
			<path class="st0" d="M287.8,82h21.7c13.2,0,22.3,6.8,22.3,18.3v0.2c0,12.6-10.9,19.1-23.4,19.1h-16.2V142h-4.5V82z M308.7,115.5
				c11.1,0,18.7-5.8,18.7-14.7v-0.2c0-9.5-7.4-14.5-18.2-14.5h-17v29.4H308.7z"/>
			<path class="st0" d="M403.2,133.2l2.9-3.3c6.6,6.1,12.7,8.9,21.5,8.9c9,0,15.2-5.1,15.2-11.9v-0.2c0-6.3-3.3-10-17-12.8
				c-14.4-2.9-20.2-7.8-20.2-16.9v-0.2c0-8.9,8.1-15.8,19.3-15.8c8.7,0,14.5,2.4,20.6,7.3l-2.8,3.5c-5.7-4.9-11.3-6.8-17.9-6.8
				c-8.8,0-14.6,5.1-14.6,11.3v0.2c0,6.3,3.3,10.2,17.5,13.1c13.9,2.8,19.7,7.8,19.7,16.5v0.2c0,9.7-8.3,16.4-19.9,16.4
				C417.7,142.8,410.4,139.7,403.2,133.2z"/>
			<path class="st0" d="M472.9,86.1H452V82h46.2v4.1h-20.9V142h-4.5V86.1z"/>
		</g>
		<g>
			<path class="st0" d="M239.9,107.2L260.7,82h16.1l-24.3,28.5l26.1,31.5h-17l-21.6-26.8V142h-13.2V82h13.2V107.2z"/>
		</g>
	</g>
	<path class="st1" d="M389.5,68.4c-6.7,5-8,13.9-8.2,19.9c-10.6-12.2,19.5-48.1-14.7-70.3c21.2,27.4-30.1,54.3-30.1,94.7
		c0,15.8,9.9,29.8,31.6,34.6c21.3-4.5,31.8-18.8,31.8-34.6C399.9,89.1,385.2,81.2,389.5,68.4z M368.2,134.4c-11.6,0-21-9.4-21-21
		c0-11.6,9.4-21,21-21c11.6,0,21,9.4,21,21C389.2,125,379.8,134.4,368.2,134.4z"/>
</g>
</svg>
