<svg width="500" height="200" xmlns="http://www.w3.org/2000/svg"><style>.st0{fill:#3a3c3e}.st1{fill:#c6cacb}.st2{opacity:.8;fill:#22b9a0}.st3{fill:#fdb73b}.st4{fill:#22b9a0}</style><path fill="none" id="canvas_background" d="M-1-1h502v202H-1z"/><g id="svg_1"><g id="svg_2"><path id="svg_3" d="M139.21 112.16c4.608 1.28 9.472 2.05 12.8 2.05 5.89 0 8.705-2.56 8.96-6.145.257-3.84-3.327-6.4-12.032-10.753-7.168-3.84-11.777-7.68-11.777-14.338-.252-4.096 2.308-13.57 15.62-13.57 5.378 0 10.24 1.025 14.08 2.05l-1.533 6.912c-4.61-1.024-8.45-1.792-12.545-1.792-5.12 0-7.68 2.048-7.937 5.632-.256 4.097 5.12 6.657 10.753 9.73 8.45 4.608 13.57 8.704 13.57 16.385 0 5.12-2.56 13.317-17.154 13.317-4.35 0-10.495-1.024-14.592-2.56l1.792-6.913z" class="st0"/><path id="svg_4" d="M179.405 120.61V69.917h14.338c11.52 0 18.69 4.61 18.69 15.362 0 11.26-6.657 16.64-18.178 16.64h-6.913v18.69h-7.937zm14.338-44.036h-6.4v18.434H194c8.19 0 10.75-3.585 10.75-9.73 0-6.4-3.584-8.704-11.01-8.704z" class="st0"/><path id="svg_5" d="M252.628 120.61V97.568h-22.274v23.042h-7.68V69.66h7.68v20.483h22.274V69.66h7.68v50.95h-7.68z" class="st0"/><path id="svg_6" d="M303.32 120.61h-30.21V69.66h30.21v6.914h-22.273v13.57h19.97v7.168h-19.97v16.13h22.274v7.168z" class="st0"/><path id="svg_7" d="M313.562 120.61V69.917h14.082c11.265-.256 18.433 4.61 18.433 14.85 0 7.68-3.584 12.8-9.985 15.105l14.594 20.994h-9.217l-12.805-19.714h-7.17v19.714h-7.936v-.256zm14.082-44.036H321.5v17.92h6.656c7.936 0 10.753-4.095 10.497-9.727-.256-5.89-3.84-8.45-11.01-8.193z" class="st0"/><path id="svg_8" d="M389.346 120.61h-30.21V69.66h30.21v6.914H367.07v13.57h19.97v7.168h-19.97v16.13h22.276v7.168z" class="st0"/><path id="svg_9" d="M405.22 110.37c3.327 0 5.888 2.56 5.888 5.888s-2.56 5.888-5.89 5.888c-3.327 0-5.888-2.56-5.888-5.888 0-3.073 2.56-5.89 5.89-5.89z" class="st0"/><path id="svg_10" d="M442.343 120.61h-20.226v-6.145h6.4V76.062h-6.144v-6.4h19.97v6.4h-6.145v38.403h6.145v6.145z" class="st0"/><path id="svg_11" d="M474.602 69.15c15.617 0 23.042 12.288 23.042 26.626 0 14.337-8.45 26.114-23.042 26.114-14.85 0-23.3-11.52-23.3-26.114.258-14.594 7.682-26.627 23.3-26.627zm0 6.912c-11.01 0-15.106 9.73-15.106 19.458 0 9.728 4.865 18.945 15.106 18.945 10.497 0 15.36-9.217 15.36-18.945 0-9.985-4.607-19.458-15.36-19.458z" class="st0"/></g><path id="svg_12" d="M92.87 120.354V62.748c0 1.024-1.28 1.537-1.28 1.537S53.184 86.56 50.37 88.095c-1.025.512-2.05.768-2.817.768v57.862c.768 0 1.792-.257 2.816-.77 3.07-1.79 41.22-23.81 41.22-23.81s1.02-.51 1.28-1.535v-.256c0 .256 0 0 0 0z" class="st1"/><path id="svg_13" d="M3.004 64.285s-1.28-.77-1.28-1.793v57.862s0 .768.768 1.536c-.768-.512-1.536-1.792.512-3.072 2.816-1.792 44.292-25.603 44.292-25.603v-4.352c-1.792 0-3.072-.768-3.072-.768l-41.22-23.81z" class="st2"/><path id="svg_14" d="M91.59 60.956c-2.818-1.792-44.294-25.602-44.294-25.602-1.536.768-41.22 23.81-44.292 25.602-.512.256-1.024.768-1.024 1.024s-.256.256-.256.512c0 1.024 1.28 1.793 1.28 1.793l41.22 23.81s1.28.768 3.072.768c.77 0 1.793-.256 2.817-.768 3.072-1.792 41.476-23.81 41.476-23.81s1.02-.513 1.28-1.537c0-.512-.26-1.024-1.28-1.792z" class="st3"/><path id="svg_15" d="M47.296 93.47s-41.22 23.812-44.292 25.604c-2.304 1.28-1.024 2.56-.256 3.072l.256.256s.256 0 .256.256l40.964 23.554s1.28.77 3.072.77V93.47z" class="st4"/><g id="svg_16"><path id="svg_17" d="M226.002 160.55l1.536-15.618h-5.12l.255-1.28h11.522l-.256 1.28h-4.87l-1.535 15.618H226z" class="st0"/><path id="svg_18" d="M242.9 160.55l.767-9.73c.256-2.303-.512-2.303-1.024-2.303-1.536 0-4.608 3.072-5.376 6.4l-.512 5.633h-1.536l1.79-17.922h1.534l-.768 8.45c1.28-2.305 3.327-4.097 4.863-4.097 2.56 0 2.56 2.308 2.56 3.84l-.767 9.73H242.9z" class="st0"/><path id="svg_19" d="M256.98 150.31c-.255 3.07-3.584 3.84-7.936 4.607-.256 2.56.256 4.353 2.304 4.353 1.024 0 2.304-.256 4.61-2.048l.767 1.28c-2.048 1.536-3.585 2.304-5.377 2.304-4.096 0-3.584-4.61-3.584-6.913.512-3.84 1.536-6.912 5.888-6.656 2.305 0 3.585 1.28 3.33 3.072zm-7.68 3.07c3.584-.255 6.145-1.28 6.145-3.07 0-1.28-.512-2.05-2.305-2.05-2.816 0-3.328 2.817-3.84 5.12z" class="st0"/><path id="svg_20" d="M274.134 160.55h-9.216l1.792-17.154h9.217l-.256 1.28h-7.68l-.51 5.89h6.91l-.253 1.535h-6.912l-.768 6.917h7.68v1.536z" class="st0"/><path id="svg_21" d="M286.424 153.125h-8.45l.257-1.28h8.197v1.28z" class="st0"/><path id="svg_22" d="M300.25 160.294c-1.28.256-2.56.512-4.354.512-5.376 0-7.424-3.84-6.912-8.705.512-4.86 3.072-8.96 8.705-8.96 1.28 0 2.56.26 3.84.515l-.516 1.28c-1.536-.256-2.304-.512-3.584-.512-4.864 0-6.656 3.84-7.17 7.426-.254 3.583.77 7.17 5.634 7.17 1.537 0 2.56-.258 3.84-.514l.513 1.792z" class="st0"/><path id="svg_23" d="M306.65 160.806c-3.585 0-4.353-3.328-4.097-6.913.256-3.84 2.304-6.912 6.145-6.912 3.584 0 4.096 3.33 3.84 6.916-.256 3.585-1.536 6.913-5.888 6.913zm.256-1.28c3.328 0 4.096-2.817 4.352-5.633.256-2.304.512-5.376-2.304-5.376-3.073 0-4.353 3.072-4.61 5.376-.255 2.56-.255 5.633 2.562 5.633z" class="st0"/><path id="svg_24" d="M329.692 160.55l1.024-9.73c.256-2.303-.512-2.303-1.024-2.303-1.28 0-4.097 2.304-5.12 5.376l-.513 6.657h-1.54l.77-9.73c.255-2.303-.51-2.303-1.025-2.303-1.28 0-4.864 3.072-5.376 6.656l-.51 5.377h-1.538l1.28-13.313h1.537l-.258 3.84c1.024-2.048 3.328-4.096 4.864-4.096 2.56 0 2.56 2.308 2.56 3.84v.26c1.28-2.304 3.33-3.84 4.865-3.84 2.56 0 2.56 2.304 2.305 3.84l-1.024 9.73h-1.28v-.257z" class="st0"/><path id="svg_25" d="M349.918 160.55l1.024-9.73c.256-2.303-.512-2.303-1.024-2.303-1.28 0-4.097 2.304-5.12 5.376l-.513 6.657h-1.536l.764-9.73c.256-2.303-.512-2.303-1.024-2.303-1.28 0-4.863 3.072-5.376 6.656l-.512 5.377h-1.536l1.28-13.313h1.537l-.256 3.84c1.023-2.048 3.327-4.096 4.863-4.096 2.56 0 2.56 2.308 2.56 3.84v.26c1.28-2.304 3.33-3.84 4.866-3.84 2.56 0 2.56 2.304 2.304 3.84l-1.024 9.73h-1.28v-.257z" class="st0"/><path id="svg_26" d="M364.51 150.31c-.255 3.07-3.583 3.84-7.936 4.607-.256 2.56.256 4.353 2.305 4.353 1.02 0 2.3-.256 4.604-2.048l.768 1.28c-2.048 1.536-3.584 2.304-5.376 2.304-4.098 0-3.586-4.61-3.586-6.913.513-3.84 1.537-6.912 5.89-6.656 2.048 0 3.328 1.28 3.328 3.072zm-7.936 3.07c3.585-.255 6.145-1.28 6.145-3.07 0-1.28-.516-2.05-2.308-2.05-2.817 0-3.33 2.817-3.84 5.12z" class="st0"/><path id="svg_27" d="M375.008 148.517h-.768c-2.048 0-4.352 2.816-4.864 6.4l-.513 5.89h-1.536l1.28-13.314h1.537l-.256 3.072c1.28-2.304 2.56-3.072 4.096-3.072h1.28l-.256 1.024z" class="st0"/><path id="svg_28" d="M379.617 159.27c1.28 0 2.304-.512 4.608-2.048l.768 1.024c-2.304 1.792-3.84 2.304-5.632 2.304-4.093 0-3.58-5.377-3.325-7.937.512-4.608 2.816-5.888 5.89-5.888 1.023 0 1.79.256 3.07.256l-.255 1.28c-1.28-.252-2.05-.252-2.817-.252-2.047 0-3.84.768-4.352 4.352 0 3.07-.51 6.912 2.05 6.912z" class="st0"/><path id="svg_29" d="M396.514 150.31c-.256 3.07-3.584 3.84-7.937 4.607-.256 2.56.256 4.353 2.305 4.353 1.024 0 2.304-.256 4.608-2.048l.768 1.28c-2.048 1.536-3.584 2.304-5.376 2.304-4.097 0-3.585-4.61-3.585-6.913.512-3.84 1.536-6.912 5.89-6.656 2.303 0 3.583 1.28 3.327 3.072zm-7.68 3.07c3.584-.255 6.144-1.28 6.144-3.07 0-1.28-.512-2.05-2.304-2.05-2.816 0-3.328 2.817-3.84 5.12z" class="st0"/><path id="svg_30" d="M410.084 144.932h-2.56l-1.537 15.618h-1.536l1.54-17.154h4.097c3.584 0 5.888 1.536 5.376 4.865-.255 3.588-2.047 5.38-6.4 5.38h-1.28l.256-1.536h1.28c3.072 0 4.352-1.28 4.61-3.84.51-2.56-.77-3.328-3.84-3.328z" class="st0"/><path id="svg_31" d="M417.252 160.55l1.792-18.178h1.537l-1.79 18.178h-1.535z" class="st0"/><path id="svg_32" d="M429.797 160.55l.256-4.097c-1.024 2.56-2.816 4.097-4.608 4.097-2.56 0-3.328-2.816-3.072-6.657.256-3.84 1.28-6.912 6.4-6.912l3.585.26-1.28 13.313h-1.28zm-4.096-1.28c1.796 0 4.356-3.33 4.868-6.657l.257-3.84h-2.05c-3.583-.256-4.607 2.048-4.863 5.632 0 2.304.256 4.865 1.79 4.865z" class="st0"/><path id="svg_33" d="M442.087 148.517h-3.585l-1.024 8.705c0 1.28 0 2.048 1.024 2.048s1.536-.256 2.817-1.024l.51 1.28c-1.28.768-2.307 1.024-3.587 1.024-2.048 0-2.56-1.28-2.304-3.328l1.024-8.705h-2.304l.258-1.28h2.304l.257-3.073h1.534l-.256 3.073h3.584l-.256 1.28z" class="st0"/><path id="svg_34" d="M444.39 164.39l1.537-15.617h-2.304v-1.28h2.56v-.256c.256-2.305 1.024-4.865 4.608-4.865.516 0 .516 0 2.05.256l-.253 1.28c-1.024 0-1.28-.256-2.05 0-2.303 0-2.56 2.048-2.815 3.585v.256h4.097v1.28h-4.098l-1.538 15.613-1.792-.256z" class="st0"/><path id="svg_35" d="M456.168 160.806c-3.584 0-4.352-3.328-4.096-6.913.256-3.84 2.304-6.912 6.144-6.912 3.585 0 4.097 3.33 3.84 6.916-.255 3.585-1.792 6.913-5.888 6.913zm.256-1.28c3.328 0 4.096-2.817 4.352-5.633.256-2.304.512-5.376-2.304-5.376-3.072 0-4.352 3.072-4.608 5.376-.256 2.56-.256 5.633 2.56 5.633z" class="st0"/><path id="svg_36" d="M472.298 148.517h-.77c-2.047 0-4.35 2.816-4.863 6.4l-.512 5.89h-1.536l1.28-13.314h1.536l-.256 3.072c1.28-2.304 2.56-3.072 4.096-3.072h1.28l-.255 1.024z" class="st0"/><path id="svg_37" d="M488.94 160.55l1.023-9.73c.256-2.303-.512-2.303-1.024-2.303-1.28 0-4.1 2.304-5.12 5.376l-.516 6.657h-1.537l.77-9.73c.253-2.303-.515-2.303-1.027-2.303-1.28 0-4.863 3.072-5.375 6.656l-.512 5.377h-1.536l1.28-13.313h1.535l-.256 3.84c1.023-2.048 3.327-4.096 4.863-4.096 2.56 0 2.56 2.308 2.56 3.84v.26c1.28-2.304 3.33-3.84 4.863-3.84 2.56 0 2.56 2.304 2.303 3.84l-1.023 9.73h-1.28v-.257z" class="st0"/><path id="svg_38" d="M496.364 157.99c.768 0 1.536.768 1.536 1.536s-.768 1.536-1.536 1.536-1.536-.768-1.536-1.536c0-1.024.768-1.536 1.536-1.536z" class="st0"/></g></g></svg>