<svg width="500" height="200" viewBox="0 0 223 31" xmlns="http://www.w3.org/2000/svg"><path d="M32.706 14.135a1.877 1.877 0 0 0-2.654 0L18.116 26.073a3.752 3.752 0 0 1-5.306 0 1.874 1.874 0 0 0-2.653 0 1.874 1.874 0 0 0 0 2.652 7.502 7.502 0 0 0 10.611 0l11.938-11.937a1.877 1.877 0 0 0 0-2.653zm-6.633-3.979L14.137 22.094a1.875 1.875 0 1 0 2.653 2.652L28.726 12.81a3.752 3.752 0 0 1 5.306 5.306L22.324 29.823a3.752 3.752 0 0 0 5.306 0l9.055-9.056a7.503 7.503 0 0 0-10.612-10.61zM24.748 8.83a1.876 1.876 0 0 0-2.652-2.652L10.157 18.114a3.752 3.752 0 0 1-5.306-5.306L16.559 1.1a3.751 3.751 0 0 0-5.305 0l-9.056 9.056a7.503 7.503 0 0 0 10.61 10.611L24.748 8.83zm-18.57 7.96a1.876 1.876 0 0 0 2.653 0L20.768 4.85a3.751 3.751 0 0 1 5.305 0 1.875 1.875 0 1 0 2.653-2.652 7.502 7.502 0 0 0-10.611 0L6.178 14.135a1.875 1.875 0 0 0 0 2.653zm113.541-1.762V8.63h4.87c2.544 0 4.03 1.171 4.03 3.11v.044c0 2.028-1.688 3.244-4.055 3.244h-4.844zm10.704-3.31v-.047c0-1.238-.45-2.343-1.216-3.109-.991-.99-2.547-1.577-4.483-1.577h-6.783v15.771h1.779v-6.128h4.505l4.575 6.128h2.185l-4.844-6.443c2.479-.45 4.282-1.984 4.282-4.596zm49.839 5.27l3.605-8.043 3.58 8.043h-7.186zm2.793-10.116l-7.188 15.884h1.825l1.869-4.168h8.586l1.847 4.168h1.915L184.72 6.871h-1.666zm-79.872 10.116l3.605-8.043 3.583 8.043h-7.188zm2.794-10.116L98.79 22.755h1.823l1.87-4.168h8.586l1.845 4.168h1.917l-7.189-15.884h-1.666zm49.003 7.143c-3.468-.743-4.28-1.578-4.28-3.064v-.045c0-1.419 1.307-2.546 3.356-2.546 1.622 0 3.09.517 4.552 1.711l1.036-1.373C158.045 7.413 156.4 6.76 154.1 6.76c-2.996 0-5.18 1.825-5.18 4.303v.045c0 2.592 1.667 3.763 5.294 4.552 3.311.698 4.1 1.531 4.1 2.996v.045c0 1.555-1.398 2.68-3.514 2.68-2.185 0-3.762-.742-5.408-2.229l-1.103 1.306c1.892 1.69 3.942 2.524 6.443 2.524 3.132 0 5.384-1.758 5.384-4.46v-.047c0-2.41-1.62-3.695-5.138-4.46zm-18.97 1.6h8.607V13.99h-8.607V8.606h9.622V6.984H134.23v15.771h11.513v-1.623h-9.733v-5.519zm-80.321-1.6c-3.47-.743-4.28-1.578-4.28-3.064v-.045c0-1.419 1.306-2.546 3.355-2.546 1.623 0 3.089.517 4.552 1.711l1.037-1.373c-1.6-1.284-3.244-1.938-5.542-1.938-2.999 0-5.184 1.825-5.184 4.303v.045c0 2.592 1.668 3.763 5.297 4.552 3.31.698 4.1 1.531 4.1 2.996v.045c0 1.555-1.399 2.68-3.516 2.68-2.184 0-3.761-.742-5.407-2.229l-1.104 1.306c1.892 1.69 3.942 2.524 6.443 2.524 3.132 0 5.384-1.758 5.384-4.46v-.047c0-2.41-1.62-3.695-5.136-4.46zm118.06-1.916c0 2.073-1.712 3.47-4.326 3.47h-3.898V8.63h3.989c2.546 0 4.236 1.171 4.236 3.425v.044zm-4.102-5.114h-5.902v15.771h1.78V17.19h3.83c3.357 0 6.196-1.757 6.196-5.159v-.044c0-3.11-2.344-5.003-5.905-5.003zM212.5 21.132v-5.519h8.609v-1.622h-8.61V8.606h9.623V6.984H210.72v15.771h11.514v-1.623H212.5zm-11.151.248c-3.47 0-6.106-2.86-6.106-6.51v-.045c0-3.627 2.612-6.466 6.106-6.466 2.14 0 3.626.9 4.957 2.163l1.215-1.307c-1.575-1.488-3.288-2.5-6.15-2.5-4.643 0-7.977 3.694-7.977 8.155v.045c0 4.53 3.358 8.111 7.91 8.111 2.86 0 4.663-1.104 6.307-2.77l-1.172-1.15c-1.509 1.441-2.929 2.274-5.09 2.274zM94.71 16.154c0 3.448-1.848 5.205-4.754 5.205-3.02 0-4.821-1.915-4.821-5.318V6.984h-1.78v9.17c0 4.461 2.657 6.85 6.555 6.85 3.943 0 6.58-2.389 6.58-6.985V6.984h-1.78v9.17zm-18.093 2.84l-2.905-2.637-1.196 1.33 2.932 2.501c-.97.743-2.234 1.192-3.63 1.192-3.604 0-6.218-2.928-6.218-6.51v-.045c0-3.582 2.568-6.466 6.174-6.466 3.604 0 6.218 2.928 6.218 6.511v.045a6.636 6.636 0 0 1-1.374 4.078zm3.223-4.124v-.045c0-4.349-3.223-8.11-8.022-8.11s-8.067 3.807-8.067 8.155v.045c0 4.35 3.224 8.111 8.023 8.111 1.96 0 3.65-.63 4.978-1.69l2.073 1.891 1.217-1.329-2.095-1.733c1.216-1.442 1.892-3.313 1.892-5.295z" fill="#1A1918" fill-rule="evenodd"/></svg>