<svg width="500" height="200" viewBox="0 0 223 31" xmlns="http://www.w3.org/2000/svg"><title>Squarespace</title><path d="M32.7055 14.13525c-.733-.732-1.921-.732-2.653 0l-11.938 11.938c-1.465 1.465-3.841 1.465-5.306 0-.732-.733-1.92-.733-2.652 0-.733.732-.733 1.92 0 2.652 2.93 2.931 7.681 2.931 10.611 0l11.938-11.937c.732-.732.732-1.92 0-2.653zm-6.632-3.979l-11.938 11.938c-.733.732-.733 1.92 0 2.652.733.733 1.92.733 2.653 0l11.937-11.937c1.465-1.465 3.841-1.465 5.306 0 1.465 1.465 1.465 3.84 0 5.306l-11.708 11.708c1.465 1.465 3.84 1.465 5.306 0l9.055-9.056c2.93-2.93 2.93-7.681 0-10.611-2.93-2.93-7.681-2.93-10.611 0zm-1.327-1.327c.732-.732.732-1.92 0-2.652-.733-.733-1.92-.733-2.652 0l-11.938 11.937c-1.466 1.465-3.841 1.465-5.306 0-1.465-1.465-1.465-3.84 0-5.306l11.708-11.708c-1.464-1.465-3.84-1.465-5.305 0l-9.056 9.056c-2.93 2.93-2.93 7.681 0 10.611 2.931 2.931 7.681 2.931 10.611 0l11.938-11.938zm-18.569 7.959c.732.732 1.919.732 2.652 0l11.938-11.938c1.465-1.465 3.84-1.465 5.305 0 .733.733 1.921.733 2.653 0 .733-.732.733-1.92 0-2.652-2.93-2.931-7.68-2.931-10.611 0l-11.937 11.937c-.733.733-.733 1.921 0 2.653zm113.541-1.761v-6.398h4.869c2.544 0 4.031 1.171 4.031 3.109v.045c0 2.028-1.689 3.244-4.056 3.244h-4.844zm10.703-3.311v-.046c0-1.238-.45-2.343-1.216-3.109-.991-.991-2.547-1.577-4.483-1.577h-6.782v15.771h1.778v-6.128h4.505l4.576 6.128h2.185l-4.844-6.443c2.478-.451 4.281-1.984 4.281-4.596zm49.839 5.271l3.605-8.043 3.581 8.043h-7.186zm2.793-10.116l-7.188 15.884h1.825l1.869-4.168h8.586l1.847 4.168h1.915l-7.188-15.884h-1.666zm-79.872 10.116l3.605-8.043 3.583 8.043h-7.188zm2.794-10.116l-7.186 15.884h1.824l1.87-4.168h8.585l1.846 4.168h1.916l-7.188-15.884h-1.667zm49.003 7.143c-3.467-.743-4.279-1.578-4.279-3.064v-.045c0-1.419 1.307-2.546 3.356-2.546 1.622 0 3.089.517 4.552 1.711l1.036-1.373c-1.598-1.284-3.244-1.938-5.543-1.938-2.996 0-5.181 1.825-5.181 4.303v.045c0 2.592 1.668 3.763 5.295 4.552 3.311.698 4.1 1.531 4.1 2.996v.045c0 1.555-1.398 2.68-3.514 2.68-2.185 0-3.762-.742-5.408-2.229l-1.103 1.306c1.892 1.69 3.942 2.524 6.443 2.524 3.132 0 5.384-1.758 5.384-4.461v-.046c0-2.41-1.621-3.695-5.138-4.46zm-18.969 1.599h8.606v-1.622h-8.606v-5.385h9.621v-1.622h-11.401v15.771h11.513v-1.623h-9.733v-5.519zm-80.322-1.599c-3.469-.743-4.28-1.578-4.28-3.064v-.045c0-1.419 1.307-2.546 3.356-2.546 1.622 0 3.088.517 4.551 1.711l1.037-1.373c-1.6-1.284-3.244-1.938-5.542-1.938-2.998 0-5.183 1.825-5.183 4.303v.045c0 2.592 1.667 3.763 5.296 4.552 3.311.698 4.1 1.531 4.1 2.996v.045c0 1.555-1.398 2.68-3.515 2.68-2.185 0-3.762-.742-5.408-2.229l-1.103 1.306c1.892 1.69 3.942 2.524 6.443 2.524 3.132 0 5.384-1.758 5.384-4.461v-.046c0-2.41-1.621-3.695-5.136-4.46zm118.061-1.916c0 2.073-1.713 3.47-4.327 3.47h-3.898v-6.939h3.989c2.546 0 4.236 1.171 4.236 3.425v.044zm-4.103-5.114h-5.902v15.771h1.78v-5.565h3.831c3.357 0 6.196-1.757 6.196-5.159v-.044c0-3.111-2.344-5.003-5.905-5.003zm42.854 14.148v-5.519h8.609v-1.622h-8.609v-5.385h9.622v-1.622h-11.401v15.771h11.514v-1.623h-9.735zm-11.151.248c-3.469 0-6.106-2.86-6.106-6.51v-.045c0-3.627 2.612-6.466 6.106-6.466 2.14 0 3.626.9 4.957 2.163l1.216-1.307c-1.576-1.488-3.289-2.501-6.151-2.501-4.642 0-7.976 3.695-7.976 8.156v.045c0 4.529 3.358 8.111 7.909 8.111 2.861 0 4.664-1.104 6.308-2.771l-1.172-1.149c-1.509 1.441-2.929 2.274-5.091 2.274zm-106.638-5.226c0 3.448-1.847 5.205-4.753 5.205-3.021 0-4.822-1.915-4.822-5.318v-9.057h-1.78v9.17c0 4.461 2.658 6.85 6.556 6.85 3.943 0 6.579-2.389 6.579-6.985v-9.035h-1.78v9.17zm-18.092 2.839l-2.906-2.636-1.195 1.33 2.931 2.501c-.97.743-2.233 1.192-3.629 1.192-3.604 0-6.218-2.928-6.218-6.51v-.045c0-3.582 2.568-6.466 6.174-6.466 3.604 0 6.218 2.928 6.218 6.511v.045c0 1.554-.518 2.973-1.375 4.078zm3.222-4.123v-.045c0-4.349-3.222-8.111-8.021-8.111-4.799 0-8.067 3.808-8.067 8.156v.045c0 4.349 3.224 8.111 8.023 8.111 1.959 0 3.65-.631 4.978-1.69l2.073 1.891 1.217-1.329-2.095-1.733c1.216-1.442 1.892-3.313 1.892-5.295z" fill="#1A1918" fill-rule="evenodd"/></svg>
