<?xml version="1.0"?>
<svg width="500" height="200" xmlns="http://www.w3.org/2000/svg">

 <g>
  <title>background</title>
  <rect fill="none" id="canvas_background" height="202" width="502" y="-1" x="-1"/>
 </g>
 <g>
  <title>Layer 1</title>
  <g stroke="null" id="svg_1">
   <path stroke="null" id="svg_2" d="m0.454498,105.40979l19.518187,0l0,1.113495c0,2.848328 1.036003,5.212639 3.110729,7.090233c2.074722,1.877579 4.676966,2.815697 7.808086,2.815697c3.373129,0 6.213301,-0.913651 8.520514,-2.743645c2.308571,-1.828636 3.46286,-4.092339 3.46286,-6.793846c0,-2.874153 -1.220905,-5.226234 -3.661362,-7.054871c-1.109417,-0.827988 -2.308571,-1.524094 -3.596096,-2.091049s-3.772846,-1.525444 -7.455959,-2.875511c-9.238373,-3.439751 -16.021336,-7.250664 -20.350251,-11.432747c-4.330274,-4.182076 -6.493372,-9.692474 -6.493372,-16.532532c0,-8.232285 2.751796,-14.869774 8.255393,-19.915188c5.503595,-5.045414 12.698515,-7.567444 21.583395,-7.567444c8.599367,0 15.545485,2.445892 20.841059,7.336315c5.29422,4.890423 8.293465,11.695137 9.001808,20.414154l-17.991375,0c-0.354851,-3.53764 -1.49826,-6.168438 -3.430233,-7.896469c-1.930607,-1.728027 -4.738148,-2.592724 -8.421259,-2.592724c-3.329622,0 -6.025677,0.822548 -8.089525,2.467644c-2.063848,1.645096 -3.094412,3.783726 -3.094412,6.41724c0,3.544434 1.863989,6.334297 5.591967,8.365517c2.042097,1.080872 5.593328,2.53019 10.65234,4.34523c4.991032,1.785133 8.84409,3.419357 11.560539,4.89994c2.716454,1.480583 5.008713,3.156952 6.876781,5.030457c4.584511,4.443123 6.876774,10.191444 6.876774,17.24633c0,8.462044 -2.829296,15.283073 -8.486526,20.464455c-5.657227,5.181366 -13.11726,7.771378 -22.378748,7.771378c-9.393364,-0.046219 -16.799018,-2.644394 -22.215599,-7.802658c-5.33093,-5.113388 -7.995714,-12.010559 -7.995714,-20.696945c0,0.073418 0,0.145477 0,0.217545z"/>
   <path stroke="null" id="svg_3" d="m69.428902,83.237694l0,-14.539391l7.16909,0l0,-16.861561l17.259911,0l0,16.861561l7.900551,0l0,14.538033l-7.900551,0l0,30.022324c0,1.500984 0.375252,2.558739 1.128456,3.174629c0.751854,0.617256 2.01355,0.925888 3.783722,0.925888l2.987,0l0,14.538025l-13.739944,0c-4.071953,0 -6.993698,-0.929962 -8.76252,-2.788513c-1.77018,-1.858551 -2.655266,-4.912178 -2.655266,-9.160866l0,-36.710129l-7.170448,0z"/>
   <path stroke="null" id="svg_4" d="m110.323822,101.161079c0,-9.914078 3.003326,-18.123245 9.009964,-24.628853c6.007996,-6.505615 13.617584,-9.759094 22.828766,-9.759094c4.240555,0 7.950851,0.796715 11.13092,2.390144c3.180069,1.593437 6.293518,4.2052 9.341705,7.833923l0,-8.032417l17.259903,0l0,62.933777l-17.259903,0l0,-8.695892c-2.916306,3.761963 -6.141251,6.516479 -9.673447,8.264908c-3.533554,1.748413 -7.597351,2.622635 -12.190018,2.622635c-8.859055,0 -16.147789,-3.087616 -21.867546,-9.260124c-5.72113,-6.17659 -8.580345,-14.064903 -8.580345,-23.669006zm18.653488,-0.265114c0,5.48864 1.589355,10.079964 4.770798,13.775299c3.180054,3.695358 7.110611,5.54303 11.794373,5.54303c4.812927,0 8.909363,-1.94693 12.289291,-5.842133c3.379913,-3.893845 5.069885,-8.564011 5.069885,-14.00779c0,-5.577019 -1.601593,-10.145218 -4.803421,-13.708687c-3.203171,-3.562111 -7.343109,-5.344528 -12.423874,-5.344528c-4.902649,0 -8.910706,1.825928 -12.025513,5.47641c-3.114807,3.653198 -4.671539,8.354645 -4.671539,14.108398z"/>
   <path stroke="null" id="svg_5" d="m196.758011,131.89856l0,-62.933777l17.259903,0l0,7.900543c1.94693,-3.451988 4.315338,-5.997131 7.103836,-7.634071c2.788498,-1.636932 6.173874,-2.456764 10.157455,-2.456764c8.320648,0 14.029556,3.496849 17.128036,10.489189c2.080154,-3.628731 4.657913,-6.283997 7.734665,-7.965797c3.075378,-1.681808 6.848236,-2.522034 11.319885,-2.522034c6.505615,0 11.572784,1.948288 15.202881,5.842133c1.900696,2.080162 3.21814,4.425446 3.948212,7.037209c0.730103,2.611755 1.097198,6.283997 1.097198,11.019424l0,41.225304l-17.259918,0l0,-37.907921c0,-8.45253 -3.209961,-12.679474 -9.627197,-12.679474c-3.186859,0 -5.665405,1.106697 -7.435562,3.318741c-1.770187,2.213409 -2.655273,5.333649 -2.655273,9.360733l0,37.906563l-17.259933,0l0,-37.374954c0,-8.807388 -3.165115,-13.211082 -9.492599,-13.211082c-6.63884,0 -9.957596,4.403694 -9.957596,13.211082l0,37.374954l-17.263992,0l0,0z"/>
   <path stroke="null" id="svg_6" d="m304.435699,160.046021l0,-91.081238l17.259888,0l0,7.767303c2.610443,-3.451988 5.54306,-5.975372 8.796509,-7.567444c3.25351,-1.593437 7.203094,-2.390152 11.850159,-2.390152c6.532776,0 12.421173,1.726669 17.66507,5.178658c9.556519,6.50425 14.332733,16.063484 14.332733,28.677696c0,10.047333 -2.878235,18.134132 -8.633362,24.264496c-5.7565,6.130371 -13.390533,9.19487 -22.900818,9.19487c-8.895752,0 -15.932953,-2.987015 -21.11026,-8.962379l0,34.919548l-17.259918,0l0,-0.001358zm17.261261,-58.884941c0,5.7089 1.526825,10.312447 4.580444,13.807945c3.05365,3.496841 7.103821,5.24527 12.149231,5.24527c5.045441,0 9.182648,-1.802811 12.414368,-5.40979c3.230408,-3.606964 4.845551,-8.198288 4.845551,-13.775299c0,-5.752396 -1.571686,-10.478317 -4.713684,-14.17366c-3.141968,-3.695351 -7.148682,-5.543022 -12.015991,-5.543022c-5.090271,0 -9.239716,1.847672 -12.446991,5.543022c-3.209961,3.695343 -4.812927,8.463409 -4.812927,14.305534z"/>
   <path stroke="null" id="svg_7" d="m382.173981,113.376953l17.259918,0c0.39563,2.375183 1.243988,4.108658 2.543793,5.200409c1.299744,1.091743 3.205902,1.638283 5.718384,1.638283c2.025787,0 3.679047,-0.524788 4.957031,-1.574394c1.278015,-1.049591 1.917023,-2.414619 1.917023,-4.095055c0,-1.805527 -0.794006,-3.254845 -2.379272,-4.346596c-1.586609,-1.091751 -4.670166,-2.309937 -9.251953,-3.654572c-6.997772,-1.930595 -12.141113,-4.419998 -15.431274,-7.465462c-3.291534,-3.045471 -4.936676,-6.91893 -4.936676,-11.624443c0,-6.182037 2.292267,-11.174423 6.878174,-14.975822c4.585846,-3.801392 10.622406,-5.703453 18.113739,-5.703453c7.147308,0 12.759644,1.791931 16.838409,5.377151c4.077423,3.585228 6.225555,8.585777 6.444458,15.003006l-16.077087,0l0,-0.912277c0,-1.635574 -0.750519,-2.976128 -2.247375,-4.02301c-1.498291,-1.045517 -3.415314,-1.568954 -5.749695,-1.568954c-2.072021,0 -3.74704,0.504402 -5.023682,1.511856c-1.278015,1.008812 -1.915649,2.309929 -1.915649,3.906082c0,1.722595 0.59549,3.003319 1.783752,3.843544c0.925873,0.671638 1.783783,1.155647 2.577759,1.44796c0.792664,0.295021 3.502319,1.133888 8.128967,2.520668c7.01004,2.100555 12.013275,4.610352 15.0112,7.529381c2.996521,2.919022 4.496155,6.793839 4.496155,11.623085c0,6.31118 -2.225677,11.397377 -6.674194,15.261314c-4.449951,3.862579 -10.313843,5.795914 -17.593018,5.795914c-7.669464,0 -13.738617,-1.815048 -18.20755,-5.443771c-4.47168,-3.631454 -6.86319,-8.721725 -7.181335,-15.270844z"/>
   <path stroke="null" id="svg_8" d="m435.350006,68.964783l18.32312,0l12.812714,37.374954l14.671265,-37.374954l18.388397,0l-35.516418,91.612839l-18.455017,0l11.816162,-30.205872l-22.040222,-61.406967z"/>
  </g>
 </g>
</svg>