<?xml version="1.0" encoding="utf-8"?>
<!-- Generator: Adobe Illustrator 18.1.0, SVG Export Plug-In . SVG Version: 6.00 Build 0)  -->
<svg version="1.1" id="Layer_1" xmlns="http://www.w3.org/2000/svg" xmlns:xlink="http://www.w3.org/1999/xlink" x="0px" y="0px"
	 viewBox="0 0 200 20" enable-background="new 0 0 200 20" xml:space="preserve">
<g>
	<g>
		<path fill="#111111" d="M5.4,6.6C3.7,5.9,2.9,5.2,2.9,4.2c0-0.7,0.7-1.5,1.9-1.5c1.2,0,2.8,1.1,3,1.2c0.3,0.2,0.6,0,0.8-0.3
			l0.8-1.2c0.2-0.2,0.1-0.6-0.1-0.7C8.8,1.4,7.1,0.3,4.9,0.3C1.5,0.3,0,2.5,0,4.4c0,2.5,2,3.8,4,4.6c1.8,0.7,2.7,1.5,2.7,2.6
			c0,0.9-0.8,1.7-2,1.7c-1.4,0-3.1-1.3-3.2-1.3c-0.2-0.2-0.6-0.2-0.7,0.2l-0.8,1.3C-0.1,13.7,0,13.8,0.2,14c0.4,0.4,2,1.7,4.7,1.7
			c3,0,4.9-2,4.9-4.2C9.9,8.7,7.5,7.4,5.4,6.6z M28.3,0.5h-2c-0.2,0-0.4,0.2-0.4,0.4v8.8c0,1.8-1.3,3.2-3.1,3.2
			c-1.9,0-3.1-1.4-3.1-3.3V0.9c0-0.2-0.2-0.4-0.4-0.4h-2c-0.2,0-0.4,0.2-0.4,0.4v8.9c0,3.3,2.6,5.9,6,5.9c3.4,0,6-2.6,6-5.9V0.9
			C28.7,0.7,28.5,0.5,28.3,0.5z M42.2,0.5c-0.1-0.1-0.2-0.2-0.4-0.2h-0.2c-0.2,0-0.3,0.1-0.4,0.2l-6.7,14.4c-0.1,0.3,0,0.6,0.4,0.6
			h1.9c0.3,0,0.5-0.2,0.6-0.4l1.1-2.3h6.4l1.1,2.3c0.2,0.3,0.3,0.4,0.6,0.4h1.9c0.3,0,0.5-0.3,0.4-0.6L42.2,0.5z M39.5,10.4l2.1-4.7
			h0.1l2.2,4.7H39.5z M71.6,7.9c1-0.5,2.4-1.8,2.4-3.4c0-2.3-2-4-4.5-4h-4.9c-0.2,0-0.4,0.2-0.4,0.4v14.2c0,0.2,0.2,0.4,0.4,0.4h5.2
			c2.6,0,4.7-1.7,4.7-4.1C74.4,9.4,72.8,8.2,71.6,7.9z M66.9,3h2.3c1.1,0,1.9,0.8,1.9,1.8c0,1.1-0.8,1.9-1.9,1.9h-2.3V3z M69.5,13
			h-2.6V9.1h2.3c1.1,0,2.2,0.8,2.2,1.9C71.4,12.1,70.6,13,69.5,13z M88.4,0.3c-4.3,0-7.7,3.5-7.7,7.7s3.4,7.7,7.7,7.7
			s7.7-3.4,7.7-7.7S92.7,0.3,88.4,0.3z M88.4,12.9c-2.7,0-4.9-2.2-4.9-4.9c0-2.7,2.2-5,4.9-5s4.9,2.3,4.9,5
			C93.3,10.7,91.1,12.9,88.4,12.9z M114.6,0.5h-2c-0.2,0-0.4,0.2-0.4,0.4v8.8c0,1.8-1.3,3.2-3.1,3.2c-1.9,0-3.1-1.4-3.1-3.3V0.9
			c0-0.2-0.2-0.4-0.4-0.4h-2c-0.2,0-0.4,0.2-0.4,0.4v8.9c0,3.3,2.6,5.9,6,5.9c3.4,0,6-2.6,6-5.9V0.9C115,0.7,114.8,0.5,114.6,0.5z
			 M131.1,0.5h-9.4c-0.2,0-0.4,0.2-0.4,0.4v1.8c0,0.2,0.2,0.4,0.4,0.4h3.3v12c0,0.2,0.2,0.4,0.4,0.4h2c0.2,0,0.4-0.2,0.4-0.4v-12
			h3.3c0.2,0,0.4-0.2,0.4-0.4V0.9C131.5,0.7,131.4,0.5,131.1,0.5z M140.5,0.5h-2c-0.2,0-0.4,0.2-0.4,0.4v14.2c0,0.2,0.2,0.4,0.4,0.4
			h2c0.2,0,0.4-0.2,0.4-0.4V0.9C140.9,0.7,140.7,0.5,140.5,0.5z M163.5,8c0-4.3-3.4-7.7-7.7-7.7c-4.3,0-7.7,3.5-7.7,7.7
			s3.4,7.7,7.7,7.7c0.3,0,0.6,0,1-0.1l2.3,3.9c0.1,0.1,0.3,0.2,0.3,0.2h2.3c0.3,0,0.5-0.3,0.3-0.6l-2.7-4.2
			C161.8,13.5,163.5,10.9,163.5,8z M155.8,12.9c-2.7,0-4.9-2.2-4.9-4.9c0-2.7,2.2-5,4.9-5c2.7,0,4.9,2.3,4.9,5
			C160.7,10.7,158.5,12.9,155.8,12.9z M182,0.5h-2c-0.2,0-0.4,0.2-0.4,0.4v8.8c0,1.8-1.3,3.2-3.1,3.2c-1.9,0-3.1-1.4-3.1-3.3V0.9
			c0-0.2-0.2-0.4-0.4-0.4h-2c-0.2,0-0.4,0.2-0.4,0.4v8.9c0,3.3,2.6,5.9,6,5.9c3.4,0,6-2.6,6-5.9V0.9C182.4,0.7,182.2,0.5,182,0.5z
			 M199.6,3.1c0.2,0,0.4-0.2,0.4-0.4V0.9c0-0.2-0.2-0.4-0.4-0.4h-8.8c-0.2,0-0.4,0.2-0.4,0.4v14.2c0,0.2,0.2,0.4,0.4,0.4h8.8
			c0.2,0,0.4-0.2,0.4-0.4v-1.8c0-0.2-0.2-0.4-0.4-0.4h-6.4V9.2h5.3c0.2,0,0.4-0.2,0.4-0.4V7c0-0.2-0.2-0.4-0.4-0.4h-5.3V3.1H199.6z"
			/>
	</g>
</g>
</svg>
