<svg xmlns="http://www.w3.org/2000/svg" preserveAspectRatio="xMidYMid" width="500" height="200" viewBox="0 0 500 200"><defs><style>.cls-1{fill:#fff;fill-opacity:0}.cls-2{fill:#000}.cls-2,.cls-3,.cls-4,.cls-5,.cls-6,.cls-7,.cls-8{fill-rule:evenodd}.cls-3{fill:#51605a}.cls-4{fill:#b9ba65}.cls-5{fill:#a0bbae}.cls-6{fill:#e3c620}.cls-7{fill:#759491}.cls-8{fill:#8a2a3b}</style></defs><path class="cls-1" d="M0 0h500v200H0z"/><path d="M389.485 90.287c-.22.668-.738 2.238-2.286 2.238-.12 0-.24-.018-.356-.038l-.297-.04c-1.622-.45-3.156-.872-4.96-.872-3.684 0-5.78 1.333-6.232 3.958-.436 2.535 1.684 3.247 4.724 3.98l.2.046c2.77.625 9.278 2.09 8.104 8.913-1.087 6.315-6.646 8.555-11.485 8.555-2.478 0-6.004-.442-8.297-1.39-.715-.283-1.225-.804-1.394-1.372-.14-.462-.052-1.025.247-1.464.66-.965 1.283-2.01 2.398-2.01h.042c.282 0 .522.23.68.287l.312.215c2.18.587 4.242 1.142 6.536 1.142 3.618 0 5.696-1.42 6.176-4.222.43-2.5-1.565-3.13-4.66-3.806l-.28-.064c-2.297-.517-9.287-2.097-8.09-9.078.895-5.2 5.21-8.302 11.545-8.302 1.767 0 4.3.163 6.346.947.573.19.862.562.997.836.21.43.218.946.025 1.537zm-27.688 2.238c-.12 0-.238-.018-.355-.038l-.294-.04c-1.55-.43-3.156-.872-4.96-.872-3.684 0-5.78 1.334-6.232 3.96-.438 2.536 1.68 3.25 4.724 3.98l.2.05c2.77.624 9.276 2.093 8.105 8.916-1.088 6.316-6.647 8.565-11.485 8.565-2.48 0-6.005-.425-8.294-1.374-.72-.283-1.23-.768-1.4-1.336-.138-.462-.048-.96.254-1.4.666-.98 1.364-1.848 2.435-1.87.28.004.51.087.68.148l.308.08c2.182.588 4.245 1.145 6.544 1.145 3.616 0 5.693-1.42 6.176-4.222.43-2.5-1.566-3.13-4.66-3.806l-.28-.064c-2.3-.517-9.29-2.097-8.09-9.078.895-5.2 5.21-8.302 11.543-8.302 1.766 0 4.3.163 6.345.947.577.19.866.562 1 .84.212.428.22.946.025 1.534-.22.668-.737 2.238-2.288 2.238zm-22.84 5.175c-.634 3.67-3.466 6.134-7.05 6.134h-12.45c-.486 3.225-.53 5.662.634 7.07.85 1.03 2.377 1.533 4.66 1.533 2.698 0 5.42-1.087 7.76-2.107l.034-.013c.36-.135.715-.203 1.058-.203 1.42 0 1.777 1.118 2.088 2.105.416 1.295-1.002 2.092-1.468 2.353-2.736 1.437-6.933 2.472-9.998 2.472-3.325 0-6.003-.975-7.745-2.82-1.566-1.657-2.316-3.91-2.228-6.696.06-1.902.387-3.806.706-5.65.318-1.852.647-3.758 1.237-5.658 1.813-5.797 6.647-9.256 12.936-9.256 3.326 0 6.004.982 7.746 2.843 1.555 1.662 2.288 3.91 2.178 6.68-.013.4-.03.805-.098 1.21zm-5.592-4.306c-.958-1.173-2.65-1.82-4.76-1.82-5.36 0-7.22 2.79-8.326 7.653h12.154c.666 0 1.465-.204 1.742-1.796.286-1.67.014-3.03-.81-4.036zm-24.1.505c-.36 0-.71-.074-1.042-.222-2.188-1.088-4.224-2.103-6.753-2.103-6.556 0-7.766 4.183-8.864 10.563-.647 3.756-1.065 7.006.358 8.745.855 1.045 2.38 1.554 4.653 1.554 2.543 0 4.954-1.024 7.506-2.11l.03-.01c.36-.135.715-.203 1.058-.203 1.33 0 1.62 1.005 1.856 1.814l.1.34c.184.61.1 1.5-1.34 2.307-2.776 1.457-6.774 2.47-9.736 2.47-3.337 0-6.015-.97-7.75-2.806-1.563-1.654-2.31-3.913-2.222-6.71.06-1.902.387-3.806.706-5.65.318-1.852.647-3.758 1.237-5.658 1.814-5.797 6.648-9.256 12.937-9.256 3.03 0 6.718 1.027 8.965 2.5.446.306 1.102.99.65 2.255-.374 1.053-.893 2.18-2.346 2.18zm-28.505 13.888c-1.812 5.797-6.627 9.257-12.884 9.257-3.337 0-6.018-.97-7.752-2.806-1.563-1.657-2.31-3.913-2.222-6.71.064-1.902.39-3.806.708-5.65.326-1.887.65-3.776 1.235-5.658 1.842-5.883 6.556-9.256 12.938-9.256 3.308 0 5.968.967 7.698 2.798 1.564 1.656 2.312 3.916 2.223 6.717-.06 1.908-.39 3.814-.705 5.658-.32 1.844-.647 3.75-1.238 5.65zm-3.888-14.673c-.848-1.035-2.357-1.54-4.615-1.54-6.56 0-7.77 4.183-8.865 10.563-.647 3.763-1.068 7.02.348 8.747.853 1.045 2.38 1.552 4.662 1.552 6.51 0 7.718-4.184 8.813-10.565.65-3.77 1.07-7.03-.343-8.757zm-22.95-.59a2 2 0 0 1-1.006-.25c-.975-.328-2.15-.7-3.42-.7-6.38 0-7.532 4.012-8.666 10.616l-2.26 13.026c-.28 1.618-1.883 1.618-2.655 1.618-.583 0-1.382 0-1.85-.573-.276-.336-.367-.778-.274-1.315l2.32-13.392c.303-1.753.61-3.547 1.185-5.338 1.837-5.876 6.475-9.25 12.728-9.25 1.587 0 3.944.27 5.373 1.03.943.445 1.308 1.337.95 2.334-.367 1.022-.975 2.195-2.425 2.195zm-25.702 15.263v.002c-1.813 5.795-6.627 9.255-12.885 9.255-2.457 0-4.535-.475-6.777-1.568l-1.55 9.016c-.28 1.622-2.007 1.622-2.656 1.622-.66 0-1.4-.045-1.848-.595-.188-.23-.39-.643-.28-1.293l3.943-22.935c.287-1.663.583-3.38 1.142-5.082 1.807-5.785 6.643-9.244 12.933-9.244 3.295 0 5.953.972 7.688 2.808 1.57 1.66 2.32 3.916 2.233 6.707-.062 1.908-.39 3.814-.706 5.658-.318 1.844-.647 3.75-1.237 5.65zm-3.888-14.673c-.848-1.035-2.357-1.54-4.616-1.54-6.56 0-7.764 4.163-8.854 10.51l-1.5 8.702c2.026 1.068 4.315 1.65 6.5 1.65 6.507 0 7.715-4.184 8.813-10.565.65-3.77 1.07-7.03-.343-8.757zm-25.49-.33h-11.018l-2.06 11.625c-.633 3.663-.468 5.325.53 6.543.818.997 2.323 1.485 4.567 1.485 1.133 0 2.307-.22 3.623-.696.248-.118.686-.2 1.02-.2.876 0 1.612.486 1.854 1.406.233.86-.108 1.962-.108 2.484v.003c-2.51 1.565-6.202 1.612-6.667 1.612-3.558 0-6.615-1.078-8.306-3.122-2.344-2.78-1.93-6.557-1.306-10.192l4.044-23.508c.28-1.62 2.007-1.6 2.656-1.6.66 0 1.4.082 1.847.632.19.23.392.72.282 1.367l-1.185 7.017h10.753c.68 0 1.066.36 1.272.61.358.437.463 1.113.32 1.945-.325 1.89-1.467 2.59-2.118 2.59zM175.31 97.7c-.633 3.67-3.465 6.134-7.047 6.134h-12.45c-.488 3.225-.532 5.662.634 7.07.85 1.03 2.374 1.533 4.66 1.533 2.7 0 5.42-1.087 7.756-2.107l.037-.015c.36-.133.718-.2 1.06-.2 1.412 0 1.77 1.114 2.086 2.097.412 1.306-1.005 2.1-1.47 2.36-2.737 1.438-6.934 2.473-10 2.473-3.323 0-6-.975-7.743-2.82-1.566-1.657-2.315-3.91-2.227-6.696.064-1.92.39-3.822.706-5.658.318-1.844.646-3.75 1.237-5.65 1.812-5.797 6.648-9.256 12.937-9.256 3.323 0 6 .982 7.742 2.843 1.555 1.662 2.288 3.908 2.177 6.68-.012.4-.03.805-.098 1.21zm-5.59-4.306c-.96-1.173-2.653-1.82-4.762-1.82-5.358 0-7.218 2.79-8.323 7.653h12.155c.615 0 1.463-.186 1.737-1.794.29-1.673.017-3.032-.808-4.04zm-26.523 19.842c-.617 3.593-1.485 7.323-4.638 10.026-2.412 2.015-5.408 3.032-8.91 3.032-3.253 0-6.977-1.005-9.272-2.5-.294-.2-.963-.735-1.11-1.544-.08-.443.015-.877.274-1.257.507-.743 1.352-1.755 2.583-1.63.286.018.63.06.99.22 2.104 1.07 4.346 2.104 7.063 2.104 5.297 0 7.04-2.68 8.038-7.654-6.46 2.504-11.61 1.572-14.394-1.377-1.59-1.686-2.347-3.996-2.254-6.87.06-1.425.23-2.89.554-4.76.21-1.24.524-2.894 1.06-4.64 1.836-5.9 6.682-9.42 12.966-9.42 3.553 0 6.25 1.047 8.012 3.117l.015.018c2.278 2.837 1.87 6.565 1.256 10.137l-2.233 13zm-3.043-20.19c-.808-.988-2.293-1.47-4.535-1.47-5.893 0-7.66 3.564-8.718 9.718-.544 3.16-.857 6.315.52 7.996.86 1.05 2.37 1.562 4.618 1.562 2.134 0 4.618-.607 7.03-1.715l1.606-9.325c.612-3.55.456-5.574-.522-6.767zm-23.662-.52a2 2 0 0 1-1.004-.252c-.976-.327-2.15-.7-3.42-.7-6.38 0-7.532 4.013-8.666 10.617l-2.262 13.026c-.28 1.618-1.882 1.618-2.653 1.618-.583 0-1.382 0-1.85-.573-.277-.336-.368-.778-.274-1.315l2.322-13.392c.282-1.653.603-3.53 1.18-5.338 1.84-5.876 6.476-9.25 12.73-9.25 1.28 0 3.845.217 5.372 1.03.943.445 1.308 1.337.95 2.334-.367 1.022-.975 2.195-2.425 2.195zM91.967 103.99c-.62 3.594-1.484 7.327-4.635 10.023-2.41 2.014-5.405 3.032-8.91 3.032-3.94 0-6.937-1.118-8.67-3.236-1.452-1.777-1.937-4.138-1.442-7.022 1.093-6.35 5.95-9.993 13.328-9.993 2.318 0 4.567.365 6.56.754.178-2.12-.12-3.6-.905-4.525-.833-.975-2.3-1.45-4.49-1.45-2.363 0-4.497.417-7.177 1.086-1.255.332-1.696-.087-1.965-.422-.364-.442-.475-1.095-.33-1.94.137-.8.31-1.8 1.445-2.14 2.294-.81 5.023-1.192 8.554-1.192 3.55 0 6.248 1.047 8.01 3.117l.01.01c2.296 2.786 1.877 6.567 1.254 10.196l-.637 3.7zM81.1 101.455c-4.872 0-7.344 1.728-8.008 5.6-.276 1.607-.06 2.855.637 3.71.908 1.11 2.662 1.672 5.218 1.672 5.664 0 7.267-3.062 8.237-8.713l.29-1.68a35.57 35.57 0 0 0-6.374-.59zm-17.205-8.67H52.877l-2.07 11.625c-.63 3.663-.474 5.325.523 6.543.818.997 2.307 1.485 4.55 1.485 1.133 0 2.275-.22 3.59-.696.248-.118.62-.2.953-.2.877 0 1.48.486 1.723 1.406.232.86-.373 1.962-.373 2.484v.003c-2.51 1.565-5.936 1.612-6.402 1.612-3.553 0-6.347-1.078-8.04-3.122-2.344-2.78-1.93-6.557-1.305-10.192l4.042-23.508c.284-1.62 2.007-1.6 2.656-1.6.66 0 1.4.082 1.847.632.19.23.392.72.282 1.367l-1.18 7.017h10.75c.678 0 1.066.36 1.27.61.36.437.464 1.113.322 1.945-.326 1.89-1.467 2.59-2.12 2.59z" class="cls-2"/><path d="M437.046 75.194a3.263 3.263 0 0 1-3.217-3.83l1.217-6.91c.314-1.775 2.016-2.97 3.778-2.648a3.265 3.265 0 0 1 2.647 3.782l-1.218 6.91a3.264 3.264 0 0 1-3.208 2.696z" class="cls-3"/><path d="M422.366 63.714a3.268 3.268 0 0 1-1.115-6.335l6.588-2.4a3.265 3.265 0 0 1 2.23 6.137l-6.587 2.398c-.366.135-.744.2-1.114.2z" class="cls-4"/><path d="M426.152 79.658a3.25 3.25 0 0 1-2.095-.763l-5.37-4.507a3.272 3.272 0 0 1-.4-4.602 3.267 3.267 0 0 1 4.596-.402l5.37 4.508a3.268 3.268 0 0 1-2.1 5.766z" class="cls-5"/><path d="M425.096 91.465a3.268 3.268 0 0 1-1.103-6.34l20.01-7.198c1.678-.614 3.56.27 4.173 1.97a3.267 3.267 0 0 1-1.968 4.176l-20.01 7.198c-.362.13-.734.195-1.102.195z" class="cls-6"/><path d="M448.754 63.54a3.25 3.25 0 0 1-2.095-.763l-16.107-13.53a3.268 3.268 0 0 1-.402-4.6 3.27 3.27 0 0 1 4.598-.402l16.106 13.53a3.265 3.265 0 1 1-2.1 5.765z" class="cls-7"/><path d="M409.245 78.14a3.26 3.26 0 0 1-3.217-3.826l3.65-20.93a3.251 3.251 0 0 1 3.774-2.654 3.26 3.26 0 0 1 2.65 3.777l-3.65 20.93a3.262 3.262 0 0 1-3.207 2.703z" class="cls-8"/></svg>