<svg xmlns="http://www.w3.org/2000/svg" width="500" height="200" viewBox="0, 0, 500, 200"><g fill="#0D1419"><path d="M54.933 123.814c0 2.172-1.77 3.93-3.94 3.93a3.937 3.937 0 0 1-3.942-3.93c0-2.17 1.77-3.94 3.942-3.94s3.94 1.77 3.94 3.94"/><path d="M47.05 131.683c-6.5 0-11.796-5.294-11.796-11.81 0-6.514 5.295-11.81 11.797-11.81 6.516 0 11.81 5.296 11.81 11.81 0 6.516-5.294 11.81-11.81 11.81m0-29.524c-9.77 0-17.7 7.93-17.7 17.714 0 9.784 7.93 17.714 17.7 17.714 9.786 0 17.716-7.93 17.716-17.714 0-9.785-7.93-17.715-17.715-17.715m38.82 39.407a3.165 3.165 0 0 1-1.27 4.27c-.23.11-5.526 2.928-13.64 2.928-8.124 0-13.358-2.818-13.577-2.94a3.153 3.153 0 0 1-1.245-4.282 3.142 3.142 0 0 1 4.258-1.243c.11.048 4.197 2.17 10.565 2.17 6.43 0 10.59-2.158 10.64-2.17a3.143 3.143 0 0 1 4.27 1.268m16.932-17.752a3.925 3.925 0 0 1-3.928 3.93 3.937 3.937 0 0 1-3.94-3.93c0-2.17 1.768-3.94 3.94-3.94a3.936 3.936 0 0 1 3.928 3.94"/><path d="M94.936 131.683c-6.502 0-11.81-5.294-11.81-11.81 0-6.514 5.308-11.81 11.81-11.81 6.515 0 11.81 5.296 11.81 11.81 0 6.516-5.295 11.81-11.81 11.81m0-29.524c-9.784 0-17.714 7.93-17.714 17.714 0 9.784 7.93 17.714 17.714 17.714 9.785 0 17.715-7.93 17.715-17.714 0-9.785-7.93-17.715-17.714-17.715"/><path d="M71 153.13c-26.45 0-53.13-9.783-53.13-24.765 0-17.275.487-34.88 1.805-41.883 1.22-6.54 29.194-11.37 47.506-11.992V61.948a7.867 7.867 0 0 1 3.15-15.08c4.354 0 7.88 3.527 7.88 7.87a7.86 7.86 0 0 1-4.733 7.21v12.505c18.25.427 47.592 5.332 48.848 12.03 1.306 7.002 1.806 24.607 1.806 41.882 0 14.982-26.693 24.766-53.13 24.766m59.06-68.1c-1.318-7.05-8.967-11.516-25.583-14.92-7.137-1.464-15.458-2.574-23.12-3.148v-.976a15.773 15.773 0 0 0 4.722-11.248C86.08 46.064 79.014 39 70.33 39c-8.675 0-15.74 7.064-15.74 15.738 0 4.307 1.758 8.333 4.722 11.248v1.086c-7.295.598-15.067 1.66-21.79 3.038-16.615 3.404-24.277 7.87-25.594 14.92C10.244 94.035 10 116.044 10 128.366 10 149.555 41.427 161 71 161s61-11.444 61-32.635c0-12.322-.256-34.33-1.94-43.334"/><path d="M54.933 123.814c0 2.172-1.77 3.93-3.94 3.93a3.937 3.937 0 0 1-3.942-3.93c0-2.17 1.77-3.94 3.942-3.94s3.94 1.77 3.94 3.94"/><path d="M47.05 131.683c-6.5 0-11.796-5.294-11.796-11.81 0-6.514 5.295-11.81 11.797-11.81 6.516 0 11.81 5.296 11.81 11.81 0 6.516-5.294 11.81-11.81 11.81m0-29.524c-9.77 0-17.7 7.93-17.7 17.714 0 9.784 7.93 17.714 17.7 17.714 9.786 0 17.716-7.93 17.716-17.714 0-9.785-7.93-17.715-17.715-17.715m38.82 39.407a3.165 3.165 0 0 1-1.27 4.27c-.23.11-5.526 2.928-13.64 2.928-8.124 0-13.358-2.818-13.577-2.94a3.153 3.153 0 0 1-1.245-4.282 3.142 3.142 0 0 1 4.258-1.243c.11.048 4.197 2.17 10.565 2.17 6.43 0 10.59-2.158 10.64-2.17a3.143 3.143 0 0 1 4.27 1.268m16.932-17.752a3.925 3.925 0 0 1-3.928 3.93 3.937 3.937 0 0 1-3.94-3.93c0-2.17 1.768-3.94 3.94-3.94a3.936 3.936 0 0 1 3.928 3.94"/><path d="M94.936 131.683c-6.502 0-11.81-5.294-11.81-11.81 0-6.514 5.308-11.81 11.81-11.81 6.515 0 11.81 5.296 11.81 11.81 0 6.516-5.295 11.81-11.81 11.81m0-29.524c-9.784 0-17.714 7.93-17.714 17.714 0 9.784 7.93 17.714 17.714 17.714 9.785 0 17.715-7.93 17.715-17.714 0-9.785-7.93-17.715-17.714-17.715M47.05 131.683c-6.5 0-11.796-5.294-11.796-11.81 0-6.514 5.295-11.81 11.797-11.81 6.516 0 11.81 5.296 11.81 11.81 0 6.516-5.294 11.81-11.81 11.81m0-29.524c-9.77 0-17.7 7.93-17.7 17.714 0 9.784 7.93 17.714 17.7 17.714 9.786 0 17.716-7.93 17.716-17.714 0-9.785-7.93-17.715-17.715-17.715"/><path d="M54.933 123.814c0 2.172-1.77 3.93-3.94 3.93a3.937 3.937 0 0 1-3.942-3.93c0-2.17 1.77-3.94 3.942-3.94s3.94 1.77 3.94 3.94m40.003 7.869c-6.502 0-11.81-5.294-11.81-11.81 0-6.514 5.308-11.81 11.81-11.81 6.515 0 11.81 5.296 11.81 11.81 0 6.516-5.295 11.81-11.81 11.81m0-29.524c-9.784 0-17.714 7.93-17.714 17.714 0 9.784 7.93 17.714 17.714 17.714 9.785 0 17.715-7.93 17.715-17.714 0-9.785-7.93-17.715-17.714-17.715"/><path d="M102.805 123.814a3.925 3.925 0 0 1-3.928 3.93 3.937 3.937 0 0 1-3.94-3.93c0-2.17 1.768-3.94 3.94-3.94a3.936 3.936 0 0 1 3.928 3.94m-18.202 22.021c-.232.11-5.527 2.928-13.64 2.928-8.125 0-13.36-2.818-13.578-2.94a3.153 3.153 0 0 1-1.245-4.282 3.142 3.142 0 0 1 4.258-1.243c.11.048 4.197 2.17 10.565 2.17 6.43 0 10.59-2.158 10.64-2.17a3.143 3.143 0 0 1 4.27 1.268 3.165 3.165 0 0 1-1.27 4.27m101.219-54.649h-14.358v36.374h-7.178V91.188h-14.358v-6.7h35.894v6.7zm20.936 9.573h-9.572c-1.615 0-2.392.956-2.392 2.872v23.93h-7.18v-23.93c0-6.52 3.05-9.572 9.572-9.572h9.572v6.7zm28.115 10.768l-14.357 3.59c-2.154.537-2.394 1.256-2.394 2.87 0 1.915.78 2.872 2.394 2.872h11.965c1.615 0 2.393-.957 2.393-2.87v-6.462zm7.178-7.896v14.357c0 6.52-3.05 9.57-9.57 9.57h-11.964c-6.52 0-9.572-3.05-9.572-9.57 0-2.873.958-4.847 3.05-6.044 2.154-1.256 3.41-1.674 6.522-2.452l14.357-3.59v-2.272c0-1.915-.778-2.872-2.392-2.872h-11.964c-1.615 0-2.394.957-2.394 2.872v2.392h-7.178v-2.392c0-6.522 3.05-9.572 9.572-9.572h11.965c6.52 0 9.57 3.05 9.57 9.572m30.805-.001c0-1.913-.778-2.87-2.392-2.87H258.5c-1.614 0-2.392.957-2.392 2.87v23.93h-7.18v-23.93c0-6.52 3.052-9.57 9.572-9.57h11.966c6.52 0 9.57 3.05 9.57 9.57v23.93h-7.178v-23.93zm35.292 23.93h-11.963c-6.52 0-9.572-3.05-9.572-9.57v-2.394h7.178v2.393c0 1.914.78 2.87 2.394 2.87h11.964c1.617 0 2.394-.956 2.394-2.87 0-1.378 0-2.036-2.393-2.873l-11.963-2.99c-3.11-.778-4.368-1.198-6.52-2.393-2.095-1.257-3.052-3.232-3.052-6.103 0-6.52 3.05-9.57 9.572-9.57h11.964c6.522 0 9.572 3.05 9.572 9.57v2.395h-7.178v-2.394c0-1.913-.777-2.87-2.393-2.87h-11.963c-1.615 0-2.394.957-2.394 2.87 0 1.377 0 2.035 2.394 2.872l11.964 2.993c3.112.777 4.368 1.195 6.462 2.452 2.154 1.195 3.11 3.17 3.11 6.042 0 6.52-3.05 9.57-9.57 9.57m24.52-6.7h5.98v6.7h-5.98c-5.983 0-8.376-2.392-8.376-8.375V84.488h7.18v34.697c0 1.197.18 1.675 1.197 1.675m34.395-17.23c0-1.913-.778-2.87-2.392-2.87h-11.965c-1.614 0-2.393.957-2.393 2.87v14.36c0 1.913.78 2.87 2.393 2.87h11.966c1.615 0 2.393-.957 2.393-2.87v-14.36zm7.178 0v14.36c0 6.52-2.93 9.57-9.57 9.57h-11.965c-6.64 0-9.57-3.05-9.57-9.57v-14.36c0-6.52 2.93-9.57 9.57-9.57h11.966c6.64 0 9.57 3.05 9.57 9.57m30.208 7.898l-14.358 3.59c-2.154.537-2.393 1.256-2.393 2.87 0 1.915.777 2.872 2.392 2.872h11.965c1.614 0 2.392-.957 2.392-2.87v-6.462zm7.178-7.896v14.357c0 6.52-3.052 9.57-9.57 9.57H390.1c-6.52 0-9.572-3.05-9.572-9.57 0-2.873.958-4.847 3.05-6.044 2.155-1.256 3.41-1.674 6.522-2.452l14.357-3.59v-2.272c0-1.915-.78-2.872-2.393-2.872h-11.965c-1.615 0-2.393.957-2.393 2.872v2.392h-7.18v-2.392c0-6.522 3.05-9.572 9.572-9.572h11.965c6.52 0 9.57 3.05 9.57 9.572m30.512 14.359v-17.23h-14.357c-1.615 0-2.393.957-2.393 2.87v14.36c0 1.913.778 2.87 2.393 2.87h11.965c1.614 0 2.392-.957 2.392-2.87m7.18-33.502v33.5c0 6.522-2.932 9.572-9.572 9.572h-11.965c-6.64 0-9.572-3.05-9.572-9.57v-14.36c0-6.52 2.932-9.57 9.572-9.57h14.357v-9.572h7.18zm15.72-9.926c-2.742-2.83-7.162-2.83-9.99 0-2.742 2.74-2.742 7.16 0 9.99.443.43.936.768 1.446 1.063v41.945h7.18V85.59c.482-.29.947-.62 1.365-1.04 2.827-2.827 2.827-7.248 0-9.988M490 120.86v6.7h-10.768c-5.983 0-8.375-2.392-8.375-8.375V84.488h7.178v9.57h10.768v6.7h-10.768v18.427c0 1.197.18 1.675 1.197 1.675H490z"/></g></svg>