<svg width="500" height="500" viewBox="0 0 500 500" xmlns="http://www.w3.org/2000/svg"><title>Page 1</title><g fill="none" fill-rule="evenodd"><path d="M500 250c0 138.07-111.93 250-250 250S0 388.07 0 250 111.93 0 250 0s250 111.93 250 250z" fill="#48C3CB"/><path d="M367.54 294.304c-24.864.452-44.303-20.796-44.755-44.756-.452-24.865 20.796-44.304 44.756-44.756 24.865-.452 44.305 20.795 44.756 44.756-.45 24.412-20.343 44.304-44.755 44.756m9.946-108.95c-20.795-3.166-40.687 4.068-54.7 17.63v-14.92c0-12.657-19.893-12.657-19.893 0v162.751c0 12.658 19.892 12.658 19.892 0v-55.606c4.972 4.973 10.85 9.042 17.178 12.206 29.386 14.014 63.744 3.165 81.827-23.508 6.78-10.398 9.946-23.056 10.398-35.262v-1.356c-1.356-30.29-23.96-56.962-54.702-61.935M167.72 186.257c-6.328 1.81-12.205 4.52-17.178 8.59v-6.78c0-12.66-19.89-12.66-19.89 0V311.03c0 12.66 19.89 12.66 19.89 0v-75.948c.453-14.015 9.042-25.77 22.604-29.385 12.206-3.165 25.317.904 32.098 13.562 5.877 11.3 23.056 1.355 17.18-9.947-11.303-21.248-31.647-28.48-54.703-23.056M112.568 178.12H87.704V150.54c0-12.658-19.892-12.658-19.892 0v160.49c0 12.657 19.892 12.657 19.892 0V198.46h24.864c13.11-.45 13.11-20.343 0-20.343M232.37 188.517v122.966c0 12.658 19.89 12.658 19.89 0V188.517c0-12.658-19.89-12.658-19.89 0M242.315 139.693c5.492 0 9.945 4.452 9.945 9.945s-4.453 9.946-9.945 9.946c-5.493 0-9.946-4.453-9.946-9.946 0-5.493 4.452-9.945 9.945-9.945M267.18 188.065V311.03c0 12.66 19.89 12.66 19.89 0V188.066c0-12.658-19.89-12.658-19.89 0M277.125 139.24c5.493 0 9.945 4.453 9.945 9.946 0 5.493-4.452 9.946-9.945 9.946s-9.946-4.453-9.946-9.946c0-5.493 4.452-9.945 9.945-9.945" fill="#FFF"/><circle stroke="#FFF" fill="#FFF" cx="335.08" cy="357.42" r="3.165"/><path d="M359.142 333.41s2.456 0 4.293 1.262c1.837 1.26 2.75 3.03 3.2 4.388.906-1.81 2.262-3.165 3.618-4.07 1.356-.903 3.166-1.355 5.425-1.355 3.165 0 5.425.904 7.233 2.712 1.81 1.81 2.262 4.52 2.262 7.685v15.37h-3.617V345.39c0-2.713-.452-4.974-1.356-6.33-.905-1.357-2.714-2.26-4.974-2.26-1.356 0-4.556.98-5.6 3.407-1.045 2.426-1.832 4.174-1.832 6.44l-.253 13.66h-3.616V345.39c0-2.262-.904-4.974-1.356-5.878-.452-.904-.904-1.356-1.808-1.81-.905-.45-1.746-.596-3.102-.596-.905 0-1.87.146-2.775.597-.905.453-1.827 1.15-2.26 1.81-.435.658-1.358 1.808-1.81 3.164-.45 1.355-.45 2.712-.45 4.52v13.11h-3.618v-25.316h3.617v4.522c.904-2.26 1.808-3.165 3.616-4.52 1.356-.905 3.25-1.58 5.164-1.58zM414.105 345.39c0-2.262-.905-4.522-2.26-5.878-1.357-1.356-3.617-2.26-5.878-2.26-1.356 0-2.26 0-3.616.904-.903.452-1.807.904-2.712 1.808-.904.904-1.356 1.808-1.808 2.712-.452.904-.904 1.81-.904 3.165h17.18v-.45zm3.617-.128c.148 1.448 0 2.84 0 2.84h-20.764c0 1.356.546 6.448 4.567 7.992 4.02 1.544 7.482.457 8.84-.447 1.355-.904 2.384-1.67 3.288-3.025l2.956 2.37c-1.357 1.808-2.957 3.277-5.05 4.38-2.093 1.106-3.705 1.527-5.965 1.527-1.808 0-3.276-.11-5.282-.932-2.005-.822-4.078-2.654-4.795-3.73-4.443-6.66-2.904-17.67 4.05-21.165 6.954-3.496 12.8-.793 15.4 2.205 1.662 1.915 2.492 5.428 2.754 7.984z" fill="#FFF"/></g></svg>