<?xml version="1.0"?>
<svg width="500" height="200" xmlns="http://www.w3.org/2000/svg">

 <g>
  <title>background</title>
  <rect fill="none" id="canvas_background" height="202" width="502" y="-1" x="-1"/>
 </g>
 <g>
  <title>Layer 1</title>
  <g stroke="null" id="svg_1">
   <g stroke="null" id="svg_2">
    <path stroke="null" id="svg_3" d="m42.25071,73.904259l0,13.737053l-9.440285,0l0,-4.222786l-5.370958,0l0,33.160194l4.146049,0l0,9.514282l-20.415127,0l0,-9.514282l4.143312,0l0,-33.160194l-5.370959,0l0,4.222786l-9.519753,0l0,-13.737053l41.827721,0z"/>
    <path stroke="null" id="svg_4" d="m77.468857,73.904259c11.205032,0 17.880363,5.910797 17.880363,16.578728c0,6.908257 -3.37603,12.435417 -9.13063,14.504333l9.13063,11.5914l3.299309,0l0,9.514282l-21.182411,0l0,-9.514282l2.455299,0l-7.138443,-9.596474l-5.757339,0l0,9.596474l4.143311,0l0,9.514282l-20.489117,0l0,-9.514282l4.146053,0l0,-33.160194l-4.146053,0l0,-9.514267l26.789028,0zm-10.440483,23.637703l8.982651,0c3.756935,0 6.828796,-2.071655 6.828796,-7.061714c0,-4.98732 -2.992393,-7.061722 -6.680817,-7.061722l-9.13063,0l0,14.123436z"/>
    <path stroke="null" id="svg_5" d="m152.782867,73.904259l0,9.517014l-4.066574,0l0,24.254265c0,13.734314 -8.675751,19.187485 -21.031693,19.187485c-12.358696,0 -21.028961,-5.450432 -21.028961,-19.187485l0,-24.257011l-4.143303,0l0,-9.514267l20.491852,0l0,9.517014l-4.146049,0l0,24.254265c0,5.447693 1.994926,9.667725 8.903191,9.667725c6.678062,0 8.749718,-4.220032 8.749718,-9.667725l0,-24.257011l-4.146057,0l0,-9.514267l20.417877,0z"/>
    <path stroke="null" id="svg_6" d="m211.86618,73.904259l0,9.517014l-4.069336,0l0,42.674469l-12.509399,0l-18.957291,-30.16507l-0.153458,0l0,20.648048l4.452957,0l0,9.514282l-19.8013,0l0,-9.514282l4.146042,0l0,-33.160194l-4.146042,0l0,-9.514267l16.041626,0l19.571121,31.850342l0.153442,0l0,-22.336075l-4.450226,0l0,-9.514267l19.721863,0z"/>
    <path stroke="null" id="svg_7" d="m240.984451,73.904259l0,9.517014l-4.143311,0l0,14.890709l14.271408,-14.890709l-3.22258,0l0,-9.517014l22.105881,0l0,9.517014l-4.2995,0l-13.049255,12.893044l14.430359,20.267151l3.680176,0l0,9.514275l-22.790939,0l0,-9.514275l3.682953,0l-8.212646,-11.744865l-6.598602,6.368431l0,5.376434l4.143311,0l0,9.514275l-20.491867,0l0,-9.514275l4.140579,0l0,-33.162941l-4.140579,0l0,-9.514267l20.494614,0z"/>
    <path stroke="null" id="svg_8" d="m343.082031,110.818649l0,13.04924c-7.365936,2.225113 -12.816376,2.992386 -19.1875,2.992386c-18.573639,0 -23.717163,-12.281952 -23.717163,-27.243919c0,-14.890709 5.143524,-26.479378 23.717163,-26.479378c6.371124,0 11.818848,0.767281 19.1875,2.992393l0,13.046501l-9.514282,0l0,-5.680618c-3.68573,-0.690552 -6.06427,-0.844002 -8.673035,-0.844002c-8.522278,0 -11.821564,6.982246 -11.821564,16.962364c0,10.744659 3.299286,17.724167 11.821564,17.724167c2.608765,0 4.987305,-0.076729 8.673035,-0.841263l0,-5.680618l9.514282,0l0,0.002747z"/>
    <path stroke="null" id="svg_9" d="m392.766083,112.355949l0,13.737053l-40.136932,0l0,-9.514282l4.14328,0l0,-33.160194l-4.14328,0l0,-9.514267l20.491821,0l0,9.517014l-4.146057,0l0,33.160194l14.276917,0l0,-4.222778l9.514252,0l0,-0.002739z"/>
    <path stroke="null" id="svg_10" d="m445.749573,73.904259l0,9.517014l-4.069336,0l0,24.254265c0,13.734314 -8.670258,19.187485 -21.026215,19.187485c-12.361481,0 -21.028961,-5.450432 -21.028961,-19.187485l0,-24.257011l-4.146027,0l0,-9.514267l20.491852,0l0,9.517014l-4.143311,0l0,24.254265c0,5.447693 1.994904,9.667725 8.903168,9.667725c6.67804,0 8.747009,-4.220032 8.747009,-9.667725l0,-24.257011l-4.143341,0l0,-9.514267l20.415161,0z"/>
    <path stroke="null" id="svg_11" d="m490.44635,99.076523c5.29425,1.688011 9.130676,5.757339 9.130676,12.586128c0,9.056648 -5.984802,14.430351 -17.192566,14.430351l-28.244141,0l0,-9.514282l4.146057,0l0,-33.160194l-4.146057,0l0,-9.514267l26.709595,0c11.205017,0 17.195282,4.759872 17.195282,13.353409c0,5.524414 -3.071838,9.823929 -7.598846,11.668137l0,0.150719zm-10.977631,-15.657997l-8.979889,0l0,11.131042l8.979889,0c3.759705,0 5.677856,-2.225113 5.677856,-5.601143c0.002838,-3.225311 -1.915436,-5.5299 -5.677856,-5.5299zm-8.977142,20.648056l0,12.512138l9.900635,0c3.682983,0 6.294434,-1.920929 6.294434,-6.297165c0,-4.222786 -2.608765,-6.214973 -6.521881,-6.214973l-9.673187,0z"/>
   </g>
  </g>
 </g>
</svg>