<svg id="Calque_1" data-name="Calque 1" xmlns="http://www.w3.org/2000/svg" viewBox="0 0 470.98 94.73"><title>logo-umanlife</title><path d="M266.32,98.35v44.41h-5V98.35c0-10-2.78-18-13.23-18-6.46,0-12,2.81-15.91,5.34a43.42,43.42,0,0,1,1.69,12.65v44.41h-5V98.35c0-10-2.79-18-13.43-18a28.47,28.47,0,0,0-14,4.22v58.18h-5V80.51C200,78,207.45,73.34,216.1,73.34a14.86,14.86,0,0,1,13.23,7c4.18-3.09,10.94-7,19.09-7C259.66,73.34,266.32,81.77,266.32,98.35ZM314,102V122.8c0,18.55-13.43,20.94-19.49,20.94-6.27,0-20.09-2.81-20.09-21.23,0-21.23,18.6-22.06,23.07-22.06A40.66,40.66,0,0,1,309,101.86c0-14.33-5-21.51-15.91-21.51a35,35,0,0,0-13.72,3.09V76.7a33.55,33.55,0,0,1,14-3.24c14.32,0,20.59,10,20.59,28.54Zm-4.87,6.18a55.31,55.31,0,0,0-12.23-1.27c-6.07,0-17.6,2-17.6,15.6,0,12.51,9.25,14.9,15.21,14.9s14.62-2.25,14.62-14.61Zm52.71-9.84v44.41h-5V98.35c0-10-3-18-14.22-18a32.38,32.38,0,0,0-15.32,4.36v58h-4.87V80.65c3.38-2.53,11.34-7.31,20.69-7.31,11.84,0,18.69,8.43,18.69,25Z" transform="translate(-14.51 -49.95)" style="fill:#4da4df;stroke:#4da4df"/><path d="M148.33,117.75V73.34h5v44.41c0,10,3,18,14.22,18a32.41,32.41,0,0,0,15.32-4.35v-58h4.87v62.12c-3.38,2.53-11.34,7.31-20.69,7.31C155.19,142.76,148.33,134.33,148.33,117.75Z" transform="translate(-14.51 -49.95)" style="fill:#2c3e50;stroke:#2c3e50"/><path d="M378.37,143.69V51.63h2.78v92.05Zm20.6-83h3V64.7h-3Zm.1,16.7h2.78v66.34h-2.78ZM425,68.92v8.43H440.1v3.38H425v63H422.3v-63h-7V77.35h7V69.06c0-18.83,9.34-19.11,12.72-19.11a16.61,16.61,0,0,1,5.57,1.13v3.51a14.88,14.88,0,0,0-5.17-1.13C431.95,53.46,425,53.74,425,68.92Zm60.51,41.32c-.1,1.69-.1,2.11-.1,2.39H447.08c0,1.27.05,1.95.11,3.09.7,18.69,9.54,25.16,19.7,25.16,5.74,0,11.37-1.54,15.29-4.35v4.07a31.26,31.26,0,0,1-15.49,4.08c-11.16,0-22.53-7.31-22.53-33.31,0-13.35,3.62-35,21.22-35,19.1,0,20.11,27.69,20.11,33.87Zm-38.41-1.13h35.5v-1.54c-.2-7.31-2.21-27.55-17.3-27.55C452.3,80,447.38,93.23,447.08,109.11Z" transform="translate(-14.51 -49.95)" style="fill:#2c3e50"/><path d="M99.38,70.34h0l0,0h0C95.54,66.82,81,74.39,72.41,92.57s-8,40.06-4.2,43.7h0v0h0c3.82,3.49,18.37-4.08,26.94-22.25S103.13,74,99.38,70.34Zm-6,42c-7.85,16.63-20.65,24-23.89,21.05h0l0,0h0c-3.19-3.09-3.27-22.65,4.58-39.26s20.64-24,23.89-21.06h0l0,0h0C101.14,76.2,101.22,95.74,93.38,112.35ZM60.59,92.5C52,74.33,37.46,66.75,33.65,70.24h0v0h0c-3.74,3.63-4.38,25.53,4.2,43.7s23.13,25.75,26.94,22.26h0l0,0v0C68.54,132.57,69.17,110.67,60.59,92.5Zm2.95,40.82h0l0,0h0c-3.24,3-16-4.43-23.9-21.06S31.85,76.13,35,73h0v0h0C38.31,70,51.11,77.43,59,94S66.72,130.22,63.54,133.31Z" transform="translate(-14.51 -49.95)" style="fill:#1abc9c"/><path d="M66.53,52.14h0c-4.54.09-13.67,18.68-13.67,41.6s9.12,41.49,13.67,41.59h0c4.54-.09,13.67-18.67,13.67-41.59S71.08,52.24,66.53,52.14Zm1.83,76.67-.53,4.49-1.5,1L65,129.4c-3.65-3.36-9-18-9-35.66,0-20.06,7-36.32,10.42-36.4h0c3.46.08,10.42,16.34,10.42,36.4C76.85,110.52,72,124.61,68.36,128.81Z" transform="translate(-14.51 -49.95)"/><path d="M118.29,105.32h0v0h0c-1.83-5.88-16.92-10.87-31.16-2.36s-22.23,27.27-20.52,33.23h0l0,0h0c1.83,5.88,16.93,10.87,31.16,2.36S120,111.28,118.29,105.32ZM96.46,134.18c-12.46,7.45-25.27,4.42-26.67-.06h0v0h0c-1.3-4.54,6.1-19.63,18.56-27.07s25.27-4.42,26.67.06h0v0h0C116.32,111.65,108.92,126.74,96.46,134.18Zm-50.55-31.1c-14.24-8.51-29.33-3.52-31.16,2.37h0v0h0C13,111.45,21,130.22,35.26,138.73s29.34,3.51,31.16-2.37h0v0h0C68.15,130.36,60.15,111.59,45.91,103.08Zm17.33,31.19v0h0c-1.39,4.48-14.2,7.5-26.67.06S16.71,111.84,18,107.29h0v0h0c1.4-4.48,14.21-7.5,26.67-.06S64.54,129.73,63.24,134.27Z" transform="translate(-14.51 -49.95)" style="fill:#4da4df"/><path d="M99.16,93.12a72.94,72.94,0,0,1-4.49,16.29l2.42.08a76.35,76.35,0,0,0,4.28-17.23ZM38.86,110.55A72,72,0,0,1,34.07,94.4l-2.23-.65a75.1,75.1,0,0,0,4.72,17.31Z" transform="translate(-14.51 -49.95)" style="fill:#1abc9c"/></svg>