<?xml version="1.0" encoding="utf-8"?>
<!-- Generator: Adobe Illustrator 19.1.0, SVG Export Plug-In . SVG Version: 6.00 Build 0)  -->
<!DOCTYPE svg PUBLIC "-//W3C//DTD SVG 1.1//EN" "http://www.w3.org/Graphics/SVG/1.1/DTD/svg11.dtd">
<svg version="1.1" id="Layer_1" xmlns="http://www.w3.org/2000/svg" xmlns:xlink="http://www.w3.org/1999/xlink" x="0px" y="0px"
	 viewBox="-516 171 583 280" style="enable-background:new -516 171 583 280;" xml:space="preserve">
<style type="text/css">
	.st0{fill:#00698F;}
</style>
<g>
	<g>
		<g>
			<path class="st0" d="M-347.5,229c120.4-52.7,219.4-63,286.3-42c52,16.4,43.5,48.5,22.2,70c-63.1,63.6-172.3,76.2-180.4,77
				c-10.4,1-7-2.2-3.9-2.9c44.3-10.6,114-21.6,156.4-67.9c52.4-57.1-68.7-102.7-273-31.3C-393.2,250.3-361.5,235.1-347.5,229"/>
			<path class="st0" d="M-69.2,240.2c1.1,1.4-2.3,8.4-10.6,15.7c-28.5,24.9-122.9,92.7-314.5,48c-6.6-1.5-8.2-5.4,1.9-4.2
				c63.6,7.5,210.8,20.1,307.6-48.1C-73,243.1-70.7,238.3-69.2,240.2"/>
			<path class="st0" d="M-297.8,335.8c3.1,4.9,7.8,9.4,20.6,10.9c7.1,0.8,11.9,1.2,24.6,1.9c5,0.3,7.4-2.1,9.1-4
				c3-3.5,4.1-5.1,6.3-9c0.9-1.7,1.2-2.5-1.6-2c-11.2,2.4-36.7,3.2-57.2,0.2C-298.5,333.6-299.3,333.5-297.8,335.8"/>
			<path class="st0" d="M-362.7,264.8c-0.4,2.7-1.4,6.7-5.8,7.6c-4.9,1.1-38.2,4.6-52.9,4.7c-6.8,0-4.6-0.7,0-1.8
				c4.6-1,53.5-12.1,56.2-12.7C-362.4,262-362.3,262.3-362.7,264.8"/>
			<path class="st0" d="M-424.5,429.7c4-2.2,6.9-6.3,6.9-11.3c0-7.2-5.6-12.9-13.1-12.9h-20.8c-2.1,0-2.1,0.1-2.1,2v37.1h10v-13.4
				h8.7l7.3,13.4h11.4L-424.5,429.7z M-432.7,423.4h-10.8v-9.9h10.8c2.7,0,5,2,5,4.9C-427.7,421.2-430.1,423.4-432.7,423.4"/>
			<path class="st0" d="M-326.5,444.6l-2.7-7.2h-14l-2.7,7.2h-9.8l14.4-38.3c0.7-1.3,1.3-1.3,5.2-1.3c4.1,0,4.6,0,5.3,1.6
				c0.7,1.6,14.2,38,14.2,38H-326.5z M-336.2,418.3l-4.3,11.6h8.6L-336.2,418.3z"/>
			<path class="st0" d="M-203.3,444.6l-2.7-7.2h-14.1l-2.7,7.2h-9.8l14.4-38.3c0.7-1.3,1.3-1.3,5.2-1.3c4.1,0,4.6,0,5.3,1.6
				c0.7,1.6,14.2,38,14.2,38H-203.3z M-213,418.3l-4.3,11.6h8.6L-213,418.3z"/>
			<rect x="-180.5" y="405.4" class="st0" width="10.1" height="39.1"/>
			<polygon class="st0" points="-29.3,444.6 -29.3,429.5 -45.6,429.5 -45.6,444.6 -55.6,444.6 -55.6,405.4 -45.6,405.4 -45.6,420.5 
				-29.3,420.5 -29.3,405.4 -19.2,405.4 -19.2,444.6 			"/>
			<rect x="-1" y="405.4" class="st0" width="10.1" height="39.1"/>
			<path class="st0" d="M-123.8,429.7c4-2.2,6.9-6.3,6.9-11.3c0-7.2-5.6-12.9-13.1-12.9h-20.8c-2.1,0-2.1,0.1-2.1,2v37.1h10v-13.4
				h8.7l7.3,13.4h11.4L-123.8,429.7z M-132,423.4h-10.8v-9.9h10.8c2.6,0,5,2,5,4.9C-127,421.2-129.3,423.4-132,423.4"/>
			<path class="st0" d="M48.5,405.4H29.4c-2.1,0-2.1,0.1-2.1,2v37.1h10.1V432h11.2c7.9,0,13.4-6.2,13.4-13.4
				C61.9,411.4,56.4,405.4,48.5,405.4 M46.7,423.9h-9.4v-10.4h9.4c2.7,0,5,2.2,5,5.1C51.7,421.5,49.4,423.9,46.7,423.9"/>
			<path class="st0" d="M-276.1,405.4v22.3c-8.2-9.6-13.1-15.1-18.2-21c-1.2-1.4-2.4-1.8-3.8-1.8h-3c-2.1,0-2.1,0.1-2.1,2v37.5h9.9
				v-21.7l18.2,20.4c1.1,1.2,2.5,1.7,3.9,1.6v0h3c2.1,0,2.1-0.1,2.1-2v-37.5H-276.1z"/>
			<path class="st0" d="M-373,423.5c2.6-2.4,3.8-4.8,3.8-7.6c0-6.6-5.4-10.5-14-10.5H-399c-2.1,0-2.1,0.1-2.1,2v35.1
				c0,1.9,0,2,2.1,2h18.5c7.5,0,13.7-4.8,13.7-11.9C-366.7,428.7-369.3,425.3-373,423.5 M-383.7,413.5c2.5,0,4.2,1.6,4.2,3.6
				c0,2.1-1.3,4-4.4,4h-7.1v-7.6H-383.7z M-381.3,436.5h-9.7v-7.8h9.6c2.4,0,4.5,1.4,4.5,3.9C-376.9,435.1-379,436.5-381.3,436.5"/>
			<path class="st0" d="M-86,445.2c-6.8,0-13.7-2.1-19.1-6.3l5.8-6.1c4.1,2.9,8.3,4.8,13.4,4.8c4.1,0,6.5-1.4,6.5-3.7v-0.1
				c0-2.2-1.5-3.3-9.1-5c-9.1-2-14.9-4.2-14.9-12v-0.1c0-7.1,6.6-11.8,15.8-11.8c6.6,0,12.2,1.8,16.7,5l-5.1,6.5
				c-4-2.4-7.9-3.9-11.7-3.9c-3.8,0-5.8,1.5-5.8,3.4v0.1c0,2.6,1.9,3.4,9.7,5.2c9.1,2.1,14.3,4.9,14.3,11.8v0.1
				C-69.5,440.9-76.3,445.2-86,445.2"/>
			<path class="st0" d="M-474.5,405.4h-7.5v13.9c0,10.3,0,12.4-2,14.3c-2.1,2.1-4.9,2.2-6.7,2.2c-5.2,0-9.2-3.9-9.2-9.4v-21.1h-10.1
				v22.5c0,10.7,8,17.4,18.7,17.4c3.9,0,6.9-1.1,9.3-2.9l2.5,2.3h7.5v-39.1H-474.5z"/>
		</g>
	</g>
</g>
</svg>
