<?xml version="1.0"?>
<svg width="500" height="200" xmlns="http://www.w3.org/2000/svg" preserveAspectRatio="xMinYMin none">

 <g>
  <title>background</title>
  <rect fill="none" id="canvas_background" height="202" width="502" y="-1" x="-1"/>
 </g>
 <g>
  <title>Layer 1</title>
  <g stroke="null" id="svg_1">
   <path stroke="null" id="svg_2" d="m111.902863,85.842873c-0.498497,10.86731 -8.082832,25.740433 -22.752998,44.619362c-15.165092,19.712128 -27.997929,29.575333 -38.49493,29.575333c-6.49831,0 -12.003181,-6.006943 -16.496811,-18.013687c-3.001682,-11.009735 -6.003368,-22.023041 -9.005054,-33.025665c-3.339954,-12.006737 -6.918476,-18.017235 -10.749811,-18.017235c-0.833207,0 -3.752997,1.758995 -8.752246,5.259186l-5.2485,-6.768929c5.504872,-4.835457 10.934967,-9.674469 16.279606,-14.520615c7.342203,-6.348755 12.850636,-9.68515 16.528854,-10.019859c8.681034,-0.833206 14.02211,5.102509 16.030357,17.807152c2.164917,13.712334 3.667538,22.24025 4.50787,25.57309c2.506748,11.376495 5.255619,17.059402 8.264431,17.059402c2.339397,0 5.843136,-3.692474 10.51836,-11.066711c4.671669,-7.377815 7.174858,-12.993065 7.50956,-16.849319c0.669418,-6.370125 -1.837334,-9.564095 -7.50956,-9.564095c-2.67054,0 -5.419411,0.616005 -8.253738,1.830208c5.483505,-17.960266 15.955574,-26.687592 31.416222,-26.189087c11.465508,0.338264 16.867111,7.776611 16.208389,22.31147z" fill="#172322"/>
   <path stroke="null" id="svg_3" d="m180.752914,121.026321c-4.675217,8.844833 -11.105881,16.85289 -19.288406,24.027725c-11.19133,9.678055 -22.37912,14.513504 -33.559784,14.513504c-5.184402,0 -9.151039,-1.669983 -11.903473,-5.006363c-2.752441,-3.339966 -4.048538,-7.666245 -3.881195,-13.007309c0.16024,-5.511993 1.87294,-14.02211 5.131004,-25.541039c3.254501,-11.508247 4.88887,-17.686096 4.88887,-18.519302c0,-4.336952 -1.506187,-6.508987 -4.507866,-6.508987c-1.004128,0 -3.842026,1.758995 -8.520805,5.259178l-5.761246,-6.768929c5.344635,-4.835457 10.685715,-9.674477 16.030357,-14.520615c7.181976,-6.348763 12.526611,-9.68515 16.037476,-10.019859c5.504868,-0.498505 9.556961,1.118065 12.145615,4.8675c2.585083,3.745872 3.546463,8.606255 2.884186,14.591827c-2.172043,10.155174 -4.514999,23.044968 -7.021744,38.683647c-0.163788,7.157043 2.42485,10.73201 7.769485,10.73201c2.335831,0 6.505432,-2.467575 12.526627,-7.416977c5.006363,-4.116196 9.09761,-7.986694 12.273788,-11.615067l4.757111,6.249054zm-21.791595,-89.074936c-0.167358,4.15892 -2.253937,8.146927 -6.266861,11.967579c-4.507874,4.315594 -9.852509,6.480507 -16.02681,6.480507c-9.514221,0 -14.111115,-4.151798 -13.776413,-12.458954c0.16024,-4.319153 2.706154,-8.478073 7.634186,-12.46608c4.928024,-3.984442 10.393738,-5.982006 16.411362,-5.982006c3.503738,0 6.427094,1.377998 8.766479,4.112629c2.335831,2.748875 3.42186,5.529797 3.258057,8.346325z" fill="#172322"/>
   <path stroke="null" id="svg_4" d="m337.175293,121.026321c-4.678802,8.844833 -11.098755,16.85289 -19.284851,24.027725c-11.198456,9.678055 -22.37912,14.513504 -33.563354,14.513504c-10.863739,0 -16.119354,-6.006943 -15.781097,-18.017242c0.160248,-5.344635 1.203552,-11.771744 3.122772,-19.281296c1.91922,-7.505989 2.962494,-13.345566 3.129883,-17.522285c0.174438,-6.334526 -1.751892,-9.517807 -5.779053,-9.517807c-4.354767,0 -9.549866,5.18441 -15.578156,15.53186c-6.366577,10.860176 -9.806213,21.374992 -10.304718,31.551521c-0.338272,7.192657 0.366745,12.704651 2.107941,16.539536c-11.650665,0.341827 -19.815384,-1.580963 -24.472824,-5.757675c-4.169601,-3.674667 -6.081696,-9.763489 -5.746994,-18.284302c0.160233,-5.344635 0.982758,-10.685715 2.456894,-16.03035c1.474136,-5.341072 2.293091,-10.101753 2.456894,-14.282043c0.338272,-6.174278 -1.922791,-9.27211 -6.765366,-9.27211c-4.190964,0 -8.702408,4.767807 -13.552094,14.282051c-4.846146,9.517784 -7.523804,19.459328 -8.022293,29.80677c-0.334717,9.354019 0.263489,15.866562 1.791031,19.534103c-11.461945,0.341827 -19.601746,-2.072342 -24.415848,-7.246063c-3.995132,-4.322723 -5.818207,-10.895798 -5.47995,-19.726379c0.156677,-4.322723 0.918671,-10.36525 2.296661,-18.102692c1.374451,-7.744568 2.147125,-13.779984 2.303787,-18.113373c0.331161,-2.994576 -0.423721,-4.497192 -2.253937,-4.497192c-1.000549,0 -3.84201,1.691345 -8.520782,5.070465l-6.006943,-6.768929c0.833206,-0.655167 6.088837,-5.501305 15.781113,-14.520615c7.011047,-6.508995 11.771729,-9.848946 14.274918,-10.012741c4.340515,-0.338264 7.847824,1.456337 10.518372,5.380249s4.009369,8.47451 4.009369,13.651802c0,1.669975 -0.167358,3.258049 -0.498505,4.757111c2.503189,-3.834892 5.422974,-7.181969 8.770035,-10.019859c7.676926,-6.672791 16.279617,-10.43647 25.797409,-11.273239c8.182541,-0.665855 14.022125,1.253372 17.536545,5.757683c2.830765,3.678223 4.166046,8.940964 4.005814,15.784668c1.171494,-0.997002 2.42485,-2.086578 3.760117,-3.258057c3.838455,-4.511436 7.594986,-8.093521 11.266129,-10.764053c6.181396,-4.511429 12.60849,-7.014618 19.291962,-7.520241c8.011627,-0.665855 13.769287,1.246254 17.276611,5.73632c3.005249,3.660416 4.340515,8.901794 4.012909,15.720573c-0.167328,4.660988 -1.292542,11.44059 -3.37912,20.338829c-2.093689,8.90535 -3.129852,14.014984 -3.129852,15.346695c-0.1745,3.496628 0.167358,5.907227 0.993439,7.242508c0.840332,1.32814 2.837891,1.990433 6.014038,1.990433c2.335846,0 6.501892,-2.467575 12.526642,-7.416977c5.006348,-4.116196 9.097626,-7.986694 12.273773,-11.615067l4.760681,6.25618z" fill="#172322"/>
   <path stroke="null" id="svg_5" d="m431.103485,120.773514c-4.84613,8.008057 -14.360382,16.005432 -28.556946,24.009918c-17.700348,10.169434 -35.649933,15.254135 -53.855865,15.254135c-13.52005,0 -23.215881,-4.511429 -29.055481,-13.52005c-4.173157,-6.177856 -6.174286,-13.52005 -6.010498,-22.037292c0.160248,-13.52005 6.181427,-26.374237 18.031464,-38.569702c13.025146,-13.352699 28.389648,-20.036171 46.093536,-20.036171c16.365051,0 25.042542,6.669228 26.043091,19.993446c0.669434,8.488747 -4.005829,17.240997 -14.022095,26.235374c-10.696411,9.827583 -24.145264,16.076637 -40.335846,18.740059c2.998138,4.162476 7.509552,6.238373 13.527191,6.238373c12.017426,0 25.135101,-3.044403 39.328125,-9.165283c10.180115,-4.297791 18.198853,-8.762939 24.049103,-13.388298l4.764221,6.245491zm-56.861084,-26.153473c0.160217,-4.482948 -1.669983,-6.729759 -5.508453,-6.729759c-5.006378,0 -10.076843,3.450333 -15.250549,10.34745c-5.166626,6.893555 -7.837158,13.491562 -8.004517,19.804718c-0.08902,0 -0.08902,1.086014 0,3.243805c8.171844,-2.987442 15.264832,-7.55584 21.261078,-13.7052c4.831879,-5.309036 7.335052,-9.63887 7.502441,-12.961014z" fill="#172322"/>
   <path stroke="null" id="svg_6" d="m499.098999,103.981171c-0.672943,15.346695 -6.341614,28.59613 -17.030884,39.769669c-10.68927,11.169968 -23.963684,16.756729 -39.8302,16.756729c-13.192474,0 -23.215912,-4.255051 -30.05603,-12.765167c-4.999268,-6.327408 -7.769501,-14.246445 -8.260895,-23.742874c-0.840302,-14.346138 4.333405,-27.52079 15.52832,-39.527534c12.024536,-13.338455 27.12912,-20.00412 45.335052,-20.00412c11.682709,0 20.531097,3.923912 26.552307,11.753929c5.675751,7.17485 8.260834,16.429161 7.762329,27.759369zm-28.30777,-0.940033c0.167358,-4.518555 -0.45932,-8.666786 -1.876526,-12.426903c-1.424255,-3.763687 -3.471649,-5.650871 -6.142181,-5.650871c-8.513702,0 -15.52832,4.604019 -21.029633,13.804909c-4.685913,7.530922 -7.192657,15.563904 -7.516693,24.09182c-0.174438,4.187408 0.583984,7.869186 2.253967,11.052475c1.8302,3.674652 4.422394,5.515549 7.76947,5.515549c7.509552,0 13.936646,-4.42952 19.284821,-13.299286c4.511475,-7.363571 6.92569,-15.061829 7.256775,-23.087692z" fill="#172322"/>
  </g>
 </g>
</svg>