<svg width="500" height="200" xmlns="http://www.w3.org/2000/svg" preserveAspectRatio="xMinYMin none"><path fill="none" d="M-1-1h502v202H-1z"/><g stroke="null" fill="#172322"><path d="M111.903 85.843c-.499 10.867-8.083 25.74-22.753 44.62-15.165 19.711-27.998 29.575-38.495 29.575-6.498 0-12.003-6.007-16.497-18.014-3.002-11.01-6.003-22.023-9.005-33.026-3.34-12.007-6.918-18.017-10.75-18.017-.833 0-3.753 1.759-8.752 5.26L.403 89.47a1383.745 1383.745 0 0 0 16.28-14.52c7.341-6.35 12.85-9.686 16.528-10.02 8.681-.833 14.022 5.102 16.03 17.807 2.165 13.712 3.668 22.24 4.508 25.573 2.507 11.377 5.256 17.06 8.265 17.06 2.339 0 5.843-3.693 10.518-11.067 4.672-7.378 7.175-12.993 7.51-16.85.669-6.37-1.838-9.564-7.51-9.564-2.67 0-5.42.616-8.254 1.83 5.484-17.96 15.956-26.687 31.416-26.189 11.466.339 16.868 7.777 16.209 22.312z"/><path d="M180.753 121.026c-4.675 8.845-11.106 16.853-19.288 24.028-11.192 9.678-22.38 14.514-33.56 14.514-5.185 0-9.151-1.67-11.904-5.007-2.752-3.34-4.048-7.666-3.88-13.007.16-5.512 1.872-14.022 5.13-25.541 3.255-11.508 4.889-17.686 4.889-18.52 0-4.336-1.506-6.508-4.508-6.508-1.004 0-3.842 1.759-8.52 5.259l-5.762-6.77a17671.15 17671.15 0 0 0 16.03-14.52c7.182-6.349 12.527-9.685 16.038-10.02 5.505-.498 9.557 1.118 12.145 4.868 2.586 3.746 3.547 8.606 2.885 14.592-2.172 10.155-4.515 23.045-7.022 38.683-.164 7.157 2.425 10.732 7.77 10.732 2.335 0 6.505-2.467 12.526-7.417 5.006-4.116 9.098-7.986 12.274-11.615l4.757 6.25zM158.96 31.951c-.167 4.16-2.254 8.147-6.267 11.968-4.507 4.316-9.852 6.48-16.026 6.48-9.515 0-14.111-4.151-13.777-12.458.16-4.32 2.706-8.479 7.634-12.467 4.928-3.984 10.394-5.982 16.412-5.982 3.504 0 6.427 1.378 8.766 4.113 2.336 2.749 3.422 5.53 3.258 8.346z"/><path d="M337.175 121.026c-4.679 8.845-11.098 16.853-19.285 24.028-11.198 9.678-22.379 14.514-33.563 14.514-10.864 0-16.12-6.007-15.781-18.018.16-5.344 1.204-11.771 3.123-19.281 1.919-7.506 2.962-13.346 3.13-17.522.174-6.335-1.752-9.518-5.78-9.518-4.354 0-9.55 5.184-15.578 15.532-6.366 10.86-9.806 21.375-10.304 31.551-.339 7.193.366 12.705 2.108 16.54-11.651.342-19.816-1.581-24.473-5.758-4.17-3.675-6.082-9.763-5.747-18.284.16-5.345.983-10.686 2.457-16.03 1.474-5.342 2.293-10.102 2.457-14.283.338-6.174-1.923-9.272-6.766-9.272-4.19 0-8.702 4.768-13.552 14.282-4.846 9.518-7.524 19.46-8.022 29.807-.335 9.354.263 15.867 1.79 19.534-11.461.342-19.6-2.072-24.415-7.246-3.995-4.323-5.818-10.896-5.48-19.726.157-4.323.919-10.365 2.297-18.103 1.374-7.744 2.147-13.78 2.304-18.113.33-2.995-.424-4.497-2.254-4.497-1 0-3.842 1.69-8.521 5.07l-6.007-6.769c.833-.655 6.089-5.501 15.781-14.52 7.011-6.51 11.772-9.85 14.275-10.013 4.34-.339 7.848 1.456 10.518 5.38s4.01 8.475 4.01 13.652c0 1.67-.168 3.258-.499 4.757 2.503-3.835 5.423-7.182 8.77-10.02 7.677-6.673 16.28-10.436 25.798-11.273 8.182-.666 14.022 1.253 17.536 5.758 2.83 3.678 4.166 8.94 4.006 15.784a334.765 334.765 0 0 0 3.76-3.258c3.839-4.511 7.595-8.093 11.266-10.764 6.182-4.511 12.609-7.015 19.292-7.52 8.012-.666 13.77 1.246 17.277 5.736 3.005 3.66 4.34 8.902 4.013 15.72-.168 4.662-1.293 11.441-3.38 20.34-2.093 8.905-3.13 14.015-3.13 15.346-.174 3.497.168 5.907.994 7.243.84 1.328 2.838 1.99 6.014 1.99 2.336 0 6.502-2.467 12.527-7.417 5.006-4.116 9.097-7.986 12.274-11.615l4.76 6.256z"/><path d="M431.103 120.774c-4.846 8.008-14.36 16.005-28.556 24.01-17.7 10.169-35.65 15.254-53.856 15.254-13.52 0-23.216-4.512-29.056-13.52-4.173-6.178-6.174-13.52-6.01-22.038.16-13.52 6.181-26.374 18.031-38.57 13.025-13.352 28.39-20.036 46.094-20.036 16.365 0 25.042 6.67 26.043 19.994.67 8.489-4.006 17.24-14.022 26.235-10.697 9.828-24.146 16.077-40.336 18.74 2.998 4.163 7.51 6.239 13.527 6.239 12.017 0 25.135-3.045 39.328-9.166 10.18-4.297 18.199-8.763 24.05-13.388l4.763 6.246zm-56.86-26.154c.16-4.483-1.67-6.73-5.51-6.73-5.005 0-10.076 3.45-15.25 10.348-5.166 6.893-7.837 13.491-8.004 19.804-.09 0-.09 1.086 0 3.244 8.172-2.987 15.265-7.556 21.261-13.705 4.832-5.309 7.335-9.639 7.502-12.961z"/><path d="M499.099 103.981c-.673 15.347-6.342 28.596-17.03 39.77-10.69 11.17-23.965 16.757-39.831 16.757-13.193 0-23.216-4.255-30.056-12.766-5-6.327-7.77-14.246-8.261-23.742-.84-14.347 4.333-27.521 15.528-39.528 12.025-13.338 27.13-20.004 45.335-20.004 11.683 0 20.531 3.924 26.553 11.754 5.675 7.175 8.26 16.429 7.762 27.76zm-28.308-.94c.168-4.518-.46-8.667-1.876-12.427-1.425-3.763-3.472-5.65-6.142-5.65-8.514 0-15.529 4.603-21.03 13.804-4.686 7.531-7.193 15.564-7.517 24.092-.174 4.188.584 7.87 2.254 11.053 1.83 3.674 4.423 5.515 7.77 5.515 7.51 0 13.936-4.43 19.284-13.3 4.512-7.363 6.926-15.061 7.257-23.087z"/></g></svg>