<?xml version="1.0"?>
<svg width="500" height="200" xmlns="http://www.w3.org/2000/svg">
 <metadata id="metadata8">image/svg+xml</metadata>

 <g>
  <title>background</title>
  <rect fill="none" id="canvas_background" height="202" width="502" y="-1" x="-1"/>
 </g>
 <g>
  <title>Layer 1</title>
  <g id="g10" transform="matrix(0.10268106201430703,0,0,-0.10268106201430703,-10.87173708562614,285.6298622739135) ">
   <g id="g12" transform="translate(-346.8802795410156,893.8837890625) scale(0.3865030109882355) ">
    <path fill="#255486" fill-rule="nonzero" id="path14" d="m3433.931396,3674.308838l-865.359863,-865.370117l371.26001,-371.279785l494.099854,494.089844l938.390381,-938.379883l371.299805,371.299805l-1309.690186,1309.640137"/>
    <path fill="#83bfe2" fill-rule="nonzero" id="path16" d="m2421.861572,2809.628906l-864.689941,864.679932l-371.296021,-371.280273l864.695923,-864.669678l371.290039,371.27002"/>
    <path fill="#255486" fill-rule="nonzero" id="path18" d="m4372.421875,1993.498779l1309.589844,1309.529785l-371.299805,371.280273l-1309.570313,-1309.560059l371.280273,-371.25"/>
    <path fill="#4089d0" fill-rule="nonzero" id="path20" d="m3927.591553,2291.218994l-493.659912,-493.660034l-938.530029,938.569702l-371.300049,-371.329834l1309.829834,-1309.799927l864.960693,864.969849l-371.300537,371.250244"/>
    <path fill="#255486" fill-rule="nonzero" id="path22" d="m6311.581543,2965.20874c24.399902,0 30.919922,-14.640137 35.779785,-34.149902l182.17041,-988.900146l196.790039,990.530029c1.629883,17.879883 14.649902,32.52002 32.519531,32.52002l128.490234,0c19.529785,0 30.919922,-14.640137 35.779785,-32.52002l196.820313,-990.530029l180.540039,988.900146c4.869629,19.509766 14.619629,34.149902 35.759766,34.149902l100.850098,0c24.399902,0 34.149902,-13.009766 30.890137,-37.410156l-203.310059,-1102.739868c-1.600098,-19.5 -14.620117,-34.149902 -34.149902,-34.149902l-195.160156,0c-19.509766,0 -30.890137,11.379883 -32.52002,32.52002l-178.919922,907.569946l-178.910156,-907.569946c-3.259766,-21.140137 -14.639648,-32.52002 -34.149902,-32.52002l-193.549805,0c-19.52002,0 -30.900391,14.649902 -35.790039,34.149902l-203.310059,1104.369751c-3.22998,24.390137 6.52002,35.780029 30.919922,35.780029l102.459961,0"/>
    <path fill="#255486" fill-rule="nonzero" id="path24" d="m7775.371582,2204.018555l274.879883,22.77002c50.390137,4.889893 78.050293,37.409912 78.050293,82.950195l0,86.209717c0,50.430176 -34.150391,84.580078 -81.320313,84.580078l-185.399902,0c-50.430176,0 -86.209961,-32.549805 -86.209961,-86.209961l0,-190.300049zm-167.529785,227.710205c0,110.609863 73.189941,180.539795 178.909668,180.539795l318.780273,0c105.719238,0 178.909668,-69.929932 178.909668,-180.539795l0,-138.240234c0,-104.109863 -74.820313,-175.649902 -174.040039,-175.649902l-335.029785,0l0,-87.839844c0,-60.180176 40.640137,-99.220215 99.200195,-99.220215l315.540039,0c24.399902,0 37.419434,-11.360107 37.419434,-35.779785l0,-66.680054c0,-24.400146 -13.019531,-37.410156 -37.419434,-37.410156l-398.490234,0c-110.589844,0 -183.779785,73.200073 -183.779785,185.410034l0,455.410156"/>
    <path fill="#255486" fill-rule="nonzero" id="path26" d="m8656.861328,2472.408691l0,-546.499756l268.389648,0c53.660156,0 87.810547,34.159668 87.810547,87.819824l0,370.839844c0,52.050293 -34.150391,87.840088 -87.810547,87.840088l-268.389648,0zm-37.379883,609.900146c24.389648,0 37.379883,-13.010254 37.379883,-37.409912l0,-463.540039l271.620117,26.019775c30.919922,4.890137 63.439453,4.890137 74.820313,4.890137c108.979492,0 177.290039,-69.930176 177.290039,-178.909912l0,-468.400146c0,-105.719849 -71.570313,-178.910034 -177.290039,-178.910034c-13.010742,0 -52.030273,4.860107 -84.570313,6.490234l-261.870117,26.029785l-21.129883,-27.659912l-108.959961,0c-24.400391,0 -37.410156,13.01001 -37.410156,39.040039l0,1214.950073c0,24.399658 13.009766,37.409912 37.410156,37.409912l92.709961,0"/>
    <path fill="#255486" fill-rule="nonzero" id="path28" d="m9569.282227,2472.408691l0,-546.499756l268.379883,0c53.660156,0 87.810547,34.159668 87.810547,87.819824l0,370.839844c0,52.050293 -34.150391,87.840088 -87.810547,87.840088l-268.379883,0zm-37.389648,609.900146c24.399414,0 37.389648,-13.010254 37.389648,-37.409912l0,-463.540039l271.639648,26.019775c30.890625,4.890137 63.410156,4.890137 74.790039,4.890137c108.980469,0 177.290039,-69.930176 177.290039,-178.909912l0,-468.400146c0,-105.719849 -71.569336,-178.910034 -177.290039,-178.910034c-13.009766,0 -52.029297,4.860107 -84.569336,6.490234l-261.860352,26.029785l-21.139648,-27.659912l-108.980469,0c-24.370117,0 -37.389648,13.01001 -37.389648,39.040039l0,1214.950073c0,24.399658 13.019531,37.409912 37.389648,37.409912l92.730469,0"/>
    <path fill="#255486" fill-rule="nonzero" id="path30" d="m10398.702148,2612.268555c17.900391,0 27.700195,-8.139893 32.599609,-26.019775l193.5,-671.720215l195.200195,670.090332c4.900391,14.639648 19.5,27.649658 34.200195,27.649658l99.200195,0c21.099609,0 40.599609,-16.269775 32.5,-40.669678l-320.400391,-1102.700073c-3.299805,-21.140137 -14.700195,-30.919922 -32.5,-30.919922l-96,0c-21.200195,0 -40.700195,19.51001 -35.799805,43.899902l92.700195,309.030029l-79.700195,0c-17.900391,0 -29.299805,9.780029 -32.5,27.659912l-216.299805,751.400024c-4.900391,24.400146 8.099609,42.300049 34.099609,42.300049l99.200195,0"/>
    <path fill="#4089d0" fill-rule="nonzero" id="path32" d="m11517.801758,1953.568604c0,-11.409912 11.400391,-22.790039 22.700195,-22.790039l447.299805,0c24.400391,0 37.400391,-12.98999 37.400391,-37.379883l0,-65.079956c0,-24.399902 -13,-37.409912 -37.400391,-37.409912l-600.099609,0c-24.400391,0 -37.5,13.01001 -37.5,37.409912l0,1099.479858c0,24.399902 13.099609,37.410156 37.5,37.410156l92.699219,0c24.400391,0 37.400391,-13.010254 37.400391,-37.410156l0,-974.22998"/>
    <path fill="#4089d0" fill-rule="nonzero" id="path34" d="m12407.401367,2168.238525c-50.400391,0 -84.5,-32.52002 -84.5,-84.580078l0,-84.549805c0,-52.050049 34.099609,-86.209961 84.5,-86.209961l268.400391,0l0,255.339844l-268.400391,0zm250.5,444.030029c110.599609,0 185.400391,-74.820068 185.400391,-187.030029l0,-595.289917c0,-26.030029 -13,-39.040039 -37.400391,-39.040039l-109,0l-21.099609,27.660156l-248.900391,-26.030029c-37.400391,-4.860107 -71.5,-6.48999 -82.900391,-6.48999c-105.699219,0 -177.299805,73.189941 -177.299805,178.910034l0,146.359863c0,105.720215 71.600586,178.909912 177.299805,178.909912c11.400391,0 43.900391,-1.629639 74.800781,-6.489746l257,-26.030029l0,118.72998c0,63.419922 -39,95.969727 -102.5,95.969727l-328.5,0c-24.400391,0 -37.400391,13.01001 -37.400391,37.380127l0,65.070068c0,24.399902 13,37.409912 37.400391,37.409912l413.099609,0"/>
    <path fill="#4089d0" fill-rule="nonzero" id="path36" d="m13232.001953,2472.408691l0,-546.499756l268.400391,0c53.699219,0 87.799805,34.159668 87.799805,87.819824l0,370.839844c0,52.050293 -34.100586,87.840088 -87.799805,87.840088l-268.400391,0zm-37.400391,609.900146c24.400391,0 37.400391,-13.010254 37.400391,-37.409912l0,-463.540039l271.599609,26.019775c30.900391,4.890137 63.5,4.890137 74.900391,4.890137c108.900391,0 177.200195,-69.930176 177.200195,-178.909912l0,-468.400146c0,-105.719849 -71.5,-178.910034 -177.200195,-178.910034c-13.099609,0 -52.099609,4.860107 -84.599609,6.490234l-261.900391,26.029785l-21.099609,-27.659912l-109,0c-24.400391,0 -37.400391,13.01001 -37.400391,39.040039l0,1214.950073c0,24.399658 13,37.409912 37.400391,37.409912l92.699219,0"/>
   </g>
  </g>
 </g>
</svg>