<?xml version="1.0"?>
<svg width="500" height="200" xmlns="http://www.w3.org/2000/svg">

 <g>
  <title>background</title>
  <rect fill="none" id="canvas_background" height="202" width="502" y="-1" x="-1"/>
 </g>
 <g>
  <title>Layer 1</title>
  <g stroke="null" id="svg_1">
   <g stroke="null" id="svg_2">
    <path stroke="null" d="m164.203964,133.375778l-13.181412,-51.955658l7.093292,0l6.166992,26.283936c1.538528,6.47673 2.927917,12.952011 3.852768,17.960449l0.154861,0c0.845963,-5.1633 2.464767,-11.330284 4.23703,-18.036415l6.938416,-26.209419l7.014404,0l6.321854,26.362823c1.463974,6.167015 2.851929,12.331146 3.623352,17.805588l0.154846,0c1.076843,-5.705292 2.543701,-11.485146 4.162506,-17.960434l6.859558,-26.209427l6.859573,0l-14.724243,51.955688l-7.01442,0l-6.5513,-27.055389c-1.617371,-6.630104 -2.698502,-11.717438 -3.391052,-16.959602l-0.154846,0c-0.926285,5.164742 -2.080536,10.253471 -4.007629,16.959602l-7.40155,27.055389l-7.012985,0l0,0.002869l-0.000015,0z" fill="#2788B5" id="svg_3"/>
    <path stroke="null" d="m221.925171,115.953033c0.154831,9.173782 6.01358,12.951996 12.797134,12.951996c4.853607,0 7.781509,-0.850266 10.325195,-1.927101l1.158539,4.8536c-2.38884,1.079681 -6.4767,2.31424 -12.410019,2.31424c-11.485153,0 -18.347595,-7.556412 -18.347595,-18.810715c0,-11.25145 6.630157,-20.118423 17.497299,-20.118423c12.180649,0 15.416794,10.715218 15.416794,17.574753c0,1.387962 -0.154846,2.469086 -0.229401,3.160225l-26.207977,0l0,0.001419l0.000031,0.000008zm19.886108,-4.853569c0.078857,-4.315918 -1.772232,-11.024918 -9.403229,-11.024918c-6.859528,0 -9.866318,6.321884 -10.404007,11.024918l19.807236,0l0,0z" fill="#2788B5" id="svg_4"/>
    <path stroke="null" d="m256.449463,133.375778c0.154877,-2.54364 0.308319,-6.321838 0.308319,-9.636894l0,-45.093262l6.706146,0l0,23.433456l0.154816,0c2.388824,-4.163933 6.709015,-6.86245 12.718292,-6.86245c9.252686,0 15.803955,7.708427 15.725098,19.04303c0,13.33197 -8.402374,19.962097 -16.725891,19.962097c-5.395599,0 -9.711487,-2.080505 -12.485992,-7.014397l-0.233734,0l-0.308258,6.166985l-5.858765,0l0,0.001434l-0.000031,0zm7.014465,-14.953644c0,0.845978 0.154816,1.693375 0.308258,2.464783c1.313416,4.703049 5.242157,7.93924 10.174591,7.93924c7.093323,0 11.334625,-5.779839 11.334625,-14.337074c0,-7.477554 -3.857056,-13.873985 -11.100891,-13.873985c-4.624146,0 -8.940063,3.160233 -10.329498,8.32354c-0.154816,0.7714 -0.387085,1.697685 -0.387085,2.777367l0,6.706131l0,0l0,0z" fill="#2788B5" id="svg_5"/>
    <path stroke="null" d="m300.450134,121.274055c3.160217,1.617409 8.019562,3.236198 13.027985,3.236198c5.39563,0 8.248993,-2.235374 8.248993,-5.625c0,-3.240486 -2.464783,-5.087311 -8.710663,-7.322678c-8.631775,-3.00679 -14.258209,-7.785828 -14.258209,-15.342224c0,-8.864098 7.398682,-15.647659 19.653778,-15.647659c5.858734,0 10.174652,1.234573 13.260284,2.621086l-2.622498,9.482094c-2.080505,-1.002281 -5.779877,-2.469101 -10.867157,-2.469101c-5.087341,0 -7.556427,2.31424 -7.556427,5.009872c0,3.316498 2.930817,4.780464 9.636932,7.32412c9.173798,3.391083 13.489716,8.168678 13.489716,15.49279c0,8.71067 -6.709015,16.113632 -20.967255,16.113632c-5.934723,0 -11.793457,-1.542801 -14.724243,-3.160202l2.388794,-9.712921l-0.000031,-0.000008z" fill="#2788B5" id="svg_6"/>
    <path stroke="null" d="m354.016022,84.89003l0,10.789749l8.402374,0l0,8.634644l-8.402374,0l0,13.644585c0,4.545319 1.079681,6.630119 4.624176,6.630119c1.463959,0 2.619659,-0.154861 3.46991,-0.308281l0.074585,8.861214c-1.538513,0.616547 -4.315857,1.005127 -7.630951,1.005127c-3.773895,0 -6.935608,-1.313416 -8.786682,-3.240494c-2.159363,-2.235397 -3.236206,-5.858734 -3.236206,-11.175476l0,-15.416794l-5.012756,0l0,-8.634644l5.012756,0l0,-8.170105l11.485168,-2.619644z" fill="#2788B5" id="svg_7"/>
    <path stroke="null" d="m406.041962,114.106239c0,13.795097 -9.791809,20.116966 -19.887543,20.116966c-11.024902,0 -19.503265,-7.243835 -19.503265,-19.424408s8.015259,-19.964989 20.116974,-19.964989c11.564026,0 19.273834,7.937813 19.273834,19.27243zm-27.289063,0.382843c0,6.476707 2.698517,11.330299 7.70694,11.330299c4.549622,0 7.477539,-4.545326 7.477539,-11.330299c0,-5.625008 -2.156494,-11.33033 -7.477539,-11.33033c-5.626434,0 -7.70694,5.779884 -7.70694,11.33033z" fill="#2788B5" id="svg_8"/>
    <path stroke="null" d="m413.278625,108.092651c0,-5.550446 -0.154816,-9.173798 -0.308289,-12.411438l10.095795,0l0.384277,6.936989l0.308258,0c1.929993,-5.471573 6.555573,-7.782951 10.174652,-7.782951c1.079681,0 1.621643,0 2.469055,0.154846l0,11.023476c-0.845947,-0.154846 -1.851074,-0.308296 -3.160217,-0.308296c-4.315857,0 -7.248108,2.309952 -8.015228,5.934746c-0.154877,0.771393 -0.233704,1.697655 -0.233704,2.62249l0,19.116135l-11.7146,0l0,-25.285995l0,0z" fill="#2788B5" id="svg_9"/>
    <path stroke="null" d="m442.562195,107.704056c0,-4.700165 -0.154846,-8.707779 -0.308258,-12.024261l9.866364,0l0.537689,5.088745l0.229431,0c1.621643,-2.388809 4.933838,-5.936157 11.409149,-5.936157c4.85791,0 8.710632,2.466225 10.329468,6.399277l0.154846,0c1.388,-1.927078 3.08139,-3.471359 4.85791,-4.549606c2.080536,-1.234535 4.391907,-1.849655 7.167847,-1.849655c7.243744,0 12.715363,5.088753 12.715363,16.340187l0,22.201775l-11.404907,0l0,-20.504089c0,-5.471603 -1.772186,-8.631798 -5.550354,-8.631798c-2.698547,0 -4.624237,1.848236 -5.395599,4.082184c-0.30835,0.850266 -0.463165,2.080513 -0.463165,3.006783l0,22.046921l-11.40918,0l0,-21.122086c0,-4.779053 -1.693359,-8.015259 -5.392731,-8.015259c-3.006744,0 -4.779053,2.309967 -5.474457,4.237053c-0.384277,0.926277 -0.463135,2.005951 -0.463135,2.930801l0,21.968071l-11.404877,0l0,-25.668854l-0.001434,0l0.000031,-0.000031z" fill="#2788B5" id="svg_10"/>
   </g>
   <g stroke="null" id="svg_11">
    <g stroke="null" id="svg_12">
     <path stroke="null" d="m64.297371,143.080093c1.108368,-1.392242 2.418907,-2.912125 3.970345,-4.701569l0.772842,-0.891876c0.966415,-1.11554 1.769371,-1.977295 2.540787,-2.813217c1.534225,-1.654678 2.861954,-3.082794 5.286613,-6.383514c2.378761,-3.240486 3.915855,-5.679497 3.664932,-9.860611c-0.12188,-2.152206 -0.207909,-3.629074 -1.611649,-5.362602c-0.843109,-1.039551 -2.408875,-2.550835 -4.069275,-4.149567c-1.796616,-1.733528 -3.35952,-3.382484 -5.477318,-5.58918c-2.11924,-2.198082 -4.859329,-7.820221 -4.859329,-7.820221c-0.815865,-1.861137 -2.34005,-5.725372 -2.764473,-9.318634l-6.225792,-31.927586l-17.741062,0l-8.679115,40.265446l-7.685453,-40.265446l-20.941427,0l18.89245,91.476963l17.639261,0l8.818199,-39.59729l7.798725,39.59729l8.18874,0l2.481998,-2.658356l0,-0.000031z" fill="#2788B5" id="svg_13"/>
    </g>
    <path stroke="null" d="m101.217667,59.735958c1.852539,-2.147919 3.379593,-3.888611 4.632782,-5.468719l-28.136505,0c-1.674736,2.137878 -5.072975,6.258766 -7.014412,9.913654c-2.563728,4.839249 -4.672928,8.46978 -4.882286,17.378304l0.094635,2.869148c0,4.247055 3.036903,10.48288 3.036903,10.48288c0.474594,1.105522 2.081955,3.445549 3.110023,4.869385l-0.025818,0c0.338387,0.450226 0.56208,0.739853 0.56208,0.739853c3.032608,3.474213 7.620918,7.357109 9.646965,9.850571c2.368729,2.922218 2.431816,5.666595 2.559433,7.800163c0.34269,5.766968 -1.990189,9.242607 -4.485107,12.648018c-3.773903,5.146103 -5.133179,6.099609 -8.038185,9.46344c-1.852531,2.14505 -3.378159,3.882858 -4.632782,5.455795l29.071373,0c1.704857,-2.188049 4.13237,-6.228638 6.080978,-9.906494c2.563736,-4.839249 4.675797,-8.469749 4.882271,-17.36969l-0.09462,-2.872025c0,-4.254242 -3.036903,-10.491478 -3.036903,-10.491478c-0.474609,-1.105522 -2.083389,-3.431229 -3.112892,-4.869392l0.025803,0c-0.329788,-0.441635 -0.559196,-0.736984 -0.559196,-0.736984c-3.0326,-3.477097 -7.623802,-7.354233 -9.646965,-9.850578c-2.368729,-2.929375 -2.431816,-5.669441 -2.559433,-7.801575c-0.34269,-5.761246 1.990189,-9.242622 4.487961,-12.648033c3.772476,-5.133186 5.130333,-6.096737 8.033882,-9.456257l0.000015,0.000015z" fill="#FA930D" id="svg_14"/>
   </g>
  </g>
 </g>
</svg>