<svg id="Layer_1" xmlns="http://www.w3.org/2000/svg" viewBox="0 0 500 200"><style>.st0{fill:#231F20;} .st1{opacity:0.46;fill:#231F20;} .st2{fill:#F37920;}</style><path class="st0" d="M90.3 118.6h36.5l-37.9 44.5v7H142v-9.5h-38l38-44.5v-7H90.3zM195.6 117.3c-2.4-2.9-5.5-5.2-9-6.9-3.5-1.7-7.6-2.5-12.1-2.5-4.2 0-8.2.8-11.8 2.5-3.6 1.6-6.7 3.9-9.3 6.8-2.6 2.9-4.6 6.3-6.1 10.1-1.4 3.9-2.2 8-2.2 12.4 0 4.7.8 9 2.4 12.9 1.6 3.9 3.8 7.3 6.5 10.1s6 5 9.7 6.5c3.7 1.5 7.6 2.3 11.8 2.3 5.8 0 10.7-1.1 14.6-3.1 3.9-2.1 7.4-4.8 10.4-8.3l.7-.8-7-6.2-.7.7c-2.3 2.4-5 4.4-7.8 5.8-2.8 1.4-6.1 2.2-10.1 2.2-2.5 0-4.8-.4-7.1-1.2-2.2-.8-4.3-2-6.1-3.6-1.8-1.6-3.3-3.5-4.4-5.8-1-2-1.7-4.3-2-6.8h46.5l.1-.9c.1-.7.1-1.4.1-1.9v-1.3c0-4.4-.6-8.6-1.9-12.5-1-4.1-2.8-7.6-5.2-10.5zm-21.3 0c2.7 0 5.2.5 7.3 1.5 2.1 1 3.9 2.4 5.4 4 1.5 1.7 2.7 3.7 3.5 6 .7 1.9 1.3 4 1.5 6.1h-35.6c.3-2.3 1-4.4 1.9-6.4 1-2.3 2.4-4.3 4-6 1.6-1.7 3.4-3 5.5-3.9 1.9-.8 4.1-1.3 6.5-1.3zM252.3 140.1c-1.9-1.3-4-2.4-6.3-3.3-2.3-.8-4.6-1.6-6.8-2.3-2-.6-3.9-1.2-5.7-1.8-1.8-.6-3.3-1.3-4.7-2-1.3-.7-2.3-1.5-3.1-2.4-.7-.8-1-1.8-1-2.9v-.2c0-2.1.9-3.9 2.7-5.3 1.9-1.5 4.4-2.2 7.7-2.2 2.8 0 5.6.5 8.5 1.5 2.9 1 5.7 2.4 8.4 4.1l.9.6 5-8.4-.8-.5c-3.1-2-6.6-3.6-10.4-4.8-3.8-1.2-7.6-1.8-11.4-1.8-3 0-5.8.4-8.3 1.2-2.6.8-4.8 2-6.7 3.6-1.9 1.6-3.4 3.5-4.4 5.7-1 2.2-1.6 4.7-1.6 7.3v.2c0 2.9.6 5.4 1.9 7.4 1.3 1.9 2.9 3.6 4.9 4.9 1.9 1.3 4.1 2.3 6.5 3.1 2.3.8 4.6 1.5 7 2.2 1.9.5 3.7 1.1 5.5 1.7 1.7.6 3.2 1.3 4.5 2 1.2.7 2.2 1.6 2.9 2.5.7.9 1 1.9 1 3.1v.2c0 2.6-1 4.5-3 6-2.1 1.5-4.8 2.3-8.2 2.3-3.4 0-6.7-.6-10.1-1.9-3.3-1.2-6.6-3.1-9.7-5.4l-.8-.6-5.6 7.9.8.6c3.4 2.7 7.4 4.9 11.8 6.5 4.4 1.6 8.9 2.4 13.2 2.4 3.1 0 5.9-.4 8.6-1.2 2.7-.8 5-2.1 6.9-3.7 2-1.6 3.5-3.6 4.7-5.9 1.2-2.3 1.8-5 1.8-7.9v-.2c0-2.8-.6-5.3-1.8-7.3-1.3-2-2.8-3.7-4.8-5zM267.7 118.9h19V169h10.6v-50.1h19v-9.8h-48.6zM367.5 109.1l-17 26.5-16.8-26.5h-12.4l23.8 36.3-16.2 23.6h10.6l16.2-23.9 23.8-36z"/><path class="st1" d="M374.2 157.3h11.4V169h-11.4zM401.1 109.1h10.4V169h-10.4zM485.4 127c-1.5-3.7-3.7-7-6.4-9.8-2.7-2.8-6-5-9.8-6.6-3.8-1.6-8-2.4-12.7-2.4-4.6 0-8.9.8-12.7 2.5-3.8 1.7-7.1 3.9-9.9 6.7-2.8 2.8-5 6.1-6.5 9.8-1.5 3.7-2.3 7.7-2.3 11.9v.2c0 4.2.8 8.2 2.3 11.9 1.5 3.7 3.7 7 6.4 9.8 2.7 2.8 6 5 9.8 6.6 3.8 1.6 8 2.4 12.7 2.4 4.6 0 8.8-.8 12.7-2.5 3.8-1.7 7.1-3.9 9.9-6.7 2.8-2.8 5-6.1 6.5-9.8 1.5-3.7 2.3-7.7 2.3-11.9v-.2c0-4.2-.8-8.2-2.3-11.9zm-8.8 12.2c0 2.9-.5 5.7-1.5 8.2-1 2.6-2.4 4.8-4.1 6.7-1.8 1.9-3.9 3.4-6.4 4.5-2.5 1.1-5.2 1.7-8.1 1.7-3 0-5.7-.6-8.2-1.7-2.5-1.1-4.6-2.7-6.4-4.6-1.8-1.9-3.2-4.2-4.2-6.8-1-2.6-1.5-5.4-1.5-8.3v-.2c0-2.9.5-5.7 1.5-8.2 1-2.6 2.4-4.8 4.1-6.7 1.8-1.9 3.9-3.4 6.4-4.5 2.5-1.1 5.2-1.7 8.1-1.7 3 0 5.7.6 8.2 1.7 2.5 1.1 4.6 2.7 6.4 4.6 1.8 1.9 3.2 4.2 4.2 6.8 1 2.6 1.5 5.4 1.5 8.3v.2z"/><g><path class="st2" d="M74.6 21.2v22.2l23.1 8.4-23.1 8.5V84l53.7-20.9V40.6zM13.9 84v22.3l53.7 19.3v-22.2l-23.1-8.3 23.1-8.5V62.9L13.9 83.7z"/></g></svg>