<?xml version="1.0" encoding="utf-8"?>
<!-- Generator: Adobe Illustrator 19.1.0, SVG Export Plug-In . SVG Version: 6.00 Build 0)  -->
<svg version="1.1" id="Layer_1" xmlns="http://www.w3.org/2000/svg" xmlns:xlink="http://www.w3.org/1999/xlink" x="0px" y="0px"
	 viewBox="0 0 441 153" style="enable-background:new 0 0 441 153;" xml:space="preserve">
<style type="text/css">
	.st0{fill:#231F20;}
	.st1{opacity:0.46;fill:#231F20;}
	.st2{fill:#F37920;}
</style>
<g>
	<g>
		<polygon class="st0" points="79.3,93.5 110.8,93.5 78.1,131.9 78.1,138 123.9,138 123.9,129.8 91.1,129.8 123.9,91.4 123.9,85.4 
			79.3,85.4 		"/>
		<path class="st0" d="M170.1,92.5c-2.1-2.5-4.7-4.5-7.8-6c-3.1-1.5-6.6-2.2-10.4-2.2c-3.7,0-7.1,0.7-10.2,2.1
			c-3.1,1.4-5.8,3.4-8,5.9c-2.2,2.5-4,5.4-5.2,8.7c-1.2,3.3-1.9,6.9-1.9,10.7c0,4,0.7,7.8,2.1,11.2c1.4,3.4,3.3,6.3,5.6,8.7
			c2.4,2.4,5.2,4.3,8.4,5.6c3.2,1.3,6.6,2,10.2,2c5,0,9.2-0.9,12.6-2.7c3.4-1.8,6.4-4.2,9-7.1l0.6-0.7l-6-5.4l-0.6,0.6
			c-2,2.1-4.3,3.8-6.7,5c-2.4,1.2-5.3,1.9-8.7,1.9c-2.1,0-4.2-0.4-6.1-1.1c-1.9-0.7-3.7-1.8-5.2-3.1c-1.5-1.4-2.8-3.1-3.8-5
			c-0.9-1.7-1.5-3.7-1.8-5.9h40.1l0.1-0.8c0.1-0.6,0.1-1.2,0.1-1.6v-1.1c0-3.8-0.5-7.4-1.6-10.8C173.8,97.9,172.2,95,170.1,92.5z
			 M151.7,92.4c2.3,0,4.5,0.4,6.3,1.3c1.8,0.9,3.4,2,4.6,3.5c1.3,1.5,2.3,3.2,3,5.2c0.6,1.7,1.1,3.5,1.3,5.3h-30.8
			c0.3-1.9,0.8-3.8,1.6-5.5c0.9-2,2.1-3.7,3.4-5.2c1.4-1.4,2.9-2.6,4.7-3.4C147.8,92.8,149.7,92.4,151.7,92.4z"/>
		<path class="st0" d="M219.1,112.1c-1.6-1.2-3.5-2.1-5.5-2.9c-2-0.7-3.9-1.4-5.9-2c-1.7-0.5-3.3-1-4.9-1.6c-1.5-0.5-2.9-1.1-4-1.7
			c-1.1-0.6-2-1.3-2.6-2.1c-0.6-0.7-0.9-1.6-0.9-2.5v-0.2c0-1.8,0.8-3.3,2.3-4.6c1.6-1.3,3.8-1.9,6.6-1.9c2.4,0,4.8,0.4,7.3,1.3
			c2.5,0.9,4.9,2,7.2,3.5l0.8,0.5l4.4-7.2l-0.7-0.5c-2.7-1.7-5.7-3.1-9-4.2c-3.3-1-6.6-1.6-9.8-1.6c-2.6,0-5,0.4-7.2,1.1
			c-2.2,0.7-4.2,1.8-5.8,3.1c-1.6,1.4-2.9,3-3.8,4.9c-0.9,1.9-1.4,4-1.4,6.3v0.2c0,2.5,0.6,4.7,1.7,6.4c1.1,1.7,2.5,3.1,4.2,4.2
			c1.7,1.1,3.5,2,5.6,2.7c2,0.7,4,1.3,6,1.9c1.6,0.5,3.2,0.9,4.7,1.5c1.5,0.5,2.8,1.1,3.9,1.7c1.1,0.6,1.9,1.4,2.5,2.2
			c0.6,0.8,0.9,1.7,0.9,2.7v0.2c0,2.2-0.8,3.9-2.6,5.2c-1.8,1.3-4.2,2-7,2c-2.9,0-5.8-0.5-8.7-1.6c-2.9-1.1-5.7-2.7-8.4-4.7
			l-0.7-0.6l-4.8,6.8l0.7,0.5c2.9,2.3,6.4,4.2,10.2,5.6c3.8,1.4,7.7,2.1,11.4,2.1c2.6,0,5.1-0.4,7.4-1.1c2.3-0.7,4.3-1.8,6-3.2
			c1.7-1.4,3.1-3.1,4.1-5.1c1-2,1.5-4.3,1.5-6.8v-0.2c0-2.4-0.5-4.6-1.6-6.3C222.1,114.7,220.8,113.3,219.1,112.1z"/>
		<polygon class="st0" points="232.4,93.8 248.8,93.8 248.8,137.1 258,137.1 258,93.8 274.4,93.8 274.4,85.3 232.4,85.3 		"/>
		<polygon class="st0" points="318.5,85.3 303.9,108.3 289.4,85.3 278.7,85.3 299.2,116.7 285.2,137.1 294.3,137.1 308.4,116.5 
			328.9,85.3 		"/>
		<rect x="324.3" y="127" class="st1" width="9.8" height="10.1"/>
		<rect x="347.5" y="85.3" class="st1" width="9" height="51.7"/>
		<path class="st1" d="M420.3,100.8c-1.3-3.2-3.2-6-5.5-8.5c-2.4-2.4-5.2-4.3-8.5-5.7c-3.3-1.4-6.9-2.1-10.9-2.1
			c-4,0-7.6,0.7-10.9,2.1c-3.3,1.4-6.2,3.4-8.6,5.8c-2.4,2.4-4.3,5.3-5.6,8.5c-1.3,3.2-2,6.7-2,10.3v0.1c0,3.6,0.7,7.1,2,10.3
			c1.3,3.2,3.2,6,5.5,8.5c2.4,2.4,5.2,4.3,8.5,5.7c3.3,1.4,6.9,2.1,10.9,2.1c4,0,7.6-0.7,10.9-2.1c3.3-1.4,6.2-3.4,8.6-5.8
			c2.4-2.4,4.3-5.3,5.6-8.5c1.3-3.2,2-6.7,2-10.3v-0.1C422.3,107.4,421.6,104,420.3,100.8z M412.7,111.4c0,2.5-0.4,4.9-1.3,7.1
			c-0.9,2.2-2,4.2-3.6,5.8c-1.5,1.7-3.3,3-5.5,3.9c-2.1,1-4.5,1.4-7,1.4c-2.6,0-4.9-0.5-7.1-1.5c-2.2-1-4-2.3-5.6-4
			c-1.5-1.7-2.7-3.6-3.6-5.8c-0.9-2.2-1.3-4.6-1.3-7.1v-0.1c0-2.5,0.4-4.9,1.3-7.1c0.9-2.2,2-4.2,3.6-5.8c1.5-1.7,3.3-3,5.5-3.9
			c2.1-1,4.5-1.4,7-1.4c2.6,0,4.9,0.5,7.1,1.5c2.2,1,4,2.3,5.6,4c1.5,1.7,2.7,3.6,3.6,5.8c0.9,2.2,1.3,4.6,1.3,7.1V111.4z"/>
	</g>
	<g>
		<polygon class="st2" points="65.7,9.5 65.7,28.7 85.7,35.9 65.7,43.2 65.7,63.7 112.1,45.7 112.1,45.5 112.1,26.2 		"/>
		<polygon class="st2" points="13.3,63.7 13.3,82.9 59.7,99.6 59.7,80.5 39.7,73.2 59.7,65.9 59.7,45.5 13.3,63.5 		"/>
	</g>
</g>
</svg>
