<svg width="500" height="200" viewBox="0 0 500 200" xmlns="http://www.w3.org/2000/svg"><g fill="none" fill-rule="evenodd"><path d="M3.444 132.63c2.85-1.31 30.28-10.355 55.453-11.902.593-2.142 3.324-9.165 3.8-11.07-26.124 1.905-47.38 9.642-55.93 13.57l-3.323 9.403zm4.393-12.26c7.956-8.212 36.81-34.635 36.81-34.635-14.96 3.45-30.635 8.212-36.216 10.712L0 105.137c7.006-1.55 9.262-1.787 14.487-2.5l-6.65 17.734z" fill="#87D300"/><path d="M44.41 68c-4.512 2.142-17.574 12.14-24.58 17.378 8.55-2.857 28.973-7.38 39.54-7.618-3.323-2.26-12.467-8.57-14.96-9.76zm16.86 11.07s-25.41 25.47-29.447 29.04c7.718-2.736 23.63-6.07 33.604-6.664 1.188-3.57 2.375-6.07 2.375-6.07l13.418-1.31c.12 0-10.093-8.212-19.95-14.997zm57.71 50.228H83.12v-8.094l21.61-37.255c1.545-2.62 2.376-4.643 2.376-4.643s-1.306-.12-4.75-.12H84.782l2.613-9.64h34.317v8.332l-21.85 38.206a379.318 379.318 0 0 0-2.137 3.69h24.224l-2.97 9.522zm16.03-42.135c-3.68 0-6.768-3.095-6.768-6.903 0-3.81 3.088-6.904 6.888-6.904 3.68 0 6.65 3.095 6.65 6.904.118 3.808-2.97 6.903-6.77 6.903zm-5.46 42.135V92.043l11.042-2.5V129.3H129.55zm21.966-.12h11.28L162.68 68l-11.28 2.62.118 58.56zm21.968 0h11.28L184.644 68l-11.28 2.62.12 58.56zm106.156.12h-10.093l-3.8-14.52c-.95-3.453-1.9-7.5-2.375-10.237-.356-2.023-.356-2.618-.713-4.165-.238 1.785-.357 2.38-.95 5.475-.832 3.69-2.613 10.95-3.68 14.878l-2.14 8.69h-10.33l-11.755-42.374h11.28l3.325 15.83c1.07 4.88 2.375 13.212 2.375 13.212s1.07-7.498 3.088-14.76l3.918-14.282h10.45l3.444 14.045a238.106 238.106 0 0 1 3.087 14.996c.24-1.785 1.19-8.45 2.257-13.807l3.206-15.117h11.4l-11.993 42.135zm-62.578-32.85c-1.068-1.43-2.85-2.262-4.75-2.262-2.612 0-4.75 1.666-5.7 4.284-.712 2.262-1.187 5.238-1.187 9.403 0 4.88.475 8.57 1.425 10.713.95 2.26 3.444 3.45 5.58 3.45 4.75 0 6.888-4.284 6.888-14.282 0-5.713-.712-9.403-2.256-11.307zm9.025 27.85c-3.206 3.69-7.48 5.833-14.012 5.833-11.518 0-19-8.57-19-21.9 0-13.33 7.6-22.138 19-22.138 6.056 0 10.687 2.023 14.368 6.427 3.443 3.927 4.868 8.57 4.868 15.472.12 7.142-1.542 12.14-5.223 16.307zm98.438-16.306h15.555v19.282c-4.037 1.786-8.668 2.62-13.774 2.62-6.65 0-11.756-1.905-15.318-5.595-3.562-3.81-5.344-9.047-5.344-15.95 0-4.285.832-8.094 2.613-11.427 1.78-3.333 4.275-5.832 7.6-7.737 3.324-1.785 7.005-2.737 11.28-2.737 4.63 0 8.668.832 12.35 2.498l-1.188 2.62c-3.682-1.667-7.482-2.5-11.4-2.5-5.58 0-9.975 1.666-13.18 5.118-3.207 3.45-4.87 8.093-4.87 13.925 0 6.31 1.544 11.19 4.63 14.403 3.09 3.214 7.6 4.76 13.657 4.76 3.918 0 7.125-.594 9.856-1.665V110.73h-12.587v-2.738h.12zm29.092 2.858v18.448h-2.97V87.044h9.975c5.225 0 9.144.952 11.637 2.857 2.493 1.905 3.8 4.88 3.8 8.69 0 2.856-.713 5.237-2.257 7.14-1.544 1.905-3.8 3.334-6.768 4.167l11.4 19.282h-3.563l-10.806-18.33h-10.45zm0-2.5h8.074c3.563 0 6.295-.834 8.313-2.38 2.02-1.548 2.97-3.93 2.97-7.023 0-3.214-.95-5.595-2.85-7.023-1.9-1.428-5.107-2.142-9.382-2.142h-7.005v18.567h-.118zm67.563-.24c0 6.667-1.66 12.023-4.986 15.95-3.325 3.93-7.956 5.833-13.893 5.833-5.817 0-10.448-1.904-13.773-5.832-3.325-3.927-4.987-9.164-4.987-15.95 0-6.664 1.662-12.02 5.106-15.83 3.325-3.808 7.956-5.83 13.774-5.83 5.937 0 10.45 1.903 13.774 5.83 3.325 3.81 4.987 9.047 4.987 15.83zm-34.434 0c0 6.072 1.306 10.714 4.037 14.046 2.73 3.333 6.53 5 11.637 5 5.106 0 8.906-1.667 11.637-4.88 2.73-3.333 4.037-7.975 4.037-14.046 0-6.07-1.306-10.712-4.037-14.044-2.73-3.214-6.53-4.88-11.518-4.88s-8.907 1.666-11.638 4.88c-2.85 3.213-4.156 7.855-4.156 13.925zm75.164-21.066v27.376c0 4.88-1.425 8.69-4.156 11.426-2.85 2.738-6.768 4.047-11.755 4.047-4.87 0-8.67-1.428-11.4-4.166-2.732-2.737-4.157-6.546-4.157-11.545V87.044h2.97v27.376c0 4.047 1.068 7.26 3.324 9.522 2.256 2.26 5.462 3.45 9.5 3.45 4.036 0 7.124-1.07 9.38-3.33 2.256-2.263 3.325-5.357 3.325-9.285V87.044h2.968zm36.81 12.141c0 4.046-1.424 7.26-4.155 9.403-2.732 2.142-6.65 3.213-11.756 3.213h-6.532V129.3h-2.968V87.044h10.33c10.093 0 15.08 4.047 15.08 12.14zm-22.442 10.117h5.82c4.748 0 8.192-.833 10.33-2.38 2.137-1.548 3.205-4.167 3.205-7.618 0-3.214-.95-5.714-2.968-7.26-2.02-1.548-5.106-2.38-9.262-2.38h-7.006V109.3h-.12zM300.54 81.57v1.427h.355c.356 0 .593 0 .712-.238.12-.12.238-.358.238-.477 0-.476-.238-.714-.95-.714h-.356zm1.423 3.808l-.356-.714c-.356-.596-.475-.834-.712-1.072-.12-.12-.12-.12-.238-.12v1.906h-.712v-4.404h1.306c.95 0 1.426.595 1.426 1.31 0 .713-.475 1.19-1.07 1.19.12.118.476.475.714.832l.593 1.072h-.95zm-.83-5.475c-1.782 0-3.088 1.428-3.088 3.332 0 1.905 1.425 3.333 3.087 3.333 1.78 0 3.088-1.428 3.088-3.333 0-1.904-1.425-3.332-3.088-3.332zm0 7.26c-2.138 0-3.92-1.785-3.92-3.928 0-2.26 1.782-3.928 3.92-3.928 2.137 0 3.918 1.786 3.918 3.928 0 2.143-1.78 3.928-3.918 3.928z" fill="#0074E4"/></g></svg>