<?xml version="1.0" encoding="utf-8"?>
<svg version="1.1" id="Layer_1" xmlns="http://www.w3.org/2000/svg" xmlns:xlink="http://www.w3.org/1999/xlink" x="0px" y="0px"
	 viewBox="0 0 500 200" style="enable-background:new 0 0 500 200;" xml:space="preserve">
<style type="text/css">
	.st0{fill:url(#SVGID_1_);}
	.st1{fill:url(#SVGID_2_);}
	.st2{fill:url(#SVGID_3_);}
	.st3{fill:url(#SVGID_4_);}
	.st4{fill:url(#SVGID_5_);}
	.st5{fill:url(#SVGID_6_);}
	.st6{fill:url(#SVGID_7_);}
	.st7{fill:url(#SVGID_8_);}
	.st8{fill:url(#SVGID_9_);}
	.st9{fill:url(#SVGID_10_);}
	.st10{fill:url(#SVGID_11_);}
	.st11{fill:#4A4A4F;}
</style>
<title>Zimp</title>
<g>

		<linearGradient id="SVGID_1_" gradientUnits="userSpaceOnUse" x1="305.1306" y1="145.5786" x2="305.1306" y2="61.4385" gradientTransform="matrix(1 0 0 -1 0 200.77)">
		<stop  offset="0" style="stop-color:#DBE067"/>
		<stop  offset="1" style="stop-color:#90CDC6"/>
	</linearGradient>
	<path class="st0" d="M292.3,102.5c-2.3,0-4.1-1.8-4.1-4.1c0-1.1,0.4-2.2,1.2-2.9L315,69.8c1.6-1.6,4.2-1.6,5.8,0
		c1.6,1.6,1.6,4.2,0,5.8l0,0l-25.6,25.6C294.5,102,293.4,102.5,292.3,102.5z"/>

		<linearGradient id="SVGID_2_" gradientUnits="userSpaceOnUse" x1="317.3334" y1="145.5786" x2="317.3334" y2="61.4385" gradientTransform="matrix(1 0 0 -1 0 200.77)">
		<stop  offset="0" style="stop-color:#DBE067"/>
		<stop  offset="1" style="stop-color:#90CDC6"/>
	</linearGradient>
	<path class="st1" d="M305.2,112.5c-2.3,0-4.1-1.8-4.1-4.1c0-1.1,0.4-2.1,1.2-2.9l24.2-24.2c1.6-1.6,4.2-1.6,5.8-0.1
		c1.6,1.6,1.6,4.2,0.1,5.8c0,0,0,0-0.1,0.1l-24.2,24.2C307.4,112.1,306.3,112.5,305.2,112.5z"/>

		<linearGradient id="SVGID_3_" gradientUnits="userSpaceOnUse" x1="320.5705" y1="145.5786" x2="320.5705" y2="61.4385" gradientTransform="matrix(1 0 0 -1 0 200.77)">
		<stop  offset="0" style="stop-color:#DBE067"/>
		<stop  offset="1" style="stop-color:#90CDC6"/>
	</linearGradient>
	<path class="st2" d="M311,126.4c-6.8,0-12.2-5.5-12.2-12.2c0-3.2,1.3-6.3,3.6-8.6c1.7-1.5,4.3-1.4,5.8,0.3c1.4,1.6,1.4,4,0,5.5
		c-1.6,1.6-1.6,4.1,0,5.7c1.6,1.6,4.1,1.6,5.7,0l21.5-21.5c1.6-1.6,4.2-1.6,5.8,0c1.6,1.6,1.6,4.2,0,5.8l0,0l-21.5,21.5
		C317.3,125.1,314.2,126.4,311,126.4z"/>

		<linearGradient id="SVGID_4_" gradientUnits="userSpaceOnUse" x1="324.8845" y1="145.5786" x2="324.8845" y2="61.4509" gradientTransform="matrix(1 0 0 -1 0 200.77)">
		<stop  offset="0" style="stop-color:#DBE067"/>
		<stop  offset="1" style="stop-color:#90CDC6"/>
	</linearGradient>
	<path class="st3" d="M329.4,88.3c-2.3,0-4.1-1.8-4.1-4.1c0-1.1,0.4-2.1,1.2-2.9c0.8-0.7,1.2-1.8,1.2-2.8c0-2.2-1.8-4-4-4
		c-1.1,0-2.1,0.4-2.8,1.2c-1.6,1.6-4.2,1.6-5.8-0.1c-1.6-1.6-1.6-4.2,0-5.8c4.8-4.7,12.6-4.7,17.3,0.2c4.7,4.8,4.7,12.4,0,17.1
		C331.6,87.9,330.5,88.3,329.4,88.3z"/>

		<linearGradient id="SVGID_5_" gradientUnits="userSpaceOnUse" x1="355.3779" y1="145.5786" x2="355.3779" y2="61.4509" gradientTransform="matrix(1 0 0 -1 0 200.77)">
		<stop  offset="0" style="stop-color:#DBE067"/>
		<stop  offset="1" style="stop-color:#90CDC6"/>
	</linearGradient>
	<path class="st4" d="M338.2,102.5c-2.3,0-4.1-1.8-4.1-4.1c0-1.1,0.4-2.2,1.2-2.9L369.7,61c1.6-1.6,4.2-1.6,5.8-0.1
		c1.6,1.6,1.6,4.2,0.1,5.8c0,0,0,0-0.1,0.1l-34.4,34.4C340.3,102,339.3,102.5,338.2,102.5z"/>

		<linearGradient id="SVGID_6_" gradientUnits="userSpaceOnUse" x1="361.1169" y1="145.5786" x2="361.1169" y2="61.4385" gradientTransform="matrix(1 0 0 -1 0 200.77)">
		<stop  offset="0" style="stop-color:#DBE067"/>
		<stop  offset="1" style="stop-color:#90CDC6"/>
	</linearGradient>
	<path class="st5" d="M338.2,125.4c-2.3,0-4.1-1.8-4.1-4.1c0-1.1,0.4-2.1,1.2-2.9l45.9-45.9c1.6-1.6,4.2-1.6,5.8,0
		c1.6,1.6,1.6,4.2,0,5.8l0,0l-45.9,45.9C340.3,125,339.3,125.4,338.2,125.4z"/>

		<linearGradient id="SVGID_7_" gradientUnits="userSpaceOnUse" x1="359.9993" y1="145.5786" x2="359.9993" y2="61.4385" gradientTransform="matrix(1 0 0 -1 0 200.77)">
		<stop  offset="0" style="stop-color:#DBE067"/>
		<stop  offset="1" style="stop-color:#90CDC6"/>
	</linearGradient>
	<path class="st6" d="M344,139.3c-6.8,0-12.2-5.5-12.2-12.2c0-3.3,1.3-6.4,3.6-8.7c1.6-1.6,4.2-1.6,5.8-0.1c1.6,1.6,1.6,4.2,0.1,5.8
		c0,0,0,0-0.1,0.1c-1.6,1.6-1.6,4.1,0,5.7c1.6,1.6,4.1,1.6,5.7,0l34.4-34.4c1.6-1.6,4.2-1.6,5.8,0c1.6,1.6,1.6,4.2,0,5.8l0,0
		l-34.4,34.4C350.3,138,347.2,139.3,344,139.3z"/>

		<linearGradient id="SVGID_8_" gradientUnits="userSpaceOnUse" x1="379.6106" y1="145.5786" x2="379.6106" y2="61.4509" gradientTransform="matrix(1 0 0 -1 0 200.77)">
		<stop  offset="0" style="stop-color:#DBE067"/>
		<stop  offset="1" style="stop-color:#90CDC6"/>
	</linearGradient>
	<path class="st7" d="M384.1,79.5c-2.3,0-4.1-1.8-4.1-4.1c0-1.1,0.4-2.1,1.2-2.9c0.8-0.7,1.2-1.8,1.2-2.8c0-2.2-1.8-4-4-4
		c-1.1,0-2.1,0.4-2.9,1.2c-1.6,1.6-4.2,1.6-5.8-0.1c-1.6-1.6-1.6-4.2,0-5.8c4.8-4.8,12.5-4.8,17.3,0c2.3,2.3,3.6,5.4,3.6,8.6
		c0,3.2-1.3,6.4-3.6,8.7C386.3,79.1,385.2,79.5,384.1,79.5z"/>

		<linearGradient id="SVGID_9_" gradientUnits="userSpaceOnUse" x1="404.2825" y1="145.5786" x2="404.2825" y2="61.4509" gradientTransform="matrix(1 0 0 -1 0 200.77)">
		<stop  offset="0" style="stop-color:#DBE067"/>
		<stop  offset="1" style="stop-color:#90CDC6"/>
	</linearGradient>
	<path class="st8" d="M384.1,102.5c-2.3,0-4.1-1.8-4.1-4.1c0-1.1,0.4-2.2,1.2-2.9l40.3-40.3c1.6-1.6,4.2-1.6,5.8-0.1
		c1.6,1.6,1.6,4.2,0.1,5.8c0,0,0,0-0.1,0.1L387,101.3C386.3,102,385.2,102.4,384.1,102.5z"/>

		<linearGradient id="SVGID_10_" gradientUnits="userSpaceOnUse" x1="421.5068" y1="145.5786" x2="421.5068" y2="61.4385" gradientTransform="matrix(1 0 0 -1 0 200.77)">
		<stop  offset="0" style="stop-color:#DBE067"/>
		<stop  offset="1" style="stop-color:#90CDC6"/>
	</linearGradient>
	<path class="st9" d="M407.1,102.5c-2.3,0-4.1-1.8-4.1-4.1c0-1.1,0.4-2.1,1.2-2.9L433,66.6c1.6-1.6,4.2-1.6,5.8,0
		c1.6,1.6,1.6,4.2,0,5.8L410,101.3C409.3,102,408.2,102.5,407.1,102.5z"/>

		<linearGradient id="SVGID_11_" gradientUnits="userSpaceOnUse" x1="431.2901" y1="145.5786" x2="431.2901" y2="61.4385" gradientTransform="matrix(1 0 0 -1 0 200.77)">
		<stop  offset="0" style="stop-color:#DBE067"/>
		<stop  offset="1" style="stop-color:#90CDC6"/>
	</linearGradient>
	<path class="st10" d="M435.9,73.7c-2.3,0-4.1-1.8-4.1-4.1c0-1.1,0.4-2.1,1.2-2.9c0.7-0.8,1.2-1.8,1.2-2.8c0-1.1-0.5-2.1-1.2-2.8
		c-1.6-1.6-4.1-1.6-5.7,0c-1.6,1.6-4.2,1.6-5.8,0c-1.6-1.6-1.6-4.2,0-5.8c4.8-4.8,12.5-4.8,17.3,0c2.3,2.3,3.6,5.4,3.6,8.7
		c0,3.2-1.3,6.4-3.6,8.7C438,73.2,437,73.7,435.9,73.7z"/>
	<path class="st11" d="M100.7,70.5H70.2c-2.4,0-4.4,2-4.4,4.4c0,2.4,2,4.4,4.4,4.4l0,0h17.8v0.3l-30.3,43l-0.2,1.4
		c-0.3,1.2,0.5,2.4,1.7,2.6c0.1,0,0.2,0,0.3,0H90c2.4,0,4.4-2,4.4-4.4s-2-4.4-4.4-4.4H72.5v-0.1l29.8-43.4
		C103.6,72.5,102.6,70.5,100.7,70.5z"/>
	<path class="st11" d="M199.8,69.1c-10,0-19.6,8.9-20.4,9.4c-2.5-5.8-8.3-9.6-14.6-9.4c-7.7,0-13.6,4.3-16.1,6.3c0-0.1,0-0.2,0-0.3
		c0-2.7-2.1-4.9-4.7-4.9c-2.4,0-4.5,1.7-4.9,4.1l0,0v0.2c0,0.1,0,0.1,0,0.2l-2.9,20.8l0,0l-3.7,26c0,0,0,0.1,0,0.1
		c0,0.2,0,0.4,0,0.6c-0.1,2.7,2.1,4.9,4.7,4.9c2.3,0,4.3-1.5,4.8-3.7c0.1-0.2,0.1-0.3,0.1-0.5l3.7-27l0,0l1.2-9.2c0.3,0,6.5-8,15-8
		c7.4,0,10.8,5.2,9.3,15.9l-0.5,3.5l-3.3,23.6c0,0,0,0.1,0,0.1c0,0.2,0,0.4,0,0.6c0,2.7,2.1,4.9,4.8,4.9c2.2,0,4.2-1.5,4.7-3.6
		c0.1-0.2,0.1-0.3,0.1-0.5l3.7-27l0,0l0.2-1.2c0.4-2.7,0.6-5.5,0.7-8.2c1.7-1.8,7.6-7.9,15.7-7.9c7.2,0,10.3,5.3,8.8,15.9l-3.5,24.9
		c0,0,0,0.1,0,0.1l-0.3,2.3c0,0,0,0.1,0,0.1c0,0.2,0,0.4,0,0.6c0,2.7,2.2,4.8,4.8,4.8c2.2,0,4.1-1.5,4.7-3.6
		c0.1-0.2,0.1-0.4,0.1-0.5l0.8-5.8l3.3-22.7C218.2,79.8,213.3,69.1,199.8,69.1z"/>
	<path class="st11" d="M258.5,69.1c-5.3-0.1-10.6,1.6-14.7,5c-0.5-2.6-3.1-4.3-5.7-3.8c-2,0.4-3.5,2-3.8,4c0,0,0,0,0,0.1l-6.3,44.5
		l0,0l-2.6,18.5l-0.9,6.2l0,0l-0.2,1.3c0,0,0,0.1,0,0.1c0,0.2,0,0.4,0,0.5c0,2.7,2.2,4.8,4.8,4.8c2.2,0,4.1-1.5,4.7-3.6
		c0.1-0.2,0.1-0.4,0.1-0.5l1.6-11.3l1.8-11.4c3.5,2.9,7.9,4.6,12.5,4.6c16.7,0,29-15,29-33.9C278.8,80.9,270.3,69.1,258.5,69.1z
		 M249.8,119.3c-4.2-0.1-8.2-1.9-11.1-4.9l4.1-29c0,0,5.5-6.9,13.3-6.9c8.4,0,12.8,8,12.8,17C269,108.9,260.3,119.3,249.8,119.3
		L249.8,119.3z"/>
	<path class="st11" d="M118.1,70.6c-2.2,0-4.1,1.5-4.7,3.6c-0.1,0.2-0.1,0.4-0.1,0.5l-3.6,26l-2.9,20.7c0,0,0,0.1,0,0.1
		c0,0.2,0,0.4,0,0.6c0,2.7,2.2,4.8,4.8,4.8c2.2,0,4.1-1.5,4.7-3.6c0.1-0.2,0.1-0.3,0.1-0.5l3.6-26l2.9-20.7c0-0.2,0-0.3,0-0.5
		c0-0.1,0-0.1,0-0.2C122.9,72.8,120.8,70.6,118.1,70.6C118.1,70.6,118.1,70.6,118.1,70.6z"/>
	<circle class="st11" cx="120.4" cy="55.3" r="5.7"/>
</g>
</svg>
